<!-- This Source Code Form is subject to the terms of the Mozilla Public
   - License, v. 2.0. If a copy of the MPL was not distributed with this
   - file, You can obtain one at http://mozilla.org/MPL/2.0/. -->
<svg xmlns="http://www.w3.org/2000/svg" width="48" height="48" fill="none" viewBox="0 0 48 48"><circle cx="24" cy="24" r="24" fill="#7338e2"/><path fill="#000" d="M42.336 26.011c-1.801 0-2.72-1.305-3.063-3.078-.498-2.57-1.363-5-2.388-7.423-.527-1.246-1.492-4.109-3.086-4.436-1.813-.375-3.412.603-5.48 4.747-1.7 3.418-2.85 5.8-2.85 5.8v.024l-1.167-.012h-.586s-.03 0-.03.006l-1.167.012v-.024s-1.15-2.388-2.85-5.8c-2.061-4.15-3.666-5.122-5.48-4.748-1.593.328-2.559 3.196-3.086 4.437-1.025 2.424-1.89 4.847-2.387 7.422-.344 1.774-1.256 3.073-3.063 3.08-.462 0-.77.48-.61.906.385 1.03 1.57 1.686 2.559 2.067-.444.117-1.771-.152-1.83.515-.048.544 1.338 1.094 1.712 1.27 3.489 1.68 6.7 4.694 10.829 4.162 1.795-.234 3.104-1.499 4.574-2.283a2.38 2.38 0 0 1 2.227 0c1.47.784 2.778 2.049 4.573 2.283 4.13.532 7.34-2.482 10.83-4.162.373-.181 1.753-.726 1.712-1.27-.053-.662-1.38-.398-1.83-.515.989-.38 2.174-1.036 2.559-2.067a.674.674 0 0 0-.61-.907zm-29.248.884c-.053-.556 1.155-.983 1.593-1.053 2.607-.433 6.06.585 6.902 3.283-2.393 2.184-7.322.68-8.495-2.224zm13.312 2.23c.84-2.698 4.295-3.716 6.901-3.283.439.07 1.647.497 1.594 1.053-1.179 2.904-6.102 4.414-8.496 2.224z"/><path fill="url(#a)" d="M42.336 26.011c-1.801 0-2.72-1.305-3.063-3.078-.498-2.57-1.363-5-2.388-7.423-.527-1.246-1.492-4.109-3.086-4.436-1.813-.375-3.412.603-5.48 4.747-1.7 3.418-2.85 5.8-2.85 5.8v.024l-1.167-.012h-.586s-.03 0-.03.006l-1.167.012v-.024s-1.15-2.388-2.85-5.8c-2.061-4.15-3.666-5.122-5.48-4.748-1.593.328-2.559 3.196-3.086 4.437-1.025 2.424-1.89 4.847-2.387 7.422-.344 1.774-1.256 3.073-3.063 3.08-.462 0-.77.48-.61.906.385 1.03 1.57 1.686 2.559 2.067-.444.117-1.771-.152-1.83.515-.048.544 1.338 1.094 1.712 1.27 3.489 1.68 6.7 4.694 10.829 4.162 1.795-.234 3.104-1.499 4.574-2.283a2.38 2.38 0 0 1 2.227 0c1.47.784 2.778 2.049 4.573 2.283 4.13.532 7.34-2.482 10.83-4.162.373-.181 1.753-.726 1.712-1.27-.053-.662-1.38-.398-1.83-.515.989-.38 2.174-1.036 2.559-2.067a.674.674 0 0 0-.61-.907zm-29.248.884c-.053-.556 1.155-.983 1.593-1.053 2.607-.433 6.06.585 6.902 3.283-2.393 2.184-7.322.68-8.495-2.224zm13.312 2.23c.84-2.698 4.295-3.716 6.901-3.283.439.07 1.647.497 1.594 1.053-1.179 2.904-6.102 4.414-8.496 2.224z"/><defs><linearGradient id="a" x1="30.701" x2="30.709" y1="47.041" y2="-4.5" gradientUnits="userSpaceOnUse"><stop stop-color="#fff"/><stop offset="1" stop-color="#d7bfff"/></linearGradient></defs></svg>