<!-- This Source Code Form is subject to the terms of the Mozilla Public
   - License, v. 2.0. If a copy of the MPL was not distributed with this
   - file, You can obtain one at http://mozilla.org/MPL/2.0/. -->
<svg xmlns="http://www.w3.org/2000/svg" viewBox="0 0 20 20" width="20" height="20" fill="context-fill">
<style>
.nova { display: none; }

@media -moz-pref("browser.nova.enabled") {
  .proton { display: none; }
  .nova { display: revert; }
}
</style>
<g class="proton">
  <path d="M2 3.125h17v1.75H2v-1.75zM5 11.125h14v1.75H5v-1.75zM19 7.125H9v1.75h10v-1.75zM9 15.125h10v1.75H9v-1.75z"/>
</g>
<g class="nova">
  <path d="M18.125 15a.875.875 0 0 1 0 1.75h-8.25a.875.875 0 0 1 0-1.75zm0-4a.875.875 0 0 1 0 1.75H5.875a.875.875 0 0 1 0-1.75zm0-4a.875.875 0 0 1 0 1.75h-8.25a.875.875 0 0 1 0-1.75zm0-4a.875.875 0 0 1 0 1.75H2.875a.875.875 0 0 1 0-1.75z" />
</g>
</svg>
