<!-- This Source Code Form is subject to the terms of the Mozilla Public
   - License, v. 2.0. If a copy of the MPL was not distributed with this
   - file, You can obtain one at http://mozilla.org/MPL/2.0/. -->
<svg xmlns="http://www.w3.org/2000/svg" viewBox="0 0 20 20" width="20" height="20" fill="context-fill">
<style>
.nova { display: none; }

@media -moz-pref("browser.nova.enabled") {
  .proton { display: none; }
  .nova { display: revert; }
}
</style>
<g class="proton">
  <path d="M18 3.125H2v1.75h16v-1.75zM18 11.125H2v1.75h16v-1.75zM6 7.125h8v1.75H6v-1.75zM14 15.125H6v1.75h8v-1.75z"/>
</g>
<g class="nova">
  <path d="M13.125 15a.875.875 0 0 1 0 1.75h-6.25a.875.875 0 0 1 0-1.75zm4-4a.875.875 0 0 1 0 1.75H2.875a.875.875 0 0 1 0-1.75zm-4-4a.875.875 0 0 1 0 1.75h-6.25a.875.875 0 0 1 0-1.75zm4-4a.875.875 0 0 1 0 1.75H2.875a.875.875 0 0 1 0-1.75z" />
</g>
</svg>
