<!-- This Source Code Form is subject to the terms of the Mozilla Public
   - License, v. 2.0. If a copy of the MPL was not distributed with this
   - file, You can obtain one at http://mozilla.org/MPL/2.0/. -->
<svg xmlns="http://www.w3.org/2000/svg" viewBox="0 0 20 20" width="20" height="20" fill="context-fill">
<style>
.nova { display: none; }

@media -moz-pref("browser.nova.enabled") {
  .proton { display: none; }
  .nova { display: revert; }
}
</style>
<g class="proton">
  <path d="M1.75 19V1H0v18h1.75zM20 1v18h-1.75V1H20z"/>
  <path fill-rule="evenodd" clip-rule="evenodd" d="M6 15.707 7.342 12.5h5.317L14 15.707h1.897l-4.516-10.8a1 1 0 0 0-.923-.614h-.915c-.403 0-.767.242-.923.614l-4.517 10.8H6zm4-9.564 1.927 4.607H8.074L10 6.143z"/>
</g>
<g class="nova">
  <path d="M.875 1c.483 0 .875.392.875.875v16.25a.875.875 0 0 1-1.75 0V1.875C0 1.392.392 1 .875 1m18.25 0c.483 0 .875.392.875.875v16.25a.875.875 0 0 1-1.75 0V1.875c0-.483.392-.875.875-.875" />
  <path fill-rule="evenodd" d="M9.999 4.293c.68 0 1.294.41 1.557 1.037l3.832 9.164a.874.874 0 1 1-1.614.675L12.658 12.5H7.341l-1.116 2.669h-.002a.874.874 0 1 1-1.614-.675L8.442 5.33A1.69 1.69 0 0 1 10 4.293M8.074 10.75h3.853L10 6.144z" clip-rule="evenodd" />
</g>
</svg>
