<!-- This Source Code Form is subject to the terms of the Mozilla Public
   - License, v. 2.0. If a copy of the MPL was not distributed with this
   - file, You can obtain one at http://mozilla.org/MPL/2.0/. -->
<svg xmlns="http://www.w3.org/2000/svg" viewBox="0 0 20 20" width="20" height="20" fill="context-fill">
<style>
.nova { display: none; }

@media -moz-pref("browser.nova.enabled") {
  .proton { display: none; }
  .nova { display: revert; }
}
</style>
<g class="proton">
  <path d="M1.75 2v16H0V2h1.75zM20 2v16h-1.75V2H20zM14.064 12.996a.75.75 0 0 1-1.28-.53v-1.591H7.21v1.591a.75.75 0 0 1-1.28.53L3.464 10.53a.75.75 0 0 1 0-1.061L5.93 7.004a.75.75 0 0 1 1.28.53v1.591h5.574V7.533a.75.75 0 0 1 1.28-.53l2.466 2.466a.75.75 0 0 1 0 1.061l-2.466 2.466z"/>
</g>
<g class="nova">
  <path d="M.875 2c.483 0 .875.392.875.875v14.25a.875.875 0 0 1-1.75 0V2.875C0 2.392.392 2 .875 2m18.25 0c.483 0 .875.392.875.875v14.25a.875.875 0 0 1-1.75 0V2.875c0-.483.392-.875.875-.875m-6.341 5.533a.75.75 0 0 1 1.28-.53l2.466 2.466a.75.75 0 0 1 0 1.061l-2.466 2.466a.75.75 0 0 1-1.28-.53v-1.591H7.21v1.59a.75.75 0 0 1-1.28.531L3.464 10.53a.75.75 0 0 1 0-1.061L5.93 7.003a.75.75 0 0 1 1.28.53v1.592h5.574z" />
</g>
</svg>
