<!-- This Source Code Form is subject to the terms of the Mozilla Public
   - License, v. 2.0. If a copy of the MPL was not distributed with this
   - file, You can obtain one at http://mozilla.org/MPL/2.0/. -->
<svg height="16" width="16" xmlns="http://www.w3.org/2000/svg" fill="context-fill" viewBox="0 0 16 16">
<style>
.nova { display: none; }

@media -moz-pref("browser.nova.enabled") {
  .proton { display: none; }
  .nova { display: revert; }
}
</style>
<g class="proton">
  <path d="M4.5,9.4H3.2c-0.3,0-0.5,0.2-0.5,0.5s0.2,0.5,0.5,0.5h1.3c0.3,0,0.5-0.2,0.5-0.5S4.8,9.4,4.5,9.4z"/>
  <path d="M9.3,9.4H6.2c-0.3,0-0.5,0.2-0.5,0.5s0.2,0.5,0.5,0.5h3.2c0.3,0,0.5-0.2,0.5-0.5S9.6,9.4,9.3,9.4z"/>
  <path d="M14,2H2C0.9,2,0,2.9,0,4v8c0,1.1,0.9,2,2,2h12c1.1,0,2-0.9,2-2V4C16,2.9,15.1,2,14,2z M14,12H2V7.7h12V12z M14,6H2V4h12V6z"/>
</g>
<g class="nova">
  <path d="M6.25 9.5a.75.75 0 0 1 0 1.5h-2.5a.75.75 0 0 1 0-1.5z" />
  <path fill-rule="evenodd" d="M8 2c1.455 0 3.056.059 4.777.213l.746.072.258.04A2.76 2.76 0 0 1 16 5.024v5.95c0 1.4-1.049 2.59-2.454 2.737a53.6 53.6 0 0 1-11.068.003A2.76 2.76 0 0 1 0 10.975v-5.95c0-1.4 1.049-2.59 2.454-2.737A54 54 0 0 1 8 2m-6.5 8.975c0 .639.49 1.18 1.133 1.248a52 52 0 0 0 10.758-.003 1.246 1.246 0 0 0 1.109-1.245V7h-13zM8 3.5c-1.945 0-3.75.11-5.39.28A1.246 1.246 0 0 0 1.5 5.025V5.5h13v-.475c0-.638-.49-1.18-1.133-1.248A52 52 0 0 0 8 3.5" clip-rule="evenodd" />
</g>
</svg>
