<!-- This Source Code Form is subject to the terms of the Mozilla Public
   - License, v. 2.0. If a copy of the MPL was not distributed with this
   - file, You can obtain one at https://mozilla.org/MPL/2.0/. -->
<svg width="24" height="24" viewBox="0 0 24 24" fill="none" xmlns="http://www.w3.org/2000/svg">
<path fill-rule="evenodd" clip-rule="evenodd" d="M7 11H9C9.53043 11 10.0391 10.7893 10.4142 10.4142C10.7893 10.0391 11 9.53043 11 9V7C11 6.46957 10.7893 5.96086 10.4142 5.58579C10.0391 5.21071 9.53043 5 9 5H7C6.46957 5 5.96086 5.21071 5.58579 5.58579C5.21071 5.96086 5 6.46957 5 7V9C5 9.53043 5.21071 10.0391 5.58579 10.4142C5.96086 10.7893 6.46957 11 7 11ZM15 11H17C17.5304 11 18.0391 10.7893 18.4142 10.4142C18.7893 10.0391 19 9.53043 19 9V7C19 6.46957 18.7893 5.96086 18.4142 5.58579C18.0391 5.21071 17.5304 5 17 5H15C14.4696 5 13.9609 5.21071 13.5858 5.58579C13.2107 5.96086 13 6.46957 13 7V9C13 9.53043 13.2107 10.0391 13.5858 10.4142C13.9609 10.7893 14.4696 11 15 11ZM9 19H7C6.46957 19 5.96086 18.7893 5.58579 18.4142C5.21071 18.0391 5 17.5304 5 17V15C5 14.4696 5.21071 13.9609 5.58579 13.5858C5.96086 13.2107 6.46957 13 7 13H9C9.53043 13 10.0391 13.2107 10.4142 13.5858C10.7893 13.9609 11 14.4696 11 15V17C11 17.5304 10.7893 18.0391 10.4142 18.4142C10.0391 18.7893 9.53043 19 9 19ZM15 19H17C17.5304 19 18.0391 18.7893 18.4142 18.4142C18.7893 18.0391 19 17.5304 19 17V15C19 14.4696 18.7893 13.9609 18.4142 13.5858C18.0391 13.2107 17.5304 13 17 13H15C14.4696 13 13.9609 13.2107 13.5858 13.5858C13.2107 13.9609 13 14.4696 13 15V17C13 17.5304 13.2107 18.0391 13.5858 18.4142C13.9609 18.7893 14.4696 19 15 19Z" fill="context-fill" fill-opacity="context-fill-opacity"/>
</svg>
