<!-- This Source Code Form is subject to the terms of the Mozilla Public
   - License, v. 2.0. If a copy of the MPL was not distributed with this
   - file, You can obtain one at https://mozilla.org/MPL/2.0/. -->
<svg xmlns="http://www.w3.org/2000/svg" width="100" height="100" fill="none" viewBox="0 0 100 100"><path fill="url(#a)" d="M53.605 49.667s18.183-1.053 30.133 17.393c.094.145-.078.323-.223.228-.996-.648-2.998-1.702-5.378-1.625 0 0 7.972 3.596 11.504 19.796.038.176-.198.275-.295.123-1.805-2.841-8.454-12.379-17.252-13.906 0 0 2.707 2.337 3.62 6.49.032.152-.149.262-.266.16C73.493 76.64 63.773 68.68 51.107 65.6c-7.768-1.89 2.498-15.932 2.498-15.932Z"/><path fill="url(#b)" d="m15.98 44.188 13.383 11.401-4.03 17.032 14.97-8.806 15.032 8.966-3.882-17.067L64.66 44.158l-17.466-1.552-6.978-15.95-6.318 16.285z"/><path fill="url(#c)" d="M29.362 55.589 15.98 44.187l17.918-1.246 6.318-16.286-.681-1.555a1.8 1.8 0 0 0-.845.808l-7.284 13.919-15.49 2.627c-1.447.245-2.023 2.017-.996 3.067L25.906 56.75l-2.288 15.542c-.066.447.031.86.235 1.198l1.479-.87z"/><path fill="url(#d)" d="M29.362 55.589 15.98 44.187l17.918-1.246 6.318-16.286-.681-1.555a1.8 1.8 0 0 0-.845.808l-7.284 13.919-15.49 2.627c-1.447.245-2.023 2.017-.996 3.067L25.906 56.75l-2.288 15.542c-.066.447.031.86.235 1.198l1.479-.87z" opacity=".5"/><path fill="url(#e)" d="m64.688 42.453-15.49-2.626-7.284-13.92a1.8 1.8 0 0 0-1.063-.891l-.636 1.64 6.978 15.949 17.466 1.552-13.207 11.556 3.882 17.067-15.032-8.966-14.97 8.806-.4 1.692a1.8 1.8 0 0 0 1.295-.124l14.075-6.98 14.075 6.98c1.316.652 2.822-.443 2.608-1.896L54.699 56.75l10.986-11.23c1.027-1.05.452-2.82-.996-3.067Z"/><path fill="url(#f)" d="m64.688 42.453-15.49-2.626-7.284-13.92a1.8 1.8 0 0 0-1.063-.891l-.636 1.64 6.978 15.949 17.466 1.552-13.207 11.556 3.882 17.067-15.032-8.966-14.97 8.806-.4 1.692a1.8 1.8 0 0 0 1.295-.124l14.075-6.98 14.075 6.98c1.316.652 2.822-.443 2.608-1.896L54.699 56.75l10.986-11.23c1.027-1.05.452-2.82-.996-3.067Z" opacity=".5"/><path fill="url(#g)" d="M40.852 25.017a1.85 1.85 0 0 0-1.317.084l.68 1.555.637-1.64Z"/><path fill="url(#h)" d="M40.852 25.017a1.85 1.85 0 0 0-1.317.084l.68 1.555.637-1.64Z" opacity=".5"/><path fill="url(#i)" d="M40.852 25.017a1.85 1.85 0 0 0-1.317.084l.68 1.555.637-1.64Z" opacity=".5"/><path fill="url(#j)" d="M23.854 73.49c.24.4.63.697 1.078.823l.4-1.692-1.479.87Z"/><path fill="url(#k)" d="M23.854 73.49c.24.4.63.697 1.078.823l.4-1.692-1.479.87Z" opacity=".5"/><path fill="url(#l)" d="M23.854 73.49c.24.4.63.697 1.078.823l.4-1.692-1.479.87Z" opacity=".5"/><defs><linearGradient id="a" x1="86.609" x2="41.068" y1="72.113" y2="55.52" gradientUnits="userSpaceOnUse"><stop stop-color="#ffeb49"/><stop offset=".548" stop-color="#f60"/><stop offset=".781" stop-color="#d22232"/><stop offset=".902" stop-color="#be0449"/></linearGradient><linearGradient id="b" x1="20.125" x2="83.89" y1="33.409" y2="97.453" gradientUnits="userSpaceOnUse"><stop offset=".127" stop-color="#f942ff"/><stop offset=".24" stop-color="#cb39ff"/><stop offset=".376" stop-color="#9a2fff"/><stop offset=".512" stop-color="#7127ff"/><stop offset=".644" stop-color="#5221ff"/><stop offset=".772" stop-color="#3b1dff"/><stop offset=".893" stop-color="#2e1aff"/><stop offset="1" stop-color="#2919ff"/></linearGradient><linearGradient id="c" x1="17.991" x2="81.756" y1="35.532" y2="99.576" gradientUnits="userSpaceOnUse"><stop offset=".127" stop-color="#f942ff"/><stop offset=".24" stop-color="#cb39ff"/><stop offset=".376" stop-color="#9a2fff"/><stop offset=".512" stop-color="#7127ff"/><stop offset=".644" stop-color="#5221ff"/><stop offset=".772" stop-color="#3b1dff"/><stop offset=".893" stop-color="#2e1aff"/><stop offset="1" stop-color="#2919ff"/></linearGradient><linearGradient id="e" x1="20.154" x2="83.92" y1="33.378" y2="97.422" gradientUnits="userSpaceOnUse"><stop offset=".127" stop-color="#f942ff"/><stop offset=".24" stop-color="#cb39ff"/><stop offset=".376" stop-color="#9a2fff"/><stop offset=".512" stop-color="#7127ff"/><stop offset=".644" stop-color="#5221ff"/><stop offset=".772" stop-color="#3b1dff"/><stop offset=".893" stop-color="#2e1aff"/><stop offset="1" stop-color="#2919ff"/></linearGradient><linearGradient id="f" x1="30.368" x2="49.816" y1="36.203" y2="65.375" gradientUnits="userSpaceOnUse"><stop offset="0" stop-color="#f942ff"/><stop offset=".11" stop-color="#d33aff"/><stop offset=".275" stop-color="#9f30ff"/><stop offset=".437" stop-color="#7528ff"/><stop offset=".594" stop-color="#5421ff"/><stop offset=".743" stop-color="#3c1dff"/><stop offset=".882" stop-color="#2e1aff"/><stop offset="1" stop-color="#2919ff"/></linearGradient><linearGradient id="g" x1="34.16" x2="97.926" y1="19.435" y2="83.479" gradientUnits="userSpaceOnUse"><stop offset=".127" stop-color="#f942ff"/><stop offset=".24" stop-color="#cb39ff"/><stop offset=".376" stop-color="#9a2fff"/><stop offset=".512" stop-color="#7127ff"/><stop offset=".644" stop-color="#5221ff"/><stop offset=".772" stop-color="#3b1dff"/><stop offset=".893" stop-color="#2e1aff"/><stop offset="1" stop-color="#2919ff"/></linearGradient><linearGradient id="i" x1="42.191" x2="61.639" y1="28.323" y2="57.495" gradientUnits="userSpaceOnUse"><stop offset="0" stop-color="#f942ff"/><stop offset=".11" stop-color="#d33aff"/><stop offset=".275" stop-color="#9f30ff"/><stop offset=".437" stop-color="#7528ff"/><stop offset=".594" stop-color="#5421ff"/><stop offset=".743" stop-color="#3c1dff"/><stop offset=".882" stop-color="#2e1aff"/><stop offset="1" stop-color="#2919ff"/></linearGradient><linearGradient id="j" x1="2.526" x2="66.292" y1="50.931" y2="114.975" gradientUnits="userSpaceOnUse"><stop offset=".127" stop-color="#f942ff"/><stop offset=".24" stop-color="#cb39ff"/><stop offset=".376" stop-color="#9a2fff"/><stop offset=".512" stop-color="#7127ff"/><stop offset=".644" stop-color="#5221ff"/><stop offset=".772" stop-color="#3b1dff"/><stop offset=".893" stop-color="#2e1aff"/><stop offset="1" stop-color="#2919ff"/></linearGradient><linearGradient id="l" x1="9.361" x2="28.809" y1="50.209" y2="79.382" gradientUnits="userSpaceOnUse"><stop offset="0" stop-color="#f942ff"/><stop offset=".11" stop-color="#d33aff"/><stop offset=".275" stop-color="#9f30ff"/><stop offset=".437" stop-color="#7528ff"/><stop offset=".594" stop-color="#5421ff"/><stop offset=".743" stop-color="#3c1dff"/><stop offset=".882" stop-color="#2e1aff"/><stop offset="1" stop-color="#2919ff"/></linearGradient><radialGradient id="d" cx="0" cy="0" r="1" gradientTransform="translate(21.223 54.623)scale(50.873)" gradientUnits="userSpaceOnUse"><stop stop-color="#e552fd"/><stop offset=".114" stop-color="#e850fd"/><stop offset=".201" stop-color="#f248fe"/><stop offset=".24" stop-color="#f942ff"/><stop offset=".346" stop-color="#f641ff"/><stop offset=".425" stop-color="#ec40ff"/><stop offset=".496" stop-color="#dc3cff"/><stop offset=".563" stop-color="#c538ff"/><stop offset=".625" stop-color="#a832ff"/><stop offset=".685" stop-color="#832bff"/><stop offset=".742" stop-color="#5922ff"/><stop offset=".797" stop-color="#2919ff"/></radialGradient><radialGradient id="h" cx="0" cy="0" r="1" gradientTransform="translate(21.224 54.623)scale(50.873)" gradientUnits="userSpaceOnUse"><stop stop-color="#e552fd"/><stop offset=".114" stop-color="#e850fd"/><stop offset=".201" stop-color="#f248fe"/><stop offset=".24" stop-color="#f942ff"/><stop offset=".346" stop-color="#f641ff"/><stop offset=".425" stop-color="#ec40ff"/><stop offset=".496" stop-color="#dc3cff"/><stop offset=".563" stop-color="#c538ff"/><stop offset=".625" stop-color="#a832ff"/><stop offset=".685" stop-color="#832bff"/><stop offset=".742" stop-color="#5922ff"/><stop offset=".797" stop-color="#2919ff"/></radialGradient><radialGradient id="k" cx="0" cy="0" r="1" gradientTransform="matrix(50.873 0 0 50.8729 21.224 54.624)" gradientUnits="userSpaceOnUse"><stop stop-color="#e552fd"/><stop offset=".114" stop-color="#e850fd"/><stop offset=".201" stop-color="#f248fe"/><stop offset=".24" stop-color="#f942ff"/><stop offset=".346" stop-color="#f641ff"/><stop offset=".425" stop-color="#ec40ff"/><stop offset=".496" stop-color="#dc3cff"/><stop offset=".563" stop-color="#c538ff"/><stop offset=".625" stop-color="#a832ff"/><stop offset=".685" stop-color="#832bff"/><stop offset=".742" stop-color="#5922ff"/><stop offset=".797" stop-color="#2919ff"/></radialGradient></defs></svg>