<!-- This Source Code Form is subject to the terms of the Mozilla Public
   - License, v. 2.0. If a copy of the MPL was not distributed with this
   - file, You can obtain one at https://mozilla.org/MPL/2.0/. -->
<svg xmlns="http://www.w3.org/2000/svg" width="100" height="100" fill="none" viewBox="0 0 100 100"><path fill="url(#a)" d="M28.664 50.946c.33-.543-.072-.802-.582-.617-.201.072-1.366.66-1.922 1.429-.277.383-.476 1.023-.484 1.49-.118 6.74 18.491 5.531 20.355 5.578 1.79.045 2.21.731 1.531 1.65-2.903 3.926-20.283 3.951-16.245 12.156 1.967 3.997 10.884 3.555 11.54 5.533.857 2.905-10.481-.47-12.747 10.423-.02.09.082.157.156.101 2.573-1.955 6.416-3.065 9.635-2.576 4.66.315 11.535-.08 14.414-4.22.415-.595.712-1.286.701-2.012-.087-5.948-16.549-5.68-10.286-11.07 4.698-2.764 14.636-4.285 14.801-9.1.349-10.152-36.408.39-30.867-8.765"/><path fill="url(#b)" d="M30.116 48.842c.53 1.187.42 2.082.105 2.726l9.233.686a9.9 9.9 0 0 0 2.663-.167 2.46 2.46 0 0 1-.159-1.146c.128-1.246.904-2.594 1.582-3.56-.974-.039-2.724-.328-3.547-1.835-1.536-2.814.838-4.911.838-4.911l30.68-16.564-.045-.048-31.03 16.825s-2.873.535-4.448-.758c-1.368-1.124-1.465-2.173-1.278-2.888a8.3 8.3 0 0 0-1.065 1.33l-5.376 8.34c.648.243 1.327.803 1.847 1.97"/><path fill="url(#c)" d="M30.118 48.841c-.52-1.166-1.2-1.726-1.847-1.97l-1.414 2.194c-.702.945-.057 2.29 1.12 2.335l2.245.167c.316-.644.426-1.538-.104-2.726"/><path fill="url(#d)" d="M30.118 48.841c-.52-1.166-1.2-1.726-1.847-1.97l-1.414 2.194c-.702.945-.057 2.29 1.12 2.335l2.245.167c.316-.644.426-1.538-.104-2.726"/><path fill="url(#e)" d="M43.541 47.38c-.677.967-1.454 2.315-1.581 3.561a2.46 2.46 0 0 0 .159 1.146 9.9 9.9 0 0 0 2.839-1.04l25.747-13.773a6.5 6.5 0 0 0 2.988-3.525l.61-2.11a3.1 3.1 0 0 0 .163-1.35L44.231 47.37s-.275.028-.69.012Z"/><path fill="url(#f)" d="M43.541 47.38c-.677.967-1.454 2.315-1.581 3.561a2.46 2.46 0 0 0 .159 1.146 9.9 9.9 0 0 0 2.839-1.04l25.747-13.773a6.5 6.5 0 0 0 2.988-3.525l.61-2.11a3.1 3.1 0 0 0 .163-1.35L44.231 47.37s-.275.028-.69.012Z"/><path fill="url(#g)" d="M35.989 40.09c1.574 1.292 4.448.758 4.448.758l31.03-16.825a2.5 2.5 0 0 0-.446-.359l-4.561-2.209a2.85 2.85 0 0 0-2.564.04l-27.112 14.17a8.3 8.3 0 0 0-2.073 1.537c-.188.715-.09 1.764 1.278 2.888"/><path fill="url(#h)" d="M35.989 40.09c1.574 1.292 4.448.758 4.448.758l31.03-16.825a2.5 2.5 0 0 0-.446-.359l-4.561-2.209a2.85 2.85 0 0 0-2.564.04l-27.112 14.17a8.3 8.3 0 0 0-2.073 1.537c-.188.715-.09 1.764 1.278 2.888"/><path fill="url(#i)" d="M39.994 45.546c.822 1.506 2.573 1.796 3.547 1.835.56-.8 1.054-1.339 1.054-1.339l29.537-16.884-2.195-4.476a2.5 2.5 0 0 0-.425-.612l-30.68 16.565s-2.374 2.096-.838 4.91Z"/><path fill="url(#j)" d="M43.541 47.381c.415.017.69-.012.69-.012l30.235-17.08a3.1 3.1 0 0 0-.304-1.07l-.03-.06-29.537 16.884s-.493.538-1.054 1.338"/><path fill="url(#k)" d="M43.541 47.381c.415.017.69-.012.69-.012l30.235-17.08a3.1 3.1 0 0 0-.304-1.07l-.03-.06-29.537 16.884s-.493.538-1.054 1.338"/><path fill="url(#l)" d="m74.161 29.218-.029-.06-2.195-4.476a2.5 2.5 0 0 0-.425-.612l-30.68 16.565s-2.374 2.096-.838 4.91c.822 1.507 2.573 1.797 3.547 1.836.414.016.689-.013.689-.013l30.235-17.08a3.1 3.1 0 0 0-.304-1.07"/><defs><linearGradient id="a" x1="50.536" x2="25.732" y1="82.831" y2="42.834" gradientUnits="userSpaceOnUse"><stop stop-color="#ffeb49"/><stop offset=".568" stop-color="#f60"/><stop offset=".635" stop-color="#ff6109"/><stop offset=".746" stop-color="#fe5323"/><stop offset=".887" stop-color="#fc3d4c"/><stop offset="1" stop-color="#fb2872"/></linearGradient><linearGradient id="b" x1="49.784" x2="58.662" y1="35.209" y2="58.388" gradientUnits="userSpaceOnUse"><stop stop-color="#e46deb"/><stop offset=".206" stop-color="#f942ff"/><stop offset=".308" stop-color="#cb39ff"/><stop offset=".432" stop-color="#9a2fff"/><stop offset=".556" stop-color="#7127ff"/><stop offset=".676" stop-color="#5221ff"/><stop offset=".792" stop-color="#3b1dff"/><stop offset=".902" stop-color="#2e1aff"/><stop offset="1" stop-color="#2919ff"/></linearGradient><linearGradient id="c" x1="26.304" x2="35.181" y1="44.202" y2="67.381" gradientUnits="userSpaceOnUse"><stop stop-color="#e46deb"/><stop offset=".206" stop-color="#f942ff"/><stop offset=".308" stop-color="#cb39ff"/><stop offset=".432" stop-color="#9a2fff"/><stop offset=".556" stop-color="#7127ff"/><stop offset=".676" stop-color="#5221ff"/><stop offset=".792" stop-color="#3b1dff"/><stop offset=".902" stop-color="#2e1aff"/><stop offset="1" stop-color="#2919ff"/></linearGradient><linearGradient id="d" x1="26.355" x2="31.757" y1="47.34" y2="53.179" gradientUnits="userSpaceOnUse"><stop stop-color="#f942ff"/><stop offset=".072" stop-color="#cb39ff"/><stop offset=".159" stop-color="#9a2fff"/><stop offset=".245" stop-color="#7127ff"/><stop offset=".33" stop-color="#5221ff"/><stop offset=".411" stop-color="#3b1dff"/><stop offset=".488" stop-color="#2e1aff"/><stop offset=".557" stop-color="#2919ff"/></linearGradient><linearGradient id="e" x1="55.202" x2="64.079" y1="33.135" y2="56.314" gradientUnits="userSpaceOnUse"><stop stop-color="#e46deb"/><stop offset=".206" stop-color="#f942ff"/><stop offset=".308" stop-color="#cb39ff"/><stop offset=".432" stop-color="#9a2fff"/><stop offset=".556" stop-color="#7127ff"/><stop offset=".676" stop-color="#5221ff"/><stop offset=".792" stop-color="#3b1dff"/><stop offset=".902" stop-color="#2e1aff"/><stop offset="1" stop-color="#2919ff"/></linearGradient><linearGradient id="f" x1="55.059" x2="63.609" y1="34.948" y2="51.481" gradientUnits="userSpaceOnUse"><stop offset=".167" stop-color="#f942ff"/><stop offset=".217" stop-color="#cb39ff"/><stop offset=".279" stop-color="#9a2fff"/><stop offset=".339" stop-color="#7127ff"/><stop offset=".398" stop-color="#5221ff"/><stop offset=".455" stop-color="#3b1dff"/><stop offset=".509" stop-color="#2e1aff"/><stop offset=".557" stop-color="#2919ff"/></linearGradient><linearGradient id="g" x1="54.004" x2="62.882" y1="33.592" y2="56.772" gradientUnits="userSpaceOnUse"><stop stop-color="#e46deb"/><stop offset=".206" stop-color="#f942ff"/><stop offset=".308" stop-color="#cb39ff"/><stop offset=".432" stop-color="#9a2fff"/><stop offset=".556" stop-color="#7127ff"/><stop offset=".676" stop-color="#5221ff"/><stop offset=".792" stop-color="#3b1dff"/><stop offset=".902" stop-color="#2e1aff"/><stop offset="1" stop-color="#2919ff"/></linearGradient><linearGradient id="h" x1="52.266" x2="58.874" y1="26.695" y2="62.985" gradientUnits="userSpaceOnUse"><stop stop-color="#e46deb"/><stop offset=".255" stop-color="#f942ff"/><stop offset=".351" stop-color="#cb39ff"/><stop offset=".468" stop-color="#9a2fff"/><stop offset=".584" stop-color="#7127ff"/><stop offset=".696" stop-color="#5221ff"/><stop offset=".805" stop-color="#3b1dff"/><stop offset=".908" stop-color="#2e1aff"/><stop offset="1" stop-color="#2919ff"/></linearGradient><linearGradient id="i" x1="55.391" x2="64.269" y1="33.061" y2="56.24" gradientUnits="userSpaceOnUse"><stop stop-color="#e46deb"/><stop offset=".206" stop-color="#f942ff"/><stop offset=".308" stop-color="#cb39ff"/><stop offset=".432" stop-color="#9a2fff"/><stop offset=".556" stop-color="#7127ff"/><stop offset=".676" stop-color="#5221ff"/><stop offset=".792" stop-color="#3b1dff"/><stop offset=".902" stop-color="#2e1aff"/><stop offset="1" stop-color="#2919ff"/></linearGradient><linearGradient id="j" x1="56.66" x2="65.537" y1="32.576" y2="55.755" gradientUnits="userSpaceOnUse"><stop stop-color="#e46deb"/><stop offset=".206" stop-color="#f942ff"/><stop offset=".308" stop-color="#cb39ff"/><stop offset=".432" stop-color="#9a2fff"/><stop offset=".556" stop-color="#7127ff"/><stop offset=".676" stop-color="#5221ff"/><stop offset=".792" stop-color="#3b1dff"/><stop offset=".902" stop-color="#2e1aff"/><stop offset="1" stop-color="#2919ff"/></linearGradient><linearGradient id="k" x1="56.679" x2="65.229" y1="34.11" y2="50.644" gradientUnits="userSpaceOnUse"><stop offset=".167" stop-color="#f942ff"/><stop offset=".217" stop-color="#cb39ff"/><stop offset=".279" stop-color="#9a2fff"/><stop offset=".339" stop-color="#7127ff"/><stop offset=".398" stop-color="#5221ff"/><stop offset=".455" stop-color="#3b1dff"/><stop offset=".509" stop-color="#2e1aff"/><stop offset=".557" stop-color="#2919ff"/></linearGradient><linearGradient id="l" x1="35.876" x2="82.396" y1="-14.63" y2="99.557" gradientUnits="userSpaceOnUse"><stop offset=".142" stop-color="#f942ff"/><stop offset=".156" stop-color="#f441ff"/><stop offset=".349" stop-color="#ac33ff"/><stop offset=".522" stop-color="#7428ff"/><stop offset=".67" stop-color="#4b20ff"/><stop offset=".786" stop-color="#321bff"/><stop offset=".857" stop-color="#2919ff"/></linearGradient></defs></svg>