<!-- This Source Code Form is subject to the terms of the Mozilla Public
   - License, v. 2.0. If a copy of the MPL was not distributed with this
   - file, You can obtain one at https://mozilla.org/MPL/2.0/. -->
<svg xmlns="http://www.w3.org/2000/svg" width="32" height="32" viewBox="0 0 32 32" fill="none"><path fill="#623ac3" d="M9.8333 8h5c.4584 0 .8334.375.8334.8333v5c0 .4584-.375.8334-.8334.8334h-5c-.4583 0-.8333-.375-.8333-.8334v-5C9 8.375 9.375 8 9.8333 8m8.3334 0h5c.4583 0 .8333.375.8333.8333v5c0 .4584-.375.8334-.8333.8334h-5c-.4584 0-.8334-.375-.8334-.8334v-5c0-.4583.375-.8333.8334-.8333m-8.3334 8.3333h5c.4584 0 .8334.375.8334.8334v5c0 .4583-.375.8333-.8334.8333h-5C9.375 23 9 22.625 9 22.1667v-5c0-.4584.375-.8334.8333-.8334m10.8334 0c-.4584 0-.8334.375-.8334.8334v1.6666h-1.6666c-.4584 0-.8334.375-.8334.8334 0 .4583.375.8333.8334.8333h1.6666v1.6667c0 .4583.375.8333.8334.8333.4583 0 .8333-.375.8333-.8333V20.5h1.6667c.4583 0 .8333-.375.8333-.8333 0-.4584-.375-.8334-.8333-.8334H21.5v-1.6666c0-.4584-.375-.8334-.8333-.8334"/></svg>