<!-- This Source Code Form is subject to the terms of the Mozilla Public
   - License, v. 2.0. If a copy of the MPL was not distributed with this
   - file, You can obtain one at https://mozilla.org/MPL/2.0/. -->
<svg xmlns="http://www.w3.org/2000/svg" width="100" height="100" fill="none" viewBox="0 0 100 100"><path fill="url(#a)" d="m68.42 45.28-12.194-.261a.702.702 0 0 1-.556-1.11l12.578-17.985c.388-.556.546-1.223.415-1.723l-16 4.27-.08-.044L41.1 48.644a.914.914 0 0 0 .779 1.368c2.699.039 8.295.115 11.5.12 1.12.002 2.334.382 1.721 1.319L33.42 83.936c.477.248 1.15.233 1.807-.415L69.109 48.54c1.155-1.213.986-3.221-.69-3.26Z"/><path fill="url(#b)" d="m52.662 28.471 16-4.27c-.114-.434-.446-.742-1.036-.742l-12.225.005-2.819 4.963z"/><path fill="url(#c)" d="m52.662 28.471 16-4.27c-.114-.434-.446-.742-1.036-.742l-12.225.005-2.819 4.963z"/><path fill="url(#d)" d="m55.4 23.465-10.476.004c-.367 0-.634.08-.848.228l8.506 4.73 2.819-4.962Z"/><path fill="url(#e)" d="m55.4 23.465-10.476.004c-.367 0-.634.08-.848.228l8.506 4.73 2.819-4.962Z"/><path fill="url(#f)" d="m55.4 23.465-10.476.004c-.367 0-.634.08-.848.228l8.506 4.73 2.819-4.962Z"/><path fill="url(#g)" d="M53.378 50.134c-3.205-.005-8.8-.081-11.5-.12a.914.914 0 0 1-.778-1.368l11.483-20.218-8.506-4.73c-.349.238-.555.655-.815 1.192L29.63 53.18a1.93 1.93 0 0 0 1.738 2.766h12.648c.514 0 .854.535.636 1L32.804 82.765c-.147.404.133.924.616 1.175L55.1 51.452c.613-.936-.602-1.316-1.722-1.318"/><defs><linearGradient id="a" x1="24.234" x2="70.334" y1="29.427" y2="71.803" gradientUnits="userSpaceOnUse"><stop offset=".305" stop-color="#f942ff"/><stop offset=".392" stop-color="#cb39ff"/><stop offset=".497" stop-color="#9a2fff"/><stop offset=".601" stop-color="#7127ff"/><stop offset=".703" stop-color="#5221ff"/><stop offset=".801" stop-color="#3b1dff"/><stop offset=".894" stop-color="#2e1aff"/><stop offset=".977" stop-color="#2919ff"/></linearGradient><linearGradient id="b" x1="42.506" x2="88.606" y1="9.549" y2="51.925" gradientUnits="userSpaceOnUse"><stop offset=".305" stop-color="#f942ff"/><stop offset=".392" stop-color="#cb39ff"/><stop offset=".497" stop-color="#9a2fff"/><stop offset=".601" stop-color="#7127ff"/><stop offset=".703" stop-color="#5221ff"/><stop offset=".801" stop-color="#3b1dff"/><stop offset=".894" stop-color="#2e1aff"/><stop offset=".977" stop-color="#2919ff"/></linearGradient><linearGradient id="c" x1="46.37" x2="93.863" y1="13.503" y2="55.804" gradientUnits="userSpaceOnUse"><stop stop-color="#f942ff"/><stop offset=".151" stop-color="#cf3aff"/><stop offset=".489" stop-color="#6625ff"/><stop offset=".676" stop-color="#2919ff"/></linearGradient><linearGradient id="d" x1="38.827" x2="84.928" y1="13.551" y2="55.928" gradientUnits="userSpaceOnUse"><stop offset=".305" stop-color="#f942ff"/><stop offset=".392" stop-color="#cb39ff"/><stop offset=".497" stop-color="#9a2fff"/><stop offset=".601" stop-color="#7127ff"/><stop offset=".703" stop-color="#5221ff"/><stop offset=".801" stop-color="#3b1dff"/><stop offset=".894" stop-color="#2e1aff"/><stop offset=".977" stop-color="#2919ff"/></linearGradient><linearGradient id="e" x1="47.995" x2="81.688" y1="21.107" y2="68.911" gradientUnits="userSpaceOnUse"><stop stop-color="#e46deb"/><stop offset=".305" stop-color="#f942ff"/><stop offset=".395" stop-color="#cb39ff"/><stop offset=".503" stop-color="#9a2fff"/><stop offset=".611" stop-color="#7127ff"/><stop offset=".717" stop-color="#5221ff"/><stop offset=".818" stop-color="#3b1dff"/><stop offset=".914" stop-color="#2e1aff"/><stop offset="1" stop-color="#2919ff"/></linearGradient><linearGradient id="f" x1="42.855" x2="90.348" y1="17.45" y2="59.751" gradientUnits="userSpaceOnUse"><stop offset=".006" stop-color="#f942ff"/><stop offset=".157" stop-color="#cf3aff"/><stop offset=".494" stop-color="#6625ff"/><stop offset=".68" stop-color="#2919ff"/></linearGradient><linearGradient id="g" x1="28.081" x2="61.774" y1="35.144" y2="82.948" gradientUnits="userSpaceOnUse"><stop stop-color="#e46deb"/><stop offset=".305" stop-color="#f942ff"/><stop offset=".395" stop-color="#cb39ff"/><stop offset=".503" stop-color="#9a2fff"/><stop offset=".611" stop-color="#7127ff"/><stop offset=".717" stop-color="#5221ff"/><stop offset=".818" stop-color="#3b1dff"/><stop offset=".914" stop-color="#2e1aff"/><stop offset="1" stop-color="#2919ff"/></linearGradient></defs></svg>