<!-- This Source Code Form is subject to the terms of the Mozilla Public
   - License, v. 2.0. If a copy of the MPL was not distributed with this
   - file, You can obtain one at https://mozilla.org/MPL/2.0/. -->
<svg width="16" height="16" viewBox="0 0 16 16" fill="none" xmlns="http://www.w3.org/2000/svg">
<g clip-path="url(#clip0_1653_3880)">
<path fill-rule="evenodd" clip-rule="evenodd" d="M8.5 0C12.6419 0.000224794 16.001 3.35778 16.001 7.5C16.001 11.6421 12.643 14.9998 8.50098 15C7.05315 15 5.70359 14.5848 4.55859 13.875L1.80762 14.9219C0.80363 15.3025 -0.146576 14.2484 0.342772 13.2891L1.69336 10.6445C1.25044 9.68837 0.999999 8.62339 0.999999 7.5C0.999999 3.35779 4.35779 0 8.5 0ZM8.5 1.5C5.18621 1.5 2.5 4.18621 2.5 7.5C2.5 8.51214 2.7526 9.46407 3.19531 10.3008C3.30954 10.5167 3.3122 10.7756 3.20117 10.9932L2.0625 13.2188L4.38183 12.3379C4.61336 12.2499 4.87387 12.2823 5.07715 12.4238C6.04983 13.101 7.22785 13.5 8.50098 13.5C11.8146 13.4998 14.501 10.8137 14.501 7.5C14.501 4.1865 11.8137 1.50022 8.5 1.5ZM8.50781 4.08008C8.92184 4.08029 9.25781 4.416 9.25781 4.83008V6.76758H11.1865C11.6005 6.76784 11.9365 7.10352 11.9365 7.51758C11.9365 7.9316 11.6005 8.26732 11.1865 8.26758H9.25781V10.2051C9.25777 10.6191 8.92182 10.9549 8.50781 10.9551C8.09379 10.9549 7.75785 10.6191 7.75781 10.2051V8.26758H5.83008C5.41589 8.26758 5.08012 7.93176 5.08008 7.51758C5.08008 7.10336 5.41586 6.76758 5.83008 6.76758H7.75781V4.83008C7.75781 4.41599 8.09377 4.08028 8.50781 4.08008Z" fill="context-fill"/>
</g>
<defs>
<clipPath id="clip0_1653_3880">
<rect width="16" height="16"/>
</clipPath>
</defs>
</svg>
