<!-- This Source Code Form is subject to the terms of the Mozilla Public
   - License, v. 2.0. If a copy of the MPL was not distributed with this
   - file, You can obtain one at https://mozilla.org/MPL/2.0/. -->
<svg xmlns="http://www.w3.org/2000/svg" xmlns:xlink="http://www.w3.org/1999/xlink" id="Layer_2" data-name="Layer 2" viewBox="0 0 1473.38 1436.62"><defs><linearGradient id="linear-gradient" x1="21.5" x2="971.87" y1="1180.29" y2="1363.32" gradientUnits="userSpaceOnUse"><stop offset="0" stop-color="#010766"/><stop offset="1" stop-color="#3915b5"/></linearGradient><linearGradient id="linear-gradient-2" x1=".29" x2="932.78" y1="1200.78" y2="1401.97" gradientUnits="userSpaceOnUse"><stop offset="0" stop-color="#271aff"/><stop offset="1" stop-color="#e752ff"/></linearGradient><linearGradient xlink:href="#linear-gradient" id="linear-gradient-3" x1="159.37" x2="428.37" y1="1250.76" y2="1301.1"/><linearGradient id="linear-gradient-4" x1="290.56" x2="294.39" y1="1384.57" y2="1117.27" gradientUnits="userSpaceOnUse"><stop offset="0" stop-color="#271aff"/><stop offset=".13" stop-color="#5427ff"/><stop offset=".27" stop-color="#8034ff"/><stop offset=".42" stop-color="#a53eff"/><stop offset=".57" stop-color="#c247ff"/><stop offset=".71" stop-color="#d64dff"/><stop offset=".86" stop-color="#e250ff"/><stop offset="1" stop-color="#e752ff"/></linearGradient><linearGradient id="linear-gradient-5" x1="1244.03" x2="1048.41" y1="311.11" y2="1294.63" gradientUnits="userSpaceOnUse"><stop offset="0" stop-color="#ffbb0d"/><stop offset=".19" stop-color="#f98d07"/><stop offset=".36" stop-color="#f46b03"/><stop offset=".51" stop-color="#f15600"/><stop offset=".6" stop-color="#f14f00"/><stop offset=".67" stop-color="#ef3620"/><stop offset=".75" stop-color="#ee233a"/><stop offset=".83" stop-color="#ed154c"/><stop offset=".91" stop-color="#ed0d57"/><stop offset="1" stop-color="#ed0b5b"/></linearGradient><linearGradient id="linear-gradient-6" x1="1050.61" x2="1350.12" y1="565.37" y2="718.83" gradientTransform="rotate(43.39 1066.318 533.683)" gradientUnits="userSpaceOnUse"><stop offset="0" stop-color="#fdd500"/><stop offset=".62" stop-color="#f89000" stop-opacity="0"/></linearGradient><linearGradient id="linear-gradient-7" x1="402.25" x2="933.99" y1="938.82" y2="1231.32" gradientTransform="rotate(-2.89 842.72 1133.149)" gradientUnits="userSpaceOnUse"><stop offset="0" stop-color="#db2355" stop-opacity="0"/><stop offset=".54" stop-color="#db2355"/><stop offset=".84" stop-color="#bf1f58"/><stop offset="1" stop-color="#8a1652"/></linearGradient><linearGradient xlink:href="#linear-gradient-7" id="linear-gradient-8" x1="715.24" x2="333.57" y1="994.89" y2="1127.16"/><linearGradient id="linear-gradient-9" x1="646" x2="478.12" y1="37.29" y2="1300.77" gradientUnits="userSpaceOnUse"><stop offset="0" stop-color="#f14f00"/><stop offset=".05" stop-color="#f25e00"/><stop offset=".24" stop-color="#f78c02"/><stop offset=".33" stop-color="#fa9f03"/><stop offset=".41" stop-color="#f99702"/><stop offset=".53" stop-color="#f68401"/><stop offset=".68" stop-color="#f36300"/><stop offset=".75" stop-color="#f14f00"/><stop offset="1" stop-color="#ed0b5b"/></linearGradient><linearGradient id="linear-gradient-10" x1="708.82" x2="567.6" y1="307.29" y2="1178.16" gradientUnits="userSpaceOnUse"><stop offset=".13" stop-color="#fde625"/><stop offset=".33" stop-color="#fba501" stop-opacity=".6"/><stop offset=".47" stop-color="#f57800" stop-opacity=".28"/></linearGradient><linearGradient id="linear-gradient-11" x1="536.26" x2="536.77" y1="775.61" y2="1517.67" gradientUnits="userSpaceOnUse"><stop offset="0" stop-color="#fde625"/><stop offset=".42" stop-color="#fba501" stop-opacity=".6"/><stop offset=".7" stop-color="#f57800" stop-opacity=".28"/><stop offset="1" stop-color="#f14f00" stop-opacity="0"/></linearGradient><linearGradient id="linear-gradient-12" x1="629.66" x2="628.6" y1="1224.66" y2="850.63" gradientUnits="userSpaceOnUse"><stop offset="0" stop-color="#ee1d42"/><stop offset=".18" stop-color="#ee1d42" stop-opacity=".73"/><stop offset=".39" stop-color="#ee1d42" stop-opacity=".42"/><stop offset=".57" stop-color="#ee1d42" stop-opacity=".19"/><stop offset=".71" stop-color="#ee1d42" stop-opacity=".05"/><stop offset=".78" stop-color="#ee1d42" stop-opacity="0"/></linearGradient><linearGradient id="linear-gradient-13" x1="398.28" x2="205.81" y1="753.54" y2="1263.44" gradientUnits="userSpaceOnUse"><stop offset="0" stop-color="#db2355" stop-opacity="0"/><stop offset=".39" stop-color="#db2355"/><stop offset=".64" stop-color="#bf1f58"/><stop offset=".93" stop-color="#8a1652"/></linearGradient><linearGradient id="linear-gradient-14" x1="366.8" x2="733.77" y1="1280.73" y2="518.35" gradientUnits="userSpaceOnUse"><stop offset=".11" stop-color="#f14f00"/><stop offset=".26" stop-color="#f15300"/><stop offset=".43" stop-color="#f26100"/><stop offset=".61" stop-color="#f57800"/><stop offset=".65" stop-color="#f67e00"/><stop offset=".66" stop-color="#f67e00" stop-opacity=".97"/><stop offset=".69" stop-color="#f67e00" stop-opacity=".89"/><stop offset=".71" stop-color="#f67e00" stop-opacity=".75"/><stop offset=".74" stop-color="#f67e00" stop-opacity=".57"/><stop offset=".78" stop-color="#f67e00" stop-opacity=".33"/><stop offset=".81" stop-color="#f67e00" stop-opacity=".04"/><stop offset=".81" stop-color="#f67e00" stop-opacity="0"/></linearGradient><linearGradient id="linear-gradient-15" x1="600.96" x2="335.74" y1="798.91" y2="1313.62" gradientUnits="userSpaceOnUse"><stop offset="0" stop-color="#db2355" stop-opacity="0"/><stop offset=".54" stop-color="#db2355"/><stop offset=".71" stop-color="#bf1f58"/><stop offset=".93" stop-color="#8a1652"/></linearGradient><linearGradient id="linear-gradient-16" x1="482.49" x2="441.82" y1="207.21" y2="306.11" gradientTransform="rotate(-8.33 357.678 906.327)" gradientUnits="userSpaceOnUse"><stop offset=".16" stop-color="#8e3499"/><stop offset=".88" stop-color="#0b1339"/></linearGradient><linearGradient xlink:href="#linear-gradient-16" id="linear-gradient-17" x1="649.72" x2="609.05" y1="272.24" y2="371.15"/><radialGradient id="radial-gradient" cx="1147.11" cy="411.37" r="348.36" fx="880.82" fy="213.98" gradientTransform="rotate(48.6 1146.41 350.927)" gradientUnits="userSpaceOnUse"><stop offset="0" stop-color="#fdd500"/><stop offset=".91" stop-color="#f89000" stop-opacity="0"/></radialGradient><radialGradient id="radial-gradient-2" cx="300.29" cy="701.7" r="390.37" fx="300.29" fy="701.7" gradientUnits="userSpaceOnUse"><stop offset="0" stop-color="#f14f00"/><stop offset=".91" stop-color="#f14f00" stop-opacity="0"/></radialGradient><radialGradient id="radial-gradient-3" cx="1097" cy="877.49" r="344.62" fx="1097" fy="877.49" gradientUnits="userSpaceOnUse"><stop offset="0" stop-color="#fdd500"/><stop offset="1" stop-color="#f89000" stop-opacity="0"/></radialGradient><radialGradient xlink:href="#radial-gradient-3" id="radial-gradient-4" cx="187.71" cy="538.07" r="344.62" fx="187.71" fy="538.07"/><clipPath id="clippath"><path d="M780.11 1432.23 95.32 1282.05c-71.07-15.59-111.11-68.13-89.42-117.35 21.68-49.23 96.88-76.5 167.95-60.91l684.79 150.18c71.07 15.59 111.11 68.13 89.42 117.35-21.68 49.23-96.88 76.5-167.95 60.91" class="cls-1"/></clipPath><clipPath id="clippath-1"><path d="M1103.97 113.04s-147.4 74.78-204.39 227.61c-51.1 137.03 11.08 279.07 106.84 422.71 153.29 229.94-30.19 283.35-92.9 313.55-62.71 30.19-95.23 88.26-95.23 88.26s111.48 44.13 267.1 32.52c155.61-11.61 443.61-113.81 378.58-448.26-23.13-118.95-6.97-192.77-6.97-192.77s-23.23 23.23-41.81 51.1c-14.58 21.86-23.23 58.06-23.23 58.06s-32.07-119.13-162.58-236.9c-95.23-85.94-178.84-155.61-125.42-315.87Z" class="cls-1"/></clipPath><clipPath id="clippath-2"><path d="M532.24 148.94a21 21 0 0 1-15.36-15.6c-3.64-15.61-10.27-43.61-17.25-70.74-10.45-40.65-40.65-96.39-84.77-36-44.13 60.39-78.29 130.86-104.52 166.06-14.71 19.74-25.16 29.16-45.29 31.87-42.65 5.74-64.51 5.89-69.68 12.9-7.23 9.81-1.16 16.77 4.65 21.42s5.16 10.58-6.19 8.52c-11.81-2.15-22.71-2.58-25.55 8.13-2.52 9.51 6.71 17.29 12.13 20.77 4.7 3.02 7.51 6 3.74 8.65-2.54 1.79-6.97.39-13.94 1.94-10.2 2.27-13.16 22.84 20.52 50.71s86.32 77.42 106.84 113.42 30.58 68.52 10.84 173.03c-9.87 52.26-24.64 165.76-36.68 255.48-13.42 100.07-21.97 124.47-35.39 174.51-26.11 97.33-41.73 91.84-46.37 122.03-6.24 40.58 20.75 52.47 52.47 46.37 21.6-4.15 34.43-29.47 46.37-51.25 16.66-30.39 43.86-118.86 54.92-153.76 23.19-73.22 56.14-187.93 56.14-187.93s28.16 29.13 40.93 40.75c12.77 11.61-2.59 43.35-11.61 58.06-12.16 19.84-40.48 40.75-38.32 92.9 2.21 53.42 44.84 72.89 157.94 91.74 69.68 11.61 96.39 41.81 182.32 60.39 85.94 18.58 204.39-15.1 222.97-118.45s-56.15-135.03-77.81-247.35c-18.58-96.39-79.84-167.45-118.45-202.06-33.68-30.19-97.55-90.58-61.55-116.13 16.83-11.94 30.68-14.85 45.03-18.71 16.35-4.4 32.77-9.04 44.52-12.13 22.06-5.81 14.97-23.74 6.84-29.55s-13.94-15.1 3.48-13.94c8.4.56 18.23-1.9 22.06-8.39 6.71-11.35-2.08-20.03-8.77-22.71-10.32-4.13-10.97-11.87-.52-17.68s13.94-22.06-13.94-34.84c-27.87-12.77-51.1-20.9-54.58-48.77s-8.13-126.58-23.23-197.42-41.81-72-82.45-31.35c-40.65 40.65-68.52 83.61-68.52 83.61l-33.98-8.49Z" class="cls-1"/></clipPath><clipPath id="clippath-3"><path d="M683.12 626.47c63.62 11.78 81.29 85.94 46.45 155.61-34.84 69.68-119.37 187.13-158.86 238.23-39.48 51.1-109.16 133.57-144 168.41s-61.02 92.75-126.91 80.54c-39.5-7.31-43.93-53.69 4.88-78.1 27.35-13.68 101.19-119.15 144-195.25 43.93-78.1 85.79-167.37 115.99-241.69 30.19-74.32 55.74-139.35 118.45-127.74Z" class="cls-1"/></clipPath><style>.cls-1{fill:none}.cls-19{fill:#fff}</style></defs><g id="Layer_3" data-name="Layer 3"><g id="Layer_6" data-name="Layer 6"><path d="M780.11 1432.23 95.32 1282.05c-71.07-15.59-111.11-68.13-89.42-117.35 21.68-49.23 96.88-76.5 167.95-60.91l684.79 150.18c71.07 15.59 111.11 68.13 89.42 117.35-21.68 49.23-96.88 76.5-167.95 60.91" style="fill:url(#linear-gradient)"/><g style="clip-path:url(#clippath)"><path d="M760.37 1463.59 75.58 1313.41c-71.07-15.59-111.11-68.13-89.42-117.35 21.68-49.23 96.88-76.5 167.95-60.91l684.79 150.18c71.07 15.59 111.11 68.13 89.42 117.35-21.68 49.23-96.88 76.5-167.95 60.91" style="fill:url(#linear-gradient-2)"/><path d="M159.25 1255.34c0 45.91 59.84 86.75 133.66 91.22s133.66-29.12 133.66-75.03v-43.3l-267.32-16.19z" style="fill:url(#linear-gradient-3)"/></g><path d="M426.57 1228.23c0 45.91-59.84 79.5-133.66 75.03s-133.66-45.31-133.66-91.22 59.84-79.5 133.66-75.03 133.66 45.31 133.66 91.22" style="fill:url(#linear-gradient-4)"/></g><g id="Layer_4" data-name="Layer 4"><path d="M1103.97 113.04s-147.4 74.78-204.39 227.61c-51.1 137.03 11.08 279.07 106.84 422.71 153.29 229.94-30.19 283.35-92.9 313.55-62.71 30.19-95.23 88.26-95.23 88.26s111.48 44.13 267.1 32.52c155.61-11.61 443.61-113.81 378.58-448.26-23.13-118.95-6.97-192.77-6.97-192.77s-23.23 23.23-41.81 51.1c-14.58 21.86-23.23 58.06-23.23 58.06s-32.07-119.13-162.58-236.9c-95.23-85.94-178.84-155.61-125.42-315.87Z" style="fill:url(#linear-gradient-5)"/><g style="clip-path:url(#clippath-1)"><circle cx="1069.83" cy="381.18" r="390.19" style="fill:url(#radial-gradient)"/></g><path d="M962.68 533.43s7.61 59.78 30.81 96.8 46.81 61.1 65.75 107.94c20.95 51.83 38.87 104.65 78.73 96.67 48.87-9.77 43.79-58.2 32.56-103.32-11.24-45.12-33.71-85.08-63.78-107.64-44.14-33.11-68.77-64.78-68.77-64.78s-2.3 11.6-.31 23.36c2.07 12.25 10.63 26.28 10.63 26.28s-32.57-15.71-48.45-28.56c-15.87-12.85-37.17-46.76-37.17-46.76Z" style="fill:url(#linear-gradient-6)"/><path d="M655.09 1114.46c63.47 59.59 200.6 150.34 257.89 133.5 29.76-8.75 39.83-42.51 22.87-61.49-15.69-17.56-51.27-27.16-68.84-43.04-36.55-33.04-135.16-74.71-135.16-74.71l-76.76 45.73Z" style="fill:url(#linear-gradient-7)"/><path d="M488.03 1021.7c-125.42 44.13-167.23 53.42-153.29 92.9s123.1 11.61 164.9 4.65c41.81-6.97 83.61-34.84 83.61-34.84l-95.23-62.71Z" style="fill:url(#linear-gradient-8)"/><path d="M532.24 148.94a21 21 0 0 1-15.36-15.6c-3.64-15.61-10.27-43.61-17.25-70.74-10.45-40.65-40.65-96.39-84.77-36-44.13 60.39-78.29 130.86-104.52 166.06-14.71 19.74-25.16 29.16-45.29 31.87-42.65 5.74-64.51 5.89-69.68 12.9-7.23 9.81-1.16 16.77 4.65 21.42s5.16 10.58-6.19 8.52c-11.81-2.15-22.71-2.58-25.55 8.13-2.52 9.51 6.71 17.29 12.13 20.77 4.7 3.02 7.51 6 3.74 8.65-2.54 1.79-6.97.39-13.94 1.94-10.2 2.27-13.16 22.84 20.52 50.71s86.32 77.42 106.84 113.42 30.58 68.52 10.84 173.03c-9.87 52.26-24.64 165.76-36.68 255.48-13.42 100.07-21.97 124.47-35.39 174.51-26.11 97.33-41.73 91.84-46.37 122.03-6.24 40.58 20.75 52.47 52.47 46.37 21.6-4.15 34.43-29.47 46.37-51.25 16.66-30.39 43.86-118.86 54.92-153.76 23.19-73.22 56.14-187.93 56.14-187.93s28.16 29.13 40.93 40.75c12.77 11.61-2.59 43.35-11.61 58.06-12.16 19.84-40.48 40.75-38.32 92.9 2.21 53.42 44.84 72.89 157.94 91.74 69.68 11.61 96.39 41.81 182.32 60.39 85.94 18.58 204.39-15.1 222.97-118.45s-56.15-135.03-77.81-247.35c-18.58-96.39-79.84-167.45-118.45-202.06-33.68-30.19-97.55-90.58-61.55-116.13 16.83-11.94 30.68-14.85 45.03-18.71 16.35-4.4 32.77-9.04 44.52-12.13 22.06-5.81 14.97-23.74 6.84-29.55s-13.94-15.1 3.48-13.94c8.4.56 18.23-1.9 22.06-8.39 6.71-11.35-2.08-20.03-8.77-22.71-10.32-4.13-10.97-11.87-.52-17.68s13.94-22.06-13.94-34.84c-27.87-12.77-51.1-20.9-54.58-48.77s-8.13-126.58-23.23-197.42-41.81-72-82.45-31.35c-40.65 40.65-68.52 83.61-68.52 83.61l-33.98-8.49Z" style="fill:url(#linear-gradient-9)"/><g style="clip-path:url(#clippath-2)"><path d="M140.03 248.02c1.55 4.65 103.74 26.32 130.06 35.61s43.35 38.71 54.19 54.19 29.42 37.16 94.45 48 116.13 12.39 139.35 6.19c23.23-6.19 75.87-17.03 120.77-13.94 44.9 3.1 145.55 24.77 145.55 24.77l15.48 137.81 334.45 788.13s-475.35 201.29-515.61 209.03-651.87-37.16-651.87-37.16L54.87 447.76z" style="fill:url(#linear-gradient-10);isolation:isolate;opacity:.6"/><circle cx="265.45" cy="718.73" r="392.52" style="fill:url(#radial-gradient-2);opacity:.4"/><path d="M441.96 624.28s21.68 80.52 61.94 137.81 103.74 97.55 130.06 150.19c26.32 52.65 18.16 107.17 21.68 168.77 3.1 54.19 24.77 91.35 91.35 117.68 66.58 26.32-236.9 4.65-252.39-21.68s-176.52-44.9-178.06-65.03c-1.55-20.13 57.29-154.84 91.35-182.71s46.45-29.42 32.52-57.29c-13.94-27.87-41.81-55.74-27.87-144 9.26-58.62 29.42-103.74 29.42-103.74" style="fill:url(#linear-gradient-11);isolation:isolate;opacity:.6"/><ellipse cx="1097" cy="877.49" rx="361.94" ry="326.39" style="fill:url(#radial-gradient-3)"/><ellipse cx="187.71" cy="538.07" rx="361.94" ry="326.39" style="fill:url(#radial-gradient-4)"/><ellipse cx="629.39" cy="1128.27" rx="447.87" ry="403.88" style="fill:url(#linear-gradient-12)"/><path d="M250.94 807.6s26.46 4.07 31.11 24.19 9.76 85.42 9.76 85.42 9.76-19.53 20.75-43.93c10.05-22.33 21.97-52.47 21.97-52.47s6.22 44.08 7.77 65.76 1.55 41.81 1.55 41.81l58.09-67.46-.29 38-13.42 76.88-77.49 345.97-168.41 41.49 12.62-235.13 96-320.52Z" style="fill:url(#linear-gradient-13)"/></g><path d="M683.12 626.47c63.62 11.78 81.29 85.94 46.45 155.61-34.84 69.68-119.37 187.13-158.86 238.23-39.48 51.1-109.16 133.57-144 168.41s-61.02 92.75-126.91 80.54c-39.5-7.31-43.93-53.69 4.88-78.1 27.35-13.68 101.19-119.15 144-195.25 43.93-78.1 85.79-167.37 115.99-241.69 30.19-74.32 55.74-139.35 118.45-127.74Z" style="fill:url(#linear-gradient-14)"/><g style="clip-path:url(#clippath-3)"><path d="M504.73 865.81s-3.1 41.81-3.1 60.39-4.65 32.52-4.65 32.52 18.58-17.03 34.06-27.87 32.52-24.77 32.52-24.77-7.74 34.06-10.84 52.65c-3.1 18.58-7.74 35.61-7.74 35.61s27.87-15.48 46.45-23.23c18.58-7.74 44.9-20.13 44.9-20.13l26.32 4.65-159.48 399.48-332.24 72.06 27.21-212.96 306.58-348.39Z" style="fill:url(#linear-gradient-15)"/></g><path d="M513.54 388.94c29.46 29.36-2.98 92.3-74.58 89.16-98.7-4.33-128.02-87.07-100.66-117.94 20.54-23.17 52.82-46.74 76.15-45.92 46.94 1.65 57.56 33.3 99.09 74.69Z" style="fill:#ffbb0d"/><path d="M366.46 342.34c-2 7.73 6.94 24.66 21.5 27.95 16.79 3.8 30.21-8.65 31.64-15 1.78-7.89-1.46-19.57-22.47-23.9-22.19-4.58-28.67 3.22-30.67 10.95" style="fill:#210b40"/><path d="m340.33 240.68-8.08 22.25c-6.05 16.64 3.41 34.9 20.49 39.56 17.52 4.79 35.28-6.82 37.94-24.79l3.46-23.41c2.08-14.09-6.79-27.49-20.58-31.08-13.92-3.62-28.31 3.95-33.23 17.47" style="fill:url(#linear-gradient-16)"/><circle cx="349.04" cy="279.88" r="10.65" class="cls-19"/><path d="m515.22 280.8-8.08 22.25c-6.05 16.64 3.41 34.9 20.49 39.56 17.52 4.79 35.28-6.82 37.94-24.79l3.46-23.41c2.08-14.09-6.79-27.49-20.58-31.08-13.92-3.62-28.31 3.95-33.23 17.47" style="fill:url(#linear-gradient-17)"/><circle cx="523.92" cy="320" r="10.65" class="cls-19"/></g></g></svg>