<!-- This Source Code Form is subject to the terms of the Mozilla Public
   - License, v. 2.0. If a copy of the MPL was not distributed with this
   - file, You can obtain one at https://mozilla.org/MPL/2.0/. -->
<svg width="68" height="68" viewBox="0 0 68 68" fill="none" xmlns="http://www.w3.org/2000/svg">
  <defs>
    <linearGradient id="body" x1="25" y1="19" x2="48" y2="32" gradientUnits="userSpaceOnUse">
      <stop stop-color="#D760FF"/>
      <stop offset="0.56" stop-color="#854DFF"/>
      <stop offset="1" stop-color="#5E2DE2"/>
    </linearGradient>
    <linearGradient id="eraser" x1="42" y1="14" x2="48" y2="20" gradientUnits="userSpaceOnUse">
      <stop stop-color="#FF8AEF"/>
      <stop offset="1" stop-color="#D760FF"/>
    </linearGradient>
    <linearGradient id="tip" x1="21" y1="32" x2="28" y2="36" gradientUnits="userSpaceOnUse">
      <stop stop-color="#FF6B8A"/>
      <stop offset="1" stop-color="#FF4AA2"/>
    </linearGradient>
    <linearGradient id="stroke" x1="31" y1="39" x2="31" y2="61" gradientUnits="userSpaceOnUse">
      <stop stop-color="#FF8A00"/>
      <stop offset="1" stop-color="#FFD02F"/>
    </linearGradient>
  </defs>
  <path d="M31.6 39.5C36.6 41.1 40.2 43.1 40.2 46.1C40.2 49.6 33.4 50.4 33.4 53.6C33.4 56.5 39.2 57 39.2 60.4C39.2 62.2 37.9 63.6 34.8 64.4" stroke="url(#stroke)" stroke-width="5.2" stroke-linecap="round"/>
  <path d="M29.6 45.6C24.9 47.1 22.6 49.1 22.6 51.4C22.6 54.1 27.4 54.6 27.4 57.1C27.4 59.2 23.8 60 23.8 62.5" stroke="url(#stroke)" stroke-width="3.6" stroke-linecap="round" opacity="0.92"/>
  <g transform="translate(25 19) rotate(-29 11.5 8.5)">
    <rect x="4.6" y="4.2" width="21.8" height="12.6" rx="6.3" fill="url(#body)"/>
    <rect x="20.6" y="4.2" width="5.2" height="12.6" rx="2.6" fill="url(#eraser)"/>
    <path d="M4.8 4.2L1.5 8.8L4.8 16.8H8.2V4.2H4.8Z" fill="url(#tip)"/>
    <path d="M1.5 8.8L0.4 10.3L4.1 11.6L4.8 16.8L1.5 8.8Z" fill="#FF7A00"/>
    <rect x="6.5" y="6.6" width="15.1" height="1.7" rx="0.85" fill="#CDB8FF" opacity="0.55"/>
    <rect x="6.5" y="9.5" width="12.1" height="1.7" rx="0.85" fill="#E9DCFF" opacity="0.38"/>
  </g>
</svg>
