<!-- This Source Code Form is subject to the terms of the Mozilla Public
   - License, v. 2.0. If a copy of the MPL was not distributed with this
   - file, You can obtain one at http://mozilla.org/MPL/2.0/. -->
<svg width="243" height="210" viewBox="0 0 243 210" fill="none" xmlns="http://www.w3.org/2000/svg">
<rect x="118.134" y="115.88" width="92.7193" height="92.7193" rx="10.2" stroke="#5939A8" stroke-width="1.2" stroke-dasharray="2.4 2.4"/>
<rect x="149.936" y="125.554" width="79.7223" height="79.7223" rx="10.2" transform="rotate(-11.084 149.936 125.554)" stroke="#EADDFF" stroke-width="1.2"/>
<rect x="118.134" y="1.70469" width="100.577" height="98.2659" rx="10.2" stroke="#EADDFF" stroke-width="1.2"/>
<mask id="mask0_5533_214466" style="mask-type:alpha" maskUnits="userSpaceOnUse" x="117" y="1" width="103" height="100">
<rect x="118.134" y="1.70469" width="100.577" height="98.2659" rx="10.2" fill="white" stroke="#EADDFF" stroke-width="1.2"/>
</mask>
<g mask="url(#mask0_5533_214466)">
<g clip-path="url(#clip0_5533_214466)">
<path d="M207.834 31.7784C207.26 30.3124 203.805 30.9498 201.687 29.1788C200.882 28.505 200.376 27.1209 200.017 25.8506C199.821 25.1678 199.666 24.5167 199.529 24.0296C198.701 21.0976 198.469 19.668 197.126 15.3884C195.924 11.555 194.499 8.36804 192.85 8.20414C191.216 8.04024 189.5 10.0207 187.232 13.8496C185.953 16.0121 185.111 17.938 184.187 19.3175C184.141 19.3858 184.096 19.4586 184.05 19.5223C183.995 19.5997 181.76 19.4085 180.745 19.5223C180.622 19.536 180.517 19.4723 180.417 19.3357C179.957 18.7165 179.552 16.5903 177.817 13.0938C175.714 8.85519 174.089 7.86268 172.254 8.25422C170.706 8.58202 168.876 13.062 167.601 17.164C166.636 20.269 166.69 20.6059 166.321 21.7486C165.935 22.9688 165.475 24.5122 164.91 25.9463C164.296 27.5124 163.553 28.942 162.638 29.6705C160.407 31.4415 158.208 30.8542 157.448 32.2292C156.834 33.3401 158.195 33.3492 158.245 33.6269C165.352 33.1033 171.575 40.4104 174.262 38.8808C175.131 38.3845 175.96 37.5649 177.535 36.2584C178.71 35.0838 179.852 34.0866 181.45 33.8271C184.801 33.2853 186.595 36.7682 189.595 39.0036C189.645 39.04 189.691 39.0811 189.736 39.1221C190.77 39.3632 192.341 39.2904 194.449 38.43C198.059 36.9549 202.707 33.9092 207.023 33.3583C206.723 32.9666 208.18 32.6753 207.829 31.7738L207.834 31.7784Z" fill="url(#paint0_linear_5533_214466)"/>
<path d="M169.595 104.877C169.632 104.868 169.659 104.863 169.677 104.859C169.773 104.831 161.077 101.831 162.388 93.8456C162.98 90.217 164.323 88.7192 165.502 86.5749C165.739 86.1468 165.926 85.696 166.085 85.2272C165.188 85.045 164 84.7537 162.438 84.13C148.252 78.4617 147.696 64.0477 148.63 50.0844C149.354 39.2988 137.398 34.6914 137.398 34.6914C137.398 34.6914 140.735 40.3597 134.894 45.6044C128.138 51.6732 121.632 60.3462 121.91 73.3855C121.923 73.9955 122.037 75.5571 122.037 75.5571C122.037 75.5571 121.586 75.3385 120.995 74.7239C120.234 73.9364 119.934 73.4355 119.934 73.4355C119.934 73.4355 119.688 77.1552 121.436 82.8232C124.04 91.2642 129.449 98.6716 137.776 103.771C145.889 108.738 152.472 109.034 164.405 109.052C164.405 108.597 164.606 108.046 165.179 107.34C166.809 105.346 169.045 104.986 169.591 104.872L169.595 104.877Z" fill="url(#paint1_linear_5533_214466)"/>
<path d="M134.049 67.0341C133.612 63.2099 133.749 58.7617 133.749 58.7617C133.749 58.7617 132.365 62.1354 131.563 66.4423C130.967 69.6429 130.657 73.0711 130.698 73.8406C130.503 73.5629 129.938 72.6796 129.46 71.2501C128.859 69.4472 128.436 67.9583 128.436 67.9583C128.458 67.9447 126.956 74.0546 129.71 85.2772C133.207 94.0685 139.144 97.2327 141.885 93.9593C144.625 90.6857 141.151 87.5672 138.975 84.4895C136.275 80.6698 134.782 73.4171 134.049 67.0387V67.0341Z" fill="url(#paint2_linear_5533_214466)"/>
<path d="M181.445 33.8262C179.847 34.0857 178.704 35.0827 177.53 36.2573C176.637 37.1496 175.722 38.1513 174.566 39.0073C171.989 40.9195 175.777 47.448 183.917 46.5876C189.845 45.9593 192.094 41.1379 189.735 39.1256C189.69 39.0846 189.644 39.0437 189.594 39.0073C186.594 36.7673 184.8 33.2844 181.449 33.8308L181.445 33.8262Z" fill="#FFC635"/>
<path d="M188.793 33.4569C190.332 33.425 191.506 34.0123 191.383 31.7998C191.206 28.6811 190.313 27.857 188.738 27.9571C187.04 28.0665 186.726 29.4961 186.68 31.9727C186.644 33.7894 187.992 33.4707 188.797 33.4523L188.793 33.4569Z" fill="url(#paint3_linear_5533_214466)"/>
<path d="M189.617 30.9629C190.027 30.9629 190.359 30.6305 190.359 30.2207C190.359 29.8108 190.027 29.4785 189.617 29.4785C189.207 29.4785 188.875 29.8108 188.875 30.2207C188.875 30.6305 189.207 30.9629 189.617 30.9629Z" fill="white"/>
<path d="M174.581 33.4622C176.134 33.4304 177.117 33.8218 177.195 32.4787C177.363 29.5559 176.794 27.794 174.627 27.9578C173.261 28.0626 172.66 29.5832 172.555 31.6137C172.428 34.1178 173.757 33.4759 174.581 33.4577V33.4622Z" fill="url(#paint4_linear_5533_214466)"/>
<path d="M175.637 30.921C176.052 30.921 176.384 30.5841 176.384 30.1743C176.384 29.7646 176.047 29.4277 175.637 29.4277C175.227 29.4277 174.891 29.7646 174.891 30.1743C174.891 30.5841 175.227 30.921 175.637 30.921Z" fill="white"/>
<path d="M182.078 35.6057C180.794 35.5921 180.093 36.1339 179.888 36.6393C179.633 37.2675 180.175 38.5833 181.75 38.6015C183.248 38.6197 184.118 37.3996 183.927 36.703C183.79 36.2068 183.212 35.6194 182.078 35.6057Z" fill="#00073A"/>
<path d="M200.01 25.8494C199.814 25.1664 199.659 24.5154 199.523 24.0282C198.694 21.0962 198.462 19.6667 197.119 15.387C195.917 11.5536 194.492 8.36667 192.844 8.20277C191.209 8.03887 189.493 10.0193 187.226 13.8482C185.946 16.0108 185.104 17.9366 184.18 19.3161C185.823 19.348 189.252 19.653 192.443 21.5196C195.443 23.2679 198.516 25.0344 200.005 25.8539L200.01 25.8494Z" fill="url(#paint5_linear_5533_214466)"/>
<path d="M180.413 19.3357C179.953 18.7165 179.548 16.5903 177.813 13.0938C175.71 8.85519 174.085 7.86268 172.25 8.25422C170.702 8.58202 168.872 13.062 167.597 17.164C166.632 20.269 166.686 20.6059 166.318 21.7486C165.931 22.9688 165.471 24.5122 164.906 25.9463C166.313 25.1769 169.514 23.3467 172.641 21.521C175.542 19.8274 178.637 19.4176 180.413 19.3357Z" fill="url(#paint6_linear_5533_214466)"/>
<path d="M209.514 35.1869C209.382 33.8575 207.78 33.7938 207.256 33.5342C207.133 33.4751 207.061 33.4159 207.015 33.3613C202.699 33.9122 198.051 36.9579 194.44 38.433C192.332 39.2935 190.762 39.3665 189.728 39.1251C192.087 41.1375 189.837 45.9589 183.91 46.5871C175.774 47.4476 171.981 40.9189 174.558 39.0067C175.715 38.1507 176.63 37.1538 177.522 36.2569C175.942 37.5634 175.118 38.383 174.249 38.8793C171.563 40.4135 165.343 33.1064 158.232 33.6254C158.232 33.6482 158.232 33.6755 158.218 33.7028C157.868 34.3128 155.537 34.0442 155.432 35.5329C155.346 36.7532 157.617 36.2842 157.608 36.8396C157.595 37.6 155.956 37.905 155.956 38.6698C155.956 40.5866 157.608 38.9293 164.315 44.0694C167.888 46.8057 168.494 51.9411 168.171 57.6912C168.007 60.5779 166.819 66.9654 166.65 70.3479C166.372 75.8933 167.219 80.5599 166.368 84.2249C166.286 84.5663 166.186 84.8987 166.076 85.2264C165.917 85.6909 165.73 86.1415 165.494 86.5741C164.31 88.7184 162.971 90.2164 162.38 93.8448C161.073 101.83 169.764 104.831 169.669 104.858C169.65 104.863 169.618 104.872 169.587 104.876C170.033 104.931 170.465 104.981 170.884 105.031C172.783 105.263 174.431 105.482 175.851 105.682C176.766 104.111 177.399 102.354 177.668 100.483C177.713 102.172 177.7 103.674 177.604 104.885C177.581 105.181 177.531 105.541 177.468 105.919C177.317 106.811 177.08 107.817 176.867 108.446C176.812 108.61 176.762 108.778 176.716 108.942C176.384 110.157 176.384 111.287 176.684 111.797C177.595 113.335 183.245 113.103 183.509 111.287C183.636 110.399 183.723 109.311 183.773 108.077C183.992 108.068 184.21 108.059 184.411 108.059C184.565 108.059 184.716 108.068 184.87 108.072C184.92 109.306 185.007 110.394 185.134 111.282C185.398 113.099 191.048 113.331 191.959 111.792C192.241 111.314 192.255 110.267 191.973 109.128C191.954 109.06 191.941 108.997 191.923 108.928C191.877 108.769 191.832 108.61 191.777 108.446C191.613 107.968 191.44 107.276 191.299 106.584C193.165 106.315 195.938 105.832 200.054 104.999C200.254 104.958 200.45 104.926 200.641 104.895C200.664 104.858 200.714 104.826 200.805 104.799C204.493 103.524 208.681 97.874 206.746 92.5929C205.64 89.5698 203.587 88.1356 202.435 86.1188C200.054 81.9394 201.87 80.9605 200.823 69.8063C200.368 64.9485 199.093 59.2256 198.574 56.2617C197.55 50.3796 198.533 45.1439 201.72 42.7081C205.408 39.8899 207.324 40.5274 207.498 39.0158C207.579 38.3011 206.423 38.1644 206.45 37.4497C206.496 36.3251 209.61 36.3069 209.496 35.1869H209.514Z" fill="url(#paint7_linear_5533_214466)"/>
<path d="M183.137 89.4112C182.855 89.7526 182.687 91.9653 182.323 92.152C182.031 92.2976 181.885 90.4129 181.585 88.7101C181.503 88.2502 181.193 86.7569 181.111 86.3198C180.729 84.1892 180.729 84.3577 180.41 82.6185C180.347 84.007 180.219 84.3759 179.964 86.5065C179.841 87.5401 179.664 88.7829 179.518 89.4703C179.391 90.0713 179.195 87.836 179.072 87.2487C178.48 84.3986 178.07 83.6383 177.269 80.8019C176.818 79.1994 175.402 77.7196 175.266 76.6953C175.912 81.0705 176.841 88.3139 177.342 94.7289C177.501 96.7731 177.619 98.7353 177.665 100.493C177.711 102.182 177.697 103.684 177.601 104.895C177.578 105.191 177.528 105.551 177.465 105.929C177.314 106.821 177.078 107.827 176.864 108.455C176.809 108.619 176.759 108.788 176.713 108.952C176.381 110.167 176.381 111.296 176.682 111.806C177.592 113.345 183.242 113.113 183.506 111.296C183.634 110.409 183.72 109.32 183.77 108.087C183.962 103.443 183.638 96.6227 183.124 89.4203L183.137 89.4112Z" fill="url(#paint8_linear_5533_214466)"/>
<path opacity="0.6" d="M188.868 70.4224C190.065 60.2241 183.887 56.459 183.887 56.459C183.887 56.459 178.018 60.7978 179.598 70.9278C180.864 79.0408 181.902 80.9165 182.703 86.0657C183.504 91.2149 184.356 97.1608 184.356 97.1608C184.356 97.1608 185.075 91.4152 186.045 85.9383C186.737 82.0274 188.125 76.7553 188.868 70.4224Z" fill="url(#paint9_linear_5533_214466)"/>
<path d="M191.929 108.928C191.884 108.768 191.838 108.609 191.784 108.445C191.62 107.967 191.447 107.275 191.306 106.583C191.183 105.968 191.083 105.354 191.046 104.885C190.536 98.4743 192.335 83.8008 193.386 76.6895C193.25 77.7137 191.834 79.1933 191.383 80.796C190.586 83.6324 190.172 84.3926 189.58 87.2427C189.457 87.83 189.262 90.0654 189.134 89.4645C188.988 88.7771 188.811 87.5386 188.688 86.5007C188.433 84.3699 188.305 84.0011 188.242 82.6125C187.923 84.3516 187.923 84.1878 187.541 86.3139C187.463 86.7556 187.149 88.2444 187.067 88.7041C186.767 90.4068 186.626 92.2918 186.33 92.146C185.961 91.9594 185.797 89.7467 185.515 89.4053C185 96.6078 184.677 103.428 184.868 108.067C184.918 109.301 185.005 110.389 185.132 111.277C185.396 113.093 191.046 113.326 191.957 111.787C192.239 111.309 192.253 110.261 191.97 109.123C191.952 109.055 191.939 108.991 191.92 108.923L191.929 108.928Z" fill="url(#paint10_linear_5533_214466)"/>
<path opacity="0.38" d="M177.348 94.7253C175.968 89.4897 171.725 85.4057 166.38 84.2266C166.298 84.568 166.198 84.9003 166.089 85.2283C165.929 85.6925 165.742 86.1433 165.506 86.5758C164.322 88.7202 162.984 90.218 162.392 93.8467C161.085 101.832 169.776 104.832 169.681 104.86C169.662 104.864 169.631 104.873 169.599 104.878C170.045 104.933 170.477 104.983 170.896 105.033C172.795 105.265 174.443 105.483 175.863 105.684C176.778 104.113 177.411 102.356 177.68 100.485C177.63 98.7272 177.516 96.765 177.357 94.7208L177.348 94.7253Z" fill="url(#paint11_radial_5533_214466)"/>
</g>
</g>
<path fill-rule="evenodd" clip-rule="evenodd" d="M192.419 137.277C202.661 134.903 212.888 141.282 215.261 151.524C217.634 161.765 211.256 171.992 201.014 174.365C190.772 176.739 180.546 170.36 178.172 160.118C175.799 149.877 182.178 139.65 192.419 137.277ZM194.568 146.549C193.608 146.771 193.01 147.73 193.232 148.69L194.575 154.485L188.78 155.828C187.82 156.051 187.222 157.01 187.445 157.97C187.667 158.93 188.626 159.528 189.586 159.305L195.381 157.962L196.724 163.758C196.947 164.718 197.905 165.316 198.865 165.093C199.826 164.871 200.424 163.912 200.201 162.952L198.858 157.157L204.653 155.814C205.613 155.591 206.211 154.632 205.989 153.672C205.766 152.712 204.808 152.114 203.847 152.337L198.052 153.68L196.709 147.885C196.487 146.924 195.528 146.326 194.568 146.549Z" fill="url(#paint12_linear_5533_214466)"/>
<rect x="0.657025" y="1.65392" width="105.798" height="96.41" rx="11.9" transform="rotate(-0.192678 0.657025 1.65392)" stroke="#EADDFF" stroke-width="1.4"/>
<circle cx="53.6423" cy="50.3729" r="25.5331" transform="rotate(-0.192678 53.6423 50.3729)" stroke="#D7D8E3" stroke-width="11.3481"/>
<path d="M35.2959 67.537L39.5373 63.768V63.768L35.2959 67.537ZM72.8913 43.3508C71.7495 40.4325 73.1896 37.1412 76.1079 35.9994C79.0261 34.8576 82.3174 36.2977 83.4592 39.2159L78.1753 41.2833L72.8913 43.3508ZM54.4747 76.1166L54.4556 70.4427C65.4234 70.4058 74.2847 61.4847 74.2478 50.5169L79.9218 50.4978L85.5958 50.4787C85.6538 67.7139 71.7289 81.7327 54.4938 81.7906L54.4747 76.1166ZM54.303 25.0507L54.322 30.7247C43.3542 30.7616 34.493 39.6827 34.5299 50.6505L28.8559 50.6695L23.1819 50.6886C23.1239 33.4535 37.0488 19.4347 54.2839 19.3767L54.303 25.0507ZM28.8559 50.6695L34.5299 50.6505C34.5468 55.6908 36.4326 60.2742 39.5373 63.768L35.2959 67.537L31.0545 71.306C26.1835 65.8245 23.2085 58.5992 23.1819 50.6886L28.8559 50.6695ZM35.2959 67.537L39.5373 63.768C43.1984 67.888 48.5251 70.4626 54.4556 70.4427L54.4747 76.1166L54.4938 81.7906C45.1723 81.822 36.7862 77.7561 31.0545 71.306L35.2959 67.537ZM79.9218 50.4978L74.2478 50.5169C74.2393 47.9779 73.7575 45.5645 72.8913 43.3508L78.1753 41.2833L83.4592 39.2159C84.8281 42.7145 85.5825 46.5155 85.5958 50.4787L79.9218 50.4978Z" fill="url(#paint13_linear_5533_214466)"/>
<path d="M49.6554 42.8679C49.8568 42.8672 50.0786 42.874 50.3186 42.8911L50.5218 42.9148C51.5255 43.0819 52.2968 43.9435 52.3003 44.9918L52.3321 54.441C52.3355 55.4627 51.6096 56.3451 50.6115 56.5259L50.4085 56.553C50.1848 56.5716 49.9484 56.5828 49.7016 56.5836C49.5001 56.5843 49.2776 56.5776 49.0374 56.5605L49.0374 56.5595C47.9368 56.4819 47.0605 55.5776 47.0567 54.4597L47.0249 45.0106C47.0213 43.921 47.8468 42.9903 48.9475 42.8996L48.9475 42.8986C49.1715 42.8799 49.4084 42.8687 49.6554 42.8679ZM58.0958 42.8395C58.2973 42.8388 58.5198 42.8456 58.76 42.8627L58.759 42.8637C59.86 42.9409 60.7369 43.8453 60.7407 44.9635L60.7725 54.4126C60.7761 55.5025 59.9501 56.4333 58.8489 56.5236C58.6251 56.5422 58.3888 56.5544 58.1419 56.5553C58.0412 56.5556 57.9353 56.5542 57.8245 56.5505L57.4788 56.5321C56.3778 56.4548 55.5009 55.5494 55.4971 54.4313L55.4653 44.9822C55.4617 43.8927 56.2873 42.962 57.3879 42.8712L57.3879 42.8702C57.6118 42.8516 57.8488 42.8404 58.0958 42.8395Z" fill="#584A7D" stroke="white" stroke-width="1.05509"/>
<rect x="0.657025" y="112.654" width="105.798" height="93.8" rx="11.9" transform="rotate(-0.192678 0.657025 112.654)" stroke="#EADDFF" stroke-width="1.4"/>
<path d="M19.5625 156.592C19.5625 148.78 19.5625 144.875 20.4212 141.67C22.7513 132.974 29.5439 126.181 38.2403 123.851C41.4449 122.992 45.3507 122.992 53.1625 122.992C60.9743 122.992 64.8801 122.992 68.0847 123.851C76.7811 126.181 83.5737 132.974 85.9038 141.67C86.7625 144.875 86.7625 148.78 86.7625 156.592C86.7625 164.404 86.7625 168.31 85.9038 171.514C83.5737 180.211 76.7811 187.003 68.0847 189.334C64.8801 190.192 60.9743 190.192 53.1625 190.192C45.3507 190.192 41.4449 190.192 38.2403 189.334C29.5439 187.003 22.7513 180.211 20.4212 171.514C19.5625 168.31 19.5625 164.404 19.5625 156.592Z" fill="url(#paint14_linear_5533_214466)"/>
<path d="M64.2847 156.584C64.272 153.395 61.6772 150.819 58.4882 150.832C55.299 150.844 52.7235 153.44 52.7361 156.63C52.749 159.819 55.3449 162.393 58.534 162.38L58.5414 164.242L58.1476 164.234C54.2421 164.052 51.0985 160.933 50.8852 157.029L50.874 156.637C50.8573 152.419 54.2632 148.986 58.4808 148.97L58.8732 148.978C62.909 149.166 66.1306 152.491 66.1468 156.576L66.1388 156.969C65.9503 161.005 62.627 164.226 58.5414 164.242L58.534 162.38C61.7229 162.367 64.2971 159.773 64.2847 156.584Z" fill="#0A7F9F"/>
<path d="M57.5024 145.769L57.4881 142.146C57.486 141.632 57.9012 141.213 58.4154 141.211C58.9296 141.209 59.3481 141.624 59.3502 142.139L59.3645 145.762C59.3666 146.276 58.9514 146.694 58.4372 146.696C57.923 146.698 57.5045 146.283 57.5024 145.769Z" fill="#0A7F9F"/>
<path d="M69.0397 155.471L72.6627 155.457C73.1769 155.455 73.5954 155.87 73.5974 156.384C73.5995 156.898 73.1843 157.317 72.6701 157.319L69.0471 157.333C68.5329 157.335 68.1144 156.92 68.1123 156.406C68.1103 155.892 68.5255 155.473 69.0397 155.471Z" fill="#0A7F9F"/>
<path d="M47.7406 165.942L50.2923 163.37L51.6142 164.682L49.0625 167.254L47.7406 165.942Z" fill="#0A7F9F"/>
<path d="M66.7358 163.324L69.3078 165.876C69.6728 166.238 69.6751 166.827 69.313 167.192C68.9509 167.557 68.3613 167.56 67.9963 167.197L65.4243 164.646C65.0593 164.284 65.0569 163.694 65.4191 163.329C65.7812 162.964 66.3707 162.962 66.7358 163.324Z" fill="#0A7F9F"/>
<path d="M59.4402 167.137L59.4546 170.76L57.5925 170.768L57.5781 167.145L59.4402 167.137Z" fill="#0A7F9F"/>
<path d="M47.773 157.413L44.15 157.427L44.1426 155.565L47.7656 155.551L47.773 157.413Z" fill="#0A7F9F"/>
<path d="M69.2231 146.935L66.6714 149.507C66.3092 149.872 65.7197 149.874 65.3547 149.512C64.9896 149.15 64.9873 148.561 65.3494 148.196L67.9011 145.624C68.2633 145.258 68.8528 145.256 69.2178 145.618C69.5829 145.98 69.5852 146.57 69.2231 146.935Z" fill="#0A7F9F"/>
<path d="M48.9701 145.714L51.5422 148.266C51.9072 148.628 51.9095 149.218 51.5474 149.583C51.1853 149.948 50.5957 149.95 50.2307 149.588L47.6587 147.036C47.2936 146.674 47.2913 146.085 47.6534 145.72C48.0156 145.355 48.6051 145.352 48.9701 145.714Z" fill="#0A7F9F"/>
<path d="M46.8902 150.52C51.8492 150.52 55.921 154.307 56.3744 159.148C56.7965 159.066 57.2327 159.023 57.6787 159.023C61.4442 159.024 64.4969 162.076 64.4969 165.842C64.4967 169.607 61.4441 172.66 57.6787 172.66C57.6619 172.66 57.6449 172.659 57.6281 172.658L39.8451 172.658C39.827 172.659 39.8086 172.66 39.7904 172.66C39.7722 172.66 39.754 172.659 39.7357 172.658L39.4773 172.658L39.4773 172.652C35.484 172.487 32.2969 169.199 32.2969 165.165C32.2971 161.795 34.5217 158.945 37.5824 158.002C38.5186 153.723 42.3299 150.52 46.8902 150.52Z" fill="white"/>
<path d="M46.8902 150.52C51.8492 150.52 55.921 154.307 56.3744 159.148C56.7965 159.066 57.2327 159.023 57.6787 159.023C61.4442 159.024 64.4969 162.076 64.4969 165.842C64.4967 169.607 61.4441 172.66 57.6787 172.66C57.6619 172.66 57.6449 172.659 57.6281 172.658L39.8451 172.658C39.827 172.659 39.8086 172.66 39.7904 172.66C39.7722 172.66 39.754 172.659 39.7357 172.658L39.4773 172.658L39.4773 172.652C35.484 172.487 32.2969 169.199 32.2969 165.165C32.2971 161.795 34.5217 158.945 37.5824 158.002C38.5186 153.723 42.3299 150.52 46.8902 150.52Z" fill="url(#paint15_linear_5533_214466)"/>
<path d="M32.2969 165.165C32.2971 161.795 34.5217 158.945 37.5824 158.002C38.5186 153.723 42.3299 150.52 46.8902 150.52C51.8492 150.52 55.921 154.307 56.3744 159.148C56.7965 159.066 57.2327 159.023 57.6787 159.023C61.4442 159.024 64.4969 162.076 64.4969 165.842C64.4967 169.607 61.4441 172.66 57.6787 172.66C57.6619 172.66 57.6449 172.659 57.6281 172.658L39.8451 172.658C39.827 172.659 39.8086 172.66 39.7904 172.66C39.7722 172.66 39.754 172.659 39.7357 172.658L39.4773 172.658L39.4773 172.652C35.484 172.487 32.2969 169.199 32.2969 165.165ZM34.159 165.165C34.159 168.196 36.5539 170.667 39.5539 170.791C39.5745 170.792 39.595 170.795 39.6154 170.796L57.6883 170.796C60.3357 170.791 62.4955 168.712 62.6279 166.096L62.6348 165.842C62.6348 163.19 60.5521 161.025 57.933 160.892L57.6787 160.886C57.3517 160.886 57.034 160.917 56.7285 160.976C56.2126 161.076 55.678 160.953 55.2574 160.638C54.837 160.323 54.5695 159.845 54.5205 159.321C54.1672 155.55 51.0807 152.572 47.2621 152.39L46.8902 152.382C43.2234 152.382 40.1539 154.957 39.4008 158.4C39.2573 159.056 38.7724 159.585 38.1307 159.782C35.829 160.491 34.1593 162.635 34.159 165.165Z" fill="#0A7F9F"/>
<defs>
<linearGradient id="paint0_linear_5533_214466" x1="182.438" y1="10.5944" x2="183.089" y2="105.233" gradientUnits="userSpaceOnUse">
<stop stop-color="#FF6600"/>
<stop offset="0.24" stop-color="#FF9C00"/>
<stop offset="0.31" stop-color="#FF9200"/>
<stop offset="0.44" stop-color="#FF7900"/>
<stop offset="0.52" stop-color="#FF6600"/>
<stop offset="0.96" stop-color="#FB2872"/>
</linearGradient>
<linearGradient id="paint1_linear_5533_214466" x1="122.501" y1="40.1411" x2="158.468" y2="111.528" gradientUnits="userSpaceOnUse">
<stop stop-color="#FFEB49"/>
<stop offset="0.45" stop-color="#FF6600"/>
<stop offset="0.54" stop-color="#FF6109"/>
<stop offset="0.69" stop-color="#FF5322"/>
<stop offset="0.82" stop-color="#FF453F"/>
<stop offset="1" stop-color="#FB2872"/>
</linearGradient>
<linearGradient id="paint2_linear_5533_214466" x1="132.392" y1="58.4931" x2="136.016" y2="87.6719" gradientUnits="userSpaceOnUse">
<stop stop-color="#FFEB49"/>
<stop offset="0.09" stop-color="#FFE545" stop-opacity="0.96"/>
<stop offset="0.24" stop-color="#FFD63D" stop-opacity="0.84"/>
<stop offset="0.44" stop-color="#FFBD2F" stop-opacity="0.66"/>
<stop offset="0.67" stop-color="#FF9A1C" stop-opacity="0.4"/>
<stop offset="0.94" stop-color="#FF6F05" stop-opacity="0.07"/>
<stop offset="1" stop-color="#FF6600" stop-opacity="0"/>
</linearGradient>
<linearGradient id="paint3_linear_5533_214466" x1="187.969" y1="26.1998" x2="189.385" y2="33.6345" gradientUnits="userSpaceOnUse">
<stop offset="0.16" stop-color="#A030B9"/>
<stop offset="0.88" stop-color="#00073A"/>
</linearGradient>
<linearGradient id="paint4_linear_5533_214466" x1="174.131" y1="26.5511" x2="175.096" y2="32.9614" gradientUnits="userSpaceOnUse">
<stop offset="0.16" stop-color="#A030B9"/>
<stop offset="0.88" stop-color="#00073A"/>
</linearGradient>
<linearGradient id="paint5_linear_5533_214466" x1="192.672" y1="19.9364" x2="196.393" y2="3.47935" gradientUnits="userSpaceOnUse">
<stop stop-color="#FF6600" stop-opacity="0"/>
<stop offset="0.03" stop-color="#FF6600" stop-opacity="0.17"/>
<stop offset="0.07" stop-color="#FF6600" stop-opacity="0.36"/>
<stop offset="0.11" stop-color="#FF6600" stop-opacity="0.53"/>
<stop offset="0.16" stop-color="#FF6600" stop-opacity="0.68"/>
<stop offset="0.2" stop-color="#FF6600" stop-opacity="0.8"/>
<stop offset="0.25" stop-color="#FF6600" stop-opacity="0.89"/>
<stop offset="0.3" stop-color="#FF6600" stop-opacity="0.95"/>
<stop offset="0.36" stop-color="#FF6600" stop-opacity="0.99"/>
<stop offset="0.43" stop-color="#FF6600"/>
<stop offset="0.72" stop-color="#FD4737"/>
<stop offset="1" stop-color="#FB2872"/>
</linearGradient>
<linearGradient id="paint6_linear_5533_214466" x1="171.958" y1="19.4174" x2="168.237" y2="2.96484" gradientUnits="userSpaceOnUse">
<stop stop-color="#FF6600" stop-opacity="0"/>
<stop offset="0.03" stop-color="#FF6600" stop-opacity="0.17"/>
<stop offset="0.07" stop-color="#FF6600" stop-opacity="0.36"/>
<stop offset="0.11" stop-color="#FF6600" stop-opacity="0.53"/>
<stop offset="0.16" stop-color="#FF6600" stop-opacity="0.68"/>
<stop offset="0.2" stop-color="#FF6600" stop-opacity="0.8"/>
<stop offset="0.25" stop-color="#FF6600" stop-opacity="0.89"/>
<stop offset="0.3" stop-color="#FF6600" stop-opacity="0.95"/>
<stop offset="0.36" stop-color="#FF6600" stop-opacity="0.99"/>
<stop offset="0.43" stop-color="#FF6600"/>
<stop offset="0.71" stop-color="#FD4737"/>
<stop offset="0.98" stop-color="#FB2872"/>
</linearGradient>
<linearGradient id="paint7_linear_5533_214466" x1="183.213" y1="14.3626" x2="179.316" y2="125.906" gradientUnits="userSpaceOnUse">
<stop offset="0.02" stop-color="#FF7408"/>
<stop offset="0.03" stop-color="#FFAF28"/>
<stop offset="0.04" stop-color="#FFC534"/>
<stop offset="0.05" stop-color="#FFD63D"/>
<stop offset="0.06" stop-color="#FFE244"/>
<stop offset="0.07" stop-color="#FFE947"/>
<stop offset="0.11" stop-color="#FFEB49"/>
<stop offset="0.21" stop-color="#FFC936"/>
<stop offset="0.43" stop-color="#FF7508"/>
<stop offset="0.47" stop-color="#FF6600"/>
<stop offset="0.85" stop-color="#FB2872"/>
</linearGradient>
<linearGradient id="paint8_linear_5533_214466" x1="179.044" y1="77.2644" x2="180.697" y2="121.126" gradientUnits="userSpaceOnUse">
<stop offset="0.01" stop-color="#BE0449" stop-opacity="0"/>
<stop offset="0.06" stop-color="#BF054A" stop-opacity="0.04"/>
<stop offset="0.14" stop-color="#C2084C" stop-opacity="0.16"/>
<stop offset="0.23" stop-color="#C70D51" stop-opacity="0.36"/>
<stop offset="0.35" stop-color="#CE1457" stop-opacity="0.63"/>
<stop offset="0.48" stop-color="#D71E5F" stop-opacity="0.97"/>
<stop offset="0.49" stop-color="#D81F60"/>
<stop offset="0.56" stop-color="#D31E5F"/>
<stop offset="0.63" stop-color="#C71D5D"/>
<stop offset="0.7" stop-color="#B31A59"/>
<stop offset="0.77" stop-color="#971754"/>
<stop offset="0.84" stop-color="#73134E"/>
<stop offset="0.91" stop-color="#460E46"/>
<stop offset="0.98" stop-color="#13093D"/>
<stop offset="1" stop-color="#00073A"/>
</linearGradient>
<linearGradient id="paint9_linear_5533_214466" x1="184.055" y1="65.1183" x2="185.803" y2="103.567" gradientUnits="userSpaceOnUse">
<stop stop-color="#FFEB49"/>
<stop offset="0.09" stop-color="#FFE545" stop-opacity="0.96"/>
<stop offset="0.24" stop-color="#FFD63D" stop-opacity="0.84"/>
<stop offset="0.44" stop-color="#FFBD2F" stop-opacity="0.66"/>
<stop offset="0.68" stop-color="#FF9A1C" stop-opacity="0.4"/>
<stop offset="0.94" stop-color="#FF6F05" stop-opacity="0.07"/>
<stop offset="1" stop-color="#FF6600" stop-opacity="0"/>
</linearGradient>
<linearGradient id="paint10_linear_5533_214466" x1="189.822" y1="69.2229" x2="187.996" y2="121.452" gradientUnits="userSpaceOnUse">
<stop stop-color="#D81F60" stop-opacity="0"/>
<stop offset="0.11" stop-color="#D81F60" stop-opacity="0.01"/>
<stop offset="0.19" stop-color="#D81F60" stop-opacity="0.06"/>
<stop offset="0.27" stop-color="#D81F60" stop-opacity="0.14"/>
<stop offset="0.35" stop-color="#D81F60" stop-opacity="0.25"/>
<stop offset="0.42" stop-color="#D81F60" stop-opacity="0.39"/>
<stop offset="0.49" stop-color="#D81F60" stop-opacity="0.57"/>
<stop offset="0.55" stop-color="#D81F60" stop-opacity="0.77"/>
<stop offset="0.62" stop-color="#D81F60"/>
<stop offset="0.66" stop-color="#D21E5F"/>
<stop offset="0.71" stop-color="#C21C5C"/>
<stop offset="0.77" stop-color="#A81957"/>
<stop offset="0.83" stop-color="#841551"/>
<stop offset="0.9" stop-color="#551049"/>
<stop offset="0.97" stop-color="#1D0A3F"/>
<stop offset="1" stop-color="#00073A"/>
</linearGradient>
<radialGradient id="paint11_radial_5533_214466" cx="0" cy="0" r="1" gradientUnits="userSpaceOnUse" gradientTransform="translate(163.284 100.398) scale(24.0341)">
<stop stop-color="#FFEB49"/>
<stop offset="0.07" stop-color="#FFE546" stop-opacity="0.96"/>
<stop offset="0.18" stop-color="#FFD73E" stop-opacity="0.85"/>
<stop offset="0.32" stop-color="#FFC031" stop-opacity="0.68"/>
<stop offset="0.49" stop-color="#FFA01F" stop-opacity="0.44"/>
<stop offset="0.69" stop-color="#FF7709" stop-opacity="0.13"/>
<stop offset="0.77" stop-color="#FF6600" stop-opacity="0"/>
</radialGradient>
<linearGradient id="paint12_linear_5533_214466" x1="173.069" y1="138.097" x2="201.014" y2="174.365" gradientUnits="userSpaceOnUse">
<stop stop-color="#EADDFF"/>
<stop offset="1" stop-color="#9871FF"/>
</linearGradient>
<linearGradient id="paint13_linear_5533_214466" x1="54.303" y1="25.0507" x2="95.3515" y2="69.1106" gradientUnits="userSpaceOnUse">
<stop stop-color="#FFC35B"/>
<stop offset="0.423077" stop-color="#FF7B42"/>
<stop offset="1" stop-color="#FE6928"/>
</linearGradient>
<linearGradient id="paint14_linear_5533_214466" x1="75.7915" y1="138.307" x2="27.4073" y2="191.692" gradientUnits="userSpaceOnUse">
<stop stop-color="#C3EEF8"/>
<stop offset="1" stop-color="#EADDFF"/>
</linearGradient>
<linearGradient id="paint15_linear_5533_214466" x1="59.24" y1="155.565" x2="44.8601" y2="178.641" gradientUnits="userSpaceOnUse">
<stop stop-color="#C3EEF8"/>
<stop offset="1" stop-color="#EADDFF"/>
</linearGradient>
<clipPath id="clip0_5533_214466">
<rect width="91" height="91" fill="white" transform="translate(119.719 8)"/>
</clipPath>
</defs>
</svg>
