<!-- This Source Code Form is subject to the terms of the Mozilla Public
   - License, v. 2.0. If a copy of the MPL was not distributed with this
   - file, You can obtain one at http://mozilla.org/MPL/2.0/. -->
<svg width="243" height="210" viewBox="0 0 243 210" fill="none" xmlns="http://www.w3.org/2000/svg">
<rect x="118.134" y="115.88" width="92.7193" height="92.7193" rx="10.2" stroke="#5939A8" stroke-width="1.2" stroke-dasharray="2.4 2.4"/>
<rect x="149.936" y="125.554" width="79.7223" height="79.7223" rx="10.2" transform="rotate(-11.084 149.936 125.554)" stroke="#EADDFF" stroke-width="1.2"/>
<rect x="118.134" y="1.70469" width="100.577" height="98.2659" rx="10.2" stroke="#EADDFF" stroke-width="1.2"/>
<mask id="mask0_5533_214369" style="mask-type:alpha" maskUnits="userSpaceOnUse" x="117" y="1" width="103" height="100">
<rect x="118.134" y="1.70469" width="100.577" height="98.2659" rx="10.2" fill="white" stroke="#EADDFF" stroke-width="1.2"/>
</mask>
<g mask="url(#mask0_5533_214369)">
<path d="M217.642 48.4062C217.642 48.4062 209.379 49.9463 205.428 58.425C199.226 71.733 204.981 80.6887 201.905 91.5124C200.11 97.8277 193.761 107.712 182.579 109.084C171.397 110.457 145.582 106.613 147.515 121.303C149.448 135.992 180.094 137.502 191 137.364C201.905 137.227 214.923 134.94 223.992 127.068C231.584 120.479 235.312 112.928 235.312 112.928C235.312 112.928 234.345 113.477 233.379 114.164C232.412 114.851 230.756 115.4 230.756 115.4C230.756 115.4 236.169 107.225 235.45 92.8858C234.64 76.7645 226.48 69.786 221.747 64.5931C216.159 58.4613 215.22 56.4921 215.22 53.5575C215.22 50.1493 217.642 48.4071 217.642 48.4071V48.4062Z" fill="url(#paint0_linear_5533_214369)"/>
<path d="M213.225 119.115C216.538 121.174 222.895 118.019 226.063 109.231C231.309 94.6787 225.925 87.1283 225.925 87.1283C225.925 87.1283 225.649 88.2268 225.235 90.0116C224.82 91.7963 224.268 92.8949 224.268 92.8949C224.268 92.8949 224.13 89.0514 223.164 85.6193C222.197 82.1872 219.989 79.4414 219.989 79.4414C219.989 79.4414 221.417 91.9018 218.332 100.583C216.274 106.375 215.376 108.649 212.81 111.84C208.419 117.301 213.225 119.115 213.225 119.115V119.115Z" fill="url(#paint1_linear_5533_214369)"/>
<path d="M152.171 36.9239L155.07 36.0062C156.039 35.6994 156.697 34.804 156.694 33.7923C156.689 32.083 156.755 29.315 157.141 26.6267C157.762 22.3027 160.124 17.6268 164.722 22.199C168.863 26.3173 174.193 33.2214 176.812 37.1287C178.055 38.9817 180.332 41.0413 184.06 40.4233C187.787 39.8053 188.408 40.4916 188.201 41.419C187.994 42.3464 187.096 43.2383 188.994 43.2037C190.893 43.1691 191.182 44.437 190.547 45.3316C190.133 45.915 189.305 46.2235 188.788 46.7041C188.27 47.1846 188.335 47.7609 189.306 47.9054C190.686 48.1111 190.893 49.0376 189.996 50.0333C189.098 51.0289 186.821 52.5388 185.716 54.6667C184.612 56.7946 181.977 59.6778 181.425 70.5229C180.775 83.2918 184.048 86.3099 185.428 98.3908C186.308 106.089 185.152 111.158 188.327 116.237C191.502 121.317 196.748 130.652 186.809 136.144C176.87 141.635 158.786 140.674 152.022 139.301C145.257 137.928 135.18 135.457 136.147 124.886C136.339 122.777 136.822 120.928 137.941 119.258C139.874 116.375 140.812 115.215 141.254 109.786C141.74 103.824 142.773 97.7046 145.257 89.3306C147.742 80.9565 150.335 76.4002 147.501 72.9939C145.844 71.0034 142.172 69.3038 137.457 68.7727C134.109 68.395 132.591 68.3267 132.522 67.0908C132.454 65.8549 133.661 65.7866 133.73 64.9629C133.8 64.1393 132.799 64.3113 131.626 64.2421C130.247 64.1614 129.762 62.8351 131.039 62.1142C132.316 61.3934 133.352 61.4626 133.352 60.8783C133.352 60.294 132.678 60.701 131.764 60.3978C131.246 60.2258 130.729 58.8879 132.282 57.8922C133.835 56.8965 137.148 55.3184 137.769 52.4351C138.391 49.5519 137.459 45.0558 136.906 39.8053C136.353 34.5548 134.387 25.9396 141.531 28.8575C142.634 29.3079 145.339 31.3027 147.674 33.1815C149.934 34.9999 152.171 36.9221 152.171 36.9221V36.9239Z" fill="url(#paint2_linear_5533_214369)"/>
<mask id="mask1_5533_214369" style="mask-type:luminance" maskUnits="userSpaceOnUse" x="130" y="20" width="63" height="121">
<path d="M152.171 36.9239L155.07 36.0062C156.039 35.6994 156.697 34.804 156.694 33.7923C156.689 32.083 156.755 29.315 157.141 26.6267C157.762 22.3027 160.124 17.6268 164.722 22.199C168.863 26.3173 174.193 33.2214 176.812 37.1287C178.055 38.9817 180.332 41.0413 184.06 40.4233C187.787 39.8053 188.408 40.4916 188.201 41.419C187.994 42.3464 187.096 43.2383 188.994 43.2037C190.893 43.1691 191.182 44.437 190.547 45.3316C190.133 45.915 189.305 46.2235 188.788 46.7041C188.27 47.1846 188.335 47.7609 189.306 47.9054C190.686 48.1111 190.893 49.0376 189.996 50.0333C189.098 51.0289 186.821 52.5388 185.716 54.6667C184.612 56.7946 181.977 59.6778 181.425 70.5229C180.775 83.2918 184.048 86.3099 185.428 98.3908C186.308 106.089 185.152 111.158 188.327 116.237C191.502 121.317 196.748 130.652 186.809 136.144C176.87 141.635 158.786 140.674 152.022 139.301C145.257 137.928 135.18 135.457 136.147 124.886C136.339 122.777 136.822 120.928 137.941 119.258C139.874 116.375 140.812 115.215 141.254 109.786C141.74 103.824 142.773 97.7046 145.257 89.3306C147.742 80.9565 150.335 76.4002 147.501 72.9939C145.844 71.0034 142.172 69.3038 137.457 68.7727C134.109 68.395 132.591 68.3267 132.522 67.0908C132.454 65.8549 133.661 65.7866 133.73 64.9629C133.8 64.1393 132.799 64.3113 131.626 64.2421C130.247 64.1614 129.762 62.8351 131.039 62.1142C132.316 61.3934 133.352 61.4626 133.352 60.8783C133.352 60.294 132.678 60.701 131.764 60.3978C131.246 60.2258 130.729 58.8879 132.282 57.8922C133.835 56.8965 137.148 55.3184 137.769 52.4351C138.391 49.5519 137.459 45.0558 136.906 39.8053C136.353 34.5548 134.387 25.9396 141.531 28.8575C142.634 29.3079 145.339 31.3027 147.674 33.1815C149.934 34.9999 152.171 36.9221 152.171 36.9221V36.9239Z" fill="white"/>
</mask>
<g mask="url(#mask1_5533_214369)">
<path opacity="0.75" d="M127.75 166.266C157.72 166.266 182.015 146.168 182.015 121.375C182.015 96.5827 157.72 76.4844 127.75 76.4844C97.7798 76.4844 73.4844 96.5827 73.4844 121.375C73.4844 146.168 97.7798 166.266 127.75 166.266Z" fill="url(#paint3_radial_5533_214369)"/>
<path opacity="0.6" d="M129.834 62.3093C133.366 60.8792 138.428 58.191 144.536 56.8522C150.645 55.5134 156.443 57.3673 159.134 55.6163C161.826 53.8652 164.104 51.6008 165.243 50.1592C166.383 48.7175 170.316 46.4522 173.94 47.5853C177.565 48.7175 177.875 49.027 178.91 48.1005C179.945 47.1739 181.601 44.2907 188.124 42.8491C194.647 41.4074 202.929 60.044 202.929 60.044C202.929 60.044 195.578 110.392 195.267 110.392C194.956 110.392 135.423 106.892 135.423 106.892L125.484 67.6635L129.832 62.3093H129.834Z" fill="url(#paint4_linear_5533_214369)"/>
<path opacity="0.6" d="M174.425 80.125C174.425 80.125 169.512 89.1631 167.856 98.7722C166.199 108.382 166.131 123.62 166.141 127.349C166.157 132.436 168.213 139.979 169.041 141.901C169.869 143.824 171.526 143.137 172.768 142.725C174.011 142.313 175.217 142.165 174.943 139.705C174.528 135.998 174.298 129.02 174.436 124.902C174.506 122.836 174.704 118.38 175.265 114.377C175.822 110.398 176.522 106.679 176.783 104.721C177.381 100.237 178.152 95.7755 177.462 90.97C176.771 86.1655 174.425 80.125 174.425 80.125Z" fill="url(#paint5_linear_5533_214369)"/>
</g>
<path d="M157.839 84.9296C156.56 91.9781 156.937 106.023 157.203 112.476C158.019 132.276 157.855 139.579 160.141 143.312C162.92 147.853 167.998 145.916 168.745 143.686C169.435 141.627 166.26 134.351 166.122 127.35C165.984 120.348 166.537 107.993 167.502 101.403C168.469 94.8135 170.263 88.6356 171.367 85.341C173.575 78.7517 159.633 75.0448 157.839 84.9287L157.839 84.9296Z" fill="url(#paint6_linear_5533_214369)"/>
<path d="M153.025 45.0847L153.403 47.1496C153.686 48.6941 155.234 49.6694 156.759 49.2624C158.323 48.8457 159.169 47.1629 158.565 45.6681L157.779 43.7202C157.305 42.5481 156.02 41.9186 154.797 42.2609C153.563 42.6066 152.795 43.8293 153.025 45.0838V45.0847Z" fill="url(#paint7_linear_5533_214369)"/>
<path d="M156.293 45.2791C156.818 45.2791 157.243 44.8564 157.243 44.3349C157.243 43.8134 156.818 43.3906 156.293 43.3906C155.769 43.3906 155.344 43.8134 155.344 44.3349C155.344 44.8564 155.769 45.2791 156.293 45.2791Z" fill="white"/>
<path d="M169.119 39.7292L169.497 41.7942C169.779 43.3386 171.328 44.3139 172.853 43.907C174.416 43.4902 175.262 41.8075 174.659 40.3126L173.873 38.3648C173.399 37.1927 172.113 36.5632 170.891 36.9054C169.656 37.2512 168.889 38.4738 169.119 39.7284V39.7292Z" fill="url(#paint8_linear_5533_214369)"/>
<path d="M172.371 39.9236C172.896 39.9236 173.321 39.5009 173.321 38.9794C173.321 38.4579 172.896 38.0352 172.371 38.0352C171.847 38.0352 171.422 38.4579 171.422 38.9794C171.422 39.5009 171.847 39.9236 172.371 39.9236Z" fill="white"/>
<path d="M168.649 45.7999C166.346 46.8957 164.942 48.6619 163.127 51.1541C161.678 53.1446 160.436 54.6545 160.573 55.8221C160.711 56.9889 161.944 58.3233 163.955 59.3225C165.967 60.3217 171.134 61.3129 175.344 58.7045C179.555 56.0961 180.373 52.8715 179.279 50.3987C178.519 48.6831 176.311 47.8586 174.516 46.5553C172.721 45.2511 170.236 45.0454 168.649 45.7999H168.649Z" fill="#FFBB0D"/>
<path d="M168.657 48.2686C168.851 48.9495 170.3 49.8459 171.57 49.4478C173.034 48.9877 173.507 47.4343 173.332 46.8846C173.114 46.2011 172.339 45.4519 170.527 46.0601C168.613 46.702 168.464 47.5886 168.657 48.2695V48.2686Z" fill="#210B40"/>
<path d="M182.352 130.164C182.679 117.505 184.775 109.639 185.327 104.423C185.448 103.287 185.561 102.061 185.664 100.797C185.609 100.024 185.538 99.2244 185.442 98.3936C184.541 90.5037 182.832 86.4785 181.936 81.0781C179.174 82.1882 177.554 86.1398 177.459 90.9692C177.32 97.9707 177.595 101.214 175.94 109.914C174.146 119.344 174.018 133.151 175.002 139.695C175.078 140.2 175.161 140.664 175.25 141.078C176.715 147.875 183.848 146.534 184.914 144.235C185.943 142.013 184.126 140.001 183.332 136.982C182.878 135.257 182.296 132.363 182.353 130.165L182.352 130.164Z" fill="url(#paint9_linear_5533_214369)"/>
<path d="M186.055 23.6734L186.072 17.1289C186.072 17.1289 187.128 17.296 187.779 17.4632C188.377 17.6127 189.318 17.9382 189.318 17.9382C190.866 20.4275 191.843 23.3039 192.062 26.4002C192.062 26.4002 191.482 27.2271 191.156 27.6053C190.717 28.1419 189.907 28.96 189.907 28.96L186.046 23.6734L186.055 23.6734Z" fill="url(#paint10_linear_5533_214369)"/>
<path d="M161.203 23.6636L157.35 28.959C157.35 28.959 156.567 28.1145 156.11 27.5076C155.635 26.8655 155.213 26.1793 155.213 26.1793C155.459 23.1886 156.427 20.3914 157.931 17.9724C157.931 17.9724 158.635 17.7085 159.514 17.471C160.341 17.2511 161.186 17.1367 161.186 17.1367L161.203 23.6724L161.203 23.6636Z" fill="url(#paint11_linear_5533_214369)"/>
<path d="M173.638 14.6558L167.393 12.6151C167.393 12.6151 167.877 11.6651 168.317 11.023C168.818 10.2753 169.24 9.77387 169.24 9.77387C170.648 9.43082 172.125 9.24609 173.638 9.24609C175.151 9.24609 176.673 9.43961 178.107 9.79147C178.107 9.79147 178.714 10.6095 179.022 11.0933C179.391 11.6651 179.875 12.6239 179.875 12.6239L173.638 14.6558Z" fill="url(#paint12_linear_5533_214369)"/>
<path d="M181.298 38.2732L187.535 36.25C187.535 36.25 187.702 37.3407 187.737 37.9037C187.781 38.5195 187.781 39.6014 187.781 39.6014C185.837 41.9236 183.33 43.7533 180.48 44.8968C180.48 44.8968 179.618 44.6241 178.967 44.3338C178.202 43.9996 177.454 43.5773 177.454 43.5773L181.307 38.2732L181.298 38.2732Z" fill="url(#paint13_linear_5533_214369)"/>
<path d="M165.944 38.2741L169.797 43.5783C169.797 43.5783 168.944 44.0269 168.293 44.2908C167.492 44.6163 166.674 44.8538 166.674 44.8538C163.859 43.7103 161.388 41.8894 159.47 39.5936C159.47 39.5936 159.444 38.714 159.496 38.0015C159.558 37.2098 159.725 36.2422 159.725 36.2422L165.953 38.2653L165.944 38.2741Z" fill="url(#paint14_linear_5533_214369)"/>
<path d="M169.789 43.58C169.789 43.58 168.54 42.4365 167.581 41.0907C166.552 39.6393 165.945 38.2759 165.945 38.2759L169.798 32.9805L177.46 32.9805L181.312 38.2759C181.312 38.2759 180.618 39.8328 179.685 41.0995C178.682 42.4541 177.46 43.58 177.46 43.58C177.46 43.58 175.806 44.0638 173.625 44.0638C171.601 44.0638 169.789 43.58 169.789 43.58Z" fill="#DDDEDE"/>
<path d="M157.35 28.9595C157.35 28.9595 158.01 27.4729 159.083 26.0039C160.024 24.7196 161.212 23.6641 161.212 23.6641L167.431 25.6872L169.797 32.9706L165.944 38.266C165.944 38.266 164.255 38.0725 162.716 37.5711C161.071 37.0345 159.716 36.2428 159.716 36.2428C159.716 36.2428 158.731 34.721 158.089 32.7595C157.447 30.7979 157.35 28.9595 157.35 28.9595Z" fill="#D5D6D6"/>
<path d="M189.897 28.9585C189.897 28.9585 189.247 27.4719 188.235 26.0997C187.232 24.7274 186.036 23.6719 186.036 23.6719L179.817 25.695L177.451 32.9784L181.303 38.2738C181.303 38.2738 182.887 38.1067 184.567 37.5789C186.185 37.0687 187.54 36.2506 187.54 36.2506C187.54 36.2506 188.534 34.8432 189.176 32.7849C189.836 30.6474 189.906 28.9585 189.906 28.9585L189.897 28.9585Z" fill="#EFF0F0"/>
<path d="M186.05 17.1248C186.05 17.1248 186.375 18.7082 186.375 20.2211C186.375 22.0596 186.032 23.6693 186.032 23.6693L179.813 25.6924L173.62 21.1887L173.62 14.653C173.62 14.653 175.01 13.8438 176.761 13.272C178.406 12.7354 179.848 12.6211 179.848 12.6211C179.848 12.6211 181.37 13.1665 183.182 14.4595C184.95 15.7262 186.05 17.1248 186.05 17.1248Z" fill="#FAFAFA"/>
<path d="M173.625 21.1897L173.625 14.654C173.625 14.654 172.165 13.8096 170.546 13.2906C168.866 12.754 167.38 12.6133 167.38 12.6133C167.38 12.6133 165.928 13.1499 164.081 14.4605C162.383 15.6568 161.187 17.1346 161.187 17.1346C161.187 17.1346 160.862 18.5156 160.862 20.3628C160.862 22.2101 161.205 23.6703 161.205 23.6703L167.424 25.6934L173.616 21.1897L173.625 21.1897Z" fill="#EDEDED"/>
<path d="M177.446 32.9785C177.446 32.9785 178.519 30.3396 178.871 29.2576C179.223 28.1757 179.812 25.6951 179.812 25.6951C179.812 25.6951 177.877 24.0326 176.831 23.2673C175.81 22.5197 173.62 21.1914 173.62 21.1914C173.62 21.1914 171.377 22.5812 170.348 23.3201C169.406 23.9974 167.427 25.6951 167.427 25.6951C167.427 25.6951 168.025 28.1405 168.404 29.3456C168.782 30.5419 169.793 32.9785 169.793 32.9785C169.793 32.9785 172.336 33.1808 173.708 33.1808C174.975 33.1808 177.455 32.9785 177.455 32.9785L177.446 32.9785Z" fill="url(#paint15_linear_5533_214369)"/>
<path d="M169.79 43.5781C169.79 43.5781 171.602 44.0619 173.625 44.0619C175.797 44.0619 177.451 43.5869 177.451 43.5781C177.451 43.5781 178.199 44.0003 178.964 44.3346C179.624 44.6249 180.477 44.8976 180.477 44.8976C180.653 44.8272 177.601 46.217 173.616 46.217C171.153 46.217 168.804 45.7332 166.658 44.8624C166.658 44.8624 167.485 44.6249 168.277 44.2994C168.936 44.0355 169.781 43.5869 169.781 43.5869L169.79 43.5781Z" fill="#CBCCCC"/>
<path d="M157.353 28.9603C157.353 28.9603 157.449 30.7987 158.091 32.7603C158.734 34.7219 159.719 36.2437 159.719 36.2437C159.719 36.2437 159.552 37.2113 159.49 38.0029C159.437 38.7066 159.464 39.5863 159.464 39.5863C156.772 36.3756 155.153 32.2413 155.153 27.72C155.153 27.201 155.18 26.6821 155.215 26.1719C155.215 26.1807 155.637 26.8668 156.112 27.5001C156.57 28.1159 157.353 28.9515 157.353 28.9515L157.353 28.9603Z" fill="#CBCCCC"/>
<path d="M187.79 39.6056C187.79 39.6056 187.79 38.5237 187.746 37.9079C187.702 37.3538 187.544 36.263 187.544 36.2542C187.544 36.2542 188.538 34.8468 189.18 32.7885C189.84 30.651 189.91 28.9621 189.91 28.9621C189.91 28.9621 190.72 28.1352 191.159 27.6074C191.458 27.2468 191.986 26.5079 192.065 26.4023C192.101 26.8422 192.109 27.282 192.109 27.7306C192.109 34.495 188.476 40.4061 183.058 43.6256C184.852 42.5612 186.453 41.1978 187.79 39.6056Z" fill="#F4F5F5"/>
<path d="M186.051 17.1234C186.051 17.1234 184.951 15.7247 183.183 14.4581C181.38 13.1562 179.85 12.6196 179.85 12.6196C179.85 12.6196 179.366 11.6608 178.996 11.0891C178.689 10.6053 178.082 9.78721 178.082 9.78721C177.906 9.74323 177.73 9.69925 177.545 9.66406C182.497 10.7284 186.702 13.7807 189.297 17.9326C189.139 17.8798 188.294 17.5984 187.758 17.4576C187.115 17.2905 186.069 17.1234 186.051 17.1234Z" fill="#F7F7F7"/>
<path d="M167.387 12.6147C167.387 12.6147 165.927 13.16 164.089 14.4619C162.391 15.6582 161.195 17.136 161.195 17.136C161.195 17.136 160.35 17.2503 159.523 17.4702C158.644 17.7077 157.949 17.9716 157.94 17.9716C160.456 13.9341 164.484 10.9346 169.234 9.77344C169.234 9.77344 168.812 10.2748 168.311 11.0225C167.871 11.6734 167.387 12.6147 167.387 12.6147Z" fill="#F2F2F2"/>
<g opacity="0.6" style="mix-blend-mode:hard-light">
<path d="M155.143 27.726C155.143 37.9298 163.42 46.2071 173.624 46.2071C180.661 46.2071 186.784 42.2664 189.906 36.4696C186.766 39.1612 182.676 40.7974 178.198 40.7974C168.294 40.7974 160.263 32.8103 160.263 22.9584C160.263 18.7538 161.732 14.8922 164.177 11.8398C158.767 15.0681 155.143 20.9704 155.143 27.726Z" fill="#696969"/>
</g>
</g>
<path fill-rule="evenodd" clip-rule="evenodd" d="M192.419 137.277C202.661 134.903 212.888 141.282 215.261 151.524C217.634 161.765 211.256 171.992 201.014 174.365C190.772 176.739 180.546 170.36 178.172 160.118C175.799 149.877 182.178 139.65 192.419 137.277ZM194.568 146.549C193.608 146.771 193.01 147.73 193.232 148.69L194.575 154.485L188.78 155.828C187.82 156.051 187.222 157.01 187.445 157.97C187.667 158.93 188.626 159.528 189.586 159.305L195.381 157.962L196.724 163.758C196.947 164.718 197.905 165.316 198.865 165.093C199.826 164.871 200.424 163.912 200.201 162.952L198.858 157.157L204.653 155.814C205.613 155.591 206.211 154.632 205.989 153.672C205.766 152.712 204.808 152.114 203.847 152.337L198.052 153.68L196.709 147.885C196.487 146.924 195.528 146.326 194.568 146.549Z" fill="url(#paint16_linear_5533_214369)"/>
<rect x="0.657025" y="1.65392" width="105.798" height="96.41" rx="11.9" transform="rotate(-0.192678 0.657025 1.65392)" stroke="#EADDFF" stroke-width="1.4"/>
<circle cx="53.6423" cy="50.3729" r="25.5331" transform="rotate(-0.192678 53.6423 50.3729)" stroke="#D7D8E3" stroke-width="11.3481"/>
<path d="M35.2959 67.537L39.5373 63.768V63.768L35.2959 67.537ZM72.8913 43.3508C71.7495 40.4325 73.1896 37.1412 76.1079 35.9994C79.0261 34.8576 82.3174 36.2977 83.4592 39.2159L78.1753 41.2833L72.8913 43.3508ZM54.4747 76.1166L54.4556 70.4427C65.4234 70.4058 74.2847 61.4847 74.2478 50.5169L79.9218 50.4978L85.5958 50.4787C85.6538 67.7139 71.7289 81.7327 54.4938 81.7906L54.4747 76.1166ZM54.303 25.0507L54.322 30.7247C43.3542 30.7616 34.493 39.6827 34.5299 50.6505L28.8559 50.6695L23.1819 50.6886C23.1239 33.4535 37.0488 19.4347 54.2839 19.3767L54.303 25.0507ZM28.8559 50.6695L34.5299 50.6505C34.5468 55.6908 36.4326 60.2742 39.5373 63.768L35.2959 67.537L31.0545 71.306C26.1835 65.8245 23.2085 58.5992 23.1819 50.6886L28.8559 50.6695ZM35.2959 67.537L39.5373 63.768C43.1984 67.888 48.5251 70.4626 54.4556 70.4427L54.4747 76.1166L54.4938 81.7906C45.1723 81.822 36.7862 77.7561 31.0545 71.306L35.2959 67.537ZM79.9218 50.4978L74.2478 50.5169C74.2393 47.9779 73.7575 45.5645 72.8913 43.3508L78.1753 41.2833L83.4592 39.2159C84.8281 42.7145 85.5825 46.5155 85.5958 50.4787L79.9218 50.4978Z" fill="url(#paint17_linear_5533_214369)"/>
<path d="M49.6554 42.8679C49.8568 42.8672 50.0786 42.874 50.3186 42.8911L50.5218 42.9148C51.5255 43.0819 52.2968 43.9435 52.3003 44.9918L52.3321 54.441C52.3355 55.4627 51.6096 56.3451 50.6115 56.5259L50.4085 56.553C50.1848 56.5716 49.9484 56.5828 49.7016 56.5836C49.5001 56.5843 49.2776 56.5776 49.0374 56.5605L49.0374 56.5595C47.9368 56.4819 47.0605 55.5776 47.0567 54.4597L47.0249 45.0106C47.0213 43.921 47.8468 42.9903 48.9475 42.8996L48.9475 42.8986C49.1715 42.8799 49.4084 42.8687 49.6554 42.8679ZM58.0958 42.8395C58.2973 42.8388 58.5198 42.8456 58.76 42.8627L58.759 42.8637C59.86 42.9409 60.7369 43.8453 60.7407 44.9635L60.7725 54.4126C60.7761 55.5025 59.9501 56.4333 58.8489 56.5236C58.6251 56.5422 58.3888 56.5544 58.1419 56.5553C58.0412 56.5556 57.9353 56.5542 57.8245 56.5505L57.4788 56.5321C56.3778 56.4548 55.5009 55.5494 55.4971 54.4313L55.4653 44.9822C55.4617 43.8927 56.2873 42.962 57.3879 42.8712L57.3879 42.8702C57.6118 42.8516 57.8488 42.8404 58.0958 42.8395Z" fill="#584A7D" stroke="white" stroke-width="1.05509"/>
<rect x="0.657025" y="112.654" width="105.798" height="93.8" rx="11.9" transform="rotate(-0.192678 0.657025 112.654)" stroke="#EADDFF" stroke-width="1.4"/>
<path d="M19.5625 156.592C19.5625 148.78 19.5625 144.875 20.4212 141.67C22.7513 132.974 29.5439 126.181 38.2403 123.851C41.4449 122.992 45.3507 122.992 53.1625 122.992C60.9743 122.992 64.8801 122.992 68.0847 123.851C76.7811 126.181 83.5737 132.974 85.9038 141.67C86.7625 144.875 86.7625 148.78 86.7625 156.592C86.7625 164.404 86.7625 168.31 85.9038 171.514C83.5737 180.211 76.7811 187.003 68.0847 189.334C64.8801 190.192 60.9743 190.192 53.1625 190.192C45.3507 190.192 41.4449 190.192 38.2403 189.334C29.5439 187.003 22.7513 180.211 20.4212 171.514C19.5625 168.31 19.5625 164.404 19.5625 156.592Z" fill="url(#paint18_linear_5533_214369)"/>
<path d="M64.2847 156.584C64.272 153.395 61.6772 150.819 58.4882 150.832C55.299 150.844 52.7235 153.44 52.7361 156.63C52.749 159.819 55.3449 162.393 58.534 162.38L58.5414 164.242L58.1476 164.234C54.2421 164.052 51.0985 160.933 50.8852 157.029L50.874 156.637C50.8573 152.419 54.2632 148.986 58.4808 148.97L58.8732 148.978C62.909 149.166 66.1306 152.491 66.1468 156.576L66.1388 156.969C65.9503 161.005 62.627 164.226 58.5414 164.242L58.534 162.38C61.7229 162.367 64.2971 159.773 64.2847 156.584Z" fill="#0A7F9F"/>
<path d="M57.5024 145.769L57.4881 142.146C57.486 141.632 57.9012 141.213 58.4154 141.211C58.9296 141.209 59.3481 141.624 59.3502 142.139L59.3645 145.762C59.3666 146.276 58.9514 146.694 58.4372 146.696C57.923 146.698 57.5045 146.283 57.5024 145.769Z" fill="#0A7F9F"/>
<path d="M69.0397 155.471L72.6627 155.457C73.1769 155.455 73.5954 155.87 73.5974 156.384C73.5995 156.898 73.1843 157.317 72.6701 157.319L69.0471 157.333C68.5329 157.335 68.1144 156.92 68.1123 156.406C68.1103 155.892 68.5255 155.473 69.0397 155.471Z" fill="#0A7F9F"/>
<path d="M47.7406 165.942L50.2923 163.37L51.6142 164.682L49.0625 167.254L47.7406 165.942Z" fill="#0A7F9F"/>
<path d="M66.7358 163.324L69.3078 165.876C69.6728 166.238 69.6751 166.827 69.313 167.192C68.9509 167.557 68.3613 167.56 67.9963 167.197L65.4243 164.646C65.0593 164.284 65.0569 163.694 65.4191 163.329C65.7812 162.964 66.3707 162.962 66.7358 163.324Z" fill="#0A7F9F"/>
<path d="M59.4402 167.137L59.4546 170.76L57.5925 170.768L57.5781 167.145L59.4402 167.137Z" fill="#0A7F9F"/>
<path d="M47.773 157.413L44.15 157.427L44.1426 155.565L47.7656 155.551L47.773 157.413Z" fill="#0A7F9F"/>
<path d="M69.2231 146.935L66.6714 149.507C66.3092 149.872 65.7197 149.874 65.3547 149.512C64.9896 149.15 64.9873 148.561 65.3494 148.196L67.9011 145.624C68.2633 145.258 68.8528 145.256 69.2178 145.618C69.5829 145.98 69.5852 146.57 69.2231 146.935Z" fill="#0A7F9F"/>
<path d="M48.9701 145.714L51.5422 148.266C51.9072 148.628 51.9095 149.218 51.5474 149.583C51.1853 149.948 50.5957 149.95 50.2307 149.588L47.6587 147.036C47.2936 146.674 47.2913 146.085 47.6534 145.72C48.0156 145.355 48.6051 145.352 48.9701 145.714Z" fill="#0A7F9F"/>
<path d="M46.8902 150.52C51.8492 150.52 55.921 154.307 56.3744 159.148C56.7965 159.066 57.2327 159.023 57.6787 159.023C61.4442 159.024 64.4969 162.076 64.4969 165.842C64.4967 169.607 61.4441 172.66 57.6787 172.66C57.6619 172.66 57.6449 172.659 57.6281 172.658L39.8451 172.658C39.827 172.659 39.8086 172.66 39.7904 172.66C39.7722 172.66 39.754 172.659 39.7357 172.658L39.4773 172.658L39.4773 172.652C35.484 172.487 32.2969 169.199 32.2969 165.165C32.2971 161.795 34.5217 158.945 37.5824 158.002C38.5186 153.723 42.3299 150.52 46.8902 150.52Z" fill="white"/>
<path d="M46.8902 150.52C51.8492 150.52 55.921 154.307 56.3744 159.148C56.7965 159.066 57.2327 159.023 57.6787 159.023C61.4442 159.024 64.4969 162.076 64.4969 165.842C64.4967 169.607 61.4441 172.66 57.6787 172.66C57.6619 172.66 57.6449 172.659 57.6281 172.658L39.8451 172.658C39.827 172.659 39.8086 172.66 39.7904 172.66C39.7722 172.66 39.754 172.659 39.7357 172.658L39.4773 172.658L39.4773 172.652C35.484 172.487 32.2969 169.199 32.2969 165.165C32.2971 161.795 34.5217 158.945 37.5824 158.002C38.5186 153.723 42.3299 150.52 46.8902 150.52Z" fill="url(#paint19_linear_5533_214369)"/>
<path d="M32.2969 165.165C32.2971 161.795 34.5217 158.945 37.5824 158.002C38.5186 153.723 42.3299 150.52 46.8902 150.52C51.8492 150.52 55.921 154.307 56.3744 159.148C56.7965 159.066 57.2327 159.023 57.6787 159.023C61.4442 159.024 64.4969 162.076 64.4969 165.842C64.4967 169.607 61.4441 172.66 57.6787 172.66C57.6619 172.66 57.6449 172.659 57.6281 172.658L39.8451 172.658C39.827 172.659 39.8086 172.66 39.7904 172.66C39.7722 172.66 39.754 172.659 39.7357 172.658L39.4773 172.658L39.4773 172.652C35.484 172.487 32.2969 169.199 32.2969 165.165ZM34.159 165.165C34.159 168.196 36.5539 170.667 39.5539 170.791C39.5745 170.792 39.595 170.795 39.6154 170.796L57.6883 170.796C60.3357 170.791 62.4955 168.712 62.6279 166.096L62.6348 165.842C62.6348 163.19 60.5521 161.025 57.933 160.892L57.6787 160.886C57.3517 160.886 57.034 160.917 56.7285 160.976C56.2126 161.076 55.678 160.953 55.2574 160.638C54.837 160.323 54.5695 159.845 54.5205 159.321C54.1672 155.55 51.0807 152.572 47.2621 152.39L46.8902 152.382C43.2234 152.382 40.1539 154.957 39.4008 158.4C39.2573 159.056 38.7724 159.585 38.1307 159.782C35.829 160.491 34.1593 162.635 34.159 165.165Z" fill="#0A7F9F"/>
<defs>
<linearGradient id="paint0_linear_5533_214369" x1="225.462" y1="50.2788" x2="172.573" y2="152.273" gradientUnits="userSpaceOnUse">
<stop offset="0.19" stop-color="#FFBB0D"/>
<stop offset="0.26" stop-color="#FDB00B"/>
<stop offset="0.37" stop-color="#F99308"/>
<stop offset="0.52" stop-color="#F36502"/>
<stop offset="0.58" stop-color="#F14F00"/>
<stop offset="0.64" stop-color="#F0430F"/>
<stop offset="0.75" stop-color="#EE2536"/>
<stop offset="0.78" stop-color="#EE1D42"/>
</linearGradient>
<linearGradient id="paint1_linear_5533_214369" x1="219.332" y1="80.5426" x2="219.809" y2="118.675" gradientUnits="userSpaceOnUse">
<stop stop-color="#FDD500"/>
<stop offset="0.68" stop-color="#F89000" stop-opacity="0"/>
</linearGradient>
<linearGradient id="paint2_linear_5533_214369" x1="145.9" y1="13.0917" x2="177.171" y2="144.392" gradientUnits="userSpaceOnUse">
<stop offset="0.08" stop-color="#F14F00"/>
<stop offset="0.15" stop-color="#F25C00"/>
<stop offset="0.28" stop-color="#F68101"/>
<stop offset="0.37" stop-color="#FA9F03"/>
<stop offset="0.45" stop-color="#F99B02"/>
<stop offset="0.54" stop-color="#F88F02"/>
<stop offset="0.62" stop-color="#F57B01"/>
<stop offset="0.71" stop-color="#F25F00"/>
<stop offset="0.75" stop-color="#F14F00"/>
<stop offset="0.76" stop-color="#F0450C"/>
<stop offset="0.82" stop-color="#EE2C2E"/>
<stop offset="0.87" stop-color="#ED1947"/>
<stop offset="0.92" stop-color="#ED0E55"/>
<stop offset="0.96" stop-color="#ED0B5B"/>
</linearGradient>
<radialGradient id="paint3_radial_5533_214369" cx="0" cy="0" r="1" gradientUnits="userSpaceOnUse" gradientTransform="translate(127.511 121.861) scale(54.1689 44.986)">
<stop stop-color="#FBA501"/>
<stop offset="0.69" stop-color="#FBA501" stop-opacity="0"/>
</radialGradient>
<linearGradient id="paint4_linear_5533_214369" x1="155.953" y1="43.2401" x2="175.761" y2="104.168" gradientUnits="userSpaceOnUse">
<stop offset="0.14" stop-color="#FDE625"/>
<stop offset="0.36" stop-color="#FBA501" stop-opacity="0.6"/>
<stop offset="0.53" stop-color="#F57800" stop-opacity="0.28"/>
<stop offset="0.79" stop-color="#F14F00" stop-opacity="0"/>
</linearGradient>
<linearGradient id="paint5_linear_5533_214369" x1="172.3" y1="81.3902" x2="171.209" y2="168.751" gradientUnits="userSpaceOnUse">
<stop offset="0.12" stop-color="#FDE625"/>
<stop offset="0.16" stop-color="#FCE223" stop-opacity="0.98"/>
<stop offset="0.21" stop-color="#FCD91E" stop-opacity="0.92"/>
<stop offset="0.27" stop-color="#FCCA15" stop-opacity="0.83"/>
<stop offset="0.33" stop-color="#FBB50A" stop-opacity="0.7"/>
<stop offset="0.38" stop-color="#FBA501" stop-opacity="0.6"/>
<stop offset="0.61" stop-color="#FBA501" stop-opacity="0.28"/>
<stop offset="1" stop-color="#F14F00" stop-opacity="0"/>
</linearGradient>
<linearGradient id="paint6_linear_5533_214369" x1="164.468" y1="75.8516" x2="163.227" y2="175.215" gradientUnits="userSpaceOnUse">
<stop offset="0.15" stop-color="#FA9F03" stop-opacity="0"/>
<stop offset="0.19" stop-color="#F99702" stop-opacity="0.09"/>
<stop offset="0.28" stop-color="#F78502" stop-opacity="0.32"/>
<stop offset="0.41" stop-color="#F36700" stop-opacity="0.69"/>
<stop offset="0.51" stop-color="#F14F00"/>
<stop offset="1" stop-color="#ED0B5B"/>
</linearGradient>
<linearGradient id="paint7_linear_5533_214369" x1="154.084" y1="39.9417" x2="156.726" y2="49.0516" gradientUnits="userSpaceOnUse">
<stop offset="0.16" stop-color="#8E3499"/>
<stop offset="0.88" stop-color="#0B1339"/>
</linearGradient>
<linearGradient id="paint8_linear_5533_214369" x1="170.179" y1="34.587" x2="172.82" y2="43.6969" gradientUnits="userSpaceOnUse">
<stop offset="0.16" stop-color="#8E3499"/>
<stop offset="0.88" stop-color="#0B1339"/>
</linearGradient>
<linearGradient id="paint9_linear_5533_214369" x1="181.307" y1="16.766" x2="179.488" y2="162.294" gradientUnits="userSpaceOnUse">
<stop offset="0.52" stop-color="#FA9F03" stop-opacity="0"/>
<stop offset="0.56" stop-color="#F99702" stop-opacity="0.09"/>
<stop offset="0.64" stop-color="#F78502" stop-opacity="0.32"/>
<stop offset="0.75" stop-color="#F36700" stop-opacity="0.69"/>
<stop offset="0.83" stop-color="#F14F00"/>
<stop offset="1" stop-color="#ED0B5B"/>
</linearGradient>
<linearGradient id="paint10_linear_5533_214369" x1="192.062" y1="23.04" x2="186.055" y2="23.04" gradientUnits="userSpaceOnUse">
<stop offset="0.16" stop-color="#A030B9"/>
<stop offset="0.88" stop-color="#00073A"/>
</linearGradient>
<linearGradient id="paint11_linear_5533_214369" x1="161.203" y1="23.0479" x2="155.204" y2="23.0479" gradientUnits="userSpaceOnUse">
<stop offset="0.16" stop-color="#A030B9"/>
<stop offset="0.88" stop-color="#00073A"/>
</linearGradient>
<linearGradient id="paint12_linear_5533_214369" x1="179.875" y1="11.9466" x2="167.393" y2="11.9466" gradientUnits="userSpaceOnUse">
<stop offset="0.16" stop-color="#A030B9"/>
<stop offset="0.88" stop-color="#00073A"/>
</linearGradient>
<linearGradient id="paint13_linear_5533_214369" x1="187.781" y1="40.569" x2="177.446" y2="40.569" gradientUnits="userSpaceOnUse">
<stop offset="0.16" stop-color="#A030B9"/>
<stop offset="0.88" stop-color="#00073A"/>
</linearGradient>
<linearGradient id="paint14_linear_5533_214369" x1="169.788" y1="40.5524" x2="159.452" y2="40.5524" gradientUnits="userSpaceOnUse">
<stop offset="0.16" stop-color="#A030B9"/>
<stop offset="0.88" stop-color="#00073A"/>
</linearGradient>
<linearGradient id="paint15_linear_5533_214369" x1="179.812" y1="27.1817" x2="167.427" y2="27.1817" gradientUnits="userSpaceOnUse">
<stop offset="0.16" stop-color="#A030B9"/>
<stop offset="0.88" stop-color="#00073A"/>
</linearGradient>
<linearGradient id="paint16_linear_5533_214369" x1="173.069" y1="138.097" x2="201.014" y2="174.365" gradientUnits="userSpaceOnUse">
<stop stop-color="#EADDFF"/>
<stop offset="1" stop-color="#9871FF"/>
</linearGradient>
<linearGradient id="paint17_linear_5533_214369" x1="54.303" y1="25.0507" x2="95.3515" y2="69.1106" gradientUnits="userSpaceOnUse">
<stop stop-color="#FFC35B"/>
<stop offset="0.423077" stop-color="#FF7B42"/>
<stop offset="1" stop-color="#FE6928"/>
</linearGradient>
<linearGradient id="paint18_linear_5533_214369" x1="75.7915" y1="138.307" x2="27.4073" y2="191.692" gradientUnits="userSpaceOnUse">
<stop stop-color="#C3EEF8"/>
<stop offset="1" stop-color="#EADDFF"/>
</linearGradient>
<linearGradient id="paint19_linear_5533_214369" x1="59.24" y1="155.565" x2="44.8601" y2="178.641" gradientUnits="userSpaceOnUse">
<stop stop-color="#C3EEF8"/>
<stop offset="1" stop-color="#EADDFF"/>
</linearGradient>
</defs>
</svg>
