<!-- This Source Code Form is subject to the terms of the Mozilla Public
   - License, v. 2.0. If a copy of the MPL was not distributed with this
   - file, You can obtain one at http://mozilla.org/MPL/2.0/. -->
<svg xmlns="http://www.w3.org/2000/svg" viewBox="0 0 16 16" width="16" height="16" fill="context-fill" fill-opacity="context-fill-opacity">
<style>
.nova { display: none; }

@media -moz-pref("browser.nova.enabled") {
  .proton { display: none; }
  .nova { display: revert; }
}
</style>
<g class="proton">
  <path d="m11 4.149 0 4.181 1.775 1.775c.3-.641.475-1.35.475-2.105a4.981 4.981 0 0 0-1.818-3.851l-.432 0z"/>
  <path d="M2.067 1.183a.626.626 0 0 0-.885.885L4.115 5 2 5a2 2 0 0 0-2 2l0 2a2 2 0 0 0 2 2l2.117 0 3.128 3.65C7.848 15.353 9 14.927 9 14l0-4.116 3.317 3.317c-.273.232-.56.45-.873.636a.624.624 0 0 0-.218.856.621.621 0 0 0 .856.219 7.58 7.58 0 0 0 1.122-.823l.729.729a.626.626 0 0 0 .884-.886L2.067 1.183z"/>
  <path d="M9 2c0-.926-1.152-1.352-1.755-.649L5.757 3.087 9 6.33 9 2z"/>
  <path d="M11.341 2.169a6.767 6.767 0 0 1 3.409 5.864 6.732 6.732 0 0 1-.83 3.217l.912.912A7.992 7.992 0 0 0 16 8.033a8.018 8.018 0 0 0-4.04-6.95.625.625 0 0 0-.619 1.086z"/>
</g>
<g class="nova">
  <path d="M4.896 2.16C5.756.693 8 1.303 8 3.002v9.994c0 1.699-2.243 2.309-3.104.844l-1.68-2.86c-.122.004-.269.02-.384.02-.468 0-.91-.025-1.318-.065A1.67 1.67 0 0 1 0 9.272V6.726c0-.841.627-1.571 1.464-1.658.503-.05.963-.068 1.368-.068.134 0 .259.008.389.012zm9.824 2.809a.75.75 0 0 1 1.061 1.06L13.811 8l1.97 1.97a.75.75 0 1 1-1.061 1.06l-1.97-1.97-1.969 1.97A.75.75 0 1 1 9.72 9.97L11.69 8 9.72 6.03a.75.75 0 0 1 1.061-1.06l1.969 1.969z" />
</g>
</svg>
