<!-- This Source Code Form is subject to the terms of the Mozilla Public
  - License, v. 2.0. If a copy of the MPL was not distributed with this
  - file, You can obtain one at http://mozilla.org/MPL/2.0/.-->
<svg width="16" height="16" viewBox="0 0 16 16" fill="context-fill" fill-opacity="context-fill-opacity" xmlns="http://www.w3.org/2000/svg">
<style>
.nova { display: none; }

@media -moz-pref("browser.nova.enabled") {
  .proton { display: none; }
  .nova { display: revert; }
}
</style>
<g class="proton">
  <path fill-rule="evenodd" clip-rule="evenodd" d="m13.15 2.25.6.6v7.3l-.6.6h-1.9c-.28 0-.5.22-.5.5v2.15l-3.04-2.43c-.18-.14-.4-.22-.62-.22H2.85l-.6-.6v-7.3l.6-.6h10.3ZM13 1H3c-1.1 0-2 .9-2 2v7c0 1.1.9 2 2 2h4l3.75 3H12v-3h1c1.1 0 2-.9 2-2V3c0-1.1-.9-2-2-2ZM6.27 7.73H4.86a.62.62 0 0 0-.62.62v.01c0 .342.278.62.62.62h1.41a.62.62 0 0 0 .62-.62v-.01a.62.62 0 0 0-.62-.62Zm2.24 0h2.63a.62.62 0 0 1 .62.62v.01a.62.62 0 0 1-.62.62H8.51a.62.62 0 0 1-.62-.62v-.01a.62.62 0 0 1 .62-.62Zm2.63-2.75H9.73a.62.62 0 0 0-.62.62v.01c0 .342.278.62.62.62h1.41a.62.62 0 0 0 .62-.62V5.6a.62.62 0 0 0-.62-.62Zm-6.28 0h2.63a.62.62 0 0 1 .62.62v.01a.62.62 0 0 1-.62.62H4.86a.62.62 0 0 1-.62-.62V5.6a.62.62 0 0 1 .62-.62Z"/>
</g>
<g class="nova">
  <path d="M9.5 7a.75.75 0 0 1 0 1.5H4.25a.75.75 0 0 1 0-1.5zm2.25-3.5a.75.75 0 0 1 0 1.5h-7.5a.75.75 0 0 1 0-1.5z" />
  <path fill-rule="evenodd" d="M8 0c1.455 0 3.056.059 4.777.213l.746.072.258.04A2.76 2.76 0 0 1 16 3.025v5.948c0 1.4-1.049 2.59-2.454 2.737q-.27.026-.546.05v1.486c0 1.533-1.83 2.324-2.947 1.276l-2.699-2.534a53 53 0 0 1-4.876-.275A2.76 2.76 0 0 1 0 8.974V3.025C0 1.625 1.049.435 2.454.288A54 54 0 0 1 8 0m0 1.5c-1.946 0-3.75.11-5.39.28A1.246 1.246 0 0 0 1.5 3.025v5.949c0 .639.49 1.181 1.133 1.248 1.363.14 2.648.219 3.852.253l1.176.02.14.014a.75.75 0 0 1 .369.19l2.91 2.73a.25.25 0 0 0 .42-.182v-2.17c0-.391.3-.717.69-.748q.614-.049 1.2-.11l.116-.018c.57-.115.994-.623.994-1.227V3.026c0-.64-.49-1.182-1.133-1.249A52 52 0 0 0 8 1.5" clip-rule="evenodd" />
</g>
</svg>
