<!-- This Source Code Form is subject to the terms of the Mozilla Public
   - License, v. 2.0. If a copy of the MPL was not distributed with this
   - file, You can obtain one at http://mozilla.org/MPL/2.0/. -->
<svg xmlns="http://www.w3.org/2000/svg" viewBox="0 0 16 16" width="16" height="16" fill="context-fill" fill-opacity="context-fill-opacity">
<style>
.nova { display: none; }

@media -moz-pref("browser.nova.enabled") {
  .proton { display: none; }
  .nova { display: revert; }
}
</style>
<g class="proton">
  <path d="M8.125 15a.625.625 0 0 0 0-1.25l-6.275 0-.6-.6 0-9.3.6-.6 10.3 0 .6.6 0 4.275a.625.625 0 0 0 1.25 0L14 4a2 2 0 0 0-2-2L2 2a2 2 0 0 0-2 2l0 9a2 2 0 0 0 2 2l6.125 0z"/>
  <path d="m11.286 12.17-.75.75a.314.314 0 0 1-.536-.223l0-2.509.189-.188 2.509 0c.28 0 .42.338.222.536l-.75.75 2.652 2.652a.618.618 0 0 1 .11.718.496.496 0 0 1-.276.276.618.618 0 0 1-.718-.11l-2.652-2.652z"/>
  <path d="M8 5 4 5a1 1 0 0 0-1 1l0 3a1 1 0 0 0 1 1l4 0a1 1 0 0 0 1-1l0-3a1 1 0 0 0-1-1z"/>
</g>
<g class="nova">
  <path d="M14.12 10a.48.48 0 0 1 .339.819l-1.4 1.399 2.72 2.572a.683.683 0 0 1 0 1.003.77.77 0 0 1-.53.208.77.77 0 0 1-.53-.208l-2.69-2.545-1.209 1.21a.48.48 0 0 1-.819-.34V10.48a.48.48 0 0 1 .48-.48z" />
  <path d="M2.415.263A40.3 40.3 0 0 1 11.562.26 2.753 2.753 0 0 1 14 2.997V8.5h-1.5V2.997c0-.638-.476-1.174-1.11-1.246a38.6 38.6 0 0 0-8.804.002A1.24 1.24 0 0 0 1.5 2.993v8.01c0 .638.476 1.174 1.11 1.246a39 39 0 0 0 5.89.207v1.501C8 13.977 7.499 14 7 14c-1.52 0-3.054-.089-4.562-.262A2.75 2.75 0 0 1 0 11.003v-8.01A2.74 2.74 0 0 1 2.415.263" />
  <path d="M8 3a1 1 0 0 1 1 1v3a1 1 0 0 1-1 1H4a1 1 0 0 1-1-1V4a1 1 0 0 1 1-1z" />
</g>
</svg>
