<!-- This Source Code Form is subject to the terms of the Mozilla Public
   - License, v. 2.0. If a copy of the MPL was not distributed with this
   - file, You can obtain one at http://mozilla.org/MPL/2.0/. -->
<svg width="16" height="16" fill="context-fill" fill-opacity="context-fill-opacity" xmlns="http://www.w3.org/2000/svg">
<style>
.nova { display: none; }

@media -moz-pref("browser.nova.enabled") {
  .proton { display: none; }
  .nova { display: revert; }
}
</style>
<g class="proton"><path fill-rule="evenodd" clip-rule="evenodd" d="M5.287 10.502c.004-.173.034-.34.075-.502H1.604c-.057 0-.104-.043-.104-.097V5.101l4.03 3.234a.753.753 0 0 0 .94 0l4.03-3.234v3.822c.264.158.516.338.749.547.233-.21.486-.39.751-.548V4.097c0-.881-.72-1.597-1.604-1.597H1.604C.72 2.5 0 3.216 0 4.097v5.807c0 .88.72 1.596 1.604 1.596h3.659a6.301 6.301 0 0 1 .024-.998zM6 6.788 2.525 4h6.95L6 6.788z"/><path fill-rule="evenodd" clip-rule="evenodd" d="M15.205 9.59c.46.104.778.53.754 1.006.124.477-.064 2.202-.166 2.475-.206 1.101-1.094 1.93-2.158 1.93a2.06 2.06 0 0 1-1.308-.483v.002l-.348-.292a1.146 1.146 0 0 0-1.491.012l-.232.201c-.38.344-.861.56-1.393.56-1.065 0-1.952-.829-2.16-1.929-.102-.273-.283-2.006-.166-2.475v-.003a.982.982 0 0 1 .755-1.004 3.494 3.494 0 0 1 3.186.87l.143.135a.915.915 0 0 0 1.255 0l.146-.138a3.494 3.494 0 0 1 3.183-.868zM9.97 11.693c.081.06.154.127.219.201a.43.43 0 0 1 0 .554c-.093.107-.204.2-.33.276-.22.132-.485.209-.769.209-.446 0-.843-.19-1.099-.485a.432.432 0 0 1 0-.554 1.451 1.451 0 0 1 1.099-.485c.334 0 .64.106.88.284zm4.505.751a1.44 1.44 0 0 1-1.088.477c-.442 0-.834-.187-1.088-.477a.42.42 0 0 1 0-.544 1.44 1.44 0 0 1 1.088-.477c.442 0 .834.187 1.088.477a.42.42 0 0 1 0 .544z"/></g>
<g class="nova">
  <path fill-rule="evenodd" d="M12.27 9.184c.525-1.053.931-1.303 1.392-1.207.405.083.65.81.784 1.127.26.616.48 1.233.607 1.886.087.45.32.782.778.783l.003.001a.17.17 0 0 1 .155.23c-.098.263-.399.43-.65.526.114.03.451-.037.465.131.01.138-.34.276-.435.322-.886.427-1.703 1.193-2.752 1.058-.456-.06-.789-.38-1.162-.58a.6.6 0 0 0-.566 0c-.374.2-.706.52-1.162.58-1.05.135-1.866-.63-2.752-1.058-.096-.044-.447-.184-.435-.322.015-.17.352-.101.465-.13-.252-.097-.553-.264-.65-.526a.17.17 0 0 1 .155-.23c.459-.002.69-.332.778-.783.127-.654.346-1.27.607-1.887.134-.315.38-1.043.784-1.126.46-.096.868.151 1.392 1.206.432.867.725 1.474.725 1.474v.006l.296-.003.008-.002h.149l.296.003v-.006s.293-.605.725-1.473m-1.712 3.38c-.214-.685-1.092-.945-1.754-.835-.112.018-.418.127-.405.268V12c.299.738 1.55 1.12 2.159.566m2.977-.835c-.662-.11-1.54.149-1.754.834.608.556 1.86.172 2.16-.566.012-.141-.295-.25-.406-.268" clip-rule="evenodd" />
  <path fill-rule="evenodd" d="M6.397 1.337q.23 0 .457.004l.33.01.538.017.286.015q.267.011.534.027.288.02.575.042l.265.02h.005l.026.002A2.813 2.813 0 0 1 12 4.302v2.974c-.585.776-.83 1.146-.83 1.146-.005-.01-.237-.412-.838-1.164v-2.97l-2.12 2.12a3.18 3.18 0 0 1-2.248.924A3.15 3.15 0 0 1 3.9 6.57c-.446-.384-1.364-1.266-2.232-2.108v3.24L1.665 7.7c.003.603.48 1.115 1.089 1.164.9.074 1.803.111 2.704.12h1.049c-.208.523-.423 1.127-.545 1.676a41 41 0 0 1-3.344-.134C1.15 10.405 0 9.162 0 7.696V4.301a2.813 2.813 0 0 1 2.587-2.828l.025-.002h.006l.264-.02q.287-.022.575-.042l.534-.027.286-.015q.269-.01.536-.016.165-.007.332-.011.228-.003.457-.004.183-.003.367-.004h.062q.184.001.366.004M6 2.999c-1.023 0-2.063.04-3.093.122l-.156.012q-.028.002-.056.007c.897.872 1.86 1.796 2.291 2.168a1.51 1.51 0 0 0 2.045-.08l2.103-2.104-.043-.003A40 40 0 0 0 6 3" clip-rule="evenodd" />
</g>
</svg>