<!-- This Source Code Form is subject to the terms of the Mozilla Public
   - License, v. 2.0. If a copy of the MPL was not distributed with this
   - file, You can obtain one at http://mozilla.org/MPL/2.0/. -->
<svg width="401" height="205" viewBox="0 0 401 205" fill="none" xmlns="http://www.w3.org/2000/svg">
<rect width="401" height="205" rx="10.9333" fill="white"/>
<rect x="10" y="10" width="120" height="87" rx="10" fill="#FAD4FF"/>
<rect x="269" y="107" width="120" height="87" rx="10" fill="#FAD4FF"/>
<rect x="140" y="10" width="120" height="145" rx="10" fill="#2E0957"/>
<rect x="270" y="10" width="120" height="87" rx="10" fill="#E4D7FC"/>
<rect x="10" y="107" width="120" height="88" rx="10" fill="#E4D7FC"/>
<g clip-path="url(#clip0_987_6229)">
<path d="M68.1487 147.377H24.0224C22.9119 147.377 22.0117 148.294 22.0117 149.425V180.855C22.0117 181.986 22.9119 182.902 24.0224 182.902H68.1487C69.2591 182.902 70.1593 181.986 70.1593 180.855V149.425C70.1593 148.294 69.2591 147.377 68.1487 147.377Z" fill="#C348F6"/>
<path d="M46.0859 159.958L22.0121 180.293C21.897 181.736 22.6076 182.902 24.0227 182.902H68.1499C69.565 182.902 70.3358 181.679 70.1605 180.293L46.0867 159.958H46.0859Z" fill="#A541F5"/>
<path d="M44.4498 168.562L22.0117 149.61C22.0117 148.169 23.1592 147 24.5734 147H67.5967C69.0119 147 70.1593 148.169 70.1593 149.61L47.7212 168.563C46.7726 169.364 45.3984 169.364 44.4498 168.563V168.562Z" fill="#E455F5"/>
</g>
<g clip-path="url(#clip1_987_6229)">
<path d="M104.747 28.6025H34.2316C32.4571 28.6025 31.0186 30.0675 31.0186 31.8746V82.1013C31.0186 83.9085 32.4571 85.3735 34.2316 85.3735H104.747C106.521 85.3735 107.96 83.9085 107.96 82.1013V31.8746C107.96 30.0675 106.521 28.6025 104.747 28.6025Z" fill="#C348F6"/>
<path d="M69.49 48.707L31.0193 81.2025C30.8354 83.5097 31.971 85.3728 34.2324 85.3728H104.749C107.01 85.3728 108.242 83.4175 107.962 81.2025L69.4914 48.707H69.49Z" fill="#A541F5"/>
<path d="M66.8753 62.4564L31.0186 32.1703C31.0186 29.8673 32.8522 28 35.1123 28H103.865C106.126 28 107.96 29.8673 107.96 32.1703L72.1032 62.4579C70.5873 63.7378 68.3913 63.7378 66.8753 62.4579V62.4564Z" fill="#E455F5"/>
</g>
<g clip-path="url(#clip2_987_6229)">
<path d="M363.747 122.603H293.232C291.457 122.603 290.019 124.068 290.019 125.875V176.101C290.019 177.908 291.457 179.373 293.232 179.373H363.747C365.521 179.373 366.96 177.908 366.96 176.101V125.875C366.96 124.068 365.521 122.603 363.747 122.603Z" fill="#C348F6"/>
<path d="M328.49 142.707L290.019 175.202C289.835 177.51 290.971 179.373 293.232 179.373H363.749C366.01 179.373 367.242 177.417 366.962 175.202L328.491 142.707H328.49Z" fill="#A541F5"/>
<path d="M325.875 156.456L290.019 126.17C290.019 123.867 291.852 122 294.112 122H362.865C365.126 122 366.96 123.867 366.96 126.17L331.103 156.458C329.587 157.738 327.391 157.738 325.875 156.458V156.456Z" fill="#E455F5"/>
</g>
<g clip-path="url(#clip3_987_6229)">
<path d="M249.054 61.4463H151.474C149.018 61.4463 147.027 63.4218 147.027 65.8586V133.588C147.027 136.025 149.018 138 151.474 138H249.054C251.509 138 253.5 136.025 253.5 133.588V65.8586C253.5 63.4218 251.509 61.4463 249.054 61.4463Z" fill="url(#paint0_linear_987_6229)"/>
<path d="M200.264 88.5595L147.028 132.377C146.773 135.488 148.345 138 151.474 138H249.056C252.185 138 253.89 135.364 253.502 132.377L200.266 88.5576L200.264 88.5595Z" fill="url(#paint1_linear_987_6229)"/>
<path d="M246.435 133.025L200.68 95.3653C200.53 95.2429 200.372 95.2161 200.264 95.2161C200.156 95.2161 199.998 95.2429 199.847 95.3653L154.092 133.025H246.433M247.833 138H152.692C149.563 138 147.025 135.482 147.025 132.377L196.644 91.5346C197.693 90.6717 198.978 90.2393 200.262 90.2393C201.546 90.2393 202.83 90.6717 203.879 91.5346L253.498 132.377C253.498 135.482 250.961 138 247.831 138H247.833Z" fill="url(#paint2_linear_987_6229)"/>
<path d="M196.646 107.098L147.027 66.2583C147.027 63.1528 149.565 60.6348 152.694 60.6348H247.835C250.964 60.6348 253.502 63.1528 253.502 66.2583L203.883 107.1C201.785 108.826 198.746 108.826 196.648 107.1L196.646 107.098Z" fill="url(#paint3_linear_987_6229)"/>
<path d="M246.435 65.6097L200.68 103.27C200.53 103.392 200.372 103.419 200.264 103.419C200.156 103.419 199.998 103.392 199.847 103.27L154.092 65.6097H246.433M247.833 60.6348H152.692C149.563 60.6348 147.025 63.1528 147.025 66.2583L196.644 107.1C197.693 107.963 198.978 108.396 200.262 108.396C201.546 108.396 202.83 107.963 203.879 107.1L253.498 66.2583C253.498 63.1528 250.961 60.6348 247.831 60.6348H247.833Z" fill="url(#paint4_linear_987_6229)"/>
<path d="M253.53 64.8556C253.53 63.7669 253.04 62.7337 252.196 62.0391L203.909 22.2954C201.811 20.5695 198.773 20.5695 196.675 22.2954L148.39 62.0391C147.545 62.7337 147.056 63.7669 147.056 64.8556V66.4821L196.675 107.324C198.773 109.05 201.811 109.05 203.909 107.324L253.528 66.4821V64.8556H253.53Z" fill="url(#paint5_linear_987_6229)"/>
<path d="M240.003 52.0014V39.8301H160.584V52.0014V77.6182L196.675 107.324C198.773 109.05 201.812 109.05 203.91 107.324L240.001 77.6182V52.0014H240.003Z" fill="white"/>
<path d="M181.592 56.9252C187.43 56.8331 190.549 59.6557 195.638 61.3058C204.759 64.2646 209.363 57.0161 217.632 56.8847C221.627 56.8209 229.605 58.358 231.385 62.4979C232.073 64.0976 231.233 67.5549 230.68 69.2124C227.383 79.0895 217.992 88.3012 206.99 82.5271C204.998 81.4811 202.194 78.8194 199.968 78.8304C197.913 78.8415 195.499 81.0956 193.766 82.1146C182.216 88.8991 171.687 78.5874 168.924 67.8238C168.171 64.8883 167.827 62.6759 170.247 60.5028C173.184 57.8681 177.736 56.9866 181.592 56.9252ZM179.862 64.7704C179.348 64.8159 175.837 65.5157 175.812 65.8975C178.943 71.7047 184.41 75.9563 191.216 72.7225C191.629 72.526 194.299 70.9349 194.321 70.6807C193.245 69.1657 191.605 67.9441 189.979 67.0417C186.864 65.3143 183.454 64.4549 179.862 64.7704ZM217.058 64.7704C212.977 65.1118 208.257 67.4739 205.727 70.6783C205.727 71.0208 209.169 72.8759 209.708 73.0896C216.171 75.6555 221.379 71.2885 224.238 65.895C222.116 64.7889 219.446 64.5703 217.058 64.7692V64.7704Z" fill="#2E0957"/>
</g>
<rect x="140" y="165" width="120" height="30" rx="15" fill="#E4D7FC"/>
<g clip-path="url(#clip4_987_6229)">
<path d="M116.296 117.499H57.6862C56.2113 117.499 55.0156 118.713 55.0156 120.211V161.832C55.0156 163.329 56.2113 164.543 57.6862 164.543H116.296C117.771 164.543 118.967 163.329 118.967 161.832V120.211C118.967 118.713 117.771 117.499 116.296 117.499Z" fill="#7531F5"/>
<path d="M86.9917 134.159L55.016 161.087C54.8632 162.999 55.807 164.543 57.6867 164.543H116.298C118.178 164.543 119.201 162.923 118.969 161.087L86.9929 134.159H86.9917Z" fill="#5326F5"/>
<path d="M84.8187 145.553L55.0156 120.456C55.0156 118.547 56.5397 117 58.4182 117H115.563C117.443 117 118.967 118.547 118.967 120.456L89.1639 145.554C87.9039 146.615 86.0787 146.615 84.8187 145.554V145.553Z" fill="#9C3EF5"/>
</g>
<g clip-path="url(#clip5_987_6229)">
<path d="M379.983 14.415H331.235C330.008 14.415 329.014 15.4247 329.014 16.6703V51.288C329.014 52.5335 330.008 53.5432 331.235 53.5432H379.983C381.209 53.5432 382.204 52.5335 382.204 51.288V16.6703C382.204 15.4247 381.209 14.415 379.983 14.415Z" fill="#7531F5"/>
<path d="M355.609 28.2715L329.014 50.6683C328.887 52.2585 329.672 53.5426 331.236 53.5426H379.984C381.548 53.5426 382.399 52.1949 382.206 50.6683L355.61 28.2715H355.609Z" fill="#5326F5"/>
<path d="M353.802 37.7484L329.014 16.8743C329.014 15.287 330.281 14 331.844 14H379.373C380.936 14 382.204 15.287 382.204 16.8743L357.416 37.7494C356.368 38.6315 354.85 38.6315 353.802 37.7494V37.7484Z" fill="#9C3EF5"/>
</g>
<g clip-path="url(#clip6_987_6229)">
<path d="M327.983 54.415H279.235C278.008 54.415 277.014 55.4247 277.014 56.6703V91.288C277.014 92.5335 278.008 93.5432 279.235 93.5432H327.983C329.209 93.5432 330.204 92.5335 330.204 91.288V56.6703C330.204 55.4247 329.209 54.415 327.983 54.415Z" fill="#7531F5"/>
<path d="M303.609 68.2715L277.014 90.6683C276.887 92.2585 277.672 93.5426 279.236 93.5426H327.984C329.548 93.5426 330.399 92.1949 330.206 90.6683L303.61 68.2715H303.609Z" fill="#5326F5"/>
<path d="M301.802 77.7484L277.014 56.8743C277.014 55.287 278.281 54 279.844 54H327.373C328.936 54 330.204 55.287 330.204 56.8743L305.416 77.7494C304.368 78.6315 302.85 78.6315 301.802 77.7494V77.7484Z" fill="#9C3EF5"/>
</g>
<defs>
<linearGradient id="paint0_linear_987_6229" x1="142.139" y1="31.0784" x2="270.022" y2="184.445" gradientUnits="userSpaceOnUse">
<stop offset="0.273486" stop-color="#E454F5"/>
<stop offset="1" stop-color="#271AF5"/>
</linearGradient>
<linearGradient id="paint1_linear_987_6229" x1="170.148" y1="83.2651" x2="264.321" y2="243.062" gradientUnits="userSpaceOnUse">
<stop stop-color="#E652F7"/>
<stop offset="0.08" stop-color="#C347F6"/>
<stop offset="0.19" stop-color="#9439F6"/>
<stop offset="0.31" stop-color="#6C2EF5"/>
<stop offset="0.42" stop-color="#4E25F5"/>
<stop offset="0.54" stop-color="#381FF5"/>
<stop offset="0.64" stop-color="#2B1BF5"/>
<stop offset="0.74" stop-color="#271AF5"/>
</linearGradient>
<linearGradient id="paint2_linear_987_6229" x1="150.288" y1="69.1149" x2="245.688" y2="176.768" gradientUnits="userSpaceOnUse">
<stop stop-color="#D86CE9"/>
<stop offset="0.02" stop-color="#E652F7"/>
<stop offset="0.13" stop-color="#E050F6"/>
<stop offset="0.26" stop-color="#D24CF6"/>
<stop offset="0.4" stop-color="#BA45F6"/>
<stop offset="0.55" stop-color="#983BF6"/>
<stop offset="0.71" stop-color="#6D2EF5"/>
<stop offset="0.86" stop-color="#391FF5"/>
<stop offset="0.92" stop-color="#271AF5"/>
</linearGradient>
<linearGradient id="paint3_linear_987_6229" x1="141.638" y1="-5.98293" x2="301.511" y2="191.289" gradientUnits="userSpaceOnUse">
<stop stop-color="#D574E5"/>
<stop offset="0.33" stop-color="#E652F7"/>
<stop offset="0.54" stop-color="#A13EF6"/>
<stop offset="0.76" stop-color="#5F2AF5"/>
<stop offset="0.92" stop-color="#361EF5"/>
<stop offset="1" stop-color="#271AF5"/>
</linearGradient>
<linearGradient id="paint4_linear_987_6229" x1="138.534" y1="18.3137" x2="299.262" y2="144.662" gradientUnits="userSpaceOnUse">
<stop stop-color="#D574E5"/>
<stop offset="0.37" stop-color="#E652F7"/>
<stop offset="0.49" stop-color="#B142F6"/>
<stop offset="0.61" stop-color="#8034F5"/>
<stop offset="0.73" stop-color="#5928F5"/>
<stop offset="0.83" stop-color="#3D20F5"/>
<stop offset="0.93" stop-color="#2C1BF5"/>
<stop offset="1" stop-color="#271AF5"/>
</linearGradient>
<linearGradient id="paint5_linear_987_6229" x1="160.148" y1="-1.01857" x2="242.032" y2="155.223" gradientUnits="userSpaceOnUse">
<stop stop-color="#D76EE7"/>
<stop offset="0.02" stop-color="#DF5EF0"/>
<stop offset="0.03" stop-color="#E454F5"/>
<stop offset="0.05" stop-color="#E652F7"/>
<stop offset="0.07" stop-color="#DB4EF6"/>
<stop offset="0.16" stop-color="#AB40F6"/>
<stop offset="0.26" stop-color="#8234F5"/>
<stop offset="0.35" stop-color="#612BF5"/>
<stop offset="0.45" stop-color="#4723F5"/>
<stop offset="0.55" stop-color="#351EF5"/>
<stop offset="0.66" stop-color="#2A1BF5"/>
<stop offset="0.77" stop-color="#271AF5"/>
</linearGradient>
<clipPath id="clip0_987_6229">
<rect width="48.1842" height="35.902" fill="white" transform="translate(22 147)"/>
</clipPath>
<clipPath id="clip1_987_6229">
<rect width="77" height="57.3726" fill="white" transform="translate(31 28)"/>
</clipPath>
<clipPath id="clip2_987_6229">
<rect width="77" height="57.3726" fill="white" transform="translate(290 122)"/>
</clipPath>
<clipPath id="clip3_987_6229">
<rect width="106.554" height="117" fill="white" transform="translate(147 21)"/>
</clipPath>
<clipPath id="clip4_987_6229">
<rect width="64" height="47.5429" fill="white" transform="translate(55 117)"/>
</clipPath>
<clipPath id="clip5_987_6229">
<rect width="53.2308" height="39.5429" fill="white" transform="translate(329 14)"/>
</clipPath>
<clipPath id="clip6_987_6229">
<rect width="53.2308" height="39.5429" fill="white" transform="translate(277 54)"/>
</clipPath>
</defs>
</svg>
