<!-- This Source Code Form is subject to the terms of the Mozilla Public
   - License, v. 2.0. If a copy of the MPL was not distributed with this
   - file, You can obtain one at http://mozilla.org/MPL/2.0/. -->
<svg width="99" height="108" viewBox="0 0 99 108" fill="none" xmlns="http://www.w3.org/2000/svg">
<path d="M96.6079 40.4645C95.2206 37.8588 88.9354 39.8071 84.6046 36.9781C83.163 36.0372 81.8662 33.5702 80.7925 31.1695C79.9722 29.3359 79.2846 27.5384 78.7719 26.4828C76.4798 21.778 75.5448 18.1348 72.161 11.2284C68.7289 4.2195 66.0387 0.172164 62.7273 0.00930599C59.8743 -0.135457 56.7558 4.28585 54.0295 12.1634C51.9063 18.2917 51.4056 19.7031 49.8977 22.4777C49.8977 22.4838 49.8917 22.4898 49.8856 22.4958C49.8012 22.6526 45.6211 23.4187 43.7332 23.7323C43.3653 23.7927 43.0034 23.4971 42.5751 22.8999C41.4291 21.3196 39.7462 17.5679 35.8436 12.3986C31.2293 6.27634 27.9359 3.556 24.6124 4.67791C21.8077 5.62491 19.7086 14.8294 18.5806 22.0977C17.6457 28.1174 17.6397 28.6965 17.2114 30.9102C16.8254 32.9187 16.3911 35.3797 15.8181 37.7864C14.9857 41.2848 13.8517 44.6807 12.0965 46.4481C8.33867 50.236 3.76053 49.3373 2.98243 52.1783C2.0837 55.4716 5.09355 54.1989 4.78593 54.9227C4.73768 55.0434 4.63513 55.1459 4.52053 55.2484C10.8961 53.0649 17.4708 53.6741 22.8391 55.8395C28.7925 58.2342 32.7071 62.1548 34.6131 61.5094C34.6554 61.4672 34.6915 61.419 34.7398 61.3707C36.1874 60.0075 37.2792 58.6443 38.2684 57.3656C40.1925 54.6211 41.5195 52.2687 45.024 51.2735C46.6405 50.8151 48.2088 50.8332 49.7589 51.1649C51.8098 51.5449 53.7761 52.5462 55.7787 53.7827C58.0346 55.1278 60.3086 56.7262 62.679 58.0954C62.9203 58.2342 63.1375 58.391 63.3425 58.5599C65.2365 58.4393 70.9547 52.6427 76.6125 49.2528C82.4814 45.7363 88.6278 44.1198 95.5764 43.6674C94.5812 42.9979 97.5006 42.1293 96.6139 40.4585L96.6079 40.4645Z" fill="url(#paint0_linear_5_58831)"/>
<path d="M65.7553 24.7579C71.7329 27.3636 77.8551 29.9754 80.7986 31.1637C79.9783 29.33 79.2907 27.5325 78.778 26.477C76.4859 21.7722 75.551 18.129 72.1671 11.2226C68.7351 4.21363 66.0449 0.166305 62.7334 0.00344662C59.8804 -0.141316 56.762 4.27998 54.0356 12.1575C51.9124 18.2858 51.4118 19.6972 49.9038 22.4719C52.9619 22.1703 59.4099 21.9893 65.7553 24.7579Z" fill="url(#paint1_linear_5_58831)"/>
<path d="M42.5754 22.8939C41.4293 21.3136 39.7465 17.5618 35.8439 12.3926C31.2296 6.27031 27.9362 3.54997 24.6127 4.67189C21.8079 5.61888 19.7089 14.8234 18.5809 22.0917C17.646 28.1114 17.64 28.6905 17.2117 30.9041C16.8257 32.9127 16.3914 35.3737 15.8184 37.7804C18.6292 35.7416 23.3581 32.2372 27.9724 28.7568C33.3347 24.7155 39.4328 23.3463 42.5754 22.8879V22.8939Z" fill="url(#paint2_linear_5_58831)"/>
<path d="M63.3365 58.5598C67.613 62.0161 64.3679 71.0396 53.7761 73.4342C51.864 73.8685 50.0605 74.0555 48.3716 74.0555C36.9414 74.1158 31.0544 65.1948 34.6131 61.5034C32.7071 62.1488 28.7924 58.2341 22.8391 55.8335C17.4708 53.6741 10.8901 53.0589 4.52051 55.2424C3.44082 56.1532 -0.111894 56.4186 0.00270993 58.9278C0.10525 61.2138 4.23703 59.8446 4.33957 60.8821C4.4783 62.2996 1.49859 63.2284 1.66145 64.6459C2.08368 68.2107 10.8961 66.8415 17.32 72.6984C22.073 77.0292 22.5556 84.78 21.4578 95.5166C20.6616 103.273 18.6409 117.002 18.6409 117.002H44.5716C42.8887 100.016 51.7313 93.2064 51.7313 93.2064C51.7313 93.2064 63.7286 99.2563 62.4378 117.002H84.122C84.122 117.002 81.4861 97.7906 80.515 92.2414C78.5969 81.2273 82.2944 67.3542 87.6868 62.1246C93.9297 56.0687 97.6332 56.8408 97.6212 53.9938C97.6212 52.6487 95.4377 52.6487 95.3351 51.3096C95.1723 49.2045 100.963 48.4928 100.504 46.4299C99.9675 43.981 96.9697 44.2163 95.9383 43.8483C95.7755 43.788 95.6608 43.7277 95.5704 43.6674C88.6217 44.1197 82.4754 45.7363 76.6064 49.2528C70.9486 52.6427 65.2305 58.4392 63.3365 58.5598Z" fill="url(#paint3_linear_5_58831)"/>
<path opacity="0.6" d="M63.3365 58.5598C67.613 62.0161 64.3679 71.0396 53.7761 73.4342C51.864 73.8685 50.0605 74.0555 48.3716 74.0555C36.9414 74.1158 31.0544 65.1948 34.6131 61.5034C32.7071 62.1488 28.7924 58.2341 22.8391 55.8335C17.4708 53.6741 10.8901 53.0589 4.52051 55.2424C3.44082 56.1532 -0.111894 56.4186 0.00270993 58.9278C0.10525 61.2138 4.23703 59.8446 4.33957 60.8821C4.4783 62.2996 1.49859 63.2284 1.66145 64.6459C2.08368 68.2107 10.8961 66.8415 17.32 72.6984C22.073 77.0292 22.5556 84.78 21.4578 95.5166C20.6616 103.273 18.6409 117.002 18.6409 117.002H44.5716C42.8887 100.016 51.7313 93.2064 51.7313 93.2064C51.7313 93.2064 63.7286 99.2563 62.4378 117.002H84.122C84.122 117.002 81.4861 97.7906 80.515 92.2414C78.5969 81.2273 82.2944 67.3542 87.6868 62.1246C93.9297 56.0687 97.6332 56.8408 97.6212 53.9938C97.6212 52.6487 95.4377 52.6487 95.3351 51.3096C95.1723 49.2045 100.963 48.4928 100.504 46.4299C99.9675 43.981 96.9697 44.2163 95.9383 43.8483C95.7755 43.788 95.6608 43.7277 95.5704 43.6674C88.6217 44.1197 82.4754 45.7363 76.6064 49.2528C70.9486 52.6427 65.2305 58.4392 63.3365 58.5598Z" fill="url(#paint4_linear_5_58831)"/>
<path d="M51.7253 93.2125C51.7253 93.2125 42.8827 100.022 44.5655 117.008H62.4317C63.7285 99.2624 51.7253 93.2125 51.7253 93.2125Z" fill="url(#paint5_linear_5_58831)"/>
<path opacity="0.6" d="M51.7253 93.2125C51.7253 93.2125 42.8827 100.022 44.5655 117.008H62.4317C63.7285 99.2624 51.7253 93.2125 51.7253 93.2125Z" fill="url(#paint6_linear_5_58831)"/>
<path opacity="0.6" d="M51.7253 93.2125C51.7253 93.2125 42.8827 100.022 44.5655 117.008H62.4317C63.7285 99.2624 51.7253 93.2125 51.7253 93.2125Z" fill="url(#paint7_linear_5_58831)"/>
<path d="M63.3365 58.5601C63.1314 58.3912 62.9142 58.2344 62.673 58.0956C60.3085 56.7264 58.0345 55.128 55.7726 53.7829C53.7761 52.5524 51.8097 51.5451 49.7529 51.1651C48.2027 50.8273 46.6345 50.8092 45.0179 51.2737C41.5135 52.275 40.1925 54.6213 38.2623 57.3658C37.2791 58.6385 36.1874 60.0017 34.7337 61.3709C34.6855 61.4131 34.6493 61.4614 34.6071 61.5096C31.0483 65.2011 36.9353 74.1221 48.3656 74.0618C50.0484 74.0618 51.852 73.8748 53.7701 73.4405C64.3619 71.0399 67.613 62.0223 63.3304 58.5661L63.3365 58.5601ZM46.5319 59.7484C43.5944 60.062 42.3036 57.7337 42.6414 56.5093C42.9128 55.5201 44.1011 54.362 46.4897 54.1026C48.6008 53.8734 49.8072 54.8445 50.1691 55.7372C50.6758 56.9918 49.3246 59.4528 46.5379 59.7484H46.5319Z" fill="#FFC635"/>
<path d="M50.1632 55.7372C49.8013 54.8445 48.595 53.8734 46.4839 54.1026C44.0953 54.362 42.907 55.5201 42.6356 56.5093C42.3038 57.7277 43.5946 60.062 46.5261 59.7484C49.3128 59.4528 50.6639 56.9919 50.1572 55.7372H50.1632Z" fill="#00073A"/>
<path d="M60.556 49.1384C63.2522 48.7645 64.8808 48.2337 64.4887 44.0416C63.9881 38.7034 61.9312 37.0809 59.0842 37.5031C56.1045 37.9434 55.8693 40.6276 56.2976 44.9946C56.6112 48.1975 59.1506 49.3314 60.562 49.1384H60.556Z" fill="url(#paint8_linear_5_58831)"/>
<path d="M61.6356 42.8111C62.3655 42.7267 62.8903 42.0632 62.7998 41.3333C62.7153 40.6035 62.0518 40.0787 61.322 40.1692C60.5921 40.2597 60.0674 40.9171 60.1579 41.647C60.2483 42.3768 60.9058 42.9016 61.6356 42.8111Z" fill="white"/>
<path d="M33.8231 52.3291C36.6098 51.9431 38.1962 51.3158 38.0031 48.0586C37.6955 42.8532 36.3142 39.8614 32.5203 40.6033C30.1317 41.0678 29.3777 43.8846 29.619 47.4976C29.9145 51.9491 32.3634 52.5282 33.8231 52.3291Z" fill="url(#paint9_linear_5_58831)"/>
<path d="M35.0294 45.8631C35.7412 45.7786 36.2478 45.1332 36.1634 44.4215C36.0789 43.7097 35.4335 43.2031 34.7218 43.2875C34.01 43.372 33.5034 44.0174 33.5878 44.7291C33.6723 45.4409 34.3177 45.9475 35.0294 45.8631Z" fill="white"/>
<defs>
<linearGradient id="paint0_linear_5_58831" x1="48.1364" y1="-2.66278" x2="51.6047" y2="101.5" gradientUnits="userSpaceOnUse">
<stop stop-color="#FF6600"/>
<stop offset="0.11" stop-color="#FF6A02"/>
<stop offset="0.23" stop-color="#FF7709"/>
<stop offset="0.35" stop-color="#FF8C15"/>
<stop offset="0.47" stop-color="#FFAA25"/>
<stop offset="0.49" stop-color="#FFB029"/>
<stop offset="0.55" stop-color="#FFAC27"/>
<stop offset="0.62" stop-color="#FFA120"/>
<stop offset="0.68" stop-color="#FF8F16"/>
<stop offset="0.73" stop-color="#FF7508"/>
<stop offset="0.76" stop-color="#FF6600"/>
<stop offset="0.91" stop-color="#FB2872"/>
</linearGradient>
<linearGradient id="paint1_linear_5_58831" x1="65.4279" y1="25.2204" x2="68.7386" y2="-6.20067" gradientUnits="userSpaceOnUse">
<stop stop-color="#FF6600" stop-opacity="0"/>
<stop offset="0.06" stop-color="#FF6600" stop-opacity="0.12"/>
<stop offset="0.2" stop-color="#FF6600" stop-opacity="0.42"/>
<stop offset="0.39" stop-color="#FF6600" stop-opacity="0.9"/>
<stop offset="0.43" stop-color="#FF6600"/>
<stop offset="0.72" stop-color="#FD4737"/>
<stop offset="1" stop-color="#FB2872"/>
</linearGradient>
<linearGradient id="paint2_linear_5_58831" x1="28.8666" y1="29.5092" x2="18.338" y2="-0.275265" gradientUnits="userSpaceOnUse">
<stop stop-color="#FF6600" stop-opacity="0"/>
<stop offset="0.04" stop-color="#FF6600" stop-opacity="0.04"/>
<stop offset="0.1" stop-color="#FF6600" stop-opacity="0.15"/>
<stop offset="0.19" stop-color="#FF6600" stop-opacity="0.33"/>
<stop offset="0.29" stop-color="#FF6600" stop-opacity="0.58"/>
<stop offset="0.4" stop-color="#FF6600" stop-opacity="0.89"/>
<stop offset="0.43" stop-color="#FF6600"/>
<stop offset="0.72" stop-color="#FD4737"/>
<stop offset="1" stop-color="#FB2872"/>
</linearGradient>
<linearGradient id="paint3_linear_5_58831" x1="49.017" y1="15.4567" x2="53.7942" y2="158.778" gradientUnits="userSpaceOnUse">
<stop stop-color="#FF6600"/>
<stop offset="0.33" stop-color="#FFB029"/>
<stop offset="0.46" stop-color="#FF9218"/>
<stop offset="0.63" stop-color="#FF6600"/>
<stop offset="1" stop-color="#FB2872"/>
</linearGradient>
<linearGradient id="paint4_linear_5_58831" x1="50.338" y1="50.0912" x2="46.8576" y2="168.073" gradientUnits="userSpaceOnUse">
<stop stop-color="#FFEB49"/>
<stop offset="0.36" stop-color="#FFB52B" stop-opacity="0.6"/>
<stop offset="0.67" stop-color="#FF8A14" stop-opacity="0.28"/>
<stop offset="0.89" stop-color="#FF7005" stop-opacity="0.08"/>
<stop offset="1" stop-color="#FF6600" stop-opacity="0"/>
</linearGradient>
<linearGradient id="paint5_linear_5_58831" x1="50.163" y1="15.4145" x2="54.9402" y2="158.736" gradientUnits="userSpaceOnUse">
<stop stop-color="#FF6600"/>
<stop offset="0.33" stop-color="#FFB029"/>
<stop offset="0.46" stop-color="#FF9218"/>
<stop offset="0.63" stop-color="#FF6600"/>
<stop offset="1" stop-color="#FB2872"/>
</linearGradient>
<linearGradient id="paint6_linear_5_58831" x1="55.3081" y1="50.2421" x2="51.8278" y2="168.224" gradientUnits="userSpaceOnUse">
<stop stop-color="#FFEB49"/>
<stop offset="0.36" stop-color="#FFB52B" stop-opacity="0.6"/>
<stop offset="0.67" stop-color="#FF8A14" stop-opacity="0.28"/>
<stop offset="0.89" stop-color="#FF7005" stop-opacity="0.08"/>
<stop offset="1" stop-color="#FF6600" stop-opacity="0"/>
</linearGradient>
<linearGradient id="paint7_linear_5_58831" x1="53.2392" y1="109.245" x2="56.4904" y2="180.734" gradientUnits="userSpaceOnUse">
<stop stop-color="#FFC635"/>
<stop offset="0.09" stop-color="#FFC132" stop-opacity="0.96"/>
<stop offset="0.24" stop-color="#FFB62C" stop-opacity="0.84"/>
<stop offset="0.44" stop-color="#FFA422" stop-opacity="0.66"/>
<stop offset="0.67" stop-color="#FF8C15" stop-opacity="0.4"/>
<stop offset="0.94" stop-color="#FF6C03" stop-opacity="0.07"/>
<stop offset="1" stop-color="#FF6600" stop-opacity="0"/>
</linearGradient>
<linearGradient id="paint8_linear_5_58831" x1="57.2285" y1="34.0892" x2="61.8709" y2="48.7988" gradientUnits="userSpaceOnUse">
<stop offset="0.16" stop-color="#A030B9"/>
<stop offset="0.88" stop-color="#00073A"/>
</linearGradient>
<linearGradient id="paint9_linear_5_58831" x1="31.2376" y1="37.8317" x2="34.7616" y2="50.7296" gradientUnits="userSpaceOnUse">
<stop offset="0.16" stop-color="#A030B9"/>
<stop offset="0.88" stop-color="#00073A"/>
</linearGradient>
</defs>
</svg>
