<!-- This Source Code Form is subject to the terms of the Mozilla Public
   - License, v. 2.0. If a copy of the MPL was not distributed with this
   - file, You can obtain one at http://mozilla.org/MPL/2.0/. -->
<svg width="12" height="12" fill="context-fill" fill-opacity="context-fill-opacity" xmlns="http://www.w3.org/2000/svg">
<style>
.nova { display: none; }

@media -moz-pref("browser.nova.enabled") {
  .proton { display: none; }
  .nova { display: revert; }
}
</style>
<g class="proton">
  <path d="M3 9.2V2.8c0-.14.036-.278.104-.4a.79.79 0 0 1 .283-.292.761.761 0 0 1 .777-.003l5.444 3.2a.79.79 0 0 1 .287.294.818.818 0 0 1 0 .802.79.79 0 0 1-.287.294l-5.444 3.2a.76.76 0 0 1-.777-.003.79.79 0 0 1-.283-.293A.818.818 0 0 1 3 9.2z"/>
</g>
<g class="nova">
  <path d="M4.25 4.429a.75.75 0 0 1 1.122-.651l2.75 1.57a.75.75 0 0 1 0 1.303l-2.75 1.57a.75.75 0 0 1-1.122-.65z" />
</g>
</svg>
