<!-- This Source Code Form is subject to the terms of the Mozilla Public
   - License, v. 2.0. If a copy of the MPL was not distributed with this
   - file, You can obtain one at http://mozilla.org/MPL/2.0/. -->
<svg xmlns="http://www.w3.org/2000/svg" viewBox="0 0 16 16" width="16" height="16" fill="context-fill" fill-opacity="context-fill-opacity">
<style>
.nova { display: none; }

@media -moz-pref("browser.nova.enabled") {
  .proton { display: none; }
  .nova { display: revert; }
}
</style>
<g class="proton">
  <path d="M13.804 2.696A7.455 7.455 0 0 0 8.5.5a.625.625 0 0 0 0 1.25c1.669 0 3.239.65 4.419 1.831A6.206 6.206 0 0 1 14.75 8c0 3.446-2.804 6.25-6.25 6.25S2.25 11.446 2.25 8c0-1.051.275-2.066.772-2.978l1.125 1.125A.5.5 0 0 0 5 5.793l0-3.52L4.727 2l-3.52 0a.5.5 0 0 0-.353.854l1.251 1.251A7.451 7.451 0 0 0 1 8c0 4.136 3.364 7.5 7.5 7.5S16 12.136 16 8c0-2.003-.78-3.887-2.196-5.304z"/>
  <path d="m6 10.799 0-5.598a.7.7 0 0 1 1.047-.608l4.9 2.799a.7.7 0 0 1 0 1.215l-4.9 2.799A.7.7 0 0 1 6 10.799z"/>
</g>
<g class="nova">
  <path d="M5.5 0a.5.5 0 0 1 .5.5v3.499a.5.5 0 0 1-.854.354L3.818 3.024a6.51 6.51 0 0 0-2.193 6.25c.605 3.062 3.454 5.318 6.574 5.223A6.51 6.51 0 0 0 14.499 8a6.51 6.51 0 0 0-5.85-6.468.737.737 0 0 1-.65-.74c0-.454.4-.795.852-.747C12.863.47 16 3.876 16 8c0 5.019-4.648 8.974-9.864 7.788a7.9 7.9 0 0 1-5.55-4.754c-1.341-3.394-.28-6.94 2.17-9.073L1.647.854A.5.5 0 0 1 2.001 0z" />
  <path d="M6 5.644c0-.494.533-.803.962-.558l4.123 2.356a.642.642 0 0 1 0 1.116l-4.123 2.356A.643.643 0 0 1 6 10.356z" />
</g>
</svg>
