<!-- This Source Code Form is subject to the terms of the Mozilla Public
   - License, v. 2.0. If a copy of the MPL was not distributed with this
   - file, You can obtain one at http://mozilla.org/MPL/2.0/. -->
<svg xmlns="http://www.w3.org/2000/svg" viewBox="0 0 16 16" width="16" height="16" fill="context-fill" fill-opacity="context-fill-opacity">
<style>
.nova { display: none; }

@media -moz-pref("browser.nova.enabled") {
  .proton { display: none; }
  .nova { display: revert; }
}
</style>
<g class="proton">
  <path d="M1.067.183a.626.626 0 0 0-.885.885l1.046 1.046A1.945 1.945 0 0 0 1 3l0 7a2 2 0 0 0 2 2l4 0 3.75 3L12 15l0-2.115 1.932 1.932a.625.625 0 0 0 .885-.885L1.067.183zm9.683 13.216-3.038-2.43a1 1 0 0 0-.625-.219l-4.237 0-.6-.6 0-7.015L6.115 7l-1.24 0a.625.625 0 0 0 0 1.25l2.49 0 3.385 3.385 0 1.764z"/>
  <path d="M13 1 3.654 1l1.25 1.25 8.247 0 .6.6 0 7.3-.473.473.948.948c.467-.366.774-.93.774-1.571l0-7a2 2 0 0 0-2-2z"/>
  <path d="m7.904 5.25 3.221 0a.625.625 0 0 0 0-1.25L6.654 4l1.25 1.25z"/>
</g>
<g class="nova">
  <path fill-rule="evenodd" d="M.22.22a.75.75 0 0 1 1.06 0l14.5 14.5a.75.75 0 1 1-1.06 1.06L13 14.06v.19c0 .709-.405 1.324-1.055 1.605a1.74 1.74 0 0 1-1.893-.331l-2.695-2.53a53 53 0 0 1-4.88-.278A2.75 2.75 0 0 1 0 9.976V4.027c0-.815.352-1.547.916-2.05L.22 1.28a.75.75 0 0 1 0-1.06m1.756 2.816c-.292.23-.476.59-.476.99v5.949c0 .643.487 1.18 1.133 1.248 1.643.17 3.336.262 5.028.273.19.001.37.074.509.203l2.91 2.73a.24.24 0 0 0 .27.047.24.24 0 0 0 .15-.228v-1.687L8.44 9.5H4.25a.75.75 0 0 1 0-1.5h2.69l-2-2h-.69a.75.75 0 0 1-.559-1.248z" clip-rule="evenodd" />
  <path d="M3.997 1.166a53.6 53.6 0 0 1 9.526.118 2.75 2.75 0 0 1 2.476 2.74v5.949a2.75 2.75 0 0 1-1.038 2.158l-1.082-1.082c.37-.217.621-.614.621-1.075V4.025c0-.644-.486-1.18-1.132-1.248A53 53 0 0 0 8 2.5c-.865 0-1.735.025-2.602.068z" />
  <path d="M11.75 4.5a.75.75 0 0 1 0 1.5H8.83l-1.5-1.5z" />
</g>
</svg>
