<!-- This Source Code Form is subject to the terms of the Mozilla Public
   - License, v. 2.0. If a copy of the MPL was not distributed with this
   - file, You can obtain one at http://mozilla.org/MPL/2.0/. -->
<svg xmlns="http://www.w3.org/2000/svg" viewBox="0 0 16 16" width="16" height="16" fill="context-fill" fill-opacity="context-fill-opacity">
<style>
.nova { display: none; }

@media -moz-pref("browser.nova.enabled") {
  .proton { display: none; }
  .nova { display: revert; }
}
</style>
<g class="proton">
  <path d="M1.067 2.183a.626.626 0 0 0-.885.885l1.316 1.316A6.694 6.694 0 0 0 1 6.884c0 2.717 3.575 6.574 5.615 8.553a1.985 1.985 0 0 0 2.77 0 40.923 40.923 0 0 0 1.563-1.605l1.985 1.985a.623.623 0 0 0 .884 0 .628.628 0 0 0 0-.885L1.067 2.183zM8.514 14.54a.745.745 0 0 1-.213.145l-.602 0a.745.745 0 0 1-.213-.145C4.207 11.359 2.25 8.497 2.25 6.884c0-.53.08-1.042.222-1.528l7.588 7.588a37.7 37.7 0 0 1-1.546 1.596z"/>
  <path d="M8 1.25c3.171 0 5.75 2.528 5.75 5.634 0 .986-.739 2.443-2.057 4.151l.891.891C13.906 10.237 15 8.387 15 6.884 15 3.082 11.866 0 8 0 5.97 0 4.148.855 2.87 2.212l.885.885A5.784 5.784 0 0 1 8 1.25z"/>
  <path d="M6.608 5.951c.32-.423.822-.701 1.392-.701.965 0 1.75.785 1.75 1.75 0 .57-.278 1.072-.701 1.392l.884.884A2.977 2.977 0 0 0 11 7a3 3 0 0 0-3-3 2.98 2.98 0 0 0-2.276 1.066l.884.885z"/>
</g>
<g class="nova">
  <path fill-rule="evenodd" d="M.22 1.48a.75.75 0 0 1 1.06 0l13.25 13.25a.75.75 0 0 1-.529 1.28.74.74 0 0 1-.531-.22l-2.11-2.11a38 38 0 0 1-1.398 1.497 2.74 2.74 0 0 1-1.96.824 2.74 2.74 0 0 1-1.962-.824C3.741 12.847 1.001 9.54 1.001 7.01a6.94 6.94 0 0 1 .683-3.006L.22 2.54a.75.75 0 0 1 0-1.06m2.607 3.667A5.5 5.5 0 0 0 2.5 7.01c0 1.554 1.679 4.147 4.606 7.114.48.486 1.307.486 1.787 0 .51-.516.974-1.021 1.401-1.51L7.67 9.99a3.005 3.005 0 0 1-2.653-2.653z" clip-rule="evenodd" />
  <path d="M8 0c3.86 0 7 3.145 7 7.01 0 1.373-.81 2.976-1.917 4.527l-1.08-1.08c.962-1.39 1.497-2.583 1.497-3.447 0-3.037-2.467-5.51-5.5-5.51a5.47 5.47 0 0 0-3.6 1.353l-1.06-1.06A6.96 6.96 0 0 1 8 0" />
  <path d="M8 4.01c1.654 0 3 1.346 3 3 0 .685-.24 1.31-.628 1.815L9.297 7.75a1.5 1.5 0 0 0 .203-.74c0-.827-.673-1.5-1.5-1.5-.27 0-.521.077-.74.203L6.185 4.638A2.97 2.97 0 0 1 8 4.01" />
</g>
</svg>
