<!-- This Source Code Form is subject to the terms of the Mozilla Public
   - License, v. 2.0. If a copy of the MPL was not distributed with this
   - file, You can obtain one at http://mozilla.org/MPL/2.0/. -->
<svg width="16" height="16" fill="context-fill" fill-opacity="context-fill-opacity" xmlns="http://www.w3.org/2000/svg">
<style>
.nova { display: none; }

@media -moz-pref("browser.nova.enabled") {
  .proton { display: none; }
  .nova { display: revert; }
}
</style>
<g class="proton">
  <path d="M6 11H4.25V9.25H6V11z"/>
  <path fill-rule="evenodd" clip-rule="evenodd" d="M16 14.94 14.94 16l-1.5-1.5H3c-1.103 0-2-.897-2-2v-4c0-1.103.897-2 2-2h2.44L0 1.06 1.06 0 16 14.94zM3 8a.5.5 0 0 0-.5.5v4a.5.5 0 0 0 .5.5h8.94l-2-2H8.25V9.31L6.94 8H3z"/>
  <path d="m14 6.5.204.01A2.002 2.002 0 0 1 16 8.5v4c0 .201-.039.392-.094.576L14.5 11.67V8.5A.5.5 0 0 0 14 8h-3.17l-1.5-1.5h3.17V2H14v4.5zM5.87 3.04a3.76 3.76 0 0 1 1.467.55l-.458.459L5.87 3.04zM5.334 0c1.638 0 3.142.567 4.334 1.51L8.584 2.594A5.433 5.433 0 0 0 5.334 1.5c-.315 0-.622.03-.92.083L3.182.353A6.928 6.928 0 0 1 5.334 0z"/>
</g>
<g class="nova">
  <path d="M5 10a1 1 0 1 1 0 2 1 1 0 0 1 0-2m3.25 0a1 1 0 1 1 0 2 1 1 0 0 1 0-2" />
  <path fill-rule="evenodd" d="M.22.22a.75.75 0 0 1 1.06 0l14.5 14.5a.75.75 0 0 1-1.06 1.06l-.933-.932a92 92 0 0 1-10.92-.018 2 2 0 0 1-1.867-2V9.174c0-1.057.825-1.935 1.879-2a87 87 0 0 1 3.102-.132L.22 1.28a.75.75 0 0 1 0-1.06m7.228 8.289a91 91 0 0 0-4.477.16.51.51 0 0 0-.471.504v3.656c0 .266.2.486.459.502a91 91 0 0 0 9.396.085z" clip-rule="evenodd" />
  <path d="M13.25 3a.75.75 0 0 1 .75.75v3.415l.133.008A2 2 0 0 1 16 9.17v3.657c0 .107-.014.21-.03.314L14.5 11.67v-2.5a.497.497 0 0 0-.46-.501 87 87 0 0 0-2.664-.123L9.85 7.02q1.327.018 2.65.07V3.75a.75.75 0 0 1 .75-.75m-7.66-.24c.55.015 1.07.143 1.537.373a.506.506 0 0 1 .106.828l-.235.208zM3.255.426c1.903-.685 4.104-.483 5.81.638a.75.75 0 0 1-.824 1.254c-1.109-.729-2.492-.95-3.78-.685z" />
</g>
</svg>
