<!-- This Source Code Form is subject to the terms of the Mozilla Public
   - License, v. 2.0. If a copy of the MPL was not distributed with this
   - file, You can obtain one at http://mozilla.org/MPL/2.0/. -->
<svg xmlns="http://www.w3.org/2000/svg" viewBox="0 0 16 16" width="16" height="16" fill="context-fill" fill-opacity="context-fill-opacity">
<style>
.nova { display: none; }

@media -moz-pref("browser.nova.enabled") {
  .proton { display: none; }
  .nova { display: revert; }
}
</style>
<g class="proton">
  <path d="M15.817 14.933 1.067.183a.626.626 0 0 0-.885.885l5.861 5.861a2.494 2.494 0 0 0 2.029 2.029l1.176 1.176a3.181 3.181 0 0 1-.748.099 3.24 3.24 0 0 1-3.206-2.71.63.63 0 0 0-.72-.513.625.625 0 0 0-.513.72 4.468 4.468 0 0 0 3.525 3.648l.289.24 0 2.133-1.75 0a.625.625 0 0 0 0 1.249l4.75 0a.625.625 0 0 0 0-1.25l-1.75 0 0-2.133.272-.237c.29-.058.567-.152.833-.264l4.702 4.702a.63.63 0 0 0 .885-.001.625.625 0 0 0 0-.884z"/>
  <path d="M7.25 3.5c0-.689.561-1.25 1.25-1.25.689 0 1.25.561 1.25 1.25l0 3c0 .177-.039.344-.106.497l.916.916A2.48 2.48 0 0 0 11 6.5l0-3A2.5 2.5 0 0 0 8.5 1a2.493 2.493 0 0 0-2.486 2.366L7.25 4.602l0-1.102z"/>
  <path d="M12.938 7.729a.625.625 0 0 0-.513-.72.62.62 0 0 0-.72.513 3.25 3.25 0 0 1-.413 1.123l.902.902a4.442 4.442 0 0 0 .744-1.818z"/>
</g>
<g class="nova">
  <path d="M.22.72a.75.75 0 0 1 1.06 0l14 14a.75.75 0 0 1-.528 1.28.75.75 0 0 1-.531-.22l-3.466-3.465a5.9 5.9 0 0 1-2.004.636V14.5h2.5a.75.75 0 0 1 0 1.5h-6.5a.75.75 0 0 1 0-1.5h2.5v-1.548c-2.636-.335-4.805-2.412-5.19-5.094a.75.75 0 0 1 .637-.85c.41-.067.79.227.85.637A4.52 4.52 0 0 0 8 11.5c.571 0 1.12-.111 1.63-.31L8.41 9.972A3.4 3.4 0 0 1 4.6 6.955q-.044-.428-.069-.862L.22 1.78a.75.75 0 0 1 0-1.06m13.083 6.287a.75.75 0 0 1 .636.85 5.9 5.9 0 0 1-1.106 2.657l-1.076-1.075a4.4 4.4 0 0 0 .697-1.796.74.74 0 0 1 .849-.636M8 0c1.758 0 3.22 1.31 3.399 3.045a19 19 0 0 1 .008 3.839 3.5 3.5 0 0 1-.593 1.611l-1.09-1.09c.099-.205.166-.43.19-.67A17.7 17.7 0 0 0 9.907 3.2 1.9 1.9 0 0 0 8 1.5c-.99 0-1.812.759-1.913 1.765-.016.159-.013.32-.024.48L4.74 2.42A3.41 3.41 0 0 1 8 0" />
</g>
</svg>
