<!-- This Source Code Form is subject to the terms of the Mozilla Public
   - License, v. 2.0. If a copy of the MPL was not distributed with this
   - file, You can obtain one at http://mozilla.org/MPL/2.0/. -->
<svg xmlns="http://www.w3.org/2000/svg" viewBox="0 0 16 16" width="16" height="16" fill="context-fill" fill-opacity="context-fill-opacity">
<style>
.nova { display: none; }

@media -moz-pref("browser.nova.enabled") {
  .proton { display: none; }
  .nova { display: revert; }
}
</style>
<g class="proton">
  <path d="m4 7-.75 0-.25.25L3 8l.25.25.75 0L4.25 8l0-.75z"/>
  <path d="M1.567.183a.626.626 0 0 0-.885.885L2.615 3 2 3a2 2 0 0 0-2 2l0 5a2 2 0 0 0 2 2l9.615 0 2.818 2.818a.623.623 0 0 0 .884-.001.628.628 0 0 0 0-.885L1.567.183zM1.85 10.75l-.6-.6 0-5.3.6-.6 2.015 0 6.5 6.5-8.515 0z"/>
  <path d="M14 3 6.157 3l1.25 1.25 6.743 0 .6.6 0 5.3-.6.6-.243 0 1.015 1.015A1.992 1.992 0 0 0 16 10l0-5a2 2 0 0 0-2-2z"/>
</g>
<g class="nova">
  <path d="M4.001 7a1 1 0 1 1 0 2 1 1 0 0 1 0-2" />
  <path fill-rule="evenodd" d="M.22.22a.75.75 0 0 1 1.061 0l2.932 2.93h.003l1.41 1.41h-.003l6.738 6.739h.005l1.373 1.373h-.005l2.047 2.047a.75.75 0 1 1-1.06 1.06l-2.918-2.918C10.533 12.952 9.259 13 8 13c-1.838 0-3.696-.096-5.522-.285A2.75 2.75 0 0 1 0 9.975v-3.95a2.74 2.74 0 0 1 2.258-2.708L.22 1.28a.75.75 0 0 1 0-1.06m3.408 4.467q-.51.041-1.019.093A1.243 1.243 0 0 0 1.5 6.025v3.95c0 .643.487 1.18 1.132 1.248a52 52 0 0 0 7.735.204z" clip-rule="evenodd" />
  <path d="M5.89 3.057a54 54 0 0 1 7.633.23 2.75 2.75 0 0 1 2.478 2.74v3.949a2.75 2.75 0 0 1-1.036 2.155l-1.082-1.082c.369-.218.618-.614.618-1.074v-3.95c0-.644-.487-1.18-1.132-1.248A52 52 0 0 0 8.001 4.5c-.216 0-.434.014-.65.017z" />
</g>
</svg>
