<!-- This Source Code Form is subject to the terms of the Mozilla Public
   - License, v. 2.0. If a copy of the MPL was not distributed with this
   - file, You can obtain one at http://mozilla.org/MPL/2.0/. -->
<svg xmlns="http://www.w3.org/2000/svg" viewBox="0 0 16 16" width="16" height="16" fill="context-fill" fill-opacity="context-fill-opacity">
<style>
.nova { display: none; }

@media -moz-pref("browser.nova.enabled") {
  .proton { display: none; }
  .nova { display: revert; }
}
</style>
<g class="proton">
  <path d="m13.15 3.25.6.6 0 5.991 1.25 1.25L15 4a2 2 0 0 0-2-2L5.909 2l1.25 1.25 5.991 0z"/>
  <path d="M15.817 13.683 2.317.183a.625.625 0 1 0-.884.885L2.365 2 2 2a2 2 0 0 0-2 2l0 8.25a2 2 0 0 0 2 2l11 0c.455 0 .871-.154 1.205-.41l.728.728a.623.623 0 0 0 .884 0 .626.626 0 0 0 0-.885zM13.15 13l-11.3 0-.6-.6 0-8.55.6-.6 1.765 0L6.05 5.685 4.589 7.146A.5.5 0 0 0 4.943 8l2.056 0L7 11.375a.625.625 0 0 0 1.25 0L8.25 8l.115 0 4.892 4.892-.107.108z"/>
</g>
<g class="nova">
  <path fill-rule="evenodd" d="M1.22.719a.75.75 0 0 1 1.061 0l13.5 13.5a.75.75 0 0 1-1.061 1.06l-1.533-1.532A54 54 0 0 1 8 14.001c-1.838 0-3.696-.096-5.522-.285A2.753 2.753 0 0 1 0 10.976v-5.95C0 3.82.768 2.79 1.861 2.422L1.22 1.78a.75.75 0 0 1 0-1.061m1.39 3.063A1.24 1.24 0 0 0 1.5 5.026v5.949c0 .644.486 1.18 1.132 1.248 3.029.313 6.124.357 9.167.136L8.75 9.309v1.19a.75.75 0 0 1-1.5 0V8.235H5.472a.47.47 0 0 1-.333-.804l.866-.866-2.838-2.838q-.28.025-.557.055" clip-rule="evenodd" />
  <path d="M5.365 2.069a54 54 0 0 1 8.158.216A2.75 2.75 0 0 1 16 5.025v5.949c0 .497-.136.96-.365 1.364l-1.171-1.17c.01-.066.036-.126.036-.194v-5.95c0-.643-.486-1.18-1.132-1.247A53 53 0 0 0 8 3.5c-.39 0-.782.023-1.173.032z" />
</g>
</svg>
