<!-- This Source Code Form is subject to the terms of the Mozilla Public
   - License, v. 2.0. If a copy of the MPL was not distributed with this
   - file, You can obtain one at http://mozilla.org/MPL/2.0/. -->
<svg xmlns="http://www.w3.org/2000/svg" viewBox="0 0 16 16" width="16" height="16" fill="context-fill" fill-opacity="context-fill-opacity">
<style>
.nova { display: none; }

@media -moz-pref("browser.nova.enabled") {
  .proton { display: none; }
  .nova { display: revert; }
}
</style>
<g class="proton">
  <path d="M12 2 9.25 2l0-.875a.625.625 0 0 0-1.25 0L8 2 5.414 2a.997.997 0 0 0-.707.293L3.293 3.707A1 1 0 0 0 3 4.414L3 5a1 1 0 0 0 1 1l4 0 0 8.875a.625.625 0 0 0 1.25 0L9.25 6 12 6a1 1 0 0 0 1-1l0-2a1 1 0 0 0-1-1z"/>
</g>
<g class="nova">
  <path fill-rule="evenodd" d="M6.266.137A11 11 0 0 1 9.724.135a1.51 1.51 0 0 1 1.2 1.078l.037.006c2.393.485 4.354 2.351 4.995 4.754a1.263 1.263 0 0 1-1.592 1.535 21.6 21.6 0 0 0-3.847-.798l-.025.018-.013 7.028A2.25 2.25 0 0 1 8.229 16h-.457a2.25 2.25 0 0 1-2.25-2.245l-.017-7.038-.023-.019c-1.3.155-2.59.422-3.847.81a1.26 1.26 0 0 1-1.247-.296 1.27 1.27 0 0 1-.344-1.24V5.97c.64-2.4 2.595-4.264 4.982-4.75l.047-.007c.156-.551.6-.982 1.193-1.077M8.99 7.203q-.494.046-.99.048-.497-.002-.995-.048l.016 6.549a.75.75 0 0 0 .75.749h.457a.75.75 0 0 0 .75-.75zM5.001 2.78a5.07 5.07 0 0 0-3.38 3.166 23 23 0 0 1 3.38-.675zm6 2.495c1.137.147 2.268.352 3.377.67A5.08 5.08 0 0 0 11 2.78zM8 1.501a9.6 9.6 0 0 0-1.499.117L6.5 5.63a9.5 9.5 0 0 0 2.998.003l.002-.004V1.62A9.4 9.4 0 0 0 8 1.5" clip-rule="evenodd" />
</g>
</svg>
