<?xml version="1.0" encoding="UTF-8" standalone="no"?>
<!-- This Source Code Form is subject to the terms of the Mozilla Public
   - License, v. 2.0. If a copy of the MPL was not distributed with this
   - file, You can obtain one at https://mozilla.org/MPL/2.0/. -->
<svg width="56" height="56" viewBox="0 0 56 56" fill="none" xmlns="http://www.w3.org/2000/svg">
<path d="M51.2209 12.8535C51.2061 12.3178 51.2421 11.6833 51.1036 11.1683C50.849 10.2184 49.9995 9.41535 49.0253 9.24207C48.7691 9.19663 48.5572 9.22358 48.3058 9.2109C47.0357 9.1475 45.7519 9.07882 44.4904 8.88441C42.7734 8.62026 40.7711 8.09195 39.135 7.50765C36.1786 6.45316 33.527 5.08803 31.1402 3.12644C30.0651 2.24312 29.4401 1.31437 27.9466 1.3186C26.4526 1.31331 25.8281 2.24312 24.7525 3.12592C22.3656 5.0875 19.7141 6.45263 16.7577 7.50712C15.1215 8.0909 13.1193 8.61973 11.4023 8.88388C10.1412 9.07829 8.85746 9.14644 7.58689 9.21037C7.33542 9.22305 7.1241 9.19611 6.86735 9.24207C5.89368 9.41482 5.04418 10.2178 4.78901 11.1677C4.65059 11.6828 4.68652 12.3173 4.67172 12.853C4.59142 15.6852 4.69127 18.5201 4.92055 21.3381C5.57142 29.3392 7.59693 37.2769 12.6528 43.6298C14.4516 45.8888 16.4883 47.8118 19.1097 49.6123C21.8193 51.474 24.8412 52.9443 27.9455 54.0368C31.0498 52.9443 34.0717 51.4745 36.7819 49.6123C39.4033 47.8118 41.4399 45.8888 43.2378 43.6298C48.2952 37.2775 50.3207 29.3392 50.9716 21.3386C51.2003 18.5206 51.3007 15.6858 51.2199 12.853L51.2209 12.8535Z" fill="url(#paint0_linear_17400_18736)"/>
<path d="M46.6676 15.7576C46.656 15.327 46.6845 14.8172 46.5735 14.403C46.3686 13.6391 45.6849 12.9935 44.902 12.8541C44.696 12.8176 44.5259 12.8393 44.3235 12.8292C43.3023 12.7775 42.27 12.7225 41.2557 12.5667C39.8752 12.3538 38.2655 11.9285 36.95 11.4594C34.5695 10.6104 32.4388 9.51203 30.5211 7.93663C30.2136 7.68358 29.9262 7.39301 29.6177 7.13943C29.1438 6.75068 28.5582 6.52323 27.9461 6.49014C27.3342 6.52315 26.7486 6.75041 26.2746 7.1389C25.9666 7.39301 25.6787 7.68411 25.3712 7.93663C23.454 9.51203 21.3234 10.6104 18.9428 11.4594C17.6268 11.9285 16.0176 12.3538 14.6366 12.5667C13.6228 12.7225 12.5905 12.778 11.5693 12.8292C11.367 12.8398 11.1969 12.8176 10.9908 12.8541C10.2074 12.993 9.52426 13.6391 9.31981 14.403C9.20887 14.8172 9.23687 15.3276 9.22472 15.7576C9.16079 18.0346 9.24109 20.3147 9.42494 22.5801C10.1831 31.8994 13.188 40.0616 20.8342 45.314C22.9986 46.8006 25.4689 48.003 27.9461 48.8747C30.4234 48.003 32.8942 46.8006 35.0582 45.314C42.7043 40.0616 45.7098 31.8983 46.4679 22.5801C46.6517 20.3147 46.732 18.0346 46.6676 15.7576Z" fill="url(#paint1_linear_17400_18736)"/>
<path d="M27.9461 48.8742C25.4689 48.0031 22.9986 46.8006 20.8342 45.314C13.188 40.0616 10.1831 31.8988 9.42494 22.5801C9.24109 20.3147 9.16079 18.0346 9.22472 15.7576C9.23687 15.327 9.20887 14.8172 9.31981 14.403C9.52426 13.6391 10.2074 12.993 10.9908 12.8541C11.1969 12.8176 11.367 12.8393 11.5693 12.8292C12.5905 12.7775 13.6228 12.7225 14.6366 12.5667C16.0176 12.3538 17.6268 11.9285 18.9428 11.4594C21.3234 10.6104 23.454 9.51203 25.3712 7.93663C25.6787 7.68411 25.9666 7.39301 26.2746 7.1389C26.7486 6.75041 27.3342 6.52315 27.9461 6.49014V48.8742Z" fill="url(#paint2_linear_17400_18736)"/>
<path d="M27.9461 6.48961C28.5581 6.52262 29.1436 6.74988 29.6177 7.13837C29.9262 7.39248 30.2146 7.68305 30.521 7.93611C32.4388 9.51097 34.5694 10.6098 36.9505 11.4588C38.266 11.928 39.8752 12.3532 41.2561 12.5656C42.2705 12.722 43.3023 12.7769 44.3235 12.8282C44.5258 12.8387 44.6959 12.8176 44.902 12.8535C45.6849 12.9925 46.3685 13.6386 46.5735 14.402C46.6844 14.8162 46.6559 15.3265 46.6675 15.7571C46.732 18.0341 46.6517 20.3142 46.4678 22.5796C45.7097 31.8972 42.7042 40.0611 35.0581 45.3135C32.8942 46.8001 30.4233 48.0025 27.9461 48.8742V54.0368C31.0504 52.9443 34.0728 51.4745 36.783 49.6123C39.4044 47.8118 41.4411 45.8888 43.2394 43.6298C48.2963 37.2775 50.3218 29.3392 50.9727 21.3386C51.2014 18.5206 51.3013 15.6858 51.221 12.853C51.2062 12.3178 51.2421 11.6833 51.1037 11.1683C50.8491 10.2184 49.9995 9.41535 49.0254 9.24207C48.7691 9.19663 48.5573 9.22358 48.3058 9.2109C47.0358 9.1475 45.752 9.07882 44.4904 8.88441C42.7734 8.62026 40.7712 8.09195 39.135 7.50765C36.1786 6.45316 33.5271 5.08803 31.1402 3.12644C30.0651 2.24312 29.4401 1.31331 27.9461 1.3186V6.48961Z" fill="url(#paint3_linear_17400_18736)"/>
<path d="M27.9466 6.49014C27.3346 6.52315 26.7491 6.75041 26.275 7.1389C25.9665 7.39301 25.6791 7.68358 25.3716 7.93663C23.4539 9.5115 21.3233 10.6104 18.9433 11.4593C17.6278 11.9285 16.0181 12.3538 14.6371 12.5661C13.6227 12.7225 12.591 12.7775 11.5692 12.8287C11.3669 12.8393 11.1973 12.8181 10.9907 12.8541C10.2078 12.993 9.5247 13.6391 9.31972 14.4025C9.20878 14.8167 9.23731 15.327 9.22463 15.7576C9.16123 18.0346 9.24048 20.3147 9.42538 22.5801C10.183 31.8978 13.1885 40.0616 20.8346 45.314C22.999 46.8006 25.4694 48.003 27.9466 48.8747V54.0373C24.8423 52.9448 21.8199 51.4751 19.1102 49.6128C16.4888 47.8123 14.4522 45.8893 12.6533 43.6303C7.59693 37.2775 5.57142 29.3397 4.92055 21.3386C4.69127 18.5206 4.59142 15.6858 4.67172 12.853C4.68652 12.3178 4.65059 11.6833 4.78901 11.1683C5.04418 10.2184 5.89368 9.41535 6.86735 9.24207C7.1241 9.19663 7.33542 9.22358 7.58689 9.2109C8.85746 9.1475 10.1412 9.07882 11.4023 8.88441C13.1193 8.62026 15.1215 8.09195 16.7577 7.50765C19.7141 6.45316 22.3656 5.08803 24.7525 3.12644C25.8281 2.24312 26.4526 1.31331 27.9466 1.3186V6.49014Z" fill="url(#paint4_linear_17400_18736)"/>
<path fill-rule="evenodd" clip-rule="evenodd" d="M33.9993 17.5625C35.2371 16.3246 37.2438 16.3246 38.4817 17.5625C39.7195 18.8004 39.7195 20.807 38.4817 22.0449L32.5266 28L38.5256 33.999C39.7635 35.2368 39.7633 37.2435 38.5256 38.4814C37.2877 39.7193 35.2811 39.7193 34.0432 38.4814L28.0442 32.4824L22.0452 38.4814C20.8073 39.7193 18.7996 39.7193 17.5618 38.4814C16.3243 37.2435 16.3241 35.2368 17.5618 33.999L23.5618 28.001L17.6057 22.0449C16.3682 20.8071 16.3682 18.8003 17.6057 17.5625C18.8436 16.3246 20.8512 16.3246 22.0891 17.5625L28.0442 23.5176L33.9993 17.5625Z" fill="url(#paint5_linear_17400_18736)"/>
<defs>
<linearGradient id="paint0_linear_17400_18736" x1="11.8123" y1="49.7633" x2="48.7046" y2="-16.7927" gradientUnits="userSpaceOnUse">
<stop offset="0.067" stop-color="#F942FF"/>
<stop offset="0.217" stop-color="#D03AFF"/>
<stop offset="0.496" stop-color="#892CFF"/>
<stop offset="0.729" stop-color="#5522FF"/>
<stop offset="0.904" stop-color="#351BFF"/>
<stop offset="1" stop-color="#2919FF"/>
</linearGradient>
<linearGradient id="paint1_linear_17400_18736" x1="25.3268" y1="3.95482" x2="36.3425" y2="66.427" gradientUnits="userSpaceOnUse">
<stop offset="0.046" stop-color="#F057F9"/>
<stop offset="0.209" stop-color="#B846FB"/>
<stop offset="0.381" stop-color="#8636FC"/>
<stop offset="0.542" stop-color="#5D29FD"/>
<stop offset="0.688" stop-color="#4120FE"/>
<stop offset="0.815" stop-color="#2F1BFF"/>
<stop offset="0.908" stop-color="#2919FF"/>
</linearGradient>
<linearGradient id="paint2_linear_17400_18736" x1="17.1313" y1="5.21482" x2="27.0951" y2="68.04" gradientUnits="userSpaceOnUse">
<stop offset="0.139" stop-color="#F942FF"/>
<stop offset="1" stop-color="#2919FF"/>
</linearGradient>
<linearGradient id="paint3_linear_17400_18736" x1="33.8356" y1="-3.31514" x2="46.2238" y2="74.8001" gradientUnits="userSpaceOnUse">
<stop stop-color="#EA00E1"/>
<stop offset="0.052" stop-color="#D303E5"/>
<stop offset="0.177" stop-color="#9F0AED"/>
<stop offset="0.301" stop-color="#750FF3"/>
<stop offset="0.42" stop-color="#5413F8"/>
<stop offset="0.534" stop-color="#3C17FC"/>
<stop offset="0.639" stop-color="#2E18FE"/>
<stop offset="0.729" stop-color="#2919FF"/>
</linearGradient>
<linearGradient id="paint4_linear_17400_18736" x1="9.60289" y1="3.6035" x2="46.0769" y2="69.4046" gradientUnits="userSpaceOnUse">
<stop offset="0.067" stop-color="#F942FF"/>
<stop offset="0.217" stop-color="#D03AFF"/>
<stop offset="0.496" stop-color="#892CFF"/>
<stop offset="0.729" stop-color="#5522FF"/>
<stop offset="0.904" stop-color="#351BFF"/>
<stop offset="1" stop-color="#2919FF"/>
</linearGradient>
<linearGradient id="paint5_linear_17400_18736" x1="28.0432" y1="12.676" x2="28.0432" y2="54.8003" gradientUnits="userSpaceOnUse">
<stop offset="0.114" stop-color="#FFEB49"/>
<stop offset="0.87" stop-color="#FF6600"/>
<stop offset="1" stop-color="#FB2872"/>
</linearGradient>
</defs>
</svg>
