<?xml version="1.0" encoding="UTF-8" standalone="no"?>
<!-- This Source Code Form is subject to the terms of the Mozilla Public
   - License, v. 2.0. If a copy of the MPL was not distributed with this
   - file, You can obtain one at https://mozilla.org/MPL/2.0/. -->
<svg width="56" height="56" viewBox="0 0 56 56" fill="none" xmlns="http://www.w3.org/2000/svg">
<path d="M51.3313 13.1199C51.3166 12.5842 51.3525 11.9497 51.2141 11.4346C50.9594 10.4847 50.1099 9.68168 49.1357 9.50839C48.8795 9.46296 48.6676 9.4899 48.4162 9.47722C47.1461 9.41383 45.8624 9.34515 44.6008 9.15073C42.8838 8.88658 40.8815 8.35828 39.2454 7.77398C36.289 6.71949 33.6375 5.35436 31.2506 3.39277C30.1755 2.50945 29.5505 1.5807 28.057 1.58492C26.563 1.57964 25.9385 2.50945 24.8629 3.39224C22.476 5.35383 19.8245 6.71896 16.8681 7.77345C15.2319 8.35722 13.2297 8.88605 11.5127 9.15021C10.2516 9.34462 8.96787 9.41277 7.6973 9.4767C7.44583 9.48938 7.23451 9.46243 6.97776 9.50839C6.0041 9.68115 5.15459 10.4842 4.89942 11.4341C4.761 11.9491 4.79693 12.5836 4.78214 13.1193C4.70183 15.9516 4.80168 18.7864 5.03097 21.6044C5.68183 29.6055 7.70734 37.5433 12.7632 43.8961C14.5621 46.1551 16.5987 48.0781 19.2201 49.8786C21.9298 51.7403 24.9516 53.2106 28.0559 54.3031C31.1602 53.2106 34.1821 51.7408 36.8923 49.8786C39.5138 48.0781 41.5504 46.1551 43.3482 43.8961C48.4056 37.5438 50.4311 29.6055 51.082 21.6049C51.3107 18.787 51.4111 15.9521 51.3303 13.1193L51.3313 13.1199Z" fill="url(#paint0_linear_17400_18727)"/>
<path d="M46.7779 16.0239C46.7663 15.5934 46.7948 15.0836 46.6839 14.6694C46.4789 13.9055 45.7953 13.2599 45.0123 13.1204C44.8063 13.0839 44.6362 13.1056 44.4339 13.0956C43.4127 13.0438 42.3804 12.9888 41.366 12.833C39.9856 12.6201 38.3758 12.1948 37.0604 11.7257C34.6798 10.8767 32.5492 9.77836 30.6314 8.20296C30.324 7.9499 30.0366 7.65934 29.7281 7.40575C29.2541 7.01701 28.6686 6.78956 28.0565 6.75647C27.4445 6.78948 26.859 7.01673 26.385 7.40522C26.077 7.65934 25.789 7.95043 25.4816 8.20296C23.5644 9.77836 21.4337 10.8767 19.0532 11.7257C17.7372 12.1948 16.128 12.6201 14.747 12.833C13.7332 12.9888 12.7009 13.0443 11.6797 13.0956C11.4773 13.1061 11.3072 13.0839 11.1012 13.1204C10.3177 13.2593 9.63462 13.9055 9.43016 14.6694C9.31922 15.0836 9.34722 15.5939 9.33507 16.0239C9.27114 18.3009 9.35145 20.5811 9.5353 22.8464C10.2934 32.1657 13.2984 40.3279 20.9445 45.5803C23.109 47.067 25.5793 48.2694 28.0565 49.1411C30.5337 48.2694 33.0046 47.067 35.1685 45.5803C42.8146 40.3279 45.8201 32.1646 46.5782 22.8464C46.7621 20.5811 46.8424 18.3009 46.7779 16.0239Z" fill="url(#paint1_linear_17400_18727)"/>
<path d="M28.0565 49.1405C25.5793 48.2694 23.109 47.067 20.9445 45.5803C13.2984 40.3279 10.2934 32.1651 9.5353 22.8464C9.35145 20.5811 9.27114 18.3009 9.33507 16.0239C9.34722 15.5934 9.31922 15.0836 9.43016 14.6694C9.63462 13.9055 10.3177 13.2593 11.1012 13.1204C11.3072 13.0839 11.4773 13.1056 11.6797 13.0956C12.7009 13.0438 13.7332 12.9888 14.747 12.833C16.128 12.6201 17.7372 12.1948 19.0532 11.7257C21.4337 10.8767 23.5644 9.77836 25.4816 8.20296C25.789 7.95043 26.077 7.65934 26.385 7.40522C26.859 7.01673 27.4445 6.78948 28.0565 6.75647V49.1405Z" fill="url(#paint2_linear_17400_18727)"/>
<path d="M23.8719 18.1267C23.6553 15.7018 25.564 13.6145 27.9979 13.6145C28.5722 13.6141 29.1402 13.7331 29.666 13.9641C30.1917 14.195 30.6637 14.5328 31.0519 14.9559C31.44 15.3791 31.736 15.8784 31.9208 16.4221C32.1056 16.9658 32.1754 17.5419 32.1255 18.114L30.8222 33.1675C30.763 33.869 30.4427 34.5228 29.9247 34.9997C29.4067 35.4765 28.7286 35.7416 28.0245 35.7426C27.3205 35.7436 26.6416 35.4804 26.1223 35.0051C25.6029 34.5297 25.2808 33.8768 25.2196 33.1754L23.8719 18.1267Z" fill="url(#paint3_linear_17400_18727)"/>
<path d="M27.9984 43.7101C28.747 43.7101 29.465 43.4127 29.9943 42.8834C30.5237 42.354 30.8211 41.636 30.8211 40.8874C30.8211 40.1388 30.5237 39.4208 29.9943 38.8915C29.465 38.3621 28.747 38.0647 27.9984 38.0647C27.2497 38.0647 26.5318 38.3621 26.0024 38.8915C25.4731 39.4208 25.1757 40.1388 25.1757 40.8874C25.1757 41.636 25.4731 42.354 26.0024 42.8834C26.5318 43.4127 27.2497 43.7101 27.9984 43.7101Z" fill="url(#paint4_linear_17400_18727)"/>
<path d="M28.0565 6.75594C28.6685 6.78895 29.254 7.0162 29.7281 7.4047C30.0366 7.65881 30.325 7.94938 30.6315 8.20243C32.5492 9.7773 34.6798 10.8762 37.0609 11.7251C38.3764 12.1943 39.9856 12.6196 41.3666 12.8319C42.3809 12.9883 43.4127 13.0433 44.4339 13.0945C44.6362 13.1051 44.8063 13.0839 45.0124 13.1199C45.7953 13.2588 46.4789 13.9049 46.6839 14.6683C46.7949 15.0825 46.7663 15.5928 46.778 16.0234C46.8424 18.3004 46.7621 20.5805 46.5783 22.8459C45.8201 32.1636 42.8146 40.3274 35.1685 45.5798C33.0046 47.0664 30.5337 48.2688 28.0565 49.1405V54.3031C31.1608 53.2106 34.1832 51.7408 36.8934 49.8786C39.5149 48.0781 41.5515 46.1551 43.3498 43.8961C48.4067 37.5438 50.4322 29.6055 51.0831 21.6049C51.3118 18.787 51.4117 15.9521 51.3314 13.1193C51.3166 12.5842 51.3525 11.9497 51.2141 11.4346C50.9595 10.4847 50.11 9.68168 49.1358 9.50839C48.8795 9.46296 48.6677 9.4899 48.4162 9.47722C47.1462 9.41383 45.8624 9.34515 44.6008 9.15073C42.8838 8.88658 40.8816 8.35828 39.2454 7.77398C36.289 6.71949 33.6375 5.35436 31.2506 3.39277C30.1755 2.50945 29.5506 1.57964 28.0565 1.58492V6.75594Z" fill="url(#paint5_linear_17400_18727)"/>
<path d="M28.057 6.75647C27.445 6.78948 26.8595 7.01673 26.3855 7.40522C26.0769 7.65934 25.7895 7.9499 25.4821 8.20296C23.5643 9.77783 21.4337 10.8767 19.0537 11.7257C17.7382 12.1948 16.1285 12.6201 14.7475 12.8325C13.7332 12.9888 12.7014 13.0438 11.6796 13.095C11.4773 13.1056 11.3077 13.0845 11.1012 13.1204C10.3182 13.2593 9.63512 13.9054 9.43014 14.6688C9.31919 15.083 9.34772 15.5934 9.33504 16.0239C9.27165 18.3009 9.35089 20.5811 9.5358 22.8464C10.2934 32.1641 13.2989 40.3279 20.945 45.5803C23.1095 47.067 25.5798 48.2694 28.057 49.1411V54.3036C24.9527 53.2111 21.9303 51.7414 19.2206 49.8791C16.5992 48.0787 14.5626 46.1556 12.7637 43.8966C7.70734 37.5438 5.68183 29.6061 5.03097 21.6049C4.80168 18.787 4.70183 15.9521 4.78214 13.1193C4.79693 12.5842 4.761 11.9497 4.89942 11.4346C5.15459 10.4847 6.0041 9.68168 6.97776 9.50839C7.23451 9.46296 7.44583 9.4899 7.6973 9.47722C8.96787 9.41383 10.2516 9.34515 11.5127 9.15073C13.2297 8.88658 15.2319 8.35828 16.8681 7.77398C19.8245 6.71949 22.476 5.35436 24.8629 3.39277C25.9385 2.50945 26.563 1.57964 28.057 1.58492V6.75647Z" fill="url(#paint6_linear_17400_18727)"/>
<defs>
<linearGradient id="paint0_linear_17400_18727" x1="11.9227" y1="50.0297" x2="48.815" y2="-16.5263" gradientUnits="userSpaceOnUse">
<stop offset="0.067" stop-color="#F942FF"/>
<stop offset="0.217" stop-color="#D03AFF"/>
<stop offset="0.496" stop-color="#892CFF"/>
<stop offset="0.729" stop-color="#5522FF"/>
<stop offset="0.904" stop-color="#351BFF"/>
<stop offset="1" stop-color="#2919FF"/>
</linearGradient>
<linearGradient id="paint1_linear_17400_18727" x1="25.4372" y1="4.22115" x2="36.4528" y2="66.6934" gradientUnits="userSpaceOnUse">
<stop offset="0.046" stop-color="#F057F9"/>
<stop offset="0.209" stop-color="#B846FB"/>
<stop offset="0.381" stop-color="#8636FC"/>
<stop offset="0.542" stop-color="#5D29FD"/>
<stop offset="0.688" stop-color="#4120FE"/>
<stop offset="0.815" stop-color="#2F1BFF"/>
<stop offset="0.908" stop-color="#2919FF"/>
</linearGradient>
<linearGradient id="paint2_linear_17400_18727" x1="17.2416" y1="5.48115" x2="27.2054" y2="68.3063" gradientUnits="userSpaceOnUse">
<stop offset="0.139" stop-color="#F942FF"/>
<stop offset="1" stop-color="#2919FF"/>
</linearGradient>
<linearGradient id="paint3_linear_17400_18727" x1="27.9979" y1="9.76896" x2="27.9979" y2="50.6955" gradientUnits="userSpaceOnUse">
<stop offset="0.114" stop-color="#FFEB49"/>
<stop offset="0.87" stop-color="#FF6600"/>
<stop offset="1" stop-color="#FB2872"/>
</linearGradient>
<linearGradient id="paint4_linear_17400_18727" x1="27.9984" y1="34.9578" x2="27.9984" y2="48.7068" gradientUnits="userSpaceOnUse">
<stop stop-color="#FFEB49"/>
<stop offset="0.062" stop-color="#FFDA40"/>
<stop offset="0.272" stop-color="#FFA824"/>
<stop offset="0.456" stop-color="#FF8410"/>
<stop offset="0.605" stop-color="#FF6E04"/>
<stop offset="0.7" stop-color="#FF6600"/>
<stop offset="1" stop-color="#FB2872"/>
</linearGradient>
<linearGradient id="paint5_linear_17400_18727" x1="33.946" y1="-3.04881" x2="46.3342" y2="75.0664" gradientUnits="userSpaceOnUse">
<stop stop-color="#EA00E1"/>
<stop offset="0.052" stop-color="#D303E5"/>
<stop offset="0.177" stop-color="#9F0AED"/>
<stop offset="0.301" stop-color="#750FF3"/>
<stop offset="0.42" stop-color="#5413F8"/>
<stop offset="0.534" stop-color="#3C17FC"/>
<stop offset="0.639" stop-color="#2E18FE"/>
<stop offset="0.729" stop-color="#2919FF"/>
</linearGradient>
<linearGradient id="paint6_linear_17400_18727" x1="9.71331" y1="3.86983" x2="46.1873" y2="69.6709" gradientUnits="userSpaceOnUse">
<stop offset="0.067" stop-color="#F942FF"/>
<stop offset="0.217" stop-color="#D03AFF"/>
<stop offset="0.496" stop-color="#892CFF"/>
<stop offset="0.729" stop-color="#5522FF"/>
<stop offset="0.904" stop-color="#351BFF"/>
<stop offset="1" stop-color="#2919FF"/>
</linearGradient>
</defs>
</svg>
