<?xml version="1.0" encoding="UTF-8" standalone="no"?>
<!-- This Source Code Form is subject to the terms of the Mozilla Public
   - License, v. 2.0. If a copy of the MPL was not distributed with this
   - file, You can obtain one at https://mozilla.org/MPL/2.0/. -->
<svg width="56" height="56" viewBox="0 0 56 56" fill="none" xmlns="http://www.w3.org/2000/svg">
<g clip-path="url(#clip0_17400_18717)">
<mask id="mask0_17400_18717" style="mask-type:luminance" maskUnits="userSpaceOnUse" x="4" y="0" width="54" height="56">
<path d="M4.7547 0H57.5849V56H4.7547V0Z" fill="white"/>
</mask>
<g mask="url(#mask0_17400_18717)">
<path d="M51.8137 13.3042C51.7984 12.7632 51.8348 12.1219 51.6948 11.602C51.437 10.6421 50.5791 9.83063 49.5948 9.65629C49.336 9.61033 49.122 9.63728 48.8679 9.6246C47.5846 9.55962 46.2871 9.49094 45.0129 9.29494C43.2779 9.02762 41.2556 8.4935 39.602 7.90392C36.615 6.83833 33.936 5.45894 31.5243 3.47728C30.4381 2.58497 29.8062 1.64512 28.2974 1.65094C26.788 1.64565 26.1567 2.58497 25.0705 3.47728C22.6588 5.45894 19.9798 6.83886 16.9928 7.90445C15.3397 8.4935 13.3174 9.02762 11.5819 9.29494C10.3077 9.49094 9.01068 9.56014 7.72691 9.6246C7.47332 9.63728 7.25936 9.61033 6.99996 9.65629C6.01574 9.83116 5.15777 10.6426 4.89996 11.602C4.76049 12.1224 4.79642 12.7632 4.78109 13.3042C4.70026 16.166 4.80117 19.0305 5.03257 21.877C5.68977 29.9605 7.73642 37.9807 12.8462 44.3985C14.6635 46.6813 16.7202 48.6238 19.3691 50.4433C22.1073 52.3241 25.1609 53.8097 28.2974 54.9133C31.4334 53.8097 34.487 52.3246 37.2246 50.4438C39.873 48.6238 41.9308 46.6813 43.7481 44.3985C48.8573 37.9807 50.904 29.96 51.5622 21.877C51.7931 19.0305 51.8945 16.166 51.8137 13.3042Z" fill="url(#paint0_linear_17400_18717)"/>
<path d="M28.2985 49.6984C25.7959 48.8183 23.2997 47.6037 21.113 46.1017C13.3877 40.7949 10.3515 32.5471 9.58548 23.1328C9.39952 20.8441 9.31816 18.5402 9.38314 16.2395C9.39529 15.8047 9.36624 15.2885 9.47824 14.8706C9.68586 14.0988 10.3764 13.4463 11.1672 13.3058C11.3754 13.2688 11.5471 13.29 11.7515 13.2804C12.7833 13.2276 13.8262 13.1732 14.8511 13.0152C16.2458 12.8002 17.8724 12.3707 19.2016 11.8968C21.6065 11.0394 23.7593 9.9289 25.6966 8.33766C26.0072 8.08249 26.2978 7.78822 26.6095 7.532C27.0885 7.13945 27.6801 6.9098 28.2985 6.87637V49.6984Z" fill="url(#paint1_linear_17400_18717)"/>
<path d="M28.2985 6.87637C28.9168 6.90972 29.5084 7.13918 29.9874 7.53147C30.2991 7.78875 30.5897 8.08249 30.8998 8.33766C32.8376 9.92943 34.9905 11.0394 37.3953 11.8968C38.724 12.3707 40.3501 12.8002 41.7459 13.0152C42.7697 13.1732 43.8131 13.2281 44.8449 13.2804C45.0493 13.291 45.221 13.2688 45.4292 13.3058C46.2211 13.4463 46.9111 14.0983 47.1182 14.8706C47.2302 15.2891 47.2011 15.8041 47.2133 16.2389C47.2788 18.5402 47.1974 20.8436 47.0114 23.1328C46.2454 32.5471 43.2087 40.7955 35.4839 46.1017C33.2967 47.6037 30.801 48.8188 28.2985 49.6984V6.87637Z" fill="url(#paint2_linear_17400_18717)"/>
<path d="M28.2979 6.87531C28.9163 6.90881 29.5079 7.13846 29.9869 7.53094C30.2986 7.78769 30.5892 8.08143 30.8993 8.3366C32.8371 9.92837 34.9899 11.0383 37.3948 11.8958C38.724 12.3697 40.3496 12.7992 41.7448 13.0142C42.7697 13.1727 43.8131 13.2271 44.8449 13.2794C45.0488 13.29 45.221 13.2678 45.4286 13.3047C46.2206 13.4453 46.9105 14.0977 47.1176 14.8696C47.2296 15.288 47.2006 15.8031 47.2127 16.2384C47.2777 18.5392 47.1969 20.8426 47.0104 23.1317C46.2454 32.546 43.2087 40.7944 35.4828 46.1007C33.2962 47.6026 30.8 48.8177 28.2979 49.6974V54.9138C31.4345 53.8102 34.488 52.3251 37.2257 50.4444C39.8736 48.6244 41.9318 46.6818 43.7492 44.399C48.8573 37.9812 50.905 29.9605 51.5622 21.877C51.7936 19.0305 51.8945 16.166 51.8137 13.3042C51.7979 12.7632 51.8343 12.1224 51.6948 11.602C51.4365 10.6421 50.5791 9.83063 49.5948 9.65629C49.336 9.61033 49.122 9.63728 48.8674 9.6246C47.5846 9.55962 46.2871 9.49094 45.0129 9.29494C43.2774 9.02762 41.2556 8.4935 39.6015 7.90392C36.615 6.83833 33.936 5.45894 31.5237 3.47728C30.4376 2.58497 29.8068 1.64512 28.2969 1.65094L28.2979 6.87584V6.87531Z" fill="url(#paint3_linear_17400_18717)"/>
<path d="M28.2979 6.87478C27.6796 6.90828 27.088 7.13793 26.609 7.53041C26.2973 7.78716 26.0067 8.0809 25.696 8.33607C23.7588 9.92784 21.6059 11.0378 19.2011 11.8952C17.8719 12.3691 16.2458 12.7986 14.8505 13.0137C13.8262 13.1721 12.7828 13.2266 11.751 13.2789C11.5465 13.2894 11.3748 13.2672 11.1667 13.3042C10.3753 13.4447 9.68533 14.0972 9.47824 14.8691C9.36624 15.2875 9.39476 15.8026 9.38314 16.2379C9.31763 18.5386 9.39899 20.842 9.58495 23.1312C10.351 32.5455 13.3871 40.7939 21.1125 46.1001C23.2997 47.6021 25.7954 48.8172 28.2979 49.6968V54.9133C25.1614 53.8097 22.1078 52.3246 19.3702 50.4438C16.7218 48.6238 14.664 46.6813 12.8467 44.3985C7.73801 37.9812 5.69137 29.9605 5.03363 21.877C4.80224 19.0305 4.70186 16.166 4.78216 13.3042C4.79801 12.7632 4.76156 12.1224 4.90103 11.602C5.15884 10.6421 6.0168 9.83063 7.00103 9.65629C7.2599 9.61033 7.47386 9.63728 7.72797 9.6246C9.01175 9.55962 10.3087 9.49094 11.583 9.29494C13.3179 9.02762 15.3403 8.4935 16.9939 7.90392C19.9809 6.83833 22.6599 5.45894 25.0716 3.47728C26.1578 2.58497 26.7891 1.64512 28.2985 1.65094V6.87584L28.2979 6.87478Z" fill="url(#paint4_linear_17400_18717)"/>
<path d="M57.3635 1.09253C43.9378 4.84823 36.0666 13.8246 31.8307 20.4469C28.9356 24.9713 27.7374 28.3968 27.6238 28.3091C26.8301 27.6937 26.0201 27.0997 25.1947 26.5276C16.4154 20.4522 10.7784 20.5457 10.4286 21.4063C10.4286 21.4063 14.9155 24.9469 21.8437 35.2436C23.6727 37.9622 26.2191 43.6034 27.9191 43.8718C30.165 44.2268 32.3632 43.1971 36.4792 34.1716C40.0368 26.3707 40.516 23.8032 43.9758 17.752C48.3676 10.0726 55.5541 3.19518 57.532 1.37465C57.661 1.25578 57.5342 1.04446 57.3635 1.09253Z" fill="url(#paint5_linear_17400_18717)"/>
<path d="M30.9743 30.7493C30.9743 30.7493 33.6221 26.1837 33.0421 22.6768C32.9195 21.9356 32.4646 21.1722 31.8254 20.4284C29.8448 23.5374 28.4427 26.5947 27.9075 27.7813C27.7585 28.1115 27.6396 28.3128 27.6396 28.3128L30.9743 30.7493Z" fill="url(#paint6_linear_17400_18717)"/>
</g>
</g>
<defs>
<linearGradient id="paint0_linear_17400_18717" x1="39.9797" y1="0.114104" x2="2.70487" y2="67.3595" gradientUnits="userSpaceOnUse">
<stop offset="0.067" stop-color="#F742FD"/>
<stop offset="0.211" stop-color="#CF3AFD"/>
<stop offset="0.493" stop-color="#882CFD"/>
<stop offset="0.727" stop-color="#5521FD"/>
<stop offset="0.903" stop-color="#351BFD"/>
<stop offset="1" stop-color="#2919FD"/>
</linearGradient>
<linearGradient id="paint1_linear_17400_18717" x1="17.3716" y1="5.58679" x2="27.4384" y2="69.0623" gradientUnits="userSpaceOnUse">
<stop offset="0.139" stop-color="#F742FD"/>
<stop offset="1" stop-color="#2919FD"/>
</linearGradient>
<linearGradient id="paint2_linear_17400_18717" x1="32.5687" y1="3.11803" x2="43.6926" y2="66.2052" gradientUnits="userSpaceOnUse">
<stop offset="0.046" stop-color="#ED58F7"/>
<stop offset="0.203" stop-color="#B847F8"/>
<stop offset="0.375" stop-color="#8536FA"/>
<stop offset="0.538" stop-color="#5D29FB"/>
<stop offset="0.686" stop-color="#4020FC"/>
<stop offset="0.814" stop-color="#2F1AFC"/>
<stop offset="0.908" stop-color="#2919FD"/>
</linearGradient>
<linearGradient id="paint3_linear_17400_18717" x1="34.2482" y1="-3.03088" x2="46.7647" y2="75.8927" gradientUnits="userSpaceOnUse">
<stop stop-color="#E801DF"/>
<stop offset="0.048" stop-color="#D203E2"/>
<stop offset="0.174" stop-color="#9F0AEB"/>
<stop offset="0.298" stop-color="#740FF2"/>
<stop offset="0.418" stop-color="#5313F7"/>
<stop offset="0.533" stop-color="#3C16FB"/>
<stop offset="0.639" stop-color="#2D18FE"/>
<stop offset="0.729" stop-color="#2919FF"/>
</linearGradient>
<linearGradient id="paint4_linear_17400_18717" x1="9.76511" y1="3.95856" x2="46.6163" y2="70.4401" gradientUnits="userSpaceOnUse">
<stop offset="0.067" stop-color="#F742FD"/>
<stop offset="0.211" stop-color="#CF3AFD"/>
<stop offset="0.493" stop-color="#882CFD"/>
<stop offset="0.727" stop-color="#5521FD"/>
<stop offset="0.903" stop-color="#351BFD"/>
<stop offset="1" stop-color="#2919FD"/>
</linearGradient>
<linearGradient id="paint5_linear_17400_18717" x1="14.709" y1="36.679" x2="66.8302" y2="-2.41063" gradientUnits="userSpaceOnUse">
<stop offset="0.088" stop-color="#FFEB49"/>
<stop offset="0.568" stop-color="#FF6600"/>
<stop offset="0.614" stop-color="#FE6009"/>
<stop offset="0.691" stop-color="#FD5322"/>
<stop offset="0.789" stop-color="#FC3C4C"/>
<stop offset="0.868" stop-color="#FB2872"/>
</linearGradient>
<linearGradient id="paint6_linear_17400_18717" x1="30.7698" y1="25.7922" x2="24.8185" y2="27.7115" gradientUnits="userSpaceOnUse">
<stop stop-color="#FC2B32" stop-opacity="0"/>
<stop offset="0.999" stop-color="#FD0174"/>
</linearGradient>
<clipPath id="clip0_17400_18717">
<rect width="56" height="56" fill="white"/>
</clipPath>
</defs>
</svg>
