<?xml version="1.0" encoding="UTF-8" standalone="no"?>
<!-- This Source Code Form is subject to the terms of the Mozilla Public
   - License, v. 2.0. If a copy of the MPL was not distributed with this
   - file, You can obtain one at https://mozilla.org/MPL/2.0/. -->

<svg
   width="71.982414"
   height="76"
   viewBox="0 0 71.982414 76"
   fill="none"
   version="1.1"
   id="svg88"
   xmlns="http://www.w3.org/2000/svg"
   xmlns:svg="http://www.w3.org/2000/svg">
  <g
     clip-path="url(#clip0_15630_13874)"
     id="g18"
     transform="matrix(0.75185738,0,0,0.75185738,-0.0029862,0)">
    <path
       d="m 1.58645,56.0789 c 0.66698,-3.496 7.06087,-5.2669 10.28655,-9.1826 1.8917,-2.2942 1.6617,-9.3954 1.7595,-12.0518 0,-0.0403 0,-0.0805 0,-0.1208 0.1552,-4.0364 0.4887,-7.2448 1.3225,-14.6737 0.7877,-7.0379 2.7714,-12.73604 5.7614,-14.02402 2.7714,-1.19597 6.6698,2.13897 12.0575,8.29132 3.1854,3.6397 3.9847,4.715 5.8764,7.1932 0.207,0.2702 0.3335,0.529 0.5175,0.736 0.2932,0.3334 0.736,0.5462 1.8917,0.4944 0.253,-0.0115 0.4657,-0.0517 0.644,-0.1207 1.4087,-0.5462 0.713,-3.082 1.7307,-10.7753 C 44.4174,4.39876 46.3034,-0.0229103 49.7419,8.92857e-5 52.7318,0.017339 58.384,6.13523 62.8574,11.7989 c 3.7029,4.6919 3.9904,5.1806 5.4279,6.8596 1.6732,1.9607 4.4964,5.6924 7.3369,9.0791 2.5874,3.082 5.1806,5.8822 6.9171,6.8021 4.6287,2.4437 7.2794,1.035 8.8376,3.4672 1.3915,2.1792 -2.0297,2.2425 -1.5295,2.8347 0.069,0.0805 0.161,0.138 0.2645,0.1898 -7.7969,1.5754 -11.2583,9.8381 -14.4955,8.1073 -0.8912,-1.8227 -1.955,-3.0417 -3.2544,-3.7777 -1.8573,-1.0464 -4.1802,-1.1154 -7.1414,-0.5807 -4.3987,0.7992 -9.6483,4.8184 -13.6963,9.6023 -0.4485,0.529 -0.8855,1.0638 -1.2995,1.61 -0.1839,0.2415 -0.3219,0.4945 -0.4312,0.7475 -1.2362,1.4547 -1.8342,1.7882 -2.9037,1.4835 C 32.8429,54.2216 21.5788,53.4512 3.67365,58.1373 3.59891,57.5911 1.2702,57.6831 1.57494,56.0846 Z M 40.22,44.6538 c 1.0465,4.0307 3.2775,4.8587 5.0024,4.2837 1.2823,-0.4255 3.3292,-1.9607 2.3402,-5.9397 -0.5462,-2.1964 -0.8624,-3.2602 -1.4087,-3.4729 -0.3277,-0.1265 -1.127,0.4197 -1.8515,0.759 -2.2309,1.0407 -3.7029,1.6617 -4.3181,2.3229 -0.3105,0.3335 0.0805,1.4433 0.2357,2.0413 z"
       fill="url(#paint0_linear_15630_13874)"
       id="path1"
       style="fill:url(#paint0_linear_15630_13874)" />
    <path
       opacity="0.7"
       d="m 35.4312,44.6969 c 0,0 8.7859,-4.6747 11.7643,-5.9799 3.036,-1.3282 5.2094,-2.8577 6.6412,-3.7029 3.5131,-2.0585 0.299,-9.2746 7.4346,-11.4538 6.8309,-2.0872 24.0346,8.1016 13.1557,19.8026 -10.8788,11.6953 -32.9009,13.518 -36.8798,9.7749 -3.9789,-3.7432 -2.2367,-7.9809 -2.116,-8.4466 z"
       fill="url(#paint1_radial_15630_13874)"
       id="path2"
       style="fill:url(#paint1_radial_15630_13874)" />
    <path
       opacity="0.7"
       d="m 70.8909,27.1489 c -3.1394,-3.1395 -7.6589,-5.5084 -11.7355,-3.0417 -4.0825,2.4667 -4.0882,7.9923 -3.3292,10.5568 0.759,2.5644 2.3747,7.0034 3.4154,8.0499 1.0465,1.0464 7.8141,-2.4035 11.5113,-5.06 3.703,-2.6564 5.7327,-4.9046 0.138,-10.4993 z"
       fill="url(#paint2_radial_15630_13874)"
       id="path3"
       style="fill:url(#paint2_radial_15630_13874)" />
    <path
       d="m 65.171,23.4712 c -1.9722,-0.6095 -4.0422,-0.552 -6.0144,0.6382 -0.2185,0.1323 -0.4197,0.276 -0.6152,0.4255 -6.3019,-1.1385 -14.1908,-1.7307 -16.8357,-1.9032 1.4087,-0.5462 0.7129,-3.082 1.7307,-10.7753 C 44.4196,4.39876 46.3056,-0.0229103 49.744,8.92855e-5 52.734,0.017339 58.3861,6.13523 62.8595,11.7989 c 3.703,4.6919 3.9905,5.1806 5.4279,6.8596 1.6733,1.9607 4.4965,5.6924 7.3369,9.0791 l -1.8227,-0.069 c -2.5127,-2.208 -5.7787,-3.7144 -8.6306,-4.1974 z"
       fill="url(#paint3_linear_15630_13874)"
       id="path4"
       style="fill:url(#paint3_linear_15630_13874)" />
    <path
       d="m 13.6378,34.7218 c 0.1553,-4.0364 0.4888,-7.2449 1.3225,-14.6737 0.7877,-7.0379 2.7715,-12.73606 5.7614,-14.02404 2.7715,-1.19597 6.6699,2.13897 12.0575,8.29134 3.1855,3.6397 3.9847,4.7149 5.8764,7.1931 0.207,0.2703 0.3335,0.529 0.5175,0.736 -1.9204,0.736 -6.1811,2.3747 -10.4303,4.094 -6.7446,2.7197 -12.391,6.4514 -15.0992,8.3833 z"
       fill="url(#paint4_linear_15630_13874)"
       id="path5"
       style="fill:url(#paint4_linear_15630_13874)" />
    <path
       d="M 16.3583,71.3446 C 12.7991,69.0964 6.33625,72.0519 4.67453,69.1654 3.8063,67.6589 6.4225,66.7389 6.03151,65.474 5.57726,64.0077 0.0976181,66.3824 0.00561523,63.3235 -0.0691299,60.8683 2.42632,59.3158 3.2773,58.6661 3.5878,58.4303 3.69705,58.2636 3.6798,58.1313 21.585,53.4394 32.849,54.2157 46.896,58.2176 c 1.0638,0.3047 1.6675,-0.0288 2.9037,-1.4835 -2.0009,4.6459 8.6364,10.5396 15.2545,9.0906 11.9368,-2.6104 13.1615,-11.0513 10.7178,-16.3815 -0.0517,-0.1092 -0.1035,-0.207 -0.1552,-0.3105 3.2372,1.7308 6.6929,-6.5261 14.4955,-8.1073 1.2132,0.6095 4.7437,-0.2703 5.3876,2.1677 0.5693,2.1735 -3.6971,2.093 -3.4901,3.0992 0.2817,1.3685 3.3521,1.3627 3.6051,2.7427 0.6498,3.4614 -0.8797,0.529 -11.241,12.0805 -5.5199,6.1524 -11.5746,18.2502 -12.989,27.0361 -0.552,3.4097 -1.5123,8.3086 -1.9608,12.9374 h -9.6195 c -0.5405,-9.9647 -6.7274,-15.0649 -6.7274,-15.0649 0,0 -7.3771,4.2204 -10.1831,15.0649 H 10.6199 c 1.265,-5.2326 3.2947,-9.3667 5.1232,-13.2709 3.1279,-6.6757 6.8481,-12.5291 0.6152,-16.4677 z"
       fill="url(#paint5_linear_15630_13874)"
       id="path6"
       style="fill:url(#paint5_linear_15630_13874)" />
    <path
       opacity="0.6"
       d="M 16.3583,71.3446 C 12.7991,69.0964 6.33625,72.0519 4.67453,69.1654 3.8063,67.6589 6.4225,66.7389 6.03151,65.474 5.57726,64.0077 0.0976181,66.3824 0.00561523,63.3235 -0.0691299,60.8683 2.42632,59.3158 3.2773,58.6661 3.5878,58.4303 3.69705,58.2636 3.6798,58.1313 21.585,53.4394 32.849,54.2157 46.896,58.2176 c 1.0638,0.3047 1.6675,-0.0288 2.9037,-1.4835 -2.0009,4.6459 8.6364,10.5396 15.2545,9.0906 11.9368,-2.6104 13.1615,-11.0513 10.7178,-16.3815 -0.0517,-0.1092 -0.1035,-0.207 -0.1552,-0.3105 3.2372,1.7308 6.6929,-6.5261 14.4955,-8.1073 1.2132,0.6095 4.7437,-0.2703 5.3876,2.1677 0.5693,2.1735 -3.6971,2.093 -3.4901,3.0992 0.2817,1.3685 3.3521,1.3627 3.6051,2.7427 0.6498,3.4614 -0.8797,0.529 -11.241,12.0805 -5.5199,6.1524 -11.5746,18.2502 -12.989,27.0361 -0.552,3.4097 -1.5123,8.3086 -1.9608,12.9374 h -9.6195 c -0.5405,-9.9647 -6.7274,-15.0649 -6.7274,-15.0649 0,0 -7.3771,4.2204 -10.1831,15.0649 H 10.6199 c 1.265,-5.2326 3.2947,-9.3667 5.1232,-13.2709 3.1279,-6.6757 6.8481,-12.5291 0.6152,-16.4677 z"
       fill="url(#paint6_linear_15630_13874)"
       id="path7"
       style="fill:url(#paint6_linear_15630_13874)" />
    <path
       d="m 51.5257,54.3782 c 4.0479,-4.7839 9.2918,-8.7974 13.6962,-9.6024 2.9612,-0.5404 5.2899,-0.4657 7.1414,0.5808 1.2995,0.7302 2.3632,1.9492 3.2544,3.7777 0.0518,0.1035 0.1035,0.2012 0.1553,0.3105 2.4437,5.3301 1.219,13.771 -10.7178,16.3814 -6.6239,1.449 -17.2555,-4.4504 -15.2545,-9.0906 0.1092,-0.253 0.2472,-0.5002 0.4312,-0.7474 0.414,-0.5463 0.851,-1.081 1.2995,-1.61 z m 15.7489,-8.9641 c -2.0757,0.1725 -3.0589,1.3282 -3.2429,2.2539 -0.2588,1.2995 1.495,3.4212 4.2377,3.1912 2.8864,-0.2415 3.7029,-2.7254 3.1509,-3.8409 -0.4427,-0.9027 -1.7997,-1.7997 -4.1514,-1.61 z"
       fill="#ffc635"
       id="path8" />
    <path
       d="m 68.2735,50.8596 c -2.7427,0.23 -4.4964,-1.8917 -4.2377,-3.1912 0.184,-0.9258 1.1672,-2.0815 3.243,-2.254 2.3459,-0.1897 3.7086,0.7015 4.1514,1.61 0.5462,1.1155 -0.2703,3.5994 -3.151,3.8409 z"
       fill="#00073a"
       id="path9" />
    <path
       d="m 45.2182,48.9431 c -1.725,0.575 -3.956,-0.253 -5.0024,-4.2837 -0.1553,-0.598 -0.5463,-1.7077 -0.2358,-2.0412 0.6152,-0.667 2.0872,-1.2823 4.3182,-2.323 0.7245,-0.3392 1.5237,-0.8855 1.8515,-0.759 0.5462,0.207 0.8624,1.2708 1.4087,3.473 0.989,3.9789 -1.058,5.5084 -2.3402,5.9396 z m 2.1044,-4.5022 c -0.1322,-0.7072 -0.8165,-1.173 -1.5237,-1.0407 -0.7072,0.1322 -1.173,0.8164 -1.0407,1.5237 0.1322,0.7072 0.8165,1.173 1.5237,1.0407 0.7072,-0.1322 1.173,-0.8165 1.0407,-1.5237 z"
       fill="url(#paint7_linear_15630_13874)"
       id="path10"
       style="fill:url(#paint7_linear_15630_13874)" />
    <path
       opacity="0.7"
       d="m 45.2182,48.9431 c -1.725,0.575 -3.956,-0.253 -5.0024,-4.2837 -0.1553,-0.598 -0.5463,-1.7077 -0.2358,-2.0412 0.6152,-0.667 2.0872,-1.2823 4.3182,-2.323 0.7245,-0.3392 1.5237,-0.8855 1.8515,-0.759 0.5462,0.207 0.8624,1.2708 1.4087,3.473 0.989,3.9789 -1.058,5.5084 -2.3402,5.9396 z m 2.1044,-4.5022 c -0.1322,-0.7072 -0.8165,-1.173 -1.5237,-1.0407 -0.7072,0.1322 -1.173,0.8164 -1.0407,1.5237 0.1322,0.7072 0.8165,1.173 1.5237,1.0407 0.7072,-0.1322 1.173,-0.8165 1.0407,-1.5237 z"
       fill="url(#paint8_radial_15630_13874)"
       id="path11"
       style="fill:url(#paint8_radial_15630_13874)" />
    <path
       d="m 45.2182,48.9431 c -1.725,0.575 -3.956,-0.253 -5.0024,-4.2837 -0.1553,-0.598 -0.5463,-1.7077 -0.2358,-2.0412 0.6152,-0.667 2.0872,-1.2823 4.3182,-2.323 0.7245,-0.3392 1.5237,-0.8855 1.8515,-0.759 0.5462,0.207 0.8624,1.2708 1.4087,3.473 0.989,3.9789 -1.058,5.5084 -2.3402,5.9396 z m 2.1044,-4.5022 c -0.1322,-0.7072 -0.8165,-1.173 -1.5237,-1.0407 -0.7072,0.1322 -1.173,0.8164 -1.0407,1.5237 0.1322,0.7072 0.8165,1.173 1.5237,1.0407 0.7072,-0.1322 1.173,-0.8165 1.0407,-1.5237 z"
       fill="url(#paint9_linear_15630_13874)"
       id="path12"
       style="fill:url(#paint9_linear_15630_13874)" />
    <path
       d="m 44.7588,44.9208 c -0.1322,-0.7071 0.3334,-1.3911 1.0404,-1.5234 0.7071,-0.1322 1.3912,0.3334 1.5234,1.0405 0.1322,0.7071 -0.3334,1.3911 -1.0405,1.5233 -0.707,0.1322 -1.3911,-0.3334 -1.5233,-1.0404 z"
       fill="#ffffff"
       id="path13" />
    <path
       d="m 53.0766,86.0156 c 0,0 6.1869,5.1059 6.7274,15.0644 H 42.8935 C 45.6995,90.236 53.0766,86.0156 53.0766,86.0156 Z"
       fill="#ffb029"
       id="path14" />
    <path
       d="m 69.0695,35.7857 c 0.6668,-0.184 1.3567,0.2069 1.5406,0.8737 0.1839,0.6669 -0.2069,1.3567 -0.8738,1.5406 -0.6668,0.184 -1.3566,-0.2069 -1.5405,-0.8737 -0.184,-0.6669 0.2069,-1.3567 0.8737,-1.5406 z"
       fill="#ffffff"
       id="path15" />
    <path
       d="m 66.3151,29.6558 c 2.0642,-0.069 3.7087,2.231 4.8357,5.5717 0.2357,0.6957 0.3622,1.2994 0.4082,1.8284 0.207,2.3517 -1.2075,3.2085 -2.2252,3.542 -0.6095,0.2012 -1.771,0.437 -2.9497,-0.2415 -0.9027,-0.5175 -1.8112,-1.5698 -2.4955,-3.5765 -1.4949,-4.4044 -1.0292,-7.0033 2.4207,-7.1241 z m 4.2952,7.0034 c -0.184,-0.667 -0.874,-1.058 -1.541,-0.874 -0.667,0.184 -1.058,0.874 -0.874,1.541 0.184,0.667 0.874,1.058 1.541,0.874 0.667,-0.184 1.058,-0.874 0.874,-1.541 z"
       fill="url(#paint10_linear_15630_13874)"
       id="path16"
       style="fill:url(#paint10_linear_15630_13874)" />
    <path
       d="M 84.911,20.3344 84.9268,2.78924 C 84.9221,1.49783 86.029,0.482581 87.3041,0.612483 l 5.7995,0.590807 c 1.2751,0.1299 2.1546,1.34749 1.8883,2.62384 L 91.3713,21.005 c -0.2351,1.0916 -1.2393,1.829 -2.3306,1.7178 L 86.846,22.4992 c -1.1035,-0.1124 -1.9371,-1.0496 -1.935,-2.1648 z"
       fill="url(#paint11_linear_15630_13874)"
       id="path17"
       style="fill:url(#paint11_linear_15630_13874)" />
    <path
       d="m 87.7076,24.9487 c 1.6143,0.1644 2.8368,1.6822 2.6704,3.3154 -0.1743,1.7114 -1.6508,2.974 -3.2941,2.8066 -1.7302,-0.1763 -2.9344,-1.6823 -2.757,-3.4231 0.1773,-1.7407 1.6891,-2.8713 3.3807,-2.6989 z"
       fill="#271aff"
       id="path18" />
  </g>
  <defs
     id="defs88">
    <linearGradient
       id="paint0_linear_15630_13874"
       x1="46.9244"
       y1="12.5349"
       x2="45.992901"
       y2="124.98"
       gradientUnits="userSpaceOnUse">
      <stop
         stop-color="#FE5B15"
         id="stop18" />
      <stop
         offset="0.07"
         stop-color="#FE6F0E"
         id="stop19" />
      <stop
         offset="0.21"
         stop-color="#FE8F03"
         id="stop20" />
      <stop
         offset="0.29"
         stop-color="#FF9C00"
         id="stop21" />
      <stop
         offset="0.52"
         stop-color="#FF6600"
         id="stop22" />
      <stop
         offset="0.86"
         stop-color="#FB2872"
         id="stop23" />
    </linearGradient>
    <radialGradient
       id="paint1_radial_15630_13874"
       cx="0"
       cy="0"
       r="1"
       gradientUnits="userSpaceOnUse"
       gradientTransform="matrix(-16.6517,0,0,-20.9812,41.4226,28.0404)">
      <stop
         stop-color="#D81F60"
         stop-opacity="0.5"
         id="stop24" />
      <stop
         offset="0.22"
         stop-color="#D81F60"
         stop-opacity="0.49"
         id="stop25" />
      <stop
         offset="0.39"
         stop-color="#D81F60"
         stop-opacity="0.44"
         id="stop26" />
      <stop
         offset="0.54"
         stop-color="#D81F60"
         stop-opacity="0.37"
         id="stop27" />
      <stop
         offset="0.68"
         stop-color="#D81F60"
         stop-opacity="0.26"
         id="stop28" />
      <stop
         offset="0.81"
         stop-color="#D81F60"
         stop-opacity="0.12"
         id="stop29" />
      <stop
         offset="0.91"
         stop-color="#D81F60"
         stop-opacity="0"
         id="stop30" />
    </radialGradient>
    <radialGradient
       id="paint2_radial_15630_13874"
       cx="0"
       cy="0"
       r="1"
       gradientUnits="userSpaceOnUse"
       gradientTransform="matrix(-16.5655,0,0,-16.5655,65.2388,39.3387)">
      <stop
         offset="0.63"
         stop-color="#D81F60"
         stop-opacity="0"
         id="stop31" />
      <stop
         offset="0.7"
         stop-color="#D81F60"
         stop-opacity="0.02"
         id="stop32" />
      <stop
         offset="0.77"
         stop-color="#D81F60"
         stop-opacity="0.07"
         id="stop33" />
      <stop
         offset="0.84"
         stop-color="#D81F60"
         stop-opacity="0.16"
         id="stop34" />
      <stop
         offset="0.91"
         stop-color="#D81F60"
         stop-opacity="0.28"
         id="stop35" />
      <stop
         offset="0.98"
         stop-color="#D81F60"
         stop-opacity="0.43"
         id="stop36" />
      <stop
         offset="1"
         stop-color="#D81F60"
         stop-opacity="0.5"
         id="stop37" />
    </radialGradient>
    <linearGradient
       id="paint3_linear_15630_13874"
       x1="57.500599"
       y1="20.969999"
       x2="49.657799"
       y2="-7.36553"
       gradientUnits="userSpaceOnUse">
      <stop
         stop-color="#FF6600"
         stop-opacity="0"
         id="stop38" />
      <stop
         offset="0.02"
         stop-color="#FF6600"
         stop-opacity="0.17"
         id="stop39" />
      <stop
         offset="0.04"
         stop-color="#FF6600"
         stop-opacity="0.36"
         id="stop40" />
      <stop
         offset="0.06"
         stop-color="#FF6600"
         stop-opacity="0.53"
         id="stop41" />
      <stop
         offset="0.08"
         stop-color="#FF6600"
         stop-opacity="0.68"
         id="stop42" />
      <stop
         offset="0.1"
         stop-color="#FF6600"
         stop-opacity="0.8"
         id="stop43" />
      <stop
         offset="0.13"
         stop-color="#FF6600"
         stop-opacity="0.89"
         id="stop44" />
      <stop
         offset="0.15"
         stop-color="#FF6600"
         stop-opacity="0.95"
         id="stop45" />
      <stop
         offset="0.18"
         stop-color="#FF6600"
         stop-opacity="0.99"
         id="stop46" />
      <stop
         offset="0.22"
         stop-color="#FF6600"
         id="stop47" />
      <stop
         offset="0.61"
         stop-color="#FD4737"
         id="stop48" />
      <stop
         offset="1"
         stop-color="#FB2872"
         id="stop49" />
    </linearGradient>
    <linearGradient
       id="paint4_linear_15630_13874"
       x1="25.5114"
       y1="26.2407"
       x2="15.8975"
       y2="1.95313"
       gradientUnits="userSpaceOnUse">
      <stop
         stop-color="#FF6600"
         stop-opacity="0"
         id="stop50" />
      <stop
         offset="0.03"
         stop-color="#FF6600"
         stop-opacity="0.17"
         id="stop51" />
      <stop
         offset="0.07"
         stop-color="#FF6600"
         stop-opacity="0.36"
         id="stop52" />
      <stop
         offset="0.11"
         stop-color="#FF6600"
         stop-opacity="0.53"
         id="stop53" />
      <stop
         offset="0.15"
         stop-color="#FF6600"
         stop-opacity="0.68"
         id="stop54" />
      <stop
         offset="0.19"
         stop-color="#FF6600"
         stop-opacity="0.8"
         id="stop55" />
      <stop
         offset="0.23"
         stop-color="#FF6600"
         stop-opacity="0.89"
         id="stop56" />
      <stop
         offset="0.28"
         stop-color="#FF6600"
         stop-opacity="0.95"
         id="stop57" />
      <stop
         offset="0.34"
         stop-color="#FF6600"
         stop-opacity="0.99"
         id="stop58" />
      <stop
         offset="0.41"
         stop-color="#FF6600"
         id="stop59" />
      <stop
         offset="0.71"
         stop-color="#FD4737"
         id="stop60" />
      <stop
         offset="1"
         stop-color="#FB2872"
         id="stop61" />
    </linearGradient>
    <linearGradient
       id="paint5_linear_15630_13874"
       x1="48.23"
       y1="13.8456"
       x2="46.907501"
       y2="173.382"
       gradientUnits="userSpaceOnUse">
      <stop
         stop-color="#FF6600"
         id="stop62" />
      <stop
         offset="0.21"
         stop-color="#FF9C00"
         id="stop63" />
      <stop
         offset="0.52"
         stop-color="#FF6600"
         id="stop64" />
      <stop
         offset="0.86"
         stop-color="#FB2872"
         id="stop65" />
    </linearGradient>
    <linearGradient
       id="paint6_linear_15630_13874"
       x1="46.476299"
       y1="44.5443"
       x2="60.4716"
       y2="140.522"
       gradientUnits="userSpaceOnUse">
      <stop
         offset="0.15"
         stop-color="#FFEB49"
         id="stop66" />
      <stop
         offset="0.34"
         stop-color="#FFC735"
         stop-opacity="0.73"
         id="stop67" />
      <stop
         offset="0.58"
         stop-color="#FF9D1E"
         stop-opacity="0.42"
         id="stop68" />
      <stop
         offset="0.78"
         stop-color="#FF7F0E"
         stop-opacity="0.19"
         id="stop69" />
      <stop
         offset="0.92"
         stop-color="#FF6D03"
         stop-opacity="0.05"
         id="stop70" />
      <stop
         offset="1"
         stop-color="#FF6600"
         stop-opacity="0"
         id="stop71" />
    </linearGradient>
    <linearGradient
       id="paint7_linear_15630_13874"
       x1="44.096901"
       y1="13.8112"
       x2="42.774502"
       y2="173.34801"
       gradientUnits="userSpaceOnUse">
      <stop
         stop-color="#FE5B15"
         id="stop72" />
      <stop
         offset="0.21"
         stop-color="#FF9C00"
         id="stop73" />
      <stop
         offset="0.52"
         stop-color="#FF6600"
         id="stop74" />
      <stop
         offset="0.86"
         stop-color="#FB2872"
         id="stop75" />
    </linearGradient>
    <radialGradient
       id="paint8_radial_15630_13874"
       cx="0"
       cy="0"
       r="1"
       gradientUnits="userSpaceOnUse"
       gradientTransform="matrix(-16.6517,0,0,-20.9812,41.4232,28.0431)">
      <stop
         stop-color="#D81F60"
         stop-opacity="0.5"
         id="stop76" />
      <stop
         offset="0.22"
         stop-color="#D81F60"
         stop-opacity="0.49"
         id="stop77" />
      <stop
         offset="0.39"
         stop-color="#D81F60"
         stop-opacity="0.44"
         id="stop78" />
      <stop
         offset="0.54"
         stop-color="#D81F60"
         stop-opacity="0.37"
         id="stop79" />
      <stop
         offset="0.68"
         stop-color="#D81F60"
         stop-opacity="0.26"
         id="stop80" />
      <stop
         offset="0.81"
         stop-color="#D81F60"
         stop-opacity="0.12"
         id="stop81" />
      <stop
         offset="0.91"
         stop-color="#D81F60"
         stop-opacity="0"
         id="stop82" />
    </radialGradient>
    <linearGradient
       id="paint9_linear_15630_13874"
       x1="43.864899"
       y1="36.439098"
       x2="43.835499"
       y2="48.988098"
       gradientUnits="userSpaceOnUse">
      <stop
         offset="0.16"
         stop-color="#A030B9"
         id="stop83" />
      <stop
         offset="0.88"
         stop-color="#00073A"
         id="stop84" />
    </linearGradient>
    <linearGradient
       id="paint10_linear_15630_13874"
       x1="68.563301"
       y1="26.9706"
       x2="66.619797"
       y2="39.890598"
       gradientUnits="userSpaceOnUse">
      <stop
         offset="0.16"
         stop-color="#A030B9"
         id="stop85" />
      <stop
         offset="0.88"
         stop-color="#00073A"
         id="stop86" />
    </linearGradient>
    <linearGradient
       id="paint11_linear_15630_13874"
       x1="82.870903"
       y1="34.459702"
       x2="90.203903"
       y2="0.90788698"
       gradientUnits="userSpaceOnUse">
      <stop
         stop-color="#271AFF"
         id="stop87" />
      <stop
         offset="1"
         stop-color="#E752FF"
         id="stop88" />
    </linearGradient>
    <clipPath
       id="clip0_15630_13874">
      <rect
         width="95.747398"
         height="101.083"
         fill="#ffffff"
         transform="matrix(-1,0,0,1,95.7474,0)"
         id="rect88"
         x="0"
         y="0" />
    </clipPath>
  </defs>
</svg>
