<!-- This Source Code Form is subject to the terms of the Mozilla Public
   - License, v. 2.0. If a copy of the MPL was not distributed with this
   - file, You can obtain one at http://mozilla.org/MPL/2.0/. -->
<svg width="16" height="16" viewBox="0 0 16 16" fill="context-fill" fill-opacity="context-fill-opacity" xmlns="http://www.w3.org/2000/svg">
<style>
.nova { display: none; }

@media -moz-pref("browser.nova.enabled") {
  .proton { display: none; }
  .nova { display: revert; }
}
</style>
<g class="proton">
<path d="M13.75 6.884C13.75 3.778 11.171 1.25 8 1.25C4.829 1.25 2.25 3.778 2.25 6.884C2.25 8.497 4.207 11.359 7.486 14.54C7.54804 14.6003 7.62012 14.6494 7.699 14.685H8.301C8.37988 14.6494 8.45196 14.6003 8.514 14.54C11.793 11.359 13.75 8.497 13.75 6.884ZM1 6.884C1 3.082 4.134 0 8 0C11.866 0 15 3.082 15 6.884C15 9.602 11.425 13.458 9.385 15.437C9.01436 15.798 8.5174 16 8 16C7.4826 16 6.98564 15.798 6.615 15.437C4.575 13.458 1 9.601 1 6.884ZM9.75 7C9.75 6.035 8.965 5.25 8 5.25C7.035 5.25 6.25 6.035 6.25 7C6.25 7.965 7.035 8.75 8 8.75C8.965 8.75 9.75 7.965 9.75 7ZM6.85195 4.22836C7.21593 4.0776 7.60603 4 8 4C8.79565 4 9.55871 4.31607 10.1213 4.87868C10.6839 5.44129 11 6.20435 11 7C11 7.79565 10.6839 8.55871 10.1213 9.12132C9.55871 9.68393 8.79565 10 8 10C7.60603 10 7.21593 9.9224 6.85195 9.77164C6.48797 9.62087 6.15726 9.3999 5.87868 9.12132C5.6001 8.84274 5.37913 8.51203 5.22836 8.14805C5.0776 7.78407 5 7.39397 5 7C5 6.60603 5.0776 6.21593 5.22836 5.85195C5.37913 5.48797 5.6001 5.15726 5.87868 4.87868C6.15726 4.6001 6.48797 4.37913 6.85195 4.22836Z"/>
</g>
<g class="nova">
  <path fill-rule="evenodd" d="M8 4.01a3 3 0 1 1 0 6 3 3 0 0 1 0-6m0 1.5a1.5 1.5 0 1 0 0 3 1.5 1.5 0 0 0 0-3" clip-rule="evenodd" />
  <path fill-rule="evenodd" d="M8 0c3.867 0 7 3.139 7 7.009 0 1.447-.876 3.06-1.857 4.447-1.01 1.426-2.247 2.773-3.182 3.72a2.75 2.75 0 0 1-3.922 0c-.935-.947-2.173-2.294-3.182-3.72C1.876 10.07 1 8.456 1 7.01 1 3.139 4.133 0 8 0m0 1.5a5.504 5.504 0 0 0-5.5 5.509c0 .938.613 2.212 1.582 3.58.941 1.332 2.115 2.613 3.024 3.534l.097.088a1.246 1.246 0 0 0 1.69-.088l.724-.754c.758-.811 1.595-1.781 2.301-2.78.969-1.368 1.582-2.642 1.582-3.58A5.504 5.504 0 0 0 8 1.5" clip-rule="evenodd" />
</g>
</svg>
