<!-- This Source Code Form is subject to the terms of the Mozilla Public
   - License, v. 2.0. If a copy of the MPL was not distributed with this
   - file, You can obtain one at http://mozilla.org/MPL/2.0/. -->
<svg xmlns="http://www.w3.org/2000/svg" width="80" height="80" fill="none" viewBox="0 0 80 80">
  <rect width="52" height="52" x="7.406" y="21.131" fill="url(#a)" rx="12" transform="rotate(-8 7.406 21.13)"/>
  <g filter="url(#b)">
    <rect width="52" height="52" x="13.637" y="13.873" fill="#000" rx="12" shape-rendering="crispEdges" transform="rotate(-8 13.637 13.873)"/>
    <path fill="#fff" fill-rule="evenodd" d="M41.232 23.408a2.462 2.462 0 1 0 .685 4.875 2.462 2.462 0 0 0-.685-4.875m-5.345 3.237a5.744 5.744 0 1 1 3.685 4.585l-2.103 2.79q.351.474.6 1.018l9.41-1.322a5.744 5.744 0 1 1 3.678 6.243l-2.104 2.79a5.744 5.744 0 1 1-2.621-1.975l2.103-2.79a5.7 5.7 0 0 1-.6-1.018l-9.409 1.322a5.744 5.744 0 1 1-3.678-6.243l2.103-2.79a5.7 5.7 0 0 1-1.064-2.61m6.105 19.856a2.462 2.462 0 1 1 4.875-.685 2.462 2.462 0 0 1-4.875.685m-9.489-11.509a2.462 2.462 0 1 0 .685 4.875 2.462 2.462 0 0 0-.685-4.875m18.218-.075a2.462 2.462 0 1 1 4.875-.685 2.462 2.462 0 0 1-4.875.685" clip-rule="evenodd"/>
  </g>
  <defs>
    <linearGradient id="a" x1="12.281" x2="67.045" y1="22.88" y2="47.064" gradientUnits="userSpaceOnUse">
      <stop stop-color="#e652f7"/>
      <stop offset="1" stop-color="#271af5"/>
    </linearGradient>
    <filter id="b" width="70.731" height="70.731" x="7.637" y="2.637" color-interpolation-filters="sRGB" filterUnits="userSpaceOnUse">
      <feFlood flood-opacity="0" result="BackgroundImageFix"/>
      <feColorMatrix in="SourceAlpha" result="hardAlpha" values="0 0 0 0 0 0 0 0 0 0 0 0 0 0 0 0 0 0 127 0"/>
      <feOffset dy="2"/>
      <feGaussianBlur stdDeviation="3"/>
      <feComposite in2="hardAlpha" operator="out"/>
      <feColorMatrix values="0 0 0 0 0 0 0 0 0 0 0 0 0 0 0 0 0 0 0.1 0"/>
      <feBlend in2="BackgroundImageFix" result="effect1_dropShadow_13856_38097"/>
      <feColorMatrix in="SourceAlpha" result="hardAlpha" values="0 0 0 0 0 0 0 0 0 0 0 0 0 0 0 0 0 0 127 0"/>
      <feOffset dy=".25"/>
      <feGaussianBlur stdDeviation=".375"/>
      <feComposite in2="hardAlpha" operator="out"/>
      <feColorMatrix values="0 0 0 0 0 0 0 0 0 0 0 0 0 0 0 0 0 0 0.05 0"/>
      <feBlend in2="effect1_dropShadow_13856_38097" result="effect2_dropShadow_13856_38097"/>
      <feBlend in="SourceGraphic" in2="effect2_dropShadow_13856_38097" result="shape"/>
    </filter>
  </defs>
</svg>
