<!-- This Source Code Form is subject to the terms of the Mozilla Public
   - License, v. 2.0. If a copy of the MPL was not distributed with this
   - file, You can obtain one at https://mozilla.org/MPL/2.0/. -->
<svg width="16" height="16" fill="context-fill" xmlns="http://www.w3.org/2000/svg">
<style>
.nova { display: none; }

@media -moz-pref("browser.nova.enabled") {
  .proton { display: none; }
  .nova { display: revert; }
}
</style>
<g class="proton">
  <path d="M8 16c-.43 0-.86-.11-1.24-.32-1.64-.93-3.15-2.36-4.26-4.03-.57-.86-.97-1.91-1.19-3.11L.75 5.52c-.2-1.07.31-2.13 1.27-2.65L6.75.3c.74-.4 1.63-.4 2.37 0l4.85 2.61c.96.52 1.47 1.59 1.27 2.66l-.55 2.97c-.22 1.2-.62 2.24-1.19 3.1-1.1 1.67-2.61 3.11-4.26 4.04-.38.22-.81.32-1.24.32ZM7.94 1.5c-.16 0-.33.04-.48.12L2.74 4.18c-.38.21-.59.63-.51 1.06l.56 3.02c.19 1 .51 1.87.97 2.56.97 1.48 2.3 2.74 3.74 3.55.31.18.7.17 1 0 1.44-.81 2.77-2.08 3.75-3.56.46-.69.78-1.55.97-2.55l.55-2.98c.08-.43-.12-.86-.51-1.06l-4.85-2.6c-.15-.08-.31-.12-.47-.12Z"/>
</g>
<g class="nova">
  <path fill-rule="evenodd" d="M6.613 1.36a2.76 2.76 0 0 1 2.934.125l.403.268q.412.27.87.538l.469.264.502.266q.746.38 1.436.666l.219.102c.99.52 1.55 1.59 1.442 2.692l-.034.236-.443 2.386c-.19 1.027-.542 2.06-1.139 2.967h-.002c-1.022 1.55-2.395 2.868-3.89 3.754a2.73 2.73 0 0 1-2.779-.011c-1.487-.885-2.85-2.195-3.869-3.737-.6-.91-.95-1.95-1.14-2.982L1.144 6.47c-.215-1.168.337-2.372 1.398-2.93l.22-.104q.751-.31 1.559-.724a22 22 0 0 0 2.11-1.24zm2.085 1.36a1.26 1.26 0 0 0-1.262-.097l-.172.097c-.665.443-1.42.896-2.257 1.326q-.865.444-1.668.776c-.517.215-.826.788-.718 1.376l.446 2.425c.164.892.457 1.728.917 2.426.9 1.363 2.102 2.511 3.385 3.275.387.23.87.231 1.246.008 1.29-.764 2.5-1.918 3.404-3.289.459-.696.752-1.527.916-2.414h.001l.443-2.386a1.24 1.24 0 0 0-.631-1.327l-.097-.044A21.7 21.7 0 0 1 8.698 2.72" clip-rule="evenodd" />
</g>
</svg>
