<!-- This Source Code Form is subject to the terms of the Mozilla Public
   - License, v. 2.0. If a copy of the MPL was not distributed with this
   - file, You can obtain one at https://mozilla.org/MPL/2.0/. -->
<svg xmlns="http://www.w3.org/2000/svg" width="104" height="111" fill="none"><path fill="url(#a)" d="M38.409 104.717a.966.966 0 0 1-.106-.024c-.118-.033 10.735-3.777 9.1-13.75-.72-4.408-2.325-6.3-3.771-8.865a3.52 3.52 0 0 1-.22-.465 42.237 42.237 0 0 1-.522-1.438c1.117-.228 2.498-.578 4.45-1.356 17.708-7.073 18.4-25.065 17.232-42.496-.9-13.46 14.019-19.213 14.019-19.213s-4.168 7.072 3.125 13.623c8.437 7.578 19.999 16.35 19.653 32.629-.017.758-.351 4.766-.351 4.766s.562-.27 1.3-1.038c.949-.986 1.324-1.61 1.324-1.61s.309 4.64-1.874 11.717c-3.251 10.535-19.291 33.321-62.047 27.312-.004-.566-.25-1.259-.97-2.139-2.033-2.49.33 2.481-.35 2.343l.008.004Z"/><path fill="url(#b)" d="M82.409 61.384c1.164-4.93 1.666-10.757 1.666-10.757s1.286 4.615 1.67 10.362c.285 4.27.166 8.798-.01 9.79.299-.333 1.175-1.4 2.014-3.187a115.994 115.994 0 0 0 1.846-4.143c-.031-.02.99 8.19-4.333 22.416-5.921 10.94-14.155 14.154-17.228 9.464-3.074-4.694 1.938-8.235 5.256-11.917 4.116-4.573 7.182-13.81 9.115-22.025l.004-.003Z"/><path fill="url(#c)" d="M75.674 62.62c-.02-.71.027-1.55-.147-2.231-.316-1.257-1.368-2.32-2.575-2.552-.316-.061-.578-.023-.89-.042-1.572-.085-3.164-.173-4.725-.432-2.128-.35-4.606-1.048-6.633-1.823-3.662-1.395-6.946-3.203-9.902-5.8-1.334-1.168-2.105-2.402-3.954-2.394v6.845a3.437 3.437 0 0 1 2.07.86c.38.335.735.72 1.117 1.056 2.374 2.085 5.014 3.538 7.963 4.663 1.63.62 3.623 1.184 5.334 1.465 1.257.208 2.536.278 3.8.347.25.016.463-.015.718.035.97.185 1.815 1.04 2.07 2.05.138.547.1 1.222.115 1.792a88.017 88.017 0 0 1-.247 9.03c-.574 7.544-2.25 15.195-6.228 21.562a31.62 31.62 0 0 1-2.976 4.016 29.048 29.048 0 0 1-1.75 1.839c-.61.589-4.401 2.597-4.401 2.597l9.628-2.251s12.26-6.31 15.174-24.64c.339-2.128.555-4.274.717-6.421.285-3.731-4.182-5.828-4.278-9.578v.008Z"/><path fill="url(#d)" d="M54.176 24.405c-.592-1.515-4.166-.857-6.357-2.69-.833-.698-1.357-2.126-1.73-3.44-.201-.706-.36-1.38-.503-1.884-.853-3.031-1.1-4.507-2.487-8.935C41.86 3.5 40.389.203 38.679.032c-1.69-.17-3.468 1.877-5.81 5.84-1.32 2.235-2.193 4.23-3.145 5.655-.049.067-.091.142-.14.21-.055.08-2.364-.115-3.415 0-.128.016-.235-.052-.341-.194-.476-.64-.898-2.841-2.686-6.452C20.964.703 19.282-.321 17.389.08c-1.6.336-3.492 4.97-4.813 9.212-1 3.214-.944 3.559-1.322 4.74-.4 1.263-.876 2.86-1.46 4.34-.634 1.62-1.404 3.1-2.352 3.854-2.305 1.833-4.582 1.226-5.368 2.646-.635 1.15.774 1.159.825 1.449 7.352-.54 13.784 7.014 16.56 5.43.901-.51 1.755-1.36 3.39-2.71 1.212-1.213 2.392-2.244 4.046-2.514 3.468-.56 5.32 3.04 8.423 5.356.052.04.1.084.147.123 1.07.25 2.69.175 4.871-.714 3.735-1.524 8.54-4.678 13.003-5.245-.31-.405 1.197-.706.833-1.635l.004-.008Z"/><path fill="url(#e)" d="M22.78 101.075c.063-.388.115-.761.142-1.067.1-1.25.115-2.805.064-4.551a14.799 14.799 0 0 1-1.877 5.376c.595.084 1.156.167 1.67.242Z"/><path fill="url(#f)" d="M22.78 101.075c.063-.388.115-.761.142-1.067.1-1.25.115-2.805.064-4.551a14.799 14.799 0 0 1-1.877 5.376c.595.084 1.156.167 1.67.242Z" opacity=".6"/><path fill="#FFC635" d="M26.89 26.534c-1.654.265-2.832 1.297-4.046 2.515-.925.924-1.873 1.956-3.067 2.84-2.666 1.976 1.254 8.729 9.669 7.84 6.13-.65 8.455-5.634 6.018-7.717a3.81 3.81 0 0 0-.146-.123c-3.103-2.317-4.956-5.915-8.423-5.356h-.004Zm.318 4.935c-1.63-.02-2.186-1.38-1.924-2.028.214-.523.94-1.083 2.265-1.07 1.175.01 1.77.622 1.913 1.134.198.722-.703 1.98-2.25 1.964h-.004Z"/><path fill="url(#g)" d="M7.185 88.587c-1.353 8.26 7.638 11.363 7.539 11.387l-.087.02c.46.056.908.107 1.34.163a2 2 0 0 0 .124-.671c-.092-1.908-.734-3.79-1.195-5.67 2.175-1.233-2.11-6.058-1.833-8.391.73-5.717.893-5.15-2.063-5.75-.166.48-.36.949-.603 1.394-1.222 2.218-2.607 3.765-3.222 7.518Z"/><path fill="url(#h)" d="M37.786 104.394c3.717.568 5.356 1.27 8.34 1.425 3.344.17 4.388-.167 4.95-1.171.307-.547.458-1.123-.15-1.864l-13.196 1.404c.02.071.036.139.052.206h.004Z" opacity=".6"/><path fill="url(#i)" d="M19.799 26.154c1.603-.032 2.623.373 2.702-1.016.175-3.024-.416-4.84-2.654-4.674-1.413.107-2.035 1.678-2.143 3.78-.135 2.588 1.242 1.926 2.095 1.91Zm1.087-4.18a.773.773 0 1 1 0 1.547.773.773 0 0 1 0-1.546Z"/><path fill="url(#j)" d="M20.166 26.697c.964-.047 2.277-.524 2.337-1.56.174-3.023-.417-4.84-2.654-4.673-1.413.107-2.036 1.678-2.143 3.78-.063 1.259.837 2.366 2.127 2.453.112.008.225.008.337 0h-.004Z"/><path fill="#fff" d="M19.574 21.266a.772.772 0 0 1 .715 1.07.77.77 0 0 1-1.012.419.768.768 0 0 1-.477-.715c0-.43.345-.774.773-.774Z"/><path fill="url(#k)" d="M35.307 26.686h.094c2.04-.08 2.424-1.91 2.21-3.62-.19-1.52-.94-2.73-2.626-2.601-1.413.107-2.035 1.678-2.142 3.78-.073 1.425 1.094 2.45 2.463 2.44Z"/><path fill="#fff" d="M34.715 21.266a.773.773 0 1 1 0 1.547.77.77 0 0 1-.774-.773c0-.43.345-.774.774-.774Z"/><path fill="#00073A" d="M27.546 28.368c-1.326-.012-2.052.543-2.266 1.07-.262.648.298 2.008 1.925 2.028 1.547.016 2.447-1.241 2.25-1.964-.14-.511-.74-1.122-1.913-1.134h.004Z"/><path fill="url(#l)" d="m36.949 104.271.15.024c.238.033.469.066.69.099-.015-.067-.031-.139-.05-.206l-.79.083Z" opacity=".6"/><path fill="url(#m)" d="M46.085 18.284c-.203-.706-.361-1.38-.504-1.884-.853-3.031-1.1-4.507-2.488-8.935-1.238-3.96-2.71-7.257-4.42-7.427-1.69-.171-3.467 1.876-5.808 5.84-1.321 2.233-2.194 4.23-3.146 5.654 1.698.03 5.245.349 8.546 2.277 3.102 1.81 6.28 3.634 7.82 4.48v-.005Z"/><path fill="url(#n)" d="M25.822 11.539c-.476-.64-.897-2.841-2.686-6.452C20.958.703 19.276-.321 17.383.08c-1.6.337-3.492 4.972-4.813 9.213-1 3.214-.944 3.559-1.321 4.74-.4 1.263-.877 2.86-1.46 4.34 1.456-.796 4.765-2.69 7.999-4.573 2.999-1.75 6.2-2.173 8.034-2.261Z"/><path fill="url(#o)" d="M21.112 100.832a291.742 291.742 0 0 0-6.474-.838c-.564.116-2.877.492-4.56 2.552-.594.73-.797 1.301-.8 1.769 0 .314.078.583.2.821.557 1.076 3.255.976 4.81.56a57.16 57.16 0 0 1 3.293-.75 76.964 76.964 0 0 1 4.424-.754c.048-.17.1-.341.155-.512.222-.65.468-1.69.623-2.614-.518-.077-1.074-.158-1.67-.242l-.001.008Z"/><path fill="url(#p)" d="M50.932 102.783c-.353-.432-.964-.92-1.952-1.495-1.257-.73-2.376-1.048-2.225-1.274-.203.032-.401.063-.607.107-4.258.861-7.122 1.361-9.054 1.639.146.718.325 1.432.495 1.924a7.482 7.482 0 0 1 .203.706c3.718.568 5.356 1.27 8.34 1.425 3.344.17 4.388-.167 4.95-1.171.307-.547.458-1.123-.15-1.865v.004Z"/><path fill="url(#q)" d="M55.925 27.934c-.14-1.377-1.797-1.44-2.337-1.71a.7.7 0 0 1-.246-.18c-4.463.573-9.268 3.723-13.001 5.246-2.183.893-3.801.964-4.873.714 2.44 2.084.112 7.067-6.018 7.718-8.416.888-12.335-5.86-9.67-7.84 1.195-.885 2.143-1.917 3.068-2.841-1.631 1.353-2.488 2.198-3.39 2.71-2.776 1.587-9.207-5.972-16.56-5.432a.12.12 0 0 1-.015.08c-.361.63-2.773.352-2.88 1.892-.092 1.262 2.26.774 2.249 1.349-.016.785-1.71 1.103-1.71 1.892 0 1.98 1.71.27 8.645 5.583 3.694 2.829 4.325 8.137 3.988 14.085-.167 2.987-1.4 9.59-1.575 13.089-.286 5.737.587 10.557-.29 14.35-.083.358-.186.699-.302 1.036-.166.48-.36.948-.603 1.392-1.222 2.218-2.606 3.766-3.221 7.519-1.353 8.26 7.637 11.363 7.538 11.387l-.087.02a302.765 302.765 0 0 1 6.475.837 14.8 14.8 0 0 0 1.877-5.376c.047 1.746.035 3.3-.064 4.551-.032.358-.08.714-.143 1.067-.154.921-.396 1.964-.623 2.615-.06.17-.111.34-.154.511-.342 1.254-.342 2.429-.032 2.952.944 1.591 6.784 1.353 7.058-.527.135-.921.222-2.044.274-3.317.219-.012.438-.019.658-.02.16.001.319.007.477.016.05 1.273.139 2.4.273 3.321.274 1.88 6.114 2.118 7.059.527.293-.496.305-1.575.016-2.757a7.971 7.971 0 0 0-.202-.706c-.171-.492-.35-1.206-.497-1.925 1.933-.277 4.797-.777 9.054-1.638.21-.044.409-.076.607-.107.024-.036.076-.068.17-.103 3.818-1.318 8.146-7.162 6.147-12.621-1.147-3.127-3.266-4.607-4.456-6.694-2.464-4.32-.583-5.332-1.666-16.866-.472-5.023-1.79-10.942-2.325-14.005-1.06-6.08-.04-11.494 3.253-14.014 3.813-2.916 5.797-2.253 5.975-3.817.084-.738-1.11-.876-1.08-1.622.045-1.163 3.27-1.183 3.15-2.341h.009Z"/><path fill="url(#r)" d="M28.633 84.004c-.293.35-.464 2.643-.845 2.833-.302.15-.453-1.797-.762-3.56-.084-.475-.404-2.02-.488-2.47-.393-2.203-.396-2.032-.723-3.83-.067 1.437-.198 1.818-.46 4.02-.127 1.067-.31 2.353-.46 3.063-.13.619-.332-1.686-.46-2.297-.61-2.948-1.04-3.734-1.864-6.666-.465-1.658-1.929-3.19-2.072-4.245.67 4.527 1.63 12.014 2.15 18.647.168 2.115.287 4.143.337 5.96.049 1.746.037 3.3-.062 4.551-.024.309-.075.678-.143 1.067-.155.92-.397 1.964-.623 2.614a5.96 5.96 0 0 0-.155.512c-.341 1.254-.341 2.428-.032 2.952.945 1.591 6.785 1.353 7.058-.528.136-.92.223-2.043.274-3.316.198-4.801-.139-11.852-.67-19.303v-.004Z"/><path fill="url(#s)" d="M34.564 65.476c1.238-10.125-5.154-13.86-5.154-13.86s-6.07 4.306-4.435 14.364c1.309 8.054 2.384 9.915 3.21 15.03.825 5.11 1.71 11.013 1.71 11.013s.745-5.705 1.745-11.14c.718-3.885 2.15-9.118 2.92-15.403l.004-.004Z" opacity=".6"/><path fill="url(#t)" d="M37.737 104.187a8.019 8.019 0 0 0-.151-.499c-.17-.492-.35-1.207-.496-1.925-.12-.579-.211-1.164-.27-1.753-.528-6.63 1.333-21.802 2.42-29.158-.143 1.06-1.607 2.59-2.07 4.245-.826 2.936-1.255 3.722-1.866 6.666-.127.61-.33 2.916-.46 2.297-.15-.71-.333-1.992-.46-3.063-.262-2.202-.393-2.583-.46-4.02-.326 1.798-.33 1.628-.722 3.83-.084.456-.405 1.995-.488 2.47-.31 1.763-.46 3.71-.762 3.56-.381-.19-.552-2.483-.845-2.833-.532 7.448-.87 14.498-.67 19.299.05 1.273.138 2.4.273 3.321.274 1.88 6.114 2.118 7.058.527.294-.496.306-1.575.016-2.757a4.59 4.59 0 0 0-.051-.207h.004Z"/><path fill="url(#u)" d="M22.65 89.496c-1.423-5.415-5.811-9.637-11.34-10.855-.082.357-.185.698-.3 1.035-.166.48-.361.949-.603 1.393-1.222 2.218-2.607 3.765-3.222 7.519-1.353 8.26 7.638 11.363 7.539 11.387l-.087.019a291.975 291.975 0 0 1 6.475.838 14.8 14.8 0 0 0 1.876-5.376 119.77 119.77 0 0 0-.337-5.96Z" opacity=".38"/><path fill="url(#v)" d="M55.285 44.974a4 4 0 0 1 2.315.899c.427.352.825.753 1.25 1.105 2.656 2.183 5.605 3.703 8.902 4.876 1.823.65 4.05 1.238 5.96 1.532 1.404.215 2.833.294 4.246.365.282.012.513-.017.799.033 1.085.194 2.03 1.085 2.316 2.145.153.572.116 1.28.132 1.876a87.005 87.005 0 0 1-.277 9.444c-1.048 12.898-5.21 24.2-15.794 31.475-2.994 2.058-6.415 3.723-9.845 4.928v7.149c4.3-1.511 8.483-3.549 12.235-6.126 3.629-2.493 6.45-5.156 8.939-8.283 6.999-8.794 9.804-19.786 10.706-30.862.319-3.901.456-7.828.344-11.746-.02-.742.029-1.62-.161-2.332-.352-1.317-1.53-2.427-2.88-2.668-.355-.062-.645-.024-.993-.041-1.76-.087-3.537-.182-5.281-.451-2.377-.365-5.148-1.098-7.414-1.906-4.092-1.458-7.762-3.35-11.067-6.064-1.487-1.221-2.353-2.51-4.424-2.501v7.157l-.008-.004Z"/><path fill="url(#w)" d="M55.282 44.974a4 4 0 0 0-2.315.899c-.427.352-.824.753-1.25 1.105-2.656 2.183-5.605 3.703-8.902 4.876-1.822.65-4.05 1.238-5.96 1.532-1.404.215-2.833.294-4.246.365-.281.012-.513-.017-.8.033-1.084.194-2.03 1.085-2.314 2.145-.154.572-.116 1.28-.133 1.876-.087 3.153.02 6.309.278 9.444 1.047 12.898 5.21 24.2 15.793 31.475 2.994 2.058 6.416 3.723 9.845 4.928v7.149c-4.3-1.511-8.483-3.549-12.235-6.126-3.628-2.493-6.45-5.156-8.938-8.283-7-8.794-9.804-19.786-10.707-30.862-.32-3.901-.456-7.828-.344-11.746.02-.742-.03-1.62.162-2.332.352-1.317 1.528-2.427 2.878-2.668.356-.062.646-.024.994-.041 1.76-.087 3.537-.182 5.28-.451 2.379-.365 5.15-1.098 7.415-1.906 4.092-1.458 7.762-3.35 11.067-6.064 1.487-1.221 2.353-2.51 4.424-2.501v7.157l.008-.004Z"/><path fill="url(#x)" d="M55.282 103.652c-3.43-1.206-6.851-2.871-9.846-4.93C34.849 91.45 30.69 80.15 29.643 67.249a87.012 87.012 0 0 1-.278-9.443c.017-.597-.024-1.3.133-1.877.286-1.056 1.23-1.95 2.315-2.145.286-.05.522-.02.8-.033 1.412-.07 2.84-.15 4.245-.365 1.914-.294 4.142-.882 5.96-1.532 3.297-1.177 6.246-2.697 8.9-4.875.428-.348.826-.754 1.252-1.106a4 4 0 0 1 2.316-.9v58.675l-.004.005Z"/><path fill="url(#y)" d="M55.285 44.973a4 4 0 0 1 2.315.899c.427.352.825.754 1.25 1.106 2.656 2.183 5.605 3.703 8.902 4.875 1.823.65 4.05 1.238 5.96 1.532 1.404.216 2.833.294 4.246.365.282.012.513-.017.799.033 1.085.194 2.03 1.085 2.316 2.145.153.572.116 1.28.132 1.877a87.012 87.012 0 0 1-.277 9.443c-1.048 12.898-5.21 24.2-15.794 31.475-2.994 2.058-6.415 3.723-9.845 4.929v-58.68h-.004Z"/><defs><linearGradient id="a" x1="87.446" x2="54.22" y1="15.534" y2="112.071" gradientUnits="userSpaceOnUse"><stop offset=".05" stop-color="#FFEB49"/><stop offset=".555" stop-color="#F60"/><stop offset=".82" stop-color="#FF453F"/><stop offset="1" stop-color="#FB2872"/></linearGradient><linearGradient id="b" x1="104.274" x2="50.435" y1="40.091" y2="120.177" gradientUnits="userSpaceOnUse"><stop stop-color="#FFEB49" stop-opacity=".6"/><stop offset=".1" stop-color="#FFE747" stop-opacity=".58"/><stop offset=".19" stop-color="#FFDD41" stop-opacity=".54"/><stop offset=".28" stop-color="#FFCC38" stop-opacity=".46"/><stop offset=".37" stop-color="#FFB42B" stop-opacity=".35"/><stop offset=".46" stop-color="#FF951A" stop-opacity=".22"/><stop offset=".55" stop-color="#FF7005" stop-opacity=".05"/><stop offset=".57" stop-color="#F60" stop-opacity="0"/></linearGradient><linearGradient id="c" x1="103.27" x2="25.144" y1="47.335" y2="93.042" gradientUnits="userSpaceOnUse"><stop offset=".42" stop-color="#BE0449" stop-opacity="0"/><stop offset=".7" stop-color="#FB2872"/><stop offset=".8" stop-color="#A31C5E"/><stop offset=".9" stop-color="#4C104A"/><stop offset=".97" stop-color="#15093E"/><stop offset="1" stop-color="#00073A"/></linearGradient><linearGradient id="d" x1="27.919" x2="28.593" y1="2.504" y2="100.361" gradientUnits="userSpaceOnUse"><stop stop-color="#F60"/><stop offset=".24" stop-color="#FF9C00"/><stop offset=".31" stop-color="#FF9200"/><stop offset=".44" stop-color="#FF7900"/><stop offset=".52" stop-color="#F60"/><stop offset=".96" stop-color="#FB2872"/></linearGradient><linearGradient id="e" x1="21.474" x2="22.097" y1="1.442" y2="104.809" gradientUnits="userSpaceOnUse"><stop stop-color="#FE5B15"/><stop offset=".2" stop-color="#FF9C00"/><stop offset=".29" stop-color="#FF9200"/><stop offset=".43" stop-color="#FF7900"/><stop offset=".52" stop-color="#F60"/><stop offset="1" stop-color="#FB2872"/></linearGradient><linearGradient id="f" x1="24.125" x2="22.268" y1="29.488" y2="92.454" gradientUnits="userSpaceOnUse"><stop stop-color="#FFEB49"/><stop offset=".36" stop-color="#FFB52B" stop-opacity=".6"/><stop offset=".67" stop-color="#FF8A14" stop-opacity=".28"/><stop offset=".89" stop-color="#FF7005" stop-opacity=".08"/><stop offset="1" stop-color="#F60" stop-opacity="0"/></linearGradient><linearGradient id="g" x1="-20.203" x2="16.989" y1="26.074" y2="99.895" gradientUnits="userSpaceOnUse"><stop stop-color="#FFE500"/><stop offset=".45" stop-color="#FF6D00"/><stop offset=".54" stop-color="#FF6709"/><stop offset=".69" stop-color="#FF5622"/><stop offset=".82" stop-color="#FF453F"/><stop offset="1" stop-color="#FB0372"/></linearGradient><linearGradient id="h" x1="46.721" x2="44.86" y1="30.153" y2="93.118" gradientUnits="userSpaceOnUse"><stop stop-color="#FFEB49"/><stop offset=".36" stop-color="#FFB52B" stop-opacity=".6"/><stop offset=".67" stop-color="#FF8A14" stop-opacity=".28"/><stop offset=".89" stop-color="#FF7005" stop-opacity=".08"/><stop offset="1" stop-color="#F60" stop-opacity="0"/></linearGradient><linearGradient id="i" x1="19.974" x2="20.597" y1="1.447" y2="104.815" gradientUnits="userSpaceOnUse"><stop stop-color="#FE5B15"/><stop offset=".2" stop-color="#FF9C00"/><stop offset=".29" stop-color="#FF9200"/><stop offset=".43" stop-color="#FF7900"/><stop offset=".52" stop-color="#F60"/><stop offset="1" stop-color="#FB2872"/></linearGradient><linearGradient id="j" x1="19.353" x2="20.404" y1="18.921" y2="25.908" gradientUnits="userSpaceOnUse"><stop offset=".16" stop-color="#A030B9"/><stop offset=".88" stop-color="#00073A"/></linearGradient><linearGradient id="k" x1="34.492" x2="35.544" y1="18.921" y2="25.912" gradientUnits="userSpaceOnUse"><stop offset=".16" stop-color="#A030B9"/><stop offset=".88" stop-color="#00073A"/></linearGradient><linearGradient id="l" x1="39.568" x2="37.707" y1="29.946" y2="92.908" gradientUnits="userSpaceOnUse"><stop stop-color="#FFEB49"/><stop offset=".36" stop-color="#FFB52B" stop-opacity=".6"/><stop offset=".67" stop-color="#FF8A14" stop-opacity=".28"/><stop offset=".89" stop-color="#FF7005" stop-opacity=".08"/><stop offset="1" stop-color="#F60" stop-opacity="0"/></linearGradient><linearGradient id="m" x1="38.5" x2="42.348" y1="12.087" y2="-4.928" gradientUnits="userSpaceOnUse"><stop stop-color="#F60" stop-opacity="0"/><stop offset=".03" stop-color="#F60" stop-opacity=".17"/><stop offset=".07" stop-color="#F60" stop-opacity=".36"/><stop offset=".11" stop-color="#F60" stop-opacity=".53"/><stop offset=".16" stop-color="#F60" stop-opacity=".68"/><stop offset=".2" stop-color="#F60" stop-opacity=".8"/><stop offset=".25" stop-color="#F60" stop-opacity=".89"/><stop offset=".3" stop-color="#F60" stop-opacity=".95"/><stop offset=".36" stop-color="#F60" stop-opacity=".99"/><stop offset=".43" stop-color="#F60"/><stop offset=".72" stop-color="#FD4737"/><stop offset="1" stop-color="#FB2872"/></linearGradient><linearGradient id="n" x1="17.079" x2="13.231" y1="11.647" y2="-5.369" gradientUnits="userSpaceOnUse"><stop stop-color="#F60" stop-opacity="0"/><stop offset=".03" stop-color="#F60" stop-opacity=".17"/><stop offset=".07" stop-color="#F60" stop-opacity=".36"/><stop offset=".11" stop-color="#F60" stop-opacity=".53"/><stop offset=".16" stop-color="#F60" stop-opacity=".68"/><stop offset=".2" stop-color="#F60" stop-opacity=".8"/><stop offset=".25" stop-color="#F60" stop-opacity=".89"/><stop offset=".3" stop-color="#F60" stop-opacity=".95"/><stop offset=".36" stop-color="#F60" stop-opacity=".99"/><stop offset=".43" stop-color="#F60"/><stop offset=".71" stop-color="#FD4737"/><stop offset=".98" stop-color="#FB2872"/></linearGradient><linearGradient id="o" x1="53.293" x2="-5.383" y1="88.064" y2="111.449" gradientUnits="userSpaceOnUse"><stop offset=".02" stop-color="#BE0449" stop-opacity="0"/><stop offset=".51" stop-color="#FB2872"/><stop offset=".67" stop-color="#A31C5E"/><stop offset=".83" stop-color="#4C104A"/><stop offset=".94" stop-color="#15093E"/><stop offset="1" stop-color="#00073A"/></linearGradient><linearGradient id="p" x1="20.418" x2="60.459" y1="93.662" y2="109.318" gradientUnits="userSpaceOnUse"><stop stop-color="#BE0449" stop-opacity="0"/><stop offset=".41" stop-color="#FB2872"/><stop offset="1" stop-color="#00073A"/></linearGradient><linearGradient id="q" x1="28.724" x2="24.697" y1="6.402" y2="121.739" gradientUnits="userSpaceOnUse"><stop offset=".02" stop-color="#FF7408"/><stop offset=".03" stop-color="#FFAF28"/><stop offset=".04" stop-color="#FFC534"/><stop offset=".05" stop-color="#FFD63D"/><stop offset=".06" stop-color="#FFE244"/><stop offset=".07" stop-color="#FFE947"/><stop offset=".11" stop-color="#FFEB49"/><stop offset=".21" stop-color="#FFC936"/><stop offset=".43" stop-color="#FF7508"/><stop offset=".47" stop-color="#F60"/><stop offset=".85" stop-color="#FB2872"/></linearGradient><linearGradient id="r" x1="24.404" x2="26.11" y1="71.443" y2="116.8" gradientUnits="userSpaceOnUse"><stop offset=".01" stop-color="#BE0449" stop-opacity="0"/><stop offset=".06" stop-color="#BF054A" stop-opacity=".04"/><stop offset=".14" stop-color="#C2084C" stop-opacity=".16"/><stop offset=".23" stop-color="#C70D51" stop-opacity=".36"/><stop offset=".35" stop-color="#CE1457" stop-opacity=".63"/><stop offset=".48" stop-color="#D71E5F" stop-opacity=".97"/><stop offset=".49" stop-color="#D81F60"/><stop offset=".56" stop-color="#D31E5F"/><stop offset=".63" stop-color="#C71D5D"/><stop offset=".7" stop-color="#B31A59"/><stop offset=".77" stop-color="#971754"/><stop offset=".84" stop-color="#73134E"/><stop offset=".91" stop-color="#460E46"/><stop offset=".98" stop-color="#13093D"/><stop offset="1" stop-color="#00073A"/></linearGradient><linearGradient id="s" x1="29.593" x2="31.331" y1="60.207" y2="98.379" gradientUnits="userSpaceOnUse"><stop stop-color="#FFEB49"/><stop offset=".09" stop-color="#FFE545" stop-opacity=".96"/><stop offset=".24" stop-color="#FFD63D" stop-opacity=".84"/><stop offset=".44" stop-color="#FFBD2F" stop-opacity=".66"/><stop offset=".68" stop-color="#FF9A1C" stop-opacity=".4"/><stop offset=".94" stop-color="#FF6F05" stop-opacity=".07"/><stop offset="1" stop-color="#F60" stop-opacity="0"/></linearGradient><linearGradient id="t" x1="35.554" x2="33.67" y1="63.131" y2="117.138" gradientUnits="userSpaceOnUse"><stop stop-color="#D81F60" stop-opacity="0"/><stop offset=".11" stop-color="#D81F60" stop-opacity=".01"/><stop offset=".19" stop-color="#D81F60" stop-opacity=".06"/><stop offset=".27" stop-color="#D81F60" stop-opacity=".14"/><stop offset=".35" stop-color="#D81F60" stop-opacity=".25"/><stop offset=".42" stop-color="#D81F60" stop-opacity=".39"/><stop offset=".49" stop-color="#D81F60" stop-opacity=".57"/><stop offset=".55" stop-color="#D81F60" stop-opacity=".77"/><stop offset=".62" stop-color="#D81F60"/><stop offset=".66" stop-color="#D21E5F"/><stop offset=".71" stop-color="#C21C5C"/><stop offset=".77" stop-color="#A81957"/><stop offset=".83" stop-color="#841551"/><stop offset=".9" stop-color="#551049"/><stop offset=".97" stop-color="#1D0A3F"/><stop offset="1" stop-color="#00073A"/></linearGradient><linearGradient id="v" x1="63.436" x2="80.588" y1="31.401" y2="139.546" gradientUnits="userSpaceOnUse"><stop stop-color="#E801DF"/><stop offset=".05" stop-color="#D203E2"/><stop offset=".17" stop-color="#9F0AEB"/><stop offset=".3" stop-color="#740FF2"/><stop offset=".42" stop-color="#5313F7"/><stop offset=".53" stop-color="#3C16FB"/><stop offset=".64" stop-color="#2D18FE"/><stop offset=".73" stop-color="#2919FF"/></linearGradient><linearGradient id="w" x1="29.884" x2="80.378" y1="40.981" y2="132.074" gradientUnits="userSpaceOnUse"><stop offset=".07" stop-color="#F742FD"/><stop offset=".21" stop-color="#CF3AFD"/><stop offset=".49" stop-color="#882CFD"/><stop offset=".73" stop-color="#5521FD"/><stop offset=".9" stop-color="#351BFD"/><stop offset="1" stop-color="#2919FD"/></linearGradient><linearGradient id="x" x1="40.308" x2="54.101" y1="43.208" y2="130.185" gradientUnits="userSpaceOnUse"><stop offset=".14" stop-color="#F742FD"/><stop offset="1" stop-color="#2919FD"/></linearGradient><linearGradient id="y" x1="61.133" x2="76.376" y1="39.825" y2="126.266" gradientUnits="userSpaceOnUse"><stop offset=".05" stop-color="#ED58F7"/><stop offset=".2" stop-color="#B847F8"/><stop offset=".38" stop-color="#8536FA"/><stop offset=".54" stop-color="#5D29FB"/><stop offset=".69" stop-color="#4020FC"/><stop offset=".81" stop-color="#2F1AFC"/><stop offset=".91" stop-color="#2919FD"/></linearGradient><radialGradient id="u" cx="0" cy="0" r="1" gradientTransform="translate(8.11 95.364) scale(24.8489)" gradientUnits="userSpaceOnUse"><stop stop-color="#FFEB49"/><stop offset=".07" stop-color="#FFE546" stop-opacity=".96"/><stop offset=".18" stop-color="#FFD73E" stop-opacity=".85"/><stop offset=".32" stop-color="#FFC031" stop-opacity=".68"/><stop offset=".49" stop-color="#FFA01F" stop-opacity=".44"/><stop offset=".69" stop-color="#FF7709" stop-opacity=".13"/><stop offset=".77" stop-color="#F60" stop-opacity="0"/></radialGradient></defs></svg>
