<!-- This Source Code Form is subject to the terms of the Mozilla Public
   - License, v. 2.0. If a copy of the MPL was not distributed with this
   - file, You can obtain one at http://mozilla.org/MPL/2.0/. -->
<svg xmlns="http://www.w3.org/2000/svg" viewBox="0 0 12 12" width="12" height="12" fill="context-fill" fill-opacity="context-fill-opacity">
<style>
.nova { display: none; }

@media -moz-pref("browser.nova.enabled") {
  .proton { display: none; }
  .nova { display: revert; }
}
</style>
<g class="proton">
  <path d="m6.24 8.999 3.614-3.613a.498.498 0 0 0 0-.707.5.5 0 0 0-.707 0L5.999 7.826 2.854 4.68a.5.5 0 0 0-.707.707L5.759 9l.481-.001z"/>
</g>
<g class="nova">
  <path d="M9.933 4.369a.626.626 0 0 1 .884.884L7.472 8.598c-.26.26-.605.403-.972.403s-.712-.143-.972-.403L2.183 5.253A.62.62 0 0 1 2 4.811a.623.623 0 0 1 1.066-.442l3.345 3.345c.042.042.135.042.177 0z" />
</g>
</svg>
