<!-- This Source Code Form is subject to the terms of the Mozilla Public
   - License, v. 2.0. If a copy of the MPL was not distributed with this
   - file, You can obtain one at http://mozilla.org/MPL/2.0/. -->
<svg xmlns="http://www.w3.org/2000/svg" viewBox="0 0 16 16" width="16" height="16" fill="context-fill" fill-opacity="context-fill-opacity">
<style>
.nova { display: none; }

@media -moz-pref("browser.nova.enabled") {
  .proton { display: none; }
  .nova { display: revert; }
}
</style>
<g class="proton">
  <path d="m8.352 10.999 5.466-5.465a.623.623 0 0 0-.001-.884.628.628 0 0 0-.885 0L7.998 9.585l-4.93-4.934a.626.626 0 0 0-.885.885L7.648 11l.704-.001z"/>
</g>
<g class="nova">
  <path d="M12.72 4.883a.75.75 0 0 1 1.062 1.06l-4.544 4.545c-.33.33-.77.512-1.236.512H8c-.467 0-.907-.182-1.237-.512L2.22 5.944a.75.75 0 0 1 1.06-1.061l4.544 4.543a.25.25 0 0 0 .354 0z" />
</g>
</svg>
