<!-- This Source Code Form is subject to the terms of the Mozilla Public
   - License, v. 2.0. If a copy of the MPL was not distributed with this
   - file, You can obtain one at http://mozilla.org/MPL/2.0/. -->
<svg xmlns="http://www.w3.org/2000/svg" viewBox="0 0 16 16" width="16" height="16" fill="context-fill" fill-opacity="context-fill-opacity">
<style>
.nova { display: none; }

@media -moz-pref("browser.nova.enabled") {
  .proton { display: none; }
  .nova { display: revert; }
}
</style>
<g class="proton">
  <path d="m8.352 5.001 5.466 5.465a.623.623 0 0 1-.001.884.628.628 0 0 1-.885 0L7.999 6.416l-4.932 4.933a.626.626 0 0 1-.885-.885L7.648 5l.704.001z"/>
</g>
<g class="nova">
  <path d="M8.002 5c.467 0 .906.182 1.237.513l4.544 4.543a.751.751 0 0 1-1.062 1.061L8.178 6.574a.25.25 0 0 0-.354 0l-4.543 4.543a.75.75 0 1 1-1.061-1.061l4.543-4.543C7.093 5.182 7.533 5 8 5z" />
</g>
</svg>
