<!-- This Source Code Form is subject to the terms of the Mozilla Public
   - License, v. 2.0. If a copy of the MPL was not distributed with this
   - file, You can obtain one at http://mozilla.org/MPL/2.0/. -->
<svg xmlns="http://www.w3.org/2000/svg" viewBox="0 0 16 16" width="16" height="16" fill="context-fill light-dark(black, white)" fill-opacity="context-fill-opacity">
<style>
.nova { display: none; }

@media -moz-pref("browser.nova.enabled") {
  .proton { display: none; }
  .nova { display: revert; }
}
</style>
<g class="proton">
  <path d="M8.6 1.1c-4.1 0-7.5 3.4-7.5 7.5s3.4 7.5 7.5 7.5 7.5-3.4 7.5-7.5-3.3-7.5-7.5-7.5zM12 8c.3 0 .6.3.6.6s-.3.6-.6.6l-6.8 0c-.3 0-.6-.3-.6-.6s.3-.6.6-.6L12 8z"/>
</g>
<g class="nova">
  <path fill-rule="evenodd" d="M8 0a8 8 0 1 1 0 16A8 8 0 0 1 8 0M4.75 7.25a.75.75 0 0 0 0 1.5h6.5a.75.75 0 0 0 0-1.5z" clip-rule="evenodd" />
</g>
</svg>
