<!-- This Source Code Form is subject to the terms of the Mozilla Public
   - License, v. 2.0. If a copy of the MPL was not distributed with this
   - file, You can obtain one at http://mozilla.org/MPL/2.0/. -->
<svg xmlns="http://www.w3.org/2000/svg" viewBox="0 0 16 16" width="16" height="16" fill="context-fill" fill-opacity="context-fill-opacity">
<style>
.nova { display: none; }

@media -moz-pref("browser.nova.enabled") {
  .proton { display: none; }
  .nova { display: revert; }
}
</style>
<g class="proton">
  <path stroke="context-stroke none" stroke-width="0.5" d="m6.023 13-4.84-4.839a.626.626 0 0 1 .885-.885l4.307 4.308 7.559-7.561a.628.628 0 0 1 .885 0 .628.628 0 0 1 0 .885l-8.09 8.09-.706.002z"/>
</g>
<g class="nova">
  <path d="M13.72 4.443a.75.75 0 1 1 1.06 1.06l-6.43 6.43a2.75 2.75 0 0 1-3.888 0L1.22 8.693A.751.751 0 0 1 2.28 7.63l3.241 3.241a1.25 1.25 0 0 0 1.768 0z" />
</g>
</svg>
