<!-- This Source Code Form is subject to the terms of the Mozilla Public
   - License, v. 2.0. If a copy of the MPL was not distributed with this
   - file, You can obtain one at http://mozilla.org/MPL/2.0/. -->
<svg width="20" height="20" fill="context-fill" fill-opacity="context-fill-opacity" xmlns="http://www.w3.org/2000/svg">
<style>
.nova { display: none; }

@media -moz-pref("browser.nova.enabled") {
  .proton { display: none; }
  .nova { display: revert; }
}
</style>
<g class="proton"><g clip-path="url(#a)"><path fill-rule="evenodd" clip-rule="evenodd" d="M12.968 1.216a2.41 2.41 0 0 1 3.41 0l2.406 2.406a2.41 2.41 0 0 1 0 3.41l-2.44 2.438 1.067 1.066-1.238 1.238-1.065-1.066-8.546 8.546a.875.875 0 0 1-.619.256H1.365a.875.875 0 0 1-.875-.875v-4.578c0-.232.092-.455.256-.619l8.546-8.546-1.066-1.065 1.238-1.238 1.066 1.066 2.438-2.439zM2.24 14.42l8.29-8.29 3.34 3.341-8.29 8.29H2.24v-3.34z"/></g><defs><clipPath id="a"><path fill="#fff" d="M0 0h20v20H0z"/></clipPath></defs></g>
<g class="nova">
  <path fill-rule="evenodd" d="M12.865 2.753a3.14 3.14 0 0 1 4.261.17l.954.953a3.14 3.14 0 0 1 .17 4.26q-.89 1.043-1.867 2.113l.635.634a.875.875 0 1 1-1.238 1.238l-.592-.593a83 83 0 0 1-2.48 2.499 83 83 0 0 1-5.1 4.532v.001a1.97 1.97 0 0 1-1.248.442H2.875A.875.875 0 0 1 2 18.127v-3.485c0-.451.15-.89.442-1.248l.514-.621a84 84 0 0 1 6.517-6.96l-.594-.593a.876.876 0 0 1 1.238-1.238l.636.636a84 84 0 0 1 2.112-1.865M10.71 7.051a81 81 0 0 0-6.912 7.45.2.2 0 0 0-.048.141v2.61h2.61a.22.22 0 0 0 .14-.047l.608-.502a82 82 0 0 0 6.841-6.413z" clip-rule="evenodd" />
</g>
</svg>