<!-- This Source Code Form is subject to the terms of the Mozilla Public
   - License, v. 2.0. If a copy of the MPL was not distributed with this
   - file, You can obtain one at http://mozilla.org/MPL/2.0/. -->
<svg xmlns="http://www.w3.org/2000/svg" viewBox="0 0 16 16" width="16" height="16" fill="context-fill" fill-opacity="context-fill-opacity">
<style>
.nova { display: none; }

@media -moz-pref("browser.nova.enabled") {
  .proton { display: none; }
  .nova { display: revert; }
}
</style>
<g class="proton">
  <path d="M8.5 1a7.5 7.5 0 1 0 0 15 7.5 7.5 0 0 0 0-15zm2.447 1.75a6.255 6.255 0 0 1 3.756 5.125l-2.229 0A9.426 9.426 0 0 0 10.54 2.75l.407 0zm-2.049 0a8.211 8.211 0 0 1 2.321 5.125l-5.438 0A8.211 8.211 0 0 1 8.102 2.75l.796 0zm-2.846 0 .408 0a9.434 9.434 0 0 0-1.934 5.125l-2.229 0A6.254 6.254 0 0 1 6.052 2.75zm0 11.5a6.252 6.252 0 0 1-3.755-5.125l2.229 0A9.426 9.426 0 0 0 6.46 14.25l-.408 0zm2.05 0a8.211 8.211 0 0 1-2.321-5.125l5.437 0a8.211 8.211 0 0 1-2.321 5.125l-.795 0zm2.846 0-.409 0a9.418 9.418 0 0 0 1.934-5.125l2.229 0a6.253 6.253 0 0 1-3.754 5.125z"/>
</g>
<g class="nova">
  <path fill-rule="evenodd" d="M8 0a8 8 0 1 1 0 16A8 8 0 0 1 8 0m0 7.75c-.728 0-1.568.033-2.497.122L5.5 8a8.97 8.97 0 0 0 2.499 6.22A8.97 8.97 0 0 0 10.501 8l-.004-.13A26 26 0 0 0 8 7.75m-4 .309c-.782.121-1.61.286-2.475.508a6.5 6.5 0 0 0 4.496 5.624A10.45 10.45 0 0 1 4 8.06m7.999 0a10.45 10.45 0 0 1-2.02 6.132 6.5 6.5 0 0 0 4.495-5.623 26 26 0 0 0-2.475-.508M9.98 1.809a10.45 10.45 0 0 1 1.918 4.72 28 28 0 0 1 2.527.485A6.51 6.51 0 0 0 9.98 1.808m-3.96 0A6.51 6.51 0 0 0 1.575 7.01c.885-.213 1.73-.37 2.529-.484a10.45 10.45 0 0 1 1.918-4.72M8 1.779a8.97 8.97 0 0 0-2.346 4.572 27.5 27.5 0 0 1 4.693 0A8.97 8.97 0 0 0 8 1.779" clip-rule="evenodd" />
</g>
</svg>
