<!-- This Source Code Form is subject to the terms of the Mozilla Public
   - License, v. 2.0. If a copy of the MPL was not distributed with this
   - file, You can obtain one at http://mozilla.org/MPL/2.0/. -->
<svg xmlns="http://www.w3.org/2000/svg" viewBox="0 0 16 16" width="16" height="16" fill="context-fill" fill-opacity="context-fill-opacity">
<style>
.nova { display: none; }

@media -moz-pref("browser.nova.enabled") {
  .proton { display: none; }
  .nova { display: revert; }
}
</style>
<g class="proton">
  <path d="M6.035 1.25c-1 0-1.812.812-1.812 1.813h1.5c0-.173.14-.313.312-.313h5.95c.172 0 .313.14.313.313v7.65c0 .172-.14.312-.313.312v1.5c1 0 1.813-.812 1.813-1.813v-7.65c0-1-.812-1.812-1.813-1.812h-5.95z"/>
  <path fill-rule="evenodd" clip-rule="evenodd" d="M3.063 4.225c-1.001 0-1.813.812-1.813 1.813v7.65c0 1 .812 1.812 1.813 1.812h5.95c1 0 1.812-.812 1.812-1.812v-7.65c0-1.001-.812-1.813-1.813-1.813h-5.95zM2.75 6.038c0-.173.14-.313.313-.313h5.95c.172 0 .312.14.312.313v7.65c0 .172-.14.312-.313.312h-5.95a.313.313 0 0 1-.312-.312v-7.65z"/>
</g>
<g class="nova">
  <path fill-rule="evenodd" d="M9.5 4c.907 0 1.97.052 3.15.211C14.016 4.396 15 5.585 15 6.933v5.132a2.75 2.75 0 0 1-2.383 2.727 23.5 23.5 0 0 1-6.266-.003C4.983 14.604 4 13.415 4 12.067V6.935a2.75 2.75 0 0 1 2.383-2.728A23.5 23.5 0 0 1 9.5 4m0 1.5c-1.066 0-2.045.077-2.919.194-.62.083-1.08.611-1.081 1.24v5.133c0 .629.459 1.155 1.05 1.235a22 22 0 0 0 5.869.004 1.25 1.25 0 0 0 1.081-1.241V6.933c0-.629-.459-1.155-1.05-1.235a22 22 0 0 0-2.95-.199" clip-rule="evenodd" />
  <path d="M3.38 1.207c2.08-.276 4.2-.274 6.27.005.87.117 1.596.656 2.002 1.393A25 25 0 0 0 9.497 2.5c-.5 0-1.004.02-1.505.05Q7.245 2.5 6.5 2.5c-.97 0-1.952.064-2.92.192A1.255 1.255 0 0 0 2.5 3.935v5.13l-.001.002v2.449a2.76 2.76 0 0 1-1.5-2.45v-5.13a2.76 2.76 0 0 1 2.382-2.729" />
</g>
</svg>
