<!-- This Source Code Form is subject to the terms of the Mozilla Public
   - License, v. 2.0. If a copy of the MPL was not distributed with this
   - file, You can obtain one at http://mozilla.org/MPL/2.0/. -->
<svg xmlns="http://www.w3.org/2000/svg" viewBox="0 0 16 16" width="16" height="16" fill="context-fill" fill-opacity="context-fill-opacity">
<style>
.nova { display: none; }

@media -moz-pref("browser.nova.enabled") {
  .proton { display: none; }
  .nova { display: revert; }
}
</style>
<g class="proton">
  <path d="M7.625 15.5a7.5 7.5 0 1 1 0-15 7.5 7.5 0 0 1 0 15zM8.25 4.625a.625.625 0 0 0-1.25 0l0 4.438a.625.625 0 0 0 1.25 0l0-4.438zm0 6.375L8 10.75l-.75 0L7 11l0 .75.25.25.75 0 .25-.25 0-.75z"/>
</g>
<g class="nova">
  <path d="M8 0a8 8 0 1 1 0 16A8 8 0 0 1 8 0m-.75 10.5V12h1.5v-1.5zm0-6.5v5h1.5V4z" />
</g>
</svg>
