<!-- This Source Code Form is subject to the terms of the Mozilla Public
   - License, v. 2.0. If a copy of the MPL was not distributed with this
   - file, You can obtain one at http://mozilla.org/MPL/2.0/. -->
<svg xmlns="http://www.w3.org/2000/svg" viewBox="0 0 16 16" width="16" height="16" fill="context-fill light-dark(black, white)" fill-opacity="context-fill-opacity">
<style>
.nova { display: none; }

@media -moz-pref("browser.nova.enabled") {
  .proton { display: none; }
  .nova { display: revert; }
}
</style>
<g class="proton">
  <path d="M7.625.5a7.5 7.5 0 1 0 0 15 7.5 7.5 0 0 0 0-15zm.625 10.875a.625.625 0 0 1-1.25 0l0-4.437a.625.625 0 0 1 1.25 0l0 4.437zM8.25 5 8 5.25l-.75 0L7 5l0-.75.25-.25L8 4l.25.25 0 .75z"/>
</g>
<g class="nova">
  <path fill-rule="evenodd" d="M8 0a8 8 0 1 1 0 16A8 8 0 0 1 8 0m0 7a.75.75 0 0 0-.75.75v3.5a.75.75 0 0 0 1.5 0v-3.5A.75.75 0 0 0 8 7m0-3a.875.875 0 1 0 0 1.75A.875.875 0 0 0 8 4" clip-rule="evenodd" />
</g>
</svg>
