<!-- This Source Code Form is subject to the terms of the Mozilla Public
   - License, v. 2.0. If a copy of the MPL was not distributed with this
   - file, You can obtain one at http://mozilla.org/MPL/2.0/. -->
<svg xmlns="http://www.w3.org/2000/svg" viewBox="0 0 16 16" width="16" height="16" fill="context-fill light-dark(black, white)" fill-opacity="context-fill-opacity">
<style>
.nova { display: none; }

@media -moz-pref("browser.nova.enabled") {
  .proton { display: none; }
  .nova { display: revert; }
}
</style>
<g class="proton">
  <path d="M8.25 6.938a.625.625 0 0 0-1.25 0l0 4.438a.625.625 0 0 0 1.25-.001l0-4.437z"/>
  <path d="m8 4-.75 0-.25.25L7 5l.25.25.75 0L8.25 5l0-.75z"/>
  <path d="M7.625 1.75c3.446 0 6.25 2.804 6.25 6.25s-2.804 6.25-6.25 6.25-6.25-2.804-6.25-6.25 2.804-6.25 6.25-6.25m0-1.25a7.5 7.5 0 1 0 0 15 7.5 7.5 0 0 0 0-15z"/>
</g>
<g class="nova">
  <path d="M8 7a.75.75 0 0 1 .75.75v3.5a.75.75 0 0 1-1.5 0v-3.5A.75.75 0 0 1 8 7m0-3a.875.875 0 1 1 0 1.75A.875.875 0 0 1 8 4" />
  <path fill-rule="evenodd" d="M8 0a8 8 0 1 1 0 16A8 8 0 0 1 8 0m0 1.5a6.5 6.5 0 1 0 0 13 6.5 6.5 0 0 0 0-13" clip-rule="evenodd" />
</g>
</svg>
