<!-- This Source Code Form is subject to the terms of the Mozilla Public
   - License, v. 2.0. If a copy of the MPL was not distributed with this
   - file, You can obtain one at http://mozilla.org/MPL/2.0/. -->
<svg xmlns="http://www.w3.org/2000/svg" viewBox="0 0 16 16" width="16" height="16" fill="context-fill" fill-opacity="context-fill-opacity">
<style>
.nova { display: none; }

@media -moz-pref("browser.nova.enabled") {
  .proton { display: none; }
  .nova { display: revert; }
}
</style>
<g class="proton">
  <path d="M10.707 6 14.7 6l.3-.3 0-3.993a.5.5 0 0 0-.854-.354l-1.459 1.459A6.95 6.95 0 0 0 8 1C4.141 1 1 4.141 1 8s3.141 7 7 7a6.97 6.97 0 0 0 6.968-6.322.626.626 0 0 0-.562-.682.635.635 0 0 0-.682.562A5.726 5.726 0 0 1 8 13.75c-3.171 0-5.75-2.579-5.75-5.75S4.829 2.25 8 2.25a5.71 5.71 0 0 1 3.805 1.445l-1.451 1.451a.5.5 0 0 0 .353.854z"/>
</g>
<g class="nova">
  <path d="M7.49 2a6.48 6.48 0 0 1 4.495 1.807l1.161-1.16a.5.5 0 0 1 .854.354V6.5a.5.5 0 0 1-.5.5H10a.5.5 0 0 1-.353-.854l1.278-1.28a5 5 0 1 0 1.33 5.151.75.75 0 1 1 1.43.456A6.502 6.502 0 0 1 .99 8.5 6.5 6.5 0 0 1 7.49 2" />
</g>
</svg>
