<!-- This Source Code Form is subject to the terms of the Mozilla Public
   - License, v. 2.0. If a copy of the MPL was not distributed with this
   - file, You can obtain one at http://mozilla.org/MPL/2.0/. -->
<svg xmlns="http://www.w3.org/2000/svg" viewBox="0 0 16 16" width="16" height="16" fill="context-fill" fill-opacity="context-fill-opacity">
<style>
.nova { display: none; }

@media -moz-pref("browser.nova.enabled") {
  .proton { display: none; }
  .nova { display: revert; }
}
</style>
<g class="proton">
  <path d="m10.089 10.973 3.845 3.844a.62.62 0 0 0 .883-.001.625.625 0 0 0-.001-.884L10.983 10.1l.006-.427A5.5 5.5 0 1 0 1 6.5 5.5 5.5 0 0 0 6.5 12c1.189 0 2.288-.38 3.187-1.022l.402-.005zM6.5 10.75c-2.343 0-4.25-1.907-4.25-4.25S4.157 2.25 6.5 2.25s4.25 1.907 4.25 4.25-1.907 4.25-4.25 4.25z"/>
</g>
<g class="nova">
  <path fill-rule="evenodd" d="M7 1a6 6 0 0 1 4.738 9.677l3.043 3.042a.75.75 0 0 1-1.061 1.061l-3.042-3.043A5.97 5.97 0 0 1 7 13 6 6 0 0 1 7 1m0 1.5a4.5 4.5 0 1 0 0 9 4.5 4.5 0 0 0 0-9" clip-rule="evenodd" />
</g>
</svg>
