<!-- This Source Code Form is subject to the terms of the Mozilla Public
   - License, v. 2.0. If a copy of the MPL was not distributed with this
   - file, You can obtain one at http://mozilla.org/MPL/2.0/. -->
<svg xmlns="http://www.w3.org/2000/svg" viewBox="0 0 16 16" width="16" height="16" fill="context-fill" fill-opacity="context-fill-opacity">
<style>
.nova { display: none; }

@media -moz-pref("browser.nova.enabled") {
  .proton { display: none; }
  .nova { display: revert; }
}
</style>
<g class="proton">
  <path d="m5.172 14.75-3.322 0-.6-.6 0-5.3.6-.6 6.947 0 .266-.464c.227-.396.571-.648.95-.784C10.009 7.001 10.005 7 10 7l0-3c0-2.206-1.794-4-4-4S2 1.794 2 4l0 3a2 2 0 0 0-2 2l0 5a2 2 0 0 0 2 2l3.359 0a1.778 1.778 0 0 1-.187-1.25zM3.25 4c0-1.517 1.233-2.75 2.75-2.75S8.75 2.483 8.75 4l0 3-5.5 0 0-3z"/>
  <path d="M14.971 14.266 11.66 8.493c-.454-.791-1.615-.791-2.069 0L6.28 14.266C5.834 15.041 6.406 16 7.314 16l6.623 0c.907 0 1.479-.959 1.034-1.734zm-3.721-1.892a.625.625 0 0 1-1.25 0l0-1.747a.625.625 0 0 1 1.25 0l0 1.747zM10.625 15a.625.625 0 1 1 0-1.25.625.625 0 0 1 0 1.25z"/>
</g>
<g class="nova">
  <path fill-rule="evenodd" d="M11.04 9.194a1.11 1.11 0 0 1 1.92 0l2.888 4.96c.397.683-.026 1.565-.81 1.661a25 25 0 0 1-6.06.001 1.11 1.11 0 0 1-.825-1.664zm.96 4.391a.625.625 0 1 0 0 1.25.625.625 0 0 0 0-1.25m0-2.875a.625.625 0 0 0-.625.625v1a.625.625 0 0 0 1.25 0v-1A.625.625 0 0 0 12 10.71M6.5 0C8.43 0 10 1.57 10 3.5v1.745a2.56 2.56 0 0 1 1.969 2.152 2.32 2.32 0 0 0-1.468.553v-.203c0-.533-.391-.985-.91-1.05a24.6 24.6 0 0 0-6.154-.005A1.07 1.07 0 0 0 2.5 7.747v3.505c0 .533.391.985.91 1.05 1.415.182 2.852.23 4.28.16l-.618 1.061h.002a2.4 2.4 0 0 0-.199.465c-.124.002-.25.012-.374.012a26 26 0 0 1-3.28-.209 2.56 2.56 0 0 1-2.22-2.539V7.747c0-1.202.843-2.236 1.998-2.499V3.5A3.505 3.505 0 0 1 6.5 0m0 1.5c-1.103 0-2 .897-2 2v1.58c1.33-.102 2.67-.102 4 0V3.5c0-1.103-.897-2-2-2" clip-rule="evenodd" />
</g>
</svg>
