<!-- This Source Code Form is subject to the terms of the Mozilla Public
   - License, v. 2.0. If a copy of the MPL was not distributed with this
   - file, You can obtain one at https://mozilla.org/MPL/2.0/. -->
<svg width="12" height="12" viewBox="0 0 16 16" fill="context-fill" fill-opacity="context-fill-opacity" xmlns="http://www.w3.org/2000/svg"><path d="M7.555 2.195a.666.666 0 0 0-.942 0L1.37 7.44a1.165 1.165 0 0 0 0 1.647l5.244 5.245a.666.666 0 0 0 .942-.941L3.432 9.269a.2.2 0 0 1 .142-.34h10.761a.665.665 0 0 0 0-1.331H3.575a.2.2 0 0 1-.14-.341l4.12-4.122a.666.666 0 0 0 0-.94Z"/></svg>
