<!-- This Source Code Form is subject to the terms of the Mozilla Public
   - License, v. 2.0. If a copy of the MPL was not distributed with this
   - file, You can obtain one at http://mozilla.org/MPL/2.0/. -->
<svg width="20" height="20" xmlns="http://www.w3.org/2000/svg" fill="context-fill" fill-opacity="context-fill-opacity">
<style>
.nova { display: none; }

@media -moz-pref("browser.nova.enabled") {
  .proton { display: none; }
  .nova { display: revert; }
}
</style>
<g class="proton"><g clip-path="url(#a)"><path fill-rule="evenodd" clip-rule="evenodd" d="M5 18h9.656a3.217 3.217 0 0 0 3.054-2.201l2.145-6.436a2.751 2.751 0 0 0-.382-2.504 2.75 2.75 0 0 0-2.254-1.153H13.23V3.463A2.843 2.843 0 0 0 10.388.625c-.768 0-1.446.489-1.687 1.216l-.994 2.982a1.809 1.809 0 0 1-.197.408L5.665 8.044H5V8a1 1 0 0 0-1-1H1a1 1 0 0 0-1 1v10.5a1 1 0 0 0 1 1h3a1 1 0 0 0 1-1V18zm0-1.75h9.656c.633 0 1.193-.403 1.394-1.005l2.145-6.435a1.022 1.022 0 0 0-.141-.928 1.02 1.02 0 0 0-.835-.427H11.48V3.463c0-.6-.488-1.088-1.089-1.088L9.366 5.38a3.55 3.55 0 0 1-.393.81L6.61 9.794H5v6.456z"/></g><defs><clipPath id="a"><path fill="#fff" d="M0 0h20v20H0z"/></clipPath></defs></g>
<g class="nova">
  <path fill-rule="evenodd" d="M10.342.5a2.64 2.64 0 0 1 2.635 2.636v2.352a38 38 0 0 1 4.087.005A3.12 3.12 0 0 1 20 8.528a12.12 12.12 0 0 1-2.743 7.928 3.1 3.1 0 0 1-2.07 1.135 78 78 0 0 1-5.42.409H4.914A1.5 1.5 0 0 1 3.5 19h-2A1.5 1.5 0 0 1 0 17.5V8a1.5 1.5 0 0 1 1.5-1.5h2a1.5 1.5 0 0 1 1.47 1.197l.436-.012a20.2 20.2 0 0 0 2.6-5.732C8.345 1.054 9.147.5 10.028.5zm-.316 1.75c-.158 0-.302.1-.357.246a21.5 21.5 0 0 1-1.406 3.702A22 22 0 0 1 6.6 9.042a.87.87 0 0 1-.692.378L5 9.448v6.802h4.73a77 77 0 0 0 5.262-.4c.352-.038.674-.218.908-.503a10.34 10.34 0 0 0 2.348-6.784 1.36 1.36 0 0 0-1.28-1.322 38 38 0 0 0-2.078-.055 37 37 0 0 0-2.721.107.87.87 0 0 1-.942-.872V3.136a.887.887 0 0 0-.886-.886z" clip-rule="evenodd" />
</g>
</svg>