<!-- This Source Code Form is subject to the terms of the Mozilla Public
   - License, v. 2.0. If a copy of the MPL was not distributed with this
   - file, You can obtain one at http://mozilla.org/MPL/2.0/. -->
<svg xmlns="http://www.w3.org/2000/svg" width="16" height="16" viewBox="0 0 16 16" fill="context-fill" fill-opacity="context-fill-opacity">
<style>
.nova { display: none; }

@media -moz-pref("browser.nova.enabled") {
  .proton { display: none; }
  .nova { display: revert; }
}
</style>
<g class="proton">
  <path d="M12.7197 5.71968L11.354 4.354C11.039 4.039 11.262 3.5 11.707 3.5H15.5C15.776 3.5 16 3.724 16 4V7.793C16 8.238 15.461 8.462 15.146 8.147L13.7798 6.78084L9.03033 11.5303C8.73743 11.8232 8.26256 11.8232 7.96967 11.5303L5.5 9.06065L1.08233 13.4783L0.0216675 12.4177L4.96967 7.46966C5.26256 7.17677 5.73743 7.17677 6.03033 7.46966L8.5 9.93933L12.7197 5.71968Z"/>
</g>
<g class="nova">
  <path d="M15.501 3a.5.5 0 0 1 .5.5v3.793a.5.5 0 0 1-.854.354L13.78 6.281l-3.012 3.014c-1.038 1.039-2.85 1.039-3.889 0L5.707 8.123a1.28 1.28 0 0 0-1.768 0L1.28 10.78A.75.75 0 1 1 .22 9.72l2.658-2.656c1.038-1.04 2.85-1.04 3.889 0l1.172 1.171a1.28 1.28 0 0 0 1.768 0L12.72 5.22l-1.366-1.366A.5.5 0 0 1 11.708 3z" />
</g>
</svg>
