<!-- This Source Code Form is subject to the terms of the Mozilla Public
   - License, v. 2.0. If a copy of the MPL was not distributed with this
   - file, You can obtain one at http://mozilla.org/MPL/2.0/. -->
<svg xmlns="http://www.w3.org/2000/svg" xmlns:xlink="http://www.w3.org/1999/xlink" viewBox="0 0 654.19 387.68"><defs><linearGradient id="a" x1="326.65" x2="328.06" y1="308.65" y2="193.15" gradientUnits="userSpaceOnUse"><stop offset="0" stop-color="#fcf5f0"/><stop offset=".22" stop-color="#faecf1"/><stop offset=".56" stop-color="#f5d4f5"/><stop offset="1" stop-color="#eeaefc"/></linearGradient><linearGradient xlink:href="#a" id="c" x1="329.6" x2="322.82" y1="380.36" y2="262.3"/><linearGradient id="b" x1="246.87" x2="224.05" y1="176.92" y2="115.48" gradientUnits="userSpaceOnUse"><stop offset="0" stop-color="#fceede"/><stop offset="1" stop-color="#fff"/></linearGradient><linearGradient xlink:href="#b" id="d" x1="565.72" x2="542.9" y1="128.04" y2="66.6"/><linearGradient xlink:href="#b" id="e" x1="191.43" x2="162.83" y1="128.95" y2="56.84"/></defs><path fill="#fcf5f0" d="M0 0h654.19v387.68H0z"/><path fill="url(#a)" d="M628.25 242.93c-46.99-8.62-65.32-29.08-112.97-29.08s-67.42 18.01-107.11 29.08c-25.6 7.14-53.12 9.74-76.51 9.48-64.7-4.17-75.88-24.47-124.81-24.72-41.76-.21-63.19 16.39-96.17 23.22-38.77 8.03-82.8 7.92-101.54 7.41-3.29-.09-6.75-.19-9.15-.26v64.48c1.57-1.13 3.36-2.39 4.61-3.21 48.65-32.09 109.82-32.95 150.88-9.62 39.87 22.65 72.31 37.98 113.39 28.07 27.41-6.61 50.07-23.5 72.27-34.6 33.66-16.83 63.76-20.14 111.88-5.94 34.97 10.32 61.57 21.27 98.27 21.51 43.55.29 72.19-7.59 98.88-29.42 1.07-.87 2.65-2.24 4.02-3.44v-38.26c-.75-.13-1.5-.26-2.09-.36-6.78-1.19-14.55-2.62-23.86-4.33Z"/><path fill="url(#c)" d="M650.17 289.32c-26.69 21.83-55.33 29.71-98.88 29.42-36.7-.24-63.3-11.19-98.27-21.51-48.12-14.2-78.21-10.89-111.88 5.94-22.21 11.1-44.87 27.99-72.27 34.6-41.08 9.9-73.52-5.42-113.39-28.07-41.06-23.33-102.23-22.48-150.88 9.62-1.25.82-3.04 2.09-4.61 3.21v65.16h654.19v-101.8c-1.38 1.2-2.95 2.56-4.02 3.44Z"/><path fill="url(#b)" d="M215.7 122.72c-6.59 4.74-8.9 8.36-12.95 8.36-7.28 0-9.32 6.55-6.36 8.43 5.38 3.41 16.35 1.66 35.22 1.66 21.03 0 26.4-.3 32.06-1.42 7.33-1.45 4.81-10.85-2.47-11.97s-10.2 1.06-21.75-6.38c-8.21-5.29-17.06-3.49-23.75 1.32"/><path fill="url(#d)" d="M515.24 90.62c5.38 3.41 16.35 1.66 35.22 1.66 21.03 0 26.4-.3 32.06-1.42 7.33-1.45 4.81-10.85-2.47-11.97s-10.2 1.06-21.75-6.38c-8.21-5.29-17.06-3.49-23.75 1.32-6.59 4.74-8.9 8.36-12.95 8.36-7.28 0-9.32 6.55-6.36 8.43"/><path fill="url(#e)" d="M102.55 86.43c4.9 4.21 35.26 3.46 69.54 3.46 38.2 0 53.38.05 63.67-2.05 13.31-2.72 10.77-14.03-2.45-16.13s-21.55-15.43-43.1-14.03-27.43 7.72-41.14 13.33-25.94 4.91-33.3 4.91c-13.22 0-18.12 6.31-13.22 10.52Z"/></svg>
