<!-- This Source Code Form is subject to the terms of the Mozilla Public
   - License, v. 2.0. If a copy of the MPL was not distributed with this
   - file, You can obtain one at http://mozilla.org/MPL/2.0/. -->
<svg xmlns="http://www.w3.org/2000/svg" width="540" height="400" fill="none" viewBox="0 0 540 400"><path fill="url(#a)" d="m449.215 306.624-2.311-7.469-45.708 12.546s-25.628 69.449-16.76 69.449h85.232c27.37.032 23.953-17.9 9.617-19.608-7.062-.846-27.89-1.188-33.992-1.318-6.476-.147-10.609-1.806-7.794-6.883l11.699-46.717z"/><path fill="url(#b)" d="m449.215 306.624-2.311-7.469-45.708 12.546s-25.628 69.449-16.76 69.449h85.232c27.37.032 23.953-17.9 9.617-19.608-7.062-.846-27.89-1.188-33.992-1.318-6.476-.147-10.609-1.806-7.794-6.883l11.699-46.717z"/><path fill="url(#c)" d="M444.236 50.992c-12.025-2.36-28.232 66.324-28.232 66.324l60.694 14.417s-2.571-15.475-8.412-35.847c-5.451-18.99-13.799-42.893-24.067-44.91z"/><path fill="url(#d)" d="M444.236 50.992c-12.025-2.36-28.232 66.324-28.232 66.324l60.694 14.417s-2.571-15.475-8.412-35.847c-5.451-18.99-13.799-42.893-24.067-44.91z"/><path fill="url(#e)" d="M501.676 222.84c3.612-16.549 15.865-9.617 21.039-15.621 3.824-4.443-4.328-7.355-3.612-9.877 1.123-3.954 8.087 2.522 10.593-.733 3.434-4.458-2.799-11.113-4.426-12.48-3.075-2.587 6.46 1.155 7.127-2.799 1.546-9.112-14.937-24.017-19.624-34.545-2.392-5.403-2.571-21.675-3.352-31.942-.634-8.104-.358-12.562-6.053-31.291-3.547-11.683-11.016-25.596-17.264-27.19-5.809-1.481-9.536 6.264-16.045 21.137-4.425 10.12-4.995 16.06-8.721 21.007-.212.276-22.944-3.385-39.525 3.205-33.243 13.213-25.156 36.694-58.579 35.148-9.665-.44-12.936-3.157-16.142 2.733-3.14 5.777 1.449 19.999 13.425 30.055 8.006 6.72 10.642 6.216 22.878 15.116 15.589 11.326-7.078 56.855-24.798 62.452-13.669 4.312-22.537 4.817-36.807 4.817-3.873 0-.993 31.941-1.335 65.12-.358 35.847-3.645 73.11-.325 73.094 17.053-.114 33.65-.342 57.635-.342h52.217c23.399 0 29.712-.781 30.331-6.851 1.285-12.399-11.684-13.522-11.163-14.205 8.429-11.228 36.417-39.411 46.18-92.718 6.997-38.19 3.254-39.134 6.33-53.258z"/><path fill="url(#f)" d="M460.328 383.021c1.285-12.399-11.683-13.522-11.163-14.206 6.558-8.738 24.929-27.727 37.377-60.792-44.016 1.432-79.261 37.507-79.31 81.848h22.765c23.399 0 29.712-.781 30.331-6.85"/><path fill="url(#g)" d="M363.233 136.826c-9.665-.439-12.936-3.157-16.142 2.734-3.14 5.776 1.449 19.998 13.425 30.054 8.006 6.72 10.642 6.216 22.878 15.117 15.589 11.325-7.078 56.854-24.798 62.451-13.669 4.312-22.537 4.817-36.807 4.817-3.873 0-.993 31.942-1.335 65.12-.358 35.847-3.645 73.11-.325 73.094 17.053-.114 33.65-.342 57.635-.342h52.217c23.399 0 29.712-.781 30.331-6.851 1.285-12.399-11.684-13.522-11.163-14.205 8.429-11.228 36.417-39.411 46.18-92.718 6.997-38.19 3.254-39.134 6.33-53.258 3.612-16.548 15.865-9.616 21.039-15.621 3.824-4.442-4.328-7.355-3.612-9.877 1.123-3.954 8.087 2.522 10.593-.732 3.433-4.458-2.799-11.114-4.426-12.481-.976-.829-.667-1.008.228-.992-18.599-13.522-30.168-24.701-57.912-24.701-19.478 0-24.994.83-46.847 2.734-18.924 1.643-34.936-2.246-38.89-10.414-2.669-5.516-7.566-10.235-13.831-13.88a59 59 0 0 1-4.768-.033z" opacity=".6"/><path fill="url(#h)" d="M476.436 277.383s-13.44 22.049-39.264 58.091c-8.494 11.846-18.306 35.147-19.917 41.949-3.45 14.661 8.315-4.133 12.887-1.074 1.611 1.074 12.4-4.849 30.689-39.801 16.826-32.153 15.605-59.165 15.605-59.165" opacity=".6"/><path fill="url(#i)" d="M503.433 139.365c.358.244 3.092-7.925 6.378-18.225-.13-2.246-.244-4.393-.406-6.314-.635-8.103-.358-12.561-6.053-31.29-3.548-11.684-11.017-25.596-17.265-27.19-5.809-1.482-9.535 6.264-16.044 21.136-4.426 10.121-4.996 16.06-8.722 21.007-.098.13-5.256-.618-12.399-.748 2.799.65 18.176 4.686 29.761 16.646 11.667 12.058 23.79 24.327 24.75 24.961z"/><path fill="url(#j)" d="M390.179 317.314c-8.087-32.185-31.34-56.252-59.262-65.429-2.832.098-5.826.13-9.113.13-3.872 0-.992 31.942-1.334 65.12-.358 35.848-3.645 73.11-.326 73.094 17.053-.114 33.651-.342 57.636-.342h1.334c12.871-20.307 17.639-46.44 11.065-72.573" opacity=".97"/><path fill="url(#k)" d="m411.658 359.996 23.887-44.96-20.99 20.991 6.508-29.566-19.917 25.791-3.238-16.142-12.887 24.262-6.476-13.425s-19.543 49.923-20.064 63.005c5.94-.032 12.302-.049 19.315-.049h52.217c23.399 0 29.712-.781 30.331-6.85 1.171-11.309-9.487-13.229-10.984-13.994-8.982-.683-24.733-.992-29.908-1.123-6.476-.162-10.609-2.066-7.794-7.908z"/><path fill="url(#l)" d="M391.725 284.104c3.612-1.416 16.776-27.76 18.029-45.822 1.464-21.267-5.305-38.776-24.522-51.81 11.748 13.587-9.682 55.39-26.621 60.727-10.202 3.222-17.72 4.312-26.816 4.67 2.018 7.241 3.564 12.351 4.003 12.676 1.578 1.22 52.314 20.991 55.943 19.559z" opacity=".97"/><path fill="#ffc635" d="M401.683 160.583s-3.775-.26-8.917-5.76c-7.208-7.697-7.745-13.604-20.795-18.225-2.571.293-5.435.391-8.722.244-9.665-.439-12.936-3.156-16.142 2.734-3.14 5.777 1.449 19.998 13.425 30.054 4.946 4.15 7.843 5.549 12.22 8.104 16.321-3.206 28.948-17.151 28.948-17.151z"/><path fill="#00073a" d="M358.595 140.097c-.13-1.318-1.057-2.946-3.026-4.052-4.133-.504-6.33-.439-8.478 3.515-.651 1.188-.944 2.766-.944 4.572.879.667 2.018 1.188 3.45 1.448 5.37.993 9.259-2.864 8.998-5.483"/><path fill="url(#m)" d="M442.461 122.751c5.565-.293 10.17 3.938 5.223 13.587-3.889 7.567-8.64 9.861-13.522 8.559-2.555-.683-5.353-5.077-2.408-10.87 4.019-7.891 7.176-11.081 10.707-11.26z"/><path fill="#fff" d="M435.461 140.177c.816-1.281.611-2.871-.458-3.552s-2.596-.194-3.412 1.087-.611 2.871.457 3.552 2.597.194 3.413-1.087"/><path fill="url(#n)" d="M406.158 116.909c3.889 2.343 3.629 5.679-.944 13.001-3.14 5.028-8.103 6.867-11.585 4.264-1.823-1.367-3.352-4.491 1.611-10.821 4.035-5.142 7.696-8.38 10.918-6.444"/><path fill="#fff" d="M397.099 130.459c.135-1.423-.77-2.673-2.022-2.792-1.253-.12-2.378.936-2.514 2.359-.136 1.422.77 2.672 2.022 2.792 1.253.119 2.378-.937 2.514-2.359"/><path fill="url(#o)" d="M251.494 297.381s-70.571-11.162-91.09-88.373c-5.045-18.973 1.22-38.206 1.22-38.206s-2.766.293-8.299 4.93c-4.051 3.385-6.053 7.843-6.053 7.843s-11.911-34.87 9.422-69.546c5.467-8.884 17.996-24.636 39.833-28.573 28.297-5.11 66.504 39.736 66.504 39.736s30.51-37.23 5.809-76.609c-5.549-8.835-12.888-17.183-12.888-17.183l6.607-.846s-8.754-9.535-23.432-16.532C193.143-7.897 122.864-4.578 70.452 42.79c-3.026 2.733-10.674 11.715-10.674 11.715s.732-3.758.44-7.761c-.408-5.63-3.662-13.213-3.662-13.213s-3.938 16.467-18.42 42.079C6.211 132.091-4.317 198.009 26.16 267.148c37.67 85.444 116.279 120.77 207.484 120.77 57.196 0 41.282-1.269 41.282-1.269l-.668-145.845-22.78 56.529z"/><path fill="url(#p)" d="M233.661 387.967c57.196 0 41.282-1.269 41.282-1.269l-.651-143.096c-.309-.162-.618-.309-.944-.471l-21.853 54.234s-33.065-5.24-60.515-33.292c-12.725 13.587-24.311 30.477-35.571 46.96-17.346 25.385-24.814 44.081-25.596 58.091 31.194 12.888 66.455 18.827 103.832 18.827z" opacity=".97"/><path fill="url(#q)" d="M46.142 264.268s-13.23-13.978-21.366-43.218-5.63-40.713-5.63-40.713L31.92 197.96s-4.898-17.851-3.369-40.404c2.767-40.891 23.855-50.329 23.855-50.329s19.396 12.448 25.889 78.041c4.117 41.623-6.509 96.264-13.669 94.442-5.386-1.367-3.758 3.498-18.468-15.458z" opacity=".4"/><path fill="url(#r)" d="M139.298 17.244s9.194-3.954 22.504-3.84c13.311.113 28.883 5.337 28.883 5.337l-17.362 4.963s12.48 1.676 29.615 6.573c6.623 1.888 16.321 6.558 16.321 6.558s-21.789-2.424-37.458-.553c-15.67 1.855-28.802 3.482-38.158 7.94-9.356 4.46-17.281 14.45-27.63 5.566s.521-26.052 23.285-32.528z" opacity=".7"/><path fill="url(#s)" d="M214.492 399h141.81V227.331h-141.81z"/><path fill="url(#t)" d="M355.699 224.776H213.124c-1.06 0-1.92.86-1.92 1.92v.016c0 1.061.86 1.92 1.92 1.92h142.575a1.92 1.92 0 0 0 1.92-1.92v-.016c0-1.06-.86-1.92-1.92-1.92"/><path fill="url(#u)" d="M229.575 224.369c-.879 0-1.595.716-1.562 1.611.081 2.473 1.969 3.677 1.969 9.73 0 22.553.878 40.989.846 64.616 0 4.215 1.92 9.78 7.485 10.235 4.995.407 6.2-7.436 6.444-10.869 0 0 .895-37.133.895-37.214.162-2.392 1.562-5.728 4.279-6.33 3.222-.716 5.435 3.677 5.467 8.038.066 7.079.147 7.681.147 7.681-.309 4.426 1.204 7.892 4.995 7.745 3.792-.146 5.24-3.856 5.565-8.282 0 0 .212.097.179-5.94-.032-4.116 3.173-9.584 7.713-8.087 3.84 1.27 6.607 5.11 6.639 8.917.065 9.796-.618 21.317-.618 21.317-.325 4.67 2.408 10.739 6.427 10.576 4.02-.162 6.314-4.653 6.639-9.323 0 0 .635-46.066.83-53.015.212-7.322 2.002-6.394 2.034-9.811 0-.863-.7-1.563-1.562-1.563h-64.795z"/><path fill="url(#v)" d="M275.592 80.883c-6.997 14.53-2.929 1.188-16.516 4.49-5.288 1.286-6.607 7.063-12.562 8.348-13.571 2.93-9.47-8.998-19.168-10.284-8.283-1.09-15.41 3.434-15.866 3.206 7.616 3.58 10.577 5.142 15.866 11.57 3.889 7.55 5.386 10.837 5.288 16.711-.228 13.489-2.018 20.763 5.5 20.991 7.273.211 5.744-12.693 5.744-12.725 0-2.75 2.148-.505 3.287 2.018 3.531 7.859 3.092 14.921 3.092 21.837 0 8.087-4.361 27.76 5.548 27.678 7.892-.065 8.12-7.55 6.135-25.547-.619-5.614 2.554-7.778 11.048-27.174 9.878-22.504 10.528-57.603 2.604-41.135z"/><defs><linearGradient id="a" x1="472.581" x2="530.46" y1="351.746" y2="363.527" gradientUnits="userSpaceOnUse"><stop offset=".01" stop-color="#be0449"/><stop offset=".27" stop-color="#cc1747"/><stop offset=".73" stop-color="#e23444"/><stop offset="1" stop-color="#eb4043"/></linearGradient><linearGradient id="c" x1="439.269" x2="489.374" y1="48.088" y2="590.056" gradientUnits="userSpaceOnUse"><stop stop-color="#f60"/><stop offset=".26" stop-color="#ffb029"/><stop offset=".34" stop-color="#ffa623"/><stop offset=".47" stop-color="#ff8d15"/><stop offset=".63" stop-color="#f60"/><stop offset="1" stop-color="#fb2872"/></linearGradient><linearGradient id="d" x1="419.794" x2="471.094" y1="29.519" y2="207.124" gradientUnits="userSpaceOnUse"><stop offset=".09" stop-color="#d81f60" stop-opacity="0"/><stop offset=".12" stop-color="#d81f60" stop-opacity=".05"/><stop offset=".24" stop-color="#d81f60" stop-opacity=".22"/><stop offset=".37" stop-color="#d81f60" stop-opacity=".36"/><stop offset=".5" stop-color="#d81f60" stop-opacity=".47"/><stop offset=".64" stop-color="#d81f60" stop-opacity=".54"/><stop offset=".79" stop-color="#d81f60" stop-opacity=".59"/><stop offset="1" stop-color="#d81f60" stop-opacity=".6"/></linearGradient><linearGradient id="e" x1="425.588" x2="425.588" y1="56.15" y2="390.213" gradientUnits="userSpaceOnUse"><stop stop-color="#f60"/><stop offset=".33" stop-color="#ffb029"/><stop offset=".46" stop-color="#ff9218"/><stop offset=".63" stop-color="#f60"/><stop offset="1" stop-color="#fb2872"/></linearGradient><linearGradient id="g" x1="398.234" x2="437.01" y1="139.706" y2="358.987" gradientUnits="userSpaceOnUse"><stop stop-color="#ffeb49"/><stop offset=".36" stop-color="#ffb52b" stop-opacity=".6"/><stop offset=".67" stop-color="#ff8a14" stop-opacity=".28"/><stop offset=".89" stop-color="#ff7005" stop-opacity=".08"/><stop offset="1" stop-color="#f60" stop-opacity="0"/></linearGradient><linearGradient id="h" x1="440.055" x2="461.774" y1="306.274" y2="384.937" gradientUnits="userSpaceOnUse"><stop stop-color="#ffc635"/><stop offset=".09" stop-color="#ffc534" stop-opacity=".96"/><stop offset=".24" stop-color="#ffc233" stop-opacity=".84"/><stop offset=".44" stop-color="#ffbe30" stop-opacity=".66"/><stop offset=".67" stop-color="#ffb82d" stop-opacity=".4"/><stop offset=".94" stop-color="#ffb129" stop-opacity=".07"/><stop offset="1" stop-color="#ffb029" stop-opacity="0"/></linearGradient><linearGradient id="i" x1="478.978" x2="515.184" y1="113.309" y2="48.073" gradientUnits="userSpaceOnUse"><stop stop-color="#f60" stop-opacity="0"/><stop offset=".03" stop-color="#f60" stop-opacity=".17"/><stop offset=".07" stop-color="#f60" stop-opacity=".36"/><stop offset=".11" stop-color="#f60" stop-opacity=".53"/><stop offset=".16" stop-color="#f60" stop-opacity=".68"/><stop offset=".2" stop-color="#f60" stop-opacity=".8"/><stop offset=".25" stop-color="#f60" stop-opacity=".89"/><stop offset=".3" stop-color="#f60" stop-opacity=".95"/><stop offset=".36" stop-color="#f60" stop-opacity=".99"/><stop offset=".43" stop-color="#f60"/><stop offset=".72" stop-color="#fd4737"/><stop offset="1" stop-color="#fb2872"/></linearGradient><linearGradient id="j" x1="366.357" x2="315.263" y1="309.976" y2="344.944" gradientUnits="userSpaceOnUse"><stop offset=".08" stop-color="#ff4774" stop-opacity="0"/><stop offset=".34" stop-color="#e43168" stop-opacity=".3"/><stop offset=".79" stop-color="#b60e53" stop-opacity=".8"/><stop offset="1" stop-color="#a5004c"/></linearGradient><linearGradient id="k" x1="406.695" x2="410.145" y1="286.414" y2="410.992" gradientUnits="userSpaceOnUse"><stop offset=".13" stop-color="#d81f60" stop-opacity="0"/><stop offset=".67" stop-color="#d81f60"/></linearGradient><linearGradient id="l" x1="373.818" x2="388.986" y1="227.744" y2="139.432" gradientUnits="userSpaceOnUse"><stop offset=".33" stop-color="#ff4774" stop-opacity="0"/><stop offset=".51" stop-color="#e43168" stop-opacity=".3"/><stop offset=".85" stop-color="#b60e53" stop-opacity=".8"/><stop offset="1" stop-color="#a5004c"/></linearGradient><linearGradient id="m" x1="445.439" x2="436.977" y1="115.087" y2="145.385" gradientUnits="userSpaceOnUse"><stop offset=".16" stop-color="#a030b9"/><stop offset=".88" stop-color="#00073a"/></linearGradient><linearGradient id="n" x1="409.152" x2="396.265" y1="112.353" y2="132.774" gradientUnits="userSpaceOnUse"><stop offset=".16" stop-color="#a030b9"/><stop offset=".88" stop-color="#00073a"/></linearGradient><linearGradient id="o" x1="143.253" x2="143.253" y1="-27.407" y2="393.744" gradientUnits="userSpaceOnUse"><stop offset=".02" stop-color="#ffeb49"/><stop offset=".45" stop-color="#f60"/><stop offset=".5" stop-color="#ff6109"/><stop offset=".59" stop-color="#ff5322"/><stop offset=".68" stop-color="#ff453f"/><stop offset="1" stop-color="#fb2872"/></linearGradient><linearGradient id="p" x1="139.967" x2="311.571" y1="271.314" y2="368.229" gradientUnits="userSpaceOnUse"><stop offset=".19" stop-color="#fb2872" stop-opacity="0"/><stop offset=".24" stop-color="#f0226b" stop-opacity=".15"/><stop offset=".34" stop-color="#dc1760" stop-opacity=".41"/><stop offset=".43" stop-color="#cd0f57" stop-opacity=".62"/><stop offset=".52" stop-color="#c00850" stop-opacity=".79"/><stop offset=".61" stop-color="#b8034b" stop-opacity=".9"/><stop offset=".7" stop-color="#b20048" stop-opacity=".98"/><stop offset=".79" stop-color="#b10047"/></linearGradient><linearGradient id="r" x1="219.2" x2="134.312" y1="24.798" y2="34.114" gradientUnits="userSpaceOnUse"><stop offset=".03" stop-color="#fff088"/><stop offset=".12" stop-color="#fff084" stop-opacity=".96"/><stop offset=".26" stop-color="#fff279" stop-opacity=".84"/><stop offset=".46" stop-color="#fff567" stop-opacity=".66"/><stop offset=".69" stop-color="#fff94f" stop-opacity=".4"/><stop offset=".95" stop-color="#fffd31" stop-opacity=".07"/><stop offset="1" stop-color="#ffff2b" stop-opacity="0"/></linearGradient><linearGradient id="s" x1="224.938" x2="427.931" y1="297.805" y2="349.354" gradientUnits="userSpaceOnUse"><stop stop-color="#e752ff"/><stop offset=".11" stop-color="#dd4fff"/><stop offset=".28" stop-color="#c347ff"/><stop offset=".51" stop-color="#983bff"/><stop offset=".77" stop-color="#5e2aff"/><stop offset="1" stop-color="#271aff"/></linearGradient><linearGradient id="t" x1="280.636" x2="291.376" y1="171.632" y2="328.444" gradientUnits="userSpaceOnUse"><stop stop-color="#e752ff"/><stop offset=".3" stop-color="#e752ff"/><stop offset=".37" stop-color="#c849ff"/><stop offset=".48" stop-color="#973aff"/><stop offset=".59" stop-color="#6f2fff"/><stop offset=".7" stop-color="#4f25ff"/><stop offset=".81" stop-color="#391fff"/><stop offset=".91" stop-color="#2b1bff"/><stop offset="1" stop-color="#271aff"/></linearGradient><linearGradient id="u" x1="251.103" x2="270.434" y1="125.631" y2="342.585" gradientUnits="userSpaceOnUse"><stop stop-color="#e752ff"/><stop offset=".3" stop-color="#e752ff"/><stop offset=".37" stop-color="#c849ff"/><stop offset=".48" stop-color="#973aff"/><stop offset=".59" stop-color="#6f2fff"/><stop offset=".7" stop-color="#4f25ff"/><stop offset=".81" stop-color="#391fff"/><stop offset=".91" stop-color="#2b1bff"/><stop offset="1" stop-color="#271aff"/></linearGradient><linearGradient id="v" x1="238.769" x2="258.816" y1="16.609" y2="198.464" gradientUnits="userSpaceOnUse"><stop stop-color="#e752ff"/><stop offset=".3" stop-color="#e752ff"/><stop offset=".37" stop-color="#c849ff"/><stop offset=".48" stop-color="#973aff"/><stop offset=".59" stop-color="#6f2fff"/><stop offset=".7" stop-color="#4f25ff"/><stop offset=".81" stop-color="#391fff"/><stop offset=".91" stop-color="#2b1bff"/><stop offset="1" stop-color="#271aff"/></linearGradient><radialGradient id="b" cx="0" cy="0" r="1" gradientTransform="translate(451.899 365.773)scale(-30.5587)" gradientUnits="userSpaceOnUse"><stop offset=".45" stop-color="#a5004c"/><stop offset=".53" stop-color="#af0750" stop-opacity=".89"/><stop offset=".7" stop-color="#c91c5c" stop-opacity=".6"/><stop offset=".94" stop-color="#f33d6e" stop-opacity=".13"/><stop offset="1" stop-color="#ff4774" stop-opacity="0"/></radialGradient><radialGradient id="f" cx="0" cy="0" r="1" gradientTransform="translate(485.24 381.215)scale(70.246)" gradientUnits="userSpaceOnUse"><stop offset=".16" stop-color="#a5004c"/><stop offset=".26" stop-color="#a8034d" stop-opacity=".96"/><stop offset=".41" stop-color="#b30b52" stop-opacity=".84"/><stop offset=".58" stop-color="#c5195a" stop-opacity=".64"/><stop offset=".77" stop-color="#dd2c65" stop-opacity=".37"/><stop offset=".98" stop-color="#fc4572" stop-opacity=".03"/><stop offset="1" stop-color="#ff4774" stop-opacity="0"/></radialGradient><radialGradient id="q" cx="0" cy="0" r="1" gradientTransform="rotate(-19.41 613.221 209.867)scale(89.0889 74.8347)" gradientUnits="userSpaceOnUse"><stop offset=".51" stop-color="#ffeb49"/><stop offset=".55" stop-color="#ffeb49" stop-opacity=".96"/><stop offset=".63" stop-color="#ffeb49" stop-opacity=".84"/><stop offset=".72" stop-color="#ffeb49" stop-opacity=".66"/><stop offset=".84" stop-color="#ffeb49" stop-opacity=".4"/><stop offset=".97" stop-color="#ffeb49" stop-opacity=".07"/><stop offset="1" stop-color="#ffeb49" stop-opacity="0"/></radialGradient></defs></svg>
