<!-- This Source Code Form is subject to the terms of the Mozilla Public
   - License, v. 2.0. If a copy of the MPL was not distributed with this
   - file, You can obtain one at http://mozilla.org/MPL/2.0/. -->
<svg xmlns="http://www.w3.org/2000/svg" width="105" height="102" fill="none" viewBox="0 0 105 102">
  <g>
    <path fill="#feb574" d="M2.619 58.661c1.046-1.314 9.152.059 11.284-1.038.32-.487-.398-28.488.097-28.58.692-.13 2.425-.288 3.13-.29 2.092-.004 1.207-2.146 1.196-2.813.192-9.768 3.229-12.205 4.718-14.54 2.881-4.516 7.463-7.361 12.42-9.143C42.925-.4 50.415.554 51.735.619 57.27.89 62.168 3.617 66.563 6.793c2.12 1.532 4.131 3.413 5.71 5.51 1.627 2.162 2.856 4.57 4.276 6.861 1.35 2.178 5.387 11.976 6.327 14.492.965 2.58 4.5 15.034 5.026 15.35.454.274 10.83.05 12.026.65 1.389.696 1.34 1.709 1.389 3.088.199 5.686.321 22.924.322 25.86 0 .954.375 2.609-.667 3.13-.351.174-.694.25-1.042.428-.568.289-1.33.377-1.948.53-5.124 1.273-10.17 2.84-15.273 4.197a586 586 0 0 0-8.15 2.242c-2.611.734-5.196 1.568-7.889 1.972-2.724.408-29.37.451-35.404.467-5.688.014-26.593.354-28.697-.492-.361-.385-.232-1.087-.234-1.566-.003-.76-.14-30.318.284-30.851"/>
    <path fill="#f87d20" d="M69.915 9.736c2.681 2.652 4.617 5.864 6.425 9.154 1.82 3.31 3.383 6.792 4.76 10.307a225 225 0 0 1 3.764 10.325c.572 1.697.98 3.442 1.474 5.16q.344 1.188.664 2.383c.187.69.238 1.755 1.046 2.008.667.21 1.685 0 2.386-.015.58-.012 1.985-.324 2.2.254.123.334-.023 1.006-.03 1.364l-.028 1.534c-.022.987-.012 1.996-.128 2.978-.192 1.61-.948 3.045-2.195 4.088-1.412 1.182-3.452 1.346-5.198 1.156-3.87-.421-7.575-.965-11.244-2.322-3.508-1.298-6.782-3.053-9.915-5.089-3.08-2.001-5.977-4.126-8.689-6.604-.6-.548-1.16-1.35-1.994-1.415-1.048-.082-2.141.004-3.193.006l-6.03.015c-8.1.021-16.2.025-24.3.029l-2.979.002c-.446 0-.892-.006-1.337.004-.263.005-1.122.192-1.331.045-.354-.246-.161-1.763-.17-2.187-.022-.995.025-1.99.017-2.984-.016-1.893-.041-3.782-.022-5.675l.031-2.82c.003-.25-.098-.883.137-.989.21-.095 1.058.346 1.275.427 1.66.619 3.219 1.464 4.89 2.036 1.676.575 3.124 1.588 4.863 2.022 1.783.445 3.672.457 5.499.547 1.896.094 3.788.161 5.685.057 3.91-.214 7.812-.081 11.716-.45 1.974-.186 3.934-.404 5.862-.88 1.713-.425 3.596-.834 5.183-1.626 6.51-3.246 10.05-10.994 11.046-17.882.116-.804.265-1.634.267-2.449a6.4 6.4 0 0 0-.159-1.347c-.064-.302-.318-.875-.248-1.169z"/>
    <path fill="#3774fe" d="M79.51 39.675v8.689c0 .213-.106.872.078 1.036.198.174 1.19-.002 1.456-.005 1.507-.018 3.014-.018 4.52-.051 2.684-.059 5.366-.384 8.048-.274 1.114.046 2.23.03 3.343.067 1.066.037 2.29.073 3.206.694.854.58.895 1.36.93 2.295q.078 2.098.168 4.195c.114 2.647.092 5.3.105 7.946q.02 4.283.046 8.564c.009 1.422.029 2.845.038 4.267.004.633.01 1.266-.006 1.898-.016.613.081 1.483-.111 2.065-.2.61-.667.619-1.173.816-.427.167-.762.403-1.226.528-1.14.306-2.285.586-3.42.915-2.571.748-5.174 1.383-7.75 2.12-4.947 1.418-9.932 2.72-14.884 4.133-2.571.733-5.152 1.395-7.818 1.664-2.741.277-5.53.159-8.283.184-5.47.048-10.941.033-16.411.086-5.527.054-11.072.183-16.595-.022-5.181-.192-10.43-.28-15.613-.089-1.29.048-2.571.039-3.86 0-1.338-.04-2.203.064-2.217-1.488-.025-2.834-.01-5.669-.01-8.503.002-5.596-.018-11.192.015-16.789.008-1.27.018-2.54.009-3.81-.004-.553-.098-1.052.183-1.521.27-.453.623-.91 1.107-1.148.913-.448 2.246-.204 3.236-.205q2.268-.003 4.536 0c1.11.001 2.617.422 2.64-1.065.024-1.393-.045-2.79-.05-4.183-.01-2.764.076-5.527.06-8.29-.014-2.782-.05-5.561-.036-8.344.007-1.368.001-2.735.033-4.103.02-.874-.367-2.551.612-3.046.45-.227 1.12-.078 1.604-.094.576-.019 1.242.012 1.804-.12.19-.044.194-.216.41-.163.112.027.449.426.527.514.42.48.504 1.139.789 1.709.556 1.115 1.334 2.106 2.087 3.092.836 1.097 1.54 2.062 2.73 2.793.957.589 2.087 1.157 3.168 1.465 1.338.381 3.065.113 4.453.118 2.835.01 5.669.017 8.503.031 2.81.014 5.621.04 8.431.069 1.263.012 2.548.09 3.81.011 1.486-.092 2.998-.351 4.47-.574 1.181-.179 2.577-.369 3.687-.82.914-.37 1.826-1.367 2.551-2.016.838-.75 1.635-1.684 2.284-2.604.653-.924.938-2.039 1.545-2.976.59-.909 1.899-.56 2.83-.545q2.084.031 4.167.043l2.083.012c.614.003 1.498-.157 2.084.012.991.285 1.047 1.597 1.043 2.454-.012 2.788-.01 5.576-.01 8.364z"/>
    <path fill="#2453fe" d="M79.59 67.712c-.057-3.142.01-13.044.061-14.667a58 58 0 0 0 .02-2.39c-.008-.91-.26-1.264.681-1.277 1.667-.025 7.983-.058 9.383-.093.379-.01 7.587-.202 9.034.172.917.237 2.085.772 2.284 1.805.289 1.499.408 27.446.381 28.942-.011.607.081 1.138-.421 1.57-.385.331-35.426 10.096-35.503 9.622-.265-1.624-.028-4.248-.022-5.89.005-1.715.04-3.43.078-5.143.073-3.342.04-6.684.127-10.025.044-1.66.085-3.315.052-4.976-.028-1.365.082-3.272.527-4.584.376-1.105 1.479-1.309 2.439-.817 1.127.578 1.587 2.301 2.037 3.394a345 345 0 0 1 7.02 18.571c.513 1.483 1.294 3.83 1.998 5.592.03.004-.146-18.14-.176-19.805M41.72 40.774c-3.802.052-7.94.675-11.629-.48-.754-.237-1.768-.626-2.275-1.274-.84-1.072 1.04-.663 1.614-.653q2.997.046 5.995.06c4.152.022 8.214-.201 12.366-.158 2.018.022 4.693-.176 6.805-.235 1.877-.235 3.076-.123 4.913-.569.708-.171 1.416-.25 1.996-.713a50 50 0 0 0 2.04-1.725c1.433-1.278 2.417-2.877 3.292-4.564.183-.354.332-.905.586-1.2.292-.342.499-.275.96-.271q1.558.012 3.117.02c1.978.01 4.058-.277 6.035-.263 1.03.007 1.517.336 1.86 1.441.3.961.094 2.144.096 3.137 0 .53.163 2.756-.056 3.154-.365.664-1.762 1.201-2.42 1.57-1.957 1.102-3.939 1.79-6.141 2.204-1.783.334-21.265.411-29.154.519"/>
    <path fill="#daeafe" d="M13.796 29.767c.422-1.285 4.857-.916 4.959-.842.453.331.539.668.762 1.175.56 1.269.965 2.362 1.798 3.464.774 1.024 1.48 2.257 2.595 2.934 1.054.64 2.94 1.771 7.967 1.8q4.54.028 9.081.047c.402.002 1.796-.302 2.085-.017.275.27.124 3.435.117 4.113-.005.561.152 1.93.059 2.469 0 0-2.302.02-3.19-.034-1.423-.085-11.317-.09-12.823.014-3.4.235-13.253.18-13.396.005-.154-.186-.226-14.484-.014-15.128m65.502 15.202c-.944.068-7.774-.127-8.273-.059 0 0-.216-1.613-.234-2.057-.044-1.008.027-5.956-.88-7.346-.396-.606-1.467-2.644-3.94-2.881-.503-.389 1.117-3.163 1.376-3.478.324-.394.696-.3 1.186-.293 1.99.024 3.98.037 5.971.064 1.148.015 2.297.02 3.444.048.886.022 1.42.251 1.526 1.134.13 1.086.477 14.821-.177 14.868M22.133 74.48c-.014-.53.677-.44.643.029-.031.438-.69.415-.643-.03"/>
    <path fill="#8ca7fe" d="M82.212 68.166c-.34-.224.313-7.682-1.447-9.504-.373-.507-1.173-1.058-1.173-1.058-.226-1.262-.126-7.958.176-8.227.237-.212 6.921.248 8.398.083.658-.073 6.97-.103 7.734-.106 1.197-.004 2.53-.085 3.67.361 1.377.54 1.539 1.539 1.57 2.87.064 2.846.394 7.193.306 12.667l-8.243-.067c-.005-.787.352-6.758-1.176-9.356-.33-.475-1.145-1.075-1.673-1.291-.19.627.018 1.483.056 2.143.042.708.374 11.081.112 11.4-.253.309-7.957.316-8.31.085m-2.684-34.819c0 .7-.004 1.398 0 2.097.121.886-.21 1.375-1.052 1.886-1.232.745-2.237 1.225-3.565 1.79-.703.3-3.742 1.309-4.044 1.07a167 167 0 0 0-.37-3.33c-.082-.595-.773-2.135-1.76-2.939-.273-.222-1.119-.688-1.43-.853-.323-.17-1.364-.476-1.68-.616 0 0 1.701-2.939 1.877-3.526 0 0 .839.08 1.541.083 1.562.01 3.124.014 4.686.028.934.008 1.816-.118 2.75-.111.608.004 1.958-.233 2.464.117.762.53.575 3.184.575 4.305zm-45.52 7.626c-2.757-.059-4.282-.47-5.397-1.234s-1.232-1.293-1.232-1.587c-.01-.021 15.738-.031 15.723.235-.031.562.172 2.411-.059 2.41-1.168-.005-2.822.09-3.99.117-1.292.03-2.287.118-5.045.06"/>
    <path fill="#daebfe" d="M8.553 57.99c1.518 0 3.32.261 4.799-.053.272-.058.19-.155.462-.063.24.081.417.36.69.444.724.225 1.707.063 2.457.061q5.045-.01 10.09-.01c6.718 0 13.435.014 20.152.029q4.946.01 9.89.024l5.122.017 2.473.008c.736.003 1.517-.09 2.223.143 1.52.502 1.217 2.23 1.223 3.526a389 389 0 0 1 .003 4.609c-.013 1.722-.052 3.444-.054 5.166-.001 1.588.199 3.202.092 4.785-.211 3.172-.17 6.35-.162 9.532q.002 1.218.027 2.436c.01.452.28 1.73-.004 2.073-.243.293-1.191.248-1.55.293-.867.111-1.742.238-2.613.314-1.567.135-3.188.027-4.762.037l-5.029.033c-3.267.022-6.535 0-9.802.022-6.558.044-13.113.18-19.672.083-6.407-.095-12.783-.21-19.194-.099-1.127.02-3.23.37-3.305-1.152-.082-1.63-.001-3.287 0-4.92 0-3.345.004-6.69-.003-10.036-.007-3.276-.079-6.552-.063-9.828.009-1.63.033-3.258.057-4.887.013-.83.05-.98.49-1.612.366-.525.658-.877 1.353-.972 1.473-.203 3.12-.004 4.609-.005z"/>
    <path fill="#8baefe" d="M7.362 58.141c1.5 0 3.002.008 4.502-.012.552-.007 6.081.358 7.557.357q2.38-.002 4.761.004 9.463.017 18.926.038c6.309.014 12.618.013 18.927.045 1.527.008 3.192-.387 4.709-.206 1.14.137 1.481 1.183 1.514 2.248.096 3.095-.02 6.205-.049 9.301-.013 1.392.142 2.92-.058 4.295 0 0-7.764.227-8.389.024-.108-1.523 0-4.172-.234-6.347-.235-2.174-1.06-2.888-1.44-3.345-.461-.555-1.214-.882-1.834-1.232-1.213-.684-3.755-.588-5.116-.594-1.587-.008-6.57-.118-9.68 0-1.192.045-4.928-.353-7.275 1.251-1.17.8-1.423 1.82-1.846 3.123-.227.699-.458 1.339-.478 2.079l-.059 2.446c-.008.35.099 2.355-.022 2.62-.223.484-7.763-.013-10.8.029-3.17.043-18.827.088-18.827.088-.358-.196.02-11.173.058-12.615.031-1.205-.112-2.39.937-3.218 1.011-.799 3.02-.409 4.217-.409z"/>
    <path fill="#1c3afc" d="M2.207 58.192c.352-.47.787-.55 1.334-.713.238-.07 1.272-.07 1.544-.072.73-.01 5.195-.008 5.827-.01h2.352c.009-.135.005-2.447 0-2.891-.007-.493-.021-2.824-.012-3.497.003-.273-.026-.548-.027-.822a482 482 0 0 1-.005-2.689c.023-.652-.049-5.21-.007-5.82.022-.306.019-5.557.032-5.842-.001-.577.031-3.007.031-3.175.001-.653-.005-1.306-.004-1.959 0-.35-.043-.709.029-1.05.228-1.078 1.29-1.393 1.615-1.393.255-.094 3.506-.08 4.232-.014.122.37.317 1.255.247 1.273-.426.112-1.055-.003-1.935-.003-.575 0-2.581-.353-2.699.352-.242 1.454-.13 2.085-.124 3.775s.077 4.133.015 4.814c-.037.407-.035 1.633-.031 1.841.012.578.041 3.878.041 4.31H42.8c.012-.337.033-.64.032-.943-.004-.988-.068-1.98-.004-2.962.04-.631.024-2.017.035-2.078.03-.167.018-.255.176-.294.235-.06.413-.007.41.235-.008.859-.072 2.231-.069 3.09.003.871.066 3.325.028 3.508-9.516 0-19.222.101-28.765.101-.155.093-.015 6.441 0 6.668 0 .24.046 5.575.077 6.192.279.007 3.984.02 5.567.02 1.73-.002 3.462-.008 5.192-.009l6.657.003c2.05 0 4.1-.004 6.148-.004 1.54 0 3.079.004 4.618.004 2.028-.001 4.056-.007 6.084-.008 1.04 0 2.081.005 3.121.005 1.645 0 3.29-.005 4.935-.004 1.464.002 2.928.013 4.393.013 1.73 0 3.462.003 5.192-.02.41-.006.744.148 1.057.358.284.19.49.43.638.784.16.385.186.746.183 1.133-.008 1.222-.01 2.445-.03 3.668-.012.75-.067 3.7-.067 3.888-.005 1.252-.013 2.504-.008 3.756.002.648.033 1.297.045 1.945.014.765-.04 3.303-.046 3.807-.019 1.421-.02 2.843-.032 4.264-.01 1.148-.036 2.295-.037 3.443 0 1.294.02 2.587.03 3.881.003.328 0 .654 0 1.027 1.907-.476 3.778-.906 5.627-1.414 1.83-.503 3.637-1.084 5.502-1.646.007-.364.022-.774.022-1.184q0-1.994-.012-3.986c-.007-1.165-.023-2.33-.037-3.495-.024-1.98-.055-3.962-.073-5.944-.004-.466.037-.932.049-1.398q.012-.548.001-1.097c-.01-.593-.035-1.185-.043-1.778q-.016-1.499-.022-2.996a615 615 0 0 1-.01-2.578c0-.983.005-1.967.002-2.95-.004-.879-.026-1.758-.024-2.637.003-1.308.028-2.616.027-3.924 0-.688-.047-1.375-.052-2.062-.005-.682.024-1.364.023-2.046 0-.475-.035-.949-.036-1.424 0-.349.037-.697.046-1.047.008-.307.002-.614.002-.938l-.224-.152-.01-.24c-.478.008-.934.016-1.39.022-.685.01-1.37.024-2.055.023-.539 0-1.078-.027-1.616-.03-.665-.006-1.329.002-1.993.003H70.68c-.136-.264-.061-.517-.068-.765-.018-.59-.055-1.18-.077-1.771q-.04-1.098-.068-2.196c-.015-.58.002-1.163-.035-1.742-.049-.787-.126-1.566-.385-2.33a4.7 4.7 0 0 0-.859-1.527c-.121-.147-.246-.293-.353-.451-.32-.479-.82-.718-1.29-1.004-.622-.377-1.314-.509-2.062-.638l.345-.466c.495.059.973.067 1.41.339.363.226.758.4 1.14.6.504.264.815.73 1.178 1.142.153.174.308.352.427.55.111.186.176.402.26.604.057.134.093.284.175.4.19.271.285.553.338.892.162 1.06.204 2.122.223 3.19.014.792.067 1.583.097 2.375.01.285-.008.572.008.856.026.442.071.881.112 1.367.88.075 1.755.01 2.627.033.87.023 1.74-.003 2.611-.004.88-.002 1.76 0 2.65 0 .198-.113.284-.303.278-.529-.023-.86-.057-1.72-.08-2.58-.008-.308-.003-.615.006-.923.012-.487.036-.973.047-1.46.013-.59.031-1.181.021-1.773s-.06-1.182-.077-1.774c-.013-.468.002-.935 0-1.403-.005-1.308-.007-2.616-.023-3.923a1.27 1.27 0 0 0-.5-1.01.55.55 0 0 0-.323-.098c-.89.006-1.78.03-2.67.035q-2.069.01-4.138.01c-1.377.002-2.755 0-4.182 0l.13-.586h1.332q4.635.005 9.27.003c.118 0 .236-.052.4-.092.71.215.936.637 1.061 1.456.147.965.07 1.926.114 2.887.065 1.428.07 2.859.083 4.289q.025 2.87.017 5.74c-.003 1.21-.04 2.419-.057 3.628-.003.2.03.402.033.603.005.55.003 1.102.006 1.652 0 .095.01.19.017.333 1.223.06 2.437.009 3.649.017 1.208.01 2.417.002 3.627.002.44-.316.914-.556 1.468-.565.327-.006.655.042.982.034.536-.014 1.072-.064 1.609-.082.35-.012.7.01 1.052.007.35-.003.703-.03 1.054-.026.443.006.886.034 1.329.048.187.006.376.001.566.02.44-.047.876-.071 1.383.043.093-.01.262-.05.428-.043.433.017.864.071 1.296.079.405.007.792.073 1.167.218.261.1.515.221.777.318.185.069.402.06.538.237.084.11.154.23.24.337.128.16.256.321.402.464.226.222.324.486.335.8.03.783.074 1.567.111 2.35l.058 1.32c.017.383.073.769.046 1.149-.026.37.025.73.032 1.096.008.482.068.962.078 1.443.009.471-.029.944-.024 1.415.011 1.023.048 2.045.053 3.069.008 2.146-.01 4.294.004 6.441.013 1.86.058 3.721.082 5.582.006.416-.03.832-.027 1.248.006.6.038 1.2.042 1.801.003.421-.026.842-.032 1.263-.01.628-.007 1.256-.018 1.884-.01.512-.314.85-.702 1.128-.162.116-.333.22-.533.352-.283-.01-.581.037-.827.292-.081.084-.253.073-.377.121-.645.253-1.33.364-1.996.544-.659.177-1.31.384-1.968.56-.565.15-1.138.27-1.705.415-.263.067-.518.168-.78.241-.278.078-.561.14-.841.214-.336.088-.67.182-1.005.272-.415.112-.832.217-1.245.334-.25.071-.494.165-.743.239-.618.183-1.23.39-1.856.533-.578.132-1.121.373-1.714.467-.553.09-1.085.306-1.63.454-.54.145-1.089.257-1.625.415-.377.112-.76.251-1.135.324-.575.11-1.114.33-1.688.434-.476.085-.93.279-1.397.419-.237.071-.479.126-.717.197-.558.166-1.113.347-1.674.504-.648.18-1.301.336-1.949.514-.454.124-.901.272-1.354.4a92 92 0 0 1-1.575.424c-.52.135-1.037.278-1.56.395-.68.152-1.362.285-2.045.418-.781.152-1.57.232-2.366.27-.66.03-1.317.15-1.978.202-.4.031-3.641.019-4.302.02-.679.001-3.395-.004-4.072.022-.387.016-3.174.013-3.462.013-.28 0-5.558-.118-6.605-.022-1.046.096-2.168.036-3.253.06-.559.01-1.489-.022-4.011-.022s-9.339.078-9.426.077c-.765-.009-2.683-.041-5.898-.089s-7.063-.109-7.178-.084c-.096-.024-5.09.034-7.135.035s-2.822-.04-4.37-.048c-1.546-.01-1.732-.857-1.834-1.056-.116-.225-.11-2.21-.11-2.704.08-.222.006-3.642-.003-6.145a813 813 0 0 1 .04-7.755c.001-.096.011-4.269.009-4.64 0-.07-.04-4.27-.042-4.872-.001-.498.05-3.341.06-4.266.002-.318.034-.64-.003-.954-.05-.423.278-1.056.63-1.526zm.868 32.486c.232.057.397.13.563.131.53.009 1.059-.013 1.588-.017.783-.004 1.567-.002 2.35-.005.184-.001.369 0 .551-.015.334-.025.68-.136.997-.079.735.132 1.46-.043 2.192.007.56.037 1.126-.036 1.69-.037.738-.002 1.476.02 2.214.029.8.009 1.601.013 2.401.021q.945.01 1.888.022.188.001.374.006c.762.025 1.525.06 2.287.074.51.01 1.022-.013 1.533-.012.49.002.979.135 1.47-.002.024-.007.057.024.086.026.313.017.625.038.938.044.319.007.637-.006.956-.003.46.003.92.016 1.379.02.45.004.902 0 1.354.005.795.009 1.59.03 2.386.031.747.001 1.493-.02 2.239-.024q1.335-.006 2.669-.004c.6.001 1.201.01 1.802.013.84.005 1.678.015 2.517.01.352 0 .703-.035 1.055-.052.305-.015.61-.035.915-.036.64-.002 1.28.01 1.921.011.31.002.62-.008.93-.011.248-.003 2.952 0 3.823 0 .406 0 2.84-.006 3.322-.01.377-.003.753-.041 1.13-.05.418-.011 4.738-.068 5.275-.07.245-.002 2.42.072 3.883-.03s3.689-.327 4.043-.384v-1.37c-.006-1.828-.016-3.657-.02-5.486 0-.382.021-.763.029-1.144.005-.237 0-.475 0-.775.093-.252.137-6.61.03-6.906h-8.333c-.013-.09-.025-.141-.027-.193-.034-.805-.063-1.61-.1-2.414q-.061-1.398-.137-2.796c-.036-.635-.058-1.272-.138-1.9a4.86 4.86 0 0 0-1.052-2.478c-.364-.45-.742-.92-1.285-1.167-.41-.185-.852-.296-1.284-.427-.21-.064-.427-.13-.642-.14-1.111-.04-2.222-.064-3.334-.089-.604-.013-1.209-.007-1.813-.025-.93-.027-1.86-.075-2.79-.103-.826-.024-1.651-.055-2.475-.042-.708.012-1.415.096-2.122.123-.636.024-1.273.001-1.909.02-1.323.039-2.633-.027-3.924.208-.785.143-1.577.66-2.081.919-.638.327-1.023.908-1.296 1.544-.21.49-.353 1.012-.493 1.529-.135.498-.266 1.003-.329 1.513-.08.66-.117 1.328-.13 1.994-.024 1.335-.02 2.67-.028 4.037-.165 0-.29.008-.412-.002-.378-.03-.755-.088-1.132-.094-.752-.012-1.503.01-2.255.008-.9 0-1.8-.014-2.7-.016-1.157-.002-2.314.002-3.471.001-1.171 0-2.343-.006-3.514-.003-1.017.004-2.035.025-3.052.025-1.386 0-2.771-.017-4.157-.02-.878-.002-1.755.005-2.633.008-.921.002-1.842 0-2.763.009-.402.004-.805.047-1.208.048-.3.001-.601-.055-.902-.051-.3.003-.598.048-.916.076.016.118.048.196.03.26-.104.38 0 .766-.029 1.148-.024.327-.019.653.004.984.033.475-.02.956-.027 1.435-.002.157.03.314.031.472q.013.945.012 1.892c0 .383-.012.766-.02 1.204l-.026.454.015-.002v1.436c-.024.07.013.141.014.212q.006.743 0 1.484c-.001.123-.03.246-.027.368.007.313.034.625.034.937 0 .294-.029.587-.04.88-.005.138.002.275.002.412 0 .13-.004.262 0 .393.01.285.023.571.037.906-.058.354-.008.746.067 1.09zm28.38-16.59c.135-.077.09-.252.093-.404.03-1.271-.02-2.542.082-3.814.059-.73.096-1.453.257-2.17.198-.88.435-1.738.835-2.553.353-.722.813-1.138 1.635-1.726.821-.588 2.156-.756 2.877-.859.7-.098 1.413-.108 2.12-.147.79-.043 3.41-.062 3.928-.057.445.004.89-.035 1.334-.03.55.005 1.1.04 1.65.054q2.385.064 4.77.123c.71.017 1.42.04 2.13.046.742.006 1.488-.092 2.226.07.287.063.587.095.856.203.363.147.73.316 1.044.544.372.27.719.588 1.025.93.271.306.481.668.702 1.015.361.57.55 1.214.676 1.866.09.464.098.946.125 1.422.055.952.106 1.905.145 2.858.018.445-.003.892.004 1.339.007.398.028.795.044 1.232l7.876.022c.006-.118.033-3.02.045-4.368.003-.368.027-.737.023-1.105-.014-1.083-.046-2.166-.053-3.248-.01-1.755-.005-3.51-.01-5.265 0-.125-.029-.252-.055-.375-.093-.435-.407-.703-.757-.987-.349 0-.72.002-1.09 0-1.536-.007-3.073-.019-4.61-.02-1.355-.003-2.711.006-4.066.008l-3.686.001-5.753.005c-1.738 0-3.476-.005-5.215-.002-.848 0-1.696.021-2.544.021-.986 0-1.972-.017-2.958-.018-.943 0-1.887.017-2.831.016-1.133-.002-2.266-.02-3.399-.02-.835-.001-1.671.022-2.507.02-1.336-.004-2.672-.025-4.008-.028-1.696-.003-3.391.005-5.087.008l-3.274.006c-.51.001-1.019.017-1.528.006-.557-.011-1.11.089-1.669.045-.194-.015-.394.05-.592.049-.645-.002-1.29-.025-1.935-.025-.553 0-1.106.029-1.66.029-.515 0-1.032-.028-1.548-.03q-1.443-.004-2.886.01c-.264.003-.527.037-.754.055-.41.405-.611.83-.556 1.39.044.458-.013.927-.008 1.39.005.453.039.904.044 1.356.008.59 0 1.18 0 1.77 0 .457.022.915.002 1.37-.033.741.055 1.481-.013 2.223-.027.295.034.596.034.895.002.587-.017 1.174-.016 1.762 0 .384.034.768.032 1.151-.003.64-.022 1.28-.035 1.94zm50.437-5.674c-.013-.05-.031-.09-.033-.13-.034-.805-.064-1.61-.1-2.415q-.061-1.398-.135-2.795c-.033-.613-.058-1.228-.126-1.837a5 5 0 0 0-.531-1.71 5.2 5.2 0 0 0-.758-1.126c-.052-.059-.123-.1-.216-.172-.021.562-.054 1.08-.057 1.597-.004.677.02 1.354.022 2.03.002.762-.015 1.524-.011 2.287q.01 1.655.037 3.311c.003.151.037.302.064.52q-.079.154.035.397c-.035.13-.101.236-.081.322.062.261-.013.513-.016.768a445 445 0 0 0-.044 5.218c-.002 1.187-.036 2.63.04 3.561.078.932.123 1.727.125 2.047.005.72-.012 1.441-.01 2.162.004.966.08 3.892.021 4.49.27-.099 1.502-.465 1.843-.554.768-.2 1.535-.407 2.303-.607.636-.165 3.831-1.035 4.367-1.225.403-.142 1.403-.439 1.503-.487.009-.141.025-.278.025-.413q.002-1.914-.007-3.828c-.004-.546-.037-1.092-.036-1.639.003-.806.028-1.612.038-2.419.011-.837.01-1.673.025-2.51.01-.644.039-1.288.054-1.933q.027-1.176.047-2.352c.004-.177 0-.354 0-.538-.096-.016-.145-.032-.195-.03-.498.012-.997.037-1.495.04q-2.245.015-4.49.01c-.726-.001-1.453-.025-2.208-.039m11.08-2.81-.081-2.433c-.024-.743-.034-1.487-.073-2.229-.03-.58-.101-1.159-.147-1.738-.025-.315-.012-.634-.059-.946a5.1 5.1 0 0 0-1.045-2.449c-.257-.326-.58-.602-.872-.901l-.091.042c.03.256.077.51.09.767.062 1.229.134 2.458.167 3.688.032 1.21.023 2.422.03 3.633.004.7.01 1.4.003 2.1-.015 1.242-.043 2.484-.059 3.726-.008.727.005 1.454-.007 2.18-.007.453-.056.904-.063 1.355q-.035 2.627-.054 5.253c-.006.738-.002 1.474.002 2.212.005.9.016 1.802.023 2.703.003.451 0 .903 0 1.376.227-.055.401-.092.573-.14.424-.115.844-.24 1.269-.353.3-.08.605-.132.903-.215.726-.2 1.447-.415 2.172-.616.568-.157 1.14-.299 1.709-.454.162-.044.314-.122.477-.164.33-.086.666-.153.998-.237.232-.059.457-.162.692-.193.378-.05.686-.233.978-.449.201-.149.334-.343.283-.628-.033-.184-.02-.377-.019-.567q.006-1.33.015-2.661.001-.312-.005-.624c-.005-.284-.015-.568-.02-.852-.002-.102.008-.203.01-.305q.005-.312.003-.626c0-.048-.034-.098-.03-.145.017-.227.061-.453.059-.68-.005-.516-.046-1.033-.045-1.55.001-.588.037-1.176.045-1.765q.016-.969.001-1.938c-.008-.479-.044-.958-.065-1.437-.003-.07.017-.14.025-.21.025-.226.091-.455-.026-.623v-.896c-.107-.008-.189-.02-.273-.02l-2.198-.004c-1.124-.001-2.248-.007-3.372 0-.487.004-.973.038-1.46.05-.14.004-.28-.023-.462-.04zm7.719-.584c0-.436.002-.815 0-1.195-.008-1.147-.02-2.295-.026-3.443-.002-.3.03-.601.009-.9-.033-.48.107-.97-.074-1.445-.024-.064-.007-.145-.007-.218-.002-.549.01-1.098-.009-1.645-.022-.633-.074-1.265-.105-1.897a274 274 0 0 1-.101-2.405c-.007-.183.006-.367 0-.55-.012-.38-.353-.55-.535-.822-.094-.139-.233-.201-.409-.203-.1-.002-.202-.047-.3-.083-.323-.114-.62-.29-.99-.272-.464.024-.931.005-1.397-.005-.268-.005-.536-.03-.804-.047-.138-.024-.27-.053-.4-.048-.219.008-.438.058-.657.054-.277-.004-.556-.064-.834-.066-1.756-.007-3.513-.002-5.27-.007a25 25 0 0 1-1.27-.035c-.14-.007-.278-.096-.417-.097a606 606 0 0 0-4.39-.018c-.87 0-1.739.009-2.608.016-.08 0-.158.02-.228.029v2.243h.442q1.035 0 2.068-.003l4.106-.005c.955 0 1.911.007 2.866-.002.278-.002.54.09.661.304.18.316.287.678.391 1.03.071.24.077.499.13.745a.47.47 0 0 0 .142.243c.176.148.367.28.555.413.503.357.861.846 1.175 1.357.234.382.4.81.561 1.23.117.305.207.627.253.949.064.439.082.885.108 1.33.056.951.111 1.903.15 2.856.02.455-.002.913.007 1.37.009.406.034.812.053 1.24h7.156zm-10.435 2.89c.012-.09.026-.153.027-.215.016-.722.033-1.443.041-2.165.004-.295-.018-.59-.024-.886a20 20 0 0 1-.006-.732c.009-.578.036-1.156.032-1.734-.006-1.072-.028-2.145-.046-3.217-.01-.605-.013-1.21-.042-1.813-.032-.686-.128-1.37-.125-2.056.003-.566-.024-1.121-.19-1.66-.096-.306-.247-.596-.366-.88h-9.683l.124 4.908c.175.138.353.243.484.39a7 7 0 0 1 1.424 2.442c.24.703.188 1.426.28 2.136.122.954.12 1.923.159 2.887.017.435-.012.871.006 1.306.016.407-.056.823.103 1.243 2.603.024 5.2-.013 7.803.046z"/>
    <path fill="#9d3535" d="M68.562 24.693c-.06 1.94-.517 3.492-.726 4.094-.377 1.082-.819 2.144-1.45 3.113-.699.963-1.11 1.61-2.217 3.014-1.005.887-2.002 2.827-6.724 3.216-.83.068-4.069.242-4.855.283-5.618.092-7.671.15-9.607.15s-9.739-.058-12.787-.1c-.728-.028-1.462 0-2.181-.09-.604-.074-1.2-.252-1.783-.439a12 12 0 0 1-1.474-.611c-.68-.325-1.29-.772-1.843-1.277-.504-.46-.937-.993-1.368-1.531-.59-.735-1.03-1.553-1.457-2.375-.425-.817-.784-1.672-1.008-2.578-.08-.322-.387-1.283-1.26-1.316-.043-.265-.211-.73-.226-2.787.102-3.938.745-6.037.795-6.185.218-.646.435-1.29.664-1.932.173-.485.343-.974.553-1.443.198-.442 1.154-2.242 1.417-2.707 1.308-2.308 2.604-3.885 2.893-4.21 2.17-2.447 4.238-3.834 4.4-3.93 4.164-2.454 4.75-2.807 6.393-3.336.536-.172 4.696-1.35 6.778-1.615s4.518-.313 5.953-.324c1.435-.01 3.194.115 4.853.263s2.606.217 5.653 1.24c3.047 1.024 5.128 2.002 7.447 3.61 3.05 2.115 3.93 2.997 6.624 6.267 3.402 4.13 5.624 8.879 5.803 9.218a209 209 0 0 1 1.87 3.985c.231.528 1.86 4.38 1.959 4.62.19.46 2.047 5.205 2.927 7.864.88 2.66 1.185 3.454 2.112 6.773.928 3.32 1.407 5.074 1.407 5.131-.426.415-.645.468-1.269.29a377 377 0 0 1-1.07-3.907c-.072-.306-1.904-6.145-2.132-6.815-.165-.484-.784-2.605-2.409-6.586-1.625-3.98-2.354-5.83-2.811-6.815s-1.288-2.81-1.536-3.352c-.156-.341-2.053-4.222-3.479-6.07s-2.248-3.023-4.712-5.785-3.637-3.467-5.808-4.76-4.504-1.968-4.696-2.045c-.182-.073-2.062-.814-3.963-1.148-1.9-.334-3.72-.447-4.343-.502-1.263-.112-2.528-.106-3.792-.059-.818.031-7.494.698-9.887 1.66-3.298 1.094-5.798 2.606-6.193 2.86-.477.306-2.444 1.525-4.407 3.587-.473.512-1.797 2.335-2.037 2.69-.184.272-1.515 2.124-2.07 3.483-.178.438-2.026 4.224-2.3 8.043-.143 1.995-.371 3.233.55 6.377.587 2.002 1.463 3.168 2 3.865.353.457 1.713 1.977 2.064 2.244 2.407 1.913 4.763 1.792 5.215 1.82.816.05 1.448.057 2.296.093-.714-1.015-1.037-1.87-1.457-2.831-.461-1.054-.936-2.105-1.339-3.182-.239-.64-.358-1.326-.513-1.995-.148-.638-.217-1.286-.275-1.94a15 15 0 0 1-.046-2.168c.037-.653.043-1.31.127-1.957.12-.924.345-1.827.785-2.66l.001-.002c.07-.129.262-.108.312.03l.02.067c.069.329-.072.618-.169.921-.12.38-.228.77-.283 1.163a23 23 0 0 0-.205 2.016c-.03.59-.001 1.182.011 1.773.005.225.044.45.051.676.026.88.16 1.747.382 2.595.32 1.221.724 2.415 1.285 3.551.373.756.72 1.526 1.089 2.285.235.483.786 1.658.987 1.658 6.16.235 11.147.118 12.374.109-.12-.184-.977-1.981-1.247-2.723-.338-.931-1.095-2.91-1.78-6.948-.02-.1-.312-2.427-.289-5.172-.009-.423.09-1.964.137-2.309.006-.045.054-.084.08-.121.288.073.376.178.383.498.007.319-.015 2.4.022 3.267-.044 2.407.408 4.825.58 5.686.77 4.07 1.767 6.009 2.764 7.772.071.089 1.887.039 2.69.02 3.06-.138 6.949-.31 7.118-.322 3.275-.11 4.093-.41 4.652-.563 1.79-.428 2.79-1.376 3.265-1.745 2.573-2.62 3.59-4.574 4.204-6.1.406-1.008.776-2.308.892-3.396.068-.632.073-1.013.116-1.647.06-.88.57-.822.53.47"/>
  </g>
</svg>
