<!-- This Source Code Form is subject to the terms of the Mozilla Public
   - License, v. 2.0. If a copy of the MPL was not distributed with this
   - file, You can obtain one at http://mozilla.org/MPL/2.0/. -->
<svg width="1924" height="1140" viewBox="0 0 1924 1140" fill="none" xmlns="http://www.w3.org/2000/svg">
<g clip-path="url(#clip0_2966_11336)">
<path d="M1847.41 714.354C1709.24 689.006 1655.33 628.842 1515.22 628.842C1375.1 628.842 1316.96 681.801 1200.25 714.354C1124.97 735.349 1044.05 742.995 975.269 742.23C785.015 729.968 752.139 670.274 608.257 669.539C485.459 668.922 422.442 717.735 325.462 737.819C211.456 761.432 81.9832 761.109 26.8769 759.609C17.2024 759.344 7.02807 759.05 -0.0292969 758.844V948.452C4.5874 945.129 9.85102 941.424 13.5267 939.013C156.585 844.65 336.46 842.121 457.2 910.725C574.44 977.329 669.832 1022.41 790.631 993.267C871.232 973.829 937.865 924.163 1003.15 891.523C1102.13 842.033 1190.64 832.3 1332.14 874.056C1434.97 904.403 1513.19 936.602 1621.11 937.308C1749.17 938.16 1833.39 914.989 1911.87 850.796C1915.02 848.238 1919.66 844.209 1923.69 840.68V728.174C1921.49 727.792 1919.28 727.41 1917.55 727.116C1897.61 723.616 1874.76 719.411 1847.38 714.383L1847.41 714.354Z" fill="url(#paint0_linear_2966_11336)"/>
<path d="M1911.87 850.766C1833.39 914.958 1749.17 938.13 1621.11 937.277C1513.19 936.572 1434.97 904.372 1332.14 874.026C1190.64 832.27 1102.16 842.003 1003.15 891.493C937.836 924.133 871.203 973.799 790.631 993.236C669.832 1022.35 574.44 977.299 457.2 910.695C336.46 842.091 156.585 844.591 13.5267 938.983C9.85102 941.394 4.5874 945.129 -0.0292969 948.422V1140.03H1923.66V840.68C1919.6 844.208 1914.99 848.207 1911.84 850.795L1911.87 850.766Z" fill="url(#paint1_linear_2966_11336)"/>
<path d="M634.281 360.866C614.903 374.804 608.11 385.449 596.201 385.449C574.794 385.449 568.795 404.71 577.499 410.238C593.319 420.265 625.577 415.119 681.066 415.119C742.906 415.119 758.697 414.237 775.34 410.944C796.895 406.68 789.485 379.039 768.077 375.745C746.67 372.452 738.083 378.862 704.12 356.984C679.978 341.429 653.954 346.722 634.281 360.866Z" fill="url(#paint2_linear_2966_11336)"/>
<path d="M1515.1 266.474C1530.92 276.502 1563.18 271.356 1618.67 271.356C1680.51 271.356 1696.3 270.474 1712.94 267.18C1734.49 262.916 1727.08 235.275 1705.68 231.982C1684.27 228.688 1675.68 235.099 1641.72 213.221C1617.58 197.665 1591.55 202.958 1571.88 217.102C1552.5 231.041 1545.71 241.685 1533.8 241.685C1512.39 241.685 1506.39 260.946 1515.1 266.474Z" fill="url(#paint3_linear_2966_11336)"/>
<path d="M301.556 254.152C315.965 266.532 405.24 264.327 506.043 264.327C618.373 264.327 663.011 264.474 693.269 258.298C732.408 250.3 724.939 217.042 686.065 210.867C647.19 204.692 622.695 165.494 559.326 169.611C495.957 173.728 478.666 192.312 438.351 208.809C398.036 225.305 362.073 223.247 340.43 223.247C301.556 223.247 287.147 241.802 301.556 254.182V254.152Z" fill="url(#paint4_linear_2966_11336)"/>
<g clip-path="url(#clip1_2966_11336)">
<path d="M1923.69 0H0V1140H1923.69V0Z" fill="#210340"/>
<path d="M1847.41 714.352C1709.23 689.004 1655.33 628.84 1515.22 628.84C1375.1 628.84 1316.96 681.799 1200.25 714.352C1124.97 735.347 1044.05 742.993 975.269 742.228C785.014 729.966 752.138 670.272 608.256 669.537C485.458 668.92 422.442 717.733 325.462 737.817C211.456 761.43 81.9831 761.107 26.8769 759.607C17.2024 759.342 7.02807 759.048 -0.0292969 758.842V948.45C4.58739 945.127 9.85101 941.422 13.5267 939.011C156.585 844.648 336.46 842.119 457.2 910.723C574.44 977.326 669.832 1022.41 790.63 993.264C871.231 973.827 937.865 924.161 1003.15 891.521C1102.12 842.031 1190.64 832.298 1332.14 874.054C1434.97 904.4 1513.19 936.6 1621.11 937.305C1749.17 938.158 1833.39 914.986 1911.87 850.794C1915.02 848.236 1919.66 844.207 1923.69 840.678V728.172C1921.48 727.79 1919.28 727.408 1917.54 727.114C1897.61 723.614 1874.76 719.409 1847.38 714.381L1847.41 714.352Z" fill="url(#paint5_linear_2966_11336)"/>
<path d="M1621.14 937.275C1513.22 936.57 1435 904.37 1332.17 874.024C1190.67 832.268 1102.18 842.001 1003.17 891.491C937.865 924.131 871.231 973.797 790.66 993.234C669.861 1022.35 574.469 977.297 457.229 910.693C336.489 842.089 156.615 844.589 13.556 938.981C9.88031 941.392 4.61669 945.127 0 948.42V1140.03H1923.69V840.678C1919.63 844.206 1915.02 848.206 1911.87 850.793C1833.39 914.986 1749.17 938.158 1621.11 937.305L1621.14 937.275Z" fill="url(#paint6_linear_2966_11336)"/>
<path d="M634.28 360.868C614.902 374.806 608.109 385.451 596.2 385.451C574.793 385.451 568.794 404.712 577.498 410.24C593.318 420.267 625.576 415.121 681.065 415.121C742.905 415.121 758.696 414.239 775.34 410.946C796.894 406.682 789.484 379.041 768.076 375.747C746.669 372.454 738.083 378.864 704.119 356.986C679.977 341.431 653.953 346.724 634.28 360.868Z" fill="url(#paint7_linear_2966_11336)"/>
<path d="M1515.1 266.474C1530.92 276.502 1563.18 271.356 1618.66 271.356C1680.51 271.356 1696.3 270.474 1712.94 267.18C1734.49 262.916 1727.08 235.275 1705.68 231.982C1684.27 228.688 1675.68 235.099 1641.72 213.221C1617.58 197.665 1591.55 202.958 1571.88 217.102C1552.5 231.041 1545.71 241.685 1533.8 241.685C1512.39 241.685 1506.39 260.946 1515.1 266.474Z" fill="url(#paint8_linear_2966_11336)"/>
<path d="M301.555 254.154C315.964 266.534 405.24 264.328 506.042 264.328C618.372 264.328 663.01 264.475 693.268 258.3C732.407 250.302 724.938 217.044 686.064 210.869C647.19 204.694 622.695 165.496 559.325 169.613C495.956 173.73 478.666 192.314 438.35 208.811C398.035 225.307 362.072 223.249 340.429 223.249C301.555 223.249 287.146 241.804 301.555 254.183V254.154Z" fill="url(#paint9_linear_2966_11336)"/>
</g>
</g>
<defs>
<linearGradient id="paint0_linear_2966_11336" x1="960.537" y1="907.608" x2="964.683" y2="567.972" gradientUnits="userSpaceOnUse">
<stop stop-color="#FCF5F0"/>
<stop offset="0.22" stop-color="#FAECF1"/>
<stop offset="0.56" stop-color="#F5D4F5"/>
<stop offset="1" stop-color="#EEAEFC"/>
</linearGradient>
<linearGradient id="paint1_linear_2966_11336" x1="969.212" y1="1118.48" x2="949.275" y2="771.312" gradientUnits="userSpaceOnUse">
<stop stop-color="#FCF5F0"/>
<stop offset="0.22" stop-color="#FAECF1"/>
<stop offset="0.56" stop-color="#F5D4F5"/>
<stop offset="1" stop-color="#EEAEFC"/>
</linearGradient>
<linearGradient id="paint2_linear_2966_11336" x1="725.939" y1="520.245" x2="658.835" y2="339.576" gradientUnits="userSpaceOnUse">
<stop stop-color="#FCEEDE"/>
<stop offset="1" stop-color="white"/>
</linearGradient>
<linearGradient id="paint3_linear_2966_11336" x1="1663.54" y1="376.511" x2="1596.44" y2="195.842" gradientUnits="userSpaceOnUse">
<stop stop-color="#FCEEDE"/>
<stop offset="1" stop-color="white"/>
</linearGradient>
<linearGradient id="paint4_linear_2966_11336" x1="562.914" y1="379.185" x2="478.813" y2="167.141" gradientUnits="userSpaceOnUse">
<stop stop-color="#FCEEDE"/>
<stop offset="1" stop-color="white"/>
</linearGradient>
<linearGradient id="paint5_linear_2966_11336" x1="960.889" y1="879.7" x2="965.006" y2="540.094" gradientUnits="userSpaceOnUse">
<stop stop-color="#210340"/>
<stop offset="0.23" stop-color="#29074C"/>
<stop offset="0.65" stop-color="#3E126D"/>
<stop offset="1" stop-color="#541D8F"/>
</linearGradient>
<linearGradient id="paint6_linear_2966_11336" x1="965.888" y1="1060.37" x2="949.98" y2="783.807" gradientUnits="userSpaceOnUse">
<stop stop-color="#210340"/>
<stop offset="0.23" stop-color="#29074C"/>
<stop offset="0.65" stop-color="#3E126D"/>
<stop offset="1" stop-color="#541D8F"/>
</linearGradient>
<linearGradient id="paint7_linear_2966_11336" x1="682.212" y1="451.261" x2="679.301" y2="328.992" gradientUnits="userSpaceOnUse">
<stop stop-color="#210340"/>
<stop offset="0.23" stop-color="#29074C"/>
<stop offset="0.65" stop-color="#3E126D"/>
<stop offset="1" stop-color="#541D8F"/>
</linearGradient>
<linearGradient id="paint8_linear_2966_11336" x1="1616.87" y1="346.281" x2="1619.78" y2="191.99" gradientUnits="userSpaceOnUse">
<stop stop-color="#210340"/>
<stop offset="0.23" stop-color="#29074C"/>
<stop offset="0.65" stop-color="#3E126D"/>
<stop offset="1" stop-color="#541D8F"/>
</linearGradient>
<linearGradient id="paint9_linear_2966_11336" x1="506.013" y1="325.345" x2="508.924" y2="171.024" gradientUnits="userSpaceOnUse">
<stop stop-color="#210340"/>
<stop offset="0.23" stop-color="#29074C"/>
<stop offset="0.65" stop-color="#3E126D"/>
<stop offset="1" stop-color="#541D8F"/>
</linearGradient>
<clipPath id="clip0_2966_11336">
<rect width="1923.69" height="1140" fill="white"/>
</clipPath>
<clipPath id="clip1_2966_11336">
<rect width="1923.69" height="1140" fill="white"/>
</clipPath>
</defs>
</svg>
