<!-- This Source Code Form is subject to the terms of the Mozilla Public
   - License, v. 2.0. If a copy of the MPL was not distributed with this
   - file, You can obtain one at http://mozilla.org/MPL/2.0/. -->
<svg xmlns="http://www.w3.org/2000/svg" width="351" height="322" fill="none" viewBox="0 0 351 322"><g clip-path="url(#a)"><path fill="url(#b)" d="M157.874 223.805s-45.927-7.265-59.28-57.513c-3.283-12.347.794-24.864.794-24.864s-1.8.19-5.401 3.209c-2.637 2.202-3.94 5.104-3.94 5.104s-7.751-22.694 6.132-45.261c3.558-5.782 11.712-16.032 25.923-18.595 18.416-3.325 43.28 25.86 43.28 25.86s19.856-24.23 3.781-49.856c-3.611-5.75-8.387-11.183-8.387-11.183l4.299-.55s-5.697-6.206-15.249-10.76C119.9 25.132 74.163 27.292 40.054 58.12c-1.97 1.779-6.947 7.624-6.947 7.624s.476-2.446.286-5.05c-.265-3.665-2.383-8.6-2.383-8.6S28.447 62.81 19.022 79.478c-20.787 36.768-27.639 79.677-7.793 124.673 24.515 55.606 75.673 78.596 135.028 78.596 37.223 0 26.866-.826 26.866-.826l-.434-94.915-14.825 36.788z"/><path fill="url(#c)" d="M196.532 194.453c4.436 0 7.849 0 13.195-.342l6.257-.341c7.394-.455 14.219-1.251 18.087-2.503 11.375-3.526 25.708-31.624 17.859-40.724-.341-.455-.796-.796-1.251-1.138-3.185-2.275-5.233-3.753-7.053-4.777 10.124-2.048 18.087-10.124 19.111-11.262 3.868.569 8.19.683 12.854.228 14.675-1.252 18.315-1.821 31.397-1.821 18.542 0 26.505 7.622 39.018 16.609-.569 0-.91 0-.228.568 1.138.911 5.119 5.347 2.844 8.305-1.706 2.161-6.37-2.162-7.053.455-.455 1.706 5.006 3.64 2.389 6.597-3.412 3.982-11.717-.568-14.105 10.466-2.048 9.442.455 10.124-4.209 35.719-1.479 7.963-3.527 15.016-5.916 21.386-6.256 16.722-14.674 28.325-20.476 35.378a105 105 0 0 0-4.285 5.717s-2.995 2.473-2.881 2.587l-58.015 8.418c-15.13 0-33.103.114-41.407.227z"/><path fill="url(#d)" d="m192.49 284.154 3.867-89.753c4.437 0 7.849 0 13.196-.341l6.256-.341c5.802-.342 11.376-.911 15.357-1.821 13.651 7.963 24.344 21.728 28.667 38.791 4.664 18.428.796 36.857-8.873 50.735l-16.95 2.389c-15.129 0-33.102.113-41.52.227z"/><path fill="url(#e)" d="M302.035 280.968c0-6.485-6.484-7.622-7.394-8.077 1.138-1.593 2.617-3.413 4.437-5.688 4.777.114 10.465.341 13.423.683 9.669 1.137 16.494 13.195-1.934 13.195h-8.532z"/><path fill="url(#f)" d="M302.035 280.968c0-6.485-6.484-7.622-7.394-8.077 1.138-1.593 2.617-3.413 4.437-5.688 4.777.114 10.465.341 13.423.683 9.669 1.137 16.494 13.195-1.934 13.195h-8.532z"/><path fill="url(#g)" d="M312.847 211.23s-6.256 10.238-18.201 27.415c-.796.455-1.592.91-2.275 1.365l2.275-9.214-1.592-5.005-30.6 8.418s-.683 1.934-1.821 5.005l-.455-2.048-5.801 10.807a77 77 0 0 0-1.706-10.01c-2.731-10.807-7.963-20.249-15.016-27.757 8.645 3.186 17.063 6.029 18.314 5.574 2.389-.91 11.262-18.655 12.059-30.713 1.023-14.22-3.527-25.937-16.381-34.696-.341-.455-.797-.796-1.252-1.137-3.185-2.275-5.346-3.641-7.166-4.664 10.124-2.048 18.201-10.238 19.225-11.376 3.867.569 8.19.683 12.854.228 14.674-1.252 18.314-1.82 31.396-1.82 18.542 0 26.391 7.621 38.905 16.608-.569 0-.91 0-.228.569 1.138.91 5.233 5.346 2.958 8.417-1.707 2.162-6.371-2.161-7.053.455-.455 1.707 5.005 3.641 2.389 6.598-3.413 3.982-11.717-.568-14.106 10.466-2.048 9.441.455 10.124-4.209 35.719-1.479 7.963-3.526 15.016-5.915 21.386a57.4 57.4 0 0 0-10.011 1.251c3.641-12.854 3.299-21.727 3.299-21.727z" opacity=".4"/><path fill="url(#h)" d="M274.963 94.299c3.641-13.423 10.693-35.605 16.381-34.468 5.915 1.138 11.034 13.423 14.561 24.912.682-2.047 1.479-4.322 2.73-7.166 4.323-10.01 6.825-15.13 10.693-14.22 4.209 1.024 9.214 10.352 11.603 18.201 3.868 12.513 3.64 15.585 4.095 20.931 0 1.252.228 2.73.228 4.209.341 6.484.682 14.22 1.933 17.177 3.072 7.167 14.22 17.064 13.196 23.206-.341 1.82-3.299 1.252-4.664 1.252-13.309-9.214-20.248-16.609-38.79-16.495-13.082 0-16.722.569-31.397 1.82-4.664.455-9.1.342-12.854-.227 0 0-2.503-.341-6.029-3.982-4.778-5.119-5.347-9.214-13.992-12.285 15.357-1.82 13.537-14.675 32.193-22.751h.113z"/><path fill="#ffc635" d="M256.763 129.338c3.413 3.64 6.143 3.867 6.143 3.867v.228c-1.137 1.138-9.214 9.214-19.338 11.262-2.958-1.707-4.892-2.617-8.191-5.461-6.37-5.346-9.555-12.399-9.669-17.063.569.455 1.365.796 2.275.91 3.641.683 6.143-1.934 6.029-3.64 0-.91-.682-1.934-2.047-2.73 1.365.227 3.071.455 5.119.569h5.801c8.759 3.071 9.101 7.053 13.878 12.172z"/><path fill="#200041" d="M234.011 119.553c.227 1.706-2.617 4.209-6.257 3.526-.91-.227-1.592-.455-2.161-.91q0-1.877.682-3.071c1.479-2.616 2.958-2.73 5.688-2.389 1.365.796 1.934 1.82 2.048 2.73z"/><path fill="url(#i)" d="M283.15 115.572c-1.933 3.867 0 6.825 1.593 7.28 3.299.91 6.484-.682 9.1-5.801 3.299-6.485.228-9.328-3.526-9.101-2.389 0-4.55 2.275-7.167 7.622"/><path fill="#fff" d="M283.303 120.425c-.742-.472-.906-1.543-.366-2.39s1.58-1.152 2.321-.68c.742.473.906 1.543.366 2.391s-1.58 1.152-2.321.679"/><path fill="url(#j)" d="M258.581 108.4c-3.299 4.209-2.275 6.37-1.137 7.281 2.388 1.706 5.687.568 7.735-2.844 3.071-4.892 3.185-7.167.682-8.76-2.161-1.251-4.664.911-7.28 4.323"/><path fill="#fff" d="M258.304 114.86c-.813-.077-1.4-.9-1.311-1.838s.819-1.636 1.632-1.56c.814.077 1.401.9 1.312 1.838s-.82 1.637-1.633 1.56"/><path fill="#fe5e0e" d="M294.413 91.114c-5.346 0-12.285.341-18.201 2.616-.455.228-.796.342-1.251.57 3.64-13.424 10.693-35.492 16.267-34.469 5.915 1.138 11.148 13.31 14.674 24.799-.91 2.844-1.82 5.005-3.299 6.939 0 0-3.526-.455-8.304-.455z"/><path fill="url(#k)" d="M330.932 118.98c-.683-.455-8.759-8.646-16.609-16.722-1.478-1.593-12.854-3.413-14.56-4.55-.683-2.617 3.185-.455 2.389-3.413-.455-1.706 4.322-7.85 3.754-9.555.682-2.048 1.365-4.323 2.616-7.167 4.323-10.01 6.825-15.13 10.693-14.22 4.209 1.024 9.214 10.352 11.603 18.201 3.868 12.513 3.64 15.585 4.095 20.931 0 1.252.228 2.73.228 4.209-2.162 6.939-3.982 12.4-4.323 12.172h.114z"/><path fill="url(#l)" d="M288.613 272.661c3.413-3.981 8.077-10.693 13.765-21.613 11.262-21.5 10.465-39.587 10.465-39.587s-8.986 14.788-26.277 38.904c-4.095 5.688-8.646 15.357-11.262 22.069z" opacity=".6"/><path fill="url(#m)" d="m247.205 244.569 4.323 8.987 2.844-5.461 5.801-10.806.455 2.047 1.707 8.759 13.309-17.29-4.323 19.793 14.106-14.106-16.04 30.146c-.682 1.478-.796 2.502-.341 3.298.683 1.366 2.844 1.934 5.574 2.048h.683c2.844 0 8.304.228 13.423.455 2.161 0 4.209.228 5.915.341.91.455 7.28 1.707 7.394 8.077v1.251c-.455 4.095-4.664 4.55-20.362 4.55h-44.365c-4.322 0-3.298-1.478-3.298-2.388 1.933-11.148 13.195-39.928 13.195-39.928z"/><path fill="url(#n)" d="M146.255 282.743c37.223 0 26.866-.826 26.866-.826l-.423-93.126c-.202-.105-.403-.201-.615-.307l-14.222 35.296s-21.518-3.41-39.383-21.667c-8.281 8.843-15.821 19.835-23.149 30.562-11.288 16.52-16.149 28.688-16.657 37.805 20.3 8.387 43.248 12.253 67.573 12.253z" opacity=".97"/><path fill="url(#o)" d="M24.223 202.256s-8.61-9.097-13.904-28.127c-5.083-18.256-3.664-26.495-3.664-26.495l8.313 11.469s-3.188-11.617-2.192-26.294c1.8-26.612 15.524-32.754 15.524-32.754s12.623 8.101 16.848 50.788c2.68 27.088-4.236 62.648-8.895 61.462-3.505-.889-2.446 2.277-12.02-10.06z" opacity=".4"/><path fill="url(#p)" d="M84.85 41.477s5.983-2.573 14.646-2.499 18.796 3.474 18.796 3.474l-11.299 3.23s8.122 1.09 19.273 4.278c4.31 1.228 10.622 4.267 10.622 4.267s-14.18-1.578-24.378-.36c-10.197 1.207-18.743 2.266-24.832 5.168s-11.247 9.404-17.982 3.622.34-16.954 15.154-21.17z" opacity=".7"/><path fill="url(#q)" d="M133.789 289.914h92.289V178.193h-92.289z"/><path fill="url(#r)" d="M225.677 176.539H132.89c-.69 0-1.249.56-1.249 1.25v.01c0 .69.559 1.25 1.249 1.25h92.787c.69 0 1.25-.56 1.25-1.25v-.01c0-.69-.56-1.25-1.25-1.25"/><path fill="url(#s)" d="M143.599 176.273a1.01 1.01 0 0 0-1.016 1.049c.053 1.609 1.281 2.393 1.281 6.332 0 14.678.572 26.676.551 42.052 0 2.743 1.249 6.364 4.871 6.661 3.251.265 4.035-4.84 4.193-7.074 0 0 .583-24.166.583-24.219.106-1.556 1.017-3.727 2.785-4.119 2.097-.466 3.537 2.393 3.558 5.231.042 4.607.095 4.999.095 4.999-.201 2.88.784 5.136 3.251 5.04 2.468-.095 3.41-2.509 3.622-5.39 0 0 .138.064.117-3.865-.022-2.679 2.065-6.237 5.019-5.263 2.499.826 4.3 3.325 4.321 5.803.042 6.375-.403 13.873-.403 13.873-.211 3.039 1.568 6.989 4.183 6.883 2.616-.106 4.109-3.029 4.321-6.068 0 0 .413-29.979.54-34.501.138-4.766 1.302-4.162 1.324-6.386 0-.561-.456-1.016-1.017-1.016H143.61z"/><path fill="url(#t)" d="M173.555 82.912c-4.553 9.457-1.906.773-10.748 2.923-3.442.836-4.3 4.596-8.175 5.432-8.832 1.907-6.164-5.856-12.475-6.692-5.39-.71-10.028 2.234-10.325 2.086 4.956 2.33 6.883 3.346 10.325 7.53 2.531 4.913 3.505 7.052 3.442 10.875-.149 8.779-1.314 13.512 3.579 13.66 4.734.138 3.738-8.26 3.738-8.281 0-1.789 1.398-.328 2.139 1.313 2.298 5.115 2.012 9.711 2.012 14.212 0 5.263-2.838 18.066 3.611 18.013 5.136-.043 5.285-4.914 3.993-16.626-.403-3.654 1.662-5.062 7.19-17.685 6.428-14.645 6.852-37.487 1.694-26.77z"/></g><defs><linearGradient id="b" x1="87.421" x2="87.421" y1="30.925" y2="282.747" gradientUnits="userSpaceOnUse"><stop offset=".08" stop-color="#ffe500"/><stop offset=".45" stop-color="#ff6d00"/><stop offset=".5" stop-color="#ff6709"/><stop offset=".59" stop-color="#ff5622"/><stop offset=".68" stop-color="#ff453f"/><stop offset="1" stop-color="#fb0372"/></linearGradient><linearGradient id="c" x1="270.757" x2="270.757" y1="109.424" y2="277.896" gradientUnits="userSpaceOnUse"><stop stop-color="#f60"/><stop offset=".2" stop-color="#ffc635"/><stop offset=".4" stop-color="#ffa824"/><stop offset=".7" stop-color="#f60"/><stop offset="1" stop-color="#fb2872"/></linearGradient><linearGradient id="d" x1="244.895" x2="48.362" y1="206.686" y2="313.161" gradientUnits="userSpaceOnUse"><stop stop-color="#fb2872" stop-opacity="0"/><stop offset=".47" stop-color="#b10047"/></linearGradient><linearGradient id="e" x1="307.609" x2="346.4" y1="274.483" y2="282.446" gradientUnits="userSpaceOnUse"><stop stop-color="#be0449"/><stop offset=".3" stop-color="#cc1747"/><stop offset=".7" stop-color="#e23444"/><stop offset="1" stop-color="#eb4043"/></linearGradient><linearGradient id="g" x1="281.451" x2="307.387" y1="115.221" y2="262.079" gradientUnits="userSpaceOnUse"><stop stop-color="#ffe344" stop-opacity=".9"/><stop offset=".2" stop-color="#ffbe30" stop-opacity=".7"/><stop offset=".5" stop-color="#ff9e1f" stop-opacity=".4"/><stop offset=".6" stop-color="#ff8611" stop-opacity=".2"/><stop offset=".8" stop-color="#ff7408" stop-opacity=".1"/><stop offset=".9" stop-color="#ff6902" stop-opacity="0"/><stop offset="1" stop-color="#f60" stop-opacity="0"/></linearGradient><linearGradient id="h" x1="294.757" x2="382.007" y1="139.232" y2="-216.366" gradientUnits="userSpaceOnUse"><stop stop-color="#ff9c00"/><stop offset=".2" stop-color="#f60"/><stop offset=".6" stop-color="#f60"/><stop offset="1" stop-color="#fb2872"/></linearGradient><linearGradient id="i" x1="296.005" x2="285.312" y1="106.358" y2="120.236" gradientUnits="userSpaceOnUse"><stop stop-color="#a02fb9"/><stop offset=".9" stop-color="#00073b"/></linearGradient><linearGradient id="j" x1="268.863" x2="256.348" y1="86.922" y2="116.464" gradientUnits="userSpaceOnUse"><stop offset=".4" stop-color="#a02fb9"/><stop offset=".9" stop-color="#00073b"/></linearGradient><linearGradient id="k" x1="312.162" x2="354.479" y1="111.472" y2="34.118" gradientUnits="userSpaceOnUse"><stop stop-color="#f60" stop-opacity="0"/><stop offset=".2" stop-color="#f60" stop-opacity=".2"/><stop offset=".3" stop-color="#f60" stop-opacity=".9"/><stop offset=".4" stop-color="#f60"/><stop offset=".7" stop-color="#fd4737"/><stop offset="1" stop-color="#fb2872"/></linearGradient><linearGradient id="l" x1="287.874" x2="301.106" y1="219.575" y2="267.547" gradientUnits="userSpaceOnUse"><stop stop-color="#ffd300"/><stop offset=".2" stop-color="#ffcd00" stop-opacity=".8"/><stop offset=".4" stop-color="#ffc200" stop-opacity=".7"/><stop offset=".7" stop-color="#ffb400" stop-opacity=".4"/><stop offset=".9" stop-color="#ffa200" stop-opacity="0"/><stop offset="1" stop-color="#ff9e00" stop-opacity="0"/></linearGradient><linearGradient id="m" x1="287.247" x2="267.969" y1="205.096" y2="295.38" gradientUnits="userSpaceOnUse"><stop offset=".409" stop-color="#d81f60" stop-opacity=".1"/><stop offset=".764" stop-color="#d81f60"/></linearGradient><linearGradient id="n" x1="85.28" x2="196.959" y1="206.826" y2="269.898" gradientUnits="userSpaceOnUse"><stop offset=".19" stop-color="#fb2872" stop-opacity="0"/><stop offset=".23" stop-color="#f0226b" stop-opacity=".15"/><stop offset=".29" stop-color="#dc1760" stop-opacity=".41"/><stop offset=".36" stop-color="#cd0f57" stop-opacity=".62"/><stop offset=".43" stop-color="#c00850" stop-opacity=".79"/><stop offset=".49" stop-color="#b8034b" stop-opacity=".9"/><stop offset=".55" stop-color="#b20048" stop-opacity=".98"/><stop offset=".61" stop-color="#b10047"/></linearGradient><linearGradient id="p" x1="136.81" x2="81.565" y1="46.354" y2="52.406" gradientUnits="userSpaceOnUse"><stop offset=".03" stop-color="#fff088"/><stop offset=".12" stop-color="#fff084" stop-opacity=".96"/><stop offset=".26" stop-color="#fff279" stop-opacity=".84"/><stop offset=".46" stop-color="#fff567" stop-opacity=".66"/><stop offset=".69" stop-color="#fff94f" stop-opacity=".4"/><stop offset=".95" stop-color="#fffd31" stop-opacity=".07"/><stop offset="1" stop-color="#ffff2b" stop-opacity="0"/></linearGradient><linearGradient id="q" x1="140.577" x2="272.683" y1="224.067" y2="257.616" gradientUnits="userSpaceOnUse"><stop stop-color="#e752ff"/><stop offset=".11" stop-color="#dd4fff"/><stop offset=".28" stop-color="#c347ff"/><stop offset=".51" stop-color="#983bff"/><stop offset=".77" stop-color="#5e2aff"/><stop offset="1" stop-color="#271aff"/></linearGradient><linearGradient id="r" x1="176.827" x2="183.816" y1="141.953" y2="244.006" gradientUnits="userSpaceOnUse"><stop stop-color="#d674e6"/><stop offset=".3" stop-color="#e752ff"/><stop offset=".37" stop-color="#c849ff"/><stop offset=".48" stop-color="#973aff"/><stop offset=".59" stop-color="#6f2fff"/><stop offset=".7" stop-color="#4f25ff"/><stop offset=".81" stop-color="#391fff"/><stop offset=".91" stop-color="#2b1bff"/><stop offset="1" stop-color="#271aff"/></linearGradient><linearGradient id="s" x1="157.609" x2="170.19" y1="112.015" y2="253.207" gradientUnits="userSpaceOnUse"><stop stop-color="#d674e6"/><stop offset=".3" stop-color="#e752ff"/><stop offset=".37" stop-color="#c849ff"/><stop offset=".48" stop-color="#973aff"/><stop offset=".59" stop-color="#6f2fff"/><stop offset=".7" stop-color="#4f25ff"/><stop offset=".81" stop-color="#391fff"/><stop offset=".91" stop-color="#2b1bff"/><stop offset="1" stop-color="#271aff"/></linearGradient><linearGradient id="t" x1="149.591" x2="162.637" y1="41.072" y2="159.422" gradientUnits="userSpaceOnUse"><stop stop-color="#d674e6"/><stop offset=".3" stop-color="#e752ff"/><stop offset=".37" stop-color="#c849ff"/><stop offset=".48" stop-color="#973aff"/><stop offset=".59" stop-color="#6f2fff"/><stop offset=".7" stop-color="#4f25ff"/><stop offset=".81" stop-color="#391fff"/><stop offset=".91" stop-color="#2b1bff"/><stop offset="1" stop-color="#271aff"/></linearGradient><radialGradient id="f" cx="0" cy="0" r="1" gradientTransform="translate(297.144 274.37)scale(-40.6106)" gradientUnits="userSpaceOnUse"><stop offset=".2" stop-color="#a8034d"/><stop offset=".4" stop-color="#b30b52" stop-opacity=".8"/><stop offset=".5" stop-color="#c5195a" stop-opacity=".6"/><stop offset=".7" stop-color="#dd2c65" stop-opacity=".4"/><stop offset=".9" stop-color="#ff4774" stop-opacity="0"/></radialGradient><radialGradient id="o" cx="0" cy="0" r="1" gradientTransform="rotate(-19.41 499.668 165.98)scale(57.9785 48.7019)" gradientUnits="userSpaceOnUse"><stop offset=".51" stop-color="#ffeb49"/><stop offset=".55" stop-color="#ffeb49" stop-opacity=".96"/><stop offset=".63" stop-color="#ffeb49" stop-opacity=".84"/><stop offset=".72" stop-color="#ffeb49" stop-opacity=".66"/><stop offset=".84" stop-color="#ffeb49" stop-opacity=".4"/><stop offset=".97" stop-color="#ffeb49" stop-opacity=".07"/><stop offset="1" stop-color="#ffeb49" stop-opacity="0"/></radialGradient><clipPath id="a"><path fill="#fff" d="M.113 0h350v322h-350z"/></clipPath></defs></svg>
