<!-- This Source Code Form is subject to the terms of the Mozilla Public
   - License, v. 2.0. If a copy of the MPL was not distributed with this
   - file, You can obtain one at http://mozilla.org/MPL/2.0/. -->
<svg xmlns="http://www.w3.org/2000/svg" width="411" height="322" fill="none" viewBox="0 0 411 322"><g clip-path="url(#a)"><path fill="url(#b)" d="M154.144 187.531c-4.436 0-7.849 0-13.195-.342l-6.257-.341c-7.394-.455-14.219-1.251-18.087-2.502-11.375-3.527-25.709-31.624-17.86-40.725.342-.455.797-.796 1.252-1.137 3.185-2.275 5.233-3.754 7.053-4.778-10.125-2.048-18.087-10.124-19.111-11.262-3.868.569-8.19.683-12.855.228-14.674-1.252-18.314-1.82-31.396-1.82-18.542 0-26.505 7.621-39.018 16.608.569 0 .91 0 .227.569-1.137.91-5.119 5.346-2.843 8.304 1.706 2.161 6.37-2.162 7.052.455.455 1.706-5.005 3.64-2.388 6.598 3.412 3.981 11.716-.569 14.105 10.465 2.048 9.442-.455 10.124 4.21 35.719 1.478 7.963 3.525 15.016 5.914 21.386 6.257 16.722 14.675 28.325 20.476 35.378a105 105 0 0 1 4.286 5.717s2.995 2.473 2.88 2.587l58.016 8.418c15.129 0 33.103.114 41.407.228z"/><path fill="url(#c)" d="m158.186 277.232-3.868-89.753c-4.436 0-7.849 0-13.195-.341l-6.257-.341c-5.801-.342-11.375-.91-15.357-1.82-13.65 7.962-24.343 21.727-28.666 38.79-4.664 18.428-.796 36.857 8.873 50.735l16.95 2.389c15.129 0 33.102.114 41.52.227z"/><path fill="url(#d)" d="M48.64 274.046c0-6.484 6.485-7.622 7.395-8.077-1.138-1.593-2.617-3.413-4.437-5.688-4.777.114-10.465.342-13.423.683-9.67 1.137-16.494 13.195 1.934 13.195h8.532z"/><path fill="url(#e)" d="M48.64 274.046c0-6.484 6.485-7.622 7.395-8.077-1.138-1.593-2.617-3.413-4.437-5.688-4.777.114-10.465.342-13.423.683-9.67 1.137-16.494 13.195 1.934 13.195h8.532z"/><path fill="url(#f)" d="M37.829 204.308s6.256 10.238 18.2 27.415c.797.455 1.593.91 2.276 1.365l-2.276-9.214 1.593-5.005 30.6 8.418s.683 1.934 1.82 5.005l.455-2.047 5.802 10.806a77 77 0 0 1 1.706-10.01c2.73-10.807 7.963-20.249 15.016-27.756-8.646 3.185-17.063 6.029-18.315 5.574-2.389-.911-11.261-18.656-12.058-30.714-1.023-14.22 3.527-25.937 16.381-34.696.341-.455.796-.796 1.251-1.137 3.185-2.275 5.347-3.64 7.167-4.664-10.124-2.048-18.2-10.238-19.225-11.376-3.867.569-8.19.683-12.854.228-14.674-1.252-18.315-1.82-31.396-1.82-18.543 0-26.392 7.621-38.905 16.608.569 0 .91 0 .228.569-1.138.91-5.233 5.346-2.958 8.418 1.706 2.161 6.37-2.162 7.053.455.455 1.706-5.005 3.64-2.389 6.597 3.413 3.982 11.717-.568 14.106 10.466 2.047 9.442-.455 10.124 4.209 35.719 1.479 7.963 3.526 15.016 5.915 21.386 3.413.114 6.825.569 10.01 1.251-3.64-12.854-3.298-21.727-3.298-21.727z" opacity=".4"/><path fill="url(#g)" d="M75.712 87.377c-3.64-13.423-10.693-35.605-16.38-34.468-5.916 1.138-11.035 13.423-14.561 24.913-.682-2.048-1.479-4.323-2.73-7.167-4.323-10.01-6.825-15.13-10.693-14.22-4.209 1.024-9.214 10.352-11.603 18.201-3.868 12.514-3.64 15.585-4.095 20.931 0 1.252-.228 2.73-.228 4.21-.341 6.483-.682 14.219-1.934 17.176C10.417 124.12-.732 134.017.293 140.16c.341 1.82 3.299 1.251 4.664 1.251 13.31-9.214 20.248-16.608 38.79-16.495 13.082 0 16.722.569 31.397 1.82 4.664.455 9.1.342 12.854-.227 0 0 2.503-.341 6.029-3.982 4.778-5.119 5.347-9.214 13.992-12.285-15.357-1.82-13.537-14.675-32.193-22.751h-.114z"/><path fill="#ffc635" d="M93.912 122.416c-3.412 3.64-6.143 3.868-6.143 3.868v.227c1.138 1.138 9.215 9.214 19.339 11.262 2.958-1.706 4.891-2.617 8.19-5.46 6.371-5.347 9.556-12.4 9.669-17.064-.568.455-1.365.797-2.275.91-3.64.683-6.142-1.933-6.029-3.64 0-.91.683-1.934 2.048-2.73a46 46 0 0 1-5.119.569h-5.802c-8.759 3.071-9.1 7.053-13.878 12.172z"/><path fill="#200041" d="M116.665 112.631c-.227 1.706 2.616 4.209 6.257 3.527.91-.228 1.592-.455 2.161-.911q0-1.877-.683-3.071c-1.478-2.616-2.957-2.73-5.687-2.389-1.365.797-1.934 1.82-2.048 2.73z"/><path fill="url(#h)" d="M67.525 108.65c1.934 3.868 0 6.825-1.592 7.28-3.3.91-6.484-.682-9.1-5.801-3.3-6.484-.228-9.328 3.526-9.101 2.389 0 4.55 2.275 7.166 7.622"/><path fill="#fff" d="M67.373 113.503c.742-.472.906-1.542.365-2.39-.54-.848-1.579-1.152-2.32-.68-.742.473-.906 1.543-.366 2.391s1.58 1.152 2.321.679"/><path fill="url(#i)" d="M92.095 101.478c3.299 4.209 2.275 6.371 1.137 7.281-2.389 1.706-5.688.568-7.735-2.844-3.072-4.892-3.185-7.167-.683-8.76 2.162-1.25 4.664.91 7.28 4.323Z"/><path fill="#fff" d="M92.371 107.938c.814-.077 1.4-.9 1.312-1.838-.089-.938-.82-1.636-1.633-1.559s-1.4.899-1.311 1.837c.088.939.82 1.637 1.632 1.56"/><path fill="#fe5e0e" d="M56.263 84.192c5.346 0 12.285.341 18.2 2.616.456.228.797.342 1.252.57-3.64-13.424-10.693-35.492-16.267-34.469-5.915 1.138-11.148 13.31-14.675 24.799.91 2.844 1.82 5.005 3.3 6.94 0 0 3.526-.456 8.303-.456z"/><path fill="url(#j)" d="M19.744 112.058c.683-.455 8.76-8.645 16.608-16.722 1.48-1.593 12.855-3.413 14.561-4.55.683-2.617-3.185-.455-2.389-3.413.455-1.706-4.322-7.85-3.754-9.555-.682-2.048-1.365-4.323-2.616-7.167-4.323-10.01-6.825-15.13-10.693-14.22-4.21 1.024-9.214 10.352-11.603 18.201-3.868 12.513-3.64 15.585-4.095 20.931 0 1.252-.228 2.73-.228 4.21 2.162 6.938 3.982 12.399 4.323 12.171h-.114z"/><path fill="url(#k)" d="M62.062 265.739c-3.412-3.981-8.076-10.693-13.764-21.613-11.262-21.5-10.465-39.587-10.465-39.587s8.986 14.788 26.277 38.904c4.095 5.688 8.645 15.357 11.262 22.069z" opacity=".6"/><path fill="url(#l)" d="M408.108 133.785c-1.365-5.802-4.777-12.058-4.777-12.058s0 1.82-.342 4.436c-.341 3.185-.682 4.55-.682 4.55s-1.82-6.029-2.73-8.304c-9.442-23.092-19.68-35.947-32.193-51.303-22.296-27.415 2.161-45.389 2.161-45.389s-45.957-2.161-56.308 46.981c-4.664 21.955 0 39.018.568 54.034.342 7.621-.455 14.788-3.981 21.727-9.442 18.883-29.121 24.571-42.658 22.41-15.585-2.503-18.201-5.119-22.41-19.452-3.754-12.741-3.071-12.172-7.167-19.225-2.047-6.37-12.171-11.148-12.968-1.365-5.005 61.428-8.873 109.319-5.801 112.845 18.656 21.614 51.417 30.828 83.951 27.756 18.087-1.706 36.061-7.28 51.645-16.608 41.748-25.253 56.081-58.356 56.081-103.745 0-45.388-.682-10.351-2.389-17.29"/><path fill="url(#m)" d="M373.639 211.933c13.537-28.553 16.722-52.782 16.722-52.782s-3.071 5.574-5.46 9.555c-2.503 3.981-5.46 8.19-5.46 8.19.341 1.934 2.161-10.124 2.73-23.433.341-9.669-1.479-20.135-1.479-20.135s-3.185 13.878-7.28 24.116c-8.304 20.59-15.016 33.558-30.032 46.071-9.1 7.622-21.386 10.807-14.788 21.5s31.852 11.489 45.047-12.968z"/><path fill="url(#n)" d="M282.291 303.393c0 2.844-.796 5.119-2.161 6.711-1.82.569-4.095.456-6.598-.227L148.97 272.11c-3.526-1.024-5.915-4.095-5.915-7.621V57.796c0-3.527 2.389-6.598 5.801-7.622l125.813-39.815c2.617-.796 4.778-.91 6.484-.568.797 1.251 1.252 3.071 1.252 5.574v288.028z"/><path fill="url(#o)" d="m273.647 309.878-124.562-37.766c-3.526-1.024-5.915-4.096-5.915-7.622V57.797c0-3.527 2.389-6.598 5.802-7.622l125.699-39.814c2.616-.796 4.778-.91 6.484-.569-1.593-2.73-4.891-3.185-9.783-1.82l-125.699 40.27c-3.413 1.023-5.802 4.208-5.802 7.735V265.74c0 3.64 2.389 6.826 5.915 7.736l124.562 38.335c4.323 1.251 7.736.569 9.783-1.82-1.82.569-4.095.455-6.598-.228h.114v.114Z"/><path fill="url(#p)" d="m289.687 304.425-1.365-288.824c0-6.37-.91-10.01-2.73-12.172-.114 0-.228-.341-.455-.455-1.593-1.479-3.64-2.161-6.484-2.503-2.048-.227-4.551 0-7.736 1.024L146.583 42.561c-8.759 2.502-12.058 7.735-12.058 16.835l-.341 202.94c0 9.1 2.502 14.788 11.261 17.29l130.933 42.317h3.071-3.526c3.298-.113 6.37-1.706 8.645-4.095 3.071-3.299 5.005-8.076 5.005-13.082v-.341zm-19.338 7.508-124.562-38.336c-3.527-1.023-5.916-4.095-5.916-7.735V56.097c0-3.64 2.389-6.711 5.802-7.735l125.699-40.27c4.778-1.364 8.077-.91 9.783 1.82.797 1.252 1.252 3.072 1.252 5.575v288.028c0 2.844-.797 5.119-2.162 6.712-2.047 2.388-5.574 3.071-9.783 1.82h-.113z"/><path fill="url(#q)" d="M297.763 19.121c0-13.878-.569-16.608-10.579-18.2-2.958-.456-8.646-.57-8.646-.57 2.73.342 4.892 1.024 6.484 2.503.114 0 .342.341.455.455 1.82 2.162 2.73 5.915 2.73 12.172l1.365 288.824c0 5.006-1.933 9.783-5.005 13.082-2.275 2.389-5.232 3.982-8.645 4.095h3.526c1.934 0 4.323 0 5.461-.341 9.669-2.502 14.105-6.825 14.105-16.949L297.649 18.78v.341z"/><path fill="url(#r)" d="M227.574 274.046c0-6.484-6.484-7.622-7.394-8.077 0 0-.114 0-.114-.114 1.024-1.479 2.617-3.299 4.437-5.574 4.778.114 10.465.342 13.423.683 9.555 1.137 16.381 13.195-1.934 13.195h-8.532.114z"/><path fill="url(#s)" d="M227.574 274.046c0-6.484-6.484-7.622-7.394-8.077 0 0-.114 0-.114-.114 1.024-1.479 2.617-3.299 4.437-5.574 4.778.114 10.465.342 13.423.683 9.555 1.137 16.381 13.195-1.934 13.195h-8.532.114z"/><path fill="url(#t)" d="M238.27 204.543s-6.256 10.238-18.201 27.415l-2.388 1.365 2.275-9.214-1.593-5.006-30.6 8.418s-.683 1.934-1.82 5.005l-.455-2.047-5.802 10.807a77 77 0 0 0-1.706-10.011c-2.73-10.807-7.963-20.248-14.902-27.756 8.646 3.185 17.063 6.029 18.315 5.574 2.389-.91 11.261-18.656 12.058-30.714 1.024-14.219-3.527-25.936-16.381-34.695-.341-.455-.796-.797-1.251-1.138-3.185-2.275-5.347-3.64-7.167-4.664 10.124-2.047 18.201-10.238 19.225-11.375 3.867.568 8.19.682 12.854.227 14.675-1.251 18.315-1.82 31.397-1.82 18.542 0 26.277 7.508 38.79 16.495-.569 0-.796 0-.114.682 1.138.91 5.233 5.347 2.958 8.418-1.706 2.161-6.37-2.161-7.053.455-.455 1.706 5.005 3.64 2.389 6.598-3.413 3.981-11.717-.569-14.106 10.465-2.047 9.442.455 10.124-4.209 35.719-1.478 7.963-3.526 15.016-5.915 21.386a57.3 57.3 0 0 0-10.01 1.252c3.64-12.855 3.299-21.728 3.299-21.728z" opacity=".4"/><path fill="url(#u)" d="M200.388 87.377c3.64-13.423 10.693-35.605 16.38-34.468 5.916 1.138 10.921 13.423 14.561 24.913.683-2.048 1.479-4.323 2.73-7.167 4.323-10.01 6.825-15.13 10.693-14.22 4.209 1.024 9.214 10.352 11.603 18.201 3.868 12.514 3.64 15.585 4.095 20.931 0 1.252.228 2.73.228 4.21.341 6.483.682 14.219 1.934 17.176 3.185 7.053 14.219 17.064 13.195 23.093-.341 1.82-3.299 1.251-4.664 1.251-12.399-9.1-20.248-16.608-38.79-16.494-13.082 0-16.722.568-31.397 1.82-4.664.455-9.1.341-12.854-.228h.114s-2.503-.341-6.029-3.981c-4.778-5.119-5.233-9.101-13.878-12.172 15.357-1.82 13.423-14.788 32.079-22.865"/><path fill="#ffc635" d="M182.302 122.416c3.412 3.64 6.029 3.868 6.029 3.868h-.114c-1.024 1.251-9.1 9.441-19.225 11.489-2.957-1.706-4.891-2.617-8.19-5.46-6.37-5.347-9.555-12.4-9.669-17.064.569.455 1.365.797 2.275.91 3.64.683 6.143-1.933 6.029-3.64 0-.91-.683-1.934-2.048-2.73 1.365.228 2.958.455 5.119.569h5.802c8.759 3.071 9.1 7.053 13.878 12.172z"/><path fill="#200041" d="M159.437 112.517c.114 1.707-2.389 4.323-6.029 3.641-.91-.228-1.706-.569-2.275-.911q0-1.877.682-3.071c1.479-2.616 2.958-2.73 5.688-2.389 1.365.797 1.934 1.82 2.048 2.73z"/><path fill="url(#v)" d="M208.575 108.65c-1.933 3.868 0 6.825 1.593 7.28 3.299.91 6.484-.682 9.1-5.801 3.299-6.484.228-9.328-3.526-9.101-2.389 0-4.55 2.275-7.167 7.622"/><path fill="url(#w)" d="M271.712 142.092c-.682-.568-.455-.682.114-.682-12.513-9.101-20.362-16.608-39.018-16.495-13.196 0-16.836.569-31.624 1.82-4.664.455-9.1.342-12.968-.227-1.024 1.137-9.1 9.328-19.338 11.375 1.82 1.024 3.981 2.389 7.166 4.664.455.342.91.683 1.251 1.138 7.85 9.1-6.484 37.084-17.973 40.724-3.526 1.138-9.555 1.82-16.381 2.389v77.809a7.89 7.89 0 0 0 5.916 7.621l14.56 4.323 54.375-7.735s2.617-2.844 2.617-2.958c1.023-1.479 2.616-3.299 4.436-5.574 5.688-7.053 14.333-18.428 20.704-35.15 2.388-6.371 4.436-13.423 5.915-21.386 4.664-25.595 2.161-26.164 4.209-35.719 2.389-11.035 10.807-6.484 14.219-10.466 2.503-2.958-2.957-4.891-2.389-6.598.797-2.616 5.461 1.707 7.053-.455 2.275-2.957-1.82-7.394-2.957-8.304h-.114.227z"/><path fill="#fff" d="M211.184 112.754c.54-.847.376-1.918-.365-2.39-.742-.473-1.781-.169-2.322.679-.54.848-.376 1.918.366 2.391.742.472 1.781.168 2.321-.68"/><path fill="url(#x)" d="M184.119 101.478c-3.298 4.209-2.275 6.371-1.137 7.281 2.389 1.706 5.688.568 7.735-2.844 3.072-4.892 3.299-7.167.683-8.76-2.162-1.25-4.664.91-7.281 4.323"/><path fill="url(#y)" d="M184.119 101.478c-3.298 4.209-2.275 6.371-1.137 7.281 2.389 1.706 5.688.568 7.735-2.844 3.072-4.892 3.299-7.167.683-8.76-2.162-1.25-4.664.91-7.281 4.323"/><path fill="#fff" d="M185.214 106.119c.089-.939-.498-1.761-1.311-1.838s-1.544.621-1.633 1.559c-.089.939.499 1.761 1.312 1.838s1.544-.621 1.632-1.559"/><path fill="#fe5e0e" d="M219.953 84.192c-5.347 0-12.286.341-18.201 2.616-.455.228-.91.342-1.365.57 3.64-13.424 10.693-35.606 16.38-34.469 5.916 1.138 10.921 13.423 14.561 24.913-.91 2.843-1.706 4.891-3.185 6.825 0 0-3.526-.455-8.304-.455z"/><path fill="url(#z)" d="M256.356 112.058c-.683-.455-8.76-8.645-16.609-16.722-1.478-1.593-12.854-3.413-14.56-4.55-.683-2.617 3.185-.455 2.389-3.413-.455-1.706 4.208-7.85 3.64-9.555.682-2.048 1.479-4.323 2.73-7.167 4.323-10.01 6.825-15.13 10.693-14.22 4.209 1.024 9.214 10.352 11.603 18.201 3.868 12.513 3.64 15.585 4.095 20.931 0 1.252.228 2.73.228 4.21-2.162 6.938-3.982 12.399-4.323 12.171h.114z"/><path fill="url(#A)" d="M143.172 264.378v-77.695s2.958-.227 4.778-.455c4.777-.455 12.058-.682 16.835-5.119 14.561 6.143 32.421 19.339 38.905 35.72 6.939 17.745 5.574 36.515-2.162 51.531l-26.96 11.375-20.476-6.029s-4.55-.796-7.621-2.844c-2.275-1.479-3.299-3.64-3.299-6.598z"/><path fill="url(#B)" d="M214.04 265.739c3.412-3.981 8.076-10.693 13.764-21.613 11.262-21.5 10.466-39.587 10.466-39.587s-8.987 14.788-26.278 38.904c-4.095 5.688-8.645 15.357-11.262 22.069z" opacity=".6"/><path fill="url(#C)" d="m172.745 237.647 4.322 8.987 2.844-5.46 5.802-10.807.455 2.047 1.706 8.76 13.309-17.291-4.322 19.793 14.105-14.105-16.039 30.145c-.683 1.479-.797 2.502-.342 3.299.683 1.365 2.844 1.933 5.574 2.047h.683c2.844 0 8.418.228 13.423.455 2.161 0 4.209.228 5.915.341.91.455 7.281 1.707 7.394 8.077v1.251c-.455 4.096-4.663 4.551-20.362 4.551h-32.534s-13.878-3.754-14.674-4.437c1.934-11.148 12.627-37.767 12.627-37.767h.114z"/><path fill="url(#D)" d="m103.471 237.647-4.323 8.987-2.844-5.46-5.802-10.807-.454 2.047-1.707 8.76-13.31-17.291 4.323 19.793-14.105-14.105 16.04 30.145c.682 1.479.796 2.502.34 3.299-.682 1.365-2.843 1.933-5.573 2.047h-.683c-2.844 0-8.304.228-13.423.455-2.161 0-4.209.228-5.915.341-.91.455-7.28 1.707-7.394 8.077v1.251c.455 4.096 4.664 4.551 20.362 4.551h44.364c4.323 0 3.299-1.479 3.299-2.389-1.934-11.148-13.195-39.928-13.195-39.928z"/></g><defs><linearGradient id="b" x1="79.919" x2="79.919" y1="102.502" y2="270.974" gradientUnits="userSpaceOnUse"><stop stop-color="#f60"/><stop offset=".2" stop-color="#ffc635"/><stop offset=".4" stop-color="#ffa824"/><stop offset=".7" stop-color="#f60"/><stop offset="1" stop-color="#fb2872"/></linearGradient><linearGradient id="c" x1="105.781" x2="302.314" y1="199.764" y2="306.24" gradientUnits="userSpaceOnUse"><stop stop-color="#fb2872" stop-opacity="0"/><stop offset=".47" stop-color="#b10047"/></linearGradient><linearGradient id="d" x1="43.066" x2="4.276" y1="267.562" y2="275.524" gradientUnits="userSpaceOnUse"><stop stop-color="#be0449"/><stop offset=".3" stop-color="#cc1747"/><stop offset=".7" stop-color="#e23444"/><stop offset="1" stop-color="#eb4043"/></linearGradient><linearGradient id="f" x1="69.225" x2="43.289" y1="108.299" y2="255.157" gradientUnits="userSpaceOnUse"><stop stop-color="#ffe344" stop-opacity=".9"/><stop offset=".2" stop-color="#ffbe30" stop-opacity=".7"/><stop offset=".5" stop-color="#ff9e1f" stop-opacity=".4"/><stop offset=".6" stop-color="#ff8611" stop-opacity=".2"/><stop offset=".8" stop-color="#ff7408" stop-opacity=".1"/><stop offset=".9" stop-color="#ff6902" stop-opacity="0"/><stop offset="1" stop-color="#f60" stop-opacity="0"/></linearGradient><linearGradient id="g" x1="55.919" x2="-31.331" y1="132.31" y2="-223.288" gradientUnits="userSpaceOnUse"><stop stop-color="#ff9c00"/><stop offset=".2" stop-color="#f60"/><stop offset=".6" stop-color="#f60"/><stop offset="1" stop-color="#fb2872"/></linearGradient><linearGradient id="h" x1="54.671" x2="65.364" y1="99.436" y2="113.314" gradientUnits="userSpaceOnUse"><stop stop-color="#a02fb9"/><stop offset=".9" stop-color="#00073b"/></linearGradient><linearGradient id="i" x1="81.813" x2="94.327" y1="80" y2="109.543" gradientUnits="userSpaceOnUse"><stop offset=".4" stop-color="#a02fb9"/><stop offset=".9" stop-color="#00073b"/></linearGradient><linearGradient id="j" x1="38.514" x2="-3.803" y1="104.55" y2="27.197" gradientUnits="userSpaceOnUse"><stop stop-color="#f60" stop-opacity="0"/><stop offset=".2" stop-color="#f60" stop-opacity=".2"/><stop offset=".3" stop-color="#f60" stop-opacity=".9"/><stop offset=".4" stop-color="#f60"/><stop offset=".7" stop-color="#fd4737"/><stop offset="1" stop-color="#fb2872"/></linearGradient><linearGradient id="k" x1="62.802" x2="49.57" y1="212.653" y2="260.625" gradientUnits="userSpaceOnUse"><stop stop-color="#ffd300"/><stop offset=".2" stop-color="#ffcd00" stop-opacity=".8"/><stop offset=".4" stop-color="#ffc200" stop-opacity=".7"/><stop offset=".7" stop-color="#ffb400" stop-opacity=".4"/><stop offset=".9" stop-color="#ffa200" stop-opacity="0"/><stop offset="1" stop-color="#ff9e00" stop-opacity="0"/></linearGradient><linearGradient id="l" x1="368.863" x2="254.084" y1="57" y2="282.463" gradientUnits="userSpaceOnUse"><stop stop-color="#ffeb49"/><stop offset=".3" stop-color="#ff9b1d"/><stop offset=".6" stop-color="#f60"/><stop offset=".7" stop-color="#fd4835"/><stop offset=".9" stop-color="#fb3161"/><stop offset="1" stop-color="#fb2872"/></linearGradient><linearGradient id="m" x1="395.025" x2="339.513" y1="127.299" y2="235.822" gradientUnits="userSpaceOnUse"><stop stop-color="#ffeb49" stop-opacity=".6"/><stop offset=".3" stop-color="#ffe143" stop-opacity=".6"/><stop offset=".6" stop-color="#ff9e1f" stop-opacity=".3"/><stop offset=".8" stop-color="#f60" stop-opacity="0"/><stop offset="1" stop-color="#f60" stop-opacity="0"/></linearGradient><linearGradient id="n" x1="143.055" x2="282.405" y1="160.061" y2="160.061" gradientUnits="userSpaceOnUse"><stop stop-color="#e7e4ff"/><stop offset="1" stop-color="#fff"/></linearGradient><linearGradient id="o" x1="233.378" x2="185.259" y1="350.83" y2="-97.479" gradientUnits="userSpaceOnUse"><stop stop-color="#6f2eff"/><stop offset=".3" stop-color="#4f25ff"/><stop offset=".6" stop-color="#391fff"/><stop offset=".8" stop-color="#2b1bff"/><stop offset="1" stop-color="#271aff"/></linearGradient><linearGradient id="p" x1="-117185" x2="108070" y1="-12854" y2="12105.1" gradientUnits="userSpaceOnUse"><stop stop-color="#d674e6"/><stop offset=".3" stop-color="#e752ff"/><stop offset=".4" stop-color="#c849ff"/><stop offset=".5" stop-color="#973aff"/><stop offset=".6" stop-color="#6f2fff"/><stop offset=".7" stop-color="#4f25ff"/><stop offset=".8" stop-color="#391fff"/><stop offset=".9" stop-color="#2b1bff"/><stop offset="1" stop-color="#271aff"/></linearGradient><linearGradient id="q" x1="45.681" x2="457.816" y1="135.038" y2="180.767" gradientUnits="userSpaceOnUse"><stop stop-color="#d674e6"/><stop offset=".3" stop-color="#e752ff"/><stop offset=".4" stop-color="#c849ff"/><stop offset=".5" stop-color="#973aff"/><stop offset=".6" stop-color="#6f2fff"/><stop offset=".7" stop-color="#4f25ff"/><stop offset=".8" stop-color="#391fff"/><stop offset=".9" stop-color="#2b1bff"/><stop offset="1" stop-color="#271aff"/></linearGradient><linearGradient id="r" x1="233.034" x2="271.825" y1="267.562" y2="275.524" gradientUnits="userSpaceOnUse"><stop stop-color="#be0449"/><stop offset=".3" stop-color="#cc1747"/><stop offset=".7" stop-color="#e23444"/><stop offset="1" stop-color="#eb4043"/></linearGradient><linearGradient id="t" x1="206.874" x2="232.81" y1="108.533" y2="255.391" gradientUnits="userSpaceOnUse"><stop stop-color="#ffe344" stop-opacity=".9"/><stop offset=".2" stop-color="#ffbe30" stop-opacity=".7"/><stop offset=".5" stop-color="#ff9e1f" stop-opacity=".4"/><stop offset=".6" stop-color="#ff8611" stop-opacity=".2"/><stop offset=".8" stop-color="#ff7408" stop-opacity=".1"/><stop offset=".9" stop-color="#ff6902" stop-opacity="0"/><stop offset="1" stop-color="#f60" stop-opacity="0"/></linearGradient><linearGradient id="u" x1="220.295" x2="307.545" y1="132.197" y2="-223.402" gradientUnits="userSpaceOnUse"><stop stop-color="#ff9c00"/><stop offset=".2" stop-color="#f60"/><stop offset=".6" stop-color="#f60"/><stop offset="1" stop-color="#fb2872"/></linearGradient><linearGradient id="v" x1="207.007" x2="217.7" y1="99.436" y2="113.314" gradientUnits="userSpaceOnUse"><stop stop-color="#a02fb9"/><stop offset=".9" stop-color="#00073b"/></linearGradient><linearGradient id="w" x1="219.271" x2="190.15" y1="78.503" y2="334.907" gradientUnits="userSpaceOnUse"><stop stop-color="#f60"/><stop offset=".2" stop-color="#ffc635"/><stop offset=".4" stop-color="#ffa824"/><stop offset=".7" stop-color="#f60"/><stop offset="1" stop-color="#fb2872"/></linearGradient><linearGradient id="x" x1="-14.832" x2="-21.717" y1="-43.939" y2="-28.742" gradientUnits="userSpaceOnUse"><stop offset=".2" stop-color="#a02fb9"/><stop offset=".9" stop-color="#00073b"/></linearGradient><linearGradient id="y" x1="181.221" x2="190.11" y1="95.468" y2="107.5" gradientUnits="userSpaceOnUse"><stop stop-color="#a02fb9"/><stop offset=".9" stop-color="#00073b"/></linearGradient><linearGradient id="z" x1="241.573" x2="265.805" y1="97.043" y2="53.41" gradientUnits="userSpaceOnUse"><stop stop-color="#f60" stop-opacity="0"/><stop offset=".2" stop-color="#f60" stop-opacity=".2"/><stop offset=".3" stop-color="#f60" stop-opacity=".9"/><stop offset=".4" stop-color="#f60"/><stop offset=".7" stop-color="#fd4737"/><stop offset="1" stop-color="#fb2872"/></linearGradient><linearGradient id="A" x1="200.846" x2="59.789" y1="211.027" y2="292.589" gradientUnits="userSpaceOnUse"><stop offset=".1" stop-color="#fb2872" stop-opacity="0"/><stop offset=".691" stop-color="#b10047"/></linearGradient><linearGradient id="B" x1="214.821" x2="228.053" y1="218.176" y2="266.148" gradientUnits="userSpaceOnUse"><stop stop-color="#ffd300"/><stop offset=".2" stop-color="#ffcd00" stop-opacity=".8"/><stop offset=".4" stop-color="#ffc200" stop-opacity=".7"/><stop offset=".7" stop-color="#ffb400" stop-opacity=".4"/><stop offset=".9" stop-color="#ffa200" stop-opacity="0"/><stop offset="1" stop-color="#ff9e00" stop-opacity="0"/></linearGradient><linearGradient id="C" x1="198.339" x2="191.855" y1="112.516" y2="346.17" gradientUnits="userSpaceOnUse"><stop offset=".5" stop-color="#d81f60" stop-opacity=".4"/><stop offset=".7" stop-color="#d81f60"/><stop offset=".8" stop-color="#d81f60"/><stop offset=".9" stop-color="#d81f60"/></linearGradient><linearGradient id="D" x1="63.429" x2="82.706" y1="198.174" y2="288.458" gradientUnits="userSpaceOnUse"><stop offset=".409" stop-color="#d81f60" stop-opacity=".1"/><stop offset=".764" stop-color="#d81f60"/></linearGradient><radialGradient id="e" cx="0" cy="0" r="1" gradientTransform="translate(53.532 267.448)scale(40.6106)" gradientUnits="userSpaceOnUse"><stop offset=".2" stop-color="#a8034d"/><stop offset=".4" stop-color="#b30b52" stop-opacity=".8"/><stop offset=".5" stop-color="#c5195a" stop-opacity=".6"/><stop offset=".7" stop-color="#dd2c65" stop-opacity=".4"/><stop offset=".9" stop-color="#ff4774" stop-opacity="0"/></radialGradient><radialGradient id="s" cx="0" cy="0" r="1" gradientTransform="translate(222.568 267.448)scale(-40.6106)" gradientUnits="userSpaceOnUse"><stop offset=".2" stop-color="#a8034d"/><stop offset=".4" stop-color="#b30b52" stop-opacity=".8"/><stop offset=".5" stop-color="#c5195a" stop-opacity=".6"/><stop offset=".7" stop-color="#dd2c65" stop-opacity=".4"/><stop offset=".9" stop-color="#ff4774" stop-opacity="0"/></radialGradient><clipPath id="a"><path fill="#fff" d="M.293.352h410.201v321.586H.293z"/></clipPath></defs></svg>
