<!-- This Source Code Form is subject to the terms of the Mozilla Public
   - License, v. 2.0. If a copy of the MPL was not distributed with this
   - file, You can obtain one at http://mozilla.org/MPL/2.0/. -->
<svg xmlns="http://www.w3.org/2000/svg" width="324" height="307" fill="none" viewBox="0 0 324 307"><g clip-path="url(#a)"><path fill="url(#b)" d="m269.156 270.456-24.082-10.44-1.306.196-8.459 25.671c1.056.283 22.22 8.644 22.22 8.644l5.051 12.356c6.728-.076 15.285-.152 21.872-.185l-8.035-9.526-7.25-26.705z"/><path fill="url(#c)" d="m286.085 268.844-4.388-9.199c-3.037 3.059-14.098 1.698-14.762-2.374-.022-.13-.044-.294-.065-.435l-.534.076c.098 1.611-.479 2.548-1.187 3.342-1.752 1.96-10.048 2.254-12.857.752-.697-.371-1.263-1.002-1.742-1.786l-5.476.795 24.082 10.44 7.25 26.706 8.035 9.526c1.589 0 3.07-.011 4.376-.011l1.699-26.684 11.496-7.076-15.927-4.061z"/><path fill="url(#d)" d="m286.085 268.844-4.388-9.199c-3.037 3.059-14.098 1.698-14.762-2.374-.022-.13-.044-.294-.065-.435l-.534.076c.098 1.611-.479 2.548-1.187 3.342-1.752 1.96-10.048 2.254-12.857.752-.697-.371-1.263-1.002-1.742-1.786l-5.476.795 24.082 10.44 7.25 26.706 8.035 9.526c1.589 0 3.07-.011 4.376-.011l1.699-26.684 11.496-7.076-15.927-4.061z"/><path fill="url(#e)" d="M288.805 306.658c3.298 0 5.498.022 5.737.088 1.056.283 25.388-.164 25.388-.164l-17.451-33.564-.469-.12-11.496 7.077-1.698 26.683z"/><path fill="url(#f)" d="M288.805 306.658c3.298 0 5.498.022 5.737.088 1.056.283 25.388-.164 25.388-.164l-17.451-33.564-.469-.12-11.496 7.077-1.698 26.683z"/><path fill="url(#g)" d="M288.805 306.658c3.298 0 5.498.022 5.737.088 1.056.283 25.388-.164 25.388-.164l-17.451-33.564-.469-.12-11.496 7.077-1.698 26.683z"/><path fill="url(#h)" d="m235.298 285.867-15.241 7.86-3.397 12.586 35.034.685s4.649-.054 10.865-.119l-5.052-12.357s-21.164-8.372-22.22-8.644z"/><path fill="url(#i)" d="M267.556 185.235c-1.709 21.338-2.253 62.098-.631 72.038.697 4.257 12.727 5.552 15.122 1.949.892-1.34 1.567-3.005.315-6.271-.805-2.101-2.395-3.658-2.34-6.63.359-17.31 9.449-70.024 12.955-91.852-.359 2.395-12.531 11.812-15.111 14.958-7.022 8.568-9.852 8.797-10.321 15.808z"/><path fill="url(#j)" d="M267.556 185.235c-1.709 21.338-2.253 62.098-.631 72.038.697 4.257 12.727 5.552 15.122 1.949.892-1.34 1.567-3.005.315-6.271-.805-2.101-2.395-3.658-2.34-6.63.359-17.31 9.449-70.024 12.955-91.852-.359 2.395-12.531 11.812-15.111 14.958-7.022 8.568-9.852 8.797-10.321 15.808z"/><path fill="url(#k)" d="M194.014 135.657c-7.752 3.136-32.291 8.96-45.736 22.852-30.842 31.865-78.21-7.49-12.585-68.119 6.695-6.195 20.369-22.383 24.201-30.385 5.161-10.789 2.221-18.736 2.221-18.736-.021.109-2.525 6.15-5.944 10.125 3.571-20.315-4.463-42.938-39.051-51.386 5.193 3.331 5.585 11.072 3.059 16.254C105.21 49.989 25.649 54.54 7.457 132.315a8 8 0 0 1-.283-.664c-1.219-3.027-2.536-11.377-2.351-12.182-9.7 17.952-7.817 106.538 71.678 106.516 23.233 0 52.333-12.258 70.58-26.77 14.991-11.922 16.591-13.489 27.053-27.827 1.927-3.68 24.452-37.908 19.88-35.731"/><path fill="url(#l)" d="M194.014 135.657c-7.752 3.136-32.291 8.96-45.736 22.852-30.842 31.865-78.21-7.49-12.585-68.119 6.695-6.195 20.369-22.383 24.201-30.385 5.161-10.789 2.221-18.736 2.221-18.736-.021.109-2.525 6.15-5.944 10.125 3.571-20.315-4.463-42.938-39.051-51.386 5.193 3.331 5.585 11.072 3.059 16.254C105.21 49.989 25.649 54.54 7.457 132.315a8 8 0 0 1-.283-.664c-1.219-3.027-2.536-11.377-2.351-12.182-9.7 17.952-7.817 106.538 71.678 106.516 23.233 0 52.333-12.258 70.58-26.77 14.991-11.922 16.591-13.489 27.053-27.827 1.927-3.68 24.452-37.908 19.88-35.731"/><path fill="url(#m)" d="M323.611 60.145c.054-2.635-3.179-2.94-4.67-3.343-3.865-.293-6.554 1.23-8.612 2.385-7.109 3.984-5.509 14.37-10.179 11.463-4.3-2.678-6.347-3.353-16.243-.914-9.156 2.264-10.038 3.756-16.788.109-13.717-7.414-37.243-9.221-55.566-8.622-1.001 1.186-5.737.936-5.857 4.071-.098 2.678 4.758 2.45 4.779 3.67.033 1.665-3.549 1.48-3.494 3.145.152 4.203 4.431 2.167 16.624 10.985 7.501 5.433 10.604 7.958 9.678 21.665-2.58 29.34-34.435 24.833-65.048 40.51-28.23 12.324-30.973 31.354-35.481 62.457-1.502 10.343-5.976 22.482-8.938 30.941-3.941 11.246-1.001 45.517 1.808 53.182 1.458 3.984 9.515 6.51 15.448 4.126 2.341-.937 3.93-4.616 1.252-7.48-4.235-4.528-4.453-15.165-3.8-20.118.643-4.889 2.929-15.122 4.976-20.435.119-.316.239-.61.359-.904v.055c-.316 10.669 2.058 23.08 2.635 29.307.392 4.203 4.844 17.354 10.005 18.29 5.16.936 12.323.25 12.476-3.495.207-4.931-4.366-4.931-6.837-11.398-.98-2.559-1.698-7.545-.468-21.97 1.252-16.656 15.851-22.22 23.766-34.195 5.323-7.077 8.905-15.307 10.767-20.239 10.68-1.818 26.411-4.409 46.595-8.872 1.426 11.202 3.081 25.605 4.094 39.268.49 6.5 1.056 12.825 1.077 13.043.371 3.995.795 12.28 4.312 14.153 2.808 1.502 11.104 1.208 12.857-.752 1.208-1.35 2.068-3.135-.283-8.056-1.568-3.288-2.624-2.809-2.537-11.867.272-14.958 3.571-52.245 3.93-52.43 50.591-24.321 21.262-72.321 38.039-100.54 4.072-7.11 7.076-11.18 9.95-13.489 3.702-2.983 6.761-3.266 7.316-5.759.719-3.233-4.648-2.286-4.452-3.299.381-1.97 6.456-1.567 6.51-4.648"/><path fill="url(#n)" d="M180.024 207.249c-9.668 14.306-16.461 21.883-21.426 26.335-8.459 7.589-11.627 6.141-14.729 13.489v.033c-.316 10.669 2.057 23.08 2.634 29.307.392 4.202 4.845 17.354 10.005 18.29s12.324.25 12.476-3.495c.207-4.931-4.365-4.931-6.836-11.398-.98-2.559-1.699-7.545-.469-21.97 1.252-16.657 15.852-22.22 23.766-34.195 5.324-7.077 8.906-15.307 10.767-20.239-9.83 1.666-15.383 2.678-16.177 3.843z"/><path fill="url(#o)" d="m242.459 189.814.338 4.714c-13.924 3.081-25.726 5.269-35.219 6.935 14.175-3.941 25.617-7.839 34.881-11.649m49.818-68.206a1.307 1.307 0 0 0-1.807-.109c-2.155 1.84-5.421 8.786-7.708 28.327-.783 6.685-.958 16.004-15.361 26.673-.555 4.006-1.001 6.565-1.132 11.388 22.22-10.68 29.024-25.933 31.082-42.067.054-1.317.109-2.656.152-4.093-.522-13.489-3.658-18.464-5.226-20.13z"/><path fill="url(#p)" d="M266.261 187.876c.261-10.092 1.949-10.244 3.005-34.587 0 0-7.197 23.102-7.926 26.945-1.709-4.997-4.91-14.273-6.804-20.206-2.014 6.793-5.378 20.728-6.521 24.278-4.105-5.542-6.761-11.214-6.761-11.214l1.535 21.425c1.426 11.203 3.081 25.606 4.093 39.269a972 972 0 0 0 1.078 13.042c.37 3.996.795 12.281 4.311 14.153 2.809 1.503 11.105 1.209 12.858-.751 1.208-1.35 2.068-3.135-.283-8.056-1.568-3.288-2.624-2.809-2.537-11.867.272-14.958 3.571-52.245 3.93-52.431z"/><path fill="url(#q)" d="m162.291 222.052-9.972 9.592 4.191-19.608c-5.715 6.424-13.739 17.136-14.055 18.443l.588-18.192-10.723 19.161 2.7-19.651s-2.297 3.418-4.954 8.034c-1.938 6.826-4.376 13.554-6.238 18.835-3.941 11.246-1.001 45.517 1.807 53.182 1.459 3.984 9.515 6.51 15.449 4.126 2.34-.937 3.93-4.616 1.252-7.48-4.235-4.528-4.453-15.165-3.8-20.118.643-4.889 2.929-15.122 4.975-20.435 3.223-8.372 6.293-6.478 15.09-14.36z"/><path fill="url(#r)" d="M44.887 87.153c-1.622 4.474-4.29 11.8-4.159 16.047-1.567.99 13.228-17.343 29.177-27.24-14.643 18.966-27.805 46.684-27.968 61.686-.098 9.732 2.438 21.501-8.242 24.201-8.6 2.177-15.22-7.523-14.348-23.744 1.404-26.161 25.649-50.94 25.54-50.95"/><path fill="url(#s)" d="M323.614 60.145c.055-2.635-3.179-2.94-4.67-3.343-3.865-.293-6.554 1.23-8.612 2.385-7.109 3.984-5.508 14.37-10.179 11.463-4.3-2.678-6.347-3.353-16.243-.914-9.156 2.264-10.038 3.756-16.787.109-13.718-7.414-37.244-9.221-55.567-8.622-1.001 1.186-5.737.936-5.857 4.071-.098 2.678 4.758 2.45 4.78 3.67.032 1.665-3.55 1.48-3.495 3.145.152 4.203 4.431 2.167 16.624 10.985 7.501 5.433 10.604 7.958 9.678 21.665-2.58 29.34-34.435 24.833-65.048 40.51-28.23 12.324-30.973 31.354-35.48 62.457-.566 3.887-1.546 8.024-2.711 12.128v-.022c2.656-4.616 4.953-8.034 4.953-8.034l-2.7 19.651 10.724-19.161-.588 18.192c.316-1.307 8.339-12.008 14.055-18.443l-4.192 19.608 9.973-9.592-3.691 11.529c4.965-4.452 11.758-12.03 21.425-26.335 1.655-2.449 24.028-4.159 62.774-12.726l-1.535-21.426s2.667 5.672 6.76 11.214c1.154-3.56 4.518-17.495 6.522-24.278 1.894 5.933 5.095 15.209 6.804 20.206.729-3.843 7.925-26.945 7.925-26.945-1.056 24.343-2.743 24.496-3.004 34.588 50.591-24.322 21.262-72.321 38.038-100.54 4.072-7.11 7.077-11.18 9.951-13.489 3.701-2.983 6.76-3.266 7.316-5.759.718-3.233-4.649-2.286-4.453-3.299.381-1.97 6.456-1.567 6.51-4.648"/><path fill="url(#t)" d="M320.268 53.021c-1.372-3.168-8.894-1.502-13.674-5.225-1.339-1.046-2.395-3.484-3.233-6.086-.915-2.852-1.524-3.375-2.657-7.566-1.785-6.554-2.046-8.46-4.822-16.831-2.319-6.968-4.943-14.12-8.764-14.84-3.538-.663-6.761 4.247-11.431 12.815-2.602 4.779-4.061 8.655-5.923 11.681v.011c-.109.185-.218.37-.326.544-.12.174-3.005.468-5.215.871-.849.153-1.274-.294-2.036-1.295l-.109-.142a182 182 0 0 1-8.513-12.313c-4.801-7.588-7.295-10.952-11.279-9.961-3.364.838-7.273 10.136-10.179 19.498-2.112 6.815-2.025 7.588-2.744 10.125-.468 1.665-.98 3.593-1.567 5.574-.066.218-.131.446-.196.664-1.383 4.561-4.061 9.177-6.587 11.333-4.757 4.06-10.103 2.559-11.29 5.803-1.154 3.168 1.34 2.82 1.862 3.124.098.055.142.13.065.262-.032.054-.076.098-.119.152 18.322-.599 41.849 1.208 55.566 8.622 6.75 3.647 7.632 2.156 16.787-.108 9.896-2.45 11.943-1.764 16.243.914 4.682 2.907 3.071-7.48 10.18-11.464 2.057-1.154 4.746-2.678 8.611-2.384a5 5 0 0 0-.185-.12c-1.143-.882 2.384-1.611 1.502-3.658z"/><path fill="url(#u)" d="M303.362 41.71c-.914-2.852-1.524-3.375-2.656-7.566-1.786-6.554-2.047-8.46-4.823-16.831-2.319-6.968-4.943-14.12-8.764-14.84-3.538-.663-6.761 4.247-11.431 12.815-2.602 4.779-4.061 8.655-5.922 11.681v.011c3.059.087 9.482.806 16.373 4.845 7.131 4.17 14.447 8.372 17.234 9.874l-.011.01Z"/><path fill="url(#v)" d="M262.079 26.96a182 182 0 0 1-8.513-12.314c-4.801-7.588-7.294-10.952-11.279-9.961-3.364.838-7.272 10.136-10.179 19.498-2.112 6.815-2.025 7.588-2.743 10.125-.469 1.666-.98 3.593-1.568 5.574 3.647-1.97 9.308-5.117 14.86-8.241 6.859-3.865 15.111-4.584 19.412-4.67l.01-.012Z"/><path fill="url(#w)" d="M270.519 56.93c.315 3.853-2.341 5.475-3.985 5.388-3.157-.163-5.128-.631-5.563-5.683-.555-6.434 1.448-8.578 4.79-8.371 3.495.228 4.333 3.407 4.769 8.665h-.011Z"/><path fill="#fff" d="M266.41 58.813c.054.85.762 1.557 1.578 1.59.817.032 1.437-.643 1.383-1.492-.055-.85-.762-1.557-1.579-1.59-.816-.032-1.437.643-1.382 1.492"/><path fill="url(#x)" d="M299.288 54.407c.588 5.16-1.992 6.064-3.636 5.977-3.135-.163-5.019-.74-5.465-4.507-.719-6.02.185-9.602 4.507-9.123 2.722.305 4.126 3.473 4.594 7.653"/><path fill="#fff" d="M295.39 56.939c.054.87.784 1.6 1.622 1.622s1.481-.653 1.426-1.524c-.054-.871-.784-1.6-1.622-1.622s-1.48.653-1.426 1.524"/><path fill="#ffc635" d="M300.228 63.489c-7.326-1.361-15.862 7.838-24.734 8.513-7.077.544-.381 14.806 12.824 16.646s20.489-8.089 20.402-16.102c-.043-3.777-2.34-7.914-8.492-9.057"/><path fill="#00073a" d="M299.171 65.385c2.809.066 4.311 1.296 4.725 2.428.511 1.394-.773 4.235-4.224 4.159-3.288-.076-5.106-2.809-4.638-4.322.337-1.078 1.644-2.33 4.137-2.265"/></g><defs><linearGradient id="b" x1="275.23" x2="246.816" y1="342.592" y2="256.946" gradientUnits="userSpaceOnUse"><stop stop-color="#271aff"/><stop offset=".02" stop-color="#2a1bff"/><stop offset=".7" stop-color="#b142ff"/><stop offset="1" stop-color="#e752ff"/></linearGradient><linearGradient id="c" x1="296.46" x2="268.045" y1="335.548" y2="249.912" gradientUnits="userSpaceOnUse"><stop stop-color="#271aff"/><stop offset=".02" stop-color="#2a1bff"/><stop offset=".7" stop-color="#b142ff"/><stop offset="1" stop-color="#e752ff"/></linearGradient><linearGradient id="d" x1="286.782" x2="265.226" y1="306.393" y2="241.398" gradientUnits="userSpaceOnUse"><stop stop-color="#271aff"/><stop offset=".02" stop-color="#2a1bff"/><stop offset=".7" stop-color="#b142ff"/><stop offset="1" stop-color="#e752ff"/></linearGradient><linearGradient id="e" x1="312.233" x2="283.819" y1="330.305" y2="244.669" gradientUnits="userSpaceOnUse"><stop stop-color="#271aff"/><stop offset=".02" stop-color="#2a1bff"/><stop offset=".7" stop-color="#b142ff"/><stop offset="1" stop-color="#e752ff"/></linearGradient><linearGradient id="f" x1="302.555" x2="280.999" y1="301.15" y2="236.155" gradientUnits="userSpaceOnUse"><stop stop-color="#271aff"/><stop offset=".02" stop-color="#2a1bff"/><stop offset=".7" stop-color="#b142ff"/><stop offset="1" stop-color="#e752ff"/></linearGradient><linearGradient id="g" x1="266.258" x2="344.458" y1="357.326" y2="228.785" gradientUnits="userSpaceOnUse"><stop stop-color="#271aff"/><stop offset=".02" stop-color="#2a1bff"/><stop offset=".7" stop-color="#b142ff"/><stop offset="1" stop-color="#e752ff"/></linearGradient><linearGradient id="h" x1="273.751" x2="206.514" y1="322.458" y2="282.035" gradientUnits="userSpaceOnUse"><stop stop-color="#271aff"/><stop offset=".02" stop-color="#2a1bff"/><stop offset=".7" stop-color="#b142ff"/><stop offset="1" stop-color="#e752ff"/></linearGradient><linearGradient id="i" x1="277.256" x2="280.468" y1="259.232" y2="155.743" gradientUnits="userSpaceOnUse"><stop offset=".01" stop-color="#be0449"/><stop offset=".27" stop-color="#cc1747"/><stop offset=".73" stop-color="#e23444"/><stop offset="1" stop-color="#eb4043"/></linearGradient><linearGradient id="j" x1="279.467" x2="279.467" y1="156.57" y2="279.188" gradientUnits="userSpaceOnUse"><stop stop-color="#be0449" stop-opacity="0"/><stop offset=".05" stop-color="#bf054a" stop-opacity=".07"/><stop offset=".16" stop-color="#c40b4f" stop-opacity=".26"/><stop offset=".31" stop-color="#cc1356" stop-opacity=".57"/><stop offset=".49" stop-color="#d81f60"/><stop offset=".54" stop-color="#ce1f5c"/><stop offset=".63" stop-color="#b51f53"/><stop offset=".75" stop-color="#8c1f45"/><stop offset=".88" stop-color="#531f31"/><stop offset="1" stop-color="#1c1f1e"/></linearGradient><linearGradient id="k" x1="87.944" x2="103.479" y1="2.044" y2="224.265" gradientUnits="userSpaceOnUse"><stop stop-color="#ffeb49"/><stop offset=".33" stop-color="#ff9b1d"/><stop offset=".57" stop-color="#f60"/><stop offset=".7" stop-color="#fd4f29"/><stop offset=".88" stop-color="#fb355a"/><stop offset=".97" stop-color="#fb2b6d"/><stop offset="1" stop-color="#fb2872"/></linearGradient><linearGradient id="l" x1="28.556" x2="178.696" y1="78.36" y2="165.041" gradientUnits="userSpaceOnUse"><stop offset=".78" stop-color="#be0449" stop-opacity="0"/><stop offset="1" stop-color="#1c1f1e" stop-opacity=".5"/></linearGradient><linearGradient id="m" x1="222.767" x2="222.767" y1="41.365" y2="259.254" gradientUnits="userSpaceOnUse"><stop stop-color="#ff6700"/><stop offset=".12" stop-color="#ff9b1d"/><stop offset=".18" stop-color="#ffb029"/><stop offset=".35" stop-color="#ff9218"/><stop offset=".61" stop-color="#f60"/><stop offset=".67" stop-color="#fe5f0b"/><stop offset=".77" stop-color="#fd4f29"/><stop offset=".91" stop-color="#fb3559"/><stop offset=".97" stop-color="#fb2872"/></linearGradient><linearGradient id="n" x1="170.019" x2="170.019" y1="210.254" y2="324.914" gradientUnits="userSpaceOnUse"><stop offset=".29" stop-color="#d81f60"/><stop offset=".37" stop-color="#ce1f5c"/><stop offset=".49" stop-color="#b51f53"/><stop offset=".64" stop-color="#8c1f45"/><stop offset=".83" stop-color="#531f31"/><stop offset=".99" stop-color="#1c1f1e"/></linearGradient><linearGradient id="o" x1="197.976" x2="259.998" y1="204.446" y2="166.244" gradientUnits="userSpaceOnUse"><stop stop-color="#f60"/><stop offset=".23" stop-color="#ff7106"/><stop offset=".63" stop-color="#ff8f16"/><stop offset="1" stop-color="#ffb029"/></linearGradient><linearGradient id="p" x1="255.265" x2="255.265" y1="98.626" y2="368.913" gradientUnits="userSpaceOnUse"><stop offset=".22" stop-color="#be0449" stop-opacity="0"/><stop offset=".49" stop-color="#d81f60"/><stop offset=".53" stop-color="#b41f53"/><stop offset=".58" stop-color="#8c1f45"/><stop offset=".63" stop-color="#691f39"/><stop offset=".69" stop-color="#4d1f2f"/><stop offset=".75" stop-color="#371f27"/><stop offset=".81" stop-color="#271f22"/><stop offset=".89" stop-color="#1e1f1e"/><stop offset="1" stop-color="#1c1f1e"/></linearGradient><linearGradient id="q" x1="142.107" x2="142.107" y1="200.42" y2="342.928" gradientUnits="userSpaceOnUse"><stop offset=".02" stop-color="#be0449" stop-opacity="0"/><stop offset=".49" stop-color="#d61f5f"/><stop offset=".63" stop-color="#941f48"/><stop offset=".75" stop-color="#601f36"/><stop offset=".86" stop-color="#3b1f28"/><stop offset=".95" stop-color="#241f20"/><stop offset="1" stop-color="#1c1f1e"/></linearGradient><linearGradient id="r" x1="67.296" x2="30.763" y1="73.25" y2="139.735" gradientUnits="userSpaceOnUse"><stop stop-color="#ffeb49"/><stop offset=".09" stop-color="#ffe545" stop-opacity=".96"/><stop offset=".24" stop-color="#ffd63d" stop-opacity=".84"/><stop offset=".44" stop-color="#ffbd2f" stop-opacity=".66"/><stop offset=".67" stop-color="#ff9a1c" stop-opacity=".4"/><stop offset=".94" stop-color="#ff6f05" stop-opacity=".07"/><stop offset="1" stop-color="#f60" stop-opacity="0"/></linearGradient><linearGradient id="s" x1="226.841" x2="226.841" y1="39.58" y2="200.008" gradientUnits="userSpaceOnUse"><stop offset=".08" stop-color="#ffeb49"/><stop offset=".29" stop-color="#ffb52b" stop-opacity=".6"/><stop offset=".47" stop-color="#ff8a14" stop-opacity=".28"/><stop offset=".59" stop-color="#ff7005" stop-opacity=".08"/><stop offset=".66" stop-color="#f60" stop-opacity="0"/></linearGradient><linearGradient id="t" x1="264.582" x2="265.649" y1="14.95" y2="144.383" gradientUnits="userSpaceOnUse"><stop stop-color="#f60"/><stop offset=".5" stop-color="#ffb029"/><stop offset=".7" stop-color="#ff7f0e"/><stop offset=".83" stop-color="#f60"/><stop offset=".96" stop-color="#fb2872"/></linearGradient><linearGradient id="u" x1="287.888" x2="296.324" y1="28.867" y2="-6.476" gradientUnits="userSpaceOnUse"><stop stop-color="#f60" stop-opacity="0"/><stop offset=".03" stop-color="#f60" stop-opacity=".17"/><stop offset=".07" stop-color="#f60" stop-opacity=".36"/><stop offset=".11" stop-color="#f60" stop-opacity=".53"/><stop offset=".16" stop-color="#f60" stop-opacity=".68"/><stop offset=".2" stop-color="#f60" stop-opacity=".8"/><stop offset=".25" stop-color="#f60" stop-opacity=".89"/><stop offset=".3" stop-color="#f60" stop-opacity=".95"/><stop offset=".36" stop-color="#f60" stop-opacity=".99"/><stop offset=".43" stop-color="#f60"/><stop offset=".72" stop-color="#fd4737"/><stop offset="1" stop-color="#fb2872"/></linearGradient><linearGradient id="v" x1="242.87" x2="232.628" y1="27.23" y2="-5.192" gradientUnits="userSpaceOnUse"><stop stop-color="#f60" stop-opacity="0"/><stop offset=".03" stop-color="#f60" stop-opacity=".17"/><stop offset=".07" stop-color="#f60" stop-opacity=".36"/><stop offset=".11" stop-color="#f60" stop-opacity=".53"/><stop offset=".16" stop-color="#f60" stop-opacity=".68"/><stop offset=".2" stop-color="#f60" stop-opacity=".8"/><stop offset=".25" stop-color="#f60" stop-opacity=".89"/><stop offset=".3" stop-color="#f60" stop-opacity=".95"/><stop offset=".36" stop-color="#f60" stop-opacity=".99"/><stop offset=".43" stop-color="#f60"/><stop offset=".72" stop-color="#fd4737"/><stop offset="1" stop-color="#fb2872"/></linearGradient><linearGradient id="w" x1="257.382" x2="266.918" y1="43.246" y2="61.349" gradientUnits="userSpaceOnUse"><stop offset=".16" stop-color="#a030b9"/><stop offset=".88" stop-color="#00073a"/></linearGradient><linearGradient id="x" x1="289.965" x2="294.515" y1="42.188" y2="59.378" gradientUnits="userSpaceOnUse"><stop offset=".16" stop-color="#a030b9"/><stop offset=".88" stop-color="#00073a"/></linearGradient><clipPath id="a"><path fill="#fff" d="M.73.016h322.881v306.986H.73z"/></clipPath></defs></svg>
