<!-- This Source Code Form is subject to the terms of the Mozilla Public
   - License, v. 2.0. If a copy of the MPL was not distributed with this
   - file, You can obtain one at http://mozilla.org/MPL/2.0/. -->
<svg xmlns="http://www.w3.org/2000/svg" width="242" height="279" fill="none" viewBox="0 0 242 279"><g clip-path="url(#a)"><path fill="url(#b)" d="M51.625 226.155c-5.342.953 6-2.869 2.438-6.407-11.556-11.25-9.923-8.914-.136-24.202 19.132-29.894-19.529-37.493-37.334-53.2-7.996-7.054-12.26-16.115-12.26-16.115s1.803 1.361 4.174 2.188c1.769.613 2.858.579 2.858.579s-2.155-3.096-2.926-4.423c-2.064-3.539-3.902-7.531-5.399-12.078-7.428-22.625 2.495-44.536 2.495-44.536s6.873 19.813 25.143 27.683c17.08 7.372 57.453 4.174 84.853 35.384 16.274 18.531 25.801 48.959 17.431 74.43-6.918 21.06-46.713 28.976-71.867 34.204-4.57.953-3.64 1.339-5.614-1.19-3.743-5.206-8.245-9.606-12.169-14.585"/><path fill="url(#c)" d="M112.129 145.204c-4.366-7.485-6.975-10.558-16.547-17.998-8.471-6.578-20.64-9.402-20.64-9.402s4.287 4.797 5.546 6.533c1.236 1.712 4.411 7.19 4.411 7.19 1.44.397-6.35-4.582-14.47-8.869-8.45-4.457-19.859-7.916-19.859-7.916s11.058 8.415 18.146 15.265c11.307 10.933 22.432 24.088 24.587 33.501 2.087 9.096 3.708 20.436 14.255 19.903s16.581-18.156 4.548-38.207z"/><path fill="url(#d)" d="m158.591 83.4 82.097-29.713-2.348-3.64-119.193 19.506-54.674 22.875 1.043 4.922z"/><path fill="url(#e)" d="M197.784 171.521s-7.054-42.642 16.467-58.27c3.13-2.086 5.682-2.54 7.473-3.413-10.773-3.108-16.569-15.13-16.569-15.13s.159 0 .454-.022c-3.765-.227-8.007-1.032-12.407-2.393-13.405-4.15-16.739-5.41-28.919-8.052-18.906-4.094-27.593 2.71-43.3 9.209-1.667 1.066-5.307 3.992-3.935 6.895 1.123 2.371 6.351-.737 6.521 1.894.102 1.667-5.387 2.393-3.595 5.682 2.415 4.457 11.114 2.177 9.742 12.917-1.441 11.239-13.462 50.683-13.462 50.683s9.05 5.421 9.492 9.515c1.089 1.769 2.586 4.457 4.23 9.504 2.96 9.061 3.89 15.355 4.185 13.983.329-1.576 0-4.185.284-6.555.567-4.865.567-9.855.567-9.855s2.143 4.502 2.96 9.379c.782 4.717 1.962 9.912 1.962 9.912s.76-6.363 1.406-7.145c10.49 21.808 12.339 43.504 12.566 58.666.09-.079.136-.158.136-.249 0-24.349-.953-66.084-2.711-77.719.318 2.336 2.597 3.39 5.535 15.729 2.2 9.277 2.245 12.419 2.529 11.046.329-1.576.669-9.344.941-11.715.567-4.865.817-11.817.817-11.817s1.894 6.464 2.71 11.341c.783 4.718 2.336 15.208 2.336 15.208s5.353-19.62 6-20.391c1.338 27.207-2.234 54.709-4.094 71.958 6.078-2.268 14.663-1.032 19.336-.521.283.034.556.056.839.09-7.893-5.579-13.246-14.652-12.067-28.363 1.701-19.779 17.08-34.284 34.749-33.978"/><path fill="url(#f)" d="M144.55 268.546c-.85-8.517 8.177-8.529 9.379-9.618-.227-15.174-2.075-36.869-12.566-58.666-.646.782-1.406 7.145-1.406 7.145s-1.179-5.194-1.962-9.912c-.805-4.877-2.96-9.379-2.96-9.379s0 4.99-.567 9.855c-.272 2.37.045 4.979-.284 6.555-.283 1.372-1.213-4.922-4.184-13.983-1.656-5.047-3.142-7.735-4.23-9.504 3.062 28.194 14.641 45.284 15.571 77.708.011.556-8.041.193-8.177 8.165-.057 3.448 3.016 4.616 13.938 6.079-1.327-1.043-2.359-2.472-2.552-4.423z"/><path fill="url(#g)" d="M144.55 268.546c-.85-8.517 8.177-8.529 9.379-9.618-.227-15.174-2.075-36.869-12.566-58.666-.646.782-1.406 7.145-1.406 7.145s-1.179-5.194-1.962-9.912c-.805-4.877-2.96-9.379-2.96-9.379s0 4.99-.567 9.855c-.272 2.37.045 4.979-.284 6.555-.283 1.372-1.213-4.922-4.184-13.983-1.656-5.047-3.142-7.735-4.23-9.504 3.062 28.194 14.641 45.284 15.571 77.708.011.556-8.041.193-8.177 8.165-.057 3.448 3.016 4.616 13.938 6.079-1.327-1.043-2.359-2.472-2.552-4.423z"/><path fill="url(#h)" d="M144.55 268.546c-.85-8.517 8.177-8.529 9.379-9.618-.227-15.174-2.075-36.869-12.566-58.666-.646.782-1.406 7.145-1.406 7.145s-1.179-5.194-1.962-9.912c-.805-4.877-2.96-9.379-2.96-9.379s0 4.99-.567 9.855c-.272 2.37.045 4.979-.284 6.555-.283 1.372-1.213-4.922-4.184-13.983-1.656-5.047-3.142-7.735-4.23-9.504 3.062 28.194 14.641 45.284 15.571 77.708.011.556-8.041.193-8.177 8.165-.057 3.448 3.016 4.616 13.938 6.079-1.327-1.043-2.359-2.472-2.552-4.423z" opacity=".6"/><path fill="url(#i)" d="M165.085 263.912c.896-.669 1.928-1.179 3.04-1.599 1.86-17.25 5.421-44.751 4.094-71.958-.647.782-5.999 20.391-5.999 20.391s-1.554-10.491-2.337-15.208c-.805-4.877-2.71-11.341-2.71-11.341s-.25 6.952-.817 11.817c-.272 2.37-.612 10.139-.941 11.715-.284 1.372-.329-1.769-2.529-11.046-2.937-12.35-5.206-13.394-5.534-15.73 1.757 11.636 2.71 53.37 2.71 77.719 0 .091-.045.171-.136.25.091 6.203-.079 11.307-.045 14.879 3.288.397 6.078.737 8.653 1.055-1.395-2.166-3.153-6.68 2.574-10.944z"/><path fill="url(#j)" d="M165.085 263.912c.896-.669 1.928-1.179 3.04-1.599 1.86-17.25 5.421-44.751 4.094-71.958-.647.782-5.999 20.391-5.999 20.391s-1.554-10.491-2.337-15.208c-.805-4.877-2.71-11.341-2.71-11.341s-.25 6.952-.817 11.817c-.272 2.37-.612 10.139-.941 11.715-.284 1.372-.329-1.769-2.529-11.046-2.937-12.35-5.206-13.394-5.534-15.73 1.757 11.636 2.71 53.37 2.71 77.719 0 .091-.045.171-.136.25.091 6.203-.079 11.307-.045 14.879 3.288.397 6.078.737 8.653 1.055-1.395-2.166-3.153-6.68 2.574-10.944z"/><path fill="url(#k)" d="M165.085 263.912c.896-.669 1.928-1.179 3.04-1.599 1.86-17.25 5.421-44.751 4.094-71.958-.647.782-5.999 20.391-5.999 20.391s-1.554-10.491-2.337-15.208c-.805-4.877-2.71-11.341-2.71-11.341s-.25 6.952-.817 11.817c-.272 2.37-.612 10.139-.941 11.715-.284 1.372-.329-1.769-2.529-11.046-2.937-12.35-5.206-13.394-5.534-15.73 1.757 11.636 2.71 53.37 2.71 77.719 0 .091-.045.171-.136.25.091 6.203-.079 11.307-.045 14.879 3.288.397 6.078.737 8.653 1.055-1.395-2.166-3.153-6.68 2.574-10.944z" opacity=".6"/><path fill="#ffc635" d="M211.549 92.11c-2.96 2.053-5.069 2.484-5.931 2.575-.295.034-.454.022-.454.022s5.795 12.022 16.569 15.129c2.824-1.372 4.571-2.359 8.188-4.264 7.122-3.754 10.831-10.536 11.387-15.151-.67.351-1.509.555-2.518.521-3.493-.113-5.398-3.04-4.877-4.65.25-.793 1.021-1.655 2.337-2.086-1.282-.114-2.847-.227-4.798-.579-1.939-.363-3.595-.816-5.058-1.338-8.914 1.282-9.22 5.92-14.834 9.81z"/><path fill="#200041" d="M233.906 86.302c-.51 1.599 1.384 4.536 4.877 4.65 1.009.034 1.849-.182 2.518-.522.136-1.111.09-2.11-.136-2.892-.817-2.801-2.212-3.073-4.934-3.311-1.315.43-2.086 1.292-2.336 2.086z"/><path fill="url(#l)" d="M189.765 74.29c.351.942-.023 1.985-.84 2.337-.816.34-1.746-.147-2.098-1.089-.351-.94.023-1.984.84-2.336.816-.34 1.746.148 2.098 1.089Z"/><path fill="url(#m)" d="M212.245 77.172c1.52-.295 3.947-1.157 1.474-6.18-2.007-4.084-4.15-5.773-6.248-5.615-3.641.261-4.355 3.142-1.214 9.481.544 1.09 2.529 2.994 5.988 2.314m1.701-3.278c.114 1.021-.476 1.985-1.304 2.144s-1.588-.544-1.701-1.565c-.114-1.02.476-1.985 1.304-2.144.828-.158 1.588.545 1.701 1.565"/><path fill="url(#n)" d="M212.245 77.172c1.52-.295 3.947-1.157 1.474-6.18-2.007-4.084-4.15-5.773-6.248-5.615-3.641.261-4.355 3.142-1.214 9.481.544 1.09 2.529 2.994 5.988 2.314m1.701-3.278c.114 1.021-.476 1.985-1.304 2.144s-1.588-.544-1.701-1.565c-.114-1.02.476-1.985 1.304-2.144.828-.158 1.588.545 1.701 1.565"/><path fill="#fff" d="M212.246 72.327c-.828.159-1.407 1.123-1.305 2.144.114 1.02.874 1.723 1.701 1.564.828-.158 1.407-1.122 1.305-2.143-.114-1.02-.874-1.724-1.701-1.565"/><path fill="url(#o)" d="M197.033 163.628c-3.38-21.616 7.009-45.75 18.145-50.774 2.155-.975 4.435-1.996 6.555-3.016-10.773-3.108-16.569-15.13-16.569-15.13s.159 0 .454-.022c-3.765-.227-8.007-1.032-12.407-2.393-13.405-4.15-16.739-5.41-28.919-8.052-18.906-4.094-27.593 2.71-43.3 9.209-1.667 1.066-5.307 3.992-3.935 6.895 1.123 2.371 6.351-.737 6.521 1.894.102 1.667-5.387 2.393-3.595 5.682 2.415 4.457 11.114 2.177 9.742 12.917-1.441 11.239-12.736 49.696-12.736 49.696s8.324 6.397 8.766 10.491c1.089 1.769 2.586 4.457 4.23 9.503 2.96 9.062 3.89 15.356 4.185 13.984.329-1.577 0-4.185.284-6.555.567-4.866.567-9.856.567-9.856s2.143 4.503 2.96 9.379c.782 4.718 1.962 9.912 1.962 9.912s.76-6.362 1.406-7.145c10.49 21.809 12.339 43.504 12.566 58.667.09-.079.136-.159.136-.249 0-24.349-.953-66.084-2.711-77.72.318 2.336 2.597 3.391 5.535 15.73 2.2 9.277 2.245 12.418 2.529 11.046.329-1.576.669-9.345.941-11.715.567-4.865.817-11.817.817-11.817s1.894 6.464 2.71 11.341c.783 4.717 2.336 15.208 2.336 15.208s5.353-19.62 6-20.391c1.338 27.207-2.235 54.708-4.094 71.958 6.078-2.268 14.663-1.032 19.336-.522.283.034.556.057.839.091-7.893-5.58-13.246-14.652-12.067-28.364 1.701-19.778 17.08-34.283 34.749-33.977" opacity=".8"/><path fill="url(#p)" d="M201.706 55.753c-.737-13.28-2.79-35.395-8.279-35.508-5.806-.113-12.951 10.286-18.644 20.323-.227-2.019-.488-4.366-1.078-7.27-2.041-10.172-3.334-15.525-7.167-15.39-4.128.148-10.672 7.837-14.483 14.665-6.101 10.944-6.532 13.756-8.018 18.746a52 52 0 0 1-1.156 3.323c-2.416 6.249-6.624 14.267-8.495 16.83-4.355 5.954-16.682 13.042-16.943 18.94-.114 2.562 6.351 1.519 4.083 2.721a5 5 0 0 0-.522.318c15.707-6.487 24.394-13.303 43.3-9.21 12.18 2.643 15.503 3.902 28.919 8.053 4.4 1.36 8.642 2.166 12.407 2.393.873-.09 2.971-.533 5.931-2.575 5.614-3.89 5.92-8.528 14.834-9.81-12.826-4.627-8.925-15.344-24.689-26.549m10.536 21.423c-3.448.68-5.444-1.224-5.988-2.313-3.142-6.34-2.427-9.209 1.213-9.481 2.098-.159 4.242 1.542 6.249 5.614 2.472 5.024.034 5.874-1.474 6.18"/><path fill="url(#q)" d="M184.164 48.822c4.99.987 11.432 2.79 16.422 6.147.385.26.748.522 1.123.782-.738-13.28-2.79-35.394-8.279-35.508-5.807-.113-12.952 10.286-18.645 20.323.318 2.801.567 4.956 1.531 7.043.046.102 3.368.329 7.848 1.213"/><path fill="url(#r)" d="M190.604 74.364c.907 4.241-2.313 4.423-4.117 4.502-3.459.17-5.602.295-6.815-5.262-1.543-7.066 1.893-9.141 5.511-8.154 2.302.623 4.185 3.118 5.421 8.902z"/><path fill="#fff" d="M188.673 76.703c.858-.18 1.386-1.126 1.18-2.112-.206-.988-1.069-1.642-1.928-1.463-.858.18-1.387 1.125-1.18 2.112.206.987 1.069 1.642 1.928 1.463"/><path fill="url(#s)" d="M232.602 52.304 117.934 70.518l-53.461 21.91 50.966-64.473L170.079.352z"/><path fill="url(#t)" d="m240.255 48.517-122.493 18.69L170.077.351l70.178 48.165Z"/><path fill="url(#u)" d="m64.473 92.433 53.291-25.222.862 5.25-53.11 24.894z"/><path fill="url(#v)" d="m240.255 48.516-122.493 18.69.862 5.25 122.062-18.769z"/><path fill="url(#w)" d="M210.464 161.227H87.438a5.145 5.145 0 0 0-5.149 5.148V273.57a5.145 5.145 0 0 0 5.149 5.148h123.026c3.459 0 6.215-2.835 6.215-6.214V167.441c0-3.379-2.756-6.214-6.215-6.214"/><path fill="url(#x)" d="M82.286 273.57V166.375a5.145 5.145 0 0 1 5.149-5.148H48.082a6.217 6.217 0 0 0-6.215 6.214v105.063a6.216 6.216 0 0 0 6.215 6.214h39.353a5.145 5.145 0 0 1-5.149-5.148"/><path fill="url(#y)" d="M140.908 197.031H134.5a4.775 4.775 0 0 1 4.775 4.775v76.914h6.396v-76.937a4.76 4.76 0 0 0-4.752-4.752z"/><path fill="url(#z)" d="M134.502 197.031h-21.287a4.1 4.1 0 0 0-4.094 4.094v77.595h30.156v-76.914a4.775 4.775 0 0 0-4.775-4.775"/><path fill="url(#A)" d="M194.199 197.07h-7.043a4.943 4.943 0 0 1 4.945 4.945v29.339a4.943 4.943 0 0 1-4.945 4.945h6.703a4.666 4.666 0 0 0 4.672-4.673v-30.212a4.33 4.33 0 0 0-4.332-4.332z"/><path fill="url(#B)" d="M187.158 197.074h-16.887a4.75 4.75 0 0 0-4.751 4.752v30.632a3.83 3.83 0 0 0 3.833 3.833h17.805a4.943 4.943 0 0 0 4.945-4.945v-29.339a4.943 4.943 0 0 0-4.945-4.945z"/></g><defs><linearGradient id="b" x1="72.233" x2="61.233" y1="84.212" y2="241.252" gradientUnits="userSpaceOnUse"><stop offset=".01" stop-color="#ffeb49"/><stop offset=".24" stop-color="#ff9b1d"/><stop offset=".41" stop-color="#f60"/><stop offset=".5" stop-color="#fd4835"/><stop offset=".59" stop-color="#fb3161"/><stop offset=".63" stop-color="#fb2872"/></linearGradient><linearGradient id="c" x1="53.45" x2="105.544" y1="110.512" y2="161.362" gradientUnits="userSpaceOnUse"><stop stop-color="#ffd400"/><stop offset=".05" stop-color="#ffd100" stop-opacity=".96"/><stop offset=".14" stop-color="#ffcb00" stop-opacity=".84"/><stop offset=".25" stop-color="#ffc000" stop-opacity=".66"/><stop offset=".38" stop-color="#ffb200" stop-opacity=".4"/><stop offset=".54" stop-color="#ffa000" stop-opacity=".07"/><stop offset=".57" stop-color="#ff9c00" stop-opacity="0"/></linearGradient><linearGradient id="d" x1="156.315" x2="147.685" y1="88.356" y2="53.402" gradientUnits="userSpaceOnUse"><stop stop-color="#b31ccc"/><stop offset=".05" stop-color="#9c19c8"/><stop offset=".3" stop-color="#2c0cb9"/><stop offset=".41" stop-color="#0007b3"/><stop offset=".99" stop-color="#000704"/></linearGradient><linearGradient id="e" x1="186.647" x2="139.843" y1="47.957" y2="255.764" gradientUnits="userSpaceOnUse"><stop stop-color="#f60"/><stop offset=".33" stop-color="#ffb029"/><stop offset=".46" stop-color="#ff9218"/><stop offset=".63" stop-color="#f60"/><stop offset="1" stop-color="#fb2872"/></linearGradient><linearGradient id="f" x1="179.407" x2="130.315" y1="44.315" y2="262.255" gradientUnits="userSpaceOnUse"><stop stop-color="#f60"/><stop offset=".33" stop-color="#ffb029"/><stop offset=".46" stop-color="#ff9218"/><stop offset=".63" stop-color="#f60"/><stop offset="1" stop-color="#fb2872"/></linearGradient><linearGradient id="g" x1="138.454" x2="143.558" y1="184.383" y2="310.662" gradientUnits="userSpaceOnUse"><stop offset=".02" stop-color="#d81f60" stop-opacity="0"/><stop offset=".49" stop-color="#d81f60"/><stop offset=".58" stop-color="#a31f4d"/><stop offset=".68" stop-color="#731f3c"/><stop offset=".78" stop-color="#4d1f2f"/><stop offset=".86" stop-color="#321f25"/><stop offset=".94" stop-color="#211f20"/><stop offset="1" stop-color="#1c1f1e"/></linearGradient><linearGradient id="h" x1="200.487" x2="136.621" y1="71.659" y2="227.835" gradientUnits="userSpaceOnUse"><stop offset=".05" stop-color="#ffeb49"/><stop offset=".59" stop-color="#ff8c15" stop-opacity=".29"/><stop offset=".83" stop-color="#f60" stop-opacity="0"/></linearGradient><linearGradient id="i" x1="198.687" x2="149.596" y1="48.659" y2="266.599" gradientUnits="userSpaceOnUse"><stop stop-color="#f60"/><stop offset=".33" stop-color="#ffb029"/><stop offset=".46" stop-color="#ff9218"/><stop offset=".63" stop-color="#f60"/><stop offset="1" stop-color="#fb2872"/></linearGradient><linearGradient id="j" x1="161.267" x2="166.213" y1="187.828" y2="310.195" gradientUnits="userSpaceOnUse"><stop offset=".02" stop-color="#d81f60" stop-opacity="0"/><stop offset=".49" stop-color="#d81f60"/><stop offset=".5" stop-color="#d11f5d"/><stop offset=".68" stop-color="#841f42"/><stop offset=".83" stop-color="#4c1f2e"/><stop offset=".94" stop-color="#291f22"/><stop offset="1" stop-color="#1c1f1e"/></linearGradient><linearGradient id="k" x1="218.114" x2="154.237" y1="78.87" y2="235.044" gradientUnits="userSpaceOnUse"><stop offset=".05" stop-color="#ffeb49"/><stop offset=".59" stop-color="#ff8c15" stop-opacity=".29"/><stop offset=".83" stop-color="#f60" stop-opacity="0"/></linearGradient><linearGradient id="l" x1="189.849" x2="176.576" y1="67.99" y2="126.917" gradientUnits="userSpaceOnUse"><stop stop-color="#f60"/><stop offset=".33" stop-color="#ffb029"/><stop offset=".46" stop-color="#ff9218"/><stop offset=".63" stop-color="#f60"/><stop offset="1" stop-color="#fb2872"/></linearGradient><linearGradient id="m" x1="213.894" x2="164.803" y1="52.078" y2="270.019" gradientUnits="userSpaceOnUse"><stop stop-color="#f60"/><stop offset=".33" stop-color="#ffb029"/><stop offset=".46" stop-color="#ff9218"/><stop offset=".63" stop-color="#f60"/><stop offset="1" stop-color="#fb2872"/></linearGradient><linearGradient id="n" x1="209.3" x2="209.597" y1="62.252" y2="75.862" gradientUnits="userSpaceOnUse"><stop offset=".16" stop-color="#a02fb9"/><stop offset=".88" stop-color="#00073b"/></linearGradient><linearGradient id="o" x1="162.829" x2="175.542" y1="74.341" y2="202.436" gradientUnits="userSpaceOnUse"><stop offset=".02" stop-color="#ffeb49"/><stop offset=".08" stop-color="#ffe445" stop-opacity=".95"/><stop offset=".19" stop-color="#ffd23b" stop-opacity=".82"/><stop offset=".34" stop-color="#ffb52b" stop-opacity=".6"/><stop offset=".52" stop-color="#ff8e16" stop-opacity=".3"/><stop offset=".68" stop-color="#f60" stop-opacity="0"/></linearGradient><linearGradient id="p" x1="184.772" x2="101.649" y1="26.997" y2="408.922" gradientUnits="userSpaceOnUse"><stop offset=".08" stop-color="#f60"/><stop offset=".19" stop-color="#ffb029"/><stop offset=".31" stop-color="#ff9118"/><stop offset=".43" stop-color="#ff790a"/><stop offset=".53" stop-color="#ff6b02"/><stop offset=".63" stop-color="#f60"/><stop offset="1" stop-color="#fb2872"/></linearGradient><linearGradient id="q" x1="209.394" x2="153.283" y1="9.457" y2="113.54" gradientUnits="userSpaceOnUse"><stop offset=".09" stop-color="#be0449" stop-opacity="0"/><stop offset=".2" stop-color="#be0449" stop-opacity=".17"/><stop offset=".33" stop-color="#be0449" stop-opacity=".33"/><stop offset=".47" stop-color="#be0449" stop-opacity=".45"/><stop offset=".62" stop-color="#be0449" stop-opacity=".53"/><stop offset=".78" stop-color="#be0449" stop-opacity=".58"/><stop offset="1" stop-color="#be0449" stop-opacity=".6"/></linearGradient><linearGradient id="r" x1="178.568" x2="184.744" y1="60.122" y2="79.014" gradientUnits="userSpaceOnUse"><stop offset=".16" stop-color="#a02fb9"/><stop offset=".88" stop-color="#00073b"/></linearGradient><linearGradient id="s" x1="83.579" x2="154.398" y1="1.723" y2="78.69" gradientUnits="userSpaceOnUse"><stop stop-color="#e752ff"/><stop offset=".11" stop-color="#dd4fff"/><stop offset=".28" stop-color="#c347ff"/><stop offset=".51" stop-color="#983bff"/><stop offset=".77" stop-color="#5e2aff"/><stop offset="1" stop-color="#271aff"/></linearGradient><linearGradient id="t" x1="149.523" x2="201.051" y1="4.079" y2="97.943" gradientUnits="userSpaceOnUse"><stop stop-color="#e752ff"/><stop offset=".11" stop-color="#dd4fff"/><stop offset=".28" stop-color="#c347ff"/><stop offset=".51" stop-color="#983bff"/><stop offset=".77" stop-color="#5e2aff"/><stop offset="1" stop-color="#271aff"/></linearGradient><linearGradient id="u" x1="87.314" x2="97.046" y1="51.546" y2="121.873" gradientUnits="userSpaceOnUse"><stop stop-color="#e752ff"/><stop offset=".11" stop-color="#dd4fff"/><stop offset=".28" stop-color="#c347ff"/><stop offset=".51" stop-color="#983bff"/><stop offset=".77" stop-color="#5e2aff"/><stop offset="1" stop-color="#271aff"/></linearGradient><linearGradient id="v" x1="178.777" x2="189.232" y1="56.817" y2="111.684" gradientUnits="userSpaceOnUse"><stop stop-color="#e752ff"/><stop offset=".11" stop-color="#dd4fff"/><stop offset=".28" stop-color="#c347ff"/><stop offset=".51" stop-color="#983bff"/><stop offset=".77" stop-color="#5e2aff"/><stop offset="1" stop-color="#271aff"/></linearGradient><linearGradient id="w" x1="84.353" x2="285.484" y1="155.159" y2="356.29" gradientUnits="userSpaceOnUse"><stop stop-color="#e752ff"/><stop offset=".1" stop-color="#dd4fff"/><stop offset=".27" stop-color="#c347ff"/><stop offset=".5" stop-color="#983bff"/><stop offset=".75" stop-color="#5e2aff"/><stop offset=".97" stop-color="#271aff"/></linearGradient><linearGradient id="x" x1="31.241" x2="89.114" y1="82.498" y2="315.905" gradientUnits="userSpaceOnUse"><stop stop-color="#e752ff"/><stop offset=".11" stop-color="#dd4fff"/><stop offset=".28" stop-color="#c347ff"/><stop offset=".51" stop-color="#983bff"/><stop offset=".77" stop-color="#5e2aff"/><stop offset="1" stop-color="#271aff"/></linearGradient><linearGradient id="y" x1="216.302" x2="101.691" y1="339.938" y2="183.978" gradientUnits="userSpaceOnUse"><stop stop-color="#e752ff"/><stop offset=".11" stop-color="#dd4fff"/><stop offset=".28" stop-color="#c347ff"/><stop offset=".51" stop-color="#983bff"/><stop offset=".77" stop-color="#5e2aff"/><stop offset="1" stop-color="#271aff"/></linearGradient><linearGradient id="z" x1="95.909" x2="148.1" y1="317.495" y2="173.669" gradientUnits="userSpaceOnUse"><stop stop-color="#a030b9"/><stop offset=".05" stop-color="#982eb8"/><stop offset=".12" stop-color="#8429b7"/><stop offset=".21" stop-color="#6420b6"/><stop offset=".31" stop-color="#3614b5"/><stop offset=".41" stop-color="#0007b3"/><stop offset=".99" stop-color="#00073a"/></linearGradient><linearGradient id="A" x1="212.39" x2="186.941" y1="288.297" y2="197.479" gradientUnits="userSpaceOnUse"><stop stop-color="#e752ff"/><stop offset=".11" stop-color="#dd4fff"/><stop offset=".28" stop-color="#c347ff"/><stop offset=".51" stop-color="#983bff"/><stop offset=".77" stop-color="#5e2aff"/><stop offset="1" stop-color="#271aff"/></linearGradient><linearGradient id="B" x1="202.695" x2="162.446" y1="245.137" y2="197.777" gradientUnits="userSpaceOnUse"><stop stop-color="#e752ff"/><stop offset=".13" stop-color="#9c39e6"/><stop offset=".32" stop-color="#2c15c1"/><stop offset=".41" stop-color="#0007b3"/><stop offset=".99" stop-color="#00073a"/></linearGradient><clipPath id="a"><path fill="#fff" d="M.293.352h241.085v278.352H.293z"/></clipPath></defs></svg>
