<!-- This Source Code Form is subject to the terms of the Mozilla Public
   - License, v. 2.0. If a copy of the MPL was not distributed with this
   - file, You can obtain one at http://mozilla.org/MPL/2.0/. -->
<svg xmlns="http://www.w3.org/2000/svg" width="485" height="424" fill="none" viewBox="0 0 485 424"><path fill="url(#a)" d="m256.489 290.579 18.302-41.009a44.72 44.72 0 0 1 23.522-23.015l37.277-15.698c5.351-2.247 5.351-9.842 0-12.09l-37.195-15.583a44.82 44.82 0 0 1-23.604-23.08l-18.302-41.075c-2.331-5.249-9.799-5.167-12.031.115l-16.513 39.139a44.83 44.83 0 0 1-23.752 23.802l-39.345 16.699c-5.318 2.264-5.334 9.793-.016 12.057l39.673 16.994a44.73 44.73 0 0 1 23.637 23.769l16.348 38.811c2.233 5.282 9.701 5.364 12.032.131z"/><path fill="url(#b)" d="m289.958 129.249 13.41-30.052a32.78 32.78 0 0 1 17.235-16.863l27.33-11.5c3.923-1.656 3.923-7.217 0-8.857L320.669 50.56a32.82 32.82 0 0 1-17.301-16.912L289.958 3.53c-1.707-3.838-7.19-3.789-8.831.082l-12.114 28.69a32.76 32.76 0 0 1-17.416 17.438l-28.839 12.237c-3.891 1.657-3.907 7.168 0 8.841l29.086 12.467a32.82 32.82 0 0 1 17.317 17.421l11.982 28.444c1.625 3.871 7.108 3.937 8.831.099z"/><path fill="url(#c)" d="M205.095 383.605s-1.855 4.511 26.92 1.722c33.797-3.264 59.124-3.1 71.336-65.287 1.001-5.068 3.611-17.699 8.224-31.331 8.781-25.951 15.823-24.934 15.823-24.934s-1.527 4.167-1.149 10.269c.41 6.48.936 4.79.936 4.79s14.165-8.612 21.765-25.573c8.191-18.258 10.686-32.742-1.756-54.362-15.052-26.148-22.833-34.743-25.016-56.544-3.791-37.958 39.772-46.882 39.772-46.882s-13.624 29.445 23.981 52.295c10.587 6.431 46.535 25.049 65.263 50.967 5.204 7.201 7.699 15.78 7.699 15.78s1.526-1.706 2.675-5.134c.821-2.444 2.298-6.48 2.298-6.48s16.152 26.984 19.517 56.478c6.877 60.104-14.691 90.352-38.426 116.762-27.839 30.987-76.277 44.372-129.377 45.635-91.477 2.166-86.257 1.034-132.053 1.034s21.519-39.189 21.519-39.189z"/><path fill="url(#d)" d="M441.92 312.97c10.833-44.093 4.924-68.108 5.022-68.059 0 0-1.674 5.856-4.038 12.942-2.298 6.874-5.154 10.581-5.154 10.581.92 2.329-.279-14.239-3.118-29.478-3.152-16.928-8.585-30.183-8.585-30.183s.542 17.487-1.182 32.513c-2.872 25.065-8.749 53.558-19.369 68.567-8.568 12.106-22.208 24.36-11.44 37.22 10.767 12.861 34.108.427 47.864-34.119z"/><path fill="url(#e)" d="M139.684 131.036s.246-.016.705-.131c-5.974.394-12.819-.017-20.009-1.28-21.945-3.822-27.428-5.15-47.141-6.856-30.597-2.641-42.89 9.809-66.314 23.195-2.413 2.017-7.55 7.348-4.81 11.63 2.25 3.51 9.85-2.428 10.637 1.657.509 2.608-7.994 4.839-4.53 9.661 4.71 6.529 17.94 1.198 17.94 18.373 0 17.174-3.135 36.055 2.085 75.096a199 199 0 0 0 3.792 20.39c2.084 2.559 4.957 6.496 8.568 14.107 6.484 13.664 9.225 23.375 9.389 21.161.197-2.543-.837-6.595-.87-10.367-.082-7.776-1.083-15.617-1.083-15.617s4.284 6.66 6.549 14.157c2.183 7.266 5.089 15.206 5.089 15.206s-.099-10.17.77-11.516c20.896 32.201 28.184 65.96 31.582 89.778.115-.131.18-.279.164-.426-4.891-38.32-14.806-103.787-19.894-121.733.985 3.609 4.777 4.807 11.868 23.638 5.334 14.14 6.04 19.094 6.204 16.863.197-2.542-.837-14.845-.87-18.618-.082-7.775-1.083-18.749-1.083-18.749s4.284 9.793 6.55 17.306c2.182 7.266 6.745 23.457 6.745 23.457s4.482-31.938 5.351-33.3c7.567 42.535 7.502 86.514 8.043 114.039 9.11-4.79 22.882-4.577 30.35-4.708.444 0 .887-.016 1.346-.033-13.558-7.201-23.8-20.389-24.703-42.19-1.297-31.462 19.993-57.38 47.864-60.448s49.391 19.652 52.772 50.327c2.84 25.836-4.366 47.817-23.358 55.937l-7.37 21.833c11.326.098 22.357.197 32.599.197 3.381 0 25.114.869 20.748-67.223-2.151-33.595-17.449-79.902-74.144-113.317-47.24-27.837-30.235-74.112-13.476-84.2 5.122-3.084 8.421-5.134 11.08-6.873-17.58-2.723-29.119-20.472-29.119-20.472z"/><path fill="url(#f)" d="M79.23 416.707c-3.053-13.221 11.145-15.058 12.82-17.01-3.415-23.819-10.686-57.578-31.582-89.778-.87 1.345-.771 11.515-.771 11.515s-2.906-7.939-5.089-15.206c-2.248-7.513-6.549-14.156-6.549-14.156s1.001 7.841 1.083 15.616c.05 3.773 1.067 7.825.87 10.367-.18 2.215-2.905-7.496-9.389-21.161-3.61-7.595-6.5-11.548-8.568-14.107 10.489 43.749 32.156 68.305 40.15 119.124.13.869-12.623 1.919-11.244 14.485.59 5.429 5.68 6.659 23.16 6.758-2.314-1.378-4.202-3.412-4.908-6.447z"/><path fill="url(#g)" d="M79.23 416.707c-3.053-13.221 11.145-15.058 12.82-17.01-3.415-23.819-10.686-57.578-31.582-89.778-.87 1.345-.771 11.515-.771 11.515s-2.906-7.939-5.089-15.206c-2.248-7.513-6.549-14.156-6.549-14.156s1.001 7.841 1.083 15.616c.05 3.773 1.067 7.825.87 10.367-.18 2.215-2.905-7.496-9.389-21.161-3.61-7.595-6.5-11.548-8.568-14.107 10.489 43.749 32.156 68.305 40.15 119.124.13.869-12.623 1.919-11.244 14.485.59 5.429 5.68 6.659 23.16 6.758-2.314-1.378-4.202-3.412-4.908-6.447z"/><path fill="url(#h)" d="M110.647 405.307c1.28-1.231 2.807-2.248 4.465-3.117-.542-27.525-.476-71.504-8.043-114.039-.87 1.345-5.351 33.3-5.351 33.3s-4.563-16.191-6.746-23.457c-2.25-7.513-6.55-17.306-6.55-17.306s1.001 10.974 1.084 18.749c.049 3.773 1.066 16.076.87 18.618-.181 2.215-.87-2.723-6.205-16.863-7.108-18.831-10.9-20.029-11.868-23.638 5.105 17.946 15.02 83.413 19.894 121.733.017.147-.049.278-.164.426 1.395 9.728 2.15 17.798 2.922 23.425 5.269-.033 9.717-.066 13.837-.082-2.642-3.117-6.303-9.875 1.855-17.733z"/><path fill="url(#i)" d="M110.647 405.307c1.28-1.231 2.807-2.248 4.465-3.117-.542-27.525-.476-71.504-8.043-114.039-.87 1.345-5.351 33.3-5.351 33.3s-4.563-16.191-6.746-23.457c-2.25-7.513-6.55-17.306-6.55-17.306s1.001 10.974 1.084 18.749c.049 3.773 1.066 16.076.87 18.618-.181 2.215-.87-2.723-6.205-16.863-7.108-18.831-10.9-20.029-11.868-23.638 5.105 17.946 15.02 83.413 19.894 121.733.017.147-.049.278-.164.426 1.395 9.728 2.15 17.798 2.922 23.425 5.269-.033 9.717-.066 13.837-.082-2.642-3.117-6.303-9.875 1.855-17.733z"/><path fill="url(#j)" d="M79.23 416.708c.706 3.035 2.594 5.069 4.909 6.447h7.681c1.084 0 2.134 0 3.168-.017-.771-5.626-1.526-13.68-2.921-23.424-1.675 1.952-15.873 3.789-12.82 17.011z"/><path fill="url(#k)" d="M79.23 416.708c.706 3.035 2.594 5.069 4.909 6.447h7.681c1.084 0 2.134 0 3.168-.017-.771-5.626-1.526-13.68-2.921-23.424-1.675 1.952-15.873 3.789-12.82 17.011z"/><path fill="#ffc635" d="M149.205 125.656c-4.251 3.822-7.468 4.938-8.831 5.249a4.6 4.6 0 0 1-.706.132s11.54 17.748 29.119 20.472c4.17-2.724 6.714-4.626 12.032-8.35 10.472-7.332 14.937-18.766 14.888-26.115-.985.673-2.265 1.181-3.858 1.329-5.515.525-9.11-3.707-8.617-6.332.246-1.296 1.28-2.805 3.25-3.756-2.035.082-4.53.229-7.666.049-3.118-.181-5.827-.558-8.223-1.083-13.788 3.822-13.329 11.171-21.388 18.422z"/><path fill="#00073a" d="M183.232 112.041c-.492 2.624 3.102 6.857 8.617 6.332 1.609-.148 2.873-.657 3.858-1.329 0-1.788-.279-3.33-.804-4.528-1.855-4.232-4.104-4.379-8.421-4.215-1.986.951-3.02 2.46-3.25 3.756z"/><path fill="url(#l)" d="M146.792 396.946c-.443 0-.886.017-1.346.033-7.468.151-21.24-.066-30.35 4.798.181 9.01.427 16.282 1.002 21.213 9.865-.05 19.549-.1 36.964-.217 12.919-.084 26.116 0 38.919.117l7.37-22.25c-13.114 5.724-35.343 5.633-52.559-3.694"/><path fill="url(#m)" d="M110.648 405.307c-8.158 7.857-4.481 14.616-1.855 17.732 2.528 0 4.925-.032 7.305-.032-.575-4.84-.821-11.975-1.002-20.817-1.657.87-3.184 1.887-4.464 3.117z"/><path fill="url(#n)" d="M110.648 405.307c-8.158 7.857-4.481 14.616-1.855 17.732 2.528 0 4.925-.032 7.305-.032-.575-4.84-.821-11.975-1.002-20.817-1.657.87-3.184 1.887-4.464 3.117z"/><path fill="url(#o)" d="M199.367 401.075c18.992-8.12 26.198-30.101 23.358-55.937-3.381-30.675-24.9-53.394-52.772-50.326-27.871 3.067-49.161 28.985-47.864 60.448.903 21.8 11.145 34.989 24.704 42.19 28.511-.574 54.462-1.985 54.462-1.985z"/><path fill="url(#p)" d="M199.367 401.075c18.992-8.12 26.198-30.101 23.358-55.937-3.381-30.675-24.9-53.394-52.772-50.326-27.871 3.067-49.161 28.985-47.864 60.448.903 21.8 11.145 34.989 24.704 42.19 28.511-.574 54.462-1.985 54.462-1.985z"/><path fill="url(#q)" d="M187.433 404.11c4.399-.476 8.371-1.526 11.933-3.051l1.888-5.61s-25.967 1.41-54.463 1.985c12.328 6.545 27.379 8.136 40.642 6.676"/><path fill="url(#r)" d="M139.684 131.036s.246-.016.705-.131c-5.974.394-12.819-.017-20.009-1.28-21.945-3.822-27.428-5.15-47.141-6.856-30.597-2.641-42.89 9.809-66.314 23.194-2.413 2.018-7.55 7.349-4.81 11.631 2.25 3.51 9.85-2.428 10.637 1.657.509 2.608-7.994 4.839-4.53 9.661 4.71 6.529 17.94 1.198 17.94 18.373 0 17.174-3.135 36.055 2.085 75.096a199 199 0 0 0 3.792 20.39c2.084 2.559 4.957 6.496 8.568 14.107 6.484 13.664 9.225 23.375 9.389 21.161.197-2.543-.837-6.595-.87-10.367-.082-7.776-1.083-15.617-1.083-15.617s4.284 6.66 6.549 14.157c2.183 7.266 5.089 15.206 5.089 15.206s-.099-10.17.77-11.516c20.896 32.201 28.184 65.96 31.582 89.778.115-.131.18-.279.164-.426-4.891-38.32-14.806-103.787-19.894-121.733.985 3.609 4.777 4.807 11.868 23.638 5.334 14.14 6.04 19.094 6.204 16.863.197-2.542-.837-14.845-.87-18.618-.082-7.775-1.083-18.749-1.083-18.749s4.284 9.793 6.55 17.306c2.182 7.266 6.745 23.457 6.745 23.457s4.482-31.938 5.351-33.3c7.567 42.535 7.502 86.514 8.043 114.039 9.11-4.79 22.882-4.577 30.35-4.708.444 0 .887-.016 1.346-.033-13.558-7.201-23.8-20.389-24.703-42.19-1.297-31.462 19.993-57.38 47.864-60.448s49.39 19.652 52.772 50.327c2.839 25.836-4.366 47.817-23.358 55.937l-7.37 21.833c11.326.098 22.357.197 32.599.197 3.381 0 25.114.869 20.748-67.223-2.151-33.595-17.449-79.902-74.144-113.317-47.24-27.837-30.235-74.112-13.476-84.2 5.122-3.084 8.421-5.134 11.08-6.873-17.58-2.723-29.119-20.472-29.119-20.472z" opacity=".6"/><path fill="url(#s)" d="M126.389 70.44c-3.841-20.75-11.523-55.132-20.173-54.197-9.176.984-18.318 18.799-25.262 35.727-.771-3.133-1.657-6.775-3.151-11.22-5.27-15.6-8.371-23.769-14.38-22.768-6.466 1.066-15.232 14.484-19.844 25.967-7.403 18.438-7.518 22.965-8.864 31.101a74 74 0 0 1-1.165 5.463c-2.544 10.318-7.55 23.769-9.98 28.181C17.907 118.947-.067 132.562.705 141.912c.345 4.068 10.308 1.099 6.976 3.461-.197.131-.46.344-.771.591 23.423-13.369 35.717-25.836 66.313-23.195 19.697 1.706 25.196 3.018 47.142 6.856 7.189 1.264 14.034 1.674 20.009 1.28 1.362-.312 4.58-1.427 8.831-5.249 8.059-7.251 7.6-14.6 21.388-18.422-21.125-4.708-17.137-22.342-44.204-36.81z"/><path fill="url(#t)" d="M97.384 63.076c8.06.54 18.565 2.083 27.084 6.364.673.328 1.28.673 1.92 1-3.841-20.75-11.523-55.132-20.173-54.197-9.176.984-18.318 18.799-25.262 35.727 1.067 4.347 1.904 7.694 3.825 10.777.082.148 5.367-.164 12.606.328"/><path fill="url(#u)" d="M147.301 102.035c2.331-.771 5.991-2.608 1.084-10.023-3.973-6.02-7.682-8.25-10.965-7.578-5.679 1.148-6.238 5.823 0 15.157 1.067 1.607 4.596 4.199 9.881 2.444"/><path fill="#fff" d="M146.317 94.407c-1.264.41-2.003 2.05-1.609 3.642.378 1.59 1.724 2.542 2.988 2.116 1.264-.41 2.002-2.05 1.608-3.642-.377-1.591-1.723-2.542-2.987-2.116"/><path fill="url(#v)" d="M112.666 101.953c2.281 6.496-2.758 7.414-5.581 7.923-5.417.968-8.765 1.591-11.786-6.906-3.84-10.81 1.15-14.763 7.042-13.943 3.759.525 7.222 4.068 10.325 12.926"/><path fill="#fff" d="M110.082 106.069c1.32-.456 1.964-2.055 1.439-3.57s-2.02-2.374-3.339-1.917c-1.319.456-1.964 2.054-1.439 3.57.525 1.515 2.02 2.373 3.339 1.917"/><defs><linearGradient id="a" x1="237.891" x2="262.501" y1="108.159" y2="301.649" gradientUnits="userSpaceOnUse"><stop stop-color="#e752ff"/><stop offset=".11" stop-color="#dd4fff"/><stop offset=".28" stop-color="#c347ff"/><stop offset=".51" stop-color="#983bff"/><stop offset=".77" stop-color="#5e2aff"/><stop offset="1" stop-color="#271aff"/></linearGradient><linearGradient id="b" x1="276.32" x2="294.369" y1="-4.458" y2="137.368" gradientUnits="userSpaceOnUse"><stop stop-color="#e752ff"/><stop offset=".11" stop-color="#dd4fff"/><stop offset=".28" stop-color="#c347ff"/><stop offset=".51" stop-color="#983bff"/><stop offset=".77" stop-color="#5e2aff"/><stop offset="1" stop-color="#271aff"/></linearGradient><linearGradient id="c" x1="438.67" x2="273.059" y1="164.139" y2="438.701" gradientUnits="userSpaceOnUse"><stop stop-color="#ffeb49"/><stop offset=".32" stop-color="#ff9b1d"/><stop offset=".56" stop-color="#f60"/><stop offset=".74" stop-color="#fd4835"/><stop offset=".91" stop-color="#fb3161"/><stop offset="1" stop-color="#fb2872"/></linearGradient><linearGradient id="d" x1="431.382" x2="417.136" y1="207.74" y2="322.404" gradientUnits="userSpaceOnUse"><stop stop-color="#ffeb49" stop-opacity=".6"/><stop offset=".13" stop-color="#ffe646" stop-opacity=".56"/><stop offset=".35" stop-color="#ffdb40" stop-opacity=".44"/><stop offset=".65" stop-color="#ffc936" stop-opacity=".26"/><stop offset="1" stop-color="#ffb029" stop-opacity="0"/></linearGradient><linearGradient id="e" x1="143.103" x2="109.703" y1="61.826" y2="414.583" gradientUnits="userSpaceOnUse"><stop stop-color="#f60"/><stop offset=".33" stop-color="#ffb029"/><stop offset=".46" stop-color="#ff9218"/><stop offset=".63" stop-color="#f60"/><stop offset="1" stop-color="#fb2872"/></linearGradient><linearGradient id="f" x1="88.963" x2="55.547" y1="56.705" y2="409.461" gradientUnits="userSpaceOnUse"><stop stop-color="#f60"/><stop offset=".33" stop-color="#ffb029"/><stop offset=".46" stop-color="#ff9218"/><stop offset=".63" stop-color="#f60"/><stop offset="1" stop-color="#fb2872"/></linearGradient><linearGradient id="g" x1="52.688" x2="86.124" y1="285.724" y2="483.384" gradientUnits="userSpaceOnUse"><stop offset=".02" stop-color="#d81f60" stop-opacity="0"/><stop offset=".49" stop-color="#d81f60"/><stop offset=".58" stop-color="#a31f4d"/><stop offset=".68" stop-color="#731f3c"/><stop offset=".78" stop-color="#4d1f2f"/><stop offset=".86" stop-color="#321f25"/><stop offset=".94" stop-color="#211f20"/><stop offset="1" stop-color="#1c1f1e"/></linearGradient><linearGradient id="h" x1="120.209" x2="86.792" y1="59.651" y2="412.423" gradientUnits="userSpaceOnUse"><stop stop-color="#f60"/><stop offset=".33" stop-color="#ffb029"/><stop offset=".46" stop-color="#ff9218"/><stop offset=".63" stop-color="#f60"/><stop offset="1" stop-color="#fb2872"/></linearGradient><linearGradient id="i" x1="89.317" x2="121.705" y1="286.562" y2="478.106" gradientUnits="userSpaceOnUse"><stop stop-color="#d81f60" stop-opacity="0"/><stop offset=".5" stop-color="#d11f5d"/><stop offset=".68" stop-color="#841f42"/><stop offset=".83" stop-color="#4c1f2e"/><stop offset=".94" stop-color="#291f22"/><stop offset="1" stop-color="#1c1f1e"/></linearGradient><linearGradient id="j" x1="64.546" x2="97.963" y1="283.729" y2="481.375" gradientUnits="userSpaceOnUse"><stop offset=".02" stop-color="#d81f60" stop-opacity="0"/><stop offset=".49" stop-color="#d81f60"/><stop offset=".58" stop-color="#a31f4d"/><stop offset=".68" stop-color="#731f3c"/><stop offset=".78" stop-color="#4d1f2f"/><stop offset=".86" stop-color="#321f25"/><stop offset=".94" stop-color="#211f20"/><stop offset="1" stop-color="#1c1f1e"/></linearGradient><linearGradient id="k" x1="65.704" x2="98.09" y1="290.558" y2="482.086" gradientUnits="userSpaceOnUse"><stop offset=".02" stop-color="#d81f60" stop-opacity="0"/><stop offset=".49" stop-color="#d81f60"/><stop offset=".5" stop-color="#d11f5d"/><stop offset=".68" stop-color="#841f42"/><stop offset=".83" stop-color="#4c1f2e"/><stop offset=".94" stop-color="#291f22"/><stop offset="1" stop-color="#1c1f1e"/></linearGradient><linearGradient id="l" x1="188.37" x2="113.143" y1="409.784" y2="410.316" gradientUnits="userSpaceOnUse"><stop offset=".02" stop-color="#fb2872"/><stop offset=".74" stop-color="#aa0d51"/></linearGradient><linearGradient id="m" x1="89.611" x2="122.013" y1="286.524" y2="478.049" gradientUnits="userSpaceOnUse"><stop offset=".02" stop-color="#d81f60" stop-opacity="0"/><stop offset=".49" stop-color="#d81f60"/><stop offset=".5" stop-color="#d11f5d"/><stop offset=".68" stop-color="#841f42"/><stop offset=".83" stop-color="#4c1f2e"/><stop offset=".94" stop-color="#291f22"/><stop offset="1" stop-color="#1c1f1e"/></linearGradient><linearGradient id="n" x1="188.386" x2="113.16" y1="412.065" y2="412.607" gradientUnits="userSpaceOnUse"><stop offset=".02" stop-color="#fb2872"/><stop offset="1" stop-color="#aa0d51"/></linearGradient><linearGradient id="o" x1="199.842" x2="166.443" y1="67.205" y2="419.962" gradientUnits="userSpaceOnUse"><stop stop-color="#f60"/><stop offset=".33" stop-color="#ffb029"/><stop offset=".46" stop-color="#ff9218"/><stop offset=".63" stop-color="#f60"/><stop offset="1" stop-color="#fb2872"/></linearGradient><linearGradient id="p" x1="73.273" x2="178.345" y1="298.388" y2="352.378" gradientUnits="userSpaceOnUse"><stop stop-color="#ffeb49"/><stop offset=".13" stop-color="#fdde46" stop-opacity=".89"/><stop offset=".42" stop-color="#f7bd3e" stop-opacity=".61"/><stop offset=".84" stop-color="#ef8932" stop-opacity=".16"/><stop offset=".98" stop-color="#ed762e" stop-opacity="0"/></linearGradient><linearGradient id="q" x1="205.12" x2="171.705" y1="67.694" y2="420.45" gradientUnits="userSpaceOnUse"><stop stop-color="#f60"/><stop offset=".33" stop-color="#ffb029"/><stop offset=".46" stop-color="#ff9218"/><stop offset=".63" stop-color="#f60"/><stop offset="1" stop-color="#fb2872"/></linearGradient><linearGradient id="r" x1="168.042" x2="98.973" y1="106.262" y2="364.836" gradientUnits="userSpaceOnUse"><stop offset=".05" stop-color="#ffeb49"/><stop offset=".59" stop-color="#ff8c15" stop-opacity=".29"/><stop offset=".83" stop-color="#f60" stop-opacity="0"/></linearGradient><linearGradient id="s" x1="94.808" x2="40.825" y1="19.36" y2="636.95" gradientUnits="userSpaceOnUse"><stop offset=".02" stop-color="#f60"/><stop offset=".23" stop-color="#ffb029"/><stop offset=".33" stop-color="#ff9118"/><stop offset=".44" stop-color="#ff790a"/><stop offset=".54" stop-color="#ff6b02"/><stop offset=".63" stop-color="#f60"/><stop offset="1" stop-color="#fb2872"/></linearGradient><linearGradient id="t" x1="129.195" x2="61.909" y1="-5.087" y2="169.98" gradientUnits="userSpaceOnUse"><stop offset=".09" stop-color="#be0449" stop-opacity="0"/><stop offset=".2" stop-color="#be0449" stop-opacity=".17"/><stop offset=".33" stop-color="#be0449" stop-opacity=".33"/><stop offset=".47" stop-color="#be0449" stop-opacity=".45"/><stop offset=".62" stop-color="#be0449" stop-opacity=".53"/><stop offset=".78" stop-color="#be0449" stop-opacity=".58"/><stop offset="1" stop-color="#be0449" stop-opacity=".6"/></linearGradient><linearGradient id="u" x1="134.334" x2="145.222" y1="79.693" y2="100.417" gradientUnits="userSpaceOnUse"><stop offset=".16" stop-color="#a030b9"/><stop offset=".88" stop-color="#00073a"/></linearGradient><linearGradient id="v" x1="100.913" x2="104.864" y1="81.809" y2="109.991" gradientUnits="userSpaceOnUse"><stop offset=".16" stop-color="#a030b9"/><stop offset=".88" stop-color="#00073a"/></linearGradient></defs></svg>