<!-- This Source Code Form is subject to the terms of the Mozilla Public
   - License, v. 2.0. If a copy of the MPL was not distributed with this
   - file, You can obtain one at http://mozilla.org/MPL/2.0/. -->
<svg xmlns="http://www.w3.org/2000/svg" id="prefix__Layer_1" viewBox="0 0 432 432" style="white-space:preserve-spaces"><defs><radialGradient id="prefix__Gradient-1" cx="-892.017" cy="2215.24" r=".732" fx="-892.017" fy="2215.24" gradientUnits="userSpaceOnUse" gradientTransform="matrix(372.089 0 0 -378.355 332226 838283)"><stop offset=".13" stop-color="#ffbd4f"/><stop offset=".28" stop-color="#ff980e"/><stop offset=".47" stop-color="#ff3750"/><stop offset=".78" stop-color="#eb0878"/><stop offset=".86" stop-color="#e50080"/></radialGradient><radialGradient id="prefix__Gradient-2" cx="-892.248" cy="2214.88" r=".732" fx="-892.248" fy="2214.88" gradientUnits="userSpaceOnUse" gradientTransform="matrix(381.391 0 0 -378.355 340509 838234)"><stop offset=".3" stop-color="#960e18"/><stop offset=".35" stop-color="#b11927" stop-opacity=".74"/><stop offset=".43" stop-color="#db293d" stop-opacity=".34"/><stop offset=".5" stop-color="#f5334b" stop-opacity=".09"/><stop offset=".53" stop-color="#ff3750" stop-opacity="0"/></radialGradient><radialGradient id="prefix__Gradient-3" cx="-887.193" cy="2217.76" r=".8" fx="-887.193" fy="2217.76" gradientUnits="userSpaceOnUse" gradientTransform="matrix(111.661 0 0 -189.573 99307.3 420494)"><stop offset=".13" stop-color="#fff44f"/><stop offset=".53" stop-color="#ff980e"/></radialGradient><radialGradient id="prefix__Gradient-4" cx="-890.565" cy="2216.42" r=".572" fx="-890.565" fy="2216.42" gradientUnits="userSpaceOnUse" gradientTransform="matrix(206.86 0 0 -226.721 184406 502805)"><stop offset=".35" stop-color="#3a8ee6"/><stop offset=".67" stop-color="#9059ff"/><stop offset="1" stop-color="#c139e6"/></radialGradient><radialGradient id="prefix__Gradient-5" cx="-889.929" cy="2216.86" r=".337" fx="-889.929" fy="2216.86" gradientUnits="userSpaceOnUse" gradientTransform="matrix(186.174 0 0 -226.721 165894 502805)"><stop offset=".21" stop-color="#9059ff" stop-opacity="0"/><stop offset=".97" stop-color="#6e008b" stop-opacity=".6"/></radialGradient><radialGradient id="prefix__Gradient-6" cx="-878.091" cy="2231.59" r="1.658" fx="-878.091" fy="2231.59" gradientUnits="userSpaceOnUse" gradientTransform="matrix(56.7085 0 0 -56.91 50002.5 127099)"><stop offset=".1" stop-color="#ffe226"/><stop offset=".79" stop-color="#ff7139"/></radialGradient><radialGradient id="prefix__Gradient-7" cx="-892.309" cy="2215.41" r="1.029" fx="-892.309" fy="2215.41" gradientUnits="userSpaceOnUse" gradientTransform="matrix(436.19 0 0 -366.158 389509 811225)"><stop offset=".11" stop-color="#fff44f"/><stop offset=".46" stop-color="#ff980e"/><stop offset=".72" stop-color="#ff3647"/><stop offset=".9" stop-color="#e31587"/></radialGradient><radialGradient id="prefix__Gradient-8" cx="-900.926" cy="2218.5" r="1.994" fx="-900.926" fy="2218.5" gradientUnits="userSpaceOnUse" gradientTransform="matrix(15.5854 147.16 148.286 -15.4671 -314676 166938)"><stop offset="0" stop-color="#fff44f"/><stop offset=".3" stop-color="#ff980e"/><stop offset=".57" stop-color="#ff3647"/><stop offset=".74" stop-color="#e31587"/></radialGradient><radialGradient id="prefix__Gradient-9" cx="-890.314" cy="2218.45" r="1.363" fx="-890.314" fy="2218.45" gradientUnits="userSpaceOnUse" gradientTransform="matrix(189.088 0 0 -185.766 168556 412247)"><stop offset=".14" stop-color="#fff44f"/><stop offset=".48" stop-color="#ff980e"/><stop offset=".66" stop-color="#ff3647"/><stop offset=".9" stop-color="#e31587"/></radialGradient><radialGradient id="prefix__Gradient-10" cx="-888.791" cy="2219.69" r="1.79" fx="-888.791" fy="2219.69" gradientUnits="userSpaceOnUse" gradientTransform="matrix(173.053 0 0 -154.817 154083 343794)"><stop offset=".09" stop-color="#fff44f"/><stop offset=".63" stop-color="#ff980e"/></radialGradient><linearGradient id="prefix__Gradient-0" x1="-892.428" y1="2214.32" x2="-892.859" y2="2213.89" gradientUnits="userSpaceOnUse" gradientTransform="matrix(480.004 0 0 -495.999 428684 1098420)"><stop offset=".05" stop-color="#fff44f"/><stop offset=".37" stop-color="#ff980e"/><stop offset=".53" stop-color="#ff3647"/><stop offset=".7" stop-color="#e31587"/></linearGradient><linearGradient id="prefix__Gradient-11" x1="-892.456" y1="2214.32" x2="-892.799" y2="2213.93" gradientUnits="userSpaceOnUse" gradientTransform="matrix(480 0 0 -495.999 428680 1098420)"><stop offset=".17" stop-color="#fff44f" stop-opacity=".8"/><stop offset=".6" stop-color="#fff44f" stop-opacity="0"/></linearGradient></defs><style>@keyframes Firefox_logo_t{0%{transform:translate(216.127px,215.95px) scale(.75,.750024) translate(-216.127px,-215.95px)}2.5%{transform:translate(216.127px,215.95px) scale(.75,.750024) translate(-216.127px,-215.95px);animation-timing-function:cubic-bezier(.5,0,.5,1)}25%,41.6666%,58.3333%,75%,8.3333%,91.6666%{transform:translate(216.127px,215.95px) scale(1,1) translate(-216.127px,-215.95px);animation-timing-function:cubic-bezier(.5,0,.5,1)}16.6666%,33.3333%,50%,66.6666%,83.3333%{transform:translate(216.127px,215.95px) scale(.75,.75) translate(-216.127px,-215.95px);animation-timing-function:cubic-bezier(.5,0,.5,1)}to{transform:translate(216.127px,215.95px) scale(.75,.75) translate(-216.127px,-215.95px)}}#prefix__Firefox_logo{animation:12s linear infinite both Firefox_logo_t}@media(prefers-reduced-motion:reduce){#prefix__Firefox_logo{animation:none}}</style><g id="prefix__Firefox_logo" transform="matrix(.75 0 0 .75002 54.032 53.982)"><path id="prefix__shape-base" d="M339.4 170.8c-5.8-13.9-17.5-28.9-26.7-33.6 7.5 14.7 11.9 29.4 13.5 40.4v.2c-15-37.5-40.6-52.6-61.4-85.6-1.1-1.6-2.1-3.4-3.2-5.1-.5-.9-1.1-1.8-1.4-2.8-.9-1.6-1.5-3.5-2-5.3 0-.2-.1-.3-.3-.4h-.3-.1s-.1 0-.1.1c0 0 0-.1.1-.1-33.4 19.6-44.8 55.8-45.8 73.9-13.4 1-26.1 5.9-36.6 14.1-1.1-1-2.2-1.8-3.5-2.6-3-10.6-3.2-21.9-.4-32.5-13.7 6.3-24.3 16.1-32 24.8h-.1c-5.3-6.7-4.9-28.7-4.6-33.4-.1-.3-4 2-4.4 2.3-4.6 3.3-9 7-13 11.2-4.5 4.6-8.7 9.6-12.4 14.9-8.6 12.1-14.7 25.8-17.8 40.3-.1.3-.1.6-.2.9-.3 1.2-1.2 7-1.3 8.3v.3c-1.2 6.1-1.9 12.2-2.1 18.4v.7c0 73.5 59.6 133.1 133.1 133.1 65.8 0 120.5-47.8 131.2-110.6l.6-5.1c2.5-22.7-.5-46.7-8.8-66.8zM186 275c.6.3 1.3.6 1.8.9 0 0 .1 0 .1.1-.7-.4-1.3-.7-1.9-1zm140.2-97.2z" fill="url(#prefix__Gradient-0)"/><path id="prefix__body-outer-ring" d="M339.4 170.8c-5.8-13.9-17.5-28.9-26.7-33.6 7.5 14.7 11.9 29.4 13.5 40.4v.2c12.5 34 5.7 68.6-4.1 89.8-15.2 32.8-52.1 66.3-110 64.7-62.5-1.8-117.5-48.1-127.7-108.8-1.8-9.5 0-14.5 1-22.2-1.2 6-1.5 7.7-2.1 18.4v.7c0 73.5 59.6 133.1 133.1 133.1 65.8 0 120.5-47.8 131.2-110.6l.6-5.1c2.5-22.9-.5-46.9-8.8-67z" fill="url(#prefix__Gradient-1)"/><path id="prefix__body-outer-ring-shadow" d="M339.4 170.8c-5.8-13.9-17.5-28.9-26.7-33.6 7.5 14.7 11.9 29.4 13.5 40.4v.2c12.5 34 5.7 68.6-4.1 89.8-15.2 32.8-52.1 66.3-110 64.7-62.5-1.8-117.5-48.1-127.7-108.8-1.8-9.5 0-14.5 1-22.2-1.2 6-1.5 7.7-2.1 18.4v.7c0 73.5 59.6 133.1 133.1 133.1 65.8 0 120.5-47.8 131.2-110.6l.6-5.1c2.5-22.9-.5-46.9-8.8-67z" fill="url(#prefix__Gradient-2)"/><path id="prefix__tail-tip" d="M274.7 186.5l.9.6c-3.4-6-7.5-11.4-12.3-16.1-41.4-41.4-10.9-89.7-5.7-92.1 0 0 0-.1.1-.1-33.4 19.6-44.8 55.8-45.8 73.9 1.5-.1 3.1-.2 4.7-.2 24.7-.1 46.5 13.6 58.1 34z" fill="url(#prefix__Gradient-3)"/><path id="prefix__globe-base" d="M216.4 194.7c-.2 3.3-12 14.7-16 14.7-37.9 0-44 22.9-44 22.9 1.6 19.3 15.1 35.2 31.3 43.6.8.4 1.4.8 2.2 1.1 1.3.6 2.6 1.1 4 1.6 5.6 1.9 11.4 3.1 17.4 3.4 66.3 3.1 79.2-79.3 31.3-103.2 12.2-2.1 25 2.8 32.1 7.8-11.7-20.3-33.4-34-58.3-34-1.5 0-3.1.1-4.7.2-13.4 1-26.1 5.9-36.6 14.1 2 1.7 4.3 4 9.2 8.8 9 8.7 32.1 18 32.1 19z" fill="url(#prefix__Gradient-4)"/><path id="prefix__globe-shadow" d="M216.4 194.7c-.2 3.3-12 14.7-16 14.7-37.9 0-44 22.9-44 22.9 1.6 19.3 15.1 35.2 31.3 43.6.8.4 1.4.8 2.2 1.1 1.3.6 2.6 1.1 4 1.6 5.6 1.9 11.4 3.1 17.4 3.4 66.3 3.1 79.2-79.3 31.3-103.2 12.2-2.1 25 2.8 32.1 7.8-11.7-20.3-33.4-34-58.3-34-1.5 0-3.1.1-4.7.2-13.4 1-26.1 5.9-36.6 14.1 2 1.7 4.3 4 9.2 8.8 9 8.7 32.1 18 32.1 19z" fill="url(#prefix__Gradient-5)"/><path id="prefix__ear" d="M168.9 162.4c1 .6 1.8 1.3 2.8 1.8-3-10.6-3.2-21.9-.4-32.5-13.7 6.3-24.3 16.1-32 24.8.6-.1 19.9-.5 29.6 5.9z" fill="url(#prefix__Gradient-6)"/><path id="prefix__body" d="M84.4 223.5c10.3 60.7 65.3 107 127.7 108.8 57.8 1.6 94.8-31.9 110-64.7 9.8-21.1 16.7-55.8 4.1-89.8v-.1-.1.2c4.7 30.8-11 60.7-35.5 80.9l-.1.2c-47.8 38.9-93.5 23.4-102.8 17.2-.7-.3-1.3-.7-1.9-1-27.9-13.3-39.3-38.7-36.9-60.4-23.5 0-31.5-19.9-31.5-19.9s21.1-15 49-1.9c25.7 12.1 49.9 1.9 49.9 1.9-.1-1.1-23.2-10.3-32.3-19.2-4.8-4.7-7.1-7-9.2-8.8-1.1-1-2.2-1.8-3.5-2.6-.9-.6-1.8-1.3-2.8-1.8-9.7-6.3-29-6-29.7-6h-.1c-5.3-6.7-4.9-28.7-4.6-33.4-.1-.3-4 2-4.4 2.3-4.6 3.3-9 7-13 11.2-4.5 4.6-8.7 9.6-12.4 14.9-8.6 12.1-14.7 25.8-17.8 40.3.2.3-4.6 21.1-2.2 31.8z" fill="url(#prefix__Gradient-7)"/><path id="prefix__tail-flame" d="M263.2 170.9c4.8 4.7 9.1 10.2 12.3 16.1.8.6 1.4 1.1 2 1.6 30.2 27.8 14.4 67.1 13.2 69.9 24.5-20.1 40.2-50 35.5-80.9-15-37.5-40.6-52.6-61.4-85.6-1.1-1.6-2.1-3.4-3.2-5.1-.5-.9-1.1-1.8-1.4-2.8-.9-1.6-1.5-3.5-2-5.3 0-.2-.1-.3-.3-.4h-.3-.1s-.1 0-.1.1c-5.1 2.8-35.6 51.1 5.8 92.4z" fill="url(#prefix__Gradient-8)"/><path id="prefix__tail-small" d="M277.5 188.7c-.6-.6-1.3-1.1-2-1.6l-.9-.6c-7.1-5-19.9-9.9-32.1-7.8 47.9 23.9 35 106.3-31.3 103.2-5.9-.3-11.8-1.3-17.4-3.4-1.3-.5-2.6-1.1-4-1.6-.8-.4-1.5-.7-2.2-1.1 0 0 .1 0 .1.1 9.3 6.4 54.9 21.8 102.8-17.2l.1-.2c1.3-2.6 17.1-42-13.1-69.8z" fill="url(#prefix__Gradient-9)"/><path id="prefix__cheek-tufts" d="M156.5 232.3s6.2-22.9 44-22.9c4 0 15.8-11.4 16-14.7.2-3.3-24.2 10.1-49.9-1.9-27.9-13.1-49 1.9-49 1.9s8 19.9 31.5 19.9c-2.5 21.8 9.1 47.1 36.9 60.4.6.3 1.3.6 1.8.9-16.2-8.4-29.7-24.3-31.3-43.6z" fill="url(#prefix__Gradient-10)"/><path id="prefix__overlay-yellow" d="M339.4 170.8c-5.8-13.9-17.5-28.9-26.7-33.6 7.5 14.7 11.9 29.4 13.5 40.4v.2c-15-37.5-40.6-52.6-61.4-85.6-1.1-1.6-2.1-3.4-3.2-5.1-.5-.9-1.1-1.8-1.4-2.8-.9-1.6-1.5-3.5-2-5.3 0-.2-.1-.3-.3-.4h-.3-.1s-.1 0-.1.1c0 0 0-.1.1-.1-33.4 19.6-44.8 55.8-45.8 73.9 1.5-.1 3.1-.2 4.7-.2 25 0 46.7 13.7 58.3 34-7.1-5-19.9-9.9-32.1-7.8 47.9 23.9 35 106.3-31.3 103.2-5.9-.3-11.8-1.3-17.4-3.4-1.3-.5-2.6-1.1-4-1.6-.8-.4-1.5-.7-2.2-1.1 0 0 .1 0 .1.1-.7-.3-1.3-.7-1.9-1 .6.3 1.3.6 1.8.9-16.3-8.4-29.7-24.3-31.3-43.6 0 0 6.2-22.9 44-22.9 4 0 15.8-11.4 16-14.7-.1-1.1-23.2-10.3-32.3-19.2-4.8-4.7-7.1-7-9.2-8.8-1.1-1-2.2-1.8-3.5-2.6-3-10.6-3.2-21.9-.4-32.5-13.7 6.3-24.3 16.1-32 24.8-5.3-6.7-4.9-28.7-4.6-33.4-.1-.3-4 2-4.4 2.3-4.6 3.3-9 7-13 11.2-4.5 4.6-8.7 9.6-12.4 14.9-8.6 12.1-14.7 25.8-17.8 40.3-.1.3-.1.6-.2.9-.3 1.2-1.3 7.1-1.5 8.4 0 .1 0-.1 0 0-1.1 6.2-1.6 12.3-1.9 18.6v.7c0 73.5 59.6 133.1 133.1 133.1 65.8 0 120.5-47.8 131.2-110.6l.6-5.1c2.6-22.5-.4-46.5-8.7-66.6zm-13.2 6.9z" fill="url(#prefix__Gradient-11)"/></g></svg>
