<!-- This Source Code Form is subject to the terms of the Mozilla Public
   - License, v. 2.0. If a copy of the MPL was not distributed with this
   - file, You can obtain one at http://mozilla.org/MPL/2.0/. -->
<svg xmlns="http://www.w3.org/2000/svg" viewBox="0 0 16 16" width="16" height="16" fill="context-fill" fill-opacity="context-fill-opacity">
<style>
.nova { display: none; }

@media -moz-pref("browser.nova.enabled") {
  .proton { display: none; }
  .nova { display: revert; }
}
</style>
<g class="proton">
  <path d="M12.25 15a2 2 0 0 0 2-2l0-1.375a.625.625 0 0 0-1.25 0l0 1.525-.6.6-9.55 0-.6-.6 0-1.525a.625.625 0 0 0-1.25 0L1 13a2 2 0 0 0 2 2l9.25 0z"/>
  <path d="M10.359 11c-.238 0-.477-.067-.689-.201L7.625 9.506 5.58 10.799a1.289 1.289 0 0 1-1.448-.047 1.282 1.282 0 0 1-.492-1.363l.598-2.344-1.862-1.546a1.287 1.287 0 0 1-.403-1.393 1.286 1.286 0 0 1 1.145-.889l2.414-.156.894-2.248C6.622.319 7.093 0 7.625 0s1.003.319 1.2.813l.894 2.248 2.415.156c.529.034.979.383 1.144.889a1.289 1.289 0 0 1-.403 1.394l-1.861 1.545.598 2.344a1.283 1.283 0 0 1-.492 1.363 1.302 1.302 0 0 1-.761.248zM7.291 8.238l.668 0 1.969 1.245a.2.2 0 0 0 .302-.214L9.704 6.97l.206-.635 1.792-1.488a.2.2 0 0 0-.11-.353l-2.349-.211-.54-.393c0 0-.578-1.454-.888-2.204a.2.2 0 0 0-.37.002l-.898 2.203-.54.393-2.325.15a.2.2 0 0 0-.119.35L5.34 6.336l.206.635-.576 2.256a.2.2 0 0 0 .297.221l2.024-1.21z"/>
</g>
<g class="nova">
  <path d="M14.25 11a.75.75 0 0 1 .75.75v1.256c0 1.38-1.024 2.57-2.414 2.731a40 40 0 0 1-8.526.069l-.622-.067A2.76 2.76 0 0 1 1 13.003V11.75a.75.75 0 0 1 1.5 0v1.253c0 .635.48 1.174 1.11 1.246l.597.063a38.6 38.6 0 0 0 8.207-.065 1.24 1.24 0 0 0 1.086-1.241V11.75a.75.75 0 0 1 .75-.75" />
  <path fill-rule="evenodd" d="M7.999 1c.592 0 1.115.355 1.334.906l.785 1.971 2.405.156c.57.037 1.065.41 1.262.951a1.4 1.4 0 0 1-.356 1.515q-.237.226-.51.455-.69.582-1.467 1.049l.562 2.208a1.41 1.41 0 0 1-.514 1.49 1.44 1.44 0 0 1-.878.297 1.46 1.46 0 0 1-.71-.184q-.489-.274-1.004-.624A13 13 0 0 1 8 10.504q-.444.366-.908.686-.515.35-1.003.624a1.45 1.45 0 0 1-1.591-.113 1.41 1.41 0 0 1-.514-1.49l.562-2.208a11.6 11.6 0 0 1-1.978-1.505 1.4 1.4 0 0 1-.355-1.514c.196-.54.69-.914 1.264-.95l2.403-.157.786-1.973A1.43 1.43 0 0 1 7.999 1m-.898 3.87a.75.75 0 0 1-.648.47l-2.73.178q.154.142.322.284c.532.448 1.112.84 1.726 1.168a.75.75 0 0 1 .373.847l-.667 2.618q.376-.217.768-.483.528-.362 1.022-.79c.214-.186.475-.278.735-.278H8c.261 0 .522.093.735.278.328.284.672.55 1.022.79q.392.268.768.483l-.667-2.618a.75.75 0 0 1 .373-.847 10 10 0 0 0 2.048-1.452L9.55 5.34a.75.75 0 0 1-.648-.47l-.9-2.263z" clip-rule="evenodd" />
</g>
</svg>
