<!-- This Source Code Form is subject to the terms of the Mozilla Public
   - License, v. 2.0. If a copy of the MPL was not distributed with this
   - file, You can obtain one at http://mozilla.org/MPL/2.0/. -->
<svg xmlns="http://www.w3.org/2000/svg" viewBox="0 0 16 16" width="16" height="16" fill="context-fill" fill-opacity="context-fill-opacity">
<style>
.nova { display: none; }

@media -moz-pref("browser.nova.enabled") {
  .proton { display: none; }
  .nova { display: revert; }
}
</style>
<g class="proton">
  <path d="M3.475 9.824.615 7.449A1.207 1.207 0 0 1 .237 6.14a1.205 1.205 0 0 1 1.074-.835l3.697-.239.501-.375 1.364-3.427C7.059.8 7.501.5 8 .5s.941.3 1.127.763l0 .001 1.364 3.427.501.375 3.697.239c.498.032.92.36 1.074.835.155.476.006.99-.378 1.309L12.53 9.82l-.18.592.91 3.575c.123.485-.059.986-.463 1.279a1.213 1.213 0 0 1-1.36.045L8.31 13.334l-.621 0-3.126 1.977c-.426.266-.96.247-1.361-.045a1.205 1.205 0 0 1-.463-1.279l.908-3.566-.172-.597z"/>
</g>
<g class="nova">
  <path d="M8 1.026c.516 0 .957.3 1.148.78l1.293 3.248 3.894.252c.501.033.918.348 1.09.823a1.2 1.2 0 0 1-.302 1.294 15.5 15.5 0 0 1-3.163 2.313l.942 3.698c.123.486-.045.978-.44 1.28-.403.311-.93.346-1.376.096a17.3 17.3 0 0 1-2.915-2.048.25.25 0 0 0-.339 0 18 18 0 0 1-2.915 2.048 1.3 1.3 0 0 1-.62.165h-.003c-.267 0-.53-.088-.756-.26a1.21 1.21 0 0 1-.44-1.28l.942-3.699A15.5 15.5 0 0 1 .877 7.423 1.2 1.2 0 0 1 .575 6.13c.173-.475.59-.79 1.09-.823l3.894-.252 1.293-3.249c.19-.48.632-.779 1.148-.779" />
</g>
</svg>
