<!-- This Source Code Form is subject to the terms of the Mozilla Public
   - License, v. 2.0. If a copy of the MPL was not distributed with this
   - file, You can obtain one at http://mozilla.org/MPL/2.0/. -->
<svg xmlns="http://www.w3.org/2000/svg" viewBox="0 0 12 12" width="12" height="12" fill-opacity="context-fill-opacity">
<style>
.nova { display: none; }

@media -moz-pref("browser.nova.enabled") {
  .proton { display: none; }
  .nova { display: revert; }
}
</style>
<g class="proton">
  <path fill="context-fill" d="M3.1 7.2 1.3 5.6C1 5.4.9 5.1 1 4.8c.1-.3.4-.5.7-.5l2.4-.2.3-.2.9-2.2c.1-.3.4-.5.7-.5.3 0 .6.2.7.5l.9 2.2.3.2 2.4.2c.3 0 .6.2.7.5s0 .6-.2.8L9 7.1l-.1.4.6 2.3c.1.3 0 .6-.3.8-.1.1-.3.1-.5.1-.1 0-.3 0-.4-.1l-2-1.3-.5 0-2 1.3c-.3.2-.6.2-.9 0-.3-.2-.4-.5-.3-.8l.6-2.3-.1-.3z"/>
  <path fill="context-stroke" d="M6 1.2c.3 0 .6.2.7.5l.9 2.2.3.2 2.4.2c.3 0 .6.2.7.5.1.3 0 .6-.2.8L9 7.1l-.1.4.6 2.3c.1.3 0 .6-.3.8-.1.1-.3.1-.5.1-.1 0-.3 0-.4-.1l-2-1.3-.5 0-2 1.3c-.1.1-.3.1-.4.1-.2 0-.3-.1-.5-.1-.3-.2-.4-.5-.3-.8l.6-2.3-.1-.3-1.8-1.6C1 5.4.9 5.1 1 4.8c.1-.3.4-.5.7-.5l2.4-.2.3-.2.9-2.2c.1-.3.4-.5.7-.5m0-1c-.7 0-1.4.4-1.6 1.1l-.8 1.9-2 .1C.9 3.3.3 3.8 0 4.5c-.1.7.1 1.5.6 1.9l1.5 1.3-.5 1.9c-.2.7.1 1.4.7 1.9.3.2.7.3 1 .3.3 0 .7-.1.9-.3l1.8-1 1.7 1.1c.3.2.6.3.9.3.4 0 .7-.1 1-.3.6-.4.9-1.2.7-1.9l-.5-1.9 1.5-1.3c.6-.5.8-1.2.6-1.9-.2-.7-.8-1.2-1.6-1.2l-2-.1-.7-2C7.4.6 6.7.2 6 .2z"/>
</g>
<g class="nova">
  <path d="M6.002.858c.527 0 .983.312 1.178.799l.772 1.94 2.358.153h-.001c.512.032.943.36 1.116.84.17.472.051.987-.312 1.333v.001a10 10 0 0 1-.485.433v-.001c-.454.382-.941.725-1.451 1.027l.557 2.183.033.186c.045.432-.133.856-.486 1.128v.001a1.27 1.27 0 0 1-.775.266h-.207l-.026-.026a1.3 1.3 0 0 1-.399-.141h-.002A12.4 12.4 0 0 1 6 9.684q-.444.373-.923.703v.001c-.3.206-.62.404-.947.59l-.004.001a1.27 1.27 0 0 1-1.401-.1v.001a1.25 1.25 0 0 1-.488-1.131l.034-.186.554-2.182A11 11 0 0 1 .892 5.926L.89 5.924A1.24 1.24 0 0 1 .579 4.59c.174-.48.605-.806 1.116-.84l2.356-.153.772-1.94.085-.174A1.25 1.25 0 0 1 6.002.858" />
</g>
</svg>
