<!-- This Source Code Form is subject to the terms of the Mozilla Public
   - License, v. 2.0. If a copy of the MPL was not distributed with this
   - file, You can obtain one at http://mozilla.org/MPL/2.0/. -->
<svg xmlns="http://www.w3.org/2000/svg" viewBox="0 0 16 16" width="16" height="16" fill="context-fill" fill-opacity="context-fill-opacity">
<style>
.nova { display: none; }

@media -moz-pref("browser.nova.enabled") {
  .proton { display: none; }
  .nova { display: revert; }
}
</style>
<g class="proton">
  <path d="M.625 13a.625.625 0 0 1 0-1.25l3.25 0A4.88 4.88 0 0 0 8.75 6.875l0-.25a.625.625 0 0 1 1.25 0l0 .25A6.132 6.132 0 0 1 3.875 13l-3.25 0z"/>
  <path d="M12.096 15.248a.625.625 0 0 1-.491-1.012c4.281-5.446 3.261-8.813 2.271-10.337-1.346-2.07-4.169-3.106-6.71-2.464-2.428.615-3.951 2.583-4.178 5.397-.027.345-.364.585-.673.574a.626.626 0 0 1-.573-.673C2.011 3.4 3.924.967 6.859.224c3.044-.768 6.437.489 8.064 2.995 1.172 1.803 2.426 5.732-2.337 11.791a.622.622 0 0 1-.49.238z"/>
  <path d="M5.734 16a.624.624 0 0 1-.165-1.228c5.912-1.62 6.147-7.768 6.148-7.829a2.113 2.113 0 0 0-.457-1.708 2.713 2.713 0 0 0-1.689-.947c-.683-.109-1.357.021-1.902.371-.521.334-.859.83-.95 1.396l-.217 1.209a3.621 3.621 0 0 1-3.567 2.986l-2.31 0a.625.625 0 0 1 0-1.25l2.31 0a2.373 2.373 0 0 0 2.337-1.957l.215-1.196c.146-.912.683-1.711 1.509-2.24a3.95 3.95 0 0 1 2.774-.553 3.964 3.964 0 0 1 2.461 1.394c.618.762.878 1.688.729 2.611.005 0-.27 7.059-7.061 8.919a.619.619 0 0 1-.165.022z"/>
</g>
<g class="nova">
  <path d="M.22 1.22a.75.75 0 0 1 1.061 0l13.5 13.5a.75.75 0 0 1-.53 1.281h-.001a.75.75 0 0 1-.53-.221l-.91-.91q-.155.207-.32.42l-.373.46a.743.743 0 0 1-1.3-.5.74.74 0 0 1 .16-.445l.333-.445q.223-.284.426-.564l-1.071-1.071c-.896 1.188-2.178 2.3-4.021 3.021l-.439.19a.747.747 0 0 1-.985-.39.75.75 0 0 1 .392-.986l.463-.2c1.636-.64 2.749-1.647 3.51-2.714l-.922-.923A5.74 5.74 0 0 1 3.75 13.5h-3a.75.75 0 0 1 0-1.5h3a4.23 4.23 0 0 0 3.804-2.386l-1.25-1.25A3.26 3.26 0 0 1 3.25 10.5H.75a.75.75 0 0 1 0-1.5h2.499c.965 0 1.75-.785 1.75-1.75L5 7.06 3.259 5.319q-.227.667-.317 1.437a.75.75 0 0 1-1.497-.013c.094-.94.322-1.801.664-2.574L.22 2.28a.75.75 0 0 1 0-1.059M6.633.304c3.095-.783 6.544.499 8.201 3.049.999 1.538 2.045 4.601-.49 9.164l-1.103-1.103c1.454-2.808 1.587-5.316.335-7.244C12.26 2.141 9.49 1.13 7.001 1.758a5.2 5.2 0 0 0-2.237 1.177L3.71 1.881A6.65 6.65 0 0 1 6.633.304" />
  <path d="M6.576 3.501a4.08 4.08 0 0 1 2.86-.57c2.13.342 3.607 2.204 3.295 4.149.001.08-.057 1.456-.691 3.131l-1.183-1.183c.341-1.135.381-2.002.384-2.09.19-1.226-.73-2.315-2.042-2.525a2.6 2.6 0 0 0-1.814.352 2 2 0 0 0-.424.367L5.9 4.071a3.6 3.6 0 0 1 .675-.57" />
  <path d="M8.75 6.25A.75.75 0 0 1 9.5 7v.671L8.267 6.438a.74.74 0 0 1 .483-.188" />
</g>
</svg>
