<!-- This Source Code Form is subject to the terms of the Mozilla Public
   - License, v. 2.0. If a copy of the MPL was not distributed with this
   - file, You can obtain one at http://mozilla.org/MPL/2.0/. -->
<svg width="16" height="16" viewBox="0 0 16 16" xmlns="http://www.w3.org/2000/svg" fill="context-fill" fill-opacity="context-fill-opacity">
<style>
.nova { display: none; }

@media -moz-pref("browser.nova.enabled") {
  .proton { display: none; }
  .nova { display: revert; }
}
</style>
<g class="proton">
<path d="M12.88 5.07999C12.61 4.63999 11.88 4.63999 11.6 5.07999C11.35 5.48999 11.04 5.86999 10.7 6.20999C10.33 3.39999 8.35 0.989993 5.55 0.0399925C5.28 -0.0500075 4.99 0.0199925 4.79 0.209993C4.59 0.409993 4.51 0.699993 4.6 0.969993C5.21 2.92999 4.76 5.08999 3.42 6.65999C3.4 6.67999 3.37 6.70999 3.35 6.72999C3.33 6.74999 3.31 6.77999 3.29 6.79999L3.24 6.85999C3.24 6.85999 3.21 6.89999 3.2 6.91999C1.46 9.13999 1.66 12.35 3.7 14.35C4.82 15.44 6.29 15.99 7.76 15.99C9.23 15.99 10.71 15.44 11.83 14.34C13.23 12.93 14 11.04 14 8.99999C14 7.60999 13.61 6.24999 12.88 5.06999V5.07999ZM10.77 13.28C10.52 13.53 10.23 13.72 9.94 13.9C9.98 13.69 10 13.48 10 13.26C10 11.84 9.3 10.56 8.21 10.05C8.08 9.98999 7.92 9.98999 7.79 10.05C6.7 10.56 6 11.84 6 13.26C6 13.58 6.04 13.88 6.11 14.18C5.61 13.98 5.15 13.68 4.75 13.29C3.22 11.8 3.08 9.47999 4.4 7.83999C5.85 6.25999 6.54 4.14999 6.35 2.05999C8.15 3.15999 9.29 5.09999 9.29 7.22999C9.29 7.37999 9.29 7.52999 9.27 7.66999C9.25 7.94999 9.39 8.21999 9.63 8.36999C9.87 8.51999 10.17 8.50999 10.42 8.36999C11.06 7.96999 11.64 7.47999 12.13 6.91999C12.38 7.58999 12.51 8.29999 12.51 9.01999C12.51 10.66 11.89 12.18 10.78 13.29L10.77 13.28Z"/>
</g>
<g class="nova">
  <path fill-rule="evenodd" d="M4.272.523C4.49.513 4.89.5 5.1.53c2.735.413 4.968 2.654 5.578 5.385l1.016-.873a.75.75 0 0 1 1.071.098c2.238 2.772 2.34 6.69.239 8.761-.984 1.218-2.55 1.956-4.415 2.08a8 8 0 0 1-.546.018c-1.88 0-3.688-.643-4.817-1.732-1.546-1.494-2.076-3.346-1.495-5.211.206-.66.991-2.081 1.476-2.67 1.165-1.561.859-3.514.394-4.87a.753.753 0 0 1 .673-.992m1.051 1.581c.442 2 .125 3.786-.938 5.208-.38.463-1.076 1.714-1.224 2.189-.519 1.664.314 2.923 1.105 3.687.453.438 1.079.782 1.792 1.008a8 8 0 0 1-.038-.713c0-2.157.662-3.64 1.718-4.414a.33.33 0 0 1 .2-.067V9h.004v.002q.106-.001.2.067h.003c1.055.774 1.718 2.258 1.718 4.414 0 .236-.016.496-.043.765.853-.258 1.555-.706 2.038-1.316a1 1 0 0 1 .067-.074c1.419-1.37 1.43-4.044.123-6.143l-1.467 1.26a.752.752 0 0 1-1.24-.568c0-2.486-1.73-4.727-4.018-5.303" clip-rule="evenodd" />
</g>
</svg>
