<!-- This Source Code Form is subject to the terms of the Mozilla Public
   - License, v. 2.0. If a copy of the MPL was not distributed with this
   - file, You can obtain one at http://mozilla.org/MPL/2.0/. -->
<svg xmlns="http://www.w3.org/2000/svg" viewBox="0 0 16 16" width="16" height="16" fill="context-fill" fill-opacity="context-fill-opacity">
<style>
.nova { display: none; }

@media -moz-pref("browser.nova.enabled") {
  .proton { display: none; }
  .nova { display: revert; }
}
</style>
<g class="proton">
  <path d="M15.817.183a.626.626 0 0 0-.885 0l-3.625 3.625-.281-.281-1.173-1.173A.5.5 0 0 0 9 2.707L9 6.7l.3.3 3.993 0a.5.5 0 0 0 .354-.854l-1.454-1.454 3.625-3.625a.626.626 0 0 0-.001-.884z"/>
  <path d="M3.707 8a.5.5 0 0 0-.354.854l1.454 1.454-3.625 3.625a.628.628 0 0 0 0 .885.63.63 0 0 0 .885-.001l3.625-3.625.281.281 1.173 1.173A.5.5 0 0 0 8 12.293L8 8.3 7.7 8 3.707 8z"/>
</g>
<g class="nova">
  <path d="M7.501 9a.5.5 0 0 1 .5.5v3.793a.5.5 0 0 1-.854.354L5.78 12.28l-3.5 3.5a.75.75 0 0 1-1.06 0 .75.75 0 0 1 0-1.061l3.499-3.5-1.365-1.366A.5.5 0 0 1 3.708 9zm7.219-8a.75.75 0 0 1 1.06 1.06l-3.61 3.61 1.476 1.475a.5.5 0 0 1-.354.855H9.5a.5.5 0 0 1-.5-.5V3.707a.5.5 0 0 1 .854-.355L11.11 4.61z" />
</g>
</svg>
