<!-- This Source Code Form is subject to the terms of the Mozilla Public
   - License, v. 2.0. If a copy of the MPL was not distributed with this
   - file, You can obtain one at http://mozilla.org/MPL/2.0/. -->
<svg xmlns="http://www.w3.org/2000/svg" viewBox="0 0 16 16" width="16" height="16" fill="context-fill" fill-opacity="context-fill-opacity">
<style>
.nova { display: none; }

@media -moz-pref("browser.nova.enabled") {
  .proton { display: none; }
  .nova { display: revert; }
}
</style>
<g class="proton">
  <path d="M7.625 1.75c3.446 0 6.25 2.804 6.25 6.25s-2.804 6.25-6.25 6.25-6.25-2.804-6.25-6.25 2.804-6.25 6.25-6.25m0-1.25a7.5 7.5 0 1 0 0 15 7.5 7.5 0 0 0 0-15z"/>
  <path d="M10.624 10.424a.625.625 0 0 1-.312-.084l-3-1.732L7 8.066l0-3.441a.625.625 0 0 1 1.25 0l0 3.081 2.688 1.552a.626.626 0 0 1-.314 1.166z"/>
</g>
<g class="nova">
  <path d="M8 4a.75.75 0 0 1 .75.75v3.173c0 .088.048.171.126.217l2.04 1.178a.75.75 0 0 1-.75 1.3l-2.041-1.18h-.001a1.75 1.75 0 0 1-.874-1.515V4.75A.75.75 0 0 1 8 4" />
  <path fill-rule="evenodd" d="M8 0a8 8 0 1 1 0 16A8 8 0 0 1 8 0m0 1.5a6.5 6.5 0 1 0 0 13 6.5 6.5 0 0 0 0-13" clip-rule="evenodd" />
</g>
</svg>
