<!-- This Source Code Form is subject to the terms of the Mozilla Public
   - License, v. 2.0. If a copy of the MPL was not distributed with this
   - file, You can obtain one at http://mozilla.org/MPL/2.0/. -->
<svg xmlns="http://www.w3.org/2000/svg" viewBox="0 0 16 16" width="16" height="16" fill="context-fill" fill-opacity="context-fill-opacity">
<style>
.nova { display: none; }

@media -moz-pref("browser.nova.enabled") {
  .proton { display: none; }
  .nova { display: revert; }
}
</style>
<g class="proton">
  <path d="M4.75 12a2 2 0 0 0 2 2L13 14a2 2 0 0 0 2-2l0-8a2 2 0 0 0-2-2L6.75 2a2 2 0 0 0-2 2l0 1.375a.625.625 0 0 0 1.25 0L6 3.85l.6-.6 6.55 0 .6.6 0 8.3-.6.6-6.55 0-.6-.6 0-1.212a.625.625 0 0 0-1.25 0l0 1.062z"/>
  <path d="M1.273 8.8a.625.625 0 0 1 0-1.25l6.725-.005 0-2.056a.5.5 0 0 1 .854-.354l2.823 2.823 0 .424-2.823 2.823a.5.5 0 0 1-.854-.354l0-2.056-6.725.005z"/>
</g>
<g class="nova">
  <path d="M5.415 1.225c2.388-.301 4.825-.3 7.2.004A2.75 2.75 0 0 1 15 3.957v9.084a2.76 2.76 0 0 1-2.415 2.732 28.7 28.7 0 0 1-7.2-.003A2.75 2.75 0 0 1 3 13.04V11.5h1.5v1.541c0 .63.462 1.163 1.075 1.24 2.252.289 4.562.29 6.823.005A1.26 1.26 0 0 0 13.5 13.04V3.957c0-.628-.462-1.16-1.075-1.239a27 27 0 0 0-6.822-.004A1.26 1.26 0 0 0 4.5 3.956v1.542H3V3.956a2.76 2.76 0 0 1 2.415-2.731" />
  <path d="M6.53 5.972c0-.42.507-.63.804-.333l2.528 2.528a.47.47 0 0 1 0 .665l-2.528 2.529a.47.47 0 0 1-.804-.333V9.25H.75a.75.75 0 0 1 0-1.5h5.78z" />
</g>
</svg>
