<!-- This Source Code Form is subject to the terms of the Mozilla Public
   - License, v. 2.0. If a copy of the MPL was not distributed with this
   - file, You can obtain one at http://mozilla.org/MPL/2.0/. -->
<svg width="16" height="16" viewBox="0 0 16 16" xmlns="http://www.w3.org/2000/svg" fill="context-fill" fill-opacity="context-fill-opacity">
<style>
.nova { display: none; }

@media -moz-pref("browser.nova.enabled") {
  .proton { display: none; }
  .nova { display: revert; }
}
</style>
<g class="proton">
<path fill-rule="evenodd" clip-rule="evenodd" d="M2 2C0.895786 2 0 2.89579 0 4V12C0 13.1042 0.895786 14 2 14H14C15.1042 14 16 13.1042 16 12V4C16 2.89579 15.1042 2 14 2H2ZM4 12.5H14C14.2758 12.5 14.5 12.2758 14.5 12V4C14.5 3.72421 14.2758 3.5 14 3.5H4V12.5Z"/>
</g>
<g class="nova">
  <path fill-rule="evenodd" d="M8 2c1.455 0 3.056.059 4.777.213l.746.072.258.04A2.76 2.76 0 0 1 16 5.024v5.95c0 1.4-1.049 2.59-2.454 2.737a53.6 53.6 0 0 1-11.068.003A2.76 2.76 0 0 1 0 10.975v-5.95c0-1.4 1.049-2.59 2.454-2.737A54 54 0 0 1 8 2m0 1.5c-1.41 0-2.746.058-4 .154v8.692a52 52 0 0 0 9.39-.126 1.246 1.246 0 0 0 1.11-1.245v-5.95c0-.638-.49-1.18-1.133-1.248A52 52 0 0 0 8 3.5" clip-rule="evenodd" />
</g>
</svg>
