<!-- This Source Code Form is subject to the terms of the Mozilla Public
   - License, v. 2.0. If a copy of the MPL was not distributed with this
   - file, You can obtain one at http://mozilla.org/MPL/2.0/. -->
<svg width="16" height="16" viewBox="0 0 16 16" fill="context-fill" xmlns="http://www.w3.org/2000/svg">
  <path d="M8.8552 15.7543C8.15134 16.2443 7.13553 15.9623 6.68362 15.2543C6.2377 14.5063 5.99575 13.5343 5.69381 12.7164C5.50584 12.2044 5.37987 11.6884 5.01794 11.2484C4.76598 10.9404 4.45205 10.7364 4.08412 10.5884C3.29227 10.2744 2.45843 10.0544 1.66658 9.7304C1.46862 9.6484 1.12868 9.5104 0.952716 9.4064C0.546794 9.19241 0.210857 8.90041 0.0728834 8.45042C-0.0470936 8.07043 -0.0210968 7.63243 0.166867 7.28044C0.876731 5.94446 4.01413 5.96246 5.00794 4.80248C5.32588 4.42848 5.47985 3.92849 5.64582 3.4725C5.68981 3.3465 5.7278 3.1925 5.78979 3.0765C5.95975 2.51051 6.47166 0.954536 6.81759 0.554542C7.02155 0.306546 7.2955 0.130549 7.60344 0.0485501C8.00937 -0.0554482 8.44328 0.0105507 8.80721 0.218547C9.32311 0.520543 9.66905 1.26853 9.81302 1.82252C9.885 1.98252 9.97699 2.27852 10.033 2.44251C10.159 2.80451 10.2809 3.1725 10.4009 3.5425C10.5169 3.89449 10.6429 4.27848 10.8408 4.59848C10.9788 4.81848 11.1648 5.00447 11.3847 5.14847C11.8466 5.45047 12.3465 5.55446 12.8584 5.75246C13.7043 6.07646 14.952 6.31245 15.6179 6.96044C16.0518 7.38444 16.1138 8.19642 15.8159 8.70241C15.6899 8.91041 15.5679 9.04241 15.382 9.20841C14.898 9.6204 13.3803 10.1204 12.7445 10.3244C11.1828 10.8244 10.8648 11.0724 10.3489 12.6044L9.88101 13.9723C9.66105 14.6143 9.46309 15.3623 8.8592 15.7523L8.8552 15.7543Z" fill="#C7B2FF"/>
</svg>
