<!-- This Source Code Form is subject to the terms of the Mozilla Public
   - License, v. 2.0. If a copy of the MPL was not distributed with this
   - file, You can obtain one at http://mozilla.org/MPL/2.0/. -->
<svg xmlns="http://www.w3.org/2000/svg" viewBox="0 0 12 12" width="12" height="12" fill="context-fill" fill-opacity="context-fill-opacity">
<style>
.nova { display: none; }

@media -moz-pref("browser.nova.enabled") {
  .proton { display: none; }
  .nova { display: revert; }
}
</style>
<g class="proton">
  <path d="M8.9 3.8c-.2-.2-.1-.5.1-.7.2-.1.6-.1.7.2.5.7.8 1.6.8 2.5 0 2.5-2 4.5-4.5 4.5l0 1.5c0 .2-.2.3-.3.1l-2-1.9 0-.4 1.9-1.9c.2-.2.4-.1.4.1l0 1.5c1.9 0 3.5-1.6 3.5-3.5 0-.7-.2-1.4-.6-2z"/>
  <path d="M3.1 8.2c.2.2.1.5-.1.7-.2.1-.6.1-.7-.2-.5-.7-.8-1.6-.8-2.5 0-2.5 2-4.5 4.5-4.5L6 .2c0-.2.2-.3.3-.1l2 1.9 0 .4-2 2c-.1.1-.3 0-.3-.2l0-1.5c-1.9 0-3.5 1.6-3.5 3.5 0 .7.2 1.4.6 2z"/>
</g>
<g class="nova">
  <path d="M9.481 3.7c.276 0 .48.186.582.431.271.569.436 1.196.436 1.868A4.5 4.5 0 0 1 6 10.5V11.6a.4.4 0 0 1-.684.281l-1.7-1.716a.4.4 0 0 1 0-.564l1.7-1.717A.4.4 0 0 1 6 8.166v1.082A3.253 3.253 0 0 0 9.249 6c0-.474-.106-.924-.292-1.33 0 0-.053-.11-.078-.207a.62.62 0 0 1 .603-.763M6 .4a.4.4 0 0 1 .684-.28l1.7 1.717a.4.4 0 0 1 0 .563l-1.7 1.717A.4.4 0 0 1 6 3.835V2.75A3.254 3.254 0 0 0 2.751 6c0 .475.106.925.292 1.33 0 0 .053.112.078.208a.62.62 0 0 1-.603.763c-.275 0-.479-.188-.581-.432A4.3 4.3 0 0 1 1.5 6 4.5 4.5 0 0 1 6 1.5z" />
</g>
</svg>
