<!-- This Source Code Form is subject to the terms of the Mozilla Public
   - License, v. 2.0. If a copy of the MPL was not distributed with this
   - file, You can obtain one at http://mozilla.org/MPL/2.0/. -->
<svg xmlns="http://www.w3.org/2000/svg" width="16" height="16" viewBox="0 0 16 16" fill="context-fill" fill-opacity="context-fill-opacity">
<style>
.nova { display: none; }

@media -moz-pref("browser.nova.enabled") {
  .proton { display: none; }
  .nova { display: revert; }
}
</style>
<g class="proton">
  <path d="M13.75 7V6L13.75 5.99215L13.0079 5.25004L13 5.25H12V4H13C14.1046 4 15 4.89543 15 6V7H13.75Z"/>
  <path d="M4.25 10V11L4.25004 11.0079L4.99215 11.75L5 11.75H6V13H5C3.89543 13 3 12.1046 3 11V10H4.25Z"/>
  <path d="M13 11.75H12V13H13C14.1046 13 15 12.1046 15 11V10H13.75V11L13.75 11.0079L13.0079 11.75L13 11.75Z"/>
  <path fill-rule="evenodd" d="M1 3C1 1.89543 1.89543 1 3 1H9C10.1046 1 11 1.89543 11 3V6C11 7.10457 10.1046 8 9 8H3C1.89543 8 1 7.10457 1 6V3ZM7 2.25H3C2.58579 2.25 2.25 2.58579 2.25 3V6C2.25 6.41421 2.58579 6.75 3 6.75H7V2.25ZM9 3C9.41421 3 9.75 3.33579 9.75 3.75V5.25C9.75 5.66421 9.41421 6 9 6C8.58579 6 8.25 5.66421 8.25 5.25V3.75C8.25 3.33579 8.58579 3 9 3Z"/>
  <path fill-rule="evenodd" d="M3 11V9H4.25V11C4.25 11.4142 4.58579 11.75 5 11.75H13C13.4142 11.75 13.75 11.4142 13.75 11V6C13.75 5.58579 13.4142 5.25 13 5.25H12V4H13C14.1046 4 15 4.89543 15 6V11C15 12.1046 14.1046 13 13 13H14.5C15.3284 13 16 13.6716 16 14.5C16 15.3284 15.3284 16 14.5 16H3.5C2.67157 16 2 15.3284 2 14.5C2 13.6716 2.67157 13 3.5 13H5C3.89543 13 3 12.1046 3 11ZM7.5 13.75C7.5 13.3358 7.83579 13 8.25 13H9.75C10.1642 13 10.5 13.3358 10.5 13.75C10.5 14.1642 10.1642 14.5 9.75 14.5H8.25C7.83579 14.5 7.5 14.1642 7.5 13.75Z"/>
  <path d="M4 2.25H3L2.99215 2.25004L2.25004 2.99215L2.25 3V4H1V3C1 1.89543 1.89543 1 3 1H4V2.25Z"/>
  <path d="M2.25 5V6L2.25004 6.00785L2.99215 6.74996L3 6.75H4V8H3C1.89543 8 1 7.10457 1 6L1 5H2.25Z"/>
</g>
<g class="nova">
  <path fill-rule="evenodd" d="M12.5 5.999c.717 0 1.377.048 1.969.122l.163.028A1.75 1.75 0 0 1 16 7.861v6.277c0 .905-.688 1.636-1.556 1.743a16 16 0 0 1-3.456.046l-.457-.05A1.75 1.75 0 0 1 9 14.137V7.859c0-.905.688-1.636 1.556-1.742a16 16 0 0 1 1.944-.118m0 1.5c-.388 0-.819.015-1.284.056l-.478.051a.264.264 0 0 0-.238.253v5.64h4V7.862a.25.25 0 0 0-.173-.242l-.044-.01A15 15 0 0 0 12.5 7.5" clip-rule="evenodd" />
  <path d="M3.415.264a40.2 40.2 0 0 1 9.147-.003A2.75 2.75 0 0 1 15 2.997V4.5h-1.5V2.997c0-.638-.477-1.174-1.11-1.246a38.6 38.6 0 0 0-8.804.004A1.24 1.24 0 0 0 2.5 2.994v5.012c0 .636.47 1.17 1.09 1.242 1.287.15 2.602.235 3.91.252v3H.75a.75.75 0 0 1 0-1.5h6.74a40 40 0 0 1-4.073-.262A2.743 2.743 0 0 1 1 8.006V2.994A2.74 2.74 0 0 1 3.415.264" />
</g>
</svg>
