<!-- This Source Code Form is subject to the terms of the Mozilla Public
   - License, v. 2.0. If a copy of the MPL was not distributed with this
   - file, You can obtain one at http://mozilla.org/MPL/2.0/. -->
<svg width="17" height="16" xmlns="http://www.w3.org/2000/svg" fill="context-fill light-dark(black, white)" fill-opacity="context-fill-opacity">
<style>
.nova { display: none; }

@media -moz-pref("browser.nova.enabled") {
  .proton { display: none; }
  .nova { display: revert; }
}
</style>
<g class="proton">
  <path fill-rule="nonzero" d="M15.37 15H17l-3.63-8.54a.75.75 0 0 0-.69-.46h-.82c-.3 0-.58.18-.7.46L9.32 10.8l-.01-.01a10.8 10.8 0 0 1-3.27-2.2 12.38 12.38 0 0 0 2.54-4.18L9.08 3H10V1.5H5.75V0h-1.5v1.5H0V3h7.5l-.33.91c-.47 1.31-1.2 2.52-2.13 3.56-.7-.9-1.25-1.9-1.63-2.97H1.8l.18.48a12.43 12.43 0 0 0 1.97 3.56c-.9.75-1.89 1.35-2.96 1.78v1.58a12.3 12.3 0 0 0 3.96-2.26 12.31 12.31 0 0 0 3.77 2.54L7.53 15h1.64l1.06-2.5h4.08l1.06 2.5Zm-4.5-4 1.4-3.3 1.4 3.3h-2.8Z"/>
</g>
<g class="nova">
  <path fill-rule="evenodd" d="M7.751 1.999v1.5l.044.02a40 40 0 0 1 5.206.42v1.515a39 39 0 0 0-1.987-.252l-.431 1.213A12.4 12.4 0 0 1 8.044 10.6a10.8 10.8 0 0 0 3.263 2.2c.004 0 .01.008.01.01l1.848-4.353a.75.75 0 0 1 .69-.457h.829a.75.75 0 0 1 .69.457L19.001 17h-1.63l-1.061-2.5h-4.08L11.169 17h-1.63l1.195-2.815a12.3 12.3 0 0 1-3.77-2.543A12.3 12.3 0 0 1 3 13.902v-1.58a10.8 10.8 0 0 0 2.963-1.786 12.4 12.4 0 0 1-1.978-3.553L3.814 6.5h1.594a10.9 10.9 0 0 0 1.636 2.97 10.9 10.9 0 0 0 2.125-3.557l.299-.84A38.8 38.8 0 0 0 1 5.454V3.94a40 40 0 0 1 5.286-.423L6.25 3.5V2zM12.866 13h2.806l-1.403-3.306z" clip-rule="evenodd" />
</g>
</svg>
