<!-- This Source Code Form is subject to the terms of the Mozilla Public
   - License, v. 2.0. If a copy of the MPL was not distributed with this
   - file, You can obtain one at http://mozilla.org/MPL/2.0/. -->
<svg xmlns="http://www.w3.org/2000/svg" viewBox="0 0 16 16" width="16" height="16" fill="context-fill" fill-opacity="context-fill-opacity">
<style>
.nova { display: none; }

@media -moz-pref("browser.nova.enabled") {
  .proton { display: none; }
  .nova { display: revert; }
}
</style>
<g class="proton">
  <path d="M13 1 3 1a2 2 0 0 0-2 2l0 9a2 2 0 0 0 2 2l10 0a2 2 0 0 0 2-2l0-9a2 2 0 0 0-2-2zM2.85 2.25l10.3 0 .6.6 0 2.15-11.5 0 0-2.15.6-.6zm10.3 10.5-10.3 0-.6-.6 0-5.9 11.5 0 0 5.9-.6.6z"/>
</g>
<g class="nova">
  <path fill-rule="evenodd" d="M8 2c1.455 0 3.056.059 4.777.213l.746.072.258.04A2.76 2.76 0 0 1 16 5.024v5.95c0 1.4-1.049 2.59-2.454 2.737a53.6 53.6 0 0 1-11.068.003A2.76 2.76 0 0 1 0 10.975v-5.95c0-1.4 1.049-2.59 2.454-2.737A54 54 0 0 1 8 2M1.5 7v3.975c0 .639.49 1.18 1.133 1.248a52 52 0 0 0 10.758-.003 1.246 1.246 0 0 0 1.109-1.245V7zM8 3.5c-1.945 0-3.75.11-5.39.28A1.246 1.246 0 0 0 1.5 5.025V5.5h13v-.475c0-.638-.49-1.18-1.133-1.248A52 52 0 0 0 8 3.5" clip-rule="evenodd" />
</g>
</svg>
