<!-- This Source Code Form is subject to the terms of the Mozilla Public
   - License, v. 2.0. If a copy of the MPL was not distributed with this
   - file, You can obtain one at https://mozilla.org/MPL/2.0/. -->
<svg width="32" height="32" viewBox="0 0 32 32" fill="context-fill" fill-opacity="context-fill-opacity" xmlns="http://www.w3.org/2000/svg">
<style>
.nova { display: none; }

@media -moz-pref("browser.nova.enabled") {
  .proton { display: none; }
  .nova { display: revert; }
}
</style>
<g class="proton">
<path fill-rule="evenodd" clip-rule="evenodd" d="M8.34307 3C8.85506 3.00001 9.36715 3.19495 9.75714 3.58594L22.3441 16.1729C23.125 16.9538 23.125 18.22 22.3441 19.001L20.9007 20.4443L28.1683 27.7119L26.4007 29.4795L19.1331 22.2119L17.7601 23.585C17.3701 23.976 16.858 24.1709 16.346 24.1709C15.834 24.1709 15.3229 23.976 14.9319 23.585L2.34503 10.998C1.56403 10.217 1.56403 8.95092 2.34503 8.16992L6.92901 3.58594C7.31901 3.19496 7.83109 3 8.34307 3ZM4.46612 9.58398L16.346 21.4639L20.223 17.5869L8.34307 5.70703L4.46612 9.58398Z"/>
<path fill-rule="evenodd" clip-rule="evenodd" d="M25.0003 3C27.7616 3.00017 30.0003 5.23868 30.0003 8C30.0003 10.7613 27.7616 12.9998 25.0003 13C22.2389 13 20.0003 10.7614 20.0003 8C20.0003 5.23858 22.2389 3 25.0003 3ZM25.0003 5.5C23.6196 5.5 22.5003 6.61929 22.5003 8C22.5003 9.38071 23.6196 10.5 25.0003 10.5C26.3809 10.4998 27.5003 9.38061 27.5003 8C27.5003 6.61939 26.3809 5.50017 25.0003 5.5Z"/>
</g>
<g class="nova">
  <path fill-rule="evenodd" d="M8.639 4a3.45 3.45 0 0 1 2.286.86A119 119 0 0 1 21.74 15.676c1.213 1.38 1.13 3.47-.17 4.77l-.18.178 5.243 5.242a1.25 1.25 0 0 1-1.769 1.768l-5.242-5.242-.178.18A3.5 3.5 0 0 1 16.96 23.6a3.45 3.45 0 0 1-2.286-.86A119 119 0 0 1 3.859 11.925c-1.213-1.38-1.13-3.469.17-4.769L6.154 5.03A3.5 3.5 0 0 1 8.64 4m-.001 2.499c-.156 0-.457.038-.716.297L5.796 8.922a.99.99 0 0 0-.06 1.351 117 117 0 0 0 5.124 5.465 118 118 0 0 0 5.465 5.124.95.95 0 0 0 .635.238c.156 0 .457-.038.716-.297l2.126-2.126a.99.99 0 0 0 .06-1.35A117 117 0 0 0 9.273 6.738a.94.94 0 0 0-.498-.23zM25 4a5 5 0 1 1 0 10 5 5 0 0 1 0-10m0 2.5a2.5 2.5 0 1 0 0 5 2.5 2.5 0 0 0 0-5" clip-rule="evenodd" />
</g>
</svg>
