<!-- This Source Code Form is subject to the terms of the Mozilla Public
   - License, v. 2.0. If a copy of the MPL was not distributed with this
   - file, You can obtain one at https://mozilla.org/MPL/2.0/. -->
<svg width="32" height="32" viewBox="0 0 32 32" fill="context-fill" fill-opacity="context-fill-opacity" xmlns="http://www.w3.org/2000/svg">
<style>
.nova { display: none; }

@media -moz-pref("browser.nova.enabled") {
  .proton { display: none; }
  .nova { display: revert; }
}
</style>
<g class="proton">
<path d="M19.6426 15.1836L18.2539 19.458H13.7598L12.3711 15.1836L16.0068 12.542L19.6426 15.1836Z"/>
<path fill-rule="evenodd" clip-rule="evenodd" d="M16.0068 2C23.7388 2 30.0068 8.26801 30.0068 16C30.0068 23.732 23.7388 30 16.0068 30C8.27496 29.9999 2.00684 23.7319 2.00684 16C2.00684 8.2681 8.27496 2.00013 16.0068 2ZM16.0059 8.91211L11.3115 5.50195C9.96176 6.1066 8.75029 6.96298 7.73633 8.0127L9.87012 13.5684L4.64746 17.7959C4.84766 19.0724 5.25907 20.2782 5.84277 21.3789L11.084 21.1055L13.4258 27.2051C14.2558 27.3955 15.1191 27.5 16.0068 27.5C16.944 27.5 17.8544 27.3844 18.7266 27.1729L20.2588 21.458L26.292 21.1416C26.8616 20.0044 27.2471 18.7609 27.4121 17.4473L22.3174 14.1387L24.0254 7.75977C23.0643 6.82437 21.9407 6.05634 20.7002 5.50098L16.0059 8.91211Z"/>
</g>
<g class="nova">
  <path d="M15.125 12.948a1.5 1.5 0 0 1 1.763 0l2.108 1.531a1.5 1.5 0 0 1 .545 1.677l-.805 2.478a1.5 1.5 0 0 1-1.427 1.036h-2.605a1.5 1.5 0 0 1-1.427-1.036l-.805-2.478a1.5 1.5 0 0 1 .545-1.676z" />
  <path fill-rule="evenodd" d="M16.007 2c7.732 0 14 6.268 14 14s-6.268 14-14 14-14-6.268-14-14 6.268-14 14-14m-4.694 3.501a11.5 11.5 0 0 0-3.576 2.512l1.742 4.538a1.5 1.5 0 0 1-.456 1.703l-4.375 3.542c.2 1.276.61 2.482 1.194 3.583l4.154-.217a1.5 1.5 0 0 1 1.479.96l1.951 5.083c.83.19 1.693.295 2.581.295.937 0 1.848-.116 2.72-.327l1.25-4.662a1.5 1.5 0 0 1 1.37-1.11l4.945-.26c.57-1.136.955-2.38 1.12-3.694l-4.181-2.715a1.5 1.5 0 0 1-.632-1.646l1.427-5.326A11.5 11.5 0 0 0 20.7 5.502l-3.812 2.77a1.5 1.5 0 0 1-1.763 0z" clip-rule="evenodd" />
</g>
</svg>
