<!-- This Source Code Form is subject to the terms of the Mozilla Public
   - License, v. 2.0. If a copy of the MPL was not distributed with this
   - file, You can obtain one at https://mozilla.org/MPL/2.0/. -->
<svg width="32" height="32" viewBox="0 0 32 32" fill="context-fill" fill-opacity="context-fill-opacity" xmlns="http://www.w3.org/2000/svg">
<style>
.nova { display: none; }

@media -moz-pref("browser.nova.enabled") {
  .proton { display: none; }
  .nova { display: revert; }
}
</style>
<g class="proton">
<path fill-rule="evenodd" clip-rule="evenodd" d="M16 2C23.732 2 30 8.26801 30 16C30 23.732 23.732 30 16 30C8.26801 30 2 23.732 2 16C2 8.26801 8.26801 2 16 2ZM16 4.5C13.1411 4.5 10.5273 5.54494 8.51562 7.27148C11.2962 9.26142 12.9999 12.4885 13 16.0078C13 19.519 11.2984 22.7445 8.52441 24.7354C10.535 26.4576 13.1451 27.5 16 27.5C18.8589 27.5 21.4717 26.454 23.4834 24.7275C20.7032 22.7375 19.0001 19.5109 19 15.9922C19 12.4811 20.7007 9.25487 23.4746 7.26367C21.4642 5.54199 18.8544 4.5 16 4.5ZM6.78516 9.11621C5.34923 11.0353 4.5 13.4188 4.5 16C4.5 18.5854 5.35279 20.9719 6.79297 22.8926C9.0822 21.3849 10.5 18.816 10.5 16.0078C10.4999 13.1934 9.08014 10.6226 6.78516 9.11621ZM25.2061 9.10645C22.917 10.6143 21.5 13.185 21.5 15.9922C21.5001 18.8061 22.9196 21.3763 25.2139 22.8828C26.6497 20.9638 27.5 18.5812 27.5 16C27.5 13.4141 26.6467 11.0273 25.2061 9.10645Z"/>
</g>
<g class="nova">
  <path fill-rule="evenodd" d="M16 2c7.732 0 14 6.268 14 14s-6.268 14-14 14S2 23.732 2 16 8.268 2 16 2m0 2.5a11.45 11.45 0 0 0-7.484 2.771A10.73 10.73 0 0 1 13 16.008c0 3.527-1.701 6.742-4.475 8.728A11.45 11.45 0 0 0 16 27.5c2.859 0 5.472-1.046 7.483-2.773A10.73 10.73 0 0 1 19 15.993c0-3.528 1.7-6.743 4.474-8.73A11.45 11.45 0 0 0 16 4.5M6.785 9.117A11.45 11.45 0 0 0 4.5 16c0 2.585.853 4.972 2.293 6.893a8.24 8.24 0 0 0 3.707-6.885 8.25 8.25 0 0 0-3.715-6.89m18.421-.01a8.24 8.24 0 0 0-3.706 6.885c0 2.8 1.42 5.38 3.714 6.89A11.45 11.45 0 0 0 27.5 16a11.45 11.45 0 0 0-2.294-6.894" clip-rule="evenodd" />
</g>
</svg>
