<!-- This Source Code Form is subject to the terms of the Mozilla Public
   - License, v. 2.0. If a copy of the MPL was not distributed with this
   - file, You can obtain one at https://mozilla.org/MPL/2.0/. -->
<svg width="32" height="32" viewBox="0 0 32 32" fill="context-fill" fill-opacity="context-fill-opacity" xmlns="http://www.w3.org/2000/svg">
<style>
.nova { display: none; }

@media -moz-pref("browser.nova.enabled") {
  .proton { display: none; }
  .nova { display: revert; }
}
</style>
<g class="proton">
<path d="M20 11.5V15.5L16 14.5V10.5L20 11.5Z"/>
<path fill-rule="evenodd" clip-rule="evenodd" d="M8.5 5.63574L11.5283 4.85449C13.8119 4.26482 16.2115 4.29619 18.4795 4.94434L18.9844 5.08984L18.9854 5.08887C20.9495 5.65045 23.0337 5.64015 24.9932 5.05957L28.3945 4.05176C28.7726 3.93973 29.182 4.01213 29.498 4.24805C29.8141 4.484 30 4.85562 30 5.25V18.75C30 19.3034 29.636 19.7908 29.1055 19.9482L25.7031 20.9561C23.2882 21.6716 20.72 21.6843 18.2988 20.9932L18.2979 20.9922L17.792 20.8477C15.9522 20.322 14.0055 20.2971 12.1533 20.7754L8.5 21.7178V30H6V2H8.5V5.63574ZM25.7031 7.45605C25.1426 7.62215 24.5734 7.74845 24 7.83887V11.5H20V7.8584C19.4277 7.77378 18.8592 7.65335 18.2988 7.49316L18.2979 7.49219L17.792 7.34766C17.2034 7.1795 16.6039 7.06154 16 6.99609V10.5H12V7.31445L8.5 8.21777V11.375L12 10.5V14.5L8.5 15.375V19.1357L11.5283 18.3545C11.685 18.314 11.8423 18.2768 12 18.2422V14.5H16V17.9863C16.8358 18.0599 17.6662 18.2119 18.4795 18.4443L18.9844 18.5889C19.3197 18.6846 19.6589 18.7617 20 18.8242V15.5H24V18.8018C24.3337 18.7366 24.6653 18.6567 24.9932 18.5596L27.5 17.8164V14.625L24 15.5V11.5L27.5 10.625V6.92285L25.7031 7.45605Z"/>
</g>
<g class="nova">
  <path d="M18 11.5v4l-4-1v-4z" />
  <path fill-rule="evenodd" d="M5.25 2c.69 0 1.25.56 1.25 1.25v1.782l3.663-.59.36-.053a13.2 13.2 0 0 1 5.39.393l1.073.308a10.75 10.75 0 0 0 6.007-.03C25.492 4.32 28 6.192 28 8.799v7.974a3.9 3.9 0 0 1-2.488 3.634l-.304.104-1.505.446a13.26 13.26 0 0 1-7.404.036l-1.073-.306a10.8 10.8 0 0 0-4.664-.278l-4.062.656v7.685a1.25 1.25 0 1 1-2.5 0V3.25C4 2.56 4.56 2 5.25 2M14 10.5h-4V6.999l-3.5.565v3.811L10 10.5v4l-3.5.875v3.157l3.5-.565V14.5h4v3.386a13 13 0 0 1 1.912.396l1.074.308q.503.142 1.014.234V15.5h4v3.3q.501-.095.993-.24l1.505-.446.11-.038a1.4 1.4 0 0 0 .892-1.303v-2.148L22 15.5v-4l3.5-.875V8.799a1.4 1.4 0 0 0-1.797-1.342q-.842.248-1.703.382V11.5h-4V7.857a13 13 0 0 1-1.701-.364l-1.073-.306A11 11 0 0 0 14 6.912z" clip-rule="evenodd" />
</g>
</svg>
