<!-- This Source Code Form is subject to the terms of the Mozilla Public
   - License, v. 2.0. If a copy of the MPL was not distributed with this
   - file, You can obtain one at https://mozilla.org/MPL/2.0/. -->
<svg width="32" height="32" viewBox="0 0 32 32" fill="context-fill" fill-opacity="context-fill-opacity" xmlns="http://www.w3.org/2000/svg">
<style>
.nova { display: none; }

@media -moz-pref("browser.nova.enabled") {
  .proton { display: none; }
  .nova { display: revert; }
}
</style>
<g class="proton">
<path d="M21.5 24C21.776 24 22 24.224 22 24.5V26C22 26.276 21.776 26.5 21.5 26.5H20.25C18.593 26.5 17.25 27.843 17.25 29.5V30.5C17.25 30.776 17.026 31 16.75 31H15.25C14.974 31 14.75 30.776 14.75 30.5V29.5C14.75 27.843 13.407 26.5 11.75 26.5H10.5C10.224 26.5 10 26.276 10 26V24.5C10 24.224 10.224 24 10.5 24H21.5Z"/>
<path d="M13.5 10C14.3284 10 15 10.6716 15 11.5C15 12.3284 14.3284 13 13.5 13C12.6716 13 12 12.3284 12 11.5C12 10.6716 12.6716 10 13.5 10Z"/>
<path d="M18.5 10C19.3284 10 20 10.6716 20 11.5C20 12.3284 19.3284 13 18.5 13C17.6716 13 17 12.3284 17 11.5C17 10.6716 17.6716 10 18.5 10Z"/>
<path d="M16 6.5C16.8284 6.5 17.5 7.17157 17.5 8C17.5 8.82843 16.8284 9.5 16 9.5C15.1716 9.5 14.5 8.82843 14.5 8C14.5 7.17157 15.1716 6.5 16 6.5Z"/>
<path fill-rule="evenodd" clip-rule="evenodd" d="M16 2C21.5228 2 26 6.47715 26 12C26 17.5228 21.5228 22 16 22C10.4772 22 6 17.5228 6 12C6 6.47715 10.4772 2 16 2ZM16 4.5C11.8579 4.5 8.5 7.85786 8.5 12C8.5 16.1421 11.8579 19.5 16 19.5C20.1421 19.5 23.5 16.1421 23.5 12C23.5 7.85786 20.1421 4.5 16 4.5Z"/>
</g>
<g class="nova">
  <path d="M16 24c1.859 0 3.542.143 5.013.348.565.079.987.557.987 1.128h.002c0 .582-.44 1.07-1.018 1.131l-1.707.193a2 2 0 0 0-1.776 1.987v.713a1.5 1.5 0 0 1-3 0v-.713a2 2 0 0 0-1.776-1.987l-1.707-.193A1.137 1.137 0 0 1 10 25.477c0-.562.412-1.048.968-1.126A36 36 0 0 1 16 24m-2.5-14a1.5 1.5 0 1 1 0 3 1.5 1.5 0 0 1 0-3m5 0a1.5 1.5 0 1 1 0 3 1.5 1.5 0 0 1 0-3M16 6.5a1.5 1.5 0 1 1 0 3 1.5 1.5 0 0 1 0-3" />
  <path fill-rule="evenodd" d="M16 2c5.523 0 10 4.477 10 10s-4.477 10-10 10S6 17.523 6 12 10.477 2 16 2m0 2.5a7.5 7.5 0 1 0 0 15 7.5 7.5 0 0 0 0-15" clip-rule="evenodd" />
</g>
</svg>
