<!-- This Source Code Form is subject to the terms of the Mozilla Public
   - License, v. 2.0. If a copy of the MPL was not distributed with this
   - file, You can obtain one at http://mozilla.org/MPL/2.0/. -->
<svg xmlns="http://www.w3.org/2000/svg" viewBox="0 0 20 20" width="20" height="20" fill="context-fill">
<style>
.nova { display: none; }

@media -moz-pref("browser.nova.enabled") {
  .proton { display: none; }
  .nova { display: revert; }
}
</style>
<g class="proton">
  <path d="M17 4.502v10.996a1.5 1.5 0 0 1-2.244 1.303l-9.621-5.498a1.514 1.514 0 0 1-.385-.312V17H3V3h1.75v6.01c.106-.12.234-.226.385-.312L14.756 3.2A1.5 1.5 0 0 1 17 4.502z"/>
</g>
<g class="nova">
  <path d="M13.634 3.299c1.5-.857 3.366.226 3.366 1.954v9.494c0 1.728-1.866 2.81-3.366 1.953l-8.307-4.747a2.3 2.3 0 0 1-.577-.468v4.64a.875.875 0 0 1-1.75 0V3.875a.875.875 0 0 1 1.75 0v4.639c.159-.18.35-.339.577-.468z" />
</g>
</svg>
