<!-- This Source Code Form is subject to the terms of the Mozilla Public
   - License, v. 2.0. If a copy of the MPL was not distributed with this
   - file, You can obtain one at http://mozilla.org/MPL/2.0/. -->
<svg xmlns="http://www.w3.org/2000/svg" viewBox="0 0 16 16" width="16" height="16" fill="context-fill" fill-opacity="context-fill-opacity">
<style>
.nova { display: none; }

@media -moz-pref("browser.nova.enabled") {
  .proton { display: none; }
  .nova { display: revert; }
}
</style>
<g class="proton">
  <path d="M8.25.625a.625.625 0 0 0-1.25 0l0 8.323-3.308-3.309a.626.626 0 0 0-.885.885L7.285 11l.681 0 4.477-4.476a.626.626 0 0 0-.885-.885L8.25 8.947l0-8.322z"/>
  <path d="M12.25 15a2 2 0 0 0 2-2l0-1.375a.625.625 0 0 0-1.25 0l0 1.525-.6.6-9.55 0-.6-.6 0-1.525a.625.625 0 0 0-1.25 0L1 13a2 2 0 0 0 2 2l9.25 0z"/>
</g>
<g class="nova">
  <path d="M14.25 11a.75.75 0 0 1 .75.75v1.256c0 1.38-1.024 2.57-2.414 2.731a40 40 0 0 1-8.526.069l-.622-.067A2.76 2.76 0 0 1 1 13.003V11.75a.75.75 0 0 1 1.5 0v1.253c0 .635.48 1.174 1.11 1.246l.597.063a38.6 38.6 0 0 0 8.207-.065 1.24 1.24 0 0 0 1.086-1.241V11.75a.75.75 0 0 1 .75-.75" />
  <path d="M8 1a.75.75 0 0 1 .75.75v7.897l2.22-2.22a.75.75 0 0 1 1.062 1.061l-3.146 3.146c-.236.236-.55.366-.884.366H8c-.334 0-.648-.13-.884-.366L3.97 8.488a.75.75 0 0 1 1.06-1.061l2.22 2.219V1.75A.75.75 0 0 1 8 1" />
</g>
</svg>
