<!-- This Source Code Form is subject to the terms of the Mozilla Public
   - License, v. 2.0. If a copy of the MPL was not distributed with this
   - file, You can obtain one at http://mozilla.org/MPL/2.0/. -->
<svg width="16" height="15" viewBox="0 0 16 15" fill="none" xmlns="http://www.w3.org/2000/svg">
<path d="M8.2896 0C11.5547 0.000110576 14.3318 2.08737 15.3619 5H13.7447C12.7962 2.935 10.7108 1.5001 8.2896 1.5C4.97615 1.5004 2.2896 4.18646 2.2896 7.5C2.2896 8.51201 2.5423 9.46414 2.98491 10.3008C3.09918 10.5168 3.10184 10.7755 2.99077 10.9932L1.8521 13.2188L4.17143 12.3379C4.37473 12.2606 4.60092 12.2762 4.79057 12.377V14.1279C4.64029 14.0482 4.49221 13.9643 4.34819 13.875L1.59721 14.9219C0.59357 15.3018 -0.356524 14.2481 0.13237 13.2891L1.48296 10.6445C1.04011 9.68845 0.789597 8.62328 0.789597 7.5C0.789597 3.35803 4.14772 0.000399155 8.2896 0Z" fill="context-fill"/>
</svg>
