<!-- This Source Code Form is subject to the terms of the Mozilla Public
   - License, v. 2.0. If a copy of the MPL was not distributed with this
   - file, You can obtain one at http://mozilla.org/MPL/2.0/. -->
<svg width="16" height="16" viewBox="0 0 16 16" fill="context-fill" fill-opacity="context-fill-opacity" xmlns="http://www.w3.org/2000/svg">
  <path d="M12.251 5.53418L12.5 6.75L12.249 6.78516L12.25 6.78418C11.254 6.92318 10.253 6.99416 9.25098 7.03516V9.05566L10.2646 12.8389L9.05664 13.1631L8.14355 9.75098H7.8584L6.94434 13.1631L5.73633 12.8389L6.74805 9.0625H6.75V7.03516C5.748 6.99416 4.74698 6.92218 3.75098 6.78418L3.5 6.74902L3.75098 5.53418C6.56998 5.92618 9.43002 5.92618 12.249 5.53418H12.251Z"/>
  <path d="M8 2.75C8.69036 2.75 9.25 3.30964 9.25 4C9.25 4.69036 8.69036 5.25 8 5.25C7.30964 5.25 6.75 4.69036 6.75 4C6.75 3.30964 7.30964 2.75 8 2.75Z" />
  <path fill-rule="evenodd" clip-rule="evenodd" d="M8 0C12.4183 0 16 3.58172 16 8C16 12.4183 12.4183 16 8 16C3.58172 16 0 12.4183 0 8C0 3.58172 3.58172 0 8 0ZM8 1.5C4.41015 1.5 1.5 4.41015 1.5 8C1.5 11.5899 4.41015 14.5 8 14.5C11.5899 14.5 14.5 11.5899 14.5 8C14.5 4.41015 11.5899 1.5 8 1.5Z" />
</svg>
