<!-- This Source Code Form is subject to the terms of the Mozilla Public
   - License, v. 2.0. If a copy of the MPL was not distributed with this
   - file, You can obtain one at http://mozilla.org/MPL/2.0/. -->
<svg width="62" height="63" viewBox="0 0 62 63" fill="none" xmlns="http://www.w3.org/2000/svg">
<g clip-path="url(#clip0_2909_15381)">
<g clip-path="url(#clip1_2909_15381)">
<path d="M11.1986 39.1292C11.7806 37.7458 13.9654 38.2521 15.9627 36.4023C16.8797 35.5531 17.8086 32.9857 18.6338 30.5298C19.2239 28.7757 19.7621 27.0813 20.2046 26.1126C20.683 25.068 20.7548 24.785 21.9388 21.9145C23.37 18.4461 25.2797 14.2202 26.7827 14.0886C28.5647 13.9291 30.0996 15.5477 31.6505 19.1318C33.4565 23.3019 33.6359 25.3192 34.8119 25.2953C35.7887 25.2753 37.3355 25.4149 37.3993 25.3471C37.4153 25.3312 37.4312 25.3112 37.4472 25.2913C37.4711 25.2634 37.495 25.2355 37.5189 25.2116C38.5555 24.0275 39.4804 22.4886 41.0153 20.1285C43.3316 16.5683 45.4126 14.8939 46.8877 15.4202C48.4784 15.9863 49.8379 19.5185 50.3482 22.4966C51.014 26.3597 51.0977 28.1019 51.5363 30.4979C51.6439 31.072 51.7675 31.5704 51.9509 32.0488C52.1941 32.6986 52.5409 33.3086 53.0911 34.0103C55.1283 36.6056 60.032 37.4309 60.0439 38.9379C60.0519 40.0661 57.9389 39.9186 58.3536 40.397C51.6319 39.8707 45.9548 44.591 40.1581 48.1751C39.7276 48.4422 39.2532 48.5817 38.7429 48.6375C38.5595 48.5658 38.3163 48.5459 37.9973 48.5977C37.8538 48.6216 37.7143 48.6296 37.5708 48.6296C37.204 48.6296 36.8372 48.5738 36.4704 48.4581C33.8272 47.6249 31.1721 44.1166 27.6 44.1126C24.5501 44.1086 22.8398 46.7598 22.3654 48.3385C20.069 47.2741 16.489 40.8156 11.6092 40.8953C11.8285 40.8076 11.9959 40.708 12.0637 40.5684C12.2351 40.2056 10.7481 40.2176 11.2026 39.1332L11.1986 39.1292Z" fill="url(#paint0_linear_2909_15381)"/>
<path d="M29.5606 30.0475C25.7972 31.1637 22.8948 33.5159 22.8948 33.5159L18.5812 35.1624L18.629 30.5298C19.2191 28.7757 19.7573 27.0813 20.1998 26.1126C20.6782 25.068 20.75 24.785 21.934 21.9145C23.3653 18.4461 25.2749 14.2202 26.7779 14.0886C28.56 13.9291 30.0948 15.5477 31.6457 19.1318C33.4517 23.3019 33.6311 25.3192 34.8072 25.2953C35.7839 25.2753 37.3308 25.4149 37.3945 25.3471C37.4105 25.3312 37.4264 25.3112 37.4424 25.2913L37.3945 25.375C37.3945 25.375 35.166 28.385 29.5606 30.0475Z" fill="url(#paint1_linear_2909_15381)"/>
<path d="M37.5104 25.2115C38.547 24.0275 39.4719 22.4886 41.0068 20.1284C43.3231 16.5683 45.4042 14.8939 46.8792 15.4201C48.47 15.9862 49.8294 19.5185 50.3397 22.4966C51.0055 26.3597 51.0892 28.1019 51.5278 30.4979C51.6354 31.072 51.759 31.5703 51.9424 32.0488C50.0088 30.765 47.0586 28.9989 43.6739 27.6354C41.2659 26.6627 38.8619 25.7338 37.5065 25.2115H37.5104Z" fill="url(#paint2_linear_2909_15381)"/>
<path d="M33.0172 60.4861C33.0172 60.4861 35.4132 60.9127 37.873 63.2449H31.9886C32.3913 61.4828 33.0212 60.4861 33.0212 60.4861H33.0172Z" fill="#FFB029"/>
<path d="M31.9367 54.7612C24.2543 56.1685 21.4875 51.2927 22.3566 48.3545C22.3566 48.3465 22.3606 48.3386 22.3645 48.3346C22.839 46.7558 24.5493 44.1047 27.5991 44.1086C31.1672 44.1126 33.8224 47.6209 36.4696 48.4542C36.8364 48.5698 37.2031 48.6296 37.5699 48.6256C37.7134 48.6256 37.853 48.6176 37.9965 48.5937C38.3154 48.5419 38.5626 48.5618 38.742 48.6336C40.3048 49.2396 37.0477 53.8243 31.9367 54.7612Z" fill="#FFC635"/>
<path d="M26.0203 50.0569C24.8243 49.7898 24.0629 50.1526 23.7678 50.5831C23.405 51.1173 23.6442 52.4529 25.1114 52.7838C26.5067 53.0987 27.5632 52.134 27.5233 51.4482C27.4954 50.9579 27.0728 50.2921 26.0163 50.0569H26.0203Z" fill="#00073A"/>
<path d="M34.0739 41.7525C34.0181 43.4229 34.9869 44.3199 35.7483 44.3877C37.1198 44.5113 37.8055 43.9811 38.2161 41.6448C38.6666 39.0894 37.8294 38.2083 36.4819 38.0727C35.0985 37.9332 34.1497 39.4681 34.0739 41.7525Z" fill="url(#paint3_linear_2909_15381)"/>
<path d="M35.985 40.0918C35.6515 39.9782 35.4778 39.6023 35.597 39.2522C35.7162 38.902 36.0832 38.7102 36.4167 38.8237C36.7502 38.9372 36.9239 39.3131 36.8047 39.6633C36.6855 40.0135 36.3185 40.2053 35.985 40.0918Z" fill="white"/>
<path d="M21.6356 40.2654C21.3326 42.4741 22.1259 43.0881 23.0628 43.1439C24.1512 43.2116 25.2077 42.8807 25.4748 41.2741C25.9213 38.5631 25.7459 36.8448 23.9359 36.8887C22.7518 36.9166 21.9107 38.2761 21.6396 40.2615L21.6356 40.2654Z" fill="url(#paint4_linear_2909_15381)"/>
<path d="M23.6637 38.6155C23.3219 38.4992 23.1437 38.1142 23.2657 37.7557C23.3878 37.3972 23.7638 37.2009 24.1057 37.3173C24.4475 37.4337 24.6257 37.8186 24.5036 38.1771C24.3816 38.5356 24.0055 38.7319 23.6637 38.6155Z" fill="white"/>
<path d="M9.53986 42.4581C9.53587 41.3578 10.8674 41.1864 11.605 40.8874C16.4847 40.8116 20.0688 47.2701 22.3612 48.3306C22.3612 48.3385 22.3572 48.3465 22.3532 48.3505C21.4841 51.2887 24.2509 56.1645 31.9333 54.7572C37.0443 53.8203 40.3014 49.2356 38.7386 48.6296C39.2489 48.5738 39.7233 48.4342 40.1539 48.1671C45.9506 44.583 51.6277 39.8588 58.3493 40.389C58.3772 40.4209 58.4171 40.4608 58.4729 40.5006C58.9234 40.8276 61.0364 41.3697 60.9527 42.6415C60.8809 43.7139 57.9945 43.0043 57.7752 44.0568C57.6357 44.7266 59.0231 44.7664 58.6563 45.7432C58.142 47.1027 56.0809 46.3093 54.6855 47.1585C52.5367 48.4701 52.0383 51.213 54.5859 56.308C57.855 62.8462 58.457 63.2409 58.457 63.2409H37.8735C35.4137 60.9087 33.0177 60.4821 33.0177 60.4821C33.0177 60.4821 32.3878 61.4788 31.9851 63.2409H25.4429C25.4429 63.2409 21.1253 51.3126 17.908 48.4661C13.8615 44.886 10.397 47.2661 10.2575 45.4442C10.2016 44.7186 11.7405 44.308 11.7007 43.5824C11.6688 43.0521 9.53985 43.6143 9.53587 42.4501L9.53986 42.4581Z" fill="url(#paint5_linear_2909_15381)"/>
</g>
<path d="M8.82277 25.3389L10.399 21.8831C10.7977 21.0081 11.5215 20.3156 12.4248 19.9437L15.6353 18.6209C16.0962 18.4315 16.0962 17.7915 15.6353 17.6021L12.4319 16.2889C11.5257 15.9171 10.7991 15.2217 10.399 14.344L8.82277 10.8827C8.62202 10.4403 7.9788 10.4472 7.78654 10.8923L6.36437 14.1905C5.9742 15.0932 5.24049 15.8134 4.31877 16.1963L0.930171 17.6035C0.472137 17.7942 0.470722 18.4287 0.928756 18.6195L4.34563 20.0515C5.26453 20.4358 5.99399 21.1546 6.38134 22.0545L7.78937 25.3251C7.98163 25.7702 8.62485 25.7771 8.82559 25.3361L8.82277 25.3389Z" fill="url(#paint6_linear_2909_15381)"/>
<path d="M16.5304 8.3665L17.4356 6.3817C17.665 5.87899 18.0805 5.48138 18.599 5.26795L20.4438 4.50848C20.7086 4.39906 20.7086 4.03178 20.4438 3.92344L18.6034 3.16939C18.0827 2.95596 17.665 2.55618 17.4356 2.05239L16.5304 0.0632559C16.4151 -0.190262 16.0451 -0.187011 15.9343 0.0686733L15.1166 1.96355C14.8928 2.48251 14.4717 2.89529 13.941 3.11522L11.9942 3.92344C11.7316 4.03287 11.7305 4.39689 11.9942 4.5074L13.9576 5.33079C14.485 5.5518 14.9038 5.96458 15.1265 6.48137L15.9354 8.36C16.0451 8.61568 16.4151 8.62002 16.5315 8.3665H16.5304Z" fill="url(#paint7_linear_2909_15381)"/>
</g>
<defs>
<linearGradient id="paint0_linear_2909_15381" x1="36.7455" y1="61.6024" x2="33.7674" y2="4.73175" gradientUnits="userSpaceOnUse">
<stop stop-color="#FF6600"/>
<stop offset="0.13" stop-color="#FF8612"/>
<stop offset="0.28" stop-color="#FFA422"/>
<stop offset="0.36" stop-color="#FFB029"/>
<stop offset="0.45" stop-color="#FFA120"/>
<stop offset="0.64" stop-color="#FF7B0B"/>
<stop offset="0.73" stop-color="#FF6600"/>
<stop offset="0.85" stop-color="#FE6401"/>
<stop offset="0.89" stop-color="#FE6108"/>
<stop offset="0.92" stop-color="#FE5A14"/>
<stop offset="0.95" stop-color="#FD5125"/>
<stop offset="0.97" stop-color="#FC453B"/>
<stop offset="0.98" stop-color="#FB3755"/>
<stop offset="1" stop-color="#FB2872"/>
</linearGradient>
<linearGradient id="paint1_linear_2909_15381" x1="27.8184" y1="27.7989" x2="26.2397" y2="8.06465" gradientUnits="userSpaceOnUse">
<stop offset="0.09" stop-color="#FB2872" stop-opacity="0"/>
<stop offset="0.25" stop-color="#FB2872" stop-opacity="0.13"/>
<stop offset="0.48" stop-color="#FB2872" stop-opacity="0.29"/>
<stop offset="0.69" stop-color="#FB2872" stop-opacity="0.4"/>
<stop offset="0.87" stop-color="#FB2872" stop-opacity="0.48"/>
<stop offset="1" stop-color="#FB2872" stop-opacity="0.5"/>
</linearGradient>
<linearGradient id="paint2_linear_2909_15381" x1="45.0613" y1="27.9225" x2="51.1052" y2="14.9457" gradientUnits="userSpaceOnUse">
<stop offset="0.09" stop-color="#FB2872" stop-opacity="0"/>
<stop offset="0.25" stop-color="#FB2872" stop-opacity="0.13"/>
<stop offset="0.48" stop-color="#FB2872" stop-opacity="0.29"/>
<stop offset="0.69" stop-color="#FB2872" stop-opacity="0.4"/>
<stop offset="0.87" stop-color="#FB2872" stop-opacity="0.48"/>
<stop offset="1" stop-color="#FB2872" stop-opacity="0.5"/>
</linearGradient>
<linearGradient id="paint3_linear_2909_15381" x1="35.3616" y1="36.1711" x2="36.7371" y2="44.2601" gradientUnits="userSpaceOnUse">
<stop offset="0.16" stop-color="#A030B9"/>
<stop offset="0.88" stop-color="#00073A"/>
</linearGradient>
<linearGradient id="paint4_linear_2909_15381" x1="23.007" y1="35.4176" x2="23.916" y2="42.3425" gradientUnits="userSpaceOnUse">
<stop offset="0.16" stop-color="#A030B9"/>
<stop offset="0.88" stop-color="#00073A"/>
</linearGradient>
<linearGradient id="paint5_linear_2909_15381" x1="34.8595" y1="36.6455" x2="38.5991" y2="93.3766" gradientUnits="userSpaceOnUse">
<stop stop-color="#FFEA48"/>
<stop offset="0.11" stop-color="#FFCA37"/>
<stop offset="0.19" stop-color="#FFB72C"/>
<stop offset="0.25" stop-color="#FFB029"/>
<stop offset="0.37" stop-color="#FF9117"/>
<stop offset="0.48" stop-color="#FF790A"/>
<stop offset="0.58" stop-color="#FF6A02"/>
<stop offset="0.67" stop-color="#FF6600"/>
</linearGradient>
<linearGradient id="paint6_linear_2909_15381" x1="7.221" y1="9.96665" x2="9.25148" y2="26.2828" gradientUnits="userSpaceOnUse">
<stop stop-color="#E752FF"/>
<stop offset="0.11" stop-color="#DD4FFF"/>
<stop offset="0.28" stop-color="#C347FF"/>
<stop offset="0.51" stop-color="#983BFF"/>
<stop offset="0.77" stop-color="#5E2AFF"/>
<stop offset="1" stop-color="#271AFF"/>
</linearGradient>
<linearGradient id="paint7_linear_2909_15381" x1="15.6098" y1="-0.464333" x2="16.777" y2="8.90916" gradientUnits="userSpaceOnUse">
<stop stop-color="#E752FF"/>
<stop offset="0.11" stop-color="#DD4FFF"/>
<stop offset="0.28" stop-color="#C347FF"/>
<stop offset="0.51" stop-color="#983BFF"/>
<stop offset="0.77" stop-color="#5E2AFF"/>
<stop offset="1" stop-color="#271AFF"/>
</linearGradient>
<clipPath id="clip0_2909_15381">
<rect width="62" height="63" fill="white" transform="matrix(-1 0 0 1 62 0)"/>
</clipPath>
<clipPath id="clip1_2909_15381">
<rect width="66" height="52" fill="white" transform="matrix(-1 0 0 1 61 11)"/>
</clipPath>
</defs>
</svg>
