<!-- This Source Code Form is subject to the terms of the Mozilla Public
   - License, v. 2.0. If a copy of the MPL was not distributed with this
   - file, You can obtain one at https://mozilla.org/MPL/2.0/. -->
<svg xmlns="http://www.w3.org/2000/svg" width="50" height="40" fill="none"><g clip-path="url(#a)"><path fill="url(#b)" d="M1.922 30.304c.01.067-.048.155-.211.279l-.002-.001c-.445.338-1.745 1.147-1.706 2.427.048 1.596 2.905.358 3.142 1.122.204.657-1.16 1.136-.707 1.923.866 1.505 4.237-.034 6.092 1.137 3.249 2.051 1.34 5.125-.292 8.605-.705 1.503-1.505 2.977-2.121 4.796 1.051.224 2.087.406 3.121.563 8.611 1.304 16.571.868 21.74.212 2.788-.353 4.792-.793 5.582-1.007.004 0 .445-3.11.655-4.41.738-4.58 3.894-10.886 6.772-14.095 5.403-6.02 6.2-4.493 5.862-6.296-.135-.717-1.733-.714-1.881-1.428-.108-.523 2.115-.483 1.818-1.615-.334-1.271-2.177-.812-2.808-1.13-6.035 1.22-10.764-.046-16.144 1.13l-6.384 7.831c-7.323-2.085-13.194-2.489-22.528-.043Z"/><path fill="url(#c)" d="M1.706 30.587c.163-.124.22-.212.212-.28 9.335-2.445 15.207-2.04 22.532.044 4.664 1.328 16.838-7.81 22.532-8.96.632.317 2.474-.142 2.809 1.129.297 1.132-1.927 1.092-1.818 1.614.147.715 1.746.712 1.88 1.429.339 1.803-.458.275-5.862 6.297-2.88 3.208-6.035 9.514-6.773 14.093-.206 1.281-.673 4.404-.673 4.404s-.207.063-.582.144c-.243.053-.899.207-1.9.388-.808.146-1.84.307-3.065.462-5.449.69-14.672 1.242-24.564-.672a4.47 4.47 0 0 1-.357-.094s.245-.693.66-1.638c.458-1.044 1.104-2.382 1.472-3.167 1.63-3.48 3.476-6.51.32-8.584-1.833-1.206-5.227.367-6.093-1.137-.453-.787.91-1.266.707-1.923-.237-.765-3.094.474-3.142-1.122-.04-1.28 1.261-2.09 1.706-2.427Z" opacity=".6"/><path fill="url(#d)" d="M.83 29.235c.347-1.823 3.68-2.746 5.362-4.788.986-1.197.866-4.897.918-6.282l.002-.063c.081-2.104.256-3.778.689-7.648.41-3.669 1.445-6.641 3.002-7.312 1.445-.623 3.476 1.116 6.285 4.323 1.662 1.896 3.239 4.025 3.335 4.134.153.175.383.285.985.259.133-.006.243-.026.337-.062.733-.284.371-1.607.901-5.618C23.16 2.291 24.14-.01 25.934 0c1.559.01 4.506 3.198 6.838 6.15 1.931 2.446 2.082 2.7 2.828 3.577.872 1.023 2.346 2.968 3.825 4.733 1.347 1.607 2.7 3.067 3.605 3.544 2.413 1.275 3.794.538 4.606 1.808.727 1.136-1.057 1.17-.797 1.476.035.041.084.072.14.1-4.067.823-5.87 5.127-7.557 4.225-.464-.951-1.02-1.586-1.696-1.968-.966-.546-2.179-.583-3.723-.302-2.294.417-3.988 2.818-6.1 5.311-.232.276-.46.555-.676.838a1.826 1.826 0 0 0-.225.389c-.643.758-.957.932-1.513.774-7.323-2.085-14.234-2.797-23.568-.351-.038-.284-1.252-.235-1.092-1.07Z"/><path fill="url(#e)" d="M18.471 23.301s4.58-2.436 6.133-3.116c1.583-.692 2.715-1.49 3.463-1.929 1.83-1.071.157-4.833 3.874-5.969 3.562-1.088 12.53 4.224 6.858 10.322-5.671 6.098-17.15 7.048-19.224 5.096-2.074-1.951-1.165-4.16-1.104-4.404Z" opacity=".7"/><path fill="url(#f)" d="M36.956 14.155c-1.635-1.635-3.991-2.872-6.118-1.585-2.126 1.286-2.13 4.167-1.734 5.501.396 1.335 1.236 3.651 1.781 4.196.545.544 4.072-1.253 6.001-2.638 1.93-1.385 2.989-2.556.07-5.473v-.001Z" opacity=".7"/><path fill="url(#g)" d="M33.975 12.238c-1.027-.318-2.109-.288-3.136.333a3.41 3.41 0 0 0-.319.221c-3.286-.594-7.399-.901-8.776-.992.733-.284.372-1.607.901-5.618.513-3.887 1.494-6.189 3.289-6.178 1.558.01 4.506 3.198 6.838 6.15 1.93 2.446 2.081 2.7 2.828 3.577.871 1.023 2.345 2.968 3.824 4.733l-.95-.037c-1.31-1.15-3.011-1.937-4.499-2.19Z"/><path fill="url(#h)" d="M7.112 18.105c.081-2.104.256-3.778.688-7.648.41-3.669 1.446-6.641 3.003-7.312 1.445-.623 3.476 1.116 6.284 4.322 1.663 1.897 2.078 2.46 3.064 3.75.109.142.175.275.27.385a340.715 340.715 0 0 0-5.438 2.133c-3.515 1.418-6.46 3.362-7.872 4.369h.001Z"/><path fill="url(#i)" d="M23.575 25.516c-.9.3-2.062-.132-2.606-2.234-.08-.311-.285-.89-.123-1.063.321-.347 1.088-.668 2.25-1.212.376-.176.793-.461.964-.396.286.11.451.664.735 1.81.515 2.074-.553 2.873-1.22 3.095Z"/><path fill="#fff" d="M23.336 23.423a.68.68 0 1 1 1.336-.251.68.68 0 0 1-1.336.25Z"/><path fill="url(#j)" d="M34.57 15.462c1.077-.037 1.933 1.163 2.522 2.903.123.362.189.677.213.953.108 1.227-.629 1.671-1.158 1.847-.319.105-.923.227-1.537-.125-.47-.27-.945-.817-1.3-1.866-.78-2.297-.539-3.651 1.26-3.712Z"/><path fill="#fff" d="M36.005 18.657a.653.653 0 1 1 .347 1.258.653.653 0 0 1-.347-1.258Z"/><path fill="#FFC635" d="M26.863 28.348c2.11-2.493 4.844-4.587 7.138-5.004 1.545-.28 2.757-.244 3.724.302.677.382 1.233 1.017 1.695 1.968.027.055.055.105.08.162 1.274 2.778.637 7.178-5.586 8.539-3.453.755-8.996-2.319-7.954-4.74.057-.131.128-.261.225-.389.216-.283.445-.562.678-.838Z"/><path fill="#00073A" d="M35.591 26.513c-1.43.12-2.343-.987-2.209-1.665.095-.482.608-1.086 1.69-1.174 1.224-.1 1.933.367 2.164.838.286.58-.14 1.875-1.645 2Z"/></g><defs><linearGradient id="b" x1="25.145" x2="24.446" y1="6.967" y2="91.615" gradientUnits="userSpaceOnUse"><stop stop-color="#F60"/><stop offset=".207" stop-color="#FF9C00"/><stop offset=".519" stop-color="#F60"/><stop offset=".856" stop-color="#FB2872"/></linearGradient><linearGradient id="c" x1="24.234" x2="31.416" y1="23.247" y2="72.496" gradientUnits="userSpaceOnUse"><stop offset=".151" stop-color="#FFEB49"/><stop offset=".343" stop-color="#FFC735" stop-opacity=".73"/><stop offset=".581" stop-color="#FF9D1E" stop-opacity=".421"/><stop offset=".778" stop-color="#FF7F0E" stop-opacity=".194"/><stop offset=".923" stop-color="#FF6D03" stop-opacity=".053"/><stop offset="1" stop-color="#F60" stop-opacity="0"/></linearGradient><linearGradient id="d" x1="24.162" x2="24.65" y1="6.606" y2="65.617" gradientUnits="userSpaceOnUse"><stop stop-color="#FE5B15"/><stop offset=".075" stop-color="#FE6F0E"/><stop offset=".213" stop-color="#FE8F03"/><stop offset=".289" stop-color="#FF9C00"/><stop offset=".519" stop-color="#F60"/><stop offset=".856" stop-color="#FB2872"/></linearGradient><linearGradient id="g" x1="29.976" x2="25.888" y1="10.934" y2="-3.838" gradientUnits="userSpaceOnUse"><stop stop-color="#F60" stop-opacity="0"/><stop offset=".016" stop-color="#F60" stop-opacity=".172"/><stop offset=".036" stop-color="#F60" stop-opacity=".364"/><stop offset=".057" stop-color="#F60" stop-opacity=".535"/><stop offset=".079" stop-color="#F60" stop-opacity=".679"/><stop offset=".102" stop-color="#F60" stop-opacity=".796"/><stop offset=".125" stop-color="#F60" stop-opacity=".886"/><stop offset=".151" stop-color="#F60" stop-opacity=".95"/><stop offset=".18" stop-color="#F60" stop-opacity=".988"/><stop offset=".217" stop-color="#F60"/><stop offset=".611" stop-color="#FD4737"/><stop offset=".995" stop-color="#FB2872"/></linearGradient><linearGradient id="h" x1="13.304" x2="8.292" y1="13.683" y2="1.022" gradientUnits="userSpaceOnUse"><stop stop-color="#F60" stop-opacity="0"/><stop offset=".029" stop-color="#F60" stop-opacity=".172"/><stop offset=".067" stop-color="#F60" stop-opacity=".364"/><stop offset=".106" stop-color="#F60" stop-opacity=".535"/><stop offset=".147" stop-color="#F60" stop-opacity=".679"/><stop offset=".189" stop-color="#F60" stop-opacity=".796"/><stop offset=".234" stop-color="#F60" stop-opacity=".886"/><stop offset=".282" stop-color="#F60" stop-opacity=".95"/><stop offset=".335" stop-color="#F60" stop-opacity=".988"/><stop offset=".405" stop-color="#F60"/><stop offset=".706" stop-color="#FD4737"/><stop offset="1" stop-color="#FB2872"/></linearGradient><linearGradient id="i" x1="22.205" x2="23.372" y1="19.387" y2="25.513" gradientUnits="userSpaceOnUse"><stop offset=".157" stop-color="#A030B9"/><stop offset=".875" stop-color="#00073A"/></linearGradient><linearGradient id="j" x1="34.417" x2="35.482" y1="13.835" y2="20.897" gradientUnits="userSpaceOnUse"><stop offset=".157" stop-color="#A030B9"/><stop offset=".875" stop-color="#00073A"/></linearGradient><radialGradient id="e" cx="0" cy="0" r="1" gradientTransform="matrix(-8.68143 0 0 -10.9212 21.594 14.586)" gradientUnits="userSpaceOnUse"><stop stop-color="#D81F60" stop-opacity=".5"/><stop offset=".221" stop-color="#D81F60" stop-opacity=".486"/><stop offset=".389" stop-color="#D81F60" stop-opacity=".441"/><stop offset=".541" stop-color="#D81F60" stop-opacity=".366"/><stop offset=".681" stop-color="#D81F60" stop-opacity=".259"/><stop offset=".814" stop-color="#D81F60" stop-opacity=".123"/><stop offset=".91" stop-color="#D81F60" stop-opacity="0"/></radialGradient><radialGradient id="f" cx="0" cy="0" r="1" gradientTransform="rotate(180 17.005 10.255) scale(8.63633)" gradientUnits="userSpaceOnUse"><stop offset=".628" stop-color="#D81F60" stop-opacity="0"/><stop offset=".704" stop-color="#D81F60" stop-opacity=".017"/><stop offset=".775" stop-color="#D81F60" stop-opacity=".069"/><stop offset=".843" stop-color="#D81F60" stop-opacity=".156"/><stop offset=".911" stop-color="#D81F60" stop-opacity=".279"/><stop offset=".976" stop-color="#D81F60" stop-opacity=".435"/><stop offset="1" stop-color="#D81F60" stop-opacity=".5"/></radialGradient><clipPath id="a"><path fill="#fff" d="M0 0h50v40H0z"/></clipPath></defs></svg>
