<!-- This Source Code Form is subject to the terms of the Mozilla Public
   - License, v. 2.0. If a copy of the MPL was not distributed with this
   - file, You can obtain one at http://mozilla.org/MPL/2.0/. -->
<svg width="220" height="156" viewBox="0 0 220 156" fill="none" xmlns="http://www.w3.org/2000/svg">
  <path d="M164.196 144.453C175.691 140.476 187.294 149.1 198.682 149.764C203.458 150.042 211.022 150.877 214.838 147.121C218.592 143.429 217.017 139.73 212.755 137.29C203.654 132.087 190.991 136.247 182.163 130.563C171.792 123.886 196.827 127.857 192.782 120.763C187.739 111.931 122.762 113.391 105.393 119.536" stroke="url(#g0)" stroke-width="4.78473" stroke-miterlimit="10"/>
  <path d="M214.566 143.03C214.566 143.03 214.611 141.418 212.934 140.261C211.861 139.521 207.498 136.398 206.164 136.802C207.752 134.868 211.524 135.841 213.442 137.036C215.443 138.282 216.3 141.98 214.573 143.03H214.566Z" fill="url(#g1)"/>
  <path d="M183.583 128.648C183.583 128.648 181.938 127.909 183.304 126.012C184.002 125.044 187.114 125.563 187.451 127.125C186.428 128.029 183.577 128.648 183.577 128.648H183.583Z" fill="url(#g2)"/>
  <path d="M190.755 122.003C191.32 121.555 194.401 120.708 194.274 119.703C194.172 118.881 190.235 119.753 189.708 119.861C189.18 119.968 188.222 120.335 188.19 120.417C188.158 120.499 190.111 121.054 190.755 122.003Z" fill="url(#g3)"/>
  <path d="M59.6833 139.953C50.5951 145.106 40.1414 147.685 29.7131 147.805C22.9176 147.888 3.11537 147.717 2.92484 137.386C2.81053 131.291 12.3687 128.598 16.789 127.22C29.7703 123.173 45.7239 120.113 59.3403 121.738C69.197 122.914 79.4538 123.262 76.4117 110.415C76.0179 108.752 76.4625 107.019 76.9134 106.495" stroke="url(#g4)" stroke-width="5.848" stroke-miterlimit="10"/>
  <path d="M6.23173 139.106C6.23173 139.106 3.78662 136.185 11.3252 130.836C11.4332 130.76 10.1947 130.059 10.0233 130.027C8.47362 129.755 6.46672 131.045 5.44422 132.101C4.02796 133.555 4.3455 137.962 6.23809 139.106H6.23173Z" fill="url(#g5)"/>
  <path d="M45.3251 80.502C44.7154 75.1912 44.9059 69.0142 44.9059 69.0142C44.9059 69.0142 42.9753 73.6991 41.8575 79.6801C41.0255 84.1248 40.5937 88.8856 40.6508 89.9541C40.3777 89.5684 39.5902 88.3418 38.9234 86.3566C38.085 83.8529 37.4944 81.7855 37.4944 81.7855C37.5261 81.7665 35.4303 90.2512 39.2727 105.836C44.1502 118.045 52.4318 122.439 56.2551 117.893C60.0784 113.347 55.2326 109.016 52.1968 104.742C48.4307 99.4377 46.3476 89.3661 45.3251 80.5083V80.502Z" fill="url(#g6)"/>
  <path d="M94.8942 133.06C94.945 133.048 94.9831 133.041 95.0085 133.035C95.1419 132.997 83.0116 128.831 84.8407 117.741C85.6663 112.702 87.5398 110.622 89.1847 107.644C89.515 107.05 89.7754 106.424 89.9977 105.773C88.7465 105.52 87.0889 105.115 84.9105 104.249C65.121 96.3776 64.3462 76.3608 65.6481 56.9699C66.6579 41.9921 49.9803 35.5938 49.9803 35.5938C49.9803 35.5938 54.6356 43.4652 46.4873 50.7486C37.0625 59.1764 27.987 71.2207 28.3744 89.3281C28.3935 90.1753 28.5522 92.3439 28.5522 92.3439C28.5522 92.3439 27.9235 92.0404 27.0979 91.1869C26.0372 90.0931 25.6181 89.3977 25.6181 89.3977C25.6181 89.3977 25.2751 94.5631 27.7139 102.435C31.3466 114.156 38.8916 124.443 50.5075 131.524C61.8248 138.422 71.0083 138.833 87.6541 138.858C87.6541 138.226 87.9336 137.461 88.7338 136.481C91.0074 133.712 94.1258 133.212 94.8879 133.054L94.8942 133.06ZM56.2551 117.887C52.4318 122.432 44.1502 118.038 39.2726 105.83C35.4303 90.2449 37.5261 81.7602 37.4944 81.7791C37.4944 81.7791 38.085 83.8466 38.9233 86.3503C39.5902 88.3355 40.3777 89.5557 40.6508 89.9477C40.5936 88.8856 41.0255 84.1184 41.8575 79.6738C42.9752 73.6927 44.9059 69.0078 44.9059 69.0078C44.9059 69.0078 44.709 75.1848 45.3251 80.4957C46.3476 89.3534 48.4307 99.425 52.1968 104.73C55.2326 109.004 60.0783 113.341 56.2551 117.88V117.887Z" fill="url(#g7)"/>
  <path d="M45.3251 80.502C44.7154 75.1912 44.9059 69.0142 44.9059 69.0142C44.9059 69.0142 42.9753 73.6991 41.8575 79.6801C41.0255 84.1248 40.5937 88.8856 40.6508 89.9541C40.3777 89.5684 39.5902 88.3418 38.9234 86.3566C38.085 83.8529 37.4944 81.7855 37.4944 81.7855C37.5261 81.7665 35.4303 90.2512 39.2727 105.836C44.1502 118.045 52.4318 122.439 56.2551 117.893C60.0784 113.347 55.2326 109.016 52.1968 104.742C48.4307 99.4377 46.3476 89.3661 45.3251 80.5083V80.502Z" fill="url(#g8)"/>
  <path d="M103.905 137.892C103.994 137.367 104.064 136.874 104.095 136.457C104.229 134.781 104.248 132.695 104.184 130.343C103.81 132.941 102.933 135.382 101.65 137.563C102.451 137.677 103.206 137.784 103.905 137.892Z" fill="url(#g9)"/>
  <path opacity="0.6" d="M103.905 137.892C103.994 137.367 104.064 136.874 104.095 136.457C104.229 134.781 104.248 132.695 104.184 130.343C103.81 132.941 102.933 135.382 101.65 137.563C102.451 137.677 103.206 137.784 103.905 137.892Z" fill="url(#g10)"/>
  <path d="M82.8586 121.124C81.0359 132.214 93.1599 136.38 93.0265 136.418C93.0011 136.424 92.9566 136.437 92.9122 136.443C93.5346 136.519 94.1379 136.589 94.7222 136.658C94.8302 136.33 94.8937 136.02 94.8873 135.761C94.7666 133.194 93.8966 130.671 93.2742 128.148C96.2083 126.492 90.4289 120.011 90.7973 116.882C91.7817 109.206 91.9976 109.965 88.0156 109.162C87.7933 109.807 87.5329 110.433 87.2027 111.034C85.5514 114.011 83.6842 116.091 82.8586 121.13V121.124Z" fill="url(#g11)"/>
  <path opacity="0.6" d="M124.146 142.348C129.163 143.107 131.373 144.055 135.4 144.257C139.915 144.485 141.319 144.036 142.081 142.689C142.494 141.956 142.697 141.184 141.878 140.186L124.076 142.07C124.102 142.164 124.121 142.253 124.146 142.348Z" fill="url(#g12)"/>
  <path d="M144.762 119.385C143.218 115.187 140.354 113.196 138.747 110.395C135.426 104.591 137.96 103.231 136.499 87.7415C135.642 78.6246 134.321 69.5139 132.174 60.6056C130.37 53.1135 130.777 45.5076 133.374 38.2305C135.477 32.3317 139.014 32.3823 138.366 30.4413C138.061 29.5245 136.563 30.0114 136.188 29.1199C135.597 27.7163 139.414 25.9271 138.639 24.6246C137.725 23.082 135.743 23.8976 134.937 23.8849C129.507 26.6731 124.47 32.338 122.584 37.3707C120.774 42.1947 120.253 43.3138 119.371 44.3127C119.339 44.3506 119.301 44.3759 119.269 44.4139L118.901 44.692C116.513 46.0703 110.708 42.8459 107.272 44.5846C102.845 46.829 102.306 52.3295 99.6255 53.3475C97.7266 54.0682 95.2433 52.6204 91.293 51.8048C86.1742 50.7489 79.7724 49.6425 74.7425 52.1272C74.3043 53.0124 71.7639 53.9987 72.4244 55.7373C73.015 57.28 75.5363 55.4149 75.8412 56.0977C76.2604 57.0334 74.4186 58.3422 74.8504 59.2716C75.5872 60.8522 77.6195 60.1061 79.0103 60.0809C81.7158 60.0303 85.2088 59.8343 87.5777 61.3959C91.7376 64.1399 92.2647 71.2589 91.6487 75.634C90.8802 81.0903 89.337 86.3 89.1274 91.8384C88.8924 97.87 90.2261 105.558 87.1967 111.027C85.5454 114.005 83.6783 116.085 82.8526 121.124C81.0299 132.214 93.1539 136.38 93.0269 136.418C93.0015 136.424 92.957 136.437 92.9125 136.443C93.5349 136.519 94.1383 136.589 94.7226 136.658C97.3709 136.981 99.67 137.284 101.651 137.562C102.928 135.381 103.811 132.941 104.185 130.342C104.249 132.688 104.23 134.774 104.097 136.456C104.065 136.867 103.995 137.366 103.906 137.891C103.696 139.13 103.366 140.528 103.068 141.4C102.991 141.628 102.922 141.862 102.858 142.089C102.395 143.777 102.395 145.352 102.814 146.053C104.084 148.19 111.965 147.868 112.334 145.345C112.518 144.112 112.632 142.601 112.702 140.894C113.007 140.882 113.312 140.869 113.591 140.869C113.807 140.869 114.017 140.882 114.233 140.888C114.303 142.601 114.423 144.112 114.601 145.345C114.969 147.868 122.851 148.19 124.121 146.053C124.515 145.389 124.534 143.935 124.14 142.355C124.115 142.26 124.096 142.171 124.07 142.077C124.007 141.855 123.943 141.634 123.867 141.406C123.638 140.742 123.397 139.781 123.2 138.82C125.804 138.447 129.672 137.777 135.413 136.62C135.693 136.563 135.966 136.519 136.232 136.475C136.264 136.424 136.334 136.38 136.461 136.342C141.605 134.572 147.448 126.726 144.755 119.392L144.762 119.385Z" fill="url(#g13)"/>
  <path opacity="0.6" d="M123.009 142.184C123.079 142.197 123.142 142.203 123.212 142.216C123.536 142.26 123.841 142.304 124.147 142.349C124.121 142.254 124.102 142.165 124.077 142.07L123.009 142.184Z" fill="url(#g14)"/>
  <path d="M101.651 137.562C99.6762 137.284 97.3772 136.98 94.7225 136.658C94.1382 136.588 93.5348 136.512 92.9124 136.443C92.1567 136.601 89.032 137.1 86.7584 139.87C85.9518 140.85 85.6851 141.615 85.6787 142.247C85.6787 142.67 85.7867 143.031 85.9518 143.353C86.7012 144.801 100.819 143.119 102.852 142.089C102.915 141.861 102.985 141.634 103.061 141.4C103.36 140.527 103.69 139.13 103.9 137.891C103.201 137.79 102.445 137.676 101.645 137.562H101.651Z" fill="url(#g15)"/>
  <path d="M141.877 140.186C141.401 139.605 140.575 138.947 139.241 138.176C137.546 137.196 136.034 136.766 136.237 136.462C135.964 136.507 135.697 136.551 135.418 136.608C129.67 137.765 125.809 138.435 123.205 138.808C123.402 139.775 123.643 140.736 123.872 141.394C123.948 141.615 124.018 141.843 124.075 142.064C124.101 142.159 124.12 142.247 124.145 142.342C129.162 143.101 131.372 144.049 135.399 144.252C139.914 144.479 141.318 144.03 142.08 142.684C142.493 141.95 142.696 141.179 141.877 140.18V140.186Z" fill="url(#g16)"/>
  <path d="M134.619 21.4128C133.139 19.8891 129.201 22.6836 125.588 21.7226C124.457 21.4191 123.073 20.0598 121.847 18.6183C120.774 17.3601 119.815 16.0514 119.249 15.3369C116.982 12.4855 115.344 10.5761 111.654 6.43495C108.199 2.5593 104.134 -0.450184 101.791 0.055611C99.6186 0.523471 98.8438 4.29164 98.7168 10.3675C98.6533 13.6046 98.9137 16.8923 98.6469 19.1557C98.6279 19.2948 98.6152 19.4276 98.5898 19.554C98.5771 19.6299 98.5644 19.7121 98.5517 19.7816C98.5263 19.9081 95.6684 21.4507 94.3664 21.9186C94.3156 21.9376 94.2394 21.9186 94.1441 21.8807C94.0743 21.849 93.9917 21.8048 93.8964 21.7416C92.8295 21.0335 90.2573 18.3338 86.1673 15.0461C81.855 11.5814 79.5433 10.1336 77.2824 11.6193C74.9325 13.162 75.828 20.7426 76.6917 25.9713C77.4094 30.2958 77.7269 31.1051 77.9302 32.7173C78.1461 34.4307 78.4636 36.5803 78.5907 38.6541C78.724 40.9175 78.6351 43.0861 77.9238 44.496C76.1963 47.9291 72.4937 48.6372 72.8875 50.7236C73.186 52.3042 74.8626 51.3685 74.8118 51.9375C74.8118 52.0071 74.7801 52.0766 74.7483 52.1462C79.7783 49.6614 86.18 50.7679 91.2989 51.8237C95.2555 52.6393 97.7324 54.0871 99.6313 53.3664C102.311 52.3485 102.851 46.848 107.278 44.6035C110.72 42.8585 116.519 46.0893 118.906 44.711C119.021 44.6288 119.129 44.5403 119.237 44.4391C119.249 44.4265 119.262 44.4265 119.275 44.4391C119.307 44.4075 119.345 44.3759 119.376 44.3379C120.259 43.339 120.78 42.2199 122.59 37.3959C124.476 32.3633 129.506 26.6984 134.943 23.9102C134.943 23.9102 134.93 23.9102 134.924 23.9102C133.431 23.8659 135.8 22.652 134.619 21.4444V21.4128Z" fill="url(#g17)"/>
  <path d="M94.3668 21.9187C94.316 21.9377 94.2398 21.9187 94.1445 21.8808L97.682 25.9525L99.5428 24.9282L98.5521 19.7881C98.5267 19.9145 95.6688 21.4572 94.3668 21.9251V21.9187Z" fill="url(#g18)"/>
  <path d="M109.881 17.6004C114.708 18.0493 119.643 18.4729 121.846 18.6183C120.773 17.3601 119.814 16.0514 119.249 15.3369C116.982 12.4855 115.343 10.5761 111.653 6.43495C108.198 2.5593 104.134 -0.450184 101.79 0.055611C99.6182 0.523471 98.8434 4.29164 98.7163 10.3675C98.6528 13.6046 98.9132 16.8923 98.6465 19.1557L98.7037 19.5097C100.819 18.6056 105.08 17.1578 109.888 17.6067L109.881 17.6004Z" fill="url(#g19)"/>
  <path d="M93.9033 21.7356C92.8363 21.0275 90.2642 18.3278 86.1742 15.0402C81.8619 11.5755 79.5502 10.1276 77.2892 11.6134C74.9394 13.1561 75.8348 20.7367 76.6986 25.9653C77.4162 30.2899 77.7338 31.0992 77.937 32.7114C78.1529 34.4248 78.4705 36.5744 78.5975 38.6482C79.8931 36.9032 82.7764 32.8442 85.5709 28.8484C88.1811 25.1118 91.7757 22.8484 93.9033 21.7483V21.7356Z" fill="url(#g20)"/>
  <path d="M94.6713 45.8678C95.789 48.6497 97.6626 48.7382 98.5835 48.2893C100.317 47.4484 100.94 45.8741 100.349 44.3757C99.0661 41.1196 97.5292 39.5074 95.1603 40.8162C93.6678 41.6381 93.7567 43.6044 94.6649 45.8615L94.6713 45.8678Z" fill="url(#g21)"/>
  <path d="M97.8843 47.4885C98.3456 47.2754 98.5532 46.7457 98.3479 46.3054C98.1426 45.8652 97.6023 45.6811 97.1409 45.8943C96.6796 46.1075 96.4721 46.6372 96.6773 47.0774C96.8826 47.5176 97.423 47.7017 97.8843 47.4885Z" fill="white"/>
  <path d="M116.004 36.0113C117.414 38.6604 116.277 40.1398 115.337 40.5508C113.571 41.3284 111.965 40.7847 111.196 39.3685C109.526 36.2895 109.284 34.0829 111.812 33.1282C113.406 32.5276 114.861 33.8616 116.004 36.0113Z" fill="url(#g22)"/>
  <path d="M113.744 40.0687C114.228 39.8453 114.445 39.2893 114.23 38.8269C114.014 38.3644 113.447 38.1707 112.964 38.3942C112.48 38.6177 112.263 39.1737 112.478 39.6361C112.694 40.0985 113.261 40.2922 113.744 40.0687Z" fill="white"/>
  <path d="M118.907 44.6857C118.138 45.2421 117.04 45.1852 115.808 44.9133C113.108 44.5213 109.673 43.4023 107.323 44.5593C107.31 44.5656 107.297 44.5719 107.285 44.5782C104.732 45.8743 103.474 48.2453 102.35 50.2242C101.524 51.672 100.775 52.9112 99.6381 53.3411C99.6317 53.3411 99.6254 53.3411 99.6127 53.3475L98.8125 53.5308C97.8662 53.613 105.24 63.2105 114.207 58.8669C123.467 54.378 119.853 44.534 119.282 44.4075C119.269 44.4075 119.25 44.4075 119.243 44.4075C119.142 44.5087 119.028 44.5972 118.913 44.6794L118.907 44.6857Z" fill="#FFC635"/>
  <path d="M112.207 53.8727C110.626 54.5872 110.073 55.643 110.105 56.3827C110.149 57.2932 111.566 58.5956 113.509 57.7231C115.357 56.8948 115.732 54.9096 115.097 54.1636C114.646 53.6388 113.598 53.2405 112.201 53.8727H112.207Z" fill="#00073A"/>
  <path d="M111.8 114.966C111.406 115.44 111.171 118.513 110.663 118.772C110.257 118.974 110.054 116.357 109.634 113.992C109.52 113.353 109.088 111.28 108.974 110.673C108.44 107.714 108.44 107.948 107.996 105.533C107.907 107.461 107.729 107.973 107.374 110.932C107.202 112.367 106.954 114.093 106.751 115.048C106.573 115.882 106.3 112.778 106.129 111.963C105.303 108.005 104.732 106.949 103.614 103.01C102.985 100.784 101.01 98.7297 100.819 97.3071C101.721 103.383 103.017 113.442 103.715 122.35C103.938 125.189 104.103 127.914 104.166 130.354C104.23 132.7 104.211 134.787 104.077 136.468C104.046 136.879 103.976 137.379 103.887 137.903C103.677 139.143 103.347 140.54 103.049 141.412C102.972 141.64 102.902 141.874 102.839 142.102C102.375 143.79 102.375 145.358 102.794 146.066C104.065 148.203 111.946 147.88 112.315 145.358C112.492 144.125 112.613 142.614 112.683 140.9C112.95 134.451 112.499 124.98 111.781 114.978L111.8 114.966Z" fill="url(#g23)"/>
  <path opacity="0.6" d="M119.796 88.595C121.467 74.4328 112.849 69.2041 112.849 69.2041C112.849 69.2041 104.662 75.2294 106.866 89.2968C108.631 100.563 110.079 103.168 111.197 110.319C112.315 117.47 113.503 125.727 113.503 125.727C113.503 125.727 114.506 117.748 115.859 110.142C116.824 104.711 118.761 97.3895 119.796 88.595Z" fill="url(#g24)"/>
  <path d="M124.076 142.07C124.013 141.849 123.949 141.628 123.873 141.4C123.644 140.736 123.403 139.775 123.206 138.814C123.035 137.961 122.895 137.107 122.844 136.456C122.133 127.554 124.642 107.177 126.109 97.3013C125.918 98.7238 123.943 100.779 123.314 103.004C122.203 106.943 121.625 107.999 120.799 111.957C120.628 112.772 120.355 115.877 120.177 115.042C119.974 114.087 119.726 112.368 119.554 110.926C119.199 107.967 119.021 107.455 118.932 105.527C118.487 107.942 118.487 107.714 117.954 110.667C117.846 111.28 117.408 113.348 117.293 113.986C116.874 116.351 116.677 118.968 116.265 118.766C115.75 118.507 115.522 115.434 115.128 114.96C114.41 124.962 113.959 134.433 114.226 140.876C114.296 142.589 114.417 144.1 114.594 145.333C114.963 147.855 122.844 148.178 124.114 146.041C124.508 145.377 124.527 143.923 124.133 142.342C124.108 142.247 124.089 142.159 124.064 142.064L124.076 142.07Z" fill="url(#g25)"/>
  <path opacity="0.38" d="M103.727 122.344C101.803 115.073 95.8839 109.402 88.4279 107.765C88.3136 108.239 88.1739 108.7 88.0214 109.156C87.7992 109.8 87.5388 110.426 87.2085 111.027C85.5573 114.005 83.6901 116.085 82.8645 121.124C81.0418 132.214 93.1657 136.38 93.0323 136.418C93.0069 136.424 92.9625 136.437 92.918 136.443C93.5404 136.519 94.1438 136.589 94.728 136.658C97.3764 136.981 99.6754 137.284 101.657 137.562C102.933 135.381 103.816 132.941 104.191 130.342C104.121 127.902 103.962 125.177 103.74 122.338L103.727 122.344Z" fill="url(#g26)"/>
  <path d="M171.671 150.972L162.83 148.658L167.606 132.612C167.606 132.612 176.377 135.982 176.389 135.988C181.775 138.055 176.764 152.3 171.671 150.966V150.972Z" fill="url(#g27)"/>
  <path d="M155.932 151.718L143.446 148.804L154.268 117.217L166.113 122.85C180.498 129.691 172.197 155.512 155.939 151.718H155.932Z" fill="url(#g28)"/>
  <path d="M158.131 136.197C154.81 145.889 147.811 152.288 142.495 150.486C141.168 150.037 137.834 149.348 136.989 148.064C134.448 144.227 136.398 136.937 138.888 129.666C141.225 122.85 143.765 115.87 147.874 114.018C149.608 113.24 152.949 114.84 154.524 115.377C159.84 117.179 161.453 126.505 158.138 136.197H158.131Z" fill="url(#g29)"/>
  <path d="M152.435 134.276C155.755 124.583 154.706 115.455 150.092 113.888C145.477 112.322 139.045 118.91 135.724 128.603C132.404 138.296 133.453 147.424 138.067 148.991C142.682 150.557 149.114 143.969 152.435 134.276Z" fill="url(#g30)"/>
  <path d="M145.384 127.522C145.251 127.522 145.111 127.497 144.965 127.453C142.882 126.846 140.843 126.056 138.786 125.354C135.388 124.203 136.842 124.696 133.451 123.546C132.022 123.059 131.26 121.51 131.743 120.087C132.225 118.665 133.788 117.906 135.217 118.386C139.719 119.916 145.924 121.895 146.845 122.332C148.896 123.305 147.499 127.573 145.378 127.516L145.384 127.522Z" fill="url(#g31)"/>
  <path d="M141.505 139.269C141.371 139.269 141.231 139.244 141.085 139.2C139.002 138.593 136.964 137.803 134.906 137.101C131.508 135.95 132.962 136.443 129.571 135.293C128.142 134.806 127.38 133.257 127.863 131.834C128.345 130.412 129.908 129.653 131.337 130.134C135.839 131.664 142.044 133.642 142.965 134.079C145.017 135.052 143.619 139.32 141.498 139.263L141.505 139.269Z" fill="url(#g32)"/>
  <path d="M56.864 150.935L65.7045 148.621L60.9286 132.575C60.9286 132.575 52.1579 135.945 52.1452 135.951C46.7596 138.018 51.7705 152.263 56.864 150.929V150.935Z" fill="url(#g33)"/>
  <path d="M72.6019 151.674L85.0878 148.76L74.2658 117.173L62.4213 122.806C48.0364 129.647 56.3371 155.468 72.5955 151.674H72.6019Z" fill="url(#g34)"/>
  <path d="M70.4055 135.52C73.727 145.212 80.7258 151.61 86.0415 149.809C87.3689 149.36 90.7031 148.671 91.5478 147.387C94.0882 143.549 92.1384 136.26 89.6489 128.989C87.3117 122.173 84.7713 115.193 80.6623 113.341C78.9285 112.563 75.5879 114.163 74.0128 114.7C68.6971 116.502 67.0839 125.828 70.3991 135.52H70.4055Z" fill="url(#g35)"/>
  <path d="M90.4735 148.297C95.088 146.73 96.1371 137.602 92.8166 127.909C89.4962 118.216 83.0636 111.628 78.4491 113.194C73.8346 114.761 72.7855 123.889 76.1059 133.582C79.4264 143.275 85.8589 149.863 90.4735 148.297Z" fill="url(#g36)"/>
  <path d="M89.5144 138.599L80.858 136.981C80.5024 136.911 80.2356 136.645 80.1912 136.317L79.7593 132.675C79.6958 132.163 80.2039 131.746 80.7627 131.847L89.4191 133.465C89.7747 133.535 90.0415 133.8 90.0859 134.129L90.5178 137.771C90.5813 138.283 90.0732 138.7 89.5144 138.599Z" fill="url(#g37)"/>
  <path d="M79.8932 133.669C79.8297 133.156 80.3378 132.739 80.8966 132.84L89.553 134.459C89.9023 134.522 90.1627 134.781 90.2071 135.097L90.0928 134.124C90.0547 133.795 89.788 133.523 89.426 133.46L80.7696 131.841C80.2107 131.74 79.709 132.158 79.7662 132.67L79.8868 133.662L79.8932 133.669Z" fill="url(#g38)"/>
  <path d="M87.9776 127.655L79.6007 125.993C79.1942 125.91 78.8894 125.62 78.8449 125.265L78.4956 122.522C78.4194 121.94 79.0418 121.472 79.7086 121.605L88.0855 123.268C88.492 123.35 88.7968 123.641 88.8413 123.995L89.1906 126.739C89.2668 127.32 88.6444 127.788 87.9776 127.655Z" fill="url(#g39)"/>
  <path d="M78.6294 123.255C78.5976 122.73 79.1311 122.313 79.6837 122.421L88.3464 124.14C88.6957 124.21 88.9433 124.475 88.9751 124.798L88.9116 123.812C88.8925 123.477 88.6321 123.205 88.2765 123.129L79.6138 121.409C79.0549 121.302 78.5214 121.719 78.5595 122.244L78.6294 123.255Z" fill="url(#g40)"/>
  <defs>
    <linearGradient id="g0" x1="201.667" y1="109.623" x2="124.873" y2="154.16" gradientUnits="userSpaceOnUse">
      <stop stop-color="#A030B9"/>
      <stop offset="0.11" stop-color="#7424B7"/>
      <stop offset="0.24" stop-color="#4218B5"/>
      <stop offset="0.37" stop-color="#1E0EB4"/>
      <stop offset="0.46" stop-color="#0809B3"/>
      <stop offset="0.53" stop-color="#0007B3"/>
      <stop offset="0.99" stop-color="#00073A"/>
    </linearGradient>
    <linearGradient id="g1" x1="207.098" y1="137.276" x2="223.324" y2="143.648" gradientUnits="userSpaceOnUse">
      <stop stop-color="#A030B9" stop-opacity="0"/>
      <stop offset="0.11" stop-color="#902CB8" stop-opacity="0.04"/>
      <stop offset="0.16" stop-color="#8429B8" stop-opacity="0.07"/>
      <stop offset="0.22" stop-color="#7B26B7" stop-opacity="0.13"/>
      <stop offset="0.32" stop-color="#6420B6" stop-opacity="0.29"/>
      <stop offset="0.46" stop-color="#3F17B5" stop-opacity="0.55"/>
      <stop offset="0.62" stop-color="#0C0AB3" stop-opacity="0.91"/>
      <stop offset="0.65" stop-color="#0007B3"/>
      <stop offset="0.99" stop-color="#00073A"/>
    </linearGradient>
    <linearGradient id="g2" x1="186.308" y1="124.191" x2="184.083" y2="129.623" gradientUnits="userSpaceOnUse">
      <stop stop-color="#A030B9" stop-opacity="0"/>
      <stop offset="0.11" stop-color="#902CB8" stop-opacity="0.04"/>
      <stop offset="0.16" stop-color="#8429B8" stop-opacity="0.07"/>
      <stop offset="0.23" stop-color="#7B26B7" stop-opacity="0.13"/>
      <stop offset="0.34" stop-color="#6420B6" stop-opacity="0.29"/>
      <stop offset="0.49" stop-color="#3F17B5" stop-opacity="0.55"/>
      <stop offset="0.66" stop-color="#0C0AB3" stop-opacity="0.91"/>
      <stop offset="0.7" stop-color="#0007B3"/>
      <stop offset="0.99" stop-color="#00073A"/>
    </linearGradient>
    <linearGradient id="g3" x1="193.002" y1="116.854" x2="186.806" y2="133.199" gradientUnits="userSpaceOnUse">
      <stop stop-color="#A030B9" stop-opacity="0"/>
      <stop offset="0.11" stop-color="#7424B7"/>
      <stop offset="0.24" stop-color="#4218B5"/>
      <stop offset="0.37" stop-color="#1E0EB4"/>
      <stop offset="0.46" stop-color="#0809B3"/>
      <stop offset="0.53" stop-color="#0007B3"/>
      <stop offset="0.99" stop-color="#00073A"/>
    </linearGradient>
    <linearGradient id="g4" x1="13.1689" y1="155.373" x2="69.5835" y2="98.7108" gradientUnits="userSpaceOnUse">
      <stop stop-color="#A030B9"/>
      <stop offset="0.06" stop-color="#982EB8"/>
      <stop offset="0.16" stop-color="#8429B7"/>
      <stop offset="0.27" stop-color="#6420B6"/>
      <stop offset="0.4" stop-color="#3614B5"/>
      <stop offset="0.53" stop-color="#0007B3"/>
      <stop offset="0.99" stop-color="#00073A"/>
    </linearGradient>
    <linearGradient id="g5" x1="12.0074" y1="131.652" x2="-0.90764" y2="136.724" gradientUnits="userSpaceOnUse">
      <stop stop-color="#A030B9" stop-opacity="0"/>
      <stop offset="0.11" stop-color="#902CB8" stop-opacity="0.04"/>
      <stop offset="0.16" stop-color="#8429B8" stop-opacity="0.07"/>
      <stop offset="0.23" stop-color="#7B26B7" stop-opacity="0.13"/>
      <stop offset="0.34" stop-color="#6420B6" stop-opacity="0.29"/>
      <stop offset="0.49" stop-color="#3F17B5" stop-opacity="0.55"/>
      <stop offset="0.66" stop-color="#0C0AB3" stop-opacity="0.91"/>
      <stop offset="0.7" stop-color="#0007B3"/>
      <stop offset="0.99" stop-color="#00073A"/>
    </linearGradient>
    <linearGradient id="g6" x1="21.5408" y1="46.9994" x2="71.3541" y2="146.315" gradientUnits="userSpaceOnUse">
      <stop stop-color="#FFE500"/>
      <stop offset="0.45" stop-color="#FF6D00"/>
      <stop offset="0.54" stop-color="#FF6709"/>
      <stop offset="0.69" stop-color="#FF5622"/>
      <stop offset="0.82" stop-color="#FF453F"/>
      <stop offset="1" stop-color="#FB0372"/>
    </linearGradient>
    <linearGradient id="g7" x1="29.2064" y1="43.1554" x2="79.0197" y2="142.471" gradientUnits="userSpaceOnUse">
      <stop stop-color="#FFEB49"/>
      <stop offset="0.45" stop-color="#FF6600"/>
      <stop offset="0.54" stop-color="#FF6109"/>
      <stop offset="0.69" stop-color="#FF5322"/>
      <stop offset="0.82" stop-color="#FF453F"/>
      <stop offset="1" stop-color="#FB2872"/>
    </linearGradient>
    <linearGradient id="g8" x1="43.007" y1="68.6475" x2="48.0241" y2="109.173" gradientUnits="userSpaceOnUse">
      <stop stop-color="#FFEB49"/>
      <stop offset="0.09" stop-color="#FFE545" stop-opacity="0.96"/>
      <stop offset="0.24" stop-color="#FFD63D" stop-opacity="0.84"/>
      <stop offset="0.44" stop-color="#FFBD2F" stop-opacity="0.66"/>
      <stop offset="0.67" stop-color="#FF9A1C" stop-opacity="0.4"/>
      <stop offset="0.94" stop-color="#FF6F05" stop-opacity="0.07"/>
      <stop offset="1" stop-color="#FF6600" stop-opacity="0"/>
    </linearGradient>
    <linearGradient id="g9" x1="102.139" y1="4.08371" x2="102.97" y2="142.905" gradientUnits="userSpaceOnUse">
      <stop stop-color="#FE5B15"/>
      <stop offset="0.2" stop-color="#FF9C00"/>
      <stop offset="0.29" stop-color="#FF9200"/>
      <stop offset="0.43" stop-color="#FF7900"/>
      <stop offset="0.52" stop-color="#FF6600"/>
      <stop offset="1" stop-color="#FB2872"/>
    </linearGradient>
    <linearGradient id="g10" x1="105.721" y1="41.7465" x2="103.235" y2="126.31" gradientUnits="userSpaceOnUse">
      <stop stop-color="#FFEB49"/>
      <stop offset="0.36" stop-color="#FFB52B" stop-opacity="0.6"/>
      <stop offset="0.67" stop-color="#FF8A14" stop-opacity="0.28"/>
      <stop offset="0.89" stop-color="#FF7005" stop-opacity="0.08"/>
      <stop offset="1" stop-color="#FF6600" stop-opacity="0"/>
    </linearGradient>
    <linearGradient id="g11" x1="45.9088" y1="37.1685" x2="95.7221" y2="136.484" gradientUnits="userSpaceOnUse">
      <stop stop-color="#FFE500"/>
      <stop offset="0.45" stop-color="#FF6D00"/>
      <stop offset="0.54" stop-color="#FF6709"/>
      <stop offset="0.69" stop-color="#FF5622"/>
      <stop offset="0.82" stop-color="#FF453F"/>
      <stop offset="1" stop-color="#FB0372"/>
    </linearGradient>
    <linearGradient id="g12" x1="136.2" y1="42.643" x2="133.714" y2="127.206" gradientUnits="userSpaceOnUse">
      <stop stop-color="#FFEB49"/>
      <stop offset="0.36" stop-color="#FFB52B" stop-opacity="0.6"/>
      <stop offset="0.67" stop-color="#FF8A14" stop-opacity="0.28"/>
      <stop offset="0.89" stop-color="#FF7005" stop-opacity="0.08"/>
      <stop offset="1" stop-color="#FF6600" stop-opacity="0"/>
    </linearGradient>
    <linearGradient id="g13" x1="92.1758" y1="23.3096" x2="140.008" y2="158.316" gradientUnits="userSpaceOnUse">
      <stop offset="0.02" stop-color="#FF7408"/>
      <stop offset="0.03" stop-color="#FFC534"/>
      <stop offset="0.04" stop-color="#FFD63D"/>
      <stop offset="0.05" stop-color="#FFE947"/>
      <stop offset="0.08" stop-color="#FFEB49"/>
      <stop offset="0.19" stop-color="#FFC936"/>
      <stop offset="0.43" stop-color="#FF7508"/>
      <stop offset="0.47" stop-color="#FF6600"/>
      <stop offset="0.85" stop-color="#FB2872"/>
    </linearGradient>
    <linearGradient id="g14" x1="126.543" y1="42.2829" x2="124.055" y2="126.911" gradientUnits="userSpaceOnUse">
      <stop stop-color="#FFEB49"/>
      <stop offset="0.36" stop-color="#FFB52B" stop-opacity="0.6"/>
      <stop offset="0.67" stop-color="#FF8A14" stop-opacity="0.28"/>
      <stop offset="0.89" stop-color="#FF7005" stop-opacity="0.08"/>
      <stop offset="1" stop-color="#FF6600" stop-opacity="0"/>
    </linearGradient>
    <linearGradient id="g15" x1="145.06" y1="120.422" x2="66.0061" y2="152.07" gradientUnits="userSpaceOnUse">
      <stop offset="0.02" stop-color="#BE0449" stop-opacity="0"/>
      <stop offset="0.51" stop-color="#FB2872"/>
      <stop offset="0.67" stop-color="#A31C5E"/>
      <stop offset="0.83" stop-color="#4C104A"/>
      <stop offset="0.94" stop-color="#15093E"/>
      <stop offset="1" stop-color="#00073A"/>
    </linearGradient>
    <linearGradient id="g16" x1="100.71" y1="127.933" x2="154.667" y2="149.127" gradientUnits="userSpaceOnUse">
      <stop stop-color="#BE0449" stop-opacity="0"/>
      <stop offset="0.41" stop-color="#FB2872"/>
      <stop offset="1" stop-color="#00073A"/>
    </linearGradient>
    <linearGradient id="g17" x1="91.8473" y1="11.0435" x2="177.713" y2="192.904" gradientUnits="userSpaceOnUse">
      <stop stop-color="#FF6600"/>
      <stop offset="0.17" stop-color="#FF9C00"/>
      <stop offset="0.26" stop-color="#FF9200"/>
      <stop offset="0.39" stop-color="#FF7900"/>
      <stop offset="0.47" stop-color="#FF6600"/>
      <stop offset="0.53" stop-color="#FE5B13"/>
      <stop offset="0.65" stop-color="#FC453C"/>
      <stop offset="0.76" stop-color="#FB3559"/>
      <stop offset="0.85" stop-color="#FB2B6B"/>
      <stop offset="0.92" stop-color="#FB2872"/>
    </linearGradient>
    <linearGradient id="g18" x1="98.1947" y1="24.5956" x2="93.7019" y2="15.3093" gradientUnits="userSpaceOnUse">
      <stop stop-color="#D4002F" stop-opacity="0"/>
      <stop offset="0.88" stop-color="#D4002F"/>
    </linearGradient>
    <linearGradient id="g19" x1="108.993" y1="14.2725" x2="104.226" y2="-7.96121" gradientUnits="userSpaceOnUse">
      <stop stop-color="#FF6600" stop-opacity="0"/>
      <stop offset="0.07" stop-color="#FF6600" stop-opacity="0.2"/>
      <stop offset="0.21" stop-color="#FF6600" stop-opacity="0.54"/>
      <stop offset="0.31" stop-color="#FF6600" stop-opacity="0.79"/>
      <stop offset="0.39" stop-color="#FF6600" stop-opacity="0.94"/>
      <stop offset="0.43" stop-color="#FF6600"/>
      <stop offset="0.72" stop-color="#FD4737"/>
      <stop offset="1" stop-color="#FB2872"/>
    </linearGradient>
    <linearGradient id="g20" x1="84.464" y1="27.945" x2="70.5946" y2="9.883" gradientUnits="userSpaceOnUse">
      <stop stop-color="#FF6600" stop-opacity="0"/>
      <stop offset="0.05" stop-color="#FF6600" stop-opacity="0.1"/>
      <stop offset="0.17" stop-color="#FF6600" stop-opacity="0.36"/>
      <stop offset="0.34" stop-color="#FF6600" stop-opacity="0.76"/>
      <stop offset="0.43" stop-color="#FF6600"/>
      <stop offset="0.72" stop-color="#FD4737"/>
      <stop offset="1" stop-color="#FB2872"/>
    </linearGradient>
    <linearGradient id="g21" x1="93.7313" y1="39.2601" x2="98.8216" y2="46.9933" gradientUnits="userSpaceOnUse">
      <stop offset="0.16" stop-color="#A030B9"/>
      <stop offset="0.88" stop-color="#00073A"/>
    </linearGradient>
    <linearGradient id="g22" x1="111.53" y1="31.0083" x2="114.119" y2="39.8873" gradientUnits="userSpaceOnUse">
      <stop offset="0.16" stop-color="#A030B9"/>
      <stop offset="0.88" stop-color="#00073A"/>
    </linearGradient>
    <linearGradient id="g23" x1="106.091" y1="98.0974" x2="108.375" y2="159.009" gradientUnits="userSpaceOnUse">
      <stop offset="0.01" stop-color="#BE0449" stop-opacity="0"/>
      <stop offset="0.06" stop-color="#BF054A" stop-opacity="0.04"/>
      <stop offset="0.14" stop-color="#C2084C" stop-opacity="0.16"/>
      <stop offset="0.23" stop-color="#C70D51" stop-opacity="0.36"/>
      <stop offset="0.35" stop-color="#CE1457" stop-opacity="0.63"/>
      <stop offset="0.48" stop-color="#D71E5F" stop-opacity="0.97"/>
      <stop offset="0.49" stop-color="#D81F60"/>
      <stop offset="0.56" stop-color="#D31E5F"/>
      <stop offset="0.63" stop-color="#C71D5D"/>
      <stop offset="0.7" stop-color="#B31A59"/>
      <stop offset="0.77" stop-color="#971754"/>
      <stop offset="0.84" stop-color="#73134E"/>
      <stop offset="0.91" stop-color="#460E46"/>
      <stop offset="0.98" stop-color="#13093D"/>
      <stop offset="1" stop-color="#00073A"/>
    </linearGradient>
    <linearGradient id="g24" x1="113.083" y1="81.2294" x2="115.5" y2="134.623" gradientUnits="userSpaceOnUse">
      <stop stop-color="#FFEB49"/>
      <stop offset="0.09" stop-color="#FFE545" stop-opacity="0.96"/>
      <stop offset="0.24" stop-color="#FFD63D" stop-opacity="0.84"/>
      <stop offset="0.44" stop-color="#FFBD2F" stop-opacity="0.66"/>
      <stop offset="0.68" stop-color="#FF9A1C" stop-opacity="0.4"/>
      <stop offset="0.94" stop-color="#FF6F05" stop-opacity="0.07"/>
      <stop offset="1" stop-color="#FF6600" stop-opacity="0"/>
    </linearGradient>
    <linearGradient id="g25" x1="121.136" y1="86.9325" x2="118.612" y2="159.464" gradientUnits="userSpaceOnUse">
      <stop stop-color="#D81F60" stop-opacity="0"/>
      <stop offset="0.11" stop-color="#D81F60" stop-opacity="0.01"/>
      <stop offset="0.19" stop-color="#D81F60" stop-opacity="0.06"/>
      <stop offset="0.27" stop-color="#D81F60" stop-opacity="0.14"/>
      <stop offset="0.35" stop-color="#D81F60" stop-opacity="0.25"/>
      <stop offset="0.42" stop-color="#D81F60" stop-opacity="0.39"/>
      <stop offset="0.49" stop-color="#D81F60" stop-opacity="0.57"/>
      <stop offset="0.55" stop-color="#D81F60" stop-opacity="0.77"/>
      <stop offset="0.62" stop-color="#D81F60"/>
      <stop offset="0.66" stop-color="#D21E5F"/>
      <stop offset="0.71" stop-color="#C21C5C"/>
      <stop offset="0.77" stop-color="#A81957"/>
      <stop offset="0.83" stop-color="#841551"/>
      <stop offset="0.9" stop-color="#551049"/>
      <stop offset="0.97" stop-color="#1D0A3F"/>
      <stop offset="1" stop-color="#00073A"/>
    </linearGradient>
    <radialGradient id="g26" cx="0" cy="0" r="1" gradientUnits="userSpaceOnUse" gradientTransform="translate(84.1093 130.222) scale(33.5267 33.3761)">
      <stop stop-color="#FFEB49"/>
      <stop offset="0.07" stop-color="#FFE546" stop-opacity="0.96"/>
      <stop offset="0.18" stop-color="#FFD73E" stop-opacity="0.85"/>
      <stop offset="0.32" stop-color="#FFC031" stop-opacity="0.68"/>
      <stop offset="0.49" stop-color="#FFA01F" stop-opacity="0.44"/>
      <stop offset="0.69" stop-color="#FF7709" stop-opacity="0.13"/>
      <stop offset="0.77" stop-color="#FF6600" stop-opacity="0"/>
    </radialGradient>
    <linearGradient id="g27" x1="187.721" y1="145.314" x2="149.088" y2="137.476" gradientUnits="userSpaceOnUse">
      <stop stop-color="#E752FF"/>
      <stop offset="0.18" stop-color="#B142FF"/>
      <stop offset="0.61" stop-color="#2A1BFF"/>
      <stop offset="0.62" stop-color="#271AFF"/>
    </linearGradient>
    <linearGradient id="g28" x1="190.465" y1="143.385" x2="118.847" y2="125.809" gradientUnits="userSpaceOnUse">
      <stop offset="0.02" stop-color="#E752FF"/>
      <stop offset="0.23" stop-color="#B142FF"/>
      <stop offset="0.72" stop-color="#2A1BFF"/>
      <stop offset="0.74" stop-color="#271AFF"/>
    </linearGradient>
    <linearGradient id="g29" x1="163.637" y1="109.131" x2="131.695" y2="157.377" gradientUnits="userSpaceOnUse">
      <stop offset="0.13" stop-color="#E752FF"/>
      <stop offset="0.23" stop-color="#DD4FFF"/>
      <stop offset="0.38" stop-color="#C347FF"/>
      <stop offset="0.57" stop-color="#983BFF"/>
      <stop offset="0.8" stop-color="#5E2AFF"/>
      <stop offset="1" stop-color="#271AFF"/>
    </linearGradient>
    <linearGradient id="g30" x1="156.091" y1="111.052" x2="126.661" y2="171.529" gradientUnits="userSpaceOnUse">
      <stop stop-color="#A030B9"/>
      <stop offset="0.08" stop-color="#9B2EB8"/>
      <stop offset="0.16" stop-color="#8F2BB8"/>
      <stop offset="0.24" stop-color="#7B26B7"/>
      <stop offset="0.32" stop-color="#5F1FB6"/>
      <stop offset="0.4" stop-color="#3B16B5"/>
      <stop offset="0.48" stop-color="#0F0AB3"/>
      <stop offset="0.5" stop-color="#0007B3"/>
      <stop offset="0.99" stop-color="#00073A"/>
    </linearGradient>
    <linearGradient id="g31" x1="142.48" y1="115.471" x2="131.88" y2="143.459" gradientUnits="userSpaceOnUse">
      <stop offset="0.16" stop-color="#E752FF"/>
      <stop offset="0.2" stop-color="#DD4FFF"/>
      <stop offset="0.26" stop-color="#C347FF"/>
      <stop offset="0.35" stop-color="#983BFF"/>
      <stop offset="0.44" stop-color="#5E2AFF"/>
      <stop offset="0.52" stop-color="#271AFF"/>
    </linearGradient>
    <linearGradient id="g32" x1="138.139" y1="128.419" x2="127.539" y2="156.407" gradientUnits="userSpaceOnUse">
      <stop offset="0.16" stop-color="#E752FF"/>
      <stop offset="0.19" stop-color="#DD4FFF"/>
      <stop offset="0.25" stop-color="#C347FF"/>
      <stop offset="0.32" stop-color="#983BFF"/>
      <stop offset="0.4" stop-color="#5E2AFF"/>
      <stop offset="0.47" stop-color="#271AFF"/>
    </linearGradient>
    <linearGradient id="g33" x1="40.7874" y1="145.188" x2="79.421" y2="137.35" gradientUnits="userSpaceOnUse">
      <stop stop-color="#E752FF"/>
      <stop offset="0.26" stop-color="#B142FF"/>
      <stop offset="0.84" stop-color="#2A1BFF"/>
      <stop offset="0.85" stop-color="#271AFF"/>
    </linearGradient>
    <linearGradient id="g34" x1="38.0404" y1="143.254" x2="109.656" y2="125.672" gradientUnits="userSpaceOnUse">
      <stop stop-color="#E752FF"/>
      <stop offset="0.26" stop-color="#B142FF"/>
      <stop offset="0.84" stop-color="#2A1BFF"/>
      <stop offset="0.85" stop-color="#271AFF"/>
    </linearGradient>
    <linearGradient id="g35" x1="62.4476" y1="86.1118" x2="129.6" y2="263.407" gradientUnits="userSpaceOnUse">
      <stop stop-color="#E752FF"/>
      <stop offset="0.11" stop-color="#DD4FFF"/>
      <stop offset="0.28" stop-color="#C347FF"/>
      <stop offset="0.51" stop-color="#983BFF"/>
      <stop offset="0.77" stop-color="#5E2AFF"/>
      <stop offset="1" stop-color="#271AFF"/>
    </linearGradient>
    <linearGradient id="g36" x1="50.0114" y1="123.734" x2="148.698" y2="241.448" gradientUnits="userSpaceOnUse">
      <stop stop-color="#A030B9"/>
      <stop offset="0.06" stop-color="#9B2EB8"/>
      <stop offset="0.13" stop-color="#8F2BB8"/>
      <stop offset="0.2" stop-color="#7B26B7"/>
      <stop offset="0.26" stop-color="#5F1FB6"/>
      <stop offset="0.33" stop-color="#3B16B5"/>
      <stop offset="0.51" stop-color="#0F0AB3"/>
      <stop offset="0.66" stop-color="#0007B3"/>
      <stop offset="0.99" stop-color="#00073A"/>
    </linearGradient>
    <linearGradient id="g37" x1="95.6744" y1="131.569" x2="77.6912" y2="137.865" gradientUnits="userSpaceOnUse">
      <stop stop-color="#0007B3"/>
      <stop offset="0.56" stop-color="#00073A"/>
    </linearGradient>
    <linearGradient id="g38" x1="91.776" y1="136.032" x2="81.3638" y2="132.372" gradientUnits="userSpaceOnUse">
      <stop stop-color="#E752FF" stop-opacity="0"/>
      <stop offset="0.57" stop-color="#582385" stop-opacity="0.62"/>
      <stop offset="1" stop-color="#00073A"/>
    </linearGradient>
    <linearGradient id="g39" x1="94.1603" y1="122.049" x2="77.0769" y2="129.023" gradientUnits="userSpaceOnUse">
      <stop stop-color="#A030B9"/>
      <stop offset="0.04" stop-color="#982EB8"/>
      <stop offset="0.09" stop-color="#8429B7"/>
      <stop offset="0.16" stop-color="#6420B6"/>
      <stop offset="0.23" stop-color="#3614B5"/>
      <stop offset="0.31" stop-color="#0007B3"/>
      <stop offset="0.58" stop-color="#00073A"/>
    </linearGradient>
    <linearGradient id="g40" x1="91.6266" y1="126.218" x2="78.7945" y2="121.426" gradientUnits="userSpaceOnUse">
      <stop stop-color="#E752FF" stop-opacity="0"/>
      <stop offset="0.24" stop-color="#A13BC3" stop-opacity="0.3"/>
      <stop offset="0.72" stop-color="#2C155F" stop-opacity="0.81"/>
      <stop offset="1" stop-color="#00073A"/>
    </linearGradient>
  </defs>
</svg>

