<!-- This Source Code Form is subject to the terms of the Mozilla Public
   - License, v. 2.0. If a copy of the MPL was not distributed with this
   - file, You can obtain one at http://mozilla.org/MPL/2.0/. -->
<svg width="140" height="140" viewBox="0 0 140 140" fill="none" xmlns="http://www.w3.org/2000/svg">
  <g clip-path="url(#c0)">
    <path d="M4.70497 77.3845C5.64886 72.4373 14.6972 69.9311 19.262 64.3898C21.939 61.1432 21.6136 51.0941 21.7519 47.3348C21.7519 47.2778 21.7519 47.2209 21.7519 47.1639C21.9716 41.4518 22.4435 36.9113 23.6234 26.3984C24.7381 16.4388 27.5454 8.37506 31.7766 6.55238C35.6986 4.85989 41.2155 9.57932 48.8398 18.2859C53.3476 23.4366 54.4787 24.9582 57.1558 28.4652C57.4487 28.8476 57.6277 29.2138 57.8881 29.5067C58.303 29.9787 58.9296 30.2797 60.5651 30.2065C60.9231 30.1902 61.2242 30.1333 61.4765 30.0356C63.47 29.2626 62.4854 25.6742 63.9257 14.787C65.3171 4.23336 67.9779 -2.01582 72.8519 -1.98327C77.0831 -1.95886 85.0818 6.69884 91.4123 14.7137C96.6525 21.3535 97.0593 22.0451 99.0936 24.4211C101.461 27.1958 105.457 32.4767 109.476 37.2694C113.138 41.6308 116.808 45.5935 119.265 46.8954C125.815 50.3536 129.566 48.36 131.772 51.802C133.741 54.8859 128.899 54.9754 129.607 55.8135C129.705 55.9274 129.835 56.0088 129.981 56.082C118.948 58.3115 114.049 70.0043 109.468 67.5551C108.207 64.9757 106.702 63.2506 104.863 62.2091C102.234 60.7282 98.9471 60.6305 94.7566 61.3873C88.5318 62.5183 81.1028 68.206 75.3744 74.976C74.7397 75.7246 74.1213 76.4813 73.5354 77.2543C73.275 77.5961 73.0798 77.9541 72.9252 78.3121C71.1757 80.3708 70.3294 80.8427 68.816 80.4115C48.9374 74.7482 32.9971 73.6578 7.65868 80.2894C7.5529 79.5164 4.25742 79.6466 4.68868 77.3845H4.70497Z" fill="url(#g0)"/>
    <path opacity="0.7" d="M52.599 61.2814C52.599 61.2814 65.0323 54.6661 69.2473 52.819C73.5436 50.9393 76.6193 48.7749 78.6454 47.5788C83.6171 44.6657 79.0685 34.4539 89.1665 31.37C98.8332 28.4163 123.179 42.8349 107.784 59.3936C92.3887 75.9442 61.2242 78.5236 55.5934 73.2264C49.9627 67.9293 52.4282 61.9324 52.599 61.2733V61.2814Z" fill="url(#g1)"/>
    <path opacity="0.7" d="M102.788 36.4398C98.3448 31.997 91.9492 28.6445 86.1801 32.1353C80.4029 35.6261 80.3947 43.4457 81.4688 47.0747C82.5429 50.7038 84.8293 56.9855 86.3021 58.4665C87.7831 59.9474 97.3602 55.0652 102.592 51.306C107.832 47.5467 110.705 44.3651 102.788 36.4479V36.4398Z" fill="url(#g2)"/>
    <path d="M94.6914 31.2314C91.9004 30.3689 88.9711 30.4503 86.1802 32.1346C85.871 32.3218 85.5862 32.5252 85.3095 32.7368C76.3914 31.1257 65.2275 30.2875 61.4845 30.0434C63.478 29.2704 62.4935 25.682 63.9337 14.7948C65.3251 4.24117 67.9859 -2.00801 72.86 -1.97546C77.0912 -1.95105 85.0898 6.70667 91.4204 14.7216C96.6606 21.3613 97.0674 22.0529 99.1016 24.4289C101.469 27.2036 105.465 32.4845 109.484 37.2772L106.905 37.1795C103.349 34.0549 98.7273 31.9231 94.6914 31.2396V31.2314Z" fill="url(#g3)"/>
    <path d="M21.7603 47.1643C21.98 41.4521 22.4519 36.9117 23.6318 26.3988C24.7466 16.4392 27.5538 8.37545 31.785 6.55277C35.707 4.86028 41.2239 9.57971 48.8482 18.2862C53.3561 23.4369 54.4871 24.9586 57.1641 28.4656C57.4571 28.848 57.6361 29.2142 57.8965 29.5071C55.1787 30.5486 49.1493 32.8677 43.136 35.3006C33.5914 39.1494 25.6009 44.4303 21.7684 47.1643H21.7603Z" fill="url(#g4)"/>
    <path d="M25.6175 98.9882C20.5807 95.8066 11.4347 99.989 9.08316 95.9043C7.85449 93.7724 11.5568 92.4705 11.0035 90.6803C10.3607 88.6054 2.60616 91.966 2.47597 87.6371C2.37018 84.1626 5.90163 81.9657 7.1059 81.0462C7.54529 80.7126 7.69984 80.4766 7.67545 80.2894C33.0139 73.6497 48.9542 74.7482 68.8328 80.4115C70.3381 80.8428 71.1925 80.3708 72.9419 78.3122C70.1103 84.8868 85.1636 93.2272 94.5292 91.1767C111.422 87.4825 113.155 75.5375 109.697 67.9945C109.623 67.8399 109.55 67.7016 109.477 67.5551C114.058 70.0043 118.948 58.3197 129.99 56.082C131.707 56.9445 136.703 55.6996 137.614 59.1497C138.42 62.2254 132.382 62.1115 132.675 63.5355C133.074 65.4721 137.419 65.4639 137.777 67.4168C138.697 72.3152 136.532 68.1654 121.869 84.5125C114.058 93.2191 105.49 110.339 103.488 122.772C102.707 127.598 101.348 134.53 100.713 141.081H87.1002C86.3353 126.979 77.58 119.762 77.58 119.762C77.58 119.762 67.1403 125.734 63.1694 141.081H17.4967C19.2869 133.676 22.1592 127.826 24.7468 122.301C29.1733 112.854 34.4379 104.57 25.6175 98.9963V98.9882Z" fill="url(#g5)"/>
    <path opacity="0.6" d="M25.6175 98.9882C20.5807 95.8066 11.4348 99.989 9.08318 95.9043C7.85449 93.7724 11.5568 92.4705 11.0035 90.6803C10.3607 88.6054 2.60617 91.966 2.47598 87.6371C2.37021 84.1626 5.90164 81.9657 7.10591 81.0462C7.5453 80.7126 7.69987 80.4766 7.67546 80.2894C33.0139 73.6497 48.9542 74.7482 68.8328 80.4115C70.3381 80.8428 71.1925 80.3708 72.9419 78.3122C70.1103 84.8868 85.1636 93.2272 94.5293 91.1767C111.422 87.4825 113.155 75.5375 109.697 67.9945C109.623 67.8399 109.55 67.7016 109.477 67.5551C114.058 70.0043 118.948 58.3197 129.99 56.082C131.707 56.9445 136.703 55.6996 137.614 59.1497C138.42 62.2254 132.382 62.1115 132.675 63.5355C133.074 65.4721 137.419 65.4639 137.777 67.4168C138.697 72.3152 136.532 68.1654 121.869 84.5125C114.058 93.2191 105.49 110.339 103.488 122.772C102.707 127.598 101.348 134.53 100.713 141.081H87.1002C86.3353 126.979 77.58 119.762 77.58 119.762C77.58 119.762 67.1403 125.734 63.1694 141.081H17.4968C19.2869 133.676 22.1592 127.826 24.7468 122.301C29.1733 112.854 34.4379 104.57 25.6175 98.9963V98.9882Z" fill="url(#g6)"/>
    <path d="M75.3824 74.9754C81.1108 68.2055 88.5317 62.5259 94.7646 61.3867C98.9552 60.6218 102.251 60.7276 104.871 62.2085C106.71 63.2419 108.215 64.967 109.476 67.5545C109.549 67.701 109.623 67.8393 109.696 67.9939C113.154 75.5369 111.421 87.4819 94.5286 91.1761C85.1549 93.2266 70.1097 84.8781 72.9413 78.3116C73.0959 77.9535 73.2912 77.6037 73.5516 77.2538C74.1375 76.4808 74.7559 75.724 75.3905 74.9754H75.3824Z" fill="#FFC635"/>
    <path d="M77.5794 119.745C77.5794 119.745 86.3347 126.971 87.0996 141.064H63.1688C67.1397 125.718 77.5794 119.745 77.5794 119.745Z" fill="#FFB029"/>
    <path d="M99.0774 69.9941C95.196 70.3196 92.7143 67.317 93.0804 65.4781C93.3408 64.168 94.7323 62.5325 97.6697 62.2884C100.99 62.0199 102.918 63.2811 103.545 64.5667C104.318 66.1453 103.162 69.6605 99.0855 70.0022L99.0774 69.9941Z" fill="#00073A"/>
    <path d="M66.4572 67.2779C64.0161 68.0916 60.859 66.9199 59.3781 61.2159C59.1584 60.3696 58.605 58.7992 59.0444 58.3272C59.9151 57.3834 61.9982 56.5127 65.1553 55.0399C66.1805 54.5598 67.3116 53.7868 67.7754 53.9658C68.5484 54.2588 68.996 55.7641 69.769 58.8806C71.1685 64.5113 68.2718 66.6758 66.4572 67.286V67.2779Z" fill="url(#g7)"/>
    <path d="M65.8069 61.5914C65.6198 60.5905 66.2789 59.6222 67.2797 59.4351C68.2805 59.2479 69.2489 59.907 69.436 60.9079C69.6232 61.9087 68.9641 62.877 67.9632 63.0642C66.9624 63.2513 65.9941 62.5922 65.8069 61.5914Z" fill="white"/>
    <path d="M96.3042 39.9865C99.2253 39.8889 101.552 43.1436 103.147 47.8712C103.481 48.8558 103.66 49.7102 103.725 50.4588C104.018 53.7868 102.016 54.9992 100.576 55.4711C99.7136 55.7559 98.0699 56.0895 96.4018 55.1294C95.1243 54.3971 93.8387 52.908 92.8704 50.0682C90.7548 43.8353 91.4139 40.1574 96.296 39.9865H96.3042Z" fill="url(#g8)"/>
    <path d="M100.2 48.6591C101.144 48.3987 102.121 48.952 102.381 49.8959C102.641 50.8398 102.088 51.8162 101.144 52.0766C100.2 52.337 99.2238 51.7837 98.9635 50.8398C98.7031 49.8959 99.2564 48.9195 100.2 48.6591Z" fill="white"/>
  </g>
  <defs>
    <linearGradient id="g0" x1="68.8648" y1="15.7553" x2="67.5548" y2="174.881" gradientUnits="userSpaceOnUse">
      <stop stop-color="#FF6600"/>
      <stop offset="0.04" stop-color="#FF6F00"/>
      <stop offset="0.2" stop-color="#FF8F00"/>
      <stop offset="0.29" stop-color="#FF9C00"/>
      <stop offset="0.52" stop-color="#FF6600"/>
      <stop offset="0.86" stop-color="#FB2872"/>
    </linearGradient>
    <radialGradient id="g1" cx="0" cy="0" r="1" gradientUnits="userSpaceOnUse" gradientTransform="translate(61.0777 38.006) rotate(180) scale(23.5646 29.6914)">
      <stop stop-color="#D81F60" stop-opacity="0.5"/>
      <stop offset="0.22" stop-color="#D81F60" stop-opacity="0.49"/>
      <stop offset="0.39" stop-color="#D81F60" stop-opacity="0.44"/>
      <stop offset="0.54" stop-color="#D81F60" stop-opacity="0.37"/>
      <stop offset="0.68" stop-color="#D81F60" stop-opacity="0.26"/>
      <stop offset="0.81" stop-color="#D81F60" stop-opacity="0.12"/>
      <stop offset="0.91" stop-color="#D81F60" stop-opacity="0"/>
    </radialGradient>
    <radialGradient id="g2" cx="0" cy="0" r="1" gradientUnits="userSpaceOnUse" gradientTransform="translate(94.7808 53.6901) rotate(180) scale(23.4425 23.4426)">
      <stop offset="0.63" stop-color="#D81F60" stop-opacity="0"/>
      <stop offset="0.7" stop-color="#D81F60" stop-opacity="0.02"/>
      <stop offset="0.77" stop-color="#D81F60" stop-opacity="0.07"/>
      <stop offset="0.84" stop-color="#D81F60" stop-opacity="0.16"/>
      <stop offset="0.91" stop-color="#D81F60" stop-opacity="0.28"/>
      <stop offset="0.98" stop-color="#D81F60" stop-opacity="0.43"/>
      <stop offset="1" stop-color="#D81F60" stop-opacity="0.5"/>
    </radialGradient>
    <linearGradient id="g3" x1="83.8367" y1="27.6919" x2="72.7298" y2="-12.407" gradientUnits="userSpaceOnUse">
      <stop stop-color="#FF6600" stop-opacity="0"/>
      <stop offset="0.05" stop-color="#FF6600" stop-opacity="0.17"/>
      <stop offset="0.3" stop-color="#FF6600"/>
      <stop offset="0.65" stop-color="#FD4737"/>
      <stop offset="1" stop-color="#FB2872"/>
    </linearGradient>
    <linearGradient id="g4" x1="38.5712" y1="35.1541" x2="24.9663" y2="0.783678" gradientUnits="userSpaceOnUse">
      <stop stop-color="#FF6600" stop-opacity="0"/>
      <stop offset="0.04" stop-color="#FF6600" stop-opacity="0.05"/>
      <stop offset="0.11" stop-color="#FF6600" stop-opacity="0.2"/>
      <stop offset="0.21" stop-color="#FF6600" stop-opacity="0.43"/>
      <stop offset="0.33" stop-color="#FF6600" stop-opacity="0.75"/>
      <stop offset="0.42" stop-color="#FF6600"/>
      <stop offset="0.71" stop-color="#FD4737"/>
      <stop offset="1" stop-color="#FB2872"/>
    </linearGradient>
    <linearGradient id="g5" x1="70.7124" y1="17.6187" x2="68.849" y2="243.386" gradientUnits="userSpaceOnUse">
      <stop stop-color="#FF6600"/>
      <stop offset="0.21" stop-color="#FF9C00"/>
      <stop offset="0.52" stop-color="#FF6600"/>
      <stop offset="0.86" stop-color="#FB2872"/>
    </linearGradient>
    <linearGradient id="g6" x1="68.2388" y1="61.0537" x2="88.0441" y2="196.876" gradientUnits="userSpaceOnUse">
      <stop offset="0.15" stop-color="#FFEB49"/>
      <stop offset="0.34" stop-color="#FFC735" stop-opacity="0.73"/>
      <stop offset="0.58" stop-color="#FF9D1E" stop-opacity="0.42"/>
      <stop offset="0.78" stop-color="#FF7F0E" stop-opacity="0.19"/>
      <stop offset="0.92" stop-color="#FF6D03" stop-opacity="0.05"/>
      <stop offset="1" stop-color="#FF6600" stop-opacity="0"/>
    </linearGradient>
    <linearGradient id="g7" x1="64.5436" y1="49.5858" x2="64.4939" y2="67.346" gradientUnits="userSpaceOnUse">
      <stop offset="0.16" stop-color="#A030B9"/>
      <stop offset="0.88" stop-color="#00073A"/>
    </linearGradient>
    <linearGradient id="g8" x1="99.4939" y1="36.1866" x2="96.7354" y2="54.4703" gradientUnits="userSpaceOnUse">
      <stop offset="0.16" stop-color="#A030B9"/>
      <stop offset="0.88" stop-color="#00073A"/>
    </linearGradient>
    <clipPath id="c0">
      <rect width="140" height="140" rx="14" fill="white"/>
    </clipPath>
  </defs>
</svg>

