<!-- This Source Code Form is subject to the terms of the Mozilla Public
   - License, v. 2.0. If a copy of the MPL was not distributed with this
   - file, You can obtain one at https://mozilla.org/MPL/2.0/. -->
<svg xmlns="http://www.w3.org/2000/svg" width="100" height="106" fill="none"><g clip-path="url(#a)"><path fill="url(#b)" d="M89.076 25.183c-.029-1.024.04-2.238-.225-3.222-.488-1.817-2.112-3.353-3.975-3.683-.49-.087-.895-.036-1.376-.06-2.429-.123-4.885-.253-7.297-.624-3.284-.506-7.112-1.517-10.242-2.633-5.654-2.017-10.725-4.628-15.29-8.379-2.056-1.689-3.252-3.468-6.108-3.457-2.857-.01-4.052 1.768-6.108 3.457-4.565 3.751-9.636 6.363-15.29 8.38-3.129 1.115-6.957 2.126-10.242 2.632-2.412.371-4.867.502-7.297.624-.48.024-.885-.027-1.376.06-1.863.331-3.487 1.867-3.975 3.683-.264.985-.196 2.198-.225 3.222C-.103 30.6.088 36.022.526 41.41c1.244 15.301 5.118 30.482 14.79 42.63 3.44 4.321 7.333 7.998 12.347 11.442 5.183 3.56 10.963 6.372 16.9 8.461 5.936-2.089 11.716-4.9 16.898-8.46 5.013-3.445 8.908-7.122 12.348-11.443C83.48 71.892 87.354 56.71 88.6 41.41c.437-5.388.628-10.81.475-16.227h.002Z"/><path fill="url(#c)" d="M44.565 94.072c-4.737-1.666-9.462-3.965-13.601-6.808-14.623-10.045-20.37-25.657-21.82-43.477-.352-4.332-.506-8.693-.383-13.048.023-.823-.032-1.8.18-2.591.393-1.461 1.7-2.696 3.197-2.962.394-.07.719-.03 1.106-.048 1.953-.1 3.927-.203 5.867-.502 2.64-.407 5.719-1.22 8.235-2.117 4.552-1.623 8.627-3.725 12.294-6.737.588-.483 1.138-1.04 1.728-1.525a5.513 5.513 0 0 1 3.197-1.241v81.056Z"/><path fill="url(#d)" d="M44.565 13.016a5.515 5.515 0 0 1 3.197 1.24c.59.487 1.14 1.043 1.727 1.526 3.668 3.013 7.743 5.114 12.295 6.737 2.515.897 5.593 1.71 8.235 2.117 1.938.299 3.913.403 5.866.502.387.02.712-.022 1.106.048 1.499.266 2.805 1.5 3.197 2.962.212.792.157 1.767.18 2.59.124 4.356-.03 8.716-.382 13.049-1.45 17.82-7.198 33.433-21.82 43.477-4.14 2.843-8.864 5.143-13.601 6.808V13.016Z"/><path fill="url(#e)" d="M44.564 13.014a5.515 5.515 0 0 1 3.197 1.241c.59.486 1.14 1.042 1.727 1.525 3.668 3.013 7.743 5.114 12.295 6.737 2.516.897 5.593 1.71 8.234 2.117 1.94.3 3.915.403 5.868.502.386.02.712-.022 1.105.048 1.499.266 2.805 1.501 3.197 2.962.212.792.157 1.767.18 2.591.123 4.355-.03 8.715-.383 13.048-1.448 17.82-7.196 33.433-21.82 43.477-4.139 2.843-8.864 5.143-13.6 6.808v9.874c5.937-2.089 11.717-4.9 16.899-8.46 5.012-3.445 8.908-7.122 12.348-11.443C83.48 71.893 87.356 56.711 88.6 41.41c.438-5.388.629-10.81.476-16.227-.03-1.024.039-2.237-.225-3.222-.489-1.817-2.112-3.353-3.975-3.683-.49-.087-.895-.036-1.377-.06-2.428-.123-4.884-.253-7.296-.624-3.285-.506-7.112-1.517-10.243-2.633-5.653-2.017-10.724-4.628-15.29-8.379-2.056-1.689-3.25-3.468-6.108-3.457l.002 9.89Z"/><path fill="url(#f)" d="M44.564 13.013a5.515 5.515 0 0 0-3.197 1.241c-.59.486-1.14 1.042-1.728 1.525-3.667 3.013-7.742 5.114-12.294 6.737-2.516.897-5.594 1.71-8.235 2.117-1.939.3-3.914.403-5.867.502-.387.02-.712-.022-1.106.048-1.498.266-2.804 1.501-3.196 2.962-.212.792-.158 1.767-.18 2.591-.124 4.355.03 8.715.382 13.048 1.45 17.82 7.197 33.433 21.82 43.477 4.14 2.843 8.864 5.143 13.601 6.808v9.874c-5.937-2.089-11.717-4.9-16.899-8.46-5.013-3.445-8.908-7.122-12.348-11.443C5.647 71.893 1.773 56.711.528 41.41.09 36.022-.1 30.6.052 25.183c.03-1.024-.039-2.237.225-3.222.488-1.817 2.112-3.353 3.975-3.683.49-.087.895-.036 1.376-.06 2.43-.123 4.885-.253 7.297-.624 3.284-.506 7.112-1.517 10.242-2.633 5.654-2.017 10.725-4.628 15.29-8.379 2.056-1.689 3.251-3.468 6.108-3.457v9.89-.002Z"/><path fill="url(#g)" d="M99.581 2.068c-25.413 7.109-40.312 24.1-48.33 36.635-5.48 8.564-7.748 15.048-7.963 14.882a106.785 106.785 0 0 0-4.598-3.372c-16.618-11.5-27.288-11.323-27.95-9.694 0 0 8.493 6.702 21.607 26.192 3.462 5.146 8.282 15.824 11.5 16.332 4.251.672 8.412-1.277 16.203-18.361 6.734-14.766 7.641-19.626 14.19-31.08 8.313-14.536 21.916-27.554 25.66-31 .244-.225.004-.625-.319-.534Z"/><path fill="url(#h)" d="M49.63 58.204s5.012-8.642 3.914-15.28c-.232-1.403-1.093-2.848-2.303-4.256-3.749 5.885-6.403 11.672-7.416 13.918-.282.625-.507 1.006-.507 1.006l6.311 4.612Z"/></g><defs><linearGradient id="b" x1="66.676" x2="-3.88" y1=".216" y2="127.502" gradientUnits="userSpaceOnUse"><stop offset=".067" stop-color="#F742FD"/><stop offset=".211" stop-color="#CF3AFD"/><stop offset=".493" stop-color="#882CFD"/><stop offset=".727" stop-color="#5521FD"/><stop offset=".903" stop-color="#351BFD"/><stop offset="1" stop-color="#2919FD"/></linearGradient><linearGradient id="c" x1="23.882" x2="42.937" y1="10.575" y2="130.725" gradientUnits="userSpaceOnUse"><stop offset=".139" stop-color="#F742FD"/><stop offset="1" stop-color="#2919FD"/></linearGradient><linearGradient id="d" x1="52.648" x2="73.704" y1="5.902" y2="125.317" gradientUnits="userSpaceOnUse"><stop offset=".046" stop-color="#ED58F7"/><stop offset=".203" stop-color="#B847F8"/><stop offset=".375" stop-color="#8536FA"/><stop offset=".538" stop-color="#5D29FB"/><stop offset=".686" stop-color="#4020FC"/><stop offset=".814" stop-color="#2F1AFC"/><stop offset=".908" stop-color="#2919FD"/></linearGradient><linearGradient id="e" x1="55.827" x2="79.519" y1="-5.737" y2="143.654" gradientUnits="userSpaceOnUse"><stop stop-color="#E801DF"/><stop offset=".048" stop-color="#D203E2"/><stop offset=".174" stop-color="#9F0AEB"/><stop offset=".298" stop-color="#740FF2"/><stop offset=".418" stop-color="#5313F7"/><stop offset=".533" stop-color="#3C16FB"/><stop offset=".639" stop-color="#2D18FE"/><stop offset=".729" stop-color="#2919FF"/></linearGradient><linearGradient id="f" x1="9.484" x2="79.238" y1="7.493" y2="133.333" gradientUnits="userSpaceOnUse"><stop offset=".067" stop-color="#F742FD"/><stop offset=".211" stop-color="#CF3AFD"/><stop offset=".493" stop-color="#882CFD"/><stop offset=".727" stop-color="#5521FD"/><stop offset=".903" stop-color="#351BFD"/><stop offset="1" stop-color="#2919FD"/></linearGradient><linearGradient id="g" x1="18.842" x2="117.5" y1="69.428" y2="-4.563" gradientUnits="userSpaceOnUse"><stop offset=".088" stop-color="#FFEB49"/><stop offset=".568" stop-color="#F60"/><stop offset=".614" stop-color="#FE6009"/><stop offset=".691" stop-color="#FD5322"/><stop offset=".789" stop-color="#FC3C4C"/><stop offset=".868" stop-color="#FB2872"/></linearGradient><linearGradient id="h" x1="49.243" x2="37.978" y1="48.821" y2="52.454" gradientUnits="userSpaceOnUse"><stop stop-color="#FC2B32" stop-opacity="0"/><stop offset=".999" stop-color="#FD0174"/></linearGradient><clipPath id="a"><path fill="#fff" d="M0 0h100v106H0z"/></clipPath></defs></svg>
