<!-- This Source Code Form is subject to the terms of the Mozilla Public
   - License, v. 2.0. If a copy of the MPL was not distributed with this
   - file, You can obtain one at https://mozilla.org/MPL/2.0/. -->
<svg xmlns="http://www.w3.org/2000/svg" width="100" height="106" fill="none"><path fill="url(#a)" d="M93.954 24.33c-.028-1.014.04-2.215-.222-3.19-.482-1.798-2.09-3.318-3.934-3.646-.485-.086-.886-.035-1.362-.059-2.404-.12-4.834-.25-7.222-.618-3.25-.5-7.04-1.5-10.137-2.606-5.596-1.996-10.615-4.58-15.133-8.293-2.035-1.672-3.218-3.43-6.045-3.422-2.828-.01-4.01 1.75-6.046 3.421-4.518 3.713-9.537 6.297-15.133 8.293-3.097 1.105-6.887 2.106-10.137 2.606-2.387.368-4.817.497-7.222.618-.476.024-.876-.027-1.362.06-1.843.327-3.451 1.847-3.934 3.645-.262.975-.194 2.176-.222 3.19-.152 5.361.037 10.727.471 16.061C7.546 55.535 11.38 70.56 20.95 82.585c3.405 4.276 7.26 7.916 12.222 11.324 5.129 3.524 10.849 6.307 16.725 8.375 5.876-2.068 11.596-4.85 16.726-8.375 4.962-3.408 8.817-7.048 12.22-11.324 9.573-12.024 13.407-27.05 14.639-42.194.433-5.334.623-10.7.47-16.062Z"/><path fill="url(#b)" d="M85.335 29.827c-.022-.815.032-1.78-.178-2.564-.388-1.446-1.682-2.668-3.164-2.932-.39-.069-.712-.028-1.095-.047-1.933-.098-3.887-.202-5.807-.497-2.613-.403-5.66-1.208-8.15-2.096-4.506-1.607-8.539-3.686-12.169-6.668-.582-.479-1.126-1.029-1.71-1.509a5.453 5.453 0 0 0-3.164-1.229 5.455 5.455 0 0 0-3.164 1.228c-.583.481-1.128 1.032-1.71 1.51-3.629 2.982-7.662 5.061-12.168 6.668-2.491.888-5.537 1.693-8.151 2.096-1.919.295-3.873.4-5.806.497-.383.02-.705-.022-1.095.047-1.483.263-2.776 1.486-3.163 2.932-.21.784-.157 1.75-.18 2.564-.121 4.31.031 8.626.379 12.914 1.435 17.64 7.123 33.09 21.596 43.032 4.097 2.814 8.773 5.09 13.462 6.74 4.689-1.65 9.366-3.926 13.462-6.74 14.473-9.942 20.162-25.394 21.597-43.032.348-4.288.5-8.604.378-12.914Z"/><path fill="url(#c)" d="M49.898 92.512c-4.689-1.649-9.365-3.925-13.462-6.739C21.963 75.831 16.275 60.38 14.84 42.741c-.348-4.288-.5-8.604-.379-12.914.023-.815-.03-1.78.18-2.564.387-1.446 1.68-2.669 3.163-2.932.39-.069.712-.028 1.095-.047 1.933-.098 3.887-.202 5.806-.497 2.614-.403 5.66-1.208 8.151-2.096 4.506-1.607 8.539-3.686 12.168-6.668.582-.478 1.127-1.029 1.71-1.51a5.455 5.455 0 0 1 3.164-1.228v80.227Z"/><path fill="url(#d)" d="M41.977 33.807c-.41-4.59 3.203-8.541 7.81-8.541a7.837 7.837 0 0 1 7.813 8.517l-2.467 28.494a5.322 5.322 0 0 1-10.605.015l-2.55-28.485Z"/><path fill="url(#e)" d="M49.788 82.233a5.343 5.343 0 1 0 0-10.686 5.343 5.343 0 0 0 0 10.686Z"/><path fill="url(#f)" d="M49.898 12.284a5.455 5.455 0 0 1 3.164 1.228c.584.481 1.13 1.031 1.71 1.51 3.63 2.981 7.663 5.061 12.17 6.668 2.49.888 5.536 1.693 8.15 2.095 1.92.296 3.873.4 5.806.497.383.02.705-.02 1.095.048 1.482.263 2.776 1.486 3.164 2.931.21.784.156 1.75.178 2.565.122 4.31-.03 8.626-.378 12.914-1.435 17.637-7.124 33.09-21.597 43.032-4.096 2.814-8.773 5.09-13.462 6.74v9.772c5.876-2.068 11.597-4.85 16.727-8.375 4.962-3.408 8.817-7.048 12.221-11.324 9.572-12.024 13.406-27.05 14.638-42.194.433-5.334.622-10.7.47-16.062-.028-1.013.04-2.214-.222-3.189-.482-1.798-2.09-3.318-3.934-3.646-.485-.086-.886-.035-1.362-.059-2.404-.12-4.834-.25-7.222-.618-3.25-.5-7.04-1.5-10.137-2.606-5.596-1.996-10.615-4.58-15.133-8.293-2.035-1.672-3.218-3.432-6.046-3.422v9.788Z"/><path fill="url(#g)" d="M49.899 12.285a5.455 5.455 0 0 0-3.164 1.228c-.584.481-1.128 1.031-1.71 1.51-3.63 2.981-7.663 5.061-12.168 6.668-2.49.888-5.537 1.693-8.151 2.095-1.92.296-3.873.4-5.807.497-.383.02-.704-.02-1.095.048-1.482.263-2.775 1.486-3.163 2.931-.21.784-.156 1.75-.18 2.565-.12 4.31.03 8.626.38 12.914 1.434 17.637 7.123 33.09 21.596 43.032 4.097 2.814 8.773 5.09 13.462 6.74v9.772c-5.876-2.068-11.597-4.85-16.726-8.375-4.962-3.408-8.817-7.048-12.222-11.324C11.38 70.561 7.546 55.536 6.314 40.391c-.434-5.334-.623-10.7-.471-16.062.028-1.013-.04-2.214.222-3.189.483-1.798 2.091-3.318 3.934-3.646.486-.086.886-.035 1.362-.059 2.405-.12 4.835-.25 7.222-.618 3.25-.5 7.04-1.5 10.137-2.606 5.596-1.996 10.615-4.58 15.133-8.293 2.036-1.672 3.218-3.432 6.046-3.422v9.789Z"/><defs><linearGradient id="a" x1="19.359" x2="89.191" y1="94.195" y2="-31.786" gradientUnits="userSpaceOnUse"><stop offset=".067" stop-color="#F942FF"/><stop offset=".217" stop-color="#D03AFF"/><stop offset=".496" stop-color="#892CFF"/><stop offset=".729" stop-color="#52F"/><stop offset=".904" stop-color="#351BFF"/><stop offset="1" stop-color="#2919FF"/></linearGradient><linearGradient id="b" x1="44.94" x2="65.791" y1="7.486" y2="125.737" gradientUnits="userSpaceOnUse"><stop offset=".046" stop-color="#F057F9"/><stop offset=".209" stop-color="#B846FB"/><stop offset=".381" stop-color="#8636FC"/><stop offset=".542" stop-color="#5D29FD"/><stop offset=".688" stop-color="#4120FE"/><stop offset=".815" stop-color="#2F1BFF"/><stop offset=".908" stop-color="#2919FF"/></linearGradient><linearGradient id="c" x1="29.427" x2="48.287" y1="9.871" y2="128.79" gradientUnits="userSpaceOnUse"><stop offset=".139" stop-color="#F942FF"/><stop offset="1" stop-color="#2919FF"/></linearGradient><linearGradient id="d" x1="49.787" x2="49.787" y1="17.987" y2="95.455" gradientUnits="userSpaceOnUse"><stop offset=".114" stop-color="#FFEB49"/><stop offset=".87" stop-color="#F60"/><stop offset="1" stop-color="#FB2872"/></linearGradient><linearGradient id="e" x1="49.788" x2="49.788" y1="65.666" y2="91.691" gradientUnits="userSpaceOnUse"><stop stop-color="#FFEB49"/><stop offset=".062" stop-color="#FFDA40"/><stop offset=".272" stop-color="#FFA824"/><stop offset=".456" stop-color="#FF8410"/><stop offset=".605" stop-color="#FF6E04"/><stop offset=".7" stop-color="#F60"/><stop offset="1" stop-color="#FB2872"/></linearGradient><linearGradient id="f" x1="61.046" x2="84.495" y1="-6.275" y2="141.586" gradientUnits="userSpaceOnUse"><stop stop-color="#EA00E1"/><stop offset=".052" stop-color="#D303E5"/><stop offset=".177" stop-color="#9F0AED"/><stop offset=".301" stop-color="#750FF3"/><stop offset=".42" stop-color="#5413F8"/><stop offset=".534" stop-color="#3C17FC"/><stop offset=".639" stop-color="#2E18FE"/><stop offset=".729" stop-color="#2919FF"/></linearGradient><linearGradient id="g" x1="15.177" x2="84.217" y1="6.821" y2="131.373" gradientUnits="userSpaceOnUse"><stop offset=".067" stop-color="#F942FF"/><stop offset=".217" stop-color="#D03AFF"/><stop offset=".496" stop-color="#892CFF"/><stop offset=".729" stop-color="#52F"/><stop offset=".904" stop-color="#351BFF"/><stop offset="1" stop-color="#2919FF"/></linearGradient></defs></svg>
