<!-- This Source Code Form is subject to the terms of the Mozilla Public
   - License, v. 2.0. If a copy of the MPL was not distributed with this
   - file, You can obtain one at http://mozilla.org/MPL/2.0/. -->
<svg xmlns="http://www.w3.org/2000/svg" viewBox="0 0 20 20" width="20" height="20" fill="context-fill" fill-opacity="context-fill-opacity">
<style>
.nova { display: none; }

@media -moz-pref("browser.nova.enabled") {
  .proton { display: none; }
  .nova { display: revert; }
}
</style>
<g class="proton">
  <path d="M10 .5C4.8.5.5 4.8.5 10s4.3 9.5 9.5 9.5 9.5-4.3 9.5-9.5S15.2.5 10 .5zM10 18c-4.4 0-8-3.6-8-8s3.6-8 8-8 8 3.6 8 8-3.6 8-8 8zm5.3-9.3c.3.3.3.8 0 1.1s-.8.3-1.1 0l-3.5-3.5v8.9c0 .4-.3.8-.8.8s-.8-.3-.8-.8V6.3L5.8 9.8c-.2.1-.4.2-.5.2s-.4-.1-.6-.2c-.3-.3-.3-.8 0-1.1L9.5 4h1.1l4.7 4.7z"/>
</g>
<g class="nova">
  <path d="M8.51 5.607a2.135 2.135 0 0 1 2.981 0l2.75 2.705a.877.877 0 0 1-1.23 1.248l-2.136-2.103v6.668a.875.875 0 0 1-1.75 0V7.458L6.99 9.56a.876.876 0 0 1-1.228-1.248z" />
  <path fill-rule="evenodd" d="M10 0c5.523 0 10 4.477 10 10s-4.477 10-10 10S0 15.523 0 10 4.477 0 10 0m0 1.75a8.25 8.25 0 1 0 0 16.5 8.25 8.25 0 0 0 0-16.5" clip-rule="evenodd" />
</g>
</svg>
