<!-- This Source Code Form is subject to the terms of the Mozilla Public
   - License, v. 2.0. If a copy of the MPL was not distributed with this
   - file, You can obtain one at http://mozilla.org/MPL/2.0/. -->
<svg xmlns="http://www.w3.org/2000/svg" viewBox="0 0 20 20" width="20" height="20" fill="context-fill" fill-opacity="context-fill-opacity">
<style>
.nova { display: none; }

@media -moz-pref("browser.nova.enabled") {
  .proton { display: none; }
  .nova { display: revert; }
}
</style>
<g class="proton">
  <path d="M10 .5C4.8.5.5 4.8.5 10s4.3 9.5 9.5 9.5 9.5-4.3 9.5-9.5S15.2.5 10 .5zm8 8.7h-3c-.2-2.5-1.1-4.8-2.7-6.7h.7c2.7 1.2 4.7 3.7 5 6.7zm-7.8 8.2h-.4c-1.9-1.7-3-4.1-3.2-6.6h6.9c-.2 2.5-1.4 4.9-3.3 6.6zM6.5 9.2c.2-2.6 1.3-4.9 3.2-6.7h.4c1.9 1.7 3 4.1 3.2 6.7H6.5zM7 2.6h.7C6.1 4.5 5.2 6.8 5 9.2H2c.3-3 2.3-5.5 5-6.6zm-5 8.2h3c.2 2.5 1.1 4.8 2.7 6.6H7c-2.7-1.1-4.7-3.6-5-6.6zm11 6.6h-.7c1.6-1.9 2.5-4.2 2.7-6.6h3c-.3 3-2.3 5.5-5 6.6z"/>
</g>
<g class="nova">
  <path fill-rule="evenodd" d="M10 0c5.523 0 10 4.477 10 10s-4.477 10-10 10S0 15.523 0 10 4.477 0 10 0m4.963 10.36a13.03 13.03 0 0 1-2.694 7.57 8.25 8.25 0 0 0 5.943-7.161c-1.01-.16-2.095-.3-3.25-.41m-9.929.001c-1.038.098-2.122.23-3.247.407a8.25 8.25 0 0 0 5.883 7.145 13.03 13.03 0 0 1-2.636-7.552M10 10.125c-1 0-2.075.029-3.218.099a11.3 11.3 0 0 0 3.189 7.686 11.3 11.3 0 0 0 3.244-7.684A53 53 0 0 0 10 10.125M7.73 2.068a8.26 8.26 0 0 0-5.917 6.925c1.141-.173 2.241-.3 3.294-.395a13.03 13.03 0 0 1 2.623-6.53m4.598.017a13 13 0 0 1 2.569 6.51 56 56 0 0 1 3.29.398 8.25 8.25 0 0 0-5.859-6.908m-2.302.002a11.3 11.3 0 0 0-3.14 6.377A55 55 0 0 1 10 8.375c1.08 0 2.121.035 3.12.093a11.3 11.3 0 0 0-3.094-6.381" clip-rule="evenodd" />
</g>
</svg>
