<!-- This Source Code Form is subject to the terms of the Mozilla Public
   - License, v. 2.0. If a copy of the MPL was not distributed with this
   - file, You can obtain one at http://mozilla.org/MPL/2.0/. -->
<svg xmlns="http://www.w3.org/2000/svg" viewBox="0 0 20 20" width="20" height="20" fill="context-fill" fill-opacity="context-fill-opacity">
<style>
.nova { display: none; }

@media -moz-pref("browser.nova.enabled") {
  .proton { display: none; }
  .nova { display: revert; }
}
</style>
<g class="proton">
  <path d="m15.5 5-2 0 0-1.873c0-1.594-1.183-2.961-2.693-3.112A3.003 3.003 0 0 0 7.5 2.999L7.5 5l-3 0A2.5 2.5 0 0 0 2 7.5l0 2.25c0 .69.56 1.25 1.25 1.25l1.623 0c.833 0 1.544.59 1.62 1.343a1.49 1.49 0 0 1-.379 1.163c-.285.314-.69.494-1.113.494L3.25 14C2.56 14 2 14.56 2 15.25l0 2.25A2.5 2.5 0 0 0 4.5 20l11 0a2.5 2.5 0 0 0 2.5-2.5l0-10A2.5 2.5 0 0 0 15.5 5zm1 12.7-.8.8-11.4 0-.8-.8 0-2.2 1.501 0c.846 0 1.657-.36 2.225-.988a3.01 3.01 0 0 0 .759-2.318C7.834 10.683 6.467 9.5 4.873 9.5L3.5 9.5l0-2.2.8-.8 3.7 0a1 1 0 0 0 1-1l0-2.501a1.502 1.502 0 0 1 1.657-1.492c.753.075 1.343.787 1.343 1.62L12 5.5a1 1 0 0 0 1 1l2.7 0 .8.8 0 10.4z"/>
</g>
<g class="nova">
  <path fill-rule="evenodd" d="M9.876 1.001a3.25 3.25 0 0 1 3.25 3.25v.888c.593.04 1.21.09 1.847.16a3.13 3.13 0 0 1 2.776 3.11v7.925c0 1.557-1.146 2.906-2.717 3.1a42 42 0 0 1-10.303.002 3.123 3.123 0 0 1-2.73-3.106l.002-1.797.006-.101a.9.9 0 0 1 .087-.29v-.001a.88.88 0 0 1 .783-.484h1.796a1.329 1.329 0 0 0 0-2.658H2.877a.875.875 0 0 1-.875-.874L2 8.393a3.127 3.127 0 0 1 2.75-3.108A42 42 0 0 1 6.626 5.1v-.85A3.25 3.25 0 0 1 9.876 1m0 1.75a1.5 1.5 0 0 0-1.5 1.5v1.665a.875.875 0 0 1-.825.874q-1.025.06-1.968.161l-.62.071c-.652.08-1.148.6-1.207 1.24l-.006.13.001.857h.922a3.08 3.08 0 0 1 0 6.158H3.75l-.001.925c0 .697.518 1.283 1.192 1.366a40.4 40.4 0 0 0 9.877-.002A1.363 1.363 0 0 0 16 16.334V8.409c0-.658-.466-1.22-1.09-1.35l-.128-.02a49 49 0 0 0-2.58-.208.875.875 0 0 1-.825-.873V4.251a1.5 1.5 0 0 0-1.5-1.5" clip-rule="evenodd" />
</g>
</svg>
