<!-- This Source Code Form is subject to the terms of the Mozilla Public
   - License, v. 2.0. If a copy of the MPL was not distributed with this
   - file, You can obtain one at http://mozilla.org/MPL/2.0/. -->
<svg xmlns="http://www.w3.org/2000/svg" viewBox="0 0 16 16" width="16" height="16" fill="context-fill" fill-opacity="context-fill-opacity">
<style>
.nova { display: none; }

@media -moz-pref("browser.nova.enabled") {
  .proton { display: none; }
  .nova { display: revert; }
}
</style>
<g class="proton">
  <path d="m13.375 16-9.75 0A1.626 1.626 0 0 1 2 14.375L2 11.5a.75.75 0 0 1 .75-.75l1.75 0c.689 0 1.25-.561 1.25-1.25S5.189 8.25 4.5 8.25l-1.75 0A.75.75 0 0 1 2 7.5l0-1.875C2 4.728 2.728 4 3.625 4L6 4l0-1.352C6 1.341 6.938.147 8.238.014A2.502 2.502 0 0 1 11 2.5L11 4l2.375 0C14.272 4 15 4.728 15 5.625l0 8.75c0 .897-.728 1.625-1.625 1.625zM3.25 12l0 2.15.6.6 9.3 0 .6-.6 0-8.3-.6-.6-2.65 0a.75.75 0 0 1-.75-.75l0-2c0-.689-.561-1.25-1.25-1.25s-1.25.561-1.25 1.25l0 2a.75.75 0 0 1-.75.75l-2.75 0-.5.6 0 1.15 1.103 0c1.308 0 2.502.939 2.634 2.24A2.503 2.503 0 0 1 4.5 12l-1.25 0z"/>
</g>
<g class="nova">
  <path fill-rule="evenodd" d="M8.625.001a2.5 2.5 0 0 1 2.5 2.5v.603q.708.054 1.463.143A2.75 2.75 0 0 1 15 5.98v6.045a2.76 2.76 0 0 1-2.445 2.734 34 34 0 0 1-7.581.06l-.56-.063A2.755 2.755 0 0 1 2 12.023V10.75a.75.75 0 0 1 .75-.75h1.157c.56 0 1.006-.382 1.078-.826l.013-.117A1 1 0 0 0 4 8H2.75A.75.75 0 0 1 2 7.25V5.977c0-1.369 1.009-2.56 2.393-2.728q.71-.087 1.482-.146V2.5a2.5 2.5 0 0 1 2.5-2.5zm-.25 1.5a1 1 0 0 0-1 1v1.303a.75.75 0 0 1-.708.749c-.737.04-1.436.105-2.093.185A1.24 1.24 0 0 0 3.5 5.977V6.5H4a2.5 2.5 0 0 1 2.467 2.914c-.208 1.275-1.376 2.086-2.56 2.086H3.5v.522c0 .631.475 1.168 1.094 1.243a32.6 32.6 0 0 0 7.783.003l.12-.021a1.255 1.255 0 0 0 1.003-1.224V5.98c0-.633-.474-1.169-1.09-1.243a33 33 0 0 0-2.077-.182.75.75 0 0 1-.708-.75V2.502a1 1 0 0 0-1-1z" clip-rule="evenodd" />
</g>
</svg>
