<!-- This Source Code Form is subject to the terms of the Mozilla Public
   - License, v. 2.0. If a copy of the MPL was not distributed with this
   - file, You can obtain one at http://mozilla.org/MPL/2.0/. -->
<svg xmlns="http://www.w3.org/2000/svg" viewBox="0 0 16 16" width="16" height="16" fill="context-fill" fill-opacity="context-fill-opacity">
<style>
.nova { display: none; }

@media -moz-pref("browser.nova.enabled") {
  .proton { display: none; }
  .nova { display: revert; }
}
</style>
<g class="proton">
  <path d="M2.6 8 4 8c1.103 0 2 .897 2 2s-.897 2-2 2l-1.4 0-.6.6 0 1.775C2 15.271 2.729 16 3.625 16l9.75 0c.896 0 1.625-.729 1.625-1.625l0-8.75C15 4.729 14.271 4 13.375 4L11 4l0-2c0-1.103-.897-2-2-2S7 .897 7 2l0 2-3.375 0C2.729 4 2 4.729 2 5.625L2 7.4l.6.6z"/>
</g>
<g class="nova">
  <path d="M8.125 1.001a2 2 0 0 1 2 2v1.07c.628.04 1.255.096 1.867.17A2.26 2.26 0 0 1 14 6.478v6.046c0 1.138-.861 2.1-2.004 2.237a33.6 33.6 0 0 1-8.006-.002A2.26 2.26 0 0 1 2 12.52V11.5a.25.25 0 0 1 .25-.25h1.5a1.75 1.75 0 0 0 0-3.5h-1.5A.25.25 0 0 1 2 7.5V6.477c0-1.137.84-2.097 1.953-2.23a34 34 0 0 1 1.922-.179V3.001a2 2 0 0 1 2-2z" />
</g>
</svg>
