<!-- This test contains a very small shape scaled up that is somewhat close to a rectangle but not enough that it should be approximated with one. This test checks that we aren't approximating the shape with a rectangle -->
<svg xmlns="http://www.w3.org/2000/svg" xmlns:xlink="http://www.w3.org/1999/xlink" version="1.1" baseProfile="full" width="250" height="250" preserveAspectRatio="none" viewBox="0 0.1 2.5 0.5"><path fill="blue" stroke="none" d="M2.0216251762801365 0.4131214115339463H2.0199217491553907V0.41320268153394635H2.018218322030644V0.41325938153394637H2.016514894905898V0.41332175153394635H2.014811467781152V0.41339546153394635H2.0131080406564057V0.4134464915339463H2.0114046135316594V0.4135126415339463H2.009701186406913V0.41358068153394634H2.007997759282167V0.4136430515339463H2.006294332157421V0.4136846315339463H2.0045909050326745V0.41375267153394635H2.0028874779079286V0.4138320515339463H2.0011840507831824V0.41390387153394637H1.9994806236584362V0.4139530115339463H1.99777719653369V0.41401538153394635H1.9960737694089439V0.4140739715339463H1.9943703422841974V0.4141287815339463H1.9926669151594514V0.4141779215339463H1.9909634880347051V0.4142346215339463H1.989260060909959V0.4143121115339463H1.9875566337852126V0.4143707015339463H1.9858532066604666V0.41445008153394636H1.9841497795357204V0.4145143415339463H1.9824463524109743V0.41456537153394635H1.9807429252862279V0.4146296315339463H1.9790394981614818V0.41468066153394634H1.9773360710367356V0.4147468115339463H1.9756326439119896V0.41482052153394633H1.973929216787243V0.4148847815339463H1.972225789662497V0.4149244715339463H1.9705223625377508V0.4149736115339463H1.9688189354130048V0.4150340915339463H1.9671155082882583V0.4151134715339463H1.9654120811635123V0.4151834015339463H1.963708654038766V0.41525144153394633H1.96200522691402V0.4153062515339463H1.9603017997892735V0.41535728153394635H1.9585983726645275V0.41541965153394633H1.9568949455397813V0.41549714153394635H1.9551915184150352V0.4155443915339463H1.9534880912902888V0.41561243153394634H1.9517846641655427V0.4156691315339463H1.9500812370407965V0.41572583153394627H1.9483778099160505V0.41580143153394633H1.946674382791304V0.4158430115339463H1.944970955666558V0.4159091615339463H1.9432675285418117V0.41595641153394636H1.9415641014170657V0.4160074415339463H1.9398606742923192V0.4160811515339463H1.9381572471675732V0.4161321815339463H1.936453820042827V0.4161926615339463H1.934750392918081V0.4162474715339463H1.9330469657933345V0.4163079515339463H1.9313435386685884V0.4163646515339463H1.9296401115438422V0.4164213515339463H1.9279366844190962V0.4164723815339463H1.9262332572943497V0.4165347515339463H1.9245298301696037V0.4165706615339463H1.9228264030448574V0.41663681153394627H1.9211229759201114V0.4167086315339463H1.919419548795365V0.41676911153394636H1.917716121670619V0.4168333715339463H1.9160126945458726V0.4168787315339463H1.9143092674211266V0.41692976153394634H1.9126058402963801V0.4169770115339463H1.9109024131716341V0.4170393815339464H1.9091989860468879V0.41707340153394634H1.9074955589221418V0.41713388153394626H1.9057921317973954V0.4171943615339463H1.9040887046726493V0.41726618153394635H1.902385277547903V0.4173134315339463H1.900681850423157V0.4173587915339463H1.8989784232984106V0.4174192715339463H1.8972749961736648V0.4174684115339463H1.8955715690489183V0.41750432153394634H1.8938681419241723V0.41756102153394636H1.8921647147994258V0.41762717153394635H1.8904612876746798V0.41767253153394635H1.8887578605499336V0.4177254515339463H1.8870544334251875V0.4177689215339463H1.885351006300441V0.4178275115339463H1.8836475791756953V0.4178747615339463H1.8819441520509488V0.41793146153394634H1.8802407249262028V0.41798438153394635H1.8785372978014563V0.41805053153394633H1.8768338706767103V0.4181053415339463H1.875130443551964V0.4181507015339463H1.873427016427218V0.41821496153394633H1.8717235893024715V0.41826410153394633H1.8700201621777257V0.41831324153394633H1.8683167350529792V0.41834915153394636H1.8666133079282332V0.41841152153394634H1.864909880803487V0.41846444153394635H1.863206453678741V0.4185041315339463H1.8615030265539945V0.4185608315339463H1.8597995994292484V0.41860430153394634H1.858096172304502V0.4186553315339463H1.8563927451797562V0.4187101415339463H1.8546893180550097V0.41876873153394634H1.8529858909302637V0.4188159815339463H1.8512824638055174V0.41887457153394636H1.8495790366807714V0.4189237115339463H1.847875609556025V0.4189841915339463H1.846172182431279V0.41903522153394634H1.8444687553065324V0.41908814153394636H1.8427653281817866V0.4191467315339463H1.8410619010570402V0.41919587153394633H1.8393584739322941V0.4192563515339463H1.8376550468075479V0.4193168315339463H1.8359516196828018V0.4193584115339464H1.8342481925580554V0.4194018815339463H1.8325447654333094V0.4194548015339463H1.830841338308563V0.41950583153394627H1.829137911183817V0.4195341815339463H1.8274344840590706V0.4196041115339463H1.8257310569343246V0.4196608115339463H1.8240276298095783V0.4196891615339463H1.8223242026848323V0.41973263153394635H1.8206207755600858V0.4197798815339463H1.8189173484353398V0.4198346915339463H1.8172139213105936V0.4199008415339463H1.8155104941858475V0.41994998153394636H1.8138070670611015V0.4200010115339463H1.812103639936355V0.4200425915339463H1.8104002128116088V0.4200709415339463H1.8086967856868628V0.4201125215339463H1.8069933585621167V0.42015977153394635H1.8052899314373703V0.42020891153394635H1.803586504312624V0.42026939153394627H1.801883077187878V0.4203147515339463H1.800179650063132V0.42035633153394636H1.7984762229383855V0.4203998015339463H1.7967727958136392V0.42044327153394634H1.7950693686888932V0.4204943015339463H1.7933659415641472V0.42054533153394635H1.7916625144394007V0.42058691153394634H1.7899590873146545V0.42063983153394635H1.7882556601899084V0.42069275153394636H1.7865522330651624V0.4207437815339463H1.784848805940416V0.42080426153394634H1.7831453788156697V0.4208363915339463H1.7814419516909237V0.4208893115339463H1.7797385245661776V0.42094790153394634H1.7780350974414312V0.42099326153394634H1.776331670316685V0.4210405115339463H1.774628243191939V0.4210896515339463H1.7729248160671929V0.42112745153394626H1.7712213889424464V0.4211841515339463H1.7695179618177006V0.42123518153394635H1.7678145346929541V0.4212824315339463H1.766111107568208V0.4213240115339463H1.7644076804434619V0.4213807115339463H1.7627042533187156V0.42142040153394633H1.7610008261939694V0.4214865515339463H1.7592973990692233V0.4215338015339463H1.7575939719444769V0.4215621515339463H1.755890544819731V0.4216264115339463H1.7541871176949846V0.42166610153394635H1.7524836905702386V0.4217020115339463H1.7507802634454923V0.4217511515339463H1.749076836320746V0.42180218153394633H1.7473734091959998V0.4218399815339463H1.7456699820712538V0.4218891215339463H1.7439665549465073V0.4219344815339463H1.7422631278217615V0.4219685015339463H1.740559700697015V0.42200630153394636H1.738856273572269V0.42204410153394634H1.7371528464475228V0.42208757153394627H1.7354494193227765V0.4221348215339463H1.7337459921980303V0.42217451153394636H1.7320425650732842V0.42221609153394635H1.7303391379485378V0.42226145153394634H1.728635710823792V0.4222992515339463H1.7269322836990455V0.42235028153394627H1.7252288565742995V0.42239564153394626H1.7235254294495532V0.4224315515339463H1.721822002324807V0.4224674615339463H1.7201185752000607V0.42251471153394626H1.7184151480753147V0.42256007153394637H1.7167117209505682V0.4225959815339463H1.7150082938258224V0.4226356715339463H1.713304866701076V0.4226659115339463H1.71160143957633V0.42270749153394627H1.7098980124515837V0.42274907153394636H1.7081945853268377V0.4228001015339463H1.7064911582020912V0.4228379015339463H1.7047877310773452V0.4228738115339463H1.7030843039525987V0.4229078315339463H1.7013808768278529V0.42294185153394637H1.6996774497031064V0.4229683115339463H1.6979740225783604V0.4230061115339463H1.6962705954536141V0.4230476915339463H1.6945671683288681V0.4230968315339463H1.6928637412041216V0.4231365215339463H1.6911603140793756V0.4231554215339463H1.6894568869546291V0.4232026715339463H1.6877534598298833V0.42325370153394626H1.6860500327051369V0.4232933915339463H1.6843466055803908V0.42335576153394633H1.6826431784556446V0.4233916715339463H1.6809397513308986V0.42342569153394627H1.679236324206152V0.42346349153394636H1.677532897081406V0.4234975115339463H1.6758294699566598V0.4235277515339463H1.6741260428319138V0.4235806715339463H1.6724226157071673V0.4236354815339463H1.6707191885824213V0.4236808415339463H1.669015761457675V0.42373943153394633H1.667312334332929V0.42379235153394634H1.6656089072081826V0.4238301515339463H1.6639054800834365V0.4238603915339463H1.6622020529586903V0.4239000815339463H1.6604986258339443V0.42393599153394634H1.6587951987091978V0.42398891153394636H1.6570917715844518V0.4240210415339463H1.6553883444597055V0.4240493915339463H1.6536849173349595V0.42409853153394633H1.651981490210213V0.4241382215339463H1.650278063085467V0.42417791153394635H1.6485746359607207V0.4242062615339463H1.6468712088359747V0.4242365015339463H1.6451677817112282V0.42426863153394634H1.6434643545864822V0.4243196615339463H1.641760927461736V0.4243744715339463H1.64005750033699V0.4244255015339463H1.6383540732122435V0.4244765315339463H1.6366506460874977V0.42452756153394633H1.6349472189627512V0.4245710315339463H1.6332437918380052V0.42460505153394634H1.6315403647132587V0.4246315115339463H1.6298369375885127V0.4246882115339463H1.6281335104637664V0.42472790153394635H1.6264300833390204V0.4247619215339463H1.624726656214274V0.4248035015339463H1.6230232290895281V0.42483752153394627H1.6213198019647816V0.4248734315339463H1.6196163748400356V0.4248998915339463H1.6179129477152892V0.4249225715339463H1.6162095205905431V0.4249641515339463H1.6145060934657969V0.4250000615339463H1.6128026663410509V0.42505298153394633H1.6110992392163044V0.4250945615339463H1.6093958120915586V0.42513803153394636H1.6076923849668123V0.4251777215339463H1.605988957842066V0.42520796153394635H1.6042855307173196V0.4252589915339463H1.6025821035925736V0.4253005715339463H1.6008786764678278V0.42532703153394635H1.5991752493430813V0.42536294153394627H1.5974718222183348V0.4253950715339463H1.595768395093589V0.4254234215339463H1.5940649679688428V0.4254744515339463H1.5923615408440965V0.42550280153394626H1.5906581137193503V0.42553682153394634H1.588954686594604V0.42556895153394636H1.5872512594698582V0.42560297153394633H1.5855478323451118V0.42563132153394634H1.5838444052203653V0.42565967153394635H1.5821409780956195V0.4256936915339463H1.5804375509708735V0.4257314915339463H1.578734123846127V0.4257617315339463H1.5770306967213807V0.4257976415339463H1.5753272695966345V0.42583166153394636H1.5736238424718887V0.42587324153394635H1.5719204153471422V0.4258997015339463H1.5702169882223957V0.4259204915339463H1.56851356109765V0.4259488415339463H1.566810133972904V0.4259979815339463H1.5651067068481574V0.4260301115339463H1.5634032797234112V0.42606602153394635H1.561699852598665V0.4260924815339463H1.5599964254739191V0.4261397315339463H1.5582929983491727V0.42616430153394635H1.5565895712244262V0.42620210153394633H1.5548861440996804V0.4262361215339463H1.5531827169749344V0.42627014153394627H1.551479289850188V0.4262984915339463H1.5497758627254417V0.42632495153394634H1.5480724356006956V0.4263589715339463H1.5463690084759496V0.42638921153394627H1.5446655813512031V0.4264307915339463H1.5429621542264567V0.4264591415339463H1.5412587271017109V0.4265026115339463H1.5395552999769648V0.4265479715339463H1.5378518728522184V0.4265687615339463H1.5361484457274721V0.4266103415339463H1.534445018602726V0.4266500315339463H1.53274159147798V0.4266935015339463H1.5310381643532336V0.42673886153394636H1.5293347372284876V0.4267728815339463H1.5276313101037413V0.4268031215339463H1.5259278829789953V0.42684092153394626H1.5242244558542488V0.42687872153394635H1.5225210287295028V0.4269108515339463H1.5208176016047563V0.42694298153394633H1.5191141744800105V0.42696566153394633H1.517410747355264V0.4269996815339463H1.515707320230518V0.4270355915339463H1.5140038931057718V0.4270733915339463H1.5123004659810257V0.4271187515339463H1.5105970388562793V0.4271395415339463H1.5088936117315335V0.4271754515339463H1.507190184606787V0.4272038015339463H1.505486757482041V0.42723971153394635H1.5037833303572947V0.4272869615339463H1.5020799032325485V0.42731720153394637H1.5003764761078022V0.42735122153394633H1.4986730489830562V0.42737957153394635H1.4969696218583097V0.4274154815339463H1.495266194733564V0.4274419415339463H1.4935627676088175V0.42747785153394635H1.4918593404840714V0.4275043115339463H1.4901559133593252V0.42752699153394635H1.488452486234579V0.4275553415339463H1.4867490591098327V0.42758936153394633H1.4850456319850867V0.42762527153394636H1.4833422048603402V0.42765929153394633H1.4816387777355944V0.4276933115339463H1.479935350610848V0.4277216615339463H1.4782319234861019V0.4277556815339463H1.4765284963613556V0.4277915915339463H1.4748250692366094V0.42782183153394626H1.4731216421118631V0.42784262153394637H1.4714182149871171V0.42788042153394634H1.4697147878623706V0.4279106615339463H1.4680113607376248V0.42794657153394633H1.4663079336128784V0.4279730315339463H1.4646045064881323V0.4279862615339463H1.462901079363386V0.42801083153394626H1.4611976522386398V0.42803918153394627H1.4594942251138936V0.42805241153394635H1.4577907979891476V0.4280864315339463H1.456087370864401V0.42811478153394633H1.4543839437396553V0.42813935153394633H1.4526805166149088V0.4281601415339463H1.4509770894901628V0.4281903815339463H1.4492736623654165V0.42821684153394635H1.4475702352406703V0.42823763153394634H1.445866808115924V0.42828677153394634H1.444163380991178V0.4283207915339463H1.4424599538664316V0.4283472515339463H1.4407565267416858V0.4283831615339463H1.4390530996169393V0.4284247415339463H1.4373496724921933V0.42846632153394637H1.435646245367447V0.42850412153394635H1.4339428182427008V0.4285268015339463H1.4322393911179545V0.4285589315339463H1.4305359639932085V0.4285967315339463H1.428832536868462V0.42861563153394633H1.4271291097437162V0.4286458715339463H1.4254256826189697V0.4286742215339463H1.4237222554942237V0.4286987915339463H1.4220188283694777V0.4287290315339463H1.4203154012447312V0.4287554915339463H1.418611974119985V0.42878195153394627H1.416908546995239V0.4288103015339463H1.415205119870493V0.4288443215339463H1.4135016927457467V0.4288764515339463H1.4117982656210002V0.4289085815339463H1.4100948384962542V0.4289482715339463H1.4083914113715084V0.42898040153394634H1.4066879842467617V0.4290125315339463H1.4049845571220154V0.4290352115339463H1.4032811299972694V0.4290673415339463H1.4015777028725234V0.42909002153394626H1.3998742757477771V0.4291164815339463H1.3981708486230306V0.4291410515339463H1.3964674214982846V0.42916562153394633H1.3947639943735388V0.42919397153394634H1.3930605672487921V0.42922610153394636H1.3913571401240459V0.4292525615339463H1.3896537129992999V0.4292771315339463H1.3879502858745538V0.42929603153394635H1.3862468587498076V0.42933194153394627H1.384543431625061V0.42936218153394634H1.382840004500315V0.42939053153394635H1.3811365773755693V0.4294207715339463H1.3794331502508228V0.4294585715339463H1.3777297231260763V0.4295001515339463H1.3760262960013305V0.4295398415339463H1.3743228688765843V0.42957197153394633H1.372619441751838V0.4295852015339463H1.3709160146270916V0.4296097715339463H1.3692125875023455V0.4296381215339463H1.3675091603775997V0.4296683615339463H1.3658057332528533V0.4297042715339463H1.3641023061281068V0.4297326215339463H1.362398879003361V0.4297609715339463H1.3606954518786147V0.42979688153394635H1.3589920247538685V0.4298195615339463H1.357288597629122V0.4298403515339463H1.355585170504376V0.42987059153394636H1.3538817433796302V0.4299046115339463H1.3521783162548837V0.4299235115339463H1.3504748891301372V0.4299537515339463H1.3487714620053914V0.42996887153394636H1.3470680348806452V0.4299877715339463H1.345364607755899V0.4300123415339463H1.3436611806311527V0.43004258153394637H1.3419577535064064V0.4300671515339463H1.3402543263816606V0.4300973915339463H1.3385508992569142V0.4301427515339463H1.3368474721321677V0.4301767715339463H1.335144045007422V0.4302089015339463H1.3334406178826756V0.4302259115339463H1.3317371907579294V0.4302542615339463H1.3300337636331832V0.4302807215339463H1.328330336508437V0.43029773153394635H1.326626909383691V0.4303166315339463H1.3249234822589446V0.43034309153394634H1.3232200551341982V0.4303695515339463H1.3215166280094524V0.43040924153394633H1.319813200884706V0.43043759153394634H1.3181097737599599V0.43046216153394634H1.3164063466352136V0.43048295153394633H1.3147029195104674V0.4305131915339463H1.3129994923857216V0.43055099153394627H1.311296065260975V0.4305869015339463H1.309592638136229V0.4306228115339463H1.3078892110114828V0.4306492715339463H1.3061857838867366V0.43067573153394634H1.3044823567619903V0.4306927415339463H1.3027789296372443V0.4307418815339463H1.3010755025124978V0.4307551115339463H1.299372075387752V0.4307834615339463H1.2976686482630055V0.4308042515339463H1.2959652211382595V0.4308288215339463H1.2942617940135133V0.4308590615339463H1.292558366888767V0.4309063115339463H1.2908549397640208V0.43093277153394627H1.2891515126392747V0.43096301153394634H1.2874480855145283V0.4309894715339463H1.2857446583897825V0.4310178215339463H1.284041231265036V0.43102727153394627H1.28233780414029V0.4310537315339463H1.2806343770155437V0.4310839715339463H1.2789309498907975V0.43111421153394636H1.2772275227660512V0.4311217715339463H1.2755240956413052V0.4311331115339463H1.2738206685165587V0.4311671315339463H1.272117241391813V0.4311879215339463H1.2704138142670665V0.4312143815339463H1.2687103871423204V0.4312351715339463H1.2670069600175742V0.4312597415339463H1.265303532892828V0.43128620153394637H1.2636001057680817V0.43131077153394637H1.2618966786433357V0.4313334515339463H1.2601932515185892V0.43136936153394634H1.2584898243938434V0.4313920415339463H1.256786397269097V0.43141850153394634H1.2550829701443509V0.4314449615339463H1.2533795430196046V0.4314563015339463H1.2516761158948586V0.4314941015339463H1.2499726887701121V0.4315073315339463H1.2482692616453663V0.4315224515339463H1.2465658345206196V0.4315526915339463H1.2448624073958738V0.4315923815339463H1.2431589802711274V0.43162262153394637H1.2414555531463813V0.43165286153394633H1.239752126021635V0.4316793215339463H1.238048698896889V0.4316963315339464H1.2363452717721426V0.43170956153394635H1.2346418446473968V0.43173791153394636H1.23293841752265V0.43177571153394634H1.2312349903979043V0.43181162153394637H1.2295315632731578V0.4318380815339463H1.2278281361484118V0.43184942153394634H1.2261247090236655V0.4318758815339463H1.2244212818989195V0.43189856153394635H1.222717854774173V0.43192313153394635H1.2210144276494272V0.43194014153394633H1.2193110005246806V0.43195904153394626H1.2176075733999348V0.43197605153394636H1.2159041462751885V0.43200062153394636H1.2142007191504423V0.43201763153394634H1.212497292025696V0.43203842153394634H1.21079386490095V0.4320724415339463H1.2090904377762035V0.43209512153394636H1.2073870106514577V0.43212347153394626H1.2056835835267112V0.4321461515339463H1.2039801564019652V0.4321745015339463H1.2022767292772192V0.43220663153394634H1.2005733021524727V0.43222742153394633H1.1988698750277265V0.4322501015339463H1.1971664479029804V0.43226333153394625H1.1954630207782344V0.4322822315339463H1.1937595936534882V0.4323143615339463H1.1920561665287417V0.4323275915339463H1.1903527394039957V0.43235027153394634H1.1886493122792496V0.4323729515339463H1.1869458851545032V0.4323899615339463H1.185242458029757V0.4324050815339463H1.183539030905011V0.43242776153394635H1.1818356037802649V0.4324504415339463H1.1801321766555186V0.4324636715339463H1.1784287495307721V0.4324863515339463H1.1767253224060261V0.43250903153394626H1.17502189528128V0.43253927153394633H1.1733184681565336V0.43255439153394637H1.1716150410317874V0.4325770715339463H1.1699116139070413V0.4325940815339463H1.1682081867822953V0.4326224315339463H1.166504759657549V0.4326526715339463H1.1648013325328026V0.43266968153394636H1.1630979054080566V0.4327055915339463H1.1613944782833105V0.43271882153394636H1.159691051158564V0.4327452815339463H1.1579876240338178V0.4327622915339463H1.1562841969090718V0.4327830815339463H1.1545807697843258V0.4328114315339463H1.1528773426595795V0.43283411153394635H1.151173915534833V0.43285112153394634H1.149470488410087V0.43287191153394633H1.147767061285341V0.43291160153394637H1.1460636341605945V0.4329342815339463H1.1443602070358483V0.4329569615339463H1.1426567799111023V0.4329796415339463H1.1409533527863562V0.4330004315339463H1.13924992566161V0.4330174415339463H1.1375464985368635V0.4330344515339463H1.1358430714121175V0.43305146153394636H1.1341396442873715V0.43307225153394635H1.132436217162625V0.43309304153394634H1.1307327900378787V0.4331119415339463H1.1290293629131327V0.43314596153394636H1.1273259357883867V0.43317053153394636H1.1256225086636404V0.43318376153394633H1.123919081538894V0.4332140015339463H1.122215654414148V0.4332310115339463H1.1205122272894021V0.4332461315339463H1.1188088001646554V0.43326125153394635H1.1171053730399092V0.4332801515339463H1.1154019459151632V0.4333009415339463H1.1136985187904171V0.4333179515339463H1.111995091665671V0.43333118153394634H1.1102916645409244V0.4333538615339463H1.1085882374161784V0.4333727615339463H1.1068848102914326V0.43338410153394635H1.105181383166686V0.43339733153394633H1.1034779560419397V0.43342190153394633H1.1017745289171936V0.43344647153394633H1.1000711017924476V0.4334691515339463H1.0983676746677014V0.4334899415339464H1.0966642475429549V0.4335182915339463H1.0949608204182089V0.43353908153394627H1.093257393293463V0.43355231153394636H1.0915539661687164V0.4335674315339463H1.0898505390439701V0.4335863315339463H1.088147111919224V0.43360145153394636H1.086443684794478V0.4336127915339463H1.0847402576697318V0.4336373615339463H1.0830368305449853V0.43364681153394635H1.0813334034202393V0.4336600415339463H1.0796299762954935V0.4336865015339463H1.077926549170747V0.4337054015339463H1.0762231220460006V0.4337261915339463H1.0745196949212548V0.43373753153394634H1.0728162677965085V0.4337564315339463H1.0711128406717623V0.4337715515339463H1.0694094135470158V0.4337961215339463H1.0677059864222698V0.43381124153394635H1.066002559297524V0.43382825153394633H1.0642991321727775V0.43385093153394627H1.062595705048031V0.4338755015339463H1.0608922779232852V0.4338906215339463H1.059188850798539V0.4338981815339463H1.0574854236737927V0.4339189715339463H1.0557819965490463V0.4339397615339463H1.0540785694243002V0.43395110153394634H1.0523751422995544V0.4339681115339463H1.050671715174808V0.4339889015339463H1.0489682880500615V0.43400780153394636H1.0472648609253157V0.4340229215339463H1.0455614338005694V0.4340380415339463H1.0438580066758232V0.43404560153394633H1.042154579551077V0.4340663915339463H1.0404511524263307V0.43408907153394627H1.0387477253015849V0.4341060815339463H1.0370442981768386V0.43412309153394635H1.0353408710520924V0.4341363215339463H1.0336374439273461V0.4341665615339463H1.0319340168025999V0.43418357153394627H1.030230589677854V0.43420814153394627H1.0285271625531076V0.43422137153394635H1.0268237354283611V0.4342402715339463H1.0251203083036153V0.4342610615339463H1.023416881178869V0.4342856315339463H1.0217134540541228V0.4342969715339463H1.0200100269293764V0.4343177615339463H1.0183065998046306V0.4343461115339463H1.0166031726798845V0.43436123153394635H1.014899745555138V0.4343744615339463H1.0131963184303916V0.4343933615339463H1.0114928913056458V0.43440281153394633H1.0097894641808998V0.43442738153394633H1.0080860370561533V0.4344443915339463H1.0063826099314068V0.4344576215339463H1.004679182806661V0.4344821915339463H1.002975755681915V0.43450109153394634H1.0012723285571685V0.43452188153394633H0.9995689014324223V0.43453700153394637H0.9978654743076762V0.43454078153394626H0.9961620471829302V0.4345596815339463H0.9944586200581838V0.4345880315339463H0.9927551929334375V0.4346107115339463H0.9910517658086915V0.4346182715339463H0.9893483386839454V0.4346390615339463H0.987644911559199V0.4346579615339463H0.9859414844344527V0.4346749715339463H0.9842380573097067V0.43469009153394633H0.9825346301849607V0.4347127715339463H0.9808312030602142V0.4347278915339463H0.979127775935468V0.4347524615339463H0.9774243488107219V0.4347732515339463H0.9757209216859759V0.4347940415339463H0.9740174945612294V0.4348110515339463H0.9723140674364832V0.4348242815339463H0.9706106403117372V0.4348394015339463H0.9689072131869911V0.4348601915339463H0.9672037860622447V0.43487342153394637H0.9655003589374984V0.4348942115339463H0.9637969318127524V0.4349093315339463H0.9620935046880064V0.4349206715339463H0.9603900775632599V0.4349452415339463H0.9586866504385136V0.4349584715339463H0.9569832233137676V0.43498493153394635H0.9552797961890216V0.43500950153394635H0.9535763690642751V0.43502651153394634H0.9518729419395289V0.43504541153394627H0.9501695148147828V0.43506620153394626H0.9484660876900368V0.4350869915339463H0.9467626605652903V0.43510400153394635H0.9450592334405441V0.4351191215339463H0.9433558063157981V0.4351361315339463H0.941652379191052V0.4351588115339463H0.9399489520663056V0.43517393153394635H0.9382455249415593V0.4351871615339463H0.9365420978168133V0.4351966115339463H0.9348386706920673V0.4352079515339463H0.9331352435673208V0.43521929153394634H0.9314318164425746V0.43522685153394636H0.9297283893178285V0.4352381915339463H0.9280249621930825V0.4352552015339463H0.926321535068336V0.43527221153394635H0.9246181079435898V0.4352911115339463H0.9229146808188438V0.43531001153394633H0.9212112536940977V0.43532135153394635H0.9195078265693513V0.43533458153394633H0.917804399444605V0.43535915153394633H0.916100972319859V0.4353742715339463H0.914397545195113V0.4353856115339463H0.9126941180703665V0.4354158515339463H0.9109906909456202V0.43544042153394635H0.9092872638208742V0.43545743153394634H0.9075838366961282V0.4354801115339463H0.9058804095713817V0.4354838915339463H0.9041769824466355V0.43550279153394633H0.9024735553218894V0.4355122415339463H0.9007701281971434V0.4355368115339463H0.899066701072397V0.4355613815339463H0.8973632739476507V0.4355859515339463H0.8956598468229047V0.4356067415339463H0.8939564196981586V0.43562564153394634H0.8922529925734122V0.4356388715339463H0.8905495654486659V0.43567478153394634H0.8888461383239199V0.4356936815339463H0.8871427111991739V0.4357050215339463H0.8854392840744274V0.4357258115339463H0.8837358569496812V0.43573904153394627H0.8820324298249351V0.4357503815339463H0.8803290027001891V0.4357617215339463H0.8786255755754426V0.43577306153394635H0.8769221484506964V0.43579385153394634H0.8752187213259504V0.4358108615339463H0.8735152942012043V0.4358259815339463H0.8718118670764581V0.4358411015339463H0.8701084399517116V0.4358562215339463H0.8684050128269656V0.43587512153394636H0.8667015857022196V0.43588835153394634H0.8649981585774733V0.4359053615339463H0.8632947314527268V0.43591670153394635H0.8615913043279808V0.4359223715339463H0.8598878772032348V0.43593371153394633H0.8581844500784885V0.43596206153394634H0.8564810229537421V0.4359790715339463H0.854777595828996V0.4360130915339463H0.85307416870425V0.4360263215339463H0.8513707415795038V0.4360490015339463H0.8496673144547573V0.4360660115339463H0.8479638873300113V0.43607735153394633H0.8462604602052652V0.4360943615339463H0.844557033080519V0.4361113715339463H0.8428536059557725V0.4361246015339463H0.8411501788310265V0.4361397215339463H0.8394467517062805V0.43615106153394634H0.8377433245815342V0.43617185153394633H0.8360398974567878V0.43618319153394636H0.8343364703320417V0.4361926415339463H0.8326330432072957V0.43620776153394636H0.8309296160825494V0.4362172115339463H0.829226188957803V0.43622477153394634H0.827522761833057V0.43624367153394633H0.8258193347083109V0.4362682415339463H0.8241159075835647V0.4362871415339463H0.8224124804588187V0.4363041515339463H0.8207090533340722V0.43632305153394635H0.8190056262093262V0.4363362815339463H0.8173021990845801V0.43634384153394634H0.8155987719598339V0.4363551815339463H0.8138953448350874V0.43637219153394635H0.8121919177103414V0.4363854215339463H0.8104884905855954V0.43640810153394627H0.8087850634608491V0.43642889153394626H0.8070816363361026V0.43643645153394633H0.8053782092113566V0.4364553515339463H0.8036747820866106V0.43647425153394637H0.8019713549618643V0.4364931515339463H0.8002679278371179V0.43651205153394634H0.7985645007123718V0.43652717153394627H0.7968610735876258V0.4365385115339463H0.7951576464628796V0.4365593015339463H0.7934542193381331V0.4365800915339463H0.7917507922133871V0.4365952115339463H0.790047365088641V0.4366160015339463H0.7883439379638948V0.4366405715339463H0.7866405108391483V0.43665191153394634H0.7849370837144023V0.43666325153394636H0.7832336565896563V0.43667648153394634H0.78153022946491V0.4366916015339463H0.7798268023401635V0.43669727153394633H0.7781233752154175V0.4367142815339463H0.7764199480906717V0.4367312915339463H0.7747165209659252V0.4367350715339463H0.7730130938411788V0.43674641153394633H0.7713096667164328V0.4367634215339463H0.769606239591687V0.43677854153394635H0.7679028124669405V0.4367974415339463H0.766199385342194V0.4368125615339463H0.764495958217448V0.43683146153394636H0.7627925310927022V0.43684847153394635H0.7610891039679557V0.43685981153394626H0.7593856768432092V0.43687304153394635H0.7576822497184632V0.4368824915339463H0.7559788225937174V0.43689383153394634H0.7542753954689709V0.4368995015339463H0.7525719683442245V0.4369202915339463H0.7508685412194784V0.43693919153394634H0.7491651140947326V0.4369580915339463H0.7474616869699862V0.4369694315339463H0.7457582598452397V0.43699589153394636H0.7440548327204937V0.43701290153394634H0.7423514055957479V0.43703369153394633H0.7406479784710014V0.43704503153394636H0.7389445513462549V0.4370563715339463H0.7372411242215091V0.4370639315339463H0.7355376970967631V0.4370847215339463H0.7338342699720166V0.4370941715339463H0.7321308428472701V0.43711496153394636H0.7304274157225243V0.4371300815339463H0.7287239885977783V0.4371433115339463H0.7270205614730318V0.43715276153394633H0.7253171343482854V0.4371622115339463H0.7236137072235396V0.4371754415339463H0.7219102800987935V0.43718867153394636H0.7202068529740471V0.43720568153394634H0.7185034258493006V0.4372151315339463H0.7167999987245548V0.43722647153394634H0.7150965715998088V0.4372378115339463H0.7133931444750623V0.43725104153394634H0.7116897173503158V0.4372642715339463H0.70998629022557V0.4372812815339463H0.708282863100824V0.43729451153394633H0.7065794359760775V0.43730018153394634H0.7048760088513313V0.43730774153394636H0.7031725817265853V0.43732097153394633H0.7014691546018392V0.43733231153394636H0.6997657274770928V0.4373474315339463H0.6980623003523465V0.43735688153394636H0.6963588732276005V0.43737011153394634H0.6946554461028545V0.43737767153394635H0.692952018978108V0.43738901153394627H0.6912485918533617V0.4374022415339463H0.6895451647286157V0.4374211415339463H0.6878417376038697V0.4374305915339463H0.6861383104791232V0.4374362615339463H0.684434883354377V0.4374457115339463H0.6827314562296309V0.43745894153394627H0.6810280291048849V0.43746461153394633H0.6793246019801384V0.4374835115339463H0.6776211748553922V0.4374910715339463H0.6759177477306462V0.43750430153394626H0.6742143206059001V0.4375118615339463H0.6725108934811537V0.4375232015339463H0.6708074663564074V0.4375288715339463H0.6691040392316614V0.4375477715339463H0.6674006121069154V0.43755911153394633H0.6656971849821689V0.43757045153394636H0.6639937578574227V0.43758368153394633H0.6622903307326766V0.43758746153394634H0.6605869036079306V0.43760825153394634H0.6588834764831841V0.4376233715339463H0.6571800493584379V0.43763660153394635H0.6554766222336919V0.4376498315339463H0.6537731951089458V0.43766873153394636H0.6520697679841994V0.43767818153394633H0.6503663408594531V0.43768952153394636H0.6486629137347071V0.4377046415339463H0.646959486609961V0.4377122015339463H0.6452560594852146V0.43772165153394627H0.6435526323604683V0.43773866153394636H0.6418492052357223V0.4377500015339463H0.6401457781109763V0.43775945153394635H0.6384423509862298V0.4377689015339463H0.6367389238614836V0.43778402153394635H0.6350354967367375V0.43779536153394627H0.6333320696119915V0.43780103153394634H0.631628642487245V0.4378123715339463H0.6299252153624988V0.4378274915339463H0.6282217882377528V0.43784072153394626H0.6265183611130067V0.43785395153394635H0.6248149339882603V0.43785773153394636H0.623111506863514V0.4378634015339463H0.621408079738768V0.43787852153394635H0.619704652614022V0.43788986153394627H0.6180012254892755V0.4378974215339463H0.6162977983645292V0.43790687153394636H0.6145943712397832V0.4379182115339463H0.6128909441150372V0.4379333315339463H0.6111875169902907V0.4379427815339463H0.6094840898655445V0.4379503415339463H0.6077806627407984V0.4379597915339463H0.6060772356160524V0.43796924153394634H0.604373808491306V0.4379862515339463H0.6026703813665601V0.43799381153394634H0.6009669542418137V0.4380051515339463H0.5992635271170677V0.4380108215339463H0.5975600999923216V0.43802216153394635H0.5958566728675754V0.43803350153394627H0.5941532457428289V0.4380448415339463H0.5924498186180829V0.4380561815339463H0.5907463914933369V0.43806752153394635H0.5890429643685906V0.4380807515339463H0.5873395372438441V0.43809209153394635H0.5856361101190981V0.4381015415339463H0.5839326829943521V0.43810910153394633H0.5822292558696058V0.43812044153394636H0.5805258287448594V0.43813367153394633H0.5788224016201133V0.4381431215339463H0.5771189744953673V0.4381563515339463H0.5754155473706211V0.4381676915339463H0.5737121202458746V0.43817903153394633H0.5720086931211286V0.4381847015339463H0.5703052659963825V0.4381884815339463H0.5686018388716363V0.4381979315339463H0.5668984117468898V0.43821116153394635H0.5651949846221438V0.43822250153394626H0.5634915574973978V0.43823195153394634H0.5617881303726515V0.43824707153394626H0.560084703247905V0.4382697515339463H0.558381276123159V0.43828109153394634H0.556677848998413V0.43829621153394627H0.5549744218736667V0.43831322153394636H0.5532709947489203V0.4383283415339463H0.5515675676241742V0.4383321215339463H0.5498641404994282V0.4383453515339463H0.548160713374682V0.43835102153394634H0.5464572862499355V0.4383529115339463H0.5447538591251895V0.4383566915339463H0.5430504320004435V0.4383699215339463H0.5413470048756972V0.4383888215339463H0.5396435777509507V0.4383982715339463H0.5379401506262047V0.4384133915339463H0.5362367235014587V0.4384304015339463H0.5345332963767124V0.43843985153394627H0.532829869251966V0.43845308153394635H0.5311264421272199V0.43846064153394637H0.5294230150024739V0.4384682015339463H0.5277195878777277V0.4384871015339463H0.5260161607529812V0.43848899153394627H0.5243127336282352V0.43850222153394636H0.5226093065034891V0.4385078915339463H0.5209058793787429V0.43851356153394627H0.5192024522539964V0.4385249015339463H0.5174990251292504V0.4385362415339463H0.5157955980045044V0.4385513615339463H0.5140921708797581V0.4385702615339463H0.5123887437550116V0.43858349153394627H0.5106853166302656V0.43858916153394634H0.5089818895055196V0.43860050153394636H0.5072784623807733V0.4386118415339463H0.5055750352560269V0.4386212915339463H0.5038716081312808V0.4386288515339463H0.5021681810065348V0.43863830153394634H0.5004647538817886V0.43865342153394626H0.4987613267570421V0.4386609815339463H0.4970578996322961V0.4386704315339463H0.49535447250755005V0.43868177153394633H0.4936510453828038V0.43869500153394625H0.49194761825805733V0.43870823153394634H0.4902441911333113V0.4387176815339463H0.4885407640085653V0.4387346915339463H0.486837336883819V0.4387498115339463H0.48513390975907256V0.43876493153394636H0.48343048263432653V0.4387706015339463H0.4817270555095807V0.4387838315339463H0.48002362838483426V0.4388008415339463H0.4783202012600878V0.4388121815339463H0.47661677413534176V0.4388216315339463H0.47491334701059595V0.4388367515339463H0.4732099198858495V0.4388443115339463H0.471506492761103V0.43885565153394634H0.469803065636357V0.4388632115339463H0.4680996385116112V0.4388745515339463H0.4663962113868647V0.4388840015339463H0.46469278426211824V0.43889723153394633H0.4629893571373722V0.43890479153394635H0.4612859300126264V0.4389104615339463H0.45958250288787994V0.4389180215339463H0.45787907576313347V0.4389274715339463H0.45617564863838744V0.43894070153394626H0.45447222151364164V0.4389482615339463H0.45276879438889517V0.4389520415339463H0.4510653672641487V0.4389671615339463H0.44936194013940267V0.4389766115339463H0.44765851301465687V0.4389879515339463H0.4459550858899104V0.43899929153394635H0.4442516587651639V0.43901063153394637H0.4425482316404181V0.43902386153394635H0.4408448045156721V0.4390352015339463H0.4391413773909256V0.43904087153394633H0.43743795026617915V0.4390503215339463H0.43573452314143335V0.4390578815339463H0.4340310960166873V0.43906922153394634H0.43232766889194085V0.4390767815339463H0.4306242417671944V0.4390786715339463H0.4289208146424486V0.43909001153394633H0.42721738751770255V0.4391126915339463H0.4255139603929561V0.43911836153394634H0.4238105332682096V0.4391278115339463H0.4221071061434638V0.4391372615339463H0.4204036790187178V0.4391467115339463H0.4187002518939713V0.43916372153394634H0.41699682476922484V0.43917506153394636H0.41529339764447903V0.4391864015339463H0.413589970519733V0.4391939615339463H0.41188654339498654V0.4392053015339463H0.4101831162702403V0.4392147515339463H0.40847968914549426V0.4392223115339463H0.40677626202074824V0.4392298715339463H0.40507283489600177V0.4392355415339463H0.4033694077712555V0.4392431015339463H0.4016659806465095V0.4392563315339463H0.39996255352176346V0.4392695615339463H0.398259126397017V0.4392714515339463H0.39655569927227075V0.43928090153394633H0.3948522721475247V0.4392884615339463H0.3931488450227787V0.4392941315339463H0.3914454178980322V0.4392998015339463H0.389741990773286V0.43930358153394633H0.38803856364853995V0.43931870153394637H0.3863351365237939V0.43932815153394633H0.3846317093990479V0.4393376015339463H0.3829282822743014V0.4393451615339463H0.3812248551495552V0.4393508315339463H0.37952142802480915V0.4393546115339463H0.3778180009000631V0.4393621715339463H0.3744111466505704V0.43937162153394627H0.3727077195258244V0.4393791815339463H0.37100429240107835V0.4393924115339463H0.3693008652763319V0.43940564153394635H0.3658940110268396V0.43940942153394635H0.3641905839020936V0.4394169815339463H0.3624871567773471V0.4394188715339463H0.36078372965260086V0.43942265153394633H0.35908030252785483V0.4394358815339463H0.3573768754031088V0.43944155153394626H0.35567344827836234V0.43944533153394627H0.3539700211536161V0.4394528915339463H0.35226659402887006V0.4394604515339463H0.35056316690412404V0.4394680115339463H0.34885973977937756V0.43947179153394633H0.3471563126546313V0.43948313153394636H0.3454528855298853V0.4394869115339463H0.34374945840513926V0.43949636153394633H0.3420460312803928V0.43950770153394636H0.34034260415564654V0.4395228215339463H0.3386391770309005V0.43953227153394636H0.3369357499061545V0.4395398315339463H0.335232322781408V0.43955306153394635H0.3335288956566618V0.4395549515339463H0.33182546853191575V0.43957385153394635H0.3301220414071697V0.4395757415339463H0.32841861428242325V0.43957763153394636H0.326715187157677V0.4395833015339463H0.325011760032931V0.43959464153394634H0.32330833290818495V0.43961543153394633H0.3216049057834385V0.4396248815339463H0.31990147865869223V0.43963433153394627H0.3181980515339462V0.1967617715339463H0.31990147865869223V0.19677122153394633H0.3216049057834385V0.1967806715339463H0.32330833290818495V0.19680146153394631H0.325011760032931V0.1968128015339463H0.326715187157677V0.19681847153394633H0.32841861428242325V0.19682036153394633H0.3301220414071697V0.1968222515339463H0.33182546853191575V0.19684115153394632H0.3335288956566618V0.1968430415339463H0.335232322781408V0.1968562715339463H0.3369357499061545V0.19686383153394632H0.3386391770309005V0.1968732815339463H0.34034260415564654V0.19688840153394632H0.3420460312803928V0.1968997415339463H0.34374945840513926V0.19690919153394632H0.3454528855298853V0.19691297153394632H0.3471563126546313V0.1969243115339463H0.34885973977937756V0.1969280915339463H0.35056316690412404V0.19693565153394632H0.35226659402887006V0.1969432115339463H0.3539700211536161V0.1969507715339463H0.35567344827836234V0.1969545515339463H0.3573768754031088V0.19696022153394632H0.35908030252785483V0.1969734515339463H0.36078372965260086V0.1969772315339463H0.3624871567773471V0.1969791215339463H0.3641905839020936V0.19698668153394633H0.3658940110268396V0.1969904615339463H0.3693008652763319V0.1970036915339463H0.37100429240107835V0.19701692153394632H0.3727077195258244V0.1970244815339463H0.3744111466505704V0.19703393153394633H0.3778180009000631V0.1970414915339463H0.37952142802480915V0.1970452715339463H0.3812248551495552V0.1970509415339463H0.3829282822743014V0.19705850153394633H0.3846317093990479V0.1970679515339463H0.3863351365237939V0.19707740153394632H0.38803856364853995V0.1970925215339463H0.389741990773286V0.1970963015339463H0.3914454178980322V0.19710197153394632H0.3931488450227787V0.19710764153394633H0.3948522721475247V0.1971152015339463H0.39655569927227075V0.19712465153394632H0.398259126397017V0.19712654153394632H0.39996255352176346V0.19713977153394632H0.4016659806465095V0.19715300153394633H0.4033694077712555V0.19716056153394632H0.40507283489600177V0.19716623153394633H0.40677626202074824V0.19717379153394632H0.40847968914549426V0.1971813515339463H0.4101831162702403V0.1971908015339463H0.41188654339498654V0.1972021415339463H0.413589970519733V0.19720970153394632H0.41529339764447903V0.19722104153394632H0.41699682476922484V0.1972323815339463H0.4187002518939713V0.19724939153394633H0.4204036790187178V0.1972588415339463H0.4221071061434638V0.19726829153394632H0.4238105332682096V0.19727774153394634H0.4255139603929561V0.1972834115339463H0.42721738751770255V0.19730609153394632H0.4289208146424486V0.19731743153394632H0.4306242417671944V0.19731932153394632H0.43232766889194085V0.1973268815339463H0.4340310960166873V0.1973382215339463H0.43573452314143335V0.1973457815339463H0.43743795026617915V0.19735523153394632H0.4391413773909256V0.1973609015339463H0.4408448045156721V0.1973722415339463H0.4425482316404181V0.1973854715339463H0.4442516587651639V0.19739681153394634H0.4459550858899104V0.1974081515339463H0.44765851301465687V0.1974194915339463H0.44936194013940267V0.19742894153394633H0.4510653672641487V0.19744406153394634H0.45276879438889517V0.19744784153394632H0.45447222151364164V0.1974554015339463H0.45617564863838744V0.19746863153394634H0.45787907576313347V0.1974780815339463H0.45958250288787994V0.19748564153394632H0.4612859300126264V0.1974913115339463H0.4629893571373722V0.19749887153394632H0.46469278426211824V0.19751210153394633H0.4663962113868647V0.19752155153394632H0.4680996385116112V0.19753289153394632H0.469803065636357V0.1975404515339463H0.471506492761103V0.1975517915339463H0.4732099198858495V0.19755935153394633H0.47491334701059595V0.1975744715339463H0.47661677413534176V0.19758392153394633H0.4783202012600878V0.19759526153394633H0.48002362838483426V0.1976122715339463H0.4817270555095807V0.1976255015339463H0.48343048263432653V0.1976311715339463H0.48513390975907256V0.1976462915339463H0.486837336883819V0.19766141153394634H0.4885407640085653V0.19767842153394632H0.4902441911333113V0.19768787153394635H0.49194761825805733V0.19770110153394632H0.4936510453828038V0.1977143315339463H0.49535447250755005V0.19772567153394632H0.4970578996322961V0.19773512153394632H0.4987613267570421V0.1977426815339463H0.5004647538817886V0.19775780153394631H0.5021681810065348V0.1977672515339463H0.5038716081312808V0.19777481153394633H0.5055750352560269V0.19778426153394632H0.5072784623807733V0.19779560153394632H0.5089818895055196V0.19780694153394632H0.5106853166302656V0.1978126115339463H0.5123887437550116V0.19782584153394633H0.5140921708797581V0.19784474153394632H0.5157955980045044V0.1978598615339463H0.5174990251292504V0.1978712015339463H0.5192024522539964V0.1978825415339463H0.5209058793787429V0.1978882115339463H0.5226093065034891V0.19789388153394633H0.5243127336282352V0.1979071115339463H0.5260161607529812V0.1979090015339463H0.5277195878777277V0.19792790153394632H0.5294230150024739V0.1979354615339463H0.5311264421272199V0.19794302153394633H0.532829869251966V0.1979562515339463H0.5345332963767124V0.19796570153394633H0.5362367235014587V0.1979827115339463H0.5379401506262047V0.19799783153394632H0.5396435777509507V0.1980072815339463H0.5413470048756972V0.1980261815339463H0.5430504320004435V0.1980394115339463H0.5447538591251895V0.1980431915339463H0.5464572862499355V0.19804508153394632H0.548160713374682V0.1980507515339463H0.5498641404994282V0.1980639815339463H0.5515675676241742V0.1980677615339463H0.5532709947489203V0.19808288153394632H0.5549744218736667V0.1980998915339463H0.556677848998413V0.19811501153394628H0.558381276123159V0.1981263515339463H0.560084703247905V0.1981490315339463H0.5617881303726515V0.19816415153394631H0.5634915574973978V0.1981736015339463H0.5651949846221438V0.1981849415339463H0.5668984117468898V0.1981981715339463H0.5686018388716363V0.1982076215339463H0.5703052659963825V0.1982114015339463H0.5720086931211286V0.1982170715339463H0.5737121202458746V0.19822841153394632H0.5754155473706211V0.1982397515339463H0.5771189744953673V0.19825298153394633H0.5788224016201133V0.1982624315339463H0.5805258287448594V0.19827566153394632H0.5822292558696058V0.19828700153394632H0.5839326829943521V0.1982945615339463H0.5856361101190981V0.1983040115339463H0.5873395372438441V0.1983153515339463H0.5890429643685906V0.19832858153394634H0.5907463914933369V0.1983399215339463H0.5924498186180829V0.19835126153394633H0.5941532457428289V0.1983626015339463H0.5958566728675754V0.1983739415339463H0.5975600999923216V0.1983852815339463H0.5992635271170677V0.1983909515339463H0.6009669542418137V0.19840229153394634H0.6026703813665601V0.1984098515339463H0.604373808491306V0.1984268615339463H0.6060772356160524V0.1984363115339463H0.6077806627407984V0.19844576153394633H0.6094840898655445V0.19845332153394632H0.6111875169902907V0.1984627715339463H0.6128909441150372V0.1984778915339463H0.6145943712397832V0.19848923153394632H0.6162977983645292V0.19849868153394634H0.6180012254892755V0.1985062415339463H0.619704652614022V0.19851758153394633H0.621408079738768V0.1985327015339463H0.623111506863514V0.19853837153394632H0.6248149339882603V0.19854215153394633H0.6265183611130067V0.1985553815339463H0.6282217882377528V0.19856861153394634H0.6299252153624988V0.19858373153394632H0.631628642487245V0.19859507153394632H0.6333320696119915V0.1986007415339463H0.6350354967367375V0.19861208153394633H0.6367389238614836V0.1986272015339463H0.6384423509862298V0.1986366515339463H0.6401457781109763V0.19864610153394632H0.6418492052357223V0.19865744153394632H0.6435526323604683V0.19867445153394633H0.6452560594852146V0.19868390153394633H0.646959486609961V0.1986914615339463H0.6486629137347071V0.19870658153394632H0.6503663408594531V0.1987179215339463H0.6520697679841994V0.19872737153394632H0.6537731951089458V0.1987462715339463H0.6554766222336919V0.1987595015339463H0.6571800493584379V0.1987727315339463H0.6588834764831841V0.19878785153394632H0.6605869036079306V0.1988086415339463H0.6622903307326766V0.19881242153394632H0.6639937578574227V0.19882565153394632H0.6656971849821689V0.1988369915339463H0.6674006121069154V0.19884833153394632H0.6691040392316614V0.1988672315339463H0.6708074663564074V0.19887290153394632H0.6725108934811537V0.1988842415339463H0.6742143206059001V0.1988918015339463H0.6759177477306462V0.19890503153394634H0.6776211748553922V0.1989125915339463H0.6793246019801384V0.1989314915339463H0.6810280291048849V0.1989371615339463H0.6827314562296309V0.19895039153394634H0.684434883354377V0.1989598415339463H0.6861383104791232V0.19896551153394632H0.6878417376038697V0.1989749615339463H0.6895451647286157V0.19899386153394633H0.6912485918533617V0.19900709153394633H0.692952018978108V0.19901843153394633H0.6946554461028545V0.1990259915339463H0.6963588732276005V0.19903922153394632H0.6980623003523465V0.19904867153394631H0.6997657274770928V0.19906379153394632H0.7014691546018392V0.19907513153394632H0.7031725817265853V0.1990883615339463H0.7048760088513313V0.1990959215339463H0.7065794359760775V0.1991015915339463H0.708282863100824V0.1991148215339463H0.70998629022557V0.1991318315339463H0.7116897173503158V0.19914506153394632H0.7133931444750623V0.19915829153394632H0.7150965715998088V0.19916963153394632H0.7167999987245548V0.19918097153394632H0.7185034258493006V0.19919042153394634H0.7202068529740471V0.19920743153394632H0.7219102800987935V0.1992206615339463H0.7236137072235396V0.19923389153394633H0.7253171343482854V0.1992433415339463H0.7270205614730318V0.19925279153394632H0.7287239885977783V0.19926602153394632H0.7304274157225243V0.1992811415339463H0.7321308428472701V0.19930193153394632H0.7338342699720166V0.1993113815339463H0.7355376970967631V0.19933217153394628H0.7372411242215091V0.19933973153394632H0.7389445513462549V0.19935107153394632H0.7406479784710014V0.19936241153394632H0.7423514055957479V0.19938320153394629H0.7440548327204937V0.19940021153394633H0.7457582598452397V0.19942667153394633H0.7474616869699862V0.1994380115339463H0.7491651140947326V0.1994569115339463H0.7508685412194784V0.1994758115339463H0.7525719683442245V0.19949660153394633H0.7542753954689709V0.1995022715339463H0.7559788225937174V0.1995136115339463H0.7576822497184632V0.19952306153394633H0.7593856768432092V0.1995362915339463H0.7610891039679557V0.1995476315339463H0.7627925310927022V0.19956464153394632H0.764495958217448V0.1995835415339463H0.766199385342194V0.19959866153394631H0.7679028124669405V0.1996175615339463H0.769606239591687V0.1996326815339463H0.7713096667164328V0.1996496915339463H0.7730130938411788V0.19966103153394632H0.7747165209659252V0.1996648115339463H0.7764199480906717V0.1996818215339463H0.7781233752154175V0.19969883153394632H0.7798268023401635V0.1997045015339463H0.78153022946491V0.1997196215339463H0.7832336565896563V0.19973285153394632H0.7849370837144023V0.19974419153394632H0.7866405108391483V0.19975553153394632H0.7883439379638948V0.1997801015339463H0.790047365088641V0.1998008915339463H0.7917507922133871V0.1998160115339463H0.7934542193381331V0.1998368015339463H0.7951576464628796V0.1998575915339463H0.7968610735876258V0.1998689315339463H0.7985645007123718V0.1998840515339463H0.8002679278371179V0.19990295153394633H0.8019713549618643V0.19992185153394632H0.8036747820866106V0.1999407515339463H0.8053782092113566V0.1999596515339463H0.8070816363361026V0.1999672115339463H0.8087850634608491V0.1999880015339463H0.8104884905855954V0.2000106815339463H0.8121919177103414V0.2000239115339463H0.8138953448350874V0.20004092153394631H0.8155987719598339V0.20005226153394629H0.8173021990845801V0.2000598215339463H0.8190056262093262V0.2000730515339463H0.8207090533340722V0.20009195153394632H0.8224124804588187V0.2001089615339463H0.8241159075835647V0.2001278615339463H0.8258193347083109V0.2001524315339463H0.827522761833057V0.2001713315339463H0.829226188957803V0.2001788915339463H0.8309296160825494V0.20018834153394632H0.8326330432072957V0.2002034615339463H0.8343364703320417V0.20021291153394633H0.8360398974567878V0.20022425153394632H0.8377433245815342V0.2002450415339463H0.8394467517062805V0.20025638153394631H0.8411501788310265V0.2002715015339463H0.8428536059557725V0.20028473153394633H0.844557033080519V0.2003017415339463H0.8462604602052652V0.2003187515339463H0.8479638873300113V0.20033009153394632H0.8496673144547573V0.2003471015339463H0.8513707415795038V0.2003697815339463H0.85307416870425V0.2003830115339463H0.854777595828996V0.20041703153394633H0.8564810229537421V0.20043404153394628H0.8581844500784885V0.2004623915339463H0.8598878772032348V0.20047373153394632H0.8615913043279808V0.20047940153394633H0.8632947314527268V0.2004907415339463H0.8649981585774733V0.2005077515339463H0.8667015857022196V0.20052098153394632H0.8684050128269656V0.2005398815339463H0.8701084399517116V0.20055500153394634H0.8718118670764581V0.20057012153394632H0.8735152942012043V0.2005852415339463H0.8752187213259504V0.2006022515339463H0.8769221484506964V0.2006230415339463H0.8786255755754426V0.2006343815339463H0.8803290027001891V0.20064572153394633H0.8820324298249351V0.2006570615339463H0.8837358569496812V0.20067029153394633H0.8854392840744274V0.20069108153394632H0.8871427111991739V0.20070242153394632H0.8888461383239199V0.20072132153394634H0.8905495654486659V0.2007572315339463H0.8922529925734122V0.2007704615339463H0.8939564196981586V0.2007893615339463H0.8956598468229047V0.20081015153394632H0.8973632739476507V0.20083472153394633H0.899066701072397V0.20085929153394633H0.9007701281971434V0.20088386153394633H0.9024735553218894V0.2008933115339463H0.9041769824466355V0.2009122115339463H0.9058804095713817V0.20091599153394632H0.9075838366961282V0.20093867153394632H0.9092872638208742V0.2009556815339463H0.9109906909456202V0.20098025153394633H0.9126941180703665V0.2010104915339463H0.914397545195113V0.20102183153394632H0.916100972319859V0.2010369515339463H0.917804399444605V0.2010615215339463H0.9195078265693513V0.2010747515339463H0.9212112536940977V0.2010860915339463H0.9229146808188438V0.20110499153394631H0.9246181079435898V0.20112389153394633H0.926321535068336V0.20114090153394631H0.9280249621930825V0.2011579115339463H0.9297283893178285V0.20116925153394632H0.9314318164425746V0.2011768115339463H0.9331352435673208V0.2011881515339463H0.9348386706920673V0.2011994915339463H0.9365420978168133V0.2012089415339463H0.9382455249415593V0.2012221715339463H0.9399489520663056V0.20123729153394632H0.941652379191052V0.2012599715339463H0.9433558063157981V0.2012769815339463H0.9450592334405441V0.20129210153394628H0.9467626605652903V0.20130911153394632H0.9484660876900368V0.2013299015339463H0.9501695148147828V0.2013506915339463H0.9518729419395289V0.2013695915339463H0.9535763690642751V0.20138660153394633H0.9552797961890216V0.2014111715339463H0.9569832233137676V0.2014376315339463H0.9586866504385136V0.2014508615339463H0.9603900775632599V0.20147543153394631H0.9620935046880064V0.2014867715339463H0.9637969318127524V0.20150189153394632H0.9655003589374984V0.2015226815339463H0.9672037860622447V0.2015359115339463H0.9689072131869911V0.20155670153394634H0.9706106403117372V0.20157182153394632H0.9723140674364832V0.20158505153394632H0.9740174945612294V0.20160206153394633H0.9757209216859759V0.20162285153394632H0.9774243488107219V0.20164364153394632H0.979127775935468V0.20166821153394632H0.9808312030602142V0.2016833315339463H0.9825346301849607V0.2017060115339463H0.9842380573097067V0.20172113153394633H0.9859414844344527V0.2017381415339463H0.987644911559199V0.2017570415339463H0.9893483386839454V0.20177783153394632H0.9910517658086915V0.2017853915339463H0.9927551929334375V0.2018080715339463H0.9944586200581838V0.20183642153394632H0.9961620471829302V0.2018553215339463H0.9978654743076762V0.20185910153394632H0.9995689014324223V0.20187422153394632H1.0012723285571685V0.2018950115339463H1.002975755681915V0.20191391153394633H1.004679182806661V0.20193848153394633H1.0063826099314068V0.2019517115339463H1.0080860370561533V0.2019687215339463H1.0097894641808998V0.2019932915339463H1.0114928913056458V0.20200274153394632H1.0131963184303916V0.2020216415339463H1.014899745555138V0.20203487153394628H1.0166031726798845V0.20204999153394632H1.0183065998046306V0.20207834153394633H1.0200100269293764V0.2020991315339463H1.0217134540541228V0.20211047153394632H1.023416881178869V0.2021350415339463H1.0251203083036153V0.2021558315339463H1.0268237354283611V0.20217473153394633H1.0285271625531076V0.2021879615339463H1.030230589677854V0.2022125315339463H1.0319340168025999V0.20222954153394632H1.0336374439273461V0.2022597815339463H1.0353408710520924V0.20227301153394633H1.0370442981768386V0.20229002153394632H1.0387477253015849V0.2023070315339463H1.0404511524263307V0.2023297115339463H1.042154579551077V0.20235050153394632H1.0438580066758232V0.2023580615339463H1.0455614338005694V0.20237318153394632H1.0472648609253157V0.20238830153394632H1.0489682880500615V0.2024072015339463H1.050671715174808V0.2024279915339463H1.0523751422995544V0.2024450015339463H1.0540785694243002V0.20245634153394632H1.0557819965490463V0.2024771315339463H1.0574854236737927V0.2024979215339463H1.059188850798539V0.20250548153394632H1.0608922779232852V0.2025206015339463H1.062595705048031V0.2025451715339463H1.0642991321727775V0.2025678515339463H1.066002559297524V0.20258486153394634H1.0677059864222698V0.20259998153394632H1.0694094135470158V0.20262455153394632H1.0711128406717623V0.2026396715339463H1.0728162677965085V0.20265857153394634H1.0745196949212548V0.2026699115339463H1.0762231220460006V0.2026907015339463H1.077926549170747V0.20270960153394632H1.0796299762954935V0.20273606153394633H1.0813334034202393V0.2027492915339463H1.0830368305449853V0.2027587415339463H1.0847402576697318V0.2027833115339463H1.086443684794478V0.20279465153394632H1.088147111919224V0.2028097715339463H1.0898505390439701V0.20282867153394632H1.0915539661687164V0.20284379153394633H1.093257393293463V0.2028570215339463H1.0949608204182089V0.2028778115339463H1.0966642475429549V0.2029061615339463H1.0983676746677014V0.20292695153394633H1.1000711017924476V0.2029496315339463H1.1017745289171936V0.2029742015339463H1.1034779560419397V0.2029987715339463H1.105181383166686V0.2030120015339463H1.1068848102914326V0.2030233415339463H1.1085882374161784V0.20304224153394632H1.1102916645409244V0.2030649215339463H1.111995091665671V0.20307815153394632H1.1136985187904171V0.2030951615339463H1.1154019459151632V0.2031159515339463H1.1171053730399092V0.2031348515339463H1.1188088001646554V0.20314997153394632H1.1205122272894021V0.2031650915339463H1.122215654414148V0.2031821015339463H1.123919081538894V0.2032123415339463H1.1256225086636404V0.20322557153394633H1.1273259357883867V0.20325014153394633H1.1290293629131327V0.2032841615339463H1.1307327900378787V0.20330306153394634H1.132436217162625V0.20332385153394633H1.1341396442873715V0.20334464153394632H1.1358430714121175V0.2033616515339463H1.1375464985368635V0.20337866153394632H1.13924992566161V0.20339567153394633H1.1409533527863562V0.20341646153394632H1.1426567799111023V0.20343914153394632H1.1443602070358483V0.20346182153394632H1.1460636341605945V0.20348450153394632H1.147767061285341V0.2035241915339463H1.149470488410087V0.20354498153394632H1.151173915534833V0.20356199153394633H1.1528773426595795V0.20358467153394633H1.1545807697843258V0.2036130215339463H1.1562841969090718V0.2036338115339463H1.1579876240338178V0.2036508215339463H1.159691051158564V0.20367728153394632H1.1613944782833105V0.2036905115339463H1.1630979054080566V0.2037264215339463H1.1648013325328026V0.2037434315339463H1.166504759657549V0.20377367153394632H1.1682081867822953V0.20380202153394633H1.1699116139070413V0.20381903153394632H1.1716150410317874V0.2038417115339463H1.1733184681565336V0.2038568315339463H1.17502189528128V0.2038870715339463H1.1767253224060261V0.2039097515339463H1.1784287495307721V0.2039324315339463H1.1801321766555186V0.2039456615339463H1.1818356037802649V0.20396834153394633H1.183539030905011V0.20399102153394633H1.185242458029757V0.2040061415339463H1.1869458851545032V0.20402315153394632H1.1886493122792496V0.20404583153394631H1.1903527394039957V0.20406851153394634H1.1920561665287417V0.20408174153394631H1.1937595936534882V0.2041138715339463H1.1954630207782344V0.20413277153394632H1.1971664479029804V0.2041460015339463H1.1988698750277265V0.2041686815339463H1.2005733021524727V0.20418947153394632H1.2022767292772192V0.2042216015339463H1.2039801564019652V0.20424995153394632H1.2056835835267112V0.20427263153394631H1.2073870106514577V0.20430098153394632H1.2090904377762035V0.20432366153394632H1.21079386490095V0.2043576815339463H1.212497292025696V0.20437847153394634H1.2142007191504423V0.20439548153394632H1.2159041462751885V0.20442005153394632H1.2176075733999348V0.2044370615339463H1.2193110005246806V0.20445596153394632H1.2210144276494272V0.2044729715339463H1.222717854774173V0.2044975415339463H1.2244212818989195V0.20452022153394633H1.2261247090236655V0.20454668153394628H1.2278281361484118V0.2045580215339463H1.2295315632731578V0.20458448153394632H1.2312349903979043V0.2046203915339463H1.23293841752265V0.20465819153394632H1.2346418446473968V0.20468654153394633H1.2363452717721426V0.2046997715339463H1.238048698896889V0.2047167815339463H1.239752126021635V0.2047432415339463H1.2414555531463813V0.2047734815339463H1.2431589802711274V0.20480372153394633H1.2448624073958738V0.2048434115339463H1.2465658345206196V0.20487365153394632H1.2482692616453663V0.2048887715339463H1.2499726887701121V0.2049020015339463H1.2516761158948586V0.2049398015339463H1.2533795430196046V0.20495114153394633H1.2550829701443509V0.20497760153394634H1.256786397269097V0.2050040615339463H1.2584898243938434V0.20502674153394632H1.2601932515185892V0.20506265153394632H1.2618966786433357V0.2050853315339463H1.2636001057680817V0.20510990153394631H1.265303532892828V0.20513636153394632H1.2670069600175742V0.20516093153394632H1.2687103871423204V0.20518172153394632H1.2704138142670665V0.20520818153394632H1.272117241391813V0.2052289715339463H1.2738206685165587V0.20526299153394634H1.2755240956413052V0.2052743315339463H1.2772275227660512V0.20528189153394633H1.2789309498907975V0.2053121315339463H1.2806343770155437V0.2053423715339463H1.28233780414029V0.2053688315339463H1.284041231265036V0.20537828153394633H1.2857446583897825V0.2054066315339463H1.2874480855145283V0.20543309153394632H1.2891515126392747V0.2054633315339463H1.2908549397640208V0.2054897915339463H1.292558366888767V0.2055370415339463H1.2942617940135133V0.20556728153394632H1.2959652211382595V0.20559185153394632H1.2976686482630055V0.20561264153394632H1.299372075387752V0.20564099153394633H1.3010755025124978V0.2056542215339463H1.3027789296372443V0.2057033615339463H1.3044823567619903V0.20572037153394632H1.3061857838867366V0.20574683153394632H1.3078892110114828V0.2057732915339463H1.309592638136229V0.20580920153394633H1.311296065260975V0.2058451115339463H1.3129994923857216V0.2058829115339463H1.3147029195104674V0.20591315153394632H1.3164063466352136V0.2059339415339463H1.3181097737599599V0.2059585115339463H1.319813200884706V0.20598686153394632H1.3215166280094524V0.20602655153394633H1.3232200551341982V0.20605301153394634H1.3249234822589446V0.20607947153394635H1.326626909383691V0.2060983715339463H1.328330336508437V0.20611538153394632H1.3300337636331832V0.20614184153394632H1.3317371907579294V0.2061701915339463H1.3334406178826756V0.20618720153394632H1.335144045007422V0.20621933153394634H1.3368474721321677V0.2062533515339463H1.3385508992569142V0.2062987115339463H1.3402543263816606V0.20632895153394631H1.3419577535064064V0.20635352153394632H1.3436611806311527V0.20638376153394633H1.345364607755899V0.20640833153394633H1.3470680348806452V0.20642723153394632H1.3487714620053914V0.2064423515339463H1.3504748891301372V0.20647259153394631H1.3521783162548837V0.2064914915339463H1.3538817433796302V0.20652551153394633H1.355585170504376V0.2065557515339463H1.357288597629122V0.20657654153394633H1.3589920247538685V0.2065992215339463H1.3606954518786147V0.2066351315339463H1.362398879003361V0.2066634815339463H1.3641023061281068V0.20669183153394632H1.3658057332528533V0.2067277415339463H1.3675091603775997V0.2067579815339463H1.3692125875023455V0.20678633153394632H1.3709160146270916V0.20681090153394632H1.372619441751838V0.2068241315339463H1.3743228688765843V0.20685626153394632H1.3760262960013305V0.2068959515339463H1.3777297231260763V0.20693753153394634H1.3794331502508228V0.20697533153394632H1.3811365773755693V0.20700557153394633H1.382840004500315V0.2070339215339463H1.384543431625061V0.2070641615339463H1.3862468587498076V0.20710007153394633H1.3879502858745538V0.20711897153394632H1.3896537129992999V0.20714354153394632H1.3913571401240459V0.20717000153394632H1.3930605672487921V0.2072021315339463H1.3947639943735388V0.2072304815339463H1.3964674214982846V0.2072550515339463H1.3981708486230306V0.2072796215339463H1.3998742757477771V0.2073060815339463H1.4015777028725234V0.2073287615339463H1.4032811299972694V0.20736089153394632H1.4049845571220154V0.20738357153394632H1.4066879842467617V0.20741570153394634H1.4083914113715084V0.2074478315339463H1.4100948384962542V0.2074875215339463H1.4117982656210002V0.2075196515339463H1.4135016927457467V0.20755178153394632H1.415205119870493V0.2075858015339463H1.416908546995239V0.2076141515339463H1.418611974119985V0.2076406115339463H1.4203154012447312V0.2076670715339463H1.4220188283694777V0.20769731153394633H1.4237222554942237V0.20772188153394633H1.4254256826189697V0.20775023153394628H1.4271291097437162V0.20778047153394633H1.428832536868462V0.20779937153394631H1.4305359639932085V0.20783717153394632H1.4322393911179545V0.2078693015339463H1.4339428182427008V0.2078919815339463H1.435646245367447V0.2079297815339463H1.4373496724921933V0.2079713615339463H1.4390530996169393V0.20801294153394634H1.4407565267416858V0.2080488515339463H1.4424599538664316V0.20807531153394632H1.444163380991178V0.2081093315339463H1.445866808115924V0.20815847153394632H1.4475702352406703V0.20817926153394634H1.4492736623654165V0.20820572153394634H1.4509770894901628V0.2082359615339463H1.4526805166149088V0.20825675153394632H1.4543839437396553V0.2082813215339463H1.456087370864401V0.2083096715339463H1.4577907979891476V0.20834369153394633H1.4594942251138936V0.2083569215339463H1.4611976522386398V0.20838527153394631H1.462901079363386V0.20840984153394632H1.4646045064881323V0.20842307153394632H1.4663079336128784V0.20844953153394633H1.4680113607376248V0.20848544153394633H1.4697147878623706V0.2085156815339463H1.4714182149871171V0.20855348153394632H1.4731216421118631V0.2085742715339463H1.4748250692366094V0.20860451153394632H1.4765284963613556V0.2086404215339463H1.4782319234861019V0.20867444153394632H1.479935350610848V0.20870279153394633H1.4816387777355944V0.2087368115339463H1.4833422048603402V0.20877083153394632H1.4850456319850867V0.2088067415339463H1.4867490591098327V0.20884076153394632H1.488452486234579V0.20886911153394633H1.4901559133593252V0.20889179153394632H1.4918593404840714V0.2089182515339463H1.4935627676088175V0.2089541615339463H1.495266194733564V0.2089806215339463H1.4969696218583097V0.20901653153394634H1.4986730489830562V0.2090448815339463H1.5003764761078022V0.20907890153394632H1.5020799032325485V0.20910914153394633H1.5037833303572947V0.20915639153394633H1.505486757482041V0.20919230153394633H1.507190184606787V0.2092206515339463H1.5088936117315335V0.20925656153394634H1.5105970388562793V0.2092773515339463H1.5123004659810257V0.20932271153394633H1.5140038931057718V0.2093605115339463H1.515707320230518V0.20939642153394633H1.517410747355264V0.2094304415339463H1.5191141744800105V0.2094531215339463H1.5208176016047563V0.20948525153394632H1.5225210287295028V0.20951738153394628H1.5242244558542488V0.2095551815339463H1.5259278829789953V0.20959298153394632H1.5276313101037413V0.2096232215339463H1.5293347372284876V0.20965724153394633H1.5310381643532336V0.20970260153394632H1.53274159147798V0.2097460715339463H1.534445018602726V0.20978576153394632H1.5361484457274721V0.20982734153394633H1.5378518728522184V0.20984813153394632H1.5395552999769648V0.20989349153394632H1.5412587271017109V0.2099369615339463H1.5429621542264567V0.20996531153394632H1.5446655813512031V0.2100068915339463H1.5463690084759496V0.21003713153394632H1.5480724356006956V0.2100711515339463H1.5497758627254417V0.2100976115339463H1.551479289850188V0.2101259615339463H1.5531827169749344V0.21015998153394633H1.5548861440996804V0.2101940015339463H1.5565895712244262V0.2102318015339463H1.5582929983491727V0.21025637153394633H1.5599964254739191V0.21030362153394633H1.561699852598665V0.21033008153394633H1.5634032797234112V0.2103659915339463H1.5651067068481574V0.21039812153394633H1.566810133972904V0.21044726153394633H1.56851356109765V0.2104756115339463H1.5702169882223957V0.21049640153394633H1.5719204153471422V0.2105228615339463H1.5736238424718887V0.21056444153394632H1.5753272695966345V0.21059846153394632H1.5770306967213807V0.21063437153394632H1.578734123846127V0.21066461153394633H1.5804375509708735V0.2107024115339463H1.5821409780956195V0.2107364315339463H1.5838444052203653V0.21076478153394632H1.5855478323451118V0.2107931315339463H1.5872512594698582V0.21082715153394632H1.588954686594604V0.21085928153394629H1.5906581137193503V0.2108933015339463H1.5923615408440965V0.21092165153394632H1.5940649679688428V0.21097268153394633H1.595768395093589V0.2110010315339463H1.5974718222183348V0.2110331615339463H1.5991752493430813V0.2110690715339463H1.6008786764678278V0.2110955315339463H1.6025821035925736V0.21113711153394632H1.6042855307173196V0.21118814153394633H1.605988957842066V0.2112183815339463H1.6076923849668123V0.21125807153394632H1.6093958120915586V0.2113015415339463H1.6110992392163044V0.2113431215339463H1.6128026663410509V0.2113960415339463H1.6145060934657969V0.21143195153394634H1.6162095205905431V0.21147353153394632H1.6179129477152892V0.21149621153394632H1.6196163748400356V0.21152267153394633H1.6213198019647816V0.2115585815339463H1.6230232290895281V0.2115926015339463H1.624726656214274V0.2116341815339463H1.6264300833390204V0.21166820153394633H1.6281335104637664V0.2117078915339463H1.6298369375885127V0.21176459153394633H1.6315403647132587V0.21179105153394634H1.6332437918380052V0.2118250715339463H1.6349472189627512V0.2118685415339463H1.6366506460874977V0.2119195715339463H1.6383540732122435V0.2119706015339463H1.64005750033699V0.21202163153394632H1.641760927461736V0.2120764415339463H1.6434643545864822V0.2121274715339463H1.6451677817112282V0.2121596015339463H1.6468712088359747V0.21218984153394632H1.6485746359607207V0.2122181915339463H1.650278063085467V0.2122578815339463H1.651981490210213V0.2122975715339463H1.6536849173349595V0.2123467115339463H1.6553883444597055V0.2123750615339463H1.6570917715844518V0.21240719153394633H1.6587951987091978V0.21246011153394634H1.6604986258339443V0.2124960215339463H1.6622020529586903V0.21253571153394632H1.6639054800834365V0.2125659515339463H1.6656089072081826V0.2126037515339463H1.667312334332929V0.2126566715339463H1.669015761457675V0.21271526153394632H1.6707191885824213V0.21276062153394631H1.6724226157071673V0.21281543153394633H1.6741260428319138V0.21286835153394632H1.6758294699566598V0.2128985915339463H1.677532897081406V0.21293261153394633H1.679236324206152V0.2129704115339463H1.6809397513308986V0.21300443153394633H1.6826431784556446V0.2130403415339463H1.6843466055803908V0.21310271153394633H1.6860500327051369V0.2131424015339463H1.6877534598298833V0.21319343153394632H1.6894568869546291V0.21324068153394632H1.6911603140793756V0.2132595815339463H1.6928637412041216V0.21329927153394632H1.6945671683288681V0.2133484115339463H1.6962705954536141V0.2133899915339463H1.6979740225783604V0.2134277915339463H1.6996774497031064V0.21345425153394632H1.7013808768278529V0.21348827153394634H1.7030843039525987V0.2135222915339463H1.7047877310773452V0.21355820153394633H1.7064911582020912V0.2135960015339463H1.7081945853268377V0.21364703153394632H1.7098980124515837V0.2136886115339463H1.71160143957633V0.21373019153394632H1.713304866701076V0.2137604315339463H1.7150082938258224V0.2138001215339463H1.7167117209505682V0.2138360315339463H1.7184151480753147V0.2138813915339463H1.7201185752000607V0.2139286415339463H1.721822002324807V0.2139645515339463H1.7235254294495532V0.2140004615339463H1.7252288565742995V0.21404582153394633H1.7269322836990455V0.2140968515339463H1.728635710823792V0.2141346515339463H1.7303391379485378V0.21418001153394634H1.7320425650732842V0.21422159153394632H1.7337459921980303V0.2142612815339463H1.7354494193227765V0.21430853153394633H1.7371528464475228V0.21435200153394632H1.738856273572269V0.21438980153394632H1.740559700697015V0.2144276015339463H1.7422631278217615V0.21446162153394632H1.7439665549465073V0.21450698153394632H1.7456699820712538V0.21455612153394632H1.7473734091959998V0.2145939215339463H1.749076836320746V0.2146449515339463H1.7507802634454923V0.2146940915339463H1.7524836905702386V0.2147300015339463H1.7541871176949846V0.21476969153394632H1.755890544819731V0.2148339515339463H1.7575939719444769V0.2148623015339463H1.7592973990692233V0.2149095515339463H1.7610008261939694V0.2149757015339463H1.7627042533187156V0.2150153915339463H1.7644076804434619V0.2150720915339463H1.766111107568208V0.2151136715339463H1.7678145346929541V0.2151609215339463H1.7695179618177006V0.21521195153394632H1.7712213889424464V0.2152686515339463H1.7729248160671929V0.2153064515339463H1.774628243191939V0.21535559153394634H1.776331670316685V0.21540284153394632H1.7780350974414312V0.21544820153394634H1.7797385245661776V0.2155067915339463H1.7814419516909237V0.21555971153394632H1.7831453788156697V0.2155918415339463H1.784848805940416V0.2156523215339463H1.7865522330651624V0.21570335153394632H1.7882556601899084V0.21575627153394633H1.7899590873146545V0.2158091915339463H1.7916625144394007V0.21585077153394633H1.7933659415641472V0.2159018015339463H1.7950693686888932V0.21595283153394632H1.7967727958136392V0.21599630153394633H1.7984762229383855V0.21603977153394632H1.800179650063132V0.2160813515339463H1.801883077187878V0.2161267115339463H1.803586504312624V0.21618719153394633H1.8052899314373703V0.21623633153394634H1.8069933585621167V0.2162835815339463H1.8086967856868628V0.21632516153394632H1.8104002128116088V0.21635351153394633H1.812103639936355V0.21639509153394632H1.8138070670611015V0.21644612153394632H1.8155104941858475V0.21649526153394633H1.8172139213105936V0.2165614115339463H1.8189173484353398V0.2166162215339463H1.8206207755600858V0.2166634715339463H1.8223242026848323V0.21670694153394632H1.8240276298095783V0.21673529153394633H1.8257310569343246V0.2167919915339463H1.8274344840590706V0.2168619215339463H1.829137911183817V0.2168902715339463H1.830841338308563V0.2169413015339463H1.8325447654333094V0.21699422153394632H1.8342481925580554V0.2170376915339463H1.8359516196828018V0.2170792715339463H1.8376550468075479V0.21713975153394632H1.8393584739322941V0.21720023153394633H1.8410619010570402V0.2172493715339463H1.8427653281817866V0.2173079615339463H1.8444687553065324V0.2173608815339463H1.846172182431279V0.21741191153394632H1.847875609556025V0.21747239153394632H1.8495790366807714V0.21752153153394632H1.8512824638055174V0.2175801215339463H1.8529858909302637V0.2176273715339463H1.8546893180550097V0.21768596153394631H1.8563927451797562V0.21774077153394633H1.858096172304502V0.2177918015339463H1.8597995994292484V0.2178352715339463H1.8615030265539945V0.21789197153394632H1.863206453678741V0.2179316615339463H1.864909880803487V0.21798458153394631H1.8666133079282332V0.21804695153394632H1.8683167350529792V0.21808286153394632H1.8700201621777257V0.21813200153394632H1.8717235893024715V0.2181811415339463H1.873427016427218V0.2182454015339463H1.875130443551964V0.2182907615339463H1.8768338706767103V0.2183455715339463H1.8785372978014563V0.2184117215339463H1.8802407249262028V0.21846464153394632H1.8819441520509488V0.2185213415339463H1.8836475791756953V0.2185685915339463H1.885351006300441V0.2186271815339463H1.8870544334251875V0.21867065153394633H1.8887578605499336V0.21872357153394634H1.8904612876746798V0.2187689315339463H1.8921647147994258V0.21883508153394632H1.8938681419241723V0.21889178153394634H1.8955715690489183V0.2189276915339463H1.8972749961736648V0.21897683153394631H1.8989784232984106V0.2190373115339463H1.900681850423157V0.21908267153394634H1.902385277547903V0.2191299215339463H1.9040887046726493V0.21920174153394634H1.9057921317973954V0.2192622215339463H1.9074955589221418V0.2193227015339463H1.9091989860468879V0.2193567215339463H1.9109024131716341V0.21941909153394631H1.9126058402963801V0.2194663415339463H1.9143092674211266V0.21951737153394632H1.9160126945458726V0.2195627315339463H1.917716121670619V0.21962699153394633H1.919419548795365V0.2196874715339463H1.9211229759201114V0.2197592915339463H1.9228264030448574V0.21982544153394631H1.9245298301696037V0.21986135153394631H1.9262332572943497V0.2199237215339463H1.9279366844190962V0.2199747515339463H1.9296401115438422V0.22003145153394632H1.9313435386685884V0.22008815153394629H1.9330469657933345V0.22014863153394632H1.934750392918081V0.2202034415339463H1.936453820042827V0.2202639215339463H1.9381572471675732V0.2203149515339463H1.9398606742923192V0.22038866153394632H1.9415641014170657V0.22043969153394632H1.9432675285418117V0.22048694153394632H1.944970955666558V0.2205530915339463H1.946674382791304V0.22059467153394632H1.9483778099160505V0.2206702715339463H1.9500812370407965V0.22072697153394633H1.9517846641655427V0.22078367153394632H1.9534880912902888V0.22085171153394634H1.9551915184150352V0.2208989615339463H1.9568949455397813V0.22097645153394632H1.9585983726645275V0.22103882153394633H1.9603017997892735V0.2210898515339463H1.96200522691402V0.2211446615339463H1.963708654038766V0.22121270153394632H1.9654120811635123V0.2212826315339463H1.9671155082882583V0.2213620115339463H1.9688189354130048V0.2214224915339463H1.9705223625377508V0.2214716315339463H1.972225789662497V0.22151132153394631H1.973929216787243V0.2215755815339463H1.9756326439119896V0.2216492915339463H1.9773360710367356V0.2217154415339463H1.9790394981614818V0.2217664715339463H1.9807429252862279V0.2218307315339463H1.9824463524109743V0.2218817615339463H1.9841497795357204V0.22194602153394632H1.9858532066604666V0.22202540153394631H1.9875566337852126V0.2220839915339463H1.989260060909959V0.22216148153394633H1.9909634880347051V0.22221818153394632H1.9926669151594514V0.2222673215339463H1.9943703422841974V0.2223221315339463H1.9960737694089439V0.22238072153394628H1.99777719653369V0.2224430915339463H1.9994806236584362V0.22249223153394632H2.0011840507831824V0.22256405153394632H2.0028874779079286V0.22264343153394633H2.0045909050326745V0.22271147153394633H2.006294332157421V0.2227530515339463H2.007997759282167V0.22281542153394632H2.009701186406913V0.2228834615339463H2.0114046135316594V0.22294961153394632H2.0131080406564057V0.22300064153394633H2.014811467781152V0.2230743515339463H2.016514894905898V0.22313672153394631H2.018218322030644V0.22319342153394633H2.0199217491553907V0.2232746915339463H2.0216251762801365z"/></svg>
