<!-- This Source Code Form is subject to the terms of the Mozilla Public
   - License, v. 2.0. If a copy of the MPL was not distributed with this
   - file, You can obtain one at http://mozilla.org/MPL/2.0/. -->
<svg fill="context-fill" xmlns="http://www.w3.org/2000/svg" viewBox="0 0 16 16" width="16" height="16">
<style>
.nova { display: none; }

@media -moz-pref("browser.nova.enabled") {
  .proton { display: none; }
  .nova { display: revert; }
}
</style>
<g class="proton">
  <path d="M7.625.5a7.5 7.5 0 1 0 0 15 7.5 7.5 0 0 0 0-15ZM6.45 11 3.808 8.357a.625.625 0 0 1 .885-.883l2.071 2.072 3.794-3.795a.626.626 0 0 1 .885.885L7.078 11H6.45Z"/>
</g>
<g class="nova">
  <path fill-rule="evenodd" d="M8 0a8 8 0 1 1 0 16A8 8 0 0 1 8 0m3.405 5.82a.75.75 0 0 0-1.06 0L7.267 8.898l-1.612-1.61a.75.75 0 0 0-1.06 1.06l1.611 1.611a1.5 1.5 0 0 0 2.121 0l3.078-3.078a.75.75 0 0 0 0-1.06" clip-rule="evenodd" />
</g>
</svg>
